M48
;DRILL file {Pcbnew (2013-05-18 BZR 4017)-stable} date Wed 25 Mar 2015 17:38:25 GMT
;FORMAT={-:-/ absolute / metric / decimal}
FMAT,2
METRIC,TZ
T1C0.399
T2C0.500
T3C0.635
T4C1.199
%
G90
G05
M71
T1
X115.062Y-107.696
X130.683Y-94.107
X141.986Y-109.728
X157.353Y-97.917
T2
X118.999Y-113.284
X118.999Y-115.062
X119.634Y-114.173
X120.269Y-113.284
X120.269Y-115.062
X120.904Y-114.173
X121.539Y-113.284
X121.539Y-115.062
X122.174Y-114.173
X122.809Y-113.284
X122.809Y-115.062
X123.19Y-90.297
X123.19Y-92.075
X123.825Y-91.186
X124.46Y-90.297
X124.46Y-92.075
X125.095Y-91.186
X125.73Y-90.297
X125.73Y-92.075
X126.365Y-91.186
X127.Y-90.297
X127.Y-92.075
X144.907Y-91.567
X144.907Y-93.345
X145.034Y-113.411
X145.034Y-115.189
X145.542Y-92.456
X145.669Y-114.3
X146.177Y-91.567
X146.177Y-93.345
X146.304Y-113.411
X146.304Y-115.189
X146.812Y-92.456
X146.939Y-114.3
X147.447Y-91.567
X147.447Y-93.345
X147.574Y-113.411
X147.574Y-115.189
X148.082Y-92.456
X148.209Y-114.3
X148.717Y-91.567
X148.717Y-93.345
X148.844Y-113.411
X148.844Y-115.189
T3
X93.853Y-104.14
X94.107Y-98.552
X100.965Y-106.172
X105.791Y-100.584
X105.918Y-77.724
X107.315Y-100.203
X108.585Y-78.232
X108.585Y-103.378
X108.966Y-62.484
X109.855Y-67.691
X109.855Y-96.012
X109.982Y-102.743
X110.109Y-97.79
X110.49Y-107.696
X110.49Y-119.761
X112.395Y-86.868
X112.649Y-80.391
X113.157Y-123.571
X113.411Y-101.219
X113.538Y-133.096
X113.919Y-70.104
X114.173Y-97.282
X114.554Y-65.024
X114.808Y-116.713
X116.078Y-63.119
X116.078Y-66.294
X116.205Y-116.332
X116.332Y-96.901
X116.713Y-107.696
X117.221Y-123.571
X117.348Y-84.582
X118.364Y-87.249
X118.491Y-119.888
X118.618Y-109.22
X118.745Y-121.539
X119.38Y-107.569
X119.634Y-81.661
X121.666Y-107.823
X121.666Y-109.22
X122.428Y-85.598
X123.063Y-123.952
X123.19Y-121.412
X123.317Y-119.761
X123.698Y-85.344
X124.333Y-95.758
X124.841Y-102.743
X124.968Y-96.901
X125.857Y-82.931
X126.238Y-84.836
X126.873Y-96.901
X127.127Y-85.598
X127.254Y-95.758
X128.397Y-113.665
X128.905Y-119.253
X130.556Y-81.788
X131.191Y-86.614
X131.699Y-111.76
X132.842Y-118.237
X133.858Y-124.841
X133.985Y-78.613
X134.239Y-111.379
X135.001Y-73.406
X135.636Y-90.424
X136.017Y-71.882
X136.017Y-119.253
X136.652Y-94.488
X136.906Y-88.011
X137.033Y-64.008
X137.033Y-73.406
X138.049Y-127.381
X138.684Y-83.058
X139.827Y-122.682
X140.081Y-92.456
X140.208Y-133.477
X140.97Y-104.013
X141.224Y-86.487
X141.478Y-118.364
X141.605Y-99.441
X142.875Y-118.618
X143.129Y-87.884
X143.637Y-123.444
X143.891Y-85.979
X144.399Y-81.915
X144.526Y-83.82
X144.653Y-107.696
X144.907Y-119.888
X144.907Y-121.158
X145.288Y-85.725
X145.796Y-109.093
X146.05Y-97.282
X146.558Y-98.679
X146.812Y-83.82
X147.701Y-109.601
X148.209Y-85.344
X148.59Y-98.679
X148.59Y-120.396
X149.225Y-97.663
X149.352Y-85.979
X149.479Y-107.569
X149.479Y-123.698
X149.606Y-83.439
X149.86Y-121.285
X151.003Y-83.947
X151.638Y-120.396
X152.4Y-67.183
X152.781Y-83.82
X153.416Y-115.443
X153.797Y-91.694
X153.797Y-103.886
X153.924Y-107.569
X154.813Y-67.056
X155.194Y-115.316
X155.448Y-93.853
X155.702Y-83.566
X156.337Y-62.357
X157.353Y-90.043
X158.115Y-116.205
X158.369Y-114.681
X158.496Y-67.31
X159.131Y-106.299
X159.258Y-56.642
X159.639Y-103.124
X159.893Y-109.982
X160.274Y-54.102
X160.655Y-123.063
X160.655Y-126.238
X160.782Y-94.742
X160.909Y-70.231
X161.544Y-53.213
X161.671Y-115.697
X162.052Y-76.962
X162.179Y-120.015
X162.306Y-69.596
X162.56Y-75.565
X163.576Y-115.824
X163.576Y-120.269
X163.957Y-98.552
X164.084Y-95.504
X164.211Y-101.6
X164.465Y-75.438
X164.719Y-119.126
X165.354Y-70.231
X165.608Y-72.009
X165.735Y-64.897
X165.735Y-67.31
X167.64Y-112.649
X168.402Y-94.615
X168.529Y-84.328
X169.164Y-66.04
X169.545Y-108.966
X169.672Y-89.154
X169.672Y-99.949
X170.053Y-59.436
X170.434Y-74.803
X170.434Y-116.967
X170.561Y-90.678
X170.815Y-61.214
X171.196Y-120.65
X173.355Y-114.046
T4
X83.386Y-110.015
X83.386Y-112.555
X83.386Y-115.095
X83.386Y-117.635
X83.386Y-120.175
X83.386Y-122.715
X83.386Y-125.255
X83.386Y-130.335
X83.386Y-132.875
X83.386Y-135.415
X83.386Y-137.955
X83.386Y-140.495
X83.386Y-143.035
X83.386Y-148.115
X83.386Y-150.655
X90.424Y-55.372
X90.424Y-84.328
X92.964Y-55.372
X92.964Y-84.328
X95.504Y-55.372
X95.504Y-84.328
X98.044Y-55.372
X98.044Y-84.328
X100.584Y-55.372
X100.584Y-84.328
X103.124Y-55.372
X103.124Y-84.328
X103.124Y-109.728
X103.124Y-112.268
X103.124Y-114.808
X103.124Y-117.348
X103.124Y-119.888
X103.124Y-122.428
X103.124Y-124.968
X103.124Y-130.556
X103.124Y-133.096
X103.124Y-135.636
X103.124Y-138.176
X103.124Y-140.716
X103.124Y-143.256
X103.124Y-148.082
X103.124Y-150.622
X109.22Y-55.499
X111.018Y-93.736
X111.76Y-55.499
X116.078Y-75.946
X116.078Y-130.
X118.618Y-75.946
X118.618Y-130.
X121.158Y-75.946
X121.158Y-130.
X123.698Y-75.946
X123.698Y-130.
X126.238Y-75.946
X126.238Y-130.
X128.778Y-75.946
X128.778Y-130.
X131.318Y-75.946
X131.318Y-130.
X141.351Y-75.946
X142.748Y-130.
X143.891Y-75.946
X145.288Y-130.
X146.431Y-75.946
X147.828Y-130.
X148.971Y-75.946
X150.368Y-130.
X151.511Y-75.946
X152.908Y-130.
X154.051Y-75.946
X155.448Y-130.
X156.591Y-75.946
X157.988Y-130.
X169.164Y-124.587
X169.164Y-127.127
X169.164Y-129.667
X169.164Y-132.207
X174.94Y-49.883
X174.94Y-52.423
X174.94Y-54.963
X174.94Y-57.503
X174.94Y-60.043
X174.94Y-62.583
X174.94Y-65.123
X174.94Y-67.663
X174.94Y-70.203
X174.94Y-72.743
X174.94Y-75.283
X174.94Y-77.823
X174.94Y-80.363
X174.94Y-82.903
X174.94Y-85.443
X174.94Y-87.983
X174.94Y-90.523
X174.94Y-93.063
X174.94Y-95.603
X174.94Y-98.143
X174.94Y-100.683
X174.94Y-103.223
X174.94Y-105.763
X174.94Y-108.303
X174.94Y-110.843
X176.149Y-116.713
X176.149Y-119.253
X176.276Y-124.587
X176.276Y-127.127
X176.276Y-129.667
X176.276Y-132.207
X177.48Y-49.883
X177.48Y-52.423
X177.48Y-54.963
X177.48Y-57.503
X177.48Y-60.043
X177.48Y-62.583
X177.48Y-65.123
X177.48Y-67.663
X177.48Y-70.203
X177.48Y-72.743
X177.48Y-75.283
X177.48Y-77.823
X177.48Y-80.363
X177.48Y-82.903
X177.48Y-85.443
X177.48Y-87.983
X177.48Y-90.523
X177.48Y-93.063
X177.48Y-95.603
X177.48Y-98.143
X177.48Y-100.683
X177.48Y-103.223
X177.48Y-105.763
X177.48Y-108.303
X177.48Y-110.843
T0
M30
