G04 (created by PCBNEW (2013-05-18 BZR 4017)-stable) date Wed 25 Mar 2015 17:38:18 GMT*
%MOIN*%
G04 Gerber Fmt 3.4, Leading zero omitted, Abs format*
%FSLAX34Y34*%
G01*
G70*
G90*
G04 APERTURE LIST*
%ADD10C,0.00590551*%
%ADD11R,0.0906X0.0512*%
%ADD12R,0.2559X0.2323*%
%ADD13R,0.0165X0.0579*%
%ADD14R,0.0394X0.0236*%
%ADD15R,0.0709X0.0453*%
%ADD16R,0.0374X0.0394*%
%ADD17R,0.0394X0.0374*%
%ADD18R,0.0512X0.0906*%
%ADD19R,0.2323X0.2559*%
%ADD20R,0.1417X0.063*%
%ADD21R,0.063X0.1417*%
%ADD22R,0.0571X0.0453*%
%ADD23R,0.1701X0.1181*%
%ADD24R,0.0453X0.0709*%
G04 APERTURE END LIST*
G54D10*
G54D11*
X41500Y-26400D03*
G54D12*
X39000Y-25500D03*
G54D11*
X41500Y-24600D03*
G54D13*
X64522Y-24552D03*
X64778Y-24552D03*
X65034Y-24552D03*
X65290Y-24552D03*
X63758Y-22350D03*
X63754Y-24552D03*
X64010Y-24552D03*
X64266Y-24552D03*
X65546Y-22348D03*
X65290Y-22348D03*
X65034Y-22348D03*
X64778Y-22348D03*
X64522Y-22348D03*
X64266Y-22348D03*
X65546Y-24552D03*
X64010Y-22350D03*
X63498Y-24552D03*
X65802Y-24552D03*
X65802Y-22348D03*
X63498Y-22348D03*
G54D14*
X40516Y-40775D03*
X39684Y-40400D03*
X40516Y-40025D03*
X44066Y-26125D03*
X43234Y-25750D03*
X44066Y-25375D03*
G54D15*
X51650Y-34609D03*
X51650Y-35791D03*
X46200Y-32841D03*
X46200Y-31659D03*
X44900Y-46609D03*
X44900Y-47791D03*
X50000Y-46959D03*
X50000Y-48141D03*
G54D16*
X53415Y-52600D03*
X52785Y-52600D03*
X45365Y-36700D03*
X44735Y-36700D03*
X43535Y-29400D03*
X44165Y-29400D03*
X64285Y-21350D03*
X64915Y-21350D03*
X41965Y-27350D03*
X41335Y-27350D03*
G54D17*
X35600Y-25615D03*
X35600Y-24985D03*
X35600Y-37015D03*
X35600Y-36385D03*
X37150Y-25885D03*
X37150Y-26515D03*
X38000Y-36385D03*
X38000Y-37015D03*
X38900Y-41815D03*
X38900Y-41185D03*
X44200Y-26935D03*
X44200Y-27565D03*
G54D16*
X41285Y-40700D03*
X41915Y-40700D03*
G54D17*
X38900Y-40315D03*
X38900Y-39685D03*
X47750Y-41715D03*
X47750Y-41085D03*
X47000Y-41085D03*
X47000Y-41715D03*
X50550Y-45135D03*
X50550Y-45765D03*
X45300Y-31585D03*
X45300Y-32215D03*
G54D16*
X44935Y-37400D03*
X45565Y-37400D03*
X43265Y-27350D03*
X42635Y-27350D03*
X43585Y-30950D03*
X44215Y-30950D03*
X53465Y-51200D03*
X52835Y-51200D03*
G54D17*
X63350Y-26515D03*
X63350Y-25885D03*
X38000Y-34985D03*
X38000Y-35600D03*
X37150Y-24485D03*
X37150Y-25100D03*
G54D16*
X44165Y-30150D03*
X43550Y-30150D03*
X52835Y-51900D03*
X53450Y-51900D03*
G54D18*
X38900Y-38500D03*
G54D19*
X39800Y-36000D03*
G54D18*
X40700Y-38500D03*
G54D20*
X52667Y-26300D03*
X54833Y-26300D03*
G54D21*
X43500Y-34433D03*
X43500Y-32267D03*
X43500Y-45883D03*
X43500Y-43717D03*
X35600Y-38817D03*
X35600Y-40983D03*
G54D22*
X35600Y-24254D03*
X35600Y-23546D03*
X35600Y-35654D03*
X35600Y-34946D03*
G54D16*
X43665Y-35800D03*
X43035Y-35800D03*
G54D17*
X45300Y-44535D03*
X45300Y-45165D03*
X52700Y-36515D03*
X52700Y-35885D03*
G54D16*
X44765Y-42400D03*
X44135Y-42400D03*
G54D17*
X54250Y-52615D03*
X54250Y-51985D03*
X42750Y-29385D03*
X42750Y-30015D03*
X66050Y-26515D03*
X66050Y-25885D03*
X52700Y-34185D03*
X52700Y-34815D03*
X48450Y-41715D03*
X48450Y-41085D03*
X49150Y-41715D03*
X49150Y-41085D03*
X45150Y-41415D03*
X45150Y-40785D03*
G54D16*
X45115Y-35200D03*
X44485Y-35200D03*
X45115Y-35950D03*
X44485Y-35950D03*
X49885Y-49500D03*
X50515Y-49500D03*
X48515Y-49300D03*
X47885Y-49300D03*
G54D17*
X46150Y-49515D03*
X46150Y-48885D03*
X44700Y-51715D03*
X44700Y-51085D03*
G54D16*
X47765Y-31550D03*
X47135Y-31550D03*
G54D17*
X49650Y-32165D03*
X49650Y-31535D03*
G54D16*
X50735Y-31600D03*
X51365Y-31600D03*
G54D17*
X52700Y-30515D03*
X52700Y-29885D03*
X47150Y-36535D03*
X47150Y-37165D03*
X49600Y-44365D03*
X49600Y-43735D03*
X37600Y-39685D03*
X37600Y-40315D03*
G54D16*
X44715Y-24500D03*
X44085Y-24500D03*
G54D17*
X60150Y-35415D03*
X60150Y-34800D03*
X61350Y-35415D03*
X61350Y-34800D03*
X62550Y-35415D03*
X62550Y-34800D03*
X63750Y-35415D03*
X63750Y-34800D03*
X60150Y-34115D03*
X60150Y-33485D03*
X61350Y-34115D03*
X61350Y-33485D03*
X62550Y-34115D03*
X62550Y-33485D03*
X63750Y-34115D03*
X63750Y-33485D03*
X35050Y-27015D03*
X35050Y-26385D03*
X34950Y-29685D03*
X34950Y-30315D03*
G54D13*
X49072Y-37052D03*
X49328Y-37052D03*
X49584Y-37052D03*
X49840Y-37052D03*
X48308Y-34850D03*
X48304Y-37052D03*
X48560Y-37052D03*
X48816Y-37052D03*
X50096Y-34848D03*
X49840Y-34848D03*
X49584Y-34848D03*
X49328Y-34848D03*
X49072Y-34848D03*
X48816Y-34848D03*
X50096Y-37052D03*
X48560Y-34850D03*
X48048Y-37052D03*
X50352Y-37052D03*
X50352Y-34848D03*
X48048Y-34848D03*
X47793Y-37052D03*
X50607Y-37052D03*
X50607Y-34848D03*
X47793Y-34848D03*
G54D23*
X49200Y-35950D03*
G54D13*
X47778Y-43798D03*
X47522Y-43798D03*
X47266Y-43798D03*
X47010Y-43798D03*
X48542Y-46000D03*
X48546Y-43798D03*
X48290Y-43798D03*
X48034Y-43798D03*
X46754Y-46002D03*
X47010Y-46002D03*
X47266Y-46002D03*
X47522Y-46002D03*
X47778Y-46002D03*
X48034Y-46002D03*
X46754Y-43798D03*
X48290Y-46000D03*
X48802Y-43798D03*
X46498Y-43798D03*
X46498Y-46002D03*
X48802Y-46002D03*
X49057Y-43798D03*
X46243Y-43798D03*
X46243Y-46002D03*
X49057Y-46002D03*
G54D23*
X47650Y-44900D03*
G54D13*
X58028Y-43848D03*
X57772Y-43848D03*
X57516Y-43848D03*
X57260Y-43848D03*
X58792Y-46050D03*
X58796Y-43848D03*
X58540Y-43848D03*
X58284Y-43848D03*
X57004Y-46052D03*
X57260Y-46052D03*
X57516Y-46052D03*
X57772Y-46052D03*
X58028Y-46052D03*
X58284Y-46052D03*
X57004Y-43848D03*
X58540Y-46050D03*
X59052Y-43848D03*
X56748Y-43848D03*
X56748Y-46052D03*
X59052Y-46052D03*
X59307Y-43848D03*
X56493Y-43848D03*
X56493Y-46052D03*
X59307Y-46052D03*
G54D23*
X57900Y-44950D03*
G54D13*
X57622Y-37552D03*
X57878Y-37552D03*
X58134Y-37552D03*
X58390Y-37552D03*
X56858Y-35350D03*
X56854Y-37552D03*
X57110Y-37552D03*
X57366Y-37552D03*
X58646Y-35348D03*
X58390Y-35348D03*
X58134Y-35348D03*
X57878Y-35348D03*
X57622Y-35348D03*
X57366Y-35348D03*
X58646Y-37552D03*
X57110Y-35350D03*
X56598Y-37552D03*
X58902Y-37552D03*
X58902Y-35348D03*
X56598Y-35348D03*
X56343Y-37552D03*
X59157Y-37552D03*
X59157Y-35348D03*
X56343Y-35348D03*
G54D23*
X57750Y-36450D03*
G54D15*
X55600Y-34609D03*
X55600Y-35791D03*
G54D24*
X61191Y-37700D03*
X60009Y-37700D03*
G54D15*
X60650Y-47359D03*
X60650Y-48541D03*
X55050Y-46609D03*
X55050Y-47791D03*
G54D17*
X62200Y-44415D03*
X62200Y-43785D03*
X62950Y-43785D03*
X62950Y-44415D03*
G54D16*
X64935Y-35800D03*
X65565Y-35800D03*
G54D17*
X58900Y-40015D03*
X58900Y-39385D03*
X58100Y-39385D03*
X58100Y-40015D03*
G54D21*
X54650Y-38867D03*
X54650Y-41033D03*
X53550Y-45833D03*
X53550Y-43667D03*
G54D16*
X61115Y-38550D03*
X60485Y-38550D03*
X59035Y-31650D03*
X59665Y-31650D03*
X62685Y-30650D03*
X63315Y-30650D03*
X63315Y-29900D03*
X62685Y-29900D03*
X60335Y-49500D03*
X60965Y-49500D03*
G54D17*
X57150Y-39285D03*
X57150Y-39915D03*
G54D16*
X58815Y-49250D03*
X58185Y-49250D03*
G54D17*
X56450Y-39285D03*
X56450Y-39915D03*
X56550Y-49515D03*
X56550Y-48885D03*
G54D16*
X58765Y-40750D03*
X58135Y-40750D03*
G54D17*
X55200Y-51865D03*
X55200Y-51235D03*
G54D16*
X59335Y-42350D03*
X59965Y-42350D03*
G54D17*
X60050Y-43785D03*
X60050Y-44415D03*
X60800Y-43785D03*
X60800Y-44415D03*
X55650Y-36985D03*
X55650Y-37615D03*
X61500Y-43785D03*
X61500Y-44415D03*
X55450Y-44735D03*
X55450Y-45365D03*
X54850Y-36985D03*
X54850Y-37615D03*
G54D16*
X57515Y-31550D03*
X56885Y-31550D03*
X55915Y-43800D03*
X55285Y-43800D03*
G54D17*
X61000Y-45835D03*
X61000Y-46465D03*
G54D16*
X63915Y-51150D03*
X63285Y-51150D03*
G54D17*
X54600Y-31585D03*
X54600Y-32215D03*
G54D16*
X56015Y-32450D03*
X55385Y-32450D03*
X63915Y-52600D03*
X63285Y-52600D03*
X63285Y-51900D03*
X63900Y-51900D03*
G54D17*
X54600Y-30285D03*
X54600Y-30900D03*
G54D16*
X55485Y-31550D03*
X56115Y-31550D03*
G54D17*
X64750Y-52615D03*
X64750Y-51985D03*
M02*
