G04 (created by PCBNEW (2013-05-18 BZR 4017)-stable) date Wed 25 Mar 2015 17:38:18 GMT*
%MOIN*%
G04 Gerber Fmt 3.4, Leading zero omitted, Abs format*
%FSLAX34Y34*%
G01*
G70*
G90*
G04 APERTURE LIST*
%ADD10C,0.00590551*%
%ADD11C,0.012*%
%ADD12C,0.00984252*%
%ADD13C,0.011811*%
%ADD14C,0.005*%
%ADD15C,0.0079*%
%ADD16C,0.006*%
%ADD17C,0.0059*%
%ADD18C,0.01*%
%ADD19C,0.015*%
%ADD20C,0.0039*%
%ADD21C,0.008*%
%ADD22C,0.001975*%
%ADD23C,0.002*%
%ADD24C,0.0047*%
%ADD25C,0.0024*%
%ADD26C,0.0016*%
G04 APERTURE END LIST*
G54D10*
G54D11*
X42907Y-23221D02*
X42850Y-23192D01*
X42764Y-23192D01*
X42678Y-23221D01*
X42621Y-23278D01*
X42592Y-23335D01*
X42564Y-23450D01*
X42564Y-23535D01*
X42592Y-23650D01*
X42621Y-23707D01*
X42678Y-23764D01*
X42764Y-23792D01*
X42821Y-23792D01*
X42907Y-23764D01*
X42935Y-23735D01*
X42935Y-23535D01*
X42821Y-23535D01*
X43821Y-23464D02*
X44278Y-23464D01*
X44050Y-23692D02*
X44050Y-23235D01*
X51807Y-51771D02*
X51750Y-51742D01*
X51664Y-51742D01*
X51578Y-51771D01*
X51521Y-51828D01*
X51492Y-51885D01*
X51464Y-52000D01*
X51464Y-52085D01*
X51492Y-52200D01*
X51521Y-52257D01*
X51578Y-52314D01*
X51664Y-52342D01*
X51721Y-52342D01*
X51807Y-52314D01*
X51835Y-52285D01*
X51835Y-52085D01*
X51721Y-52085D01*
X50471Y-52014D02*
X50928Y-52014D01*
X50700Y-52242D02*
X50700Y-51785D01*
X49528Y-52314D02*
X49614Y-52342D01*
X49757Y-52342D01*
X49814Y-52314D01*
X49842Y-52285D01*
X49871Y-52228D01*
X49871Y-52171D01*
X49842Y-52114D01*
X49814Y-52085D01*
X49757Y-52057D01*
X49642Y-52028D01*
X49585Y-52000D01*
X49557Y-51971D01*
X49528Y-51914D01*
X49528Y-51857D01*
X49557Y-51800D01*
X49585Y-51771D01*
X49642Y-51742D01*
X49785Y-51742D01*
X49871Y-51771D01*
X48500Y-52028D02*
X48585Y-52057D01*
X48614Y-52085D01*
X48642Y-52142D01*
X48642Y-52228D01*
X48614Y-52285D01*
X48585Y-52314D01*
X48528Y-52342D01*
X48300Y-52342D01*
X48300Y-51742D01*
X48500Y-51742D01*
X48557Y-51771D01*
X48585Y-51800D01*
X48614Y-51857D01*
X48614Y-51914D01*
X48585Y-51971D01*
X48557Y-52000D01*
X48500Y-52028D01*
X48300Y-52028D01*
X48900Y-52342D02*
X48900Y-51742D01*
X48957Y-52114D02*
X49128Y-52342D01*
X49128Y-51942D02*
X48900Y-52171D01*
X47757Y-51771D02*
X47700Y-51742D01*
X47614Y-51742D01*
X47528Y-51771D01*
X47471Y-51828D01*
X47442Y-51885D01*
X47414Y-52000D01*
X47414Y-52085D01*
X47442Y-52200D01*
X47471Y-52257D01*
X47528Y-52314D01*
X47614Y-52342D01*
X47671Y-52342D01*
X47757Y-52314D01*
X47785Y-52285D01*
X47785Y-52085D01*
X47671Y-52085D01*
X46535Y-52028D02*
X46621Y-52057D01*
X46650Y-52085D01*
X46678Y-52142D01*
X46678Y-52228D01*
X46650Y-52285D01*
X46621Y-52314D01*
X46564Y-52342D01*
X46335Y-52342D01*
X46335Y-51742D01*
X46535Y-51742D01*
X46592Y-51771D01*
X46621Y-51800D01*
X46650Y-51857D01*
X46650Y-51914D01*
X46621Y-51971D01*
X46592Y-52000D01*
X46535Y-52028D01*
X46335Y-52028D01*
X47021Y-52342D02*
X46964Y-52314D01*
X46935Y-52257D01*
X46935Y-51742D01*
X45835Y-52342D02*
X45635Y-52057D01*
X45492Y-52342D02*
X45492Y-51742D01*
X45721Y-51742D01*
X45778Y-51771D01*
X45807Y-51800D01*
X45835Y-51857D01*
X45835Y-51942D01*
X45807Y-52000D01*
X45778Y-52028D01*
X45721Y-52057D01*
X45492Y-52057D01*
X42728Y-59392D02*
X42728Y-59592D01*
X43042Y-59592D02*
X42442Y-59592D01*
X42442Y-59307D01*
X43042Y-58821D02*
X42728Y-58821D01*
X42671Y-58849D01*
X42642Y-58907D01*
X42642Y-59021D01*
X42671Y-59078D01*
X43014Y-58821D02*
X43042Y-58878D01*
X43042Y-59021D01*
X43014Y-59078D01*
X42957Y-59107D01*
X42900Y-59107D01*
X42842Y-59078D01*
X42814Y-59021D01*
X42814Y-58878D01*
X42785Y-58821D01*
X42642Y-58535D02*
X43042Y-58535D01*
X42700Y-58535D02*
X42671Y-58507D01*
X42642Y-58450D01*
X42642Y-58364D01*
X42671Y-58307D01*
X42728Y-58278D01*
X43042Y-58278D01*
X42442Y-57878D02*
X42442Y-57821D01*
X42471Y-57764D01*
X42500Y-57735D01*
X42557Y-57707D01*
X42671Y-57678D01*
X42814Y-57678D01*
X42928Y-57707D01*
X42985Y-57735D01*
X43014Y-57764D01*
X43042Y-57821D01*
X43042Y-57878D01*
X43014Y-57935D01*
X42985Y-57964D01*
X42928Y-57992D01*
X42814Y-58021D01*
X42671Y-58021D01*
X42557Y-57992D01*
X42500Y-57964D01*
X42471Y-57935D01*
X42442Y-57878D01*
G54D12*
X43966Y-57621D02*
X43947Y-57640D01*
X43891Y-57659D01*
X43853Y-57659D01*
X43797Y-57640D01*
X43759Y-57603D01*
X43741Y-57565D01*
X43722Y-57490D01*
X43722Y-57434D01*
X43741Y-57359D01*
X43759Y-57321D01*
X43797Y-57284D01*
X43853Y-57265D01*
X43891Y-57265D01*
X43947Y-57284D01*
X43966Y-57303D01*
X44134Y-57453D02*
X44265Y-57453D01*
X44322Y-57659D02*
X44134Y-57659D01*
X44134Y-57265D01*
X44322Y-57265D01*
X44715Y-57659D02*
X44584Y-57471D01*
X44490Y-57659D02*
X44490Y-57265D01*
X44640Y-57265D01*
X44678Y-57284D01*
X44697Y-57303D01*
X44715Y-57340D01*
X44715Y-57396D01*
X44697Y-57434D01*
X44678Y-57453D01*
X44640Y-57471D01*
X44490Y-57471D01*
X44884Y-57659D02*
X44884Y-57265D01*
X45109Y-57659D01*
X45109Y-57265D01*
X45672Y-57265D02*
X45747Y-57265D01*
X45784Y-57284D01*
X45822Y-57321D01*
X45840Y-57396D01*
X45840Y-57528D01*
X45822Y-57603D01*
X45784Y-57640D01*
X45747Y-57659D01*
X45672Y-57659D01*
X45634Y-57640D01*
X45597Y-57603D01*
X45578Y-57528D01*
X45578Y-57396D01*
X45597Y-57321D01*
X45634Y-57284D01*
X45672Y-57265D01*
X45990Y-57640D02*
X46047Y-57659D01*
X46140Y-57659D01*
X46178Y-57640D01*
X46196Y-57621D01*
X46215Y-57584D01*
X46215Y-57546D01*
X46196Y-57509D01*
X46178Y-57490D01*
X46140Y-57471D01*
X46065Y-57453D01*
X46028Y-57434D01*
X46009Y-57415D01*
X45990Y-57378D01*
X45990Y-57340D01*
X46009Y-57303D01*
X46028Y-57284D01*
X46065Y-57265D01*
X46159Y-57265D01*
X46215Y-57284D01*
X46384Y-57659D02*
X46384Y-57265D01*
X46384Y-57453D02*
X46609Y-57453D01*
X46609Y-57659D02*
X46609Y-57265D01*
X47284Y-57659D02*
X47096Y-57659D01*
X47096Y-57265D01*
X47415Y-57659D02*
X47415Y-57396D01*
X47415Y-57265D02*
X47396Y-57284D01*
X47415Y-57303D01*
X47434Y-57284D01*
X47415Y-57265D01*
X47415Y-57303D01*
X47771Y-57640D02*
X47734Y-57659D01*
X47659Y-57659D01*
X47621Y-57640D01*
X47603Y-57621D01*
X47584Y-57584D01*
X47584Y-57471D01*
X47603Y-57434D01*
X47621Y-57415D01*
X47659Y-57396D01*
X47734Y-57396D01*
X47771Y-57415D01*
X48090Y-57640D02*
X48053Y-57659D01*
X47978Y-57659D01*
X47940Y-57640D01*
X47921Y-57603D01*
X47921Y-57453D01*
X47940Y-57415D01*
X47978Y-57396D01*
X48053Y-57396D01*
X48090Y-57415D01*
X48109Y-57453D01*
X48109Y-57490D01*
X47921Y-57528D01*
X48277Y-57396D02*
X48277Y-57659D01*
X48277Y-57434D02*
X48296Y-57415D01*
X48334Y-57396D01*
X48390Y-57396D01*
X48427Y-57415D01*
X48446Y-57453D01*
X48446Y-57659D01*
X48802Y-57640D02*
X48765Y-57659D01*
X48690Y-57659D01*
X48652Y-57640D01*
X48634Y-57621D01*
X48615Y-57584D01*
X48615Y-57471D01*
X48634Y-57434D01*
X48652Y-57415D01*
X48690Y-57396D01*
X48765Y-57396D01*
X48802Y-57415D01*
X49121Y-57640D02*
X49084Y-57659D01*
X49009Y-57659D01*
X48971Y-57640D01*
X48952Y-57603D01*
X48952Y-57453D01*
X48971Y-57415D01*
X49009Y-57396D01*
X49084Y-57396D01*
X49121Y-57415D01*
X49140Y-57453D01*
X49140Y-57490D01*
X48952Y-57528D01*
X49815Y-57659D02*
X49590Y-57659D01*
X49702Y-57659D02*
X49702Y-57265D01*
X49665Y-57321D01*
X49627Y-57359D01*
X49590Y-57378D01*
X49984Y-57621D02*
X50002Y-57640D01*
X49984Y-57659D01*
X49965Y-57640D01*
X49984Y-57621D01*
X49984Y-57659D01*
X50152Y-57303D02*
X50171Y-57284D01*
X50208Y-57265D01*
X50302Y-57265D01*
X50340Y-57284D01*
X50358Y-57303D01*
X50377Y-57340D01*
X50377Y-57378D01*
X50358Y-57434D01*
X50133Y-57659D01*
X50377Y-57659D01*
X43765Y-58146D02*
X43840Y-58409D01*
X43915Y-58221D01*
X43990Y-58409D01*
X44065Y-58146D01*
X44178Y-58146D02*
X44253Y-58409D01*
X44328Y-58221D01*
X44403Y-58409D01*
X44478Y-58146D01*
X44590Y-58146D02*
X44665Y-58409D01*
X44740Y-58221D01*
X44815Y-58409D01*
X44890Y-58146D01*
X45040Y-58371D02*
X45059Y-58390D01*
X45040Y-58409D01*
X45022Y-58390D01*
X45040Y-58371D01*
X45040Y-58409D01*
X45228Y-58409D02*
X45228Y-58146D01*
X45228Y-58221D02*
X45247Y-58184D01*
X45265Y-58165D01*
X45303Y-58146D01*
X45340Y-58146D01*
X45621Y-58390D02*
X45584Y-58409D01*
X45509Y-58409D01*
X45472Y-58390D01*
X45453Y-58353D01*
X45453Y-58203D01*
X45472Y-58165D01*
X45509Y-58146D01*
X45584Y-58146D01*
X45621Y-58165D01*
X45640Y-58203D01*
X45640Y-58240D01*
X45453Y-58278D01*
X45809Y-58146D02*
X45809Y-58540D01*
X45809Y-58165D02*
X45846Y-58146D01*
X45921Y-58146D01*
X45959Y-58165D01*
X45978Y-58184D01*
X45996Y-58221D01*
X45996Y-58334D01*
X45978Y-58371D01*
X45959Y-58390D01*
X45921Y-58409D01*
X45846Y-58409D01*
X45809Y-58390D01*
X46165Y-58409D02*
X46165Y-58146D01*
X46165Y-58221D02*
X46184Y-58184D01*
X46203Y-58165D01*
X46240Y-58146D01*
X46278Y-58146D01*
X46578Y-58409D02*
X46578Y-58203D01*
X46559Y-58165D01*
X46521Y-58146D01*
X46446Y-58146D01*
X46409Y-58165D01*
X46578Y-58390D02*
X46540Y-58409D01*
X46446Y-58409D01*
X46409Y-58390D01*
X46390Y-58353D01*
X46390Y-58315D01*
X46409Y-58278D01*
X46446Y-58259D01*
X46540Y-58259D01*
X46578Y-58240D01*
X46765Y-58146D02*
X46765Y-58540D01*
X46765Y-58165D02*
X46803Y-58146D01*
X46878Y-58146D01*
X46915Y-58165D01*
X46934Y-58184D01*
X46953Y-58221D01*
X46953Y-58334D01*
X46934Y-58371D01*
X46915Y-58390D01*
X46878Y-58409D01*
X46803Y-58409D01*
X46765Y-58390D01*
X47121Y-58146D02*
X47121Y-58540D01*
X47121Y-58165D02*
X47159Y-58146D01*
X47234Y-58146D01*
X47271Y-58165D01*
X47290Y-58184D01*
X47309Y-58221D01*
X47309Y-58334D01*
X47290Y-58371D01*
X47271Y-58390D01*
X47234Y-58409D01*
X47159Y-58409D01*
X47121Y-58390D01*
X47478Y-58409D02*
X47478Y-58146D01*
X47478Y-58221D02*
X47496Y-58184D01*
X47515Y-58165D01*
X47552Y-58146D01*
X47590Y-58146D01*
X47777Y-58409D02*
X47740Y-58390D01*
X47721Y-58371D01*
X47702Y-58334D01*
X47702Y-58221D01*
X47721Y-58184D01*
X47740Y-58165D01*
X47777Y-58146D01*
X47834Y-58146D01*
X47871Y-58165D01*
X47890Y-58184D01*
X47909Y-58221D01*
X47909Y-58334D01*
X47890Y-58371D01*
X47871Y-58390D01*
X47834Y-58409D01*
X47777Y-58409D01*
X48077Y-58371D02*
X48096Y-58390D01*
X48077Y-58409D01*
X48059Y-58390D01*
X48077Y-58371D01*
X48077Y-58409D01*
X48434Y-58390D02*
X48396Y-58409D01*
X48321Y-58409D01*
X48284Y-58390D01*
X48265Y-58371D01*
X48246Y-58334D01*
X48246Y-58221D01*
X48265Y-58184D01*
X48284Y-58165D01*
X48321Y-58146D01*
X48396Y-58146D01*
X48434Y-58165D01*
X48659Y-58409D02*
X48621Y-58390D01*
X48602Y-58371D01*
X48584Y-58334D01*
X48584Y-58221D01*
X48602Y-58184D01*
X48621Y-58165D01*
X48659Y-58146D01*
X48715Y-58146D01*
X48752Y-58165D01*
X48771Y-58184D01*
X48790Y-58221D01*
X48790Y-58334D01*
X48771Y-58371D01*
X48752Y-58390D01*
X48715Y-58409D01*
X48659Y-58409D01*
X48959Y-58409D02*
X48959Y-58146D01*
X48959Y-58184D02*
X48977Y-58165D01*
X49015Y-58146D01*
X49071Y-58146D01*
X49109Y-58165D01*
X49127Y-58203D01*
X49127Y-58409D01*
X49127Y-58203D02*
X49146Y-58165D01*
X49184Y-58146D01*
X49240Y-58146D01*
X49277Y-58165D01*
X49296Y-58203D01*
X49296Y-58409D01*
X43787Y-55515D02*
X43918Y-55909D01*
X44049Y-55515D01*
X44256Y-55515D02*
X44293Y-55515D01*
X44331Y-55534D01*
X44349Y-55553D01*
X44368Y-55590D01*
X44387Y-55665D01*
X44387Y-55759D01*
X44368Y-55834D01*
X44349Y-55871D01*
X44331Y-55890D01*
X44293Y-55909D01*
X44256Y-55909D01*
X44218Y-55890D01*
X44199Y-55871D01*
X44181Y-55834D01*
X44162Y-55759D01*
X44162Y-55665D01*
X44181Y-55590D01*
X44199Y-55553D01*
X44218Y-55534D01*
X44256Y-55515D01*
X44556Y-55871D02*
X44574Y-55890D01*
X44556Y-55909D01*
X44537Y-55890D01*
X44556Y-55871D01*
X44556Y-55909D01*
X44912Y-55646D02*
X44912Y-55909D01*
X44818Y-55496D02*
X44724Y-55778D01*
X44968Y-55778D01*
X45418Y-55909D02*
X45418Y-55515D01*
X45512Y-55515D01*
X45568Y-55534D01*
X45606Y-55571D01*
X45624Y-55609D01*
X45643Y-55684D01*
X45643Y-55740D01*
X45624Y-55815D01*
X45606Y-55853D01*
X45568Y-55890D01*
X45512Y-55909D01*
X45418Y-55909D01*
X45962Y-55890D02*
X45924Y-55909D01*
X45849Y-55909D01*
X45812Y-55890D01*
X45793Y-55853D01*
X45793Y-55703D01*
X45812Y-55665D01*
X45849Y-55646D01*
X45924Y-55646D01*
X45962Y-55665D01*
X45980Y-55703D01*
X45980Y-55740D01*
X45793Y-55778D01*
X46130Y-55890D02*
X46168Y-55909D01*
X46243Y-55909D01*
X46280Y-55890D01*
X46299Y-55853D01*
X46299Y-55834D01*
X46280Y-55796D01*
X46243Y-55778D01*
X46187Y-55778D01*
X46149Y-55759D01*
X46130Y-55721D01*
X46130Y-55703D01*
X46149Y-55665D01*
X46187Y-55646D01*
X46243Y-55646D01*
X46280Y-55665D01*
X46468Y-55909D02*
X46468Y-55646D01*
X46468Y-55515D02*
X46449Y-55534D01*
X46468Y-55553D01*
X46487Y-55534D01*
X46468Y-55515D01*
X46468Y-55553D01*
X46824Y-55646D02*
X46824Y-55965D01*
X46805Y-56003D01*
X46787Y-56021D01*
X46749Y-56040D01*
X46693Y-56040D01*
X46655Y-56021D01*
X46824Y-55890D02*
X46787Y-55909D01*
X46712Y-55909D01*
X46674Y-55890D01*
X46655Y-55871D01*
X46637Y-55834D01*
X46637Y-55721D01*
X46655Y-55684D01*
X46674Y-55665D01*
X46712Y-55646D01*
X46787Y-55646D01*
X46824Y-55665D01*
X47012Y-55646D02*
X47012Y-55909D01*
X47012Y-55684D02*
X47030Y-55665D01*
X47068Y-55646D01*
X47124Y-55646D01*
X47162Y-55665D01*
X47180Y-55703D01*
X47180Y-55909D01*
X47368Y-55871D02*
X47387Y-55890D01*
X47368Y-55909D01*
X47349Y-55890D01*
X47368Y-55871D01*
X47368Y-55909D01*
X47368Y-55665D02*
X47387Y-55684D01*
X47368Y-55703D01*
X47349Y-55684D01*
X47368Y-55665D01*
X47368Y-55703D01*
X47836Y-55796D02*
X48024Y-55796D01*
X47799Y-55909D02*
X47930Y-55515D01*
X48061Y-55909D01*
X48361Y-55909D02*
X48361Y-55515D01*
X48361Y-55890D02*
X48324Y-55909D01*
X48249Y-55909D01*
X48211Y-55890D01*
X48193Y-55871D01*
X48174Y-55834D01*
X48174Y-55721D01*
X48193Y-55684D01*
X48211Y-55665D01*
X48249Y-55646D01*
X48324Y-55646D01*
X48361Y-55665D01*
X48549Y-55909D02*
X48549Y-55646D01*
X48549Y-55721D02*
X48568Y-55684D01*
X48586Y-55665D01*
X48624Y-55646D01*
X48661Y-55646D01*
X48793Y-55909D02*
X48793Y-55646D01*
X48793Y-55515D02*
X48774Y-55534D01*
X48793Y-55553D01*
X48811Y-55534D01*
X48793Y-55515D01*
X48793Y-55553D01*
X49149Y-55909D02*
X49149Y-55703D01*
X49130Y-55665D01*
X49093Y-55646D01*
X49018Y-55646D01*
X48980Y-55665D01*
X49149Y-55890D02*
X49111Y-55909D01*
X49018Y-55909D01*
X48980Y-55890D01*
X48961Y-55853D01*
X48961Y-55815D01*
X48980Y-55778D01*
X49018Y-55759D01*
X49111Y-55759D01*
X49149Y-55740D01*
X49336Y-55646D02*
X49336Y-55909D01*
X49336Y-55684D02*
X49355Y-55665D01*
X49393Y-55646D01*
X49449Y-55646D01*
X49486Y-55665D01*
X49505Y-55703D01*
X49505Y-55909D01*
X50124Y-55703D02*
X50180Y-55721D01*
X50199Y-55740D01*
X50217Y-55778D01*
X50217Y-55834D01*
X50199Y-55871D01*
X50180Y-55890D01*
X50142Y-55909D01*
X49992Y-55909D01*
X49992Y-55515D01*
X50124Y-55515D01*
X50161Y-55534D01*
X50180Y-55553D01*
X50199Y-55590D01*
X50199Y-55628D01*
X50180Y-55665D01*
X50161Y-55684D01*
X50124Y-55703D01*
X49992Y-55703D01*
X50442Y-55909D02*
X50405Y-55890D01*
X50386Y-55871D01*
X50367Y-55834D01*
X50367Y-55721D01*
X50386Y-55684D01*
X50405Y-55665D01*
X50442Y-55646D01*
X50499Y-55646D01*
X50536Y-55665D01*
X50555Y-55684D01*
X50574Y-55721D01*
X50574Y-55834D01*
X50555Y-55871D01*
X50536Y-55890D01*
X50499Y-55909D01*
X50442Y-55909D01*
X50705Y-55646D02*
X50780Y-55909D01*
X50855Y-55721D01*
X50930Y-55909D01*
X51005Y-55646D01*
X51117Y-55646D02*
X51211Y-55909D01*
X51305Y-55646D02*
X51211Y-55909D01*
X51174Y-56003D01*
X51155Y-56021D01*
X51117Y-56040D01*
X51605Y-55890D02*
X51567Y-55909D01*
X51492Y-55909D01*
X51455Y-55890D01*
X51436Y-55853D01*
X51436Y-55703D01*
X51455Y-55665D01*
X51492Y-55646D01*
X51567Y-55646D01*
X51605Y-55665D01*
X51624Y-55703D01*
X51624Y-55740D01*
X51436Y-55778D01*
X51792Y-55909D02*
X51792Y-55646D01*
X51792Y-55721D02*
X51811Y-55684D01*
X51830Y-55665D01*
X51867Y-55646D01*
X51905Y-55646D01*
X52055Y-55890D02*
X52055Y-55909D01*
X52036Y-55946D01*
X52017Y-55965D01*
X43824Y-56446D02*
X44012Y-56446D01*
X43787Y-56558D02*
X43918Y-56165D01*
X44049Y-56558D01*
X44181Y-56296D02*
X44181Y-56558D01*
X44181Y-56333D02*
X44199Y-56315D01*
X44237Y-56296D01*
X44293Y-56296D01*
X44331Y-56315D01*
X44349Y-56352D01*
X44349Y-56558D01*
X44706Y-56558D02*
X44706Y-56165D01*
X44706Y-56540D02*
X44668Y-56558D01*
X44593Y-56558D01*
X44556Y-56540D01*
X44537Y-56521D01*
X44518Y-56483D01*
X44518Y-56371D01*
X44537Y-56333D01*
X44556Y-56315D01*
X44593Y-56296D01*
X44668Y-56296D01*
X44706Y-56315D01*
X44856Y-56296D02*
X44949Y-56558D01*
X45043Y-56296D02*
X44949Y-56558D01*
X44912Y-56652D01*
X44893Y-56671D01*
X44856Y-56690D01*
X45493Y-56558D02*
X45493Y-56165D01*
X45493Y-56352D02*
X45718Y-56352D01*
X45718Y-56558D02*
X45718Y-56165D01*
X45905Y-56558D02*
X45905Y-56296D01*
X45905Y-56165D02*
X45887Y-56184D01*
X45905Y-56202D01*
X45924Y-56184D01*
X45905Y-56165D01*
X45905Y-56202D01*
X46262Y-56296D02*
X46262Y-56615D01*
X46243Y-56652D01*
X46224Y-56671D01*
X46187Y-56690D01*
X46130Y-56690D01*
X46093Y-56671D01*
X46262Y-56540D02*
X46224Y-56558D01*
X46149Y-56558D01*
X46112Y-56540D01*
X46093Y-56521D01*
X46074Y-56483D01*
X46074Y-56371D01*
X46093Y-56333D01*
X46112Y-56315D01*
X46149Y-56296D01*
X46224Y-56296D01*
X46262Y-56315D01*
X46430Y-56540D02*
X46468Y-56558D01*
X46543Y-56558D01*
X46580Y-56540D01*
X46599Y-56502D01*
X46599Y-56483D01*
X46580Y-56446D01*
X46543Y-56427D01*
X46487Y-56427D01*
X46449Y-56408D01*
X46430Y-56371D01*
X46430Y-56352D01*
X46449Y-56315D01*
X46487Y-56296D01*
X46543Y-56296D01*
X46580Y-56315D01*
X46712Y-56296D02*
X46862Y-56296D01*
X46768Y-56165D02*
X46768Y-56502D01*
X46787Y-56540D01*
X46824Y-56558D01*
X46862Y-56558D01*
X47049Y-56558D02*
X47012Y-56540D01*
X46993Y-56521D01*
X46974Y-56483D01*
X46974Y-56371D01*
X46993Y-56333D01*
X47012Y-56315D01*
X47049Y-56296D01*
X47105Y-56296D01*
X47143Y-56315D01*
X47162Y-56333D01*
X47180Y-56371D01*
X47180Y-56483D01*
X47162Y-56521D01*
X47143Y-56540D01*
X47105Y-56558D01*
X47049Y-56558D01*
X47349Y-56296D02*
X47349Y-56558D01*
X47349Y-56333D02*
X47368Y-56315D01*
X47405Y-56296D01*
X47462Y-56296D01*
X47499Y-56315D01*
X47518Y-56352D01*
X47518Y-56558D01*
X47724Y-56540D02*
X47724Y-56558D01*
X47705Y-56596D01*
X47687Y-56615D01*
X48136Y-56165D02*
X48361Y-56165D01*
X48249Y-56558D02*
X48249Y-56165D01*
X48549Y-56558D02*
X48511Y-56540D01*
X48493Y-56521D01*
X48474Y-56483D01*
X48474Y-56371D01*
X48493Y-56333D01*
X48511Y-56315D01*
X48549Y-56296D01*
X48605Y-56296D01*
X48643Y-56315D01*
X48661Y-56333D01*
X48680Y-56371D01*
X48680Y-56483D01*
X48661Y-56521D01*
X48643Y-56540D01*
X48605Y-56558D01*
X48549Y-56558D01*
X48849Y-56296D02*
X48849Y-56558D01*
X48849Y-56333D02*
X48868Y-56315D01*
X48905Y-56296D01*
X48961Y-56296D01*
X48999Y-56315D01*
X49018Y-56352D01*
X49018Y-56558D01*
X49168Y-56296D02*
X49261Y-56558D01*
X49355Y-56296D02*
X49261Y-56558D01*
X49224Y-56652D01*
X49205Y-56671D01*
X49168Y-56690D01*
X49992Y-56558D02*
X49805Y-56558D01*
X49805Y-56165D01*
X50180Y-56558D02*
X50142Y-56540D01*
X50124Y-56521D01*
X50105Y-56483D01*
X50105Y-56371D01*
X50124Y-56333D01*
X50142Y-56315D01*
X50180Y-56296D01*
X50236Y-56296D01*
X50274Y-56315D01*
X50292Y-56333D01*
X50311Y-56371D01*
X50311Y-56483D01*
X50292Y-56521D01*
X50274Y-56540D01*
X50236Y-56558D01*
X50180Y-56558D01*
X50649Y-56540D02*
X50611Y-56558D01*
X50536Y-56558D01*
X50499Y-56540D01*
X50480Y-56521D01*
X50461Y-56483D01*
X50461Y-56371D01*
X50480Y-56333D01*
X50499Y-56315D01*
X50536Y-56296D01*
X50611Y-56296D01*
X50649Y-56315D01*
X50817Y-56558D02*
X50817Y-56165D01*
X50855Y-56408D02*
X50967Y-56558D01*
X50967Y-56296D02*
X50817Y-56446D01*
G54D11*
X43784Y-54978D02*
X43784Y-53796D01*
X44066Y-53796D01*
X44234Y-53853D01*
X44347Y-53965D01*
X44403Y-54078D01*
X44459Y-54303D01*
X44459Y-54471D01*
X44403Y-54696D01*
X44347Y-54809D01*
X44234Y-54921D01*
X44066Y-54978D01*
X43784Y-54978D01*
X45472Y-54190D02*
X45472Y-54978D01*
X44966Y-54190D02*
X44966Y-54809D01*
X45022Y-54921D01*
X45134Y-54978D01*
X45303Y-54978D01*
X45416Y-54921D01*
X45472Y-54865D01*
X46484Y-54921D02*
X46372Y-54978D01*
X46147Y-54978D01*
X46034Y-54921D01*
X45978Y-54809D01*
X45978Y-54359D01*
X46034Y-54246D01*
X46147Y-54190D01*
X46372Y-54190D01*
X46484Y-54246D01*
X46540Y-54359D01*
X46540Y-54471D01*
X45978Y-54584D01*
X46878Y-54190D02*
X47328Y-54190D01*
X47047Y-53796D02*
X47047Y-54809D01*
X47103Y-54921D01*
X47215Y-54978D01*
X47328Y-54978D01*
X48565Y-54921D02*
X48734Y-54978D01*
X49015Y-54978D01*
X49128Y-54921D01*
X49184Y-54865D01*
X49240Y-54753D01*
X49240Y-54640D01*
X49184Y-54528D01*
X49128Y-54471D01*
X49015Y-54415D01*
X48790Y-54359D01*
X48678Y-54303D01*
X48621Y-54246D01*
X48565Y-54134D01*
X48565Y-54021D01*
X48621Y-53909D01*
X48678Y-53853D01*
X48790Y-53796D01*
X49071Y-53796D01*
X49240Y-53853D01*
X49746Y-54978D02*
X49746Y-53796D01*
X50252Y-54978D02*
X50252Y-54359D01*
X50196Y-54246D01*
X50084Y-54190D01*
X49915Y-54190D01*
X49802Y-54246D01*
X49746Y-54303D01*
X50815Y-54978D02*
X50815Y-54190D01*
X50815Y-53796D02*
X50759Y-53853D01*
X50815Y-53909D01*
X50871Y-53853D01*
X50815Y-53796D01*
X50815Y-53909D01*
X51827Y-54921D02*
X51715Y-54978D01*
X51490Y-54978D01*
X51377Y-54921D01*
X51321Y-54809D01*
X51321Y-54359D01*
X51377Y-54246D01*
X51490Y-54190D01*
X51715Y-54190D01*
X51827Y-54246D01*
X51883Y-54359D01*
X51883Y-54471D01*
X51321Y-54584D01*
X52558Y-54978D02*
X52446Y-54921D01*
X52390Y-54809D01*
X52390Y-53796D01*
X53515Y-54978D02*
X53515Y-53796D01*
X53515Y-54921D02*
X53402Y-54978D01*
X53177Y-54978D01*
X53065Y-54921D01*
X53008Y-54865D01*
X52952Y-54753D01*
X52952Y-54415D01*
X53008Y-54303D01*
X53065Y-54246D01*
X53177Y-54190D01*
X53402Y-54190D01*
X53515Y-54246D01*
X51885Y-31042D02*
X51685Y-30757D01*
X51542Y-31042D02*
X51542Y-30442D01*
X51771Y-30442D01*
X51828Y-30471D01*
X51857Y-30500D01*
X51885Y-30557D01*
X51885Y-30642D01*
X51857Y-30700D01*
X51828Y-30728D01*
X51771Y-30757D01*
X51542Y-30757D01*
X50635Y-30728D02*
X50721Y-30757D01*
X50750Y-30785D01*
X50778Y-30842D01*
X50778Y-30928D01*
X50750Y-30985D01*
X50721Y-31014D01*
X50664Y-31042D01*
X50435Y-31042D01*
X50435Y-30442D01*
X50635Y-30442D01*
X50692Y-30471D01*
X50721Y-30500D01*
X50750Y-30557D01*
X50750Y-30614D01*
X50721Y-30671D01*
X50692Y-30700D01*
X50635Y-30728D01*
X50435Y-30728D01*
X51121Y-31042D02*
X51064Y-31014D01*
X51035Y-30957D01*
X51035Y-30442D01*
X50007Y-30471D02*
X49950Y-30442D01*
X49864Y-30442D01*
X49778Y-30471D01*
X49721Y-30528D01*
X49692Y-30585D01*
X49664Y-30700D01*
X49664Y-30785D01*
X49692Y-30900D01*
X49721Y-30957D01*
X49778Y-31014D01*
X49864Y-31042D01*
X49921Y-31042D01*
X50007Y-31014D01*
X50035Y-30985D01*
X50035Y-30785D01*
X49921Y-30785D01*
X48650Y-30728D02*
X48735Y-30757D01*
X48764Y-30785D01*
X48792Y-30842D01*
X48792Y-30928D01*
X48764Y-30985D01*
X48735Y-31014D01*
X48678Y-31042D01*
X48450Y-31042D01*
X48450Y-30442D01*
X48650Y-30442D01*
X48707Y-30471D01*
X48735Y-30500D01*
X48764Y-30557D01*
X48764Y-30614D01*
X48735Y-30671D01*
X48707Y-30700D01*
X48650Y-30728D01*
X48450Y-30728D01*
X49050Y-31042D02*
X49050Y-30442D01*
X49107Y-30814D02*
X49278Y-31042D01*
X49278Y-30642D02*
X49050Y-30871D01*
X41792Y-43064D02*
X41507Y-43264D01*
X41792Y-43407D02*
X41192Y-43407D01*
X41192Y-43178D01*
X41221Y-43121D01*
X41250Y-43092D01*
X41307Y-43064D01*
X41392Y-43064D01*
X41450Y-43092D01*
X41478Y-43121D01*
X41507Y-43178D01*
X41507Y-43407D01*
X41428Y-44464D02*
X41457Y-44378D01*
X41485Y-44350D01*
X41542Y-44321D01*
X41628Y-44321D01*
X41685Y-44350D01*
X41714Y-44378D01*
X41742Y-44435D01*
X41742Y-44664D01*
X41142Y-44664D01*
X41142Y-44464D01*
X41171Y-44407D01*
X41200Y-44378D01*
X41257Y-44350D01*
X41314Y-44350D01*
X41371Y-44378D01*
X41400Y-44407D01*
X41428Y-44464D01*
X41428Y-44664D01*
X41742Y-43978D02*
X41714Y-44035D01*
X41657Y-44064D01*
X41142Y-44064D01*
X41171Y-45092D02*
X41142Y-45150D01*
X41142Y-45235D01*
X41171Y-45321D01*
X41228Y-45378D01*
X41285Y-45407D01*
X41400Y-45435D01*
X41485Y-45435D01*
X41600Y-45407D01*
X41657Y-45378D01*
X41714Y-45321D01*
X41742Y-45235D01*
X41742Y-45178D01*
X41714Y-45092D01*
X41685Y-45064D01*
X41485Y-45064D01*
X41485Y-45178D01*
X41428Y-46300D02*
X41457Y-46214D01*
X41485Y-46185D01*
X41542Y-46157D01*
X41628Y-46157D01*
X41685Y-46185D01*
X41714Y-46214D01*
X41742Y-46271D01*
X41742Y-46500D01*
X41142Y-46500D01*
X41142Y-46300D01*
X41171Y-46242D01*
X41200Y-46214D01*
X41257Y-46185D01*
X41314Y-46185D01*
X41371Y-46214D01*
X41400Y-46242D01*
X41428Y-46300D01*
X41428Y-46500D01*
X41742Y-45900D02*
X41142Y-45900D01*
X41514Y-45842D02*
X41742Y-45671D01*
X41342Y-45671D02*
X41571Y-45900D01*
X69971Y-46964D02*
X70428Y-46964D01*
X70200Y-47192D02*
X70200Y-46735D01*
X69921Y-45792D02*
X69892Y-45850D01*
X69892Y-45935D01*
X69921Y-46021D01*
X69978Y-46078D01*
X70035Y-46107D01*
X70150Y-46135D01*
X70235Y-46135D01*
X70350Y-46107D01*
X70407Y-46078D01*
X70464Y-46021D01*
X70492Y-45935D01*
X70492Y-45878D01*
X70464Y-45792D01*
X70435Y-45764D01*
X70235Y-45764D01*
X70235Y-45878D01*
X51412Y-24568D02*
X52012Y-24568D01*
X51712Y-24868D02*
X51712Y-24268D01*
X52274Y-24081D02*
X52537Y-24868D01*
X52799Y-24081D01*
X46500Y-24068D02*
X46425Y-24031D01*
X46312Y-24031D01*
X46200Y-24068D01*
X46125Y-24143D01*
X46087Y-24218D01*
X46050Y-24368D01*
X46050Y-24481D01*
X46087Y-24631D01*
X46125Y-24706D01*
X46200Y-24781D01*
X46312Y-24818D01*
X46387Y-24818D01*
X46500Y-24781D01*
X46537Y-24743D01*
X46537Y-24481D01*
X46387Y-24481D01*
X46875Y-24818D02*
X46875Y-24031D01*
X47324Y-24818D01*
X47324Y-24031D01*
X47699Y-24818D02*
X47699Y-24031D01*
X47887Y-24031D01*
X47999Y-24068D01*
X48074Y-24143D01*
X48112Y-24218D01*
X48149Y-24368D01*
X48149Y-24481D01*
X48112Y-24631D01*
X48074Y-24706D01*
X47999Y-24781D01*
X47887Y-24818D01*
X47699Y-24818D01*
G54D13*
X67443Y-52376D02*
X67443Y-52218D01*
X67691Y-52151D02*
X67691Y-52376D01*
X67218Y-52376D01*
X67218Y-52151D01*
X67376Y-51746D02*
X67691Y-51746D01*
X67196Y-51858D02*
X67533Y-51971D01*
X67533Y-51678D01*
X67443Y-51476D02*
X67443Y-51318D01*
X67691Y-51251D02*
X67691Y-51476D01*
X67218Y-51476D01*
X67218Y-51251D01*
X67218Y-51093D02*
X67218Y-50801D01*
X67398Y-50958D01*
X67398Y-50891D01*
X67421Y-50846D01*
X67443Y-50823D01*
X67488Y-50801D01*
X67601Y-50801D01*
X67646Y-50823D01*
X67668Y-50846D01*
X67691Y-50891D01*
X67691Y-51026D01*
X67668Y-51071D01*
X67646Y-51093D01*
X67443Y-50426D02*
X67443Y-50268D01*
X67691Y-50201D02*
X67691Y-50426D01*
X67218Y-50426D01*
X67218Y-50201D01*
X67263Y-50021D02*
X67241Y-49998D01*
X67218Y-49953D01*
X67218Y-49841D01*
X67241Y-49796D01*
X67263Y-49773D01*
X67308Y-49751D01*
X67353Y-49751D01*
X67421Y-49773D01*
X67691Y-50043D01*
X67691Y-49751D01*
X67393Y-49426D02*
X67393Y-49268D01*
X67641Y-49201D02*
X67641Y-49426D01*
X67168Y-49426D01*
X67168Y-49201D01*
X67641Y-48751D02*
X67641Y-49021D01*
X67641Y-48886D02*
X67168Y-48886D01*
X67236Y-48931D01*
X67281Y-48976D01*
X67303Y-49021D01*
G54D11*
X70514Y-49321D02*
X70542Y-49235D01*
X70542Y-49092D01*
X70514Y-49035D01*
X70485Y-49007D01*
X70428Y-48978D01*
X70371Y-48978D01*
X70314Y-49007D01*
X70285Y-49035D01*
X70257Y-49092D01*
X70228Y-49207D01*
X70200Y-49264D01*
X70171Y-49292D01*
X70114Y-49321D01*
X70057Y-49321D01*
X70000Y-49292D01*
X69971Y-49264D01*
X69942Y-49207D01*
X69942Y-49064D01*
X69971Y-48978D01*
X69942Y-51171D02*
X69942Y-50828D01*
X70542Y-51000D02*
X69942Y-51000D01*
X69971Y-52114D02*
X70428Y-52114D01*
X70200Y-52342D02*
X70200Y-51885D01*
X69921Y-49942D02*
X69892Y-50000D01*
X69892Y-50085D01*
X69921Y-50171D01*
X69978Y-50228D01*
X70035Y-50257D01*
X70150Y-50285D01*
X70235Y-50285D01*
X70350Y-50257D01*
X70407Y-50228D01*
X70464Y-50171D01*
X70492Y-50085D01*
X70492Y-50028D01*
X70464Y-49942D01*
X70435Y-49914D01*
X70235Y-49914D01*
X70235Y-50028D01*
X41414Y-58578D02*
X41414Y-58121D01*
X41221Y-59314D02*
X41678Y-59314D01*
X41450Y-59542D02*
X41450Y-59085D01*
X41814Y-47421D02*
X41842Y-47335D01*
X41842Y-47192D01*
X41814Y-47135D01*
X41785Y-47107D01*
X41728Y-47078D01*
X41671Y-47078D01*
X41614Y-47107D01*
X41585Y-47135D01*
X41557Y-47192D01*
X41528Y-47307D01*
X41500Y-47364D01*
X41471Y-47392D01*
X41414Y-47421D01*
X41357Y-47421D01*
X41300Y-47392D01*
X41271Y-47364D01*
X41242Y-47307D01*
X41242Y-47164D01*
X41271Y-47078D01*
X41221Y-48164D02*
X41678Y-48164D01*
X41450Y-48392D02*
X41450Y-47935D01*
X41271Y-49042D02*
X41242Y-49100D01*
X41242Y-49185D01*
X41271Y-49271D01*
X41328Y-49328D01*
X41385Y-49357D01*
X41500Y-49385D01*
X41585Y-49385D01*
X41700Y-49357D01*
X41757Y-49328D01*
X41814Y-49271D01*
X41842Y-49185D01*
X41842Y-49128D01*
X41814Y-49042D01*
X41785Y-49014D01*
X41585Y-49014D01*
X41585Y-49128D01*
X41292Y-55621D02*
X41292Y-55278D01*
X41892Y-55450D02*
X41292Y-55450D01*
X41292Y-56521D02*
X41292Y-56178D01*
X41892Y-56350D02*
X41292Y-56350D01*
X41292Y-52421D02*
X41892Y-52221D01*
X41292Y-52021D01*
X41664Y-51821D02*
X41664Y-51364D01*
X41242Y-54521D02*
X41842Y-54321D01*
X41242Y-54121D01*
X41614Y-53921D02*
X41614Y-53464D01*
X41842Y-53692D02*
X41385Y-53692D01*
X41900Y-52900D02*
X41900Y-53000D01*
X41150Y-52900D02*
X41900Y-52900D01*
X41900Y-54900D02*
X41900Y-55000D01*
X41050Y-54900D02*
X41900Y-54900D01*
X41850Y-46700D02*
X41850Y-46650D01*
X41100Y-46700D02*
X41850Y-46700D01*
X39150Y-33700D02*
X39150Y-34400D01*
X37100Y-33700D02*
X37100Y-34450D01*
X49350Y-51700D02*
X49350Y-52450D01*
X48250Y-30400D02*
X48250Y-31150D01*
X39100Y-22350D02*
X39100Y-23000D01*
X37150Y-22300D02*
X37150Y-23050D01*
X47628Y-31014D02*
X47714Y-31042D01*
X47857Y-31042D01*
X47914Y-31014D01*
X47942Y-30985D01*
X47971Y-30928D01*
X47971Y-30871D01*
X47942Y-30814D01*
X47914Y-30785D01*
X47857Y-30757D01*
X47742Y-30728D01*
X47685Y-30700D01*
X47657Y-30671D01*
X47628Y-30614D01*
X47628Y-30557D01*
X47657Y-30500D01*
X47685Y-30471D01*
X47742Y-30442D01*
X47885Y-30442D01*
X47971Y-30471D01*
X45957Y-30471D02*
X45900Y-30442D01*
X45814Y-30442D01*
X45728Y-30471D01*
X45671Y-30528D01*
X45642Y-30585D01*
X45614Y-30700D01*
X45614Y-30785D01*
X45642Y-30900D01*
X45671Y-30957D01*
X45728Y-31014D01*
X45814Y-31042D01*
X45871Y-31042D01*
X45957Y-31014D01*
X45985Y-30985D01*
X45985Y-30785D01*
X45871Y-30785D01*
X46521Y-30714D02*
X46978Y-30714D01*
X46750Y-30942D02*
X46750Y-30485D01*
X36428Y-33742D02*
X36771Y-33742D01*
X36600Y-34342D02*
X36600Y-33742D01*
X35428Y-33742D02*
X35771Y-33742D01*
X35600Y-34342D02*
X35600Y-33742D01*
X36428Y-22392D02*
X36771Y-22392D01*
X36600Y-22992D02*
X36600Y-22392D01*
X35428Y-22392D02*
X35771Y-22392D01*
X35600Y-22992D02*
X35600Y-22392D01*
X39628Y-33792D02*
X39828Y-34392D01*
X40028Y-33792D01*
X40228Y-34164D02*
X40685Y-34164D01*
X37478Y-33742D02*
X37678Y-34342D01*
X37878Y-33742D01*
X38078Y-34114D02*
X38535Y-34114D01*
X38307Y-34342D02*
X38307Y-33885D01*
X39628Y-22342D02*
X39828Y-22942D01*
X40028Y-22342D01*
X40228Y-22714D02*
X40685Y-22714D01*
X37628Y-22342D02*
X37828Y-22942D01*
X38028Y-22342D01*
X38228Y-22714D02*
X38685Y-22714D01*
X38457Y-22942D02*
X38457Y-22485D01*
X69907Y-44442D02*
X69621Y-44442D01*
X69592Y-44728D01*
X69621Y-44700D01*
X69678Y-44671D01*
X69821Y-44671D01*
X69878Y-44700D01*
X69907Y-44728D01*
X69935Y-44785D01*
X69935Y-44928D01*
X69907Y-44985D01*
X69878Y-45014D01*
X69821Y-45042D01*
X69678Y-45042D01*
X69621Y-45014D01*
X69592Y-44985D01*
X70307Y-44442D02*
X70364Y-44442D01*
X70421Y-44471D01*
X70450Y-44500D01*
X70478Y-44557D01*
X70507Y-44671D01*
X70507Y-44814D01*
X70478Y-44928D01*
X70450Y-44985D01*
X70421Y-45014D01*
X70364Y-45042D01*
X70307Y-45042D01*
X70250Y-45014D01*
X70221Y-44985D01*
X70192Y-44928D01*
X70164Y-44814D01*
X70164Y-44671D01*
X70192Y-44557D01*
X70221Y-44500D01*
X70250Y-44471D01*
X70307Y-44442D01*
X68171Y-19292D02*
X67828Y-19292D01*
X68000Y-19292D02*
X68000Y-18692D01*
X67942Y-18778D01*
X67885Y-18835D01*
X67828Y-18864D01*
G54D14*
X40900Y-24950D02*
X42150Y-24950D01*
X42150Y-24950D02*
X42150Y-24250D01*
X42150Y-24250D02*
X40900Y-24250D01*
X40900Y-26750D02*
X42150Y-26750D01*
X42150Y-26750D02*
X42150Y-26050D01*
X42150Y-26050D02*
X40900Y-26050D01*
X38500Y-24150D02*
X40900Y-24150D01*
X40900Y-24150D02*
X40900Y-26850D01*
X40900Y-26850D02*
X37800Y-26850D01*
X37750Y-26850D02*
X37750Y-24150D01*
X37800Y-24150D02*
X38500Y-24150D01*
X65950Y-22550D02*
X63350Y-22550D01*
X63350Y-22550D02*
X63350Y-24350D01*
X63350Y-24350D02*
X65950Y-24350D01*
X65950Y-24350D02*
X65950Y-22550D01*
X63811Y-24050D02*
G75*
G03X63811Y-24050I-111J0D01*
G74*
G01*
X43212Y-36420D02*
X44208Y-36420D01*
X43212Y-37424D02*
X44196Y-37424D01*
X43212Y-37423D02*
X43212Y-36423D01*
X44208Y-36424D02*
X44208Y-37424D01*
X40375Y-40025D02*
X40635Y-40025D01*
X40375Y-40775D02*
X40635Y-40775D01*
X39825Y-40400D02*
X39565Y-40400D01*
X39825Y-40990D02*
X39825Y-39810D01*
X39825Y-39810D02*
X40375Y-39810D01*
X40375Y-39810D02*
X40375Y-40990D01*
X40375Y-40990D02*
X39825Y-40990D01*
X43925Y-25375D02*
X44185Y-25375D01*
X43925Y-26125D02*
X44185Y-26125D01*
X43375Y-25750D02*
X43115Y-25750D01*
X43375Y-26340D02*
X43375Y-25160D01*
X43375Y-25160D02*
X43925Y-25160D01*
X43925Y-25160D02*
X43925Y-26340D01*
X43925Y-26340D02*
X43375Y-26340D01*
G54D15*
X52004Y-34531D02*
X52004Y-35869D01*
X52004Y-35869D02*
X51296Y-35869D01*
X51296Y-35869D02*
X51296Y-34531D01*
X51296Y-34531D02*
X52004Y-34531D01*
X45846Y-32919D02*
X45846Y-31581D01*
X45846Y-31581D02*
X46554Y-31581D01*
X46554Y-31581D02*
X46554Y-32919D01*
X46554Y-32919D02*
X45846Y-32919D01*
X45254Y-46531D02*
X45254Y-47869D01*
X45254Y-47869D02*
X44546Y-47869D01*
X44546Y-47869D02*
X44546Y-46531D01*
X44546Y-46531D02*
X45254Y-46531D01*
X50354Y-46881D02*
X50354Y-48219D01*
X50354Y-48219D02*
X49646Y-48219D01*
X49646Y-48219D02*
X49646Y-46881D01*
X49646Y-46881D02*
X50354Y-46881D01*
X53444Y-52787D02*
X52756Y-52787D01*
X52756Y-52787D02*
X52756Y-52413D01*
X52756Y-52413D02*
X53444Y-52413D01*
X53444Y-52413D02*
X53444Y-52787D01*
X45394Y-36887D02*
X44706Y-36887D01*
X44706Y-36887D02*
X44706Y-36513D01*
X44706Y-36513D02*
X45394Y-36513D01*
X45394Y-36513D02*
X45394Y-36887D01*
X43506Y-29213D02*
X44194Y-29213D01*
X44194Y-29213D02*
X44194Y-29587D01*
X44194Y-29587D02*
X43506Y-29587D01*
X43506Y-29587D02*
X43506Y-29213D01*
X64256Y-21163D02*
X64944Y-21163D01*
X64944Y-21163D02*
X64944Y-21537D01*
X64944Y-21537D02*
X64256Y-21537D01*
X64256Y-21537D02*
X64256Y-21163D01*
X41994Y-27537D02*
X41306Y-27537D01*
X41306Y-27537D02*
X41306Y-27163D01*
X41306Y-27163D02*
X41994Y-27163D01*
X41994Y-27163D02*
X41994Y-27537D01*
X35413Y-25644D02*
X35413Y-24956D01*
X35413Y-24956D02*
X35787Y-24956D01*
X35787Y-24956D02*
X35787Y-25644D01*
X35787Y-25644D02*
X35413Y-25644D01*
X35413Y-37044D02*
X35413Y-36356D01*
X35413Y-36356D02*
X35787Y-36356D01*
X35787Y-36356D02*
X35787Y-37044D01*
X35787Y-37044D02*
X35413Y-37044D01*
X37337Y-25856D02*
X37337Y-26544D01*
X37337Y-26544D02*
X36963Y-26544D01*
X36963Y-26544D02*
X36963Y-25856D01*
X36963Y-25856D02*
X37337Y-25856D01*
X38187Y-36356D02*
X38187Y-37044D01*
X38187Y-37044D02*
X37813Y-37044D01*
X37813Y-37044D02*
X37813Y-36356D01*
X37813Y-36356D02*
X38187Y-36356D01*
X38713Y-41844D02*
X38713Y-41156D01*
X38713Y-41156D02*
X39087Y-41156D01*
X39087Y-41156D02*
X39087Y-41844D01*
X39087Y-41844D02*
X38713Y-41844D01*
X44387Y-26906D02*
X44387Y-27594D01*
X44387Y-27594D02*
X44013Y-27594D01*
X44013Y-27594D02*
X44013Y-26906D01*
X44013Y-26906D02*
X44387Y-26906D01*
X41256Y-40513D02*
X41944Y-40513D01*
X41944Y-40513D02*
X41944Y-40887D01*
X41944Y-40887D02*
X41256Y-40887D01*
X41256Y-40887D02*
X41256Y-40513D01*
X38713Y-40344D02*
X38713Y-39656D01*
X38713Y-39656D02*
X39087Y-39656D01*
X39087Y-39656D02*
X39087Y-40344D01*
X39087Y-40344D02*
X38713Y-40344D01*
X47563Y-41744D02*
X47563Y-41056D01*
X47563Y-41056D02*
X47937Y-41056D01*
X47937Y-41056D02*
X47937Y-41744D01*
X47937Y-41744D02*
X47563Y-41744D01*
X47187Y-41056D02*
X47187Y-41744D01*
X47187Y-41744D02*
X46813Y-41744D01*
X46813Y-41744D02*
X46813Y-41056D01*
X46813Y-41056D02*
X47187Y-41056D01*
X50737Y-45106D02*
X50737Y-45794D01*
X50737Y-45794D02*
X50363Y-45794D01*
X50363Y-45794D02*
X50363Y-45106D01*
X50363Y-45106D02*
X50737Y-45106D01*
X45487Y-31556D02*
X45487Y-32244D01*
X45487Y-32244D02*
X45113Y-32244D01*
X45113Y-32244D02*
X45113Y-31556D01*
X45113Y-31556D02*
X45487Y-31556D01*
X44906Y-37213D02*
X45594Y-37213D01*
X45594Y-37213D02*
X45594Y-37587D01*
X45594Y-37587D02*
X44906Y-37587D01*
X44906Y-37587D02*
X44906Y-37213D01*
X43294Y-27537D02*
X42606Y-27537D01*
X42606Y-27537D02*
X42606Y-27163D01*
X42606Y-27163D02*
X43294Y-27163D01*
X43294Y-27163D02*
X43294Y-27537D01*
X43556Y-30763D02*
X44244Y-30763D01*
X44244Y-30763D02*
X44244Y-31137D01*
X44244Y-31137D02*
X43556Y-31137D01*
X43556Y-31137D02*
X43556Y-30763D01*
X53494Y-51387D02*
X52806Y-51387D01*
X52806Y-51387D02*
X52806Y-51013D01*
X52806Y-51013D02*
X53494Y-51013D01*
X53494Y-51013D02*
X53494Y-51387D01*
X63163Y-26544D02*
X63163Y-25856D01*
X63163Y-25856D02*
X63537Y-25856D01*
X63537Y-25856D02*
X63537Y-26544D01*
X63537Y-26544D02*
X63163Y-26544D01*
G54D16*
X41820Y-42609D02*
X41820Y-49791D01*
X41820Y-49791D02*
X39380Y-49791D01*
G54D17*
X39380Y-49791D02*
X39380Y-42609D01*
X39380Y-42609D02*
X41820Y-42609D01*
G54D16*
X41100Y-43700D02*
X40100Y-43700D01*
X41100Y-42700D02*
X41100Y-49700D01*
X41100Y-49700D02*
X40100Y-49700D01*
X40100Y-49700D02*
X40100Y-42700D01*
X40100Y-42700D02*
X41100Y-42700D01*
X34049Y-42722D02*
X34049Y-49904D01*
X34049Y-49904D02*
X31609Y-49904D01*
G54D17*
X31609Y-49904D02*
X31609Y-42722D01*
X31609Y-42722D02*
X34049Y-42722D01*
G54D16*
X33329Y-43813D02*
X32329Y-43813D01*
X33329Y-42813D02*
X33329Y-49813D01*
X33329Y-49813D02*
X32329Y-49813D01*
X32329Y-49813D02*
X32329Y-42813D01*
X32329Y-42813D02*
X33329Y-42813D01*
X45109Y-49961D02*
X52291Y-49961D01*
X52291Y-49961D02*
X52291Y-52401D01*
G54D17*
X52291Y-52401D02*
X45109Y-52401D01*
X45109Y-52401D02*
X45109Y-49961D01*
G54D16*
X46200Y-50681D02*
X46200Y-51681D01*
X45200Y-50681D02*
X52200Y-50681D01*
X52200Y-50681D02*
X52200Y-51681D01*
X52200Y-51681D02*
X45200Y-51681D01*
X45200Y-51681D02*
X45200Y-50681D01*
X52291Y-31120D02*
X45109Y-31120D01*
X45109Y-31120D02*
X45109Y-28680D01*
G54D17*
X45109Y-28680D02*
X52291Y-28680D01*
X52291Y-28680D02*
X52291Y-31120D01*
G54D16*
X51200Y-30400D02*
X51200Y-29400D01*
X52200Y-30400D02*
X45200Y-30400D01*
X45200Y-30400D02*
X45200Y-29400D01*
X45200Y-29400D02*
X52200Y-29400D01*
X52200Y-29400D02*
X52200Y-30400D01*
G54D14*
X41100Y-20550D02*
X35100Y-20550D01*
X41100Y-21300D02*
X35100Y-21300D01*
X41100Y-22300D02*
X35100Y-22300D01*
X41100Y-23050D02*
X35100Y-23050D01*
G54D16*
X35009Y-23020D02*
X35009Y-20580D01*
G54D17*
X41191Y-20580D02*
X41191Y-23020D01*
G54D16*
X40100Y-22300D02*
X40100Y-21300D01*
X35100Y-22300D02*
X35100Y-21300D01*
X41100Y-21300D02*
X41100Y-22300D01*
G54D17*
X65380Y-52641D02*
X65380Y-48459D01*
X65380Y-48459D02*
X67820Y-48459D01*
X67820Y-48459D02*
X67820Y-52641D01*
X67820Y-52641D02*
X65380Y-52641D01*
G54D18*
X67100Y-48550D02*
X67100Y-52550D01*
X66100Y-48550D02*
X66100Y-52550D01*
X66100Y-52550D02*
X67100Y-52550D01*
X67100Y-48550D02*
X66100Y-48550D01*
G54D17*
X70620Y-48459D02*
X70620Y-52641D01*
X70620Y-52641D02*
X68180Y-52641D01*
X68180Y-52641D02*
X68180Y-48459D01*
X68180Y-48459D02*
X70620Y-48459D01*
G54D18*
X68900Y-52550D02*
X68900Y-48550D01*
X69900Y-52550D02*
X69900Y-48550D01*
X69900Y-48550D02*
X68900Y-48550D01*
X68900Y-52550D02*
X69900Y-52550D01*
G54D17*
X34049Y-57722D02*
X34049Y-59904D01*
X34049Y-59904D02*
X31609Y-59904D01*
X31609Y-59904D02*
X31609Y-57722D01*
X31609Y-57722D02*
X34049Y-57722D01*
G54D16*
X32329Y-57813D02*
X33329Y-57813D01*
X33329Y-57813D02*
X33329Y-59813D01*
X33329Y-59813D02*
X32329Y-59813D01*
X32329Y-59813D02*
X32329Y-57813D01*
G54D17*
X70570Y-45359D02*
X70570Y-47541D01*
X70570Y-47541D02*
X68130Y-47541D01*
X68130Y-47541D02*
X68130Y-45359D01*
X68130Y-45359D02*
X70570Y-45359D01*
G54D16*
X68850Y-45450D02*
X69850Y-45450D01*
X69850Y-45450D02*
X69850Y-47450D01*
X69850Y-47450D02*
X68850Y-47450D01*
X68850Y-47450D02*
X68850Y-45450D01*
G54D19*
X68374Y-19139D02*
X70374Y-19139D01*
X70374Y-19139D02*
X70374Y-44139D01*
X70374Y-44139D02*
X68374Y-44139D01*
X68374Y-44139D02*
X68374Y-19139D01*
G54D20*
X38236Y-35103D02*
X37764Y-35103D01*
G54D14*
X38250Y-34850D02*
X38250Y-35750D01*
X38250Y-35750D02*
X37750Y-35750D01*
X37750Y-35750D02*
X37750Y-34850D01*
X37750Y-34850D02*
X38250Y-34850D01*
G54D20*
X37386Y-24603D02*
X36914Y-24603D01*
G54D14*
X37400Y-24350D02*
X37400Y-25250D01*
X37400Y-25250D02*
X36900Y-25250D01*
X36900Y-25250D02*
X36900Y-24350D01*
X36900Y-24350D02*
X37400Y-24350D01*
G54D20*
X44047Y-30386D02*
X44047Y-29914D01*
G54D14*
X44300Y-30400D02*
X43400Y-30400D01*
X43400Y-30400D02*
X43400Y-29900D01*
X43400Y-29900D02*
X44300Y-29900D01*
X44300Y-29900D02*
X44300Y-30400D01*
G54D20*
X52953Y-51664D02*
X52953Y-52136D01*
G54D14*
X52700Y-51650D02*
X53600Y-51650D01*
X53600Y-51650D02*
X53600Y-52150D01*
X53600Y-52150D02*
X52700Y-52150D01*
X52700Y-52150D02*
X52700Y-51650D01*
X40350Y-37900D02*
X40350Y-39150D01*
X40350Y-39150D02*
X41050Y-39150D01*
X41050Y-39150D02*
X41050Y-37900D01*
X38550Y-37900D02*
X38550Y-39150D01*
X38550Y-39150D02*
X39250Y-39150D01*
X39250Y-39150D02*
X39250Y-37900D01*
X41150Y-35500D02*
X41150Y-37900D01*
X41150Y-37900D02*
X38450Y-37900D01*
X38450Y-37900D02*
X38450Y-34800D01*
X38450Y-34750D02*
X41150Y-34750D01*
X41150Y-34800D02*
X41150Y-35500D01*
X54900Y-26600D02*
X54900Y-26000D01*
X54850Y-25850D02*
X54850Y-26750D01*
X54800Y-26850D02*
X54800Y-25750D01*
X54750Y-25650D02*
X54750Y-26950D01*
X54700Y-27000D02*
X54700Y-25600D01*
X54950Y-26300D02*
G75*
G03X54950Y-26300I-1200J0D01*
G74*
G01*
X55050Y-27600D02*
X55050Y-25000D01*
X55050Y-25000D02*
X52750Y-25000D01*
X52750Y-25000D02*
X52450Y-25300D01*
X52450Y-25300D02*
X52450Y-27300D01*
X52450Y-27300D02*
X52750Y-27600D01*
X52750Y-27600D02*
X55050Y-27600D01*
X52900Y-26300D02*
X53200Y-26300D01*
X53050Y-26450D02*
X53050Y-26150D01*
X43800Y-32200D02*
X43200Y-32200D01*
X43050Y-32250D02*
X43950Y-32250D01*
X44050Y-32300D02*
X42950Y-32300D01*
X42850Y-32350D02*
X44150Y-32350D01*
X44200Y-32400D02*
X42800Y-32400D01*
X44700Y-33350D02*
G75*
G03X44700Y-33350I-1200J0D01*
G74*
G01*
X44800Y-32050D02*
X42200Y-32050D01*
X42200Y-32050D02*
X42200Y-34350D01*
X42200Y-34350D02*
X42500Y-34650D01*
X42500Y-34650D02*
X44500Y-34650D01*
X44500Y-34650D02*
X44800Y-34350D01*
X44800Y-34350D02*
X44800Y-32050D01*
X43500Y-34200D02*
X43500Y-33900D01*
X43650Y-34050D02*
X43350Y-34050D01*
X43800Y-43650D02*
X43200Y-43650D01*
X43050Y-43700D02*
X43950Y-43700D01*
X44050Y-43750D02*
X42950Y-43750D01*
X42850Y-43800D02*
X44150Y-43800D01*
X44200Y-43850D02*
X42800Y-43850D01*
X44700Y-44800D02*
G75*
G03X44700Y-44800I-1200J0D01*
G74*
G01*
X44800Y-43500D02*
X42200Y-43500D01*
X42200Y-43500D02*
X42200Y-45800D01*
X42200Y-45800D02*
X42500Y-46100D01*
X42500Y-46100D02*
X44500Y-46100D01*
X44500Y-46100D02*
X44800Y-45800D01*
X44800Y-45800D02*
X44800Y-43500D01*
X43500Y-45650D02*
X43500Y-45350D01*
X43650Y-45500D02*
X43350Y-45500D01*
X35300Y-41050D02*
X35900Y-41050D01*
X36050Y-41000D02*
X35150Y-41000D01*
X35050Y-40950D02*
X36150Y-40950D01*
X36250Y-40900D02*
X34950Y-40900D01*
X34900Y-40850D02*
X36300Y-40850D01*
X36800Y-39900D02*
G75*
G03X36800Y-39900I-1200J0D01*
G74*
G01*
X34300Y-41200D02*
X36900Y-41200D01*
X36900Y-41200D02*
X36900Y-38900D01*
X36900Y-38900D02*
X36600Y-38600D01*
X36600Y-38600D02*
X34600Y-38600D01*
X34600Y-38600D02*
X34300Y-38900D01*
X34300Y-38900D02*
X34300Y-41200D01*
X35600Y-39050D02*
X35600Y-39350D01*
X35450Y-39200D02*
X35750Y-39200D01*
X35850Y-24150D02*
X35350Y-24150D01*
X35850Y-23650D02*
X35360Y-23650D01*
X35850Y-23500D02*
X35850Y-24300D01*
X35850Y-24300D02*
X35350Y-24300D01*
X35350Y-24300D02*
X35350Y-23500D01*
X35350Y-23500D02*
X35850Y-23500D01*
X35850Y-35550D02*
X35350Y-35550D01*
X35850Y-35050D02*
X35360Y-35050D01*
X35850Y-34900D02*
X35850Y-35700D01*
X35850Y-35700D02*
X35350Y-35700D01*
X35350Y-35700D02*
X35350Y-34900D01*
X35350Y-34900D02*
X35850Y-34900D01*
X43570Y-35960D02*
X43570Y-35640D01*
X43130Y-35650D02*
X43130Y-35960D01*
X43030Y-35640D02*
X43670Y-35640D01*
X43670Y-35640D02*
X43670Y-35960D01*
X43670Y-35960D02*
X43030Y-35960D01*
X43030Y-35960D02*
X43030Y-35640D01*
X45460Y-44630D02*
X45140Y-44630D01*
X45150Y-45070D02*
X45460Y-45070D01*
X45140Y-45170D02*
X45140Y-44530D01*
X45140Y-44530D02*
X45460Y-44530D01*
X45460Y-44530D02*
X45460Y-45170D01*
X45460Y-45170D02*
X45140Y-45170D01*
X52540Y-36420D02*
X52860Y-36420D01*
X52850Y-35980D02*
X52540Y-35980D01*
X52860Y-35880D02*
X52860Y-36520D01*
X52860Y-36520D02*
X52540Y-36520D01*
X52540Y-36520D02*
X52540Y-35880D01*
X52540Y-35880D02*
X52860Y-35880D01*
X44670Y-42560D02*
X44670Y-42240D01*
X44230Y-42250D02*
X44230Y-42560D01*
X44130Y-42240D02*
X44770Y-42240D01*
X44770Y-42240D02*
X44770Y-42560D01*
X44770Y-42560D02*
X44130Y-42560D01*
X44130Y-42560D02*
X44130Y-42240D01*
X54090Y-52520D02*
X54410Y-52520D01*
X54400Y-52080D02*
X54090Y-52080D01*
X54410Y-51980D02*
X54410Y-52620D01*
X54410Y-52620D02*
X54090Y-52620D01*
X54090Y-52620D02*
X54090Y-51980D01*
X54090Y-51980D02*
X54410Y-51980D01*
X42910Y-29480D02*
X42590Y-29480D01*
X42600Y-29920D02*
X42910Y-29920D01*
X42590Y-30020D02*
X42590Y-29380D01*
X42590Y-29380D02*
X42910Y-29380D01*
X42910Y-29380D02*
X42910Y-30020D01*
X42910Y-30020D02*
X42590Y-30020D01*
X65890Y-26420D02*
X66210Y-26420D01*
X66200Y-25980D02*
X65890Y-25980D01*
X66210Y-25880D02*
X66210Y-26520D01*
X66210Y-26520D02*
X65890Y-26520D01*
X65890Y-26520D02*
X65890Y-25880D01*
X65890Y-25880D02*
X66210Y-25880D01*
X52860Y-34280D02*
X52540Y-34280D01*
X52550Y-34720D02*
X52860Y-34720D01*
X52540Y-34820D02*
X52540Y-34180D01*
X52540Y-34180D02*
X52860Y-34180D01*
X52860Y-34180D02*
X52860Y-34820D01*
X52860Y-34820D02*
X52540Y-34820D01*
X48290Y-41620D02*
X48610Y-41620D01*
X48600Y-41180D02*
X48290Y-41180D01*
X48610Y-41080D02*
X48610Y-41720D01*
X48610Y-41720D02*
X48290Y-41720D01*
X48290Y-41720D02*
X48290Y-41080D01*
X48290Y-41080D02*
X48610Y-41080D01*
X48990Y-41620D02*
X49310Y-41620D01*
X49300Y-41180D02*
X48990Y-41180D01*
X49310Y-41080D02*
X49310Y-41720D01*
X49310Y-41720D02*
X48990Y-41720D01*
X48990Y-41720D02*
X48990Y-41080D01*
X48990Y-41080D02*
X49310Y-41080D01*
X44990Y-41320D02*
X45310Y-41320D01*
X45300Y-40880D02*
X44990Y-40880D01*
X45310Y-40780D02*
X45310Y-41420D01*
X45310Y-41420D02*
X44990Y-41420D01*
X44990Y-41420D02*
X44990Y-40780D01*
X44990Y-40780D02*
X45310Y-40780D01*
X45020Y-35360D02*
X45020Y-35040D01*
X44580Y-35050D02*
X44580Y-35360D01*
X44480Y-35040D02*
X45120Y-35040D01*
X45120Y-35040D02*
X45120Y-35360D01*
X45120Y-35360D02*
X44480Y-35360D01*
X44480Y-35360D02*
X44480Y-35040D01*
X45020Y-36110D02*
X45020Y-35790D01*
X44580Y-35800D02*
X44580Y-36110D01*
X44480Y-35790D02*
X45120Y-35790D01*
X45120Y-35790D02*
X45120Y-36110D01*
X45120Y-36110D02*
X44480Y-36110D01*
X44480Y-36110D02*
X44480Y-35790D01*
G54D17*
X34049Y-50722D02*
X34049Y-54904D01*
X34049Y-54904D02*
X31609Y-54904D01*
X31609Y-54904D02*
X31609Y-50722D01*
X31609Y-50722D02*
X34049Y-50722D01*
G54D18*
X32329Y-54813D02*
X32329Y-50813D01*
X33329Y-54813D02*
X33329Y-50813D01*
X33329Y-50813D02*
X32329Y-50813D01*
X32329Y-54813D02*
X33329Y-54813D01*
G54D17*
X31609Y-56904D02*
X31609Y-54722D01*
X31609Y-54722D02*
X34049Y-54722D01*
X34049Y-54722D02*
X34049Y-56904D01*
X34049Y-56904D02*
X31609Y-56904D01*
G54D16*
X33329Y-56813D02*
X32329Y-56813D01*
X32329Y-56813D02*
X32329Y-54813D01*
X32329Y-54813D02*
X33329Y-54813D01*
X33329Y-54813D02*
X33329Y-56813D01*
G54D14*
X41100Y-31950D02*
X35100Y-31950D01*
X41100Y-32700D02*
X35100Y-32700D01*
X41100Y-33700D02*
X35100Y-33700D01*
X41100Y-34450D02*
X35100Y-34450D01*
G54D16*
X35009Y-34420D02*
X35009Y-31980D01*
G54D17*
X41191Y-31980D02*
X41191Y-34420D01*
G54D16*
X40100Y-33700D02*
X40100Y-32700D01*
X35100Y-33700D02*
X35100Y-32700D01*
X41100Y-32700D02*
X41100Y-33700D01*
G54D14*
X39350Y-50900D02*
X39350Y-56900D01*
X40100Y-50900D02*
X40100Y-56900D01*
X41100Y-50900D02*
X41100Y-56900D01*
X41850Y-50900D02*
X41850Y-56900D01*
G54D16*
X41820Y-56991D02*
X39380Y-56991D01*
G54D17*
X39380Y-50809D02*
X41820Y-50809D01*
G54D16*
X41100Y-51900D02*
X40100Y-51900D01*
X41100Y-56900D02*
X40100Y-56900D01*
X40100Y-50900D02*
X41100Y-50900D01*
G54D17*
X41820Y-57709D02*
X41820Y-59891D01*
X41820Y-59891D02*
X39380Y-59891D01*
X39380Y-59891D02*
X39380Y-57709D01*
X39380Y-57709D02*
X41820Y-57709D01*
G54D16*
X40100Y-57800D02*
X41100Y-57800D01*
X41100Y-57800D02*
X41100Y-59800D01*
X41100Y-59800D02*
X40100Y-59800D01*
X40100Y-59800D02*
X40100Y-57800D01*
G54D11*
X53550Y-16350D02*
X50550Y-16350D01*
X50550Y-16350D02*
X50550Y-23750D01*
X50550Y-23750D02*
X53550Y-23750D01*
X53550Y-23750D02*
X53550Y-16350D01*
X48600Y-16350D02*
X45600Y-16350D01*
X45600Y-16350D02*
X45600Y-23750D01*
X45600Y-23750D02*
X48600Y-23750D01*
X48600Y-23750D02*
X48600Y-16350D01*
G54D14*
X49980Y-49340D02*
X49980Y-49660D01*
X50420Y-49650D02*
X50420Y-49340D01*
X50520Y-49660D02*
X49880Y-49660D01*
X49880Y-49660D02*
X49880Y-49340D01*
X49880Y-49340D02*
X50520Y-49340D01*
X50520Y-49340D02*
X50520Y-49660D01*
X48420Y-49460D02*
X48420Y-49140D01*
X47980Y-49150D02*
X47980Y-49460D01*
X47880Y-49140D02*
X48520Y-49140D01*
X48520Y-49140D02*
X48520Y-49460D01*
X48520Y-49460D02*
X47880Y-49460D01*
X47880Y-49460D02*
X47880Y-49140D01*
X45990Y-49420D02*
X46310Y-49420D01*
X46300Y-48980D02*
X45990Y-48980D01*
X46310Y-48880D02*
X46310Y-49520D01*
X46310Y-49520D02*
X45990Y-49520D01*
X45990Y-49520D02*
X45990Y-48880D01*
X45990Y-48880D02*
X46310Y-48880D01*
X44540Y-51620D02*
X44860Y-51620D01*
X44850Y-51180D02*
X44540Y-51180D01*
X44860Y-51080D02*
X44860Y-51720D01*
X44860Y-51720D02*
X44540Y-51720D01*
X44540Y-51720D02*
X44540Y-51080D01*
X44540Y-51080D02*
X44860Y-51080D01*
X47670Y-31710D02*
X47670Y-31390D01*
X47230Y-31400D02*
X47230Y-31710D01*
X47130Y-31390D02*
X47770Y-31390D01*
X47770Y-31390D02*
X47770Y-31710D01*
X47770Y-31710D02*
X47130Y-31710D01*
X47130Y-31710D02*
X47130Y-31390D01*
X49490Y-32070D02*
X49810Y-32070D01*
X49800Y-31630D02*
X49490Y-31630D01*
X49810Y-31530D02*
X49810Y-32170D01*
X49810Y-32170D02*
X49490Y-32170D01*
X49490Y-32170D02*
X49490Y-31530D01*
X49490Y-31530D02*
X49810Y-31530D01*
X50830Y-31440D02*
X50830Y-31760D01*
X51270Y-31750D02*
X51270Y-31440D01*
X51370Y-31760D02*
X50730Y-31760D01*
X50730Y-31760D02*
X50730Y-31440D01*
X50730Y-31440D02*
X51370Y-31440D01*
X51370Y-31440D02*
X51370Y-31760D01*
X52540Y-30420D02*
X52860Y-30420D01*
X52850Y-29980D02*
X52540Y-29980D01*
X52860Y-29880D02*
X52860Y-30520D01*
X52860Y-30520D02*
X52540Y-30520D01*
X52540Y-30520D02*
X52540Y-29880D01*
X52540Y-29880D02*
X52860Y-29880D01*
X47310Y-36630D02*
X46990Y-36630D01*
X47000Y-37070D02*
X47310Y-37070D01*
X46990Y-37170D02*
X46990Y-36530D01*
X46990Y-36530D02*
X47310Y-36530D01*
X47310Y-36530D02*
X47310Y-37170D01*
X47310Y-37170D02*
X46990Y-37170D01*
X49440Y-44270D02*
X49760Y-44270D01*
X49750Y-43830D02*
X49440Y-43830D01*
X49760Y-43730D02*
X49760Y-44370D01*
X49760Y-44370D02*
X49440Y-44370D01*
X49440Y-44370D02*
X49440Y-43730D01*
X49440Y-43730D02*
X49760Y-43730D01*
X37760Y-39780D02*
X37440Y-39780D01*
X37450Y-40220D02*
X37760Y-40220D01*
X37440Y-40320D02*
X37440Y-39680D01*
X37440Y-39680D02*
X37760Y-39680D01*
X37760Y-39680D02*
X37760Y-40320D01*
X37760Y-40320D02*
X37440Y-40320D01*
X44620Y-24660D02*
X44620Y-24340D01*
X44180Y-24350D02*
X44180Y-24660D01*
X44080Y-24340D02*
X44720Y-24340D01*
X44720Y-24340D02*
X44720Y-24660D01*
X44720Y-24660D02*
X44080Y-24660D01*
X44080Y-24660D02*
X44080Y-24340D01*
G54D20*
X59914Y-35297D02*
X60386Y-35297D01*
G54D14*
X59900Y-35550D02*
X59900Y-34650D01*
X59900Y-34650D02*
X60400Y-34650D01*
X60400Y-34650D02*
X60400Y-35550D01*
X60400Y-35550D02*
X59900Y-35550D01*
G54D20*
X61114Y-35297D02*
X61586Y-35297D01*
G54D14*
X61100Y-35550D02*
X61100Y-34650D01*
X61100Y-34650D02*
X61600Y-34650D01*
X61600Y-34650D02*
X61600Y-35550D01*
X61600Y-35550D02*
X61100Y-35550D01*
G54D20*
X62314Y-35297D02*
X62786Y-35297D01*
G54D14*
X62300Y-35550D02*
X62300Y-34650D01*
X62300Y-34650D02*
X62800Y-34650D01*
X62800Y-34650D02*
X62800Y-35550D01*
X62800Y-35550D02*
X62300Y-35550D01*
G54D20*
X63514Y-35297D02*
X63986Y-35297D01*
G54D14*
X63500Y-35550D02*
X63500Y-34650D01*
X63500Y-34650D02*
X64000Y-34650D01*
X64000Y-34650D02*
X64000Y-35550D01*
X64000Y-35550D02*
X63500Y-35550D01*
G54D15*
X59963Y-34144D02*
X59963Y-33456D01*
X59963Y-33456D02*
X60337Y-33456D01*
X60337Y-33456D02*
X60337Y-34144D01*
X60337Y-34144D02*
X59963Y-34144D01*
X61163Y-34144D02*
X61163Y-33456D01*
X61163Y-33456D02*
X61537Y-33456D01*
X61537Y-33456D02*
X61537Y-34144D01*
X61537Y-34144D02*
X61163Y-34144D01*
X62363Y-34144D02*
X62363Y-33456D01*
X62363Y-33456D02*
X62737Y-33456D01*
X62737Y-33456D02*
X62737Y-34144D01*
X62737Y-34144D02*
X62363Y-34144D01*
X63563Y-34144D02*
X63563Y-33456D01*
X63563Y-33456D02*
X63937Y-33456D01*
X63937Y-33456D02*
X63937Y-34144D01*
X63937Y-34144D02*
X63563Y-34144D01*
X34863Y-27044D02*
X34863Y-26356D01*
X34863Y-26356D02*
X35237Y-26356D01*
X35237Y-26356D02*
X35237Y-27044D01*
X35237Y-27044D02*
X34863Y-27044D01*
X35137Y-29656D02*
X35137Y-30344D01*
X35137Y-30344D02*
X34763Y-30344D01*
X34763Y-30344D02*
X34763Y-29656D01*
X34763Y-29656D02*
X35137Y-29656D01*
G54D14*
X50750Y-35050D02*
X47650Y-35050D01*
X47650Y-35050D02*
X47650Y-36850D01*
X47650Y-36850D02*
X50750Y-36850D01*
X50750Y-36850D02*
X50750Y-35050D01*
X48061Y-36550D02*
G75*
G03X48061Y-36550I-111J0D01*
G74*
G01*
X46100Y-45800D02*
X49200Y-45800D01*
X49200Y-45800D02*
X49200Y-44000D01*
X49200Y-44000D02*
X46100Y-44000D01*
X46100Y-44000D02*
X46100Y-45800D01*
X49011Y-44300D02*
G75*
G03X49011Y-44300I-111J0D01*
G74*
G01*
X56350Y-45850D02*
X59450Y-45850D01*
X59450Y-45850D02*
X59450Y-44050D01*
X59450Y-44050D02*
X56350Y-44050D01*
X56350Y-44050D02*
X56350Y-45850D01*
X59261Y-44350D02*
G75*
G03X59261Y-44350I-111J0D01*
G74*
G01*
X59300Y-35550D02*
X56200Y-35550D01*
X56200Y-35550D02*
X56200Y-37350D01*
X56200Y-37350D02*
X59300Y-37350D01*
X59300Y-37350D02*
X59300Y-35550D01*
X56611Y-37050D02*
G75*
G03X56611Y-37050I-111J0D01*
G74*
G01*
G54D15*
X55954Y-34531D02*
X55954Y-35869D01*
X55954Y-35869D02*
X55246Y-35869D01*
X55246Y-35869D02*
X55246Y-34531D01*
X55246Y-34531D02*
X55954Y-34531D01*
X61269Y-38054D02*
X59931Y-38054D01*
X59931Y-38054D02*
X59931Y-37346D01*
X59931Y-37346D02*
X61269Y-37346D01*
X61269Y-37346D02*
X61269Y-38054D01*
X61004Y-47281D02*
X61004Y-48619D01*
X61004Y-48619D02*
X60296Y-48619D01*
X60296Y-48619D02*
X60296Y-47281D01*
X60296Y-47281D02*
X61004Y-47281D01*
X55404Y-46531D02*
X55404Y-47869D01*
X55404Y-47869D02*
X54696Y-47869D01*
X54696Y-47869D02*
X54696Y-46531D01*
X54696Y-46531D02*
X55404Y-46531D01*
X62013Y-44444D02*
X62013Y-43756D01*
X62013Y-43756D02*
X62387Y-43756D01*
X62387Y-43756D02*
X62387Y-44444D01*
X62387Y-44444D02*
X62013Y-44444D01*
X63137Y-43756D02*
X63137Y-44444D01*
X63137Y-44444D02*
X62763Y-44444D01*
X62763Y-44444D02*
X62763Y-43756D01*
X62763Y-43756D02*
X63137Y-43756D01*
X64906Y-35613D02*
X65594Y-35613D01*
X65594Y-35613D02*
X65594Y-35987D01*
X65594Y-35987D02*
X64906Y-35987D01*
X64906Y-35987D02*
X64906Y-35613D01*
X58713Y-40044D02*
X58713Y-39356D01*
X58713Y-39356D02*
X59087Y-39356D01*
X59087Y-39356D02*
X59087Y-40044D01*
X59087Y-40044D02*
X58713Y-40044D01*
X58287Y-39356D02*
X58287Y-40044D01*
X58287Y-40044D02*
X57913Y-40044D01*
X57913Y-40044D02*
X57913Y-39356D01*
X57913Y-39356D02*
X58287Y-39356D01*
G54D16*
X62241Y-31120D02*
X55059Y-31120D01*
X55059Y-31120D02*
X55059Y-28680D01*
G54D17*
X55059Y-28680D02*
X62241Y-28680D01*
X62241Y-28680D02*
X62241Y-31120D01*
G54D16*
X61150Y-30400D02*
X61150Y-29400D01*
X62150Y-30400D02*
X55150Y-30400D01*
X55150Y-30400D02*
X55150Y-29400D01*
X55150Y-29400D02*
X62150Y-29400D01*
X62150Y-29400D02*
X62150Y-30400D01*
X55609Y-49961D02*
X62791Y-49961D01*
X62791Y-49961D02*
X62791Y-52401D01*
G54D17*
X62791Y-52401D02*
X55609Y-52401D01*
X55609Y-52401D02*
X55609Y-49961D01*
G54D16*
X56700Y-50681D02*
X56700Y-51681D01*
X55700Y-50681D02*
X62700Y-50681D01*
X62700Y-50681D02*
X62700Y-51681D01*
X62700Y-51681D02*
X55700Y-51681D01*
X55700Y-51681D02*
X55700Y-50681D01*
G54D14*
X54350Y-41100D02*
X54950Y-41100D01*
X55100Y-41050D02*
X54200Y-41050D01*
X54100Y-41000D02*
X55200Y-41000D01*
X55300Y-40950D02*
X54000Y-40950D01*
X53950Y-40900D02*
X55350Y-40900D01*
X55850Y-39950D02*
G75*
G03X55850Y-39950I-1200J0D01*
G74*
G01*
X53350Y-41250D02*
X55950Y-41250D01*
X55950Y-41250D02*
X55950Y-38950D01*
X55950Y-38950D02*
X55650Y-38650D01*
X55650Y-38650D02*
X53650Y-38650D01*
X53650Y-38650D02*
X53350Y-38950D01*
X53350Y-38950D02*
X53350Y-41250D01*
X54650Y-39100D02*
X54650Y-39400D01*
X54500Y-39250D02*
X54800Y-39250D01*
X53850Y-43600D02*
X53250Y-43600D01*
X53100Y-43650D02*
X54000Y-43650D01*
X54100Y-43700D02*
X53000Y-43700D01*
X52900Y-43750D02*
X54200Y-43750D01*
X54250Y-43800D02*
X52850Y-43800D01*
X54750Y-44750D02*
G75*
G03X54750Y-44750I-1200J0D01*
G74*
G01*
X54850Y-43450D02*
X52250Y-43450D01*
X52250Y-43450D02*
X52250Y-45750D01*
X52250Y-45750D02*
X52550Y-46050D01*
X52550Y-46050D02*
X54550Y-46050D01*
X54550Y-46050D02*
X54850Y-45750D01*
X54850Y-45750D02*
X54850Y-43450D01*
X53550Y-45600D02*
X53550Y-45300D01*
X53700Y-45450D02*
X53400Y-45450D01*
X61020Y-38710D02*
X61020Y-38390D01*
X60580Y-38400D02*
X60580Y-38710D01*
X60480Y-38390D02*
X61120Y-38390D01*
X61120Y-38390D02*
X61120Y-38710D01*
X61120Y-38710D02*
X60480Y-38710D01*
X60480Y-38710D02*
X60480Y-38390D01*
X59130Y-31490D02*
X59130Y-31810D01*
X59570Y-31800D02*
X59570Y-31490D01*
X59670Y-31810D02*
X59030Y-31810D01*
X59030Y-31810D02*
X59030Y-31490D01*
X59030Y-31490D02*
X59670Y-31490D01*
X59670Y-31490D02*
X59670Y-31810D01*
X62780Y-30490D02*
X62780Y-30810D01*
X63220Y-30800D02*
X63220Y-30490D01*
X63320Y-30810D02*
X62680Y-30810D01*
X62680Y-30810D02*
X62680Y-30490D01*
X62680Y-30490D02*
X63320Y-30490D01*
X63320Y-30490D02*
X63320Y-30810D01*
X63220Y-30060D02*
X63220Y-29740D01*
X62780Y-29750D02*
X62780Y-30060D01*
X62680Y-29740D02*
X63320Y-29740D01*
X63320Y-29740D02*
X63320Y-30060D01*
X63320Y-30060D02*
X62680Y-30060D01*
X62680Y-30060D02*
X62680Y-29740D01*
X60430Y-49340D02*
X60430Y-49660D01*
X60870Y-49650D02*
X60870Y-49340D01*
X60970Y-49660D02*
X60330Y-49660D01*
X60330Y-49660D02*
X60330Y-49340D01*
X60330Y-49340D02*
X60970Y-49340D01*
X60970Y-49340D02*
X60970Y-49660D01*
X57310Y-39380D02*
X56990Y-39380D01*
X57000Y-39820D02*
X57310Y-39820D01*
X56990Y-39920D02*
X56990Y-39280D01*
X56990Y-39280D02*
X57310Y-39280D01*
X57310Y-39280D02*
X57310Y-39920D01*
X57310Y-39920D02*
X56990Y-39920D01*
X58720Y-49410D02*
X58720Y-49090D01*
X58280Y-49100D02*
X58280Y-49410D01*
X58180Y-49090D02*
X58820Y-49090D01*
X58820Y-49090D02*
X58820Y-49410D01*
X58820Y-49410D02*
X58180Y-49410D01*
X58180Y-49410D02*
X58180Y-49090D01*
X56610Y-39380D02*
X56290Y-39380D01*
X56300Y-39820D02*
X56610Y-39820D01*
X56290Y-39920D02*
X56290Y-39280D01*
X56290Y-39280D02*
X56610Y-39280D01*
X56610Y-39280D02*
X56610Y-39920D01*
X56610Y-39920D02*
X56290Y-39920D01*
X56390Y-49420D02*
X56710Y-49420D01*
X56700Y-48980D02*
X56390Y-48980D01*
X56710Y-48880D02*
X56710Y-49520D01*
X56710Y-49520D02*
X56390Y-49520D01*
X56390Y-49520D02*
X56390Y-48880D01*
X56390Y-48880D02*
X56710Y-48880D01*
X58670Y-40910D02*
X58670Y-40590D01*
X58230Y-40600D02*
X58230Y-40910D01*
X58130Y-40590D02*
X58770Y-40590D01*
X58770Y-40590D02*
X58770Y-40910D01*
X58770Y-40910D02*
X58130Y-40910D01*
X58130Y-40910D02*
X58130Y-40590D01*
X55040Y-51770D02*
X55360Y-51770D01*
X55350Y-51330D02*
X55040Y-51330D01*
X55360Y-51230D02*
X55360Y-51870D01*
X55360Y-51870D02*
X55040Y-51870D01*
X55040Y-51870D02*
X55040Y-51230D01*
X55040Y-51230D02*
X55360Y-51230D01*
X59430Y-42190D02*
X59430Y-42510D01*
X59870Y-42500D02*
X59870Y-42190D01*
X59970Y-42510D02*
X59330Y-42510D01*
X59330Y-42510D02*
X59330Y-42190D01*
X59330Y-42190D02*
X59970Y-42190D01*
X59970Y-42190D02*
X59970Y-42510D01*
X60210Y-43880D02*
X59890Y-43880D01*
X59900Y-44320D02*
X60210Y-44320D01*
X59890Y-44420D02*
X59890Y-43780D01*
X59890Y-43780D02*
X60210Y-43780D01*
X60210Y-43780D02*
X60210Y-44420D01*
X60210Y-44420D02*
X59890Y-44420D01*
X60960Y-43880D02*
X60640Y-43880D01*
X60650Y-44320D02*
X60960Y-44320D01*
X60640Y-44420D02*
X60640Y-43780D01*
X60640Y-43780D02*
X60960Y-43780D01*
X60960Y-43780D02*
X60960Y-44420D01*
X60960Y-44420D02*
X60640Y-44420D01*
X55810Y-37080D02*
X55490Y-37080D01*
X55500Y-37520D02*
X55810Y-37520D01*
X55490Y-37620D02*
X55490Y-36980D01*
X55490Y-36980D02*
X55810Y-36980D01*
X55810Y-36980D02*
X55810Y-37620D01*
X55810Y-37620D02*
X55490Y-37620D01*
X61660Y-43880D02*
X61340Y-43880D01*
X61350Y-44320D02*
X61660Y-44320D01*
X61340Y-44420D02*
X61340Y-43780D01*
X61340Y-43780D02*
X61660Y-43780D01*
X61660Y-43780D02*
X61660Y-44420D01*
X61660Y-44420D02*
X61340Y-44420D01*
X55610Y-44830D02*
X55290Y-44830D01*
X55300Y-45270D02*
X55610Y-45270D01*
X55290Y-45370D02*
X55290Y-44730D01*
X55290Y-44730D02*
X55610Y-44730D01*
X55610Y-44730D02*
X55610Y-45370D01*
X55610Y-45370D02*
X55290Y-45370D01*
X55010Y-37080D02*
X54690Y-37080D01*
X54700Y-37520D02*
X55010Y-37520D01*
X54690Y-37620D02*
X54690Y-36980D01*
X54690Y-36980D02*
X55010Y-36980D01*
X55010Y-36980D02*
X55010Y-37620D01*
X55010Y-37620D02*
X54690Y-37620D01*
X57420Y-31710D02*
X57420Y-31390D01*
X56980Y-31400D02*
X56980Y-31710D01*
X56880Y-31390D02*
X57520Y-31390D01*
X57520Y-31390D02*
X57520Y-31710D01*
X57520Y-31710D02*
X56880Y-31710D01*
X56880Y-31710D02*
X56880Y-31390D01*
X55820Y-43960D02*
X55820Y-43640D01*
X55380Y-43650D02*
X55380Y-43960D01*
X55280Y-43640D02*
X55920Y-43640D01*
X55920Y-43640D02*
X55920Y-43960D01*
X55920Y-43960D02*
X55280Y-43960D01*
X55280Y-43960D02*
X55280Y-43640D01*
G54D15*
X61187Y-45806D02*
X61187Y-46494D01*
X61187Y-46494D02*
X60813Y-46494D01*
X60813Y-46494D02*
X60813Y-45806D01*
X60813Y-45806D02*
X61187Y-45806D01*
X63944Y-51337D02*
X63256Y-51337D01*
X63256Y-51337D02*
X63256Y-50963D01*
X63256Y-50963D02*
X63944Y-50963D01*
X63944Y-50963D02*
X63944Y-51337D01*
X54787Y-31556D02*
X54787Y-32244D01*
X54787Y-32244D02*
X54413Y-32244D01*
X54413Y-32244D02*
X54413Y-31556D01*
X54413Y-31556D02*
X54787Y-31556D01*
X56044Y-32637D02*
X55356Y-32637D01*
X55356Y-32637D02*
X55356Y-32263D01*
X55356Y-32263D02*
X56044Y-32263D01*
X56044Y-32263D02*
X56044Y-32637D01*
X63944Y-52787D02*
X63256Y-52787D01*
X63256Y-52787D02*
X63256Y-52413D01*
X63256Y-52413D02*
X63944Y-52413D01*
X63944Y-52413D02*
X63944Y-52787D01*
G54D20*
X63403Y-51664D02*
X63403Y-52136D01*
G54D14*
X63150Y-51650D02*
X64050Y-51650D01*
X64050Y-51650D02*
X64050Y-52150D01*
X64050Y-52150D02*
X63150Y-52150D01*
X63150Y-52150D02*
X63150Y-51650D01*
G54D20*
X54836Y-30403D02*
X54364Y-30403D01*
G54D14*
X54850Y-30150D02*
X54850Y-31050D01*
X54850Y-31050D02*
X54350Y-31050D01*
X54350Y-31050D02*
X54350Y-30150D01*
X54350Y-30150D02*
X54850Y-30150D01*
X55580Y-31390D02*
X55580Y-31710D01*
X56020Y-31700D02*
X56020Y-31390D01*
X56120Y-31710D02*
X55480Y-31710D01*
X55480Y-31710D02*
X55480Y-31390D01*
X55480Y-31390D02*
X56120Y-31390D01*
X56120Y-31390D02*
X56120Y-31710D01*
X64590Y-52520D02*
X64910Y-52520D01*
X64900Y-52080D02*
X64590Y-52080D01*
X64910Y-51980D02*
X64910Y-52620D01*
X64910Y-52620D02*
X64590Y-52620D01*
X64590Y-52620D02*
X64590Y-51980D01*
X64590Y-51980D02*
X64910Y-51980D01*
G54D17*
X42409Y-20630D02*
X44591Y-20630D01*
X44591Y-20630D02*
X44591Y-23070D01*
X44591Y-23070D02*
X42409Y-23070D01*
X42409Y-23070D02*
X42409Y-20630D01*
G54D16*
X42500Y-22350D02*
X42500Y-21350D01*
X42500Y-21350D02*
X44500Y-21350D01*
X44500Y-21350D02*
X44500Y-22350D01*
X44500Y-22350D02*
X42500Y-22350D01*
G54D21*
X37993Y-26004D02*
X37993Y-25776D01*
X38493Y-25890D02*
X37993Y-25890D01*
X38493Y-25414D02*
X38255Y-25547D01*
X38493Y-25642D02*
X37993Y-25642D01*
X37993Y-25490D01*
X38017Y-25452D01*
X38041Y-25433D01*
X38088Y-25414D01*
X38160Y-25414D01*
X38207Y-25433D01*
X38231Y-25452D01*
X38255Y-25490D01*
X38255Y-25642D01*
X38041Y-25261D02*
X38017Y-25242D01*
X37993Y-25204D01*
X37993Y-25109D01*
X38017Y-25071D01*
X38041Y-25052D01*
X38088Y-25033D01*
X38136Y-25033D01*
X38207Y-25052D01*
X38493Y-25280D01*
X38493Y-25033D01*
X39870Y-27223D02*
X39470Y-27223D01*
X39870Y-27033D02*
X39470Y-27033D01*
X39470Y-26880D01*
X39489Y-26842D01*
X39509Y-26823D01*
X39547Y-26804D01*
X39604Y-26804D01*
X39642Y-26823D01*
X39661Y-26842D01*
X39680Y-26880D01*
X39680Y-27033D01*
X39870Y-26633D02*
X39470Y-26633D01*
X39470Y-26538D01*
X39489Y-26480D01*
X39528Y-26442D01*
X39566Y-26423D01*
X39642Y-26404D01*
X39699Y-26404D01*
X39775Y-26423D01*
X39813Y-26442D01*
X39851Y-26480D01*
X39870Y-26538D01*
X39870Y-26633D01*
X39470Y-26157D02*
X39470Y-26119D01*
X39489Y-26080D01*
X39509Y-26061D01*
X39547Y-26042D01*
X39623Y-26023D01*
X39718Y-26023D01*
X39794Y-26042D01*
X39832Y-26061D01*
X39851Y-26080D01*
X39870Y-26119D01*
X39870Y-26157D01*
X39851Y-26195D01*
X39832Y-26214D01*
X39794Y-26233D01*
X39718Y-26252D01*
X39623Y-26252D01*
X39547Y-26233D01*
X39509Y-26214D01*
X39489Y-26195D01*
X39470Y-26157D01*
X39470Y-25890D02*
X39470Y-25642D01*
X39623Y-25776D01*
X39623Y-25719D01*
X39642Y-25680D01*
X39661Y-25661D01*
X39699Y-25642D01*
X39794Y-25642D01*
X39832Y-25661D01*
X39851Y-25680D01*
X39870Y-25719D01*
X39870Y-25833D01*
X39851Y-25871D01*
X39832Y-25890D01*
X39470Y-25300D02*
X39470Y-25376D01*
X39489Y-25414D01*
X39509Y-25433D01*
X39566Y-25471D01*
X39642Y-25490D01*
X39794Y-25490D01*
X39832Y-25471D01*
X39851Y-25452D01*
X39870Y-25414D01*
X39870Y-25338D01*
X39851Y-25300D01*
X39832Y-25280D01*
X39794Y-25261D01*
X39699Y-25261D01*
X39661Y-25280D01*
X39642Y-25300D01*
X39623Y-25338D01*
X39623Y-25414D01*
X39642Y-25452D01*
X39661Y-25471D01*
X39699Y-25490D01*
X39870Y-25090D02*
X39470Y-25090D01*
X39870Y-24861D01*
X39470Y-24861D01*
X39470Y-24595D02*
X39470Y-24557D01*
X39489Y-24519D01*
X39509Y-24500D01*
X39547Y-24480D01*
X39623Y-24461D01*
X39718Y-24461D01*
X39794Y-24480D01*
X39832Y-24500D01*
X39851Y-24519D01*
X39870Y-24557D01*
X39870Y-24595D01*
X39851Y-24633D01*
X39832Y-24652D01*
X39794Y-24671D01*
X39718Y-24690D01*
X39623Y-24690D01*
X39547Y-24671D01*
X39509Y-24652D01*
X39489Y-24633D01*
X39470Y-24595D01*
X39604Y-24119D02*
X39870Y-24119D01*
X39451Y-24214D02*
X39737Y-24309D01*
X39737Y-24061D01*
X39870Y-23719D02*
X39870Y-23909D01*
X39470Y-23909D01*
G54D17*
X51258Y-36459D02*
X51258Y-36628D01*
X51247Y-36661D01*
X51225Y-36684D01*
X51191Y-36695D01*
X51169Y-36695D01*
X51494Y-36695D02*
X51360Y-36695D01*
X51427Y-36695D02*
X51427Y-36459D01*
X51405Y-36493D01*
X51382Y-36515D01*
X51360Y-36526D01*
X51573Y-36459D02*
X51730Y-36459D01*
X51629Y-36695D01*
X45221Y-41865D02*
X45221Y-42034D01*
X45210Y-42067D01*
X45187Y-42090D01*
X45153Y-42101D01*
X45131Y-42101D01*
X45311Y-41865D02*
X45457Y-41865D01*
X45378Y-41955D01*
X45412Y-41955D01*
X45434Y-41966D01*
X45446Y-41977D01*
X45457Y-42000D01*
X45457Y-42056D01*
X45446Y-42079D01*
X45434Y-42090D01*
X45412Y-42101D01*
X45344Y-42101D01*
X45322Y-42090D01*
X45311Y-42079D01*
G54D20*
X64499Y-23532D02*
X64499Y-23692D01*
X64509Y-23710D01*
X64518Y-23720D01*
X64537Y-23729D01*
X64574Y-23729D01*
X64593Y-23720D01*
X64603Y-23710D01*
X64612Y-23692D01*
X64612Y-23532D01*
X64715Y-23729D02*
X64753Y-23729D01*
X64771Y-23720D01*
X64781Y-23710D01*
X64800Y-23682D01*
X64809Y-23645D01*
X64809Y-23570D01*
X64800Y-23551D01*
X64790Y-23542D01*
X64771Y-23532D01*
X64734Y-23532D01*
X64715Y-23542D01*
X64706Y-23551D01*
X64696Y-23570D01*
X64696Y-23617D01*
X64706Y-23635D01*
X64715Y-23645D01*
X64734Y-23654D01*
X64771Y-23654D01*
X64790Y-23645D01*
X64800Y-23635D01*
X64809Y-23617D01*
X64012Y-23079D02*
X64012Y-22882D01*
X64077Y-23023D01*
X64143Y-22882D01*
X64143Y-23079D01*
X64349Y-23060D02*
X64340Y-23070D01*
X64312Y-23079D01*
X64293Y-23079D01*
X64265Y-23070D01*
X64246Y-23051D01*
X64237Y-23032D01*
X64227Y-22995D01*
X64227Y-22967D01*
X64237Y-22929D01*
X64246Y-22910D01*
X64265Y-22892D01*
X64293Y-22882D01*
X64312Y-22882D01*
X64340Y-22892D01*
X64349Y-22901D01*
X64434Y-23079D02*
X64434Y-22882D01*
X64509Y-22882D01*
X64528Y-22892D01*
X64537Y-22901D01*
X64546Y-22920D01*
X64546Y-22948D01*
X64537Y-22967D01*
X64528Y-22976D01*
X64509Y-22985D01*
X64434Y-22985D01*
X64715Y-22948D02*
X64715Y-23079D01*
X64668Y-22873D02*
X64621Y-23014D01*
X64743Y-23014D01*
X64903Y-22948D02*
X64903Y-23079D01*
X64856Y-22873D02*
X64809Y-23014D01*
X64931Y-23014D01*
X64987Y-22882D02*
X65119Y-23079D01*
X65119Y-22882D02*
X64987Y-23079D01*
X65297Y-23079D02*
X65184Y-23079D01*
X65241Y-23079D02*
X65241Y-22882D01*
X65222Y-22910D01*
X65203Y-22929D01*
X65184Y-22939D01*
X44006Y-37327D02*
X44118Y-37327D01*
X44141Y-37334D01*
X44156Y-37349D01*
X44163Y-37371D01*
X44163Y-37386D01*
X44021Y-37259D02*
X44014Y-37252D01*
X44006Y-37237D01*
X44006Y-37200D01*
X44014Y-37185D01*
X44021Y-37177D01*
X44036Y-37170D01*
X44051Y-37170D01*
X44073Y-37177D01*
X44163Y-37267D01*
X44163Y-37170D01*
X44006Y-37117D02*
X44006Y-37013D01*
X44163Y-37080D01*
G54D16*
X43468Y-35973D02*
X43639Y-35973D01*
X43554Y-36273D02*
X43554Y-35973D01*
X43739Y-36273D02*
X43739Y-35973D01*
X43854Y-35973D01*
X43882Y-35987D01*
X43896Y-36002D01*
X43911Y-36030D01*
X43911Y-36073D01*
X43896Y-36102D01*
X43882Y-36116D01*
X43854Y-36130D01*
X43739Y-36130D01*
G54D20*
X39852Y-40638D02*
X39852Y-40526D01*
X40049Y-40582D02*
X39852Y-40582D01*
X40049Y-40347D02*
X39955Y-40413D01*
X40049Y-40460D02*
X39852Y-40460D01*
X39852Y-40385D01*
X39862Y-40366D01*
X39871Y-40357D01*
X39890Y-40347D01*
X39918Y-40347D01*
X39937Y-40357D01*
X39946Y-40366D01*
X39955Y-40385D01*
X39955Y-40460D01*
X39852Y-40282D02*
X39852Y-40160D01*
X39927Y-40225D01*
X39927Y-40197D01*
X39937Y-40178D01*
X39946Y-40169D01*
X39965Y-40160D01*
X40012Y-40160D01*
X40030Y-40169D01*
X40040Y-40178D01*
X40049Y-40197D01*
X40049Y-40253D01*
X40040Y-40272D01*
X40030Y-40282D01*
X43402Y-25988D02*
X43402Y-25876D01*
X43599Y-25932D02*
X43402Y-25932D01*
X43599Y-25697D02*
X43505Y-25763D01*
X43599Y-25810D02*
X43402Y-25810D01*
X43402Y-25735D01*
X43412Y-25716D01*
X43421Y-25707D01*
X43440Y-25697D01*
X43468Y-25697D01*
X43487Y-25707D01*
X43496Y-25716D01*
X43505Y-25735D01*
X43505Y-25810D01*
X43599Y-25510D02*
X43599Y-25622D01*
X43599Y-25566D02*
X43402Y-25566D01*
X43430Y-25585D01*
X43449Y-25603D01*
X43459Y-25622D01*
X51910Y-35300D02*
X51835Y-35353D01*
X51910Y-35390D02*
X51753Y-35390D01*
X51753Y-35330D01*
X51761Y-35315D01*
X51768Y-35308D01*
X51783Y-35300D01*
X51805Y-35300D01*
X51820Y-35308D01*
X51828Y-35315D01*
X51835Y-35330D01*
X51835Y-35390D01*
X51805Y-35166D02*
X51910Y-35166D01*
X51746Y-35203D02*
X51858Y-35241D01*
X51858Y-35143D01*
X51753Y-35016D02*
X51753Y-35046D01*
X51761Y-35061D01*
X51768Y-35069D01*
X51790Y-35084D01*
X51820Y-35091D01*
X51880Y-35091D01*
X51895Y-35084D01*
X51903Y-35076D01*
X51910Y-35061D01*
X51910Y-35031D01*
X51903Y-35016D01*
X51895Y-35009D01*
X51880Y-35001D01*
X51843Y-35001D01*
X51828Y-35009D01*
X51820Y-35016D01*
X51813Y-35031D01*
X51813Y-35061D01*
X51820Y-35076D01*
X51828Y-35084D01*
X51843Y-35091D01*
X46066Y-32350D02*
X45991Y-32403D01*
X46066Y-32440D02*
X45909Y-32440D01*
X45909Y-32380D01*
X45917Y-32365D01*
X45924Y-32358D01*
X45939Y-32350D01*
X45961Y-32350D01*
X45976Y-32358D01*
X45984Y-32365D01*
X45991Y-32380D01*
X45991Y-32440D01*
X45961Y-32216D02*
X46066Y-32216D01*
X45902Y-32253D02*
X46014Y-32291D01*
X46014Y-32193D01*
X45961Y-32066D02*
X46066Y-32066D01*
X45902Y-32104D02*
X46014Y-32141D01*
X46014Y-32044D01*
X45160Y-47300D02*
X45085Y-47353D01*
X45160Y-47390D02*
X45003Y-47390D01*
X45003Y-47330D01*
X45011Y-47315D01*
X45018Y-47308D01*
X45033Y-47300D01*
X45055Y-47300D01*
X45070Y-47308D01*
X45078Y-47315D01*
X45085Y-47330D01*
X45085Y-47390D01*
X45003Y-47248D02*
X45003Y-47151D01*
X45063Y-47203D01*
X45063Y-47181D01*
X45070Y-47166D01*
X45078Y-47158D01*
X45093Y-47151D01*
X45130Y-47151D01*
X45145Y-47158D01*
X45153Y-47166D01*
X45160Y-47181D01*
X45160Y-47226D01*
X45153Y-47241D01*
X45145Y-47248D01*
X45055Y-47016D02*
X45160Y-47016D01*
X44996Y-47054D02*
X45108Y-47091D01*
X45108Y-46994D01*
X50260Y-47650D02*
X50185Y-47703D01*
X50260Y-47740D02*
X50103Y-47740D01*
X50103Y-47680D01*
X50111Y-47665D01*
X50118Y-47658D01*
X50133Y-47650D01*
X50155Y-47650D01*
X50170Y-47658D01*
X50178Y-47665D01*
X50185Y-47680D01*
X50185Y-47740D01*
X50103Y-47598D02*
X50103Y-47501D01*
X50163Y-47553D01*
X50163Y-47531D01*
X50170Y-47516D01*
X50178Y-47508D01*
X50193Y-47501D01*
X50230Y-47501D01*
X50245Y-47508D01*
X50253Y-47516D01*
X50260Y-47531D01*
X50260Y-47576D01*
X50253Y-47591D01*
X50245Y-47598D01*
X50118Y-47441D02*
X50111Y-47434D01*
X50103Y-47419D01*
X50103Y-47381D01*
X50111Y-47366D01*
X50118Y-47359D01*
X50133Y-47351D01*
X50148Y-47351D01*
X50170Y-47359D01*
X50260Y-47449D01*
X50260Y-47351D01*
G54D22*
X53049Y-52729D02*
X53022Y-52692D01*
X53004Y-52729D02*
X53004Y-52650D01*
X53034Y-52650D01*
X53041Y-52654D01*
X53045Y-52658D01*
X53049Y-52666D01*
X53049Y-52677D01*
X53045Y-52684D01*
X53041Y-52688D01*
X53034Y-52692D01*
X53004Y-52692D01*
X53120Y-52650D02*
X53083Y-52650D01*
X53079Y-52688D01*
X53083Y-52684D01*
X53090Y-52681D01*
X53109Y-52681D01*
X53116Y-52684D01*
X53120Y-52688D01*
X53124Y-52696D01*
X53124Y-52714D01*
X53120Y-52722D01*
X53116Y-52726D01*
X53109Y-52729D01*
X53090Y-52729D01*
X53083Y-52726D01*
X53079Y-52722D01*
X53192Y-52650D02*
X53177Y-52650D01*
X53169Y-52654D01*
X53165Y-52658D01*
X53158Y-52669D01*
X53154Y-52684D01*
X53154Y-52714D01*
X53158Y-52722D01*
X53162Y-52726D01*
X53169Y-52729D01*
X53184Y-52729D01*
X53192Y-52726D01*
X53195Y-52722D01*
X53199Y-52714D01*
X53199Y-52696D01*
X53195Y-52688D01*
X53192Y-52684D01*
X53184Y-52681D01*
X53169Y-52681D01*
X53162Y-52684D01*
X53158Y-52688D01*
X53154Y-52696D01*
G54D23*
G54D22*
X44999Y-36829D02*
X44972Y-36792D01*
X44954Y-36829D02*
X44954Y-36750D01*
X44984Y-36750D01*
X44991Y-36754D01*
X44995Y-36758D01*
X44999Y-36766D01*
X44999Y-36777D01*
X44995Y-36784D01*
X44991Y-36788D01*
X44984Y-36792D01*
X44954Y-36792D01*
X45066Y-36777D02*
X45066Y-36829D01*
X45048Y-36747D02*
X45029Y-36803D01*
X45078Y-36803D01*
X45104Y-36758D02*
X45108Y-36754D01*
X45115Y-36750D01*
X45134Y-36750D01*
X45142Y-36754D01*
X45145Y-36758D01*
X45149Y-36766D01*
X45149Y-36773D01*
X45145Y-36784D01*
X45100Y-36829D01*
X45149Y-36829D01*
G54D23*
G54D22*
X43799Y-29333D02*
X43772Y-29296D01*
X43754Y-29333D02*
X43754Y-29254D01*
X43784Y-29254D01*
X43791Y-29258D01*
X43795Y-29262D01*
X43799Y-29270D01*
X43799Y-29281D01*
X43795Y-29288D01*
X43791Y-29292D01*
X43784Y-29296D01*
X43754Y-29296D01*
X43870Y-29254D02*
X43833Y-29254D01*
X43829Y-29292D01*
X43833Y-29288D01*
X43840Y-29285D01*
X43859Y-29285D01*
X43866Y-29288D01*
X43870Y-29292D01*
X43874Y-29300D01*
X43874Y-29318D01*
X43870Y-29326D01*
X43866Y-29330D01*
X43859Y-29333D01*
X43840Y-29333D01*
X43833Y-29330D01*
X43829Y-29326D01*
X43900Y-29254D02*
X43953Y-29254D01*
X43919Y-29333D01*
G54D23*
G54D22*
X64549Y-21283D02*
X64522Y-21246D01*
X64504Y-21283D02*
X64504Y-21204D01*
X64534Y-21204D01*
X64541Y-21208D01*
X64545Y-21212D01*
X64549Y-21220D01*
X64549Y-21231D01*
X64545Y-21238D01*
X64541Y-21242D01*
X64534Y-21246D01*
X64504Y-21246D01*
X64616Y-21204D02*
X64601Y-21204D01*
X64594Y-21208D01*
X64590Y-21212D01*
X64583Y-21223D01*
X64579Y-21238D01*
X64579Y-21268D01*
X64583Y-21276D01*
X64586Y-21280D01*
X64594Y-21283D01*
X64609Y-21283D01*
X64616Y-21280D01*
X64620Y-21276D01*
X64624Y-21268D01*
X64624Y-21250D01*
X64620Y-21242D01*
X64616Y-21238D01*
X64609Y-21235D01*
X64594Y-21235D01*
X64586Y-21238D01*
X64583Y-21242D01*
X64579Y-21250D01*
X64692Y-21204D02*
X64677Y-21204D01*
X64669Y-21208D01*
X64665Y-21212D01*
X64658Y-21223D01*
X64654Y-21238D01*
X64654Y-21268D01*
X64658Y-21276D01*
X64662Y-21280D01*
X64669Y-21283D01*
X64684Y-21283D01*
X64692Y-21280D01*
X64695Y-21276D01*
X64699Y-21268D01*
X64699Y-21250D01*
X64695Y-21242D01*
X64692Y-21238D01*
X64684Y-21235D01*
X64669Y-21235D01*
X64662Y-21238D01*
X64658Y-21242D01*
X64654Y-21250D01*
G54D23*
G54D22*
X41599Y-27479D02*
X41572Y-27442D01*
X41554Y-27479D02*
X41554Y-27400D01*
X41584Y-27400D01*
X41591Y-27404D01*
X41595Y-27408D01*
X41599Y-27416D01*
X41599Y-27427D01*
X41595Y-27434D01*
X41591Y-27438D01*
X41584Y-27442D01*
X41554Y-27442D01*
X41629Y-27408D02*
X41633Y-27404D01*
X41640Y-27400D01*
X41659Y-27400D01*
X41666Y-27404D01*
X41670Y-27408D01*
X41674Y-27416D01*
X41674Y-27423D01*
X41670Y-27434D01*
X41625Y-27479D01*
X41674Y-27479D01*
X41723Y-27400D02*
X41730Y-27400D01*
X41738Y-27404D01*
X41742Y-27408D01*
X41745Y-27416D01*
X41749Y-27431D01*
X41749Y-27449D01*
X41745Y-27464D01*
X41742Y-27472D01*
X41738Y-27476D01*
X41730Y-27479D01*
X41723Y-27479D01*
X41715Y-27476D01*
X41712Y-27472D01*
X41708Y-27464D01*
X41704Y-27449D01*
X41704Y-27431D01*
X41708Y-27416D01*
X41712Y-27408D01*
X41715Y-27404D01*
X41723Y-27400D01*
G54D23*
G54D22*
X35533Y-25350D02*
X35496Y-25377D01*
X35533Y-25395D02*
X35454Y-25395D01*
X35454Y-25365D01*
X35458Y-25358D01*
X35462Y-25354D01*
X35470Y-25350D01*
X35481Y-25350D01*
X35488Y-25354D01*
X35492Y-25358D01*
X35496Y-25365D01*
X35496Y-25395D01*
X35533Y-25275D02*
X35533Y-25320D01*
X35533Y-25298D02*
X35454Y-25298D01*
X35466Y-25305D01*
X35473Y-25313D01*
X35477Y-25320D01*
X35533Y-25237D02*
X35533Y-25222D01*
X35530Y-25215D01*
X35526Y-25211D01*
X35515Y-25204D01*
X35500Y-25200D01*
X35470Y-25200D01*
X35462Y-25204D01*
X35458Y-25207D01*
X35454Y-25215D01*
X35454Y-25230D01*
X35458Y-25237D01*
X35462Y-25241D01*
X35470Y-25245D01*
X35488Y-25245D01*
X35496Y-25241D01*
X35500Y-25237D01*
X35503Y-25230D01*
X35503Y-25215D01*
X35500Y-25207D01*
X35496Y-25204D01*
X35488Y-25200D01*
G54D23*
G54D22*
X35533Y-36750D02*
X35496Y-36777D01*
X35533Y-36795D02*
X35454Y-36795D01*
X35454Y-36765D01*
X35458Y-36758D01*
X35462Y-36754D01*
X35470Y-36750D01*
X35481Y-36750D01*
X35488Y-36754D01*
X35492Y-36758D01*
X35496Y-36765D01*
X35496Y-36795D01*
X35462Y-36720D02*
X35458Y-36716D01*
X35454Y-36709D01*
X35454Y-36690D01*
X35458Y-36683D01*
X35462Y-36679D01*
X35470Y-36675D01*
X35477Y-36675D01*
X35488Y-36679D01*
X35533Y-36724D01*
X35533Y-36675D01*
X35533Y-36600D02*
X35533Y-36645D01*
X35533Y-36622D02*
X35454Y-36622D01*
X35466Y-36630D01*
X35473Y-36637D01*
X35477Y-36645D01*
G54D23*
G54D22*
X37279Y-26250D02*
X37242Y-26277D01*
X37279Y-26295D02*
X37200Y-26295D01*
X37200Y-26265D01*
X37204Y-26258D01*
X37208Y-26254D01*
X37216Y-26250D01*
X37227Y-26250D01*
X37234Y-26254D01*
X37238Y-26258D01*
X37242Y-26265D01*
X37242Y-26295D01*
X37200Y-26183D02*
X37200Y-26198D01*
X37204Y-26205D01*
X37208Y-26209D01*
X37219Y-26216D01*
X37234Y-26220D01*
X37264Y-26220D01*
X37272Y-26216D01*
X37276Y-26213D01*
X37279Y-26205D01*
X37279Y-26190D01*
X37276Y-26183D01*
X37272Y-26179D01*
X37264Y-26175D01*
X37246Y-26175D01*
X37238Y-26179D01*
X37234Y-26183D01*
X37231Y-26190D01*
X37231Y-26205D01*
X37234Y-26213D01*
X37238Y-26216D01*
X37246Y-26220D01*
X37200Y-26104D02*
X37200Y-26141D01*
X37238Y-26145D01*
X37234Y-26141D01*
X37231Y-26134D01*
X37231Y-26115D01*
X37234Y-26107D01*
X37238Y-26104D01*
X37246Y-26100D01*
X37264Y-26100D01*
X37272Y-26104D01*
X37276Y-26107D01*
X37279Y-26115D01*
X37279Y-26134D01*
X37276Y-26141D01*
X37272Y-26145D01*
G54D23*
G54D22*
X38129Y-36750D02*
X38092Y-36777D01*
X38129Y-36795D02*
X38050Y-36795D01*
X38050Y-36765D01*
X38054Y-36758D01*
X38058Y-36754D01*
X38066Y-36750D01*
X38077Y-36750D01*
X38084Y-36754D01*
X38088Y-36758D01*
X38092Y-36765D01*
X38092Y-36795D01*
X38050Y-36683D02*
X38050Y-36698D01*
X38054Y-36705D01*
X38058Y-36709D01*
X38069Y-36716D01*
X38084Y-36720D01*
X38114Y-36720D01*
X38122Y-36716D01*
X38126Y-36713D01*
X38129Y-36705D01*
X38129Y-36690D01*
X38126Y-36683D01*
X38122Y-36679D01*
X38114Y-36675D01*
X38096Y-36675D01*
X38088Y-36679D01*
X38084Y-36683D01*
X38081Y-36690D01*
X38081Y-36705D01*
X38084Y-36713D01*
X38088Y-36716D01*
X38096Y-36720D01*
X38050Y-36649D02*
X38050Y-36596D01*
X38129Y-36630D01*
G54D23*
G54D22*
X38833Y-41550D02*
X38796Y-41577D01*
X38833Y-41595D02*
X38754Y-41595D01*
X38754Y-41565D01*
X38758Y-41558D01*
X38762Y-41554D01*
X38770Y-41550D01*
X38781Y-41550D01*
X38788Y-41554D01*
X38792Y-41558D01*
X38796Y-41565D01*
X38796Y-41595D01*
X38762Y-41520D02*
X38758Y-41516D01*
X38754Y-41509D01*
X38754Y-41490D01*
X38758Y-41483D01*
X38762Y-41479D01*
X38770Y-41475D01*
X38777Y-41475D01*
X38788Y-41479D01*
X38833Y-41524D01*
X38833Y-41475D01*
X38762Y-41445D02*
X38758Y-41441D01*
X38754Y-41434D01*
X38754Y-41415D01*
X38758Y-41407D01*
X38762Y-41404D01*
X38770Y-41400D01*
X38777Y-41400D01*
X38788Y-41404D01*
X38833Y-41449D01*
X38833Y-41400D01*
G54D23*
G54D22*
X44329Y-27300D02*
X44292Y-27327D01*
X44329Y-27345D02*
X44250Y-27345D01*
X44250Y-27315D01*
X44254Y-27308D01*
X44258Y-27304D01*
X44266Y-27300D01*
X44277Y-27300D01*
X44284Y-27304D01*
X44288Y-27308D01*
X44292Y-27315D01*
X44292Y-27345D01*
X44250Y-27274D02*
X44250Y-27221D01*
X44329Y-27255D01*
X44250Y-27199D02*
X44250Y-27146D01*
X44329Y-27180D01*
G54D23*
G54D22*
X41549Y-40633D02*
X41522Y-40596D01*
X41504Y-40633D02*
X41504Y-40554D01*
X41534Y-40554D01*
X41541Y-40558D01*
X41545Y-40562D01*
X41549Y-40570D01*
X41549Y-40581D01*
X41545Y-40588D01*
X41541Y-40592D01*
X41534Y-40596D01*
X41504Y-40596D01*
X41575Y-40554D02*
X41628Y-40554D01*
X41594Y-40633D01*
X41669Y-40588D02*
X41662Y-40585D01*
X41658Y-40581D01*
X41654Y-40573D01*
X41654Y-40570D01*
X41658Y-40562D01*
X41662Y-40558D01*
X41669Y-40554D01*
X41684Y-40554D01*
X41692Y-40558D01*
X41695Y-40562D01*
X41699Y-40570D01*
X41699Y-40573D01*
X41695Y-40581D01*
X41692Y-40585D01*
X41684Y-40588D01*
X41669Y-40588D01*
X41662Y-40592D01*
X41658Y-40596D01*
X41654Y-40603D01*
X41654Y-40618D01*
X41658Y-40626D01*
X41662Y-40630D01*
X41669Y-40633D01*
X41684Y-40633D01*
X41692Y-40630D01*
X41695Y-40626D01*
X41699Y-40618D01*
X41699Y-40603D01*
X41695Y-40596D01*
X41692Y-40592D01*
X41684Y-40588D01*
G54D23*
G54D22*
X38833Y-40050D02*
X38796Y-40077D01*
X38833Y-40095D02*
X38754Y-40095D01*
X38754Y-40065D01*
X38758Y-40058D01*
X38762Y-40054D01*
X38770Y-40050D01*
X38781Y-40050D01*
X38788Y-40054D01*
X38792Y-40058D01*
X38796Y-40065D01*
X38796Y-40095D01*
X38762Y-40020D02*
X38758Y-40016D01*
X38754Y-40009D01*
X38754Y-39990D01*
X38758Y-39983D01*
X38762Y-39979D01*
X38770Y-39975D01*
X38777Y-39975D01*
X38788Y-39979D01*
X38833Y-40024D01*
X38833Y-39975D01*
X38754Y-39949D02*
X38754Y-39900D01*
X38785Y-39926D01*
X38785Y-39915D01*
X38788Y-39907D01*
X38792Y-39904D01*
X38800Y-39900D01*
X38818Y-39900D01*
X38826Y-39904D01*
X38830Y-39907D01*
X38833Y-39915D01*
X38833Y-39937D01*
X38830Y-39945D01*
X38826Y-39949D01*
G54D23*
G54D22*
X47683Y-41450D02*
X47646Y-41477D01*
X47683Y-41495D02*
X47604Y-41495D01*
X47604Y-41465D01*
X47608Y-41458D01*
X47612Y-41454D01*
X47620Y-41450D01*
X47631Y-41450D01*
X47638Y-41454D01*
X47642Y-41458D01*
X47646Y-41465D01*
X47646Y-41495D01*
X47604Y-41424D02*
X47604Y-41375D01*
X47635Y-41401D01*
X47635Y-41390D01*
X47638Y-41383D01*
X47642Y-41379D01*
X47650Y-41375D01*
X47668Y-41375D01*
X47676Y-41379D01*
X47680Y-41383D01*
X47683Y-41390D01*
X47683Y-41413D01*
X47680Y-41420D01*
X47676Y-41424D01*
X47604Y-41326D02*
X47604Y-41319D01*
X47608Y-41311D01*
X47612Y-41307D01*
X47620Y-41304D01*
X47635Y-41300D01*
X47653Y-41300D01*
X47668Y-41304D01*
X47676Y-41307D01*
X47680Y-41311D01*
X47683Y-41319D01*
X47683Y-41326D01*
X47680Y-41334D01*
X47676Y-41337D01*
X47668Y-41341D01*
X47653Y-41345D01*
X47635Y-41345D01*
X47620Y-41341D01*
X47612Y-41337D01*
X47608Y-41334D01*
X47604Y-41326D01*
G54D23*
G54D22*
X47129Y-41450D02*
X47092Y-41477D01*
X47129Y-41495D02*
X47050Y-41495D01*
X47050Y-41465D01*
X47054Y-41458D01*
X47058Y-41454D01*
X47066Y-41450D01*
X47077Y-41450D01*
X47084Y-41454D01*
X47088Y-41458D01*
X47092Y-41465D01*
X47092Y-41495D01*
X47058Y-41420D02*
X47054Y-41416D01*
X47050Y-41409D01*
X47050Y-41390D01*
X47054Y-41383D01*
X47058Y-41379D01*
X47066Y-41375D01*
X47073Y-41375D01*
X47084Y-41379D01*
X47129Y-41424D01*
X47129Y-41375D01*
X47050Y-41349D02*
X47050Y-41296D01*
X47129Y-41330D01*
G54D23*
G54D22*
X50679Y-45500D02*
X50642Y-45527D01*
X50679Y-45545D02*
X50600Y-45545D01*
X50600Y-45515D01*
X50604Y-45508D01*
X50608Y-45504D01*
X50616Y-45500D01*
X50627Y-45500D01*
X50634Y-45504D01*
X50638Y-45508D01*
X50642Y-45515D01*
X50642Y-45545D01*
X50608Y-45470D02*
X50604Y-45466D01*
X50600Y-45459D01*
X50600Y-45440D01*
X50604Y-45433D01*
X50608Y-45429D01*
X50616Y-45425D01*
X50623Y-45425D01*
X50634Y-45429D01*
X50679Y-45474D01*
X50679Y-45425D01*
X50600Y-45357D02*
X50600Y-45372D01*
X50604Y-45380D01*
X50608Y-45384D01*
X50619Y-45391D01*
X50634Y-45395D01*
X50664Y-45395D01*
X50672Y-45391D01*
X50676Y-45387D01*
X50679Y-45380D01*
X50679Y-45365D01*
X50676Y-45357D01*
X50672Y-45354D01*
X50664Y-45350D01*
X50646Y-45350D01*
X50638Y-45354D01*
X50634Y-45357D01*
X50631Y-45365D01*
X50631Y-45380D01*
X50634Y-45387D01*
X50638Y-45391D01*
X50646Y-45395D01*
G54D23*
G54D22*
X45429Y-31950D02*
X45392Y-31977D01*
X45429Y-31995D02*
X45350Y-31995D01*
X45350Y-31965D01*
X45354Y-31958D01*
X45358Y-31954D01*
X45366Y-31950D01*
X45377Y-31950D01*
X45384Y-31954D01*
X45388Y-31958D01*
X45392Y-31965D01*
X45392Y-31995D01*
X45350Y-31924D02*
X45350Y-31875D01*
X45381Y-31901D01*
X45381Y-31890D01*
X45384Y-31883D01*
X45388Y-31879D01*
X45396Y-31875D01*
X45414Y-31875D01*
X45422Y-31879D01*
X45426Y-31883D01*
X45429Y-31890D01*
X45429Y-31913D01*
X45426Y-31920D01*
X45422Y-31924D01*
X45384Y-31830D02*
X45381Y-31837D01*
X45377Y-31841D01*
X45369Y-31845D01*
X45366Y-31845D01*
X45358Y-31841D01*
X45354Y-31837D01*
X45350Y-31830D01*
X45350Y-31815D01*
X45354Y-31807D01*
X45358Y-31804D01*
X45366Y-31800D01*
X45369Y-31800D01*
X45377Y-31804D01*
X45381Y-31807D01*
X45384Y-31815D01*
X45384Y-31830D01*
X45388Y-31837D01*
X45392Y-31841D01*
X45399Y-31845D01*
X45414Y-31845D01*
X45422Y-31841D01*
X45426Y-31837D01*
X45429Y-31830D01*
X45429Y-31815D01*
X45426Y-31807D01*
X45422Y-31804D01*
X45414Y-31800D01*
X45399Y-31800D01*
X45392Y-31804D01*
X45388Y-31807D01*
X45384Y-31815D01*
G54D23*
G54D22*
X45199Y-37333D02*
X45172Y-37296D01*
X45154Y-37333D02*
X45154Y-37254D01*
X45184Y-37254D01*
X45191Y-37258D01*
X45195Y-37262D01*
X45199Y-37270D01*
X45199Y-37281D01*
X45195Y-37288D01*
X45191Y-37292D01*
X45184Y-37296D01*
X45154Y-37296D01*
X45225Y-37254D02*
X45274Y-37254D01*
X45248Y-37285D01*
X45259Y-37285D01*
X45266Y-37288D01*
X45270Y-37292D01*
X45274Y-37300D01*
X45274Y-37318D01*
X45270Y-37326D01*
X45266Y-37330D01*
X45259Y-37333D01*
X45236Y-37333D01*
X45229Y-37330D01*
X45225Y-37326D01*
X45312Y-37333D02*
X45327Y-37333D01*
X45334Y-37330D01*
X45338Y-37326D01*
X45345Y-37315D01*
X45349Y-37300D01*
X45349Y-37270D01*
X45345Y-37262D01*
X45342Y-37258D01*
X45334Y-37254D01*
X45319Y-37254D01*
X45312Y-37258D01*
X45308Y-37262D01*
X45304Y-37270D01*
X45304Y-37288D01*
X45308Y-37296D01*
X45312Y-37300D01*
X45319Y-37303D01*
X45334Y-37303D01*
X45342Y-37300D01*
X45345Y-37296D01*
X45349Y-37288D01*
G54D23*
G54D22*
X42899Y-27479D02*
X42872Y-27442D01*
X42854Y-27479D02*
X42854Y-27400D01*
X42884Y-27400D01*
X42891Y-27404D01*
X42895Y-27408D01*
X42899Y-27416D01*
X42899Y-27427D01*
X42895Y-27434D01*
X42891Y-27438D01*
X42884Y-27442D01*
X42854Y-27442D01*
X42974Y-27479D02*
X42929Y-27479D01*
X42951Y-27479D02*
X42951Y-27400D01*
X42944Y-27412D01*
X42936Y-27419D01*
X42929Y-27423D01*
X43019Y-27434D02*
X43012Y-27431D01*
X43008Y-27427D01*
X43004Y-27419D01*
X43004Y-27416D01*
X43008Y-27408D01*
X43012Y-27404D01*
X43019Y-27400D01*
X43034Y-27400D01*
X43042Y-27404D01*
X43045Y-27408D01*
X43049Y-27416D01*
X43049Y-27419D01*
X43045Y-27427D01*
X43042Y-27431D01*
X43034Y-27434D01*
X43019Y-27434D01*
X43012Y-27438D01*
X43008Y-27442D01*
X43004Y-27449D01*
X43004Y-27464D01*
X43008Y-27472D01*
X43012Y-27476D01*
X43019Y-27479D01*
X43034Y-27479D01*
X43042Y-27476D01*
X43045Y-27472D01*
X43049Y-27464D01*
X43049Y-27449D01*
X43045Y-27442D01*
X43042Y-27438D01*
X43034Y-27434D01*
G54D23*
G54D22*
X43849Y-30883D02*
X43822Y-30846D01*
X43804Y-30883D02*
X43804Y-30804D01*
X43834Y-30804D01*
X43841Y-30808D01*
X43845Y-30812D01*
X43849Y-30820D01*
X43849Y-30831D01*
X43845Y-30838D01*
X43841Y-30842D01*
X43834Y-30846D01*
X43804Y-30846D01*
X43916Y-30804D02*
X43901Y-30804D01*
X43894Y-30808D01*
X43890Y-30812D01*
X43883Y-30823D01*
X43879Y-30838D01*
X43879Y-30868D01*
X43883Y-30876D01*
X43886Y-30880D01*
X43894Y-30883D01*
X43909Y-30883D01*
X43916Y-30880D01*
X43920Y-30876D01*
X43924Y-30868D01*
X43924Y-30850D01*
X43920Y-30842D01*
X43916Y-30838D01*
X43909Y-30835D01*
X43894Y-30835D01*
X43886Y-30838D01*
X43883Y-30842D01*
X43879Y-30850D01*
X43962Y-30883D02*
X43977Y-30883D01*
X43984Y-30880D01*
X43988Y-30876D01*
X43995Y-30865D01*
X43999Y-30850D01*
X43999Y-30820D01*
X43995Y-30812D01*
X43992Y-30808D01*
X43984Y-30804D01*
X43969Y-30804D01*
X43962Y-30808D01*
X43958Y-30812D01*
X43954Y-30820D01*
X43954Y-30838D01*
X43958Y-30846D01*
X43962Y-30850D01*
X43969Y-30853D01*
X43984Y-30853D01*
X43992Y-30850D01*
X43995Y-30846D01*
X43999Y-30838D01*
G54D23*
G54D22*
X53181Y-51250D02*
X53144Y-51277D01*
X53181Y-51295D02*
X53102Y-51295D01*
X53102Y-51265D01*
X53106Y-51258D01*
X53110Y-51254D01*
X53118Y-51250D01*
X53129Y-51250D01*
X53136Y-51254D01*
X53140Y-51258D01*
X53144Y-51265D01*
X53144Y-51295D01*
X53102Y-51224D02*
X53102Y-51171D01*
X53181Y-51205D01*
X53110Y-51145D02*
X53106Y-51141D01*
X53102Y-51134D01*
X53102Y-51115D01*
X53106Y-51107D01*
X53110Y-51104D01*
X53118Y-51100D01*
X53125Y-51100D01*
X53136Y-51104D01*
X53181Y-51149D01*
X53181Y-51100D01*
G54D23*
G54D22*
X63283Y-26250D02*
X63246Y-26277D01*
X63283Y-26295D02*
X63204Y-26295D01*
X63204Y-26265D01*
X63208Y-26258D01*
X63212Y-26254D01*
X63220Y-26250D01*
X63231Y-26250D01*
X63238Y-26254D01*
X63242Y-26258D01*
X63246Y-26265D01*
X63246Y-26295D01*
X63204Y-26224D02*
X63204Y-26175D01*
X63235Y-26201D01*
X63235Y-26190D01*
X63238Y-26183D01*
X63242Y-26179D01*
X63250Y-26175D01*
X63268Y-26175D01*
X63276Y-26179D01*
X63280Y-26183D01*
X63283Y-26190D01*
X63283Y-26213D01*
X63280Y-26220D01*
X63276Y-26224D01*
X63204Y-26149D02*
X63204Y-26096D01*
X63283Y-26130D01*
G54D23*
G54D16*
X39475Y-48886D02*
X39761Y-48886D01*
X39818Y-48905D01*
X39856Y-48943D01*
X39875Y-49001D01*
X39875Y-49039D01*
X39875Y-48486D02*
X39875Y-48715D01*
X39875Y-48601D02*
X39475Y-48601D01*
X39533Y-48639D01*
X39571Y-48677D01*
X39590Y-48715D01*
X39475Y-48124D02*
X39475Y-48315D01*
X39666Y-48334D01*
X39647Y-48315D01*
X39628Y-48277D01*
X39628Y-48182D01*
X39647Y-48143D01*
X39666Y-48124D01*
X39704Y-48105D01*
X39799Y-48105D01*
X39837Y-48124D01*
X39856Y-48143D01*
X39875Y-48182D01*
X39875Y-48277D01*
X39856Y-48315D01*
X39837Y-48334D01*
X39764Y-47196D02*
X39764Y-47063D01*
X39973Y-47006D02*
X39973Y-47196D01*
X39573Y-47196D01*
X39573Y-47006D01*
X39573Y-46758D02*
X39573Y-46720D01*
X39592Y-46682D01*
X39612Y-46663D01*
X39650Y-46644D01*
X39726Y-46625D01*
X39821Y-46625D01*
X39897Y-46644D01*
X39935Y-46663D01*
X39954Y-46682D01*
X39973Y-46720D01*
X39973Y-46758D01*
X39954Y-46796D01*
X39935Y-46815D01*
X39897Y-46835D01*
X39821Y-46854D01*
X39726Y-46854D01*
X39650Y-46835D01*
X39612Y-46815D01*
X39592Y-46796D01*
X39573Y-46758D01*
X39973Y-46149D02*
X39573Y-46149D01*
X39859Y-46016D01*
X39573Y-45882D01*
X39973Y-45882D01*
X39573Y-45615D02*
X39573Y-45539D01*
X39592Y-45501D01*
X39631Y-45463D01*
X39707Y-45444D01*
X39840Y-45444D01*
X39916Y-45463D01*
X39954Y-45501D01*
X39973Y-45539D01*
X39973Y-45615D01*
X39954Y-45654D01*
X39916Y-45692D01*
X39840Y-45711D01*
X39707Y-45711D01*
X39631Y-45692D01*
X39592Y-45654D01*
X39573Y-45615D01*
X39573Y-45330D02*
X39573Y-45101D01*
X39973Y-45215D02*
X39573Y-45215D01*
X39554Y-44682D02*
X40069Y-45025D01*
X39954Y-44568D02*
X39973Y-44511D01*
X39973Y-44416D01*
X39954Y-44377D01*
X39935Y-44358D01*
X39897Y-44339D01*
X39859Y-44339D01*
X39821Y-44358D01*
X39802Y-44377D01*
X39783Y-44416D01*
X39764Y-44492D01*
X39745Y-44530D01*
X39726Y-44549D01*
X39688Y-44568D01*
X39650Y-44568D01*
X39612Y-44549D01*
X39592Y-44530D01*
X39573Y-44492D01*
X39573Y-44396D01*
X39592Y-44339D01*
X39573Y-44225D02*
X39573Y-43996D01*
X39973Y-44111D02*
X39573Y-44111D01*
X39573Y-43787D02*
X39573Y-43711D01*
X39592Y-43673D01*
X39631Y-43635D01*
X39707Y-43616D01*
X39840Y-43616D01*
X39916Y-43635D01*
X39954Y-43673D01*
X39973Y-43711D01*
X39973Y-43787D01*
X39954Y-43825D01*
X39916Y-43863D01*
X39840Y-43882D01*
X39707Y-43882D01*
X39631Y-43863D01*
X39592Y-43825D01*
X39573Y-43787D01*
X39973Y-43444D02*
X39573Y-43444D01*
X39573Y-43292D01*
X39592Y-43254D01*
X39612Y-43235D01*
X39650Y-43216D01*
X39707Y-43216D01*
X39745Y-43235D01*
X39764Y-43254D01*
X39783Y-43292D01*
X39783Y-43444D01*
X31761Y-46473D02*
X32047Y-46473D01*
X32104Y-46492D01*
X32142Y-46530D01*
X32161Y-46588D01*
X32161Y-46626D01*
X32161Y-46073D02*
X32161Y-46302D01*
X32161Y-46188D02*
X31761Y-46188D01*
X31819Y-46226D01*
X31857Y-46264D01*
X31876Y-46302D01*
X31895Y-45730D02*
X32161Y-45730D01*
X31742Y-45826D02*
X32028Y-45921D01*
X32028Y-45673D01*
X33702Y-48330D02*
X33702Y-48197D01*
X33911Y-48140D02*
X33911Y-48330D01*
X33511Y-48330D01*
X33511Y-48140D01*
X33511Y-47892D02*
X33511Y-47854D01*
X33530Y-47816D01*
X33550Y-47797D01*
X33588Y-47778D01*
X33664Y-47759D01*
X33759Y-47759D01*
X33835Y-47778D01*
X33873Y-47797D01*
X33892Y-47816D01*
X33911Y-47854D01*
X33911Y-47892D01*
X33892Y-47930D01*
X33873Y-47949D01*
X33835Y-47969D01*
X33759Y-47988D01*
X33664Y-47988D01*
X33588Y-47969D01*
X33550Y-47949D01*
X33530Y-47930D01*
X33511Y-47892D01*
X33911Y-47283D02*
X33511Y-47283D01*
X33797Y-47150D01*
X33511Y-47016D01*
X33911Y-47016D01*
X33511Y-46749D02*
X33511Y-46673D01*
X33530Y-46635D01*
X33569Y-46597D01*
X33645Y-46578D01*
X33778Y-46578D01*
X33854Y-46597D01*
X33892Y-46635D01*
X33911Y-46673D01*
X33911Y-46749D01*
X33892Y-46788D01*
X33854Y-46826D01*
X33778Y-46845D01*
X33645Y-46845D01*
X33569Y-46826D01*
X33530Y-46788D01*
X33511Y-46749D01*
X33511Y-46464D02*
X33511Y-46235D01*
X33911Y-46349D02*
X33511Y-46349D01*
X33492Y-45816D02*
X34007Y-46159D01*
X33892Y-45702D02*
X33911Y-45645D01*
X33911Y-45550D01*
X33892Y-45511D01*
X33873Y-45492D01*
X33835Y-45473D01*
X33797Y-45473D01*
X33759Y-45492D01*
X33740Y-45511D01*
X33721Y-45550D01*
X33702Y-45626D01*
X33683Y-45664D01*
X33664Y-45683D01*
X33626Y-45702D01*
X33588Y-45702D01*
X33550Y-45683D01*
X33530Y-45664D01*
X33511Y-45626D01*
X33511Y-45530D01*
X33530Y-45473D01*
X33511Y-45359D02*
X33511Y-45130D01*
X33911Y-45245D02*
X33511Y-45245D01*
X33511Y-44921D02*
X33511Y-44845D01*
X33530Y-44807D01*
X33569Y-44769D01*
X33645Y-44750D01*
X33778Y-44750D01*
X33854Y-44769D01*
X33892Y-44807D01*
X33911Y-44845D01*
X33911Y-44921D01*
X33892Y-44959D01*
X33854Y-44997D01*
X33778Y-45016D01*
X33645Y-45016D01*
X33569Y-44997D01*
X33530Y-44959D01*
X33511Y-44921D01*
X33911Y-44578D02*
X33511Y-44578D01*
X33511Y-44426D01*
X33530Y-44388D01*
X33550Y-44369D01*
X33588Y-44350D01*
X33645Y-44350D01*
X33683Y-44369D01*
X33702Y-44388D01*
X33721Y-44426D01*
X33721Y-44578D01*
X51666Y-52543D02*
X51666Y-52828D01*
X51647Y-52885D01*
X51609Y-52923D01*
X51552Y-52943D01*
X51514Y-52943D01*
X51876Y-52943D02*
X51952Y-52943D01*
X51990Y-52923D01*
X52009Y-52904D01*
X52047Y-52847D01*
X52066Y-52771D01*
X52066Y-52619D01*
X52047Y-52581D01*
X52028Y-52562D01*
X51990Y-52543D01*
X51914Y-52543D01*
X51876Y-52562D01*
X51857Y-52581D01*
X51838Y-52619D01*
X51838Y-52714D01*
X51857Y-52752D01*
X51876Y-52771D01*
X51914Y-52790D01*
X51990Y-52790D01*
X52028Y-52771D01*
X52047Y-52752D01*
X52066Y-52714D01*
X45169Y-52802D02*
X45302Y-52802D01*
X45359Y-53011D02*
X45169Y-53011D01*
X45169Y-52611D01*
X45359Y-52611D01*
X45740Y-53011D02*
X45511Y-53011D01*
X45626Y-53011D02*
X45626Y-52611D01*
X45588Y-52669D01*
X45550Y-52707D01*
X45511Y-52726D01*
X46216Y-53011D02*
X46216Y-52611D01*
X46350Y-52897D01*
X46483Y-52611D01*
X46483Y-53011D01*
X46750Y-52611D02*
X46826Y-52611D01*
X46864Y-52630D01*
X46902Y-52669D01*
X46921Y-52745D01*
X46921Y-52878D01*
X46902Y-52954D01*
X46864Y-52992D01*
X46826Y-53011D01*
X46750Y-53011D01*
X46711Y-52992D01*
X46673Y-52954D01*
X46654Y-52878D01*
X46654Y-52745D01*
X46673Y-52669D01*
X46711Y-52630D01*
X46750Y-52611D01*
X47035Y-52611D02*
X47264Y-52611D01*
X47150Y-53011D02*
X47150Y-52611D01*
X47683Y-52592D02*
X47340Y-53107D01*
X47797Y-52992D02*
X47854Y-53011D01*
X47950Y-53011D01*
X47988Y-52992D01*
X48007Y-52973D01*
X48026Y-52935D01*
X48026Y-52897D01*
X48007Y-52859D01*
X47988Y-52840D01*
X47950Y-52821D01*
X47873Y-52802D01*
X47835Y-52783D01*
X47816Y-52764D01*
X47797Y-52726D01*
X47797Y-52688D01*
X47816Y-52650D01*
X47835Y-52630D01*
X47873Y-52611D01*
X47969Y-52611D01*
X48026Y-52630D01*
X48140Y-52611D02*
X48369Y-52611D01*
X48254Y-53011D02*
X48254Y-52611D01*
X48578Y-52611D02*
X48654Y-52611D01*
X48692Y-52630D01*
X48730Y-52669D01*
X48750Y-52745D01*
X48750Y-52878D01*
X48730Y-52954D01*
X48692Y-52992D01*
X48654Y-53011D01*
X48578Y-53011D01*
X48540Y-52992D01*
X48502Y-52954D01*
X48483Y-52878D01*
X48483Y-52745D01*
X48502Y-52669D01*
X48540Y-52630D01*
X48578Y-52611D01*
X48921Y-53011D02*
X48921Y-52611D01*
X49073Y-52611D01*
X49111Y-52630D01*
X49130Y-52650D01*
X49150Y-52688D01*
X49150Y-52745D01*
X49130Y-52783D01*
X49111Y-52802D01*
X49073Y-52821D01*
X48921Y-52821D01*
X45366Y-28061D02*
X45366Y-28347D01*
X45347Y-28404D01*
X45309Y-28442D01*
X45252Y-28461D01*
X45214Y-28461D01*
X45614Y-28233D02*
X45576Y-28214D01*
X45557Y-28195D01*
X45538Y-28157D01*
X45538Y-28138D01*
X45557Y-28100D01*
X45576Y-28080D01*
X45614Y-28061D01*
X45690Y-28061D01*
X45728Y-28080D01*
X45747Y-28100D01*
X45766Y-28138D01*
X45766Y-28157D01*
X45747Y-28195D01*
X45728Y-28214D01*
X45690Y-28233D01*
X45614Y-28233D01*
X45576Y-28252D01*
X45557Y-28271D01*
X45538Y-28309D01*
X45538Y-28385D01*
X45557Y-28423D01*
X45576Y-28442D01*
X45614Y-28461D01*
X45690Y-28461D01*
X45728Y-28442D01*
X45747Y-28423D01*
X45766Y-28385D01*
X45766Y-28309D01*
X45747Y-28271D01*
X45728Y-28252D01*
X45690Y-28233D01*
X48269Y-28252D02*
X48402Y-28252D01*
X48459Y-28461D02*
X48269Y-28461D01*
X48269Y-28061D01*
X48459Y-28061D01*
X48611Y-28100D02*
X48630Y-28080D01*
X48669Y-28061D01*
X48764Y-28061D01*
X48802Y-28080D01*
X48821Y-28100D01*
X48840Y-28138D01*
X48840Y-28176D01*
X48821Y-28233D01*
X48592Y-28461D01*
X48840Y-28461D01*
X49316Y-28461D02*
X49316Y-28061D01*
X49450Y-28347D01*
X49583Y-28061D01*
X49583Y-28461D01*
X49850Y-28061D02*
X49926Y-28061D01*
X49964Y-28080D01*
X50002Y-28119D01*
X50021Y-28195D01*
X50021Y-28328D01*
X50002Y-28404D01*
X49964Y-28442D01*
X49926Y-28461D01*
X49850Y-28461D01*
X49811Y-28442D01*
X49773Y-28404D01*
X49754Y-28328D01*
X49754Y-28195D01*
X49773Y-28119D01*
X49811Y-28080D01*
X49850Y-28061D01*
X50135Y-28061D02*
X50364Y-28061D01*
X50250Y-28461D02*
X50250Y-28061D01*
X50783Y-28042D02*
X50440Y-28557D01*
X50897Y-28442D02*
X50954Y-28461D01*
X51050Y-28461D01*
X51088Y-28442D01*
X51107Y-28423D01*
X51126Y-28385D01*
X51126Y-28347D01*
X51107Y-28309D01*
X51088Y-28290D01*
X51050Y-28271D01*
X50973Y-28252D01*
X50935Y-28233D01*
X50916Y-28214D01*
X50897Y-28176D01*
X50897Y-28138D01*
X50916Y-28100D01*
X50935Y-28080D01*
X50973Y-28061D01*
X51069Y-28061D01*
X51126Y-28080D01*
X51240Y-28061D02*
X51469Y-28061D01*
X51354Y-28461D02*
X51354Y-28061D01*
X51678Y-28061D02*
X51754Y-28061D01*
X51792Y-28080D01*
X51830Y-28119D01*
X51850Y-28195D01*
X51850Y-28328D01*
X51830Y-28404D01*
X51792Y-28442D01*
X51754Y-28461D01*
X51678Y-28461D01*
X51640Y-28442D01*
X51602Y-28404D01*
X51583Y-28328D01*
X51583Y-28195D01*
X51602Y-28119D01*
X51640Y-28080D01*
X51678Y-28061D01*
X52021Y-28461D02*
X52021Y-28061D01*
X52173Y-28061D01*
X52211Y-28080D01*
X52230Y-28100D01*
X52250Y-28138D01*
X52250Y-28195D01*
X52230Y-28233D01*
X52211Y-28252D01*
X52173Y-28271D01*
X52021Y-28271D01*
X40176Y-20711D02*
X40176Y-20997D01*
X40157Y-21054D01*
X40119Y-21092D01*
X40061Y-21111D01*
X40023Y-21111D01*
X40576Y-21111D02*
X40347Y-21111D01*
X40461Y-21111D02*
X40461Y-20711D01*
X40423Y-20769D01*
X40385Y-20807D01*
X40347Y-20826D01*
X40728Y-20750D02*
X40747Y-20730D01*
X40785Y-20711D01*
X40880Y-20711D01*
X40919Y-20730D01*
X40938Y-20750D01*
X40957Y-20788D01*
X40957Y-20826D01*
X40938Y-20883D01*
X40709Y-21111D01*
X40957Y-21111D01*
X35411Y-20902D02*
X35545Y-20902D01*
X35602Y-21111D02*
X35411Y-21111D01*
X35411Y-20711D01*
X35602Y-20711D01*
X35983Y-21111D02*
X35754Y-21111D01*
X35869Y-21111D02*
X35869Y-20711D01*
X35830Y-20769D01*
X35792Y-20807D01*
X35754Y-20826D01*
X36459Y-21111D02*
X36459Y-20711D01*
X36459Y-20902D02*
X36688Y-20902D01*
X36688Y-21111D02*
X36688Y-20711D01*
X37202Y-21111D02*
X37183Y-21111D01*
X37145Y-21092D01*
X37088Y-21035D01*
X36992Y-20921D01*
X36954Y-20864D01*
X36935Y-20807D01*
X36935Y-20769D01*
X36954Y-20730D01*
X36992Y-20711D01*
X37011Y-20711D01*
X37050Y-20730D01*
X37069Y-20769D01*
X37069Y-20788D01*
X37050Y-20826D01*
X37030Y-20845D01*
X36916Y-20921D01*
X36897Y-20940D01*
X36878Y-20978D01*
X36878Y-21035D01*
X36897Y-21073D01*
X36916Y-21092D01*
X36954Y-21111D01*
X37011Y-21111D01*
X37050Y-21092D01*
X37069Y-21073D01*
X37126Y-20997D01*
X37145Y-20940D01*
X37145Y-20902D01*
X37316Y-20711D02*
X37545Y-20711D01*
X37430Y-21111D02*
X37430Y-20711D01*
G54D21*
X65961Y-52395D02*
X65561Y-52395D01*
X65561Y-52242D01*
X65580Y-52204D01*
X65600Y-52185D01*
X65638Y-52166D01*
X65695Y-52166D01*
X65733Y-52185D01*
X65752Y-52204D01*
X65771Y-52242D01*
X65771Y-52395D01*
X65961Y-51785D02*
X65961Y-52014D01*
X65961Y-51899D02*
X65561Y-51899D01*
X65619Y-51938D01*
X65657Y-51976D01*
X65676Y-52014D01*
X68316Y-51734D02*
X68602Y-51734D01*
X68659Y-51753D01*
X68697Y-51791D01*
X68716Y-51849D01*
X68716Y-51887D01*
X68355Y-51563D02*
X68335Y-51544D01*
X68316Y-51506D01*
X68316Y-51411D01*
X68335Y-51372D01*
X68355Y-51353D01*
X68393Y-51334D01*
X68431Y-51334D01*
X68488Y-51353D01*
X68716Y-51582D01*
X68716Y-51334D01*
X68488Y-51106D02*
X68469Y-51144D01*
X68450Y-51163D01*
X68412Y-51182D01*
X68393Y-51182D01*
X68355Y-51163D01*
X68335Y-51144D01*
X68316Y-51106D01*
X68316Y-51030D01*
X68335Y-50991D01*
X68355Y-50972D01*
X68393Y-50953D01*
X68412Y-50953D01*
X68450Y-50972D01*
X68469Y-50991D01*
X68488Y-51030D01*
X68488Y-51106D01*
X68507Y-51144D01*
X68526Y-51163D01*
X68564Y-51182D01*
X68640Y-51182D01*
X68678Y-51163D01*
X68697Y-51144D01*
X68716Y-51106D01*
X68716Y-51030D01*
X68697Y-50991D01*
X68678Y-50972D01*
X68640Y-50953D01*
X68564Y-50953D01*
X68526Y-50972D01*
X68507Y-50991D01*
X68488Y-51030D01*
G54D16*
X33571Y-58992D02*
X33785Y-58992D01*
X33828Y-59007D01*
X33857Y-59035D01*
X33871Y-59078D01*
X33871Y-59107D01*
X33871Y-58692D02*
X33871Y-58864D01*
X33871Y-58778D02*
X33571Y-58778D01*
X33614Y-58807D01*
X33642Y-58835D01*
X33657Y-58864D01*
X33571Y-58592D02*
X33571Y-58407D01*
X33685Y-58507D01*
X33685Y-58464D01*
X33700Y-58435D01*
X33714Y-58421D01*
X33742Y-58407D01*
X33814Y-58407D01*
X33842Y-58421D01*
X33857Y-58435D01*
X33871Y-58464D01*
X33871Y-58550D01*
X33857Y-58578D01*
X33842Y-58592D01*
X68321Y-47149D02*
X68535Y-47149D01*
X68578Y-47164D01*
X68607Y-47192D01*
X68621Y-47235D01*
X68621Y-47264D01*
X68421Y-46878D02*
X68621Y-46878D01*
X68307Y-46950D02*
X68521Y-47021D01*
X68521Y-46835D01*
G54D18*
X67674Y-31629D02*
X67960Y-31629D01*
X68017Y-31648D01*
X68055Y-31686D01*
X68074Y-31743D01*
X68074Y-31781D01*
X68074Y-31229D02*
X68074Y-31457D01*
X68074Y-31343D02*
X67674Y-31343D01*
X67732Y-31381D01*
X67770Y-31419D01*
X67789Y-31457D01*
G54D21*
X67964Y-35616D02*
X67964Y-35483D01*
X68173Y-35426D02*
X68173Y-35616D01*
X67773Y-35616D01*
X67773Y-35426D01*
X67773Y-35293D02*
X68173Y-35026D01*
X67773Y-35026D02*
X68173Y-35293D01*
X68173Y-34874D02*
X67773Y-34874D01*
X67773Y-34721D01*
X67792Y-34683D01*
X67812Y-34664D01*
X67850Y-34645D01*
X67907Y-34645D01*
X67945Y-34664D01*
X67964Y-34683D01*
X67983Y-34721D01*
X67983Y-34874D01*
X68059Y-34493D02*
X68059Y-34302D01*
X68173Y-34531D02*
X67773Y-34397D01*
X68173Y-34264D01*
X68173Y-34131D02*
X67773Y-34131D01*
X68173Y-33902D01*
X67773Y-33902D01*
X68154Y-33731D02*
X68173Y-33674D01*
X68173Y-33578D01*
X68154Y-33540D01*
X68135Y-33521D01*
X68097Y-33502D01*
X68059Y-33502D01*
X68021Y-33521D01*
X68002Y-33540D01*
X67983Y-33578D01*
X67964Y-33655D01*
X67945Y-33693D01*
X67926Y-33712D01*
X67888Y-33731D01*
X67850Y-33731D01*
X67812Y-33712D01*
X67792Y-33693D01*
X67773Y-33655D01*
X67773Y-33559D01*
X67792Y-33502D01*
X68173Y-33331D02*
X67773Y-33331D01*
X67773Y-33064D02*
X67773Y-32988D01*
X67792Y-32950D01*
X67831Y-32912D01*
X67907Y-32893D01*
X68040Y-32893D01*
X68116Y-32912D01*
X68154Y-32950D01*
X68173Y-32988D01*
X68173Y-33064D01*
X68154Y-33102D01*
X68116Y-33140D01*
X68040Y-33159D01*
X67907Y-33159D01*
X67831Y-33140D01*
X67792Y-33102D01*
X67773Y-33064D01*
X68173Y-32721D02*
X67773Y-32721D01*
X68173Y-32493D01*
X67773Y-32493D01*
G54D20*
X38161Y-35415D02*
X38004Y-35415D01*
X38004Y-35378D01*
X38012Y-35356D01*
X38026Y-35341D01*
X38041Y-35333D01*
X38071Y-35326D01*
X38094Y-35326D01*
X38124Y-35333D01*
X38139Y-35341D01*
X38154Y-35356D01*
X38161Y-35378D01*
X38161Y-35415D01*
X38004Y-35273D02*
X38004Y-35169D01*
X38161Y-35236D01*
X37311Y-24915D02*
X37154Y-24915D01*
X37154Y-24878D01*
X37162Y-24856D01*
X37176Y-24841D01*
X37191Y-24833D01*
X37221Y-24826D01*
X37244Y-24826D01*
X37274Y-24833D01*
X37289Y-24841D01*
X37304Y-24856D01*
X37311Y-24878D01*
X37311Y-24915D01*
X37154Y-24691D02*
X37154Y-24721D01*
X37162Y-24736D01*
X37169Y-24743D01*
X37191Y-24758D01*
X37221Y-24766D01*
X37281Y-24766D01*
X37296Y-24758D01*
X37304Y-24751D01*
X37311Y-24736D01*
X37311Y-24706D01*
X37304Y-24691D01*
X37296Y-24684D01*
X37281Y-24676D01*
X37244Y-24676D01*
X37229Y-24684D01*
X37221Y-24691D01*
X37214Y-24706D01*
X37214Y-24736D01*
X37221Y-24751D01*
X37229Y-24758D01*
X37244Y-24766D01*
X43734Y-30311D02*
X43734Y-30154D01*
X43771Y-30154D01*
X43793Y-30162D01*
X43808Y-30176D01*
X43816Y-30191D01*
X43823Y-30221D01*
X43823Y-30244D01*
X43816Y-30274D01*
X43808Y-30289D01*
X43793Y-30304D01*
X43771Y-30311D01*
X43734Y-30311D01*
X43898Y-30311D02*
X43928Y-30311D01*
X43943Y-30304D01*
X43950Y-30296D01*
X43965Y-30274D01*
X43973Y-30244D01*
X43973Y-30184D01*
X43965Y-30169D01*
X43958Y-30162D01*
X43943Y-30154D01*
X43913Y-30154D01*
X43898Y-30162D01*
X43891Y-30169D01*
X43883Y-30184D01*
X43883Y-30221D01*
X43891Y-30236D01*
X43898Y-30244D01*
X43913Y-30251D01*
X43943Y-30251D01*
X43958Y-30244D01*
X43965Y-30236D01*
X43973Y-30221D01*
X52959Y-51865D02*
X52959Y-51708D01*
X52996Y-51708D01*
X53019Y-51716D01*
X53034Y-51730D01*
X53041Y-51745D01*
X53049Y-51775D01*
X53049Y-51798D01*
X53041Y-51828D01*
X53034Y-51843D01*
X53019Y-51858D01*
X52996Y-51865D01*
X52959Y-51865D01*
X53198Y-51865D02*
X53108Y-51865D01*
X53153Y-51865D02*
X53153Y-51708D01*
X53138Y-51730D01*
X53123Y-51745D01*
X53108Y-51753D01*
X53258Y-51723D02*
X53265Y-51716D01*
X53280Y-51708D01*
X53318Y-51708D01*
X53333Y-51716D01*
X53340Y-51723D01*
X53348Y-51738D01*
X53348Y-51753D01*
X53340Y-51775D01*
X53250Y-51865D01*
X53348Y-51865D01*
G54D21*
X39295Y-34993D02*
X39523Y-34993D01*
X39409Y-35493D02*
X39409Y-34993D01*
X39885Y-35493D02*
X39752Y-35255D01*
X39657Y-35493D02*
X39657Y-34993D01*
X39809Y-34993D01*
X39847Y-35017D01*
X39866Y-35041D01*
X39885Y-35088D01*
X39885Y-35160D01*
X39866Y-35207D01*
X39847Y-35231D01*
X39809Y-35255D01*
X39657Y-35255D01*
X40228Y-35160D02*
X40228Y-35493D01*
X40133Y-34969D02*
X40038Y-35326D01*
X40285Y-35326D01*
X38076Y-36870D02*
X38076Y-36470D01*
X38266Y-36870D02*
X38266Y-36470D01*
X38419Y-36470D01*
X38457Y-36489D01*
X38476Y-36509D01*
X38495Y-36547D01*
X38495Y-36604D01*
X38476Y-36642D01*
X38457Y-36661D01*
X38419Y-36680D01*
X38266Y-36680D01*
X38666Y-36870D02*
X38666Y-36470D01*
X38761Y-36470D01*
X38819Y-36489D01*
X38857Y-36528D01*
X38876Y-36566D01*
X38895Y-36642D01*
X38895Y-36699D01*
X38876Y-36775D01*
X38857Y-36813D01*
X38819Y-36851D01*
X38761Y-36870D01*
X38666Y-36870D01*
X39142Y-36470D02*
X39180Y-36470D01*
X39219Y-36489D01*
X39238Y-36509D01*
X39257Y-36547D01*
X39276Y-36623D01*
X39276Y-36718D01*
X39257Y-36794D01*
X39238Y-36832D01*
X39219Y-36851D01*
X39180Y-36870D01*
X39142Y-36870D01*
X39104Y-36851D01*
X39085Y-36832D01*
X39066Y-36794D01*
X39047Y-36718D01*
X39047Y-36623D01*
X39066Y-36547D01*
X39085Y-36509D01*
X39104Y-36489D01*
X39142Y-36470D01*
X39409Y-36470D02*
X39657Y-36470D01*
X39523Y-36623D01*
X39580Y-36623D01*
X39619Y-36642D01*
X39638Y-36661D01*
X39657Y-36699D01*
X39657Y-36794D01*
X39638Y-36832D01*
X39619Y-36851D01*
X39580Y-36870D01*
X39466Y-36870D01*
X39428Y-36851D01*
X39409Y-36832D01*
X40000Y-36470D02*
X39923Y-36470D01*
X39885Y-36489D01*
X39866Y-36509D01*
X39828Y-36566D01*
X39809Y-36642D01*
X39809Y-36794D01*
X39828Y-36832D01*
X39847Y-36851D01*
X39885Y-36870D01*
X39961Y-36870D01*
X40000Y-36851D01*
X40019Y-36832D01*
X40038Y-36794D01*
X40038Y-36699D01*
X40019Y-36661D01*
X40000Y-36642D01*
X39961Y-36623D01*
X39885Y-36623D01*
X39847Y-36642D01*
X39828Y-36661D01*
X39809Y-36699D01*
X40209Y-36870D02*
X40209Y-36470D01*
X40438Y-36870D01*
X40438Y-36470D01*
X40704Y-36470D02*
X40742Y-36470D01*
X40780Y-36489D01*
X40800Y-36509D01*
X40819Y-36547D01*
X40838Y-36623D01*
X40838Y-36718D01*
X40819Y-36794D01*
X40800Y-36832D01*
X40780Y-36851D01*
X40742Y-36870D01*
X40704Y-36870D01*
X40666Y-36851D01*
X40647Y-36832D01*
X40628Y-36794D01*
X40609Y-36718D01*
X40609Y-36623D01*
X40628Y-36547D01*
X40647Y-36509D01*
X40666Y-36489D01*
X40704Y-36470D01*
X41180Y-36604D02*
X41180Y-36870D01*
X41085Y-36451D02*
X40990Y-36737D01*
X41238Y-36737D01*
X41580Y-36870D02*
X41390Y-36870D01*
X41390Y-36470D01*
G54D24*
X53623Y-27910D02*
X53613Y-27920D01*
X53585Y-27929D01*
X53567Y-27929D01*
X53538Y-27920D01*
X53520Y-27901D01*
X53510Y-27882D01*
X53501Y-27845D01*
X53501Y-27817D01*
X53510Y-27779D01*
X53520Y-27760D01*
X53538Y-27742D01*
X53567Y-27732D01*
X53585Y-27732D01*
X53613Y-27742D01*
X53623Y-27751D01*
X53717Y-27929D02*
X53754Y-27929D01*
X53773Y-27920D01*
X53782Y-27910D01*
X53801Y-27882D01*
X53810Y-27845D01*
X53810Y-27770D01*
X53801Y-27751D01*
X53792Y-27742D01*
X53773Y-27732D01*
X53735Y-27732D01*
X53717Y-27742D01*
X53707Y-27751D01*
X53698Y-27770D01*
X53698Y-27817D01*
X53707Y-27835D01*
X53717Y-27845D01*
X53735Y-27854D01*
X53773Y-27854D01*
X53792Y-27845D01*
X53801Y-27835D01*
X53810Y-27817D01*
X53886Y-27751D02*
X53895Y-27742D01*
X53914Y-27732D01*
X53961Y-27732D01*
X53979Y-27742D01*
X53989Y-27751D01*
X53998Y-27770D01*
X53998Y-27789D01*
X53989Y-27817D01*
X53876Y-27929D01*
X53998Y-27929D01*
X45110Y-33476D02*
X45120Y-33486D01*
X45129Y-33514D01*
X45129Y-33532D01*
X45120Y-33561D01*
X45101Y-33579D01*
X45082Y-33589D01*
X45045Y-33598D01*
X45017Y-33598D01*
X44979Y-33589D01*
X44960Y-33579D01*
X44942Y-33561D01*
X44932Y-33532D01*
X44932Y-33514D01*
X44942Y-33486D01*
X44951Y-33476D01*
X44932Y-33410D02*
X44932Y-33289D01*
X45007Y-33354D01*
X45007Y-33326D01*
X45017Y-33307D01*
X45026Y-33298D01*
X45045Y-33289D01*
X45092Y-33289D01*
X45110Y-33298D01*
X45120Y-33307D01*
X45129Y-33326D01*
X45129Y-33382D01*
X45120Y-33401D01*
X45110Y-33410D01*
X44951Y-33213D02*
X44942Y-33204D01*
X44932Y-33185D01*
X44932Y-33138D01*
X44942Y-33120D01*
X44951Y-33110D01*
X44970Y-33101D01*
X44989Y-33101D01*
X45017Y-33110D01*
X45129Y-33223D01*
X45129Y-33101D01*
X45110Y-44926D02*
X45120Y-44936D01*
X45129Y-44964D01*
X45129Y-44982D01*
X45120Y-45011D01*
X45101Y-45029D01*
X45082Y-45039D01*
X45045Y-45048D01*
X45017Y-45048D01*
X44979Y-45039D01*
X44960Y-45029D01*
X44942Y-45011D01*
X44932Y-44982D01*
X44932Y-44964D01*
X44942Y-44936D01*
X44951Y-44926D01*
X44951Y-44851D02*
X44942Y-44842D01*
X44932Y-44823D01*
X44932Y-44776D01*
X44942Y-44757D01*
X44951Y-44748D01*
X44970Y-44739D01*
X44989Y-44739D01*
X45017Y-44748D01*
X45129Y-44860D01*
X45129Y-44739D01*
X44951Y-44663D02*
X44942Y-44654D01*
X44932Y-44635D01*
X44932Y-44588D01*
X44942Y-44570D01*
X44951Y-44560D01*
X44970Y-44551D01*
X44989Y-44551D01*
X45017Y-44560D01*
X45129Y-44673D01*
X45129Y-44551D01*
X34110Y-40026D02*
X34120Y-40036D01*
X34129Y-40064D01*
X34129Y-40082D01*
X34120Y-40111D01*
X34101Y-40129D01*
X34082Y-40139D01*
X34045Y-40148D01*
X34017Y-40148D01*
X33979Y-40139D01*
X33960Y-40129D01*
X33942Y-40111D01*
X33932Y-40082D01*
X33932Y-40064D01*
X33942Y-40036D01*
X33951Y-40026D01*
X34129Y-39932D02*
X34129Y-39895D01*
X34120Y-39876D01*
X34110Y-39867D01*
X34082Y-39848D01*
X34045Y-39839D01*
X33970Y-39839D01*
X33951Y-39848D01*
X33942Y-39857D01*
X33932Y-39876D01*
X33932Y-39914D01*
X33942Y-39932D01*
X33951Y-39942D01*
X33970Y-39951D01*
X34017Y-39951D01*
X34035Y-39942D01*
X34045Y-39932D01*
X34054Y-39914D01*
X34054Y-39876D01*
X34045Y-39857D01*
X34035Y-39848D01*
X34017Y-39839D01*
X33998Y-39670D02*
X34129Y-39670D01*
X33923Y-39717D02*
X34064Y-39763D01*
X34064Y-39642D01*
G54D25*
X36026Y-23975D02*
X36032Y-23981D01*
X36037Y-23998D01*
X36037Y-24009D01*
X36032Y-24026D01*
X36020Y-24037D01*
X36009Y-24043D01*
X35987Y-24048D01*
X35970Y-24048D01*
X35947Y-24043D01*
X35936Y-24037D01*
X35925Y-24026D01*
X35919Y-24009D01*
X35919Y-23998D01*
X35925Y-23981D01*
X35931Y-23975D01*
X36037Y-23863D02*
X36037Y-23930D01*
X36037Y-23897D02*
X35919Y-23897D01*
X35936Y-23908D01*
X35947Y-23919D01*
X35953Y-23930D01*
X35970Y-23796D02*
X35964Y-23807D01*
X35959Y-23812D01*
X35947Y-23818D01*
X35942Y-23818D01*
X35931Y-23812D01*
X35925Y-23807D01*
X35919Y-23796D01*
X35919Y-23773D01*
X35925Y-23762D01*
X35931Y-23756D01*
X35942Y-23751D01*
X35947Y-23751D01*
X35959Y-23756D01*
X35964Y-23762D01*
X35970Y-23773D01*
X35970Y-23796D01*
X35975Y-23807D01*
X35981Y-23812D01*
X35992Y-23818D01*
X36015Y-23818D01*
X36026Y-23812D01*
X36032Y-23807D01*
X36037Y-23796D01*
X36037Y-23773D01*
X36032Y-23762D01*
X36026Y-23756D01*
X36015Y-23751D01*
X35992Y-23751D01*
X35981Y-23756D01*
X35975Y-23762D01*
X35970Y-23773D01*
X36026Y-35375D02*
X36032Y-35381D01*
X36037Y-35398D01*
X36037Y-35409D01*
X36032Y-35426D01*
X36020Y-35437D01*
X36009Y-35443D01*
X35987Y-35448D01*
X35970Y-35448D01*
X35947Y-35443D01*
X35936Y-35437D01*
X35925Y-35426D01*
X35919Y-35409D01*
X35919Y-35398D01*
X35925Y-35381D01*
X35931Y-35375D01*
X36037Y-35263D02*
X36037Y-35330D01*
X36037Y-35297D02*
X35919Y-35297D01*
X35936Y-35308D01*
X35947Y-35319D01*
X35953Y-35330D01*
X36037Y-35207D02*
X36037Y-35184D01*
X36032Y-35173D01*
X36026Y-35167D01*
X36009Y-35156D01*
X35987Y-35151D01*
X35942Y-35151D01*
X35931Y-35156D01*
X35925Y-35162D01*
X35919Y-35173D01*
X35919Y-35196D01*
X35925Y-35207D01*
X35931Y-35212D01*
X35942Y-35218D01*
X35970Y-35218D01*
X35981Y-35212D01*
X35987Y-35207D01*
X35992Y-35196D01*
X35992Y-35173D01*
X35987Y-35162D01*
X35981Y-35156D01*
X35970Y-35151D01*
G54D26*
X43299Y-35574D02*
X43295Y-35578D01*
X43284Y-35581D01*
X43276Y-35581D01*
X43265Y-35578D01*
X43257Y-35570D01*
X43254Y-35563D01*
X43250Y-35548D01*
X43250Y-35536D01*
X43254Y-35521D01*
X43257Y-35514D01*
X43265Y-35506D01*
X43276Y-35502D01*
X43284Y-35502D01*
X43295Y-35506D01*
X43299Y-35510D01*
X43325Y-35502D02*
X43378Y-35502D01*
X43344Y-35581D01*
X43400Y-35502D02*
X43453Y-35502D01*
X43419Y-35581D01*
X45074Y-44900D02*
X45078Y-44904D01*
X45081Y-44915D01*
X45081Y-44923D01*
X45078Y-44934D01*
X45070Y-44942D01*
X45063Y-44945D01*
X45048Y-44949D01*
X45036Y-44949D01*
X45021Y-44945D01*
X45014Y-44942D01*
X45006Y-44934D01*
X45002Y-44923D01*
X45002Y-44915D01*
X45006Y-44904D01*
X45010Y-44900D01*
X45002Y-44874D02*
X45002Y-44821D01*
X45081Y-44855D01*
X45002Y-44754D02*
X45002Y-44791D01*
X45040Y-44795D01*
X45036Y-44791D01*
X45033Y-44784D01*
X45033Y-44765D01*
X45036Y-44757D01*
X45040Y-44754D01*
X45048Y-44750D01*
X45066Y-44750D01*
X45074Y-44754D01*
X45078Y-44757D01*
X45081Y-44765D01*
X45081Y-44784D01*
X45078Y-44791D01*
X45074Y-44795D01*
X52974Y-36250D02*
X52978Y-36254D01*
X52981Y-36265D01*
X52981Y-36273D01*
X52978Y-36284D01*
X52970Y-36292D01*
X52963Y-36295D01*
X52948Y-36299D01*
X52936Y-36299D01*
X52921Y-36295D01*
X52914Y-36292D01*
X52906Y-36284D01*
X52902Y-36273D01*
X52902Y-36265D01*
X52906Y-36254D01*
X52910Y-36250D01*
X52902Y-36179D02*
X52902Y-36216D01*
X52940Y-36220D01*
X52936Y-36216D01*
X52933Y-36209D01*
X52933Y-36190D01*
X52936Y-36183D01*
X52940Y-36179D01*
X52948Y-36175D01*
X52966Y-36175D01*
X52974Y-36179D01*
X52978Y-36183D01*
X52981Y-36190D01*
X52981Y-36209D01*
X52978Y-36216D01*
X52974Y-36220D01*
X52902Y-36107D02*
X52902Y-36122D01*
X52906Y-36130D01*
X52910Y-36134D01*
X52921Y-36141D01*
X52936Y-36145D01*
X52966Y-36145D01*
X52974Y-36141D01*
X52978Y-36137D01*
X52981Y-36130D01*
X52981Y-36115D01*
X52978Y-36107D01*
X52974Y-36104D01*
X52966Y-36100D01*
X52948Y-36100D01*
X52940Y-36104D01*
X52936Y-36107D01*
X52933Y-36115D01*
X52933Y-36130D01*
X52936Y-36137D01*
X52940Y-36141D01*
X52948Y-36145D01*
X44399Y-42174D02*
X44395Y-42178D01*
X44384Y-42181D01*
X44376Y-42181D01*
X44365Y-42178D01*
X44357Y-42170D01*
X44354Y-42163D01*
X44350Y-42148D01*
X44350Y-42136D01*
X44354Y-42121D01*
X44357Y-42114D01*
X44365Y-42106D01*
X44376Y-42102D01*
X44384Y-42102D01*
X44395Y-42106D01*
X44399Y-42110D01*
X44474Y-42181D02*
X44429Y-42181D01*
X44451Y-42181D02*
X44451Y-42102D01*
X44444Y-42114D01*
X44436Y-42121D01*
X44429Y-42125D01*
X44542Y-42129D02*
X44542Y-42181D01*
X44523Y-42099D02*
X44504Y-42155D01*
X44553Y-42155D01*
X54524Y-52350D02*
X54528Y-52354D01*
X54531Y-52365D01*
X54531Y-52373D01*
X54528Y-52384D01*
X54520Y-52392D01*
X54513Y-52395D01*
X54498Y-52399D01*
X54486Y-52399D01*
X54471Y-52395D01*
X54464Y-52392D01*
X54456Y-52384D01*
X54452Y-52373D01*
X54452Y-52365D01*
X54456Y-52354D01*
X54460Y-52350D01*
X54479Y-52283D02*
X54531Y-52283D01*
X54449Y-52301D02*
X54505Y-52320D01*
X54505Y-52271D01*
X54452Y-52226D02*
X54452Y-52219D01*
X54456Y-52211D01*
X54460Y-52207D01*
X54468Y-52204D01*
X54483Y-52200D01*
X54501Y-52200D01*
X54516Y-52204D01*
X54524Y-52207D01*
X54528Y-52211D01*
X54531Y-52219D01*
X54531Y-52226D01*
X54528Y-52234D01*
X54524Y-52237D01*
X54516Y-52241D01*
X54501Y-52245D01*
X54483Y-52245D01*
X54468Y-52241D01*
X54460Y-52237D01*
X54456Y-52234D01*
X54452Y-52226D01*
X42524Y-29750D02*
X42528Y-29754D01*
X42531Y-29765D01*
X42531Y-29773D01*
X42528Y-29784D01*
X42520Y-29792D01*
X42513Y-29795D01*
X42498Y-29799D01*
X42486Y-29799D01*
X42471Y-29795D01*
X42464Y-29792D01*
X42456Y-29784D01*
X42452Y-29773D01*
X42452Y-29765D01*
X42456Y-29754D01*
X42460Y-29750D01*
X42479Y-29683D02*
X42531Y-29683D01*
X42449Y-29701D02*
X42505Y-29720D01*
X42505Y-29671D01*
X42531Y-29600D02*
X42531Y-29645D01*
X42531Y-29622D02*
X42452Y-29622D01*
X42464Y-29630D01*
X42471Y-29637D01*
X42475Y-29645D01*
X66324Y-26250D02*
X66328Y-26254D01*
X66331Y-26265D01*
X66331Y-26273D01*
X66328Y-26284D01*
X66320Y-26292D01*
X66313Y-26295D01*
X66298Y-26299D01*
X66286Y-26299D01*
X66271Y-26295D01*
X66264Y-26292D01*
X66256Y-26284D01*
X66252Y-26273D01*
X66252Y-26265D01*
X66256Y-26254D01*
X66260Y-26250D01*
X66252Y-26179D02*
X66252Y-26216D01*
X66290Y-26220D01*
X66286Y-26216D01*
X66283Y-26209D01*
X66283Y-26190D01*
X66286Y-26183D01*
X66290Y-26179D01*
X66298Y-26175D01*
X66316Y-26175D01*
X66324Y-26179D01*
X66328Y-26183D01*
X66331Y-26190D01*
X66331Y-26209D01*
X66328Y-26216D01*
X66324Y-26220D01*
X66252Y-26104D02*
X66252Y-26141D01*
X66290Y-26145D01*
X66286Y-26141D01*
X66283Y-26134D01*
X66283Y-26115D01*
X66286Y-26107D01*
X66290Y-26104D01*
X66298Y-26100D01*
X66316Y-26100D01*
X66324Y-26104D01*
X66328Y-26107D01*
X66331Y-26115D01*
X66331Y-26134D01*
X66328Y-26141D01*
X66324Y-26145D01*
X52474Y-34550D02*
X52478Y-34554D01*
X52481Y-34565D01*
X52481Y-34573D01*
X52478Y-34584D01*
X52470Y-34592D01*
X52463Y-34595D01*
X52448Y-34599D01*
X52436Y-34599D01*
X52421Y-34595D01*
X52414Y-34592D01*
X52406Y-34584D01*
X52402Y-34573D01*
X52402Y-34565D01*
X52406Y-34554D01*
X52410Y-34550D01*
X52402Y-34524D02*
X52402Y-34475D01*
X52433Y-34501D01*
X52433Y-34490D01*
X52436Y-34483D01*
X52440Y-34479D01*
X52448Y-34475D01*
X52466Y-34475D01*
X52474Y-34479D01*
X52478Y-34483D01*
X52481Y-34490D01*
X52481Y-34513D01*
X52478Y-34520D01*
X52474Y-34524D01*
X52402Y-34407D02*
X52402Y-34422D01*
X52406Y-34430D01*
X52410Y-34434D01*
X52421Y-34441D01*
X52436Y-34445D01*
X52466Y-34445D01*
X52474Y-34441D01*
X52478Y-34437D01*
X52481Y-34430D01*
X52481Y-34415D01*
X52478Y-34407D01*
X52474Y-34404D01*
X52466Y-34400D01*
X52448Y-34400D01*
X52440Y-34404D01*
X52436Y-34407D01*
X52433Y-34415D01*
X52433Y-34430D01*
X52436Y-34437D01*
X52440Y-34441D01*
X52448Y-34445D01*
X48724Y-41450D02*
X48728Y-41454D01*
X48731Y-41465D01*
X48731Y-41473D01*
X48728Y-41484D01*
X48720Y-41492D01*
X48713Y-41495D01*
X48698Y-41499D01*
X48686Y-41499D01*
X48671Y-41495D01*
X48664Y-41492D01*
X48656Y-41484D01*
X48652Y-41473D01*
X48652Y-41465D01*
X48656Y-41454D01*
X48660Y-41450D01*
X48660Y-41420D02*
X48656Y-41416D01*
X48652Y-41409D01*
X48652Y-41390D01*
X48656Y-41383D01*
X48660Y-41379D01*
X48668Y-41375D01*
X48675Y-41375D01*
X48686Y-41379D01*
X48731Y-41424D01*
X48731Y-41375D01*
X48652Y-41326D02*
X48652Y-41319D01*
X48656Y-41311D01*
X48660Y-41307D01*
X48668Y-41304D01*
X48683Y-41300D01*
X48701Y-41300D01*
X48716Y-41304D01*
X48724Y-41307D01*
X48728Y-41311D01*
X48731Y-41319D01*
X48731Y-41326D01*
X48728Y-41334D01*
X48724Y-41337D01*
X48716Y-41341D01*
X48701Y-41345D01*
X48683Y-41345D01*
X48668Y-41341D01*
X48660Y-41337D01*
X48656Y-41334D01*
X48652Y-41326D01*
X49424Y-41450D02*
X49428Y-41454D01*
X49431Y-41465D01*
X49431Y-41473D01*
X49428Y-41484D01*
X49420Y-41492D01*
X49413Y-41495D01*
X49398Y-41499D01*
X49386Y-41499D01*
X49371Y-41495D01*
X49364Y-41492D01*
X49356Y-41484D01*
X49352Y-41473D01*
X49352Y-41465D01*
X49356Y-41454D01*
X49360Y-41450D01*
X49360Y-41420D02*
X49356Y-41416D01*
X49352Y-41409D01*
X49352Y-41390D01*
X49356Y-41383D01*
X49360Y-41379D01*
X49368Y-41375D01*
X49375Y-41375D01*
X49386Y-41379D01*
X49431Y-41424D01*
X49431Y-41375D01*
X49379Y-41307D02*
X49431Y-41307D01*
X49349Y-41326D02*
X49405Y-41345D01*
X49405Y-41296D01*
X45424Y-41150D02*
X45428Y-41154D01*
X45431Y-41165D01*
X45431Y-41173D01*
X45428Y-41184D01*
X45420Y-41192D01*
X45413Y-41195D01*
X45398Y-41199D01*
X45386Y-41199D01*
X45371Y-41195D01*
X45364Y-41192D01*
X45356Y-41184D01*
X45352Y-41173D01*
X45352Y-41165D01*
X45356Y-41154D01*
X45360Y-41150D01*
X45360Y-41120D02*
X45356Y-41116D01*
X45352Y-41109D01*
X45352Y-41090D01*
X45356Y-41083D01*
X45360Y-41079D01*
X45368Y-41075D01*
X45375Y-41075D01*
X45386Y-41079D01*
X45431Y-41124D01*
X45431Y-41075D01*
X45352Y-41007D02*
X45352Y-41022D01*
X45356Y-41030D01*
X45360Y-41034D01*
X45371Y-41041D01*
X45386Y-41045D01*
X45416Y-41045D01*
X45424Y-41041D01*
X45428Y-41037D01*
X45431Y-41030D01*
X45431Y-41015D01*
X45428Y-41007D01*
X45424Y-41004D01*
X45416Y-41000D01*
X45398Y-41000D01*
X45390Y-41004D01*
X45386Y-41007D01*
X45383Y-41015D01*
X45383Y-41030D01*
X45386Y-41037D01*
X45390Y-41041D01*
X45398Y-41045D01*
X44749Y-34974D02*
X44745Y-34978D01*
X44734Y-34981D01*
X44726Y-34981D01*
X44715Y-34978D01*
X44707Y-34970D01*
X44704Y-34963D01*
X44700Y-34948D01*
X44700Y-34936D01*
X44704Y-34921D01*
X44707Y-34914D01*
X44715Y-34906D01*
X44726Y-34902D01*
X44734Y-34902D01*
X44745Y-34906D01*
X44749Y-34910D01*
X44775Y-34902D02*
X44824Y-34902D01*
X44798Y-34933D01*
X44809Y-34933D01*
X44816Y-34936D01*
X44820Y-34940D01*
X44824Y-34948D01*
X44824Y-34966D01*
X44820Y-34974D01*
X44816Y-34978D01*
X44809Y-34981D01*
X44786Y-34981D01*
X44779Y-34978D01*
X44775Y-34974D01*
X44892Y-34929D02*
X44892Y-34981D01*
X44873Y-34899D02*
X44854Y-34955D01*
X44903Y-34955D01*
X44749Y-35724D02*
X44745Y-35728D01*
X44734Y-35731D01*
X44726Y-35731D01*
X44715Y-35728D01*
X44707Y-35720D01*
X44704Y-35713D01*
X44700Y-35698D01*
X44700Y-35686D01*
X44704Y-35671D01*
X44707Y-35664D01*
X44715Y-35656D01*
X44726Y-35652D01*
X44734Y-35652D01*
X44745Y-35656D01*
X44749Y-35660D01*
X44775Y-35652D02*
X44824Y-35652D01*
X44798Y-35683D01*
X44809Y-35683D01*
X44816Y-35686D01*
X44820Y-35690D01*
X44824Y-35698D01*
X44824Y-35716D01*
X44820Y-35724D01*
X44816Y-35728D01*
X44809Y-35731D01*
X44786Y-35731D01*
X44779Y-35728D01*
X44775Y-35724D01*
X44873Y-35652D02*
X44880Y-35652D01*
X44888Y-35656D01*
X44892Y-35660D01*
X44895Y-35668D01*
X44899Y-35683D01*
X44899Y-35701D01*
X44895Y-35716D01*
X44892Y-35724D01*
X44888Y-35728D01*
X44880Y-35731D01*
X44873Y-35731D01*
X44865Y-35728D01*
X44862Y-35724D01*
X44858Y-35716D01*
X44854Y-35701D01*
X44854Y-35683D01*
X44858Y-35668D01*
X44862Y-35660D01*
X44865Y-35656D01*
X44873Y-35652D01*
G54D21*
X33461Y-53223D02*
X33747Y-53223D01*
X33804Y-53242D01*
X33842Y-53280D01*
X33861Y-53338D01*
X33861Y-53376D01*
X33861Y-52823D02*
X33861Y-53052D01*
X33861Y-52938D02*
X33461Y-52938D01*
X33519Y-52976D01*
X33557Y-53014D01*
X33576Y-53052D01*
X33861Y-52633D02*
X33861Y-52557D01*
X33842Y-52519D01*
X33823Y-52500D01*
X33766Y-52461D01*
X33690Y-52442D01*
X33538Y-52442D01*
X33500Y-52461D01*
X33480Y-52480D01*
X33461Y-52519D01*
X33461Y-52595D01*
X33480Y-52633D01*
X33500Y-52652D01*
X33538Y-52671D01*
X33633Y-52671D01*
X33671Y-52652D01*
X33690Y-52633D01*
X33709Y-52595D01*
X33709Y-52519D01*
X33690Y-52480D01*
X33671Y-52461D01*
X33633Y-52442D01*
G54D16*
X31863Y-56055D02*
X32077Y-56055D01*
X32120Y-56070D01*
X32149Y-56098D01*
X32163Y-56141D01*
X32163Y-56170D01*
X32163Y-55755D02*
X32163Y-55927D01*
X32163Y-55841D02*
X31863Y-55841D01*
X31906Y-55870D01*
X31934Y-55898D01*
X31949Y-55927D01*
X32163Y-55470D02*
X32163Y-55641D01*
X32163Y-55555D02*
X31863Y-55555D01*
X31906Y-55584D01*
X31934Y-55613D01*
X31949Y-55641D01*
X35416Y-31361D02*
X35416Y-31647D01*
X35397Y-31704D01*
X35359Y-31742D01*
X35302Y-31761D01*
X35264Y-31761D01*
X35797Y-31361D02*
X35607Y-31361D01*
X35588Y-31552D01*
X35607Y-31533D01*
X35645Y-31514D01*
X35740Y-31514D01*
X35778Y-31533D01*
X35797Y-31552D01*
X35816Y-31590D01*
X35816Y-31685D01*
X35797Y-31723D01*
X35778Y-31742D01*
X35740Y-31761D01*
X35645Y-31761D01*
X35607Y-31742D01*
X35588Y-31723D01*
X39011Y-31652D02*
X39145Y-31652D01*
X39202Y-31861D02*
X39011Y-31861D01*
X39011Y-31461D01*
X39202Y-31461D01*
X39354Y-31500D02*
X39373Y-31480D01*
X39411Y-31461D01*
X39507Y-31461D01*
X39545Y-31480D01*
X39564Y-31500D01*
X39583Y-31538D01*
X39583Y-31576D01*
X39564Y-31633D01*
X39335Y-31861D01*
X39583Y-31861D01*
X40059Y-31861D02*
X40059Y-31461D01*
X40059Y-31652D02*
X40288Y-31652D01*
X40288Y-31861D02*
X40288Y-31461D01*
X40802Y-31861D02*
X40783Y-31861D01*
X40745Y-31842D01*
X40688Y-31785D01*
X40592Y-31671D01*
X40554Y-31614D01*
X40535Y-31557D01*
X40535Y-31519D01*
X40554Y-31480D01*
X40592Y-31461D01*
X40611Y-31461D01*
X40650Y-31480D01*
X40669Y-31519D01*
X40669Y-31538D01*
X40650Y-31576D01*
X40630Y-31595D01*
X40516Y-31671D01*
X40497Y-31690D01*
X40478Y-31728D01*
X40478Y-31785D01*
X40497Y-31823D01*
X40516Y-31842D01*
X40554Y-31861D01*
X40611Y-31861D01*
X40650Y-31842D01*
X40669Y-31823D01*
X40726Y-31747D01*
X40745Y-31690D01*
X40745Y-31652D01*
X40916Y-31461D02*
X41145Y-31461D01*
X41030Y-31861D02*
X41030Y-31461D01*
X39861Y-52045D02*
X39461Y-52045D01*
X39461Y-51892D01*
X39480Y-51854D01*
X39500Y-51835D01*
X39538Y-51816D01*
X39595Y-51816D01*
X39633Y-51835D01*
X39652Y-51854D01*
X39671Y-51892D01*
X39671Y-52045D01*
X39500Y-51664D02*
X39480Y-51645D01*
X39461Y-51607D01*
X39461Y-51511D01*
X39480Y-51473D01*
X39500Y-51454D01*
X39538Y-51435D01*
X39576Y-51435D01*
X39633Y-51454D01*
X39861Y-51683D01*
X39861Y-51435D01*
X39666Y-55142D02*
X39666Y-55008D01*
X39875Y-54951D02*
X39875Y-55142D01*
X39475Y-55142D01*
X39475Y-54951D01*
X39475Y-54703D02*
X39475Y-54665D01*
X39494Y-54627D01*
X39514Y-54608D01*
X39552Y-54589D01*
X39628Y-54570D01*
X39723Y-54570D01*
X39799Y-54589D01*
X39837Y-54608D01*
X39856Y-54627D01*
X39875Y-54665D01*
X39875Y-54703D01*
X39856Y-54742D01*
X39837Y-54761D01*
X39799Y-54780D01*
X39723Y-54799D01*
X39628Y-54799D01*
X39552Y-54780D01*
X39514Y-54761D01*
X39494Y-54742D01*
X39475Y-54703D01*
X39875Y-54094D02*
X39475Y-54094D01*
X39666Y-54094D02*
X39666Y-53865D01*
X39875Y-53865D02*
X39475Y-53865D01*
X39875Y-53351D02*
X39875Y-53370D01*
X39856Y-53408D01*
X39799Y-53465D01*
X39685Y-53561D01*
X39628Y-53599D01*
X39571Y-53618D01*
X39533Y-53618D01*
X39494Y-53599D01*
X39475Y-53561D01*
X39475Y-53542D01*
X39494Y-53504D01*
X39533Y-53484D01*
X39552Y-53484D01*
X39590Y-53504D01*
X39609Y-53523D01*
X39685Y-53637D01*
X39704Y-53656D01*
X39742Y-53675D01*
X39799Y-53675D01*
X39837Y-53656D01*
X39856Y-53637D01*
X39875Y-53599D01*
X39875Y-53542D01*
X39856Y-53504D01*
X39837Y-53484D01*
X39761Y-53427D01*
X39704Y-53408D01*
X39666Y-53408D01*
X39475Y-53237D02*
X39475Y-53008D01*
X39875Y-53123D02*
X39475Y-53123D01*
X41921Y-59042D02*
X42135Y-59042D01*
X42178Y-59057D01*
X42207Y-59085D01*
X42221Y-59128D01*
X42221Y-59157D01*
X42221Y-58742D02*
X42221Y-58914D01*
X42221Y-58828D02*
X41921Y-58828D01*
X41964Y-58857D01*
X41992Y-58885D01*
X42007Y-58914D01*
X41921Y-58557D02*
X41921Y-58528D01*
X41935Y-58500D01*
X41950Y-58485D01*
X41978Y-58471D01*
X42035Y-58457D01*
X42107Y-58457D01*
X42164Y-58471D01*
X42192Y-58485D01*
X42207Y-58500D01*
X42221Y-58528D01*
X42221Y-58557D01*
X42207Y-58585D01*
X42192Y-58600D01*
X42164Y-58614D01*
X42107Y-58628D01*
X42035Y-58628D01*
X41978Y-58614D01*
X41950Y-58600D01*
X41935Y-58585D01*
X41921Y-58557D01*
G54D18*
X50852Y-23016D02*
X51209Y-23016D01*
X51280Y-23040D01*
X51328Y-23088D01*
X51352Y-23159D01*
X51352Y-23207D01*
X50852Y-22564D02*
X50852Y-22659D01*
X50876Y-22707D01*
X50900Y-22730D01*
X50971Y-22778D01*
X51066Y-22802D01*
X51257Y-22802D01*
X51304Y-22778D01*
X51328Y-22754D01*
X51352Y-22707D01*
X51352Y-22611D01*
X51328Y-22564D01*
X51304Y-22540D01*
X51257Y-22516D01*
X51138Y-22516D01*
X51090Y-22540D01*
X51066Y-22564D01*
X51042Y-22611D01*
X51042Y-22707D01*
X51066Y-22754D01*
X51090Y-22778D01*
X51138Y-22802D01*
X52278Y-22771D02*
X52302Y-22700D01*
X52302Y-22580D01*
X52278Y-22533D01*
X52254Y-22509D01*
X52207Y-22485D01*
X52159Y-22485D01*
X52111Y-22509D01*
X52088Y-22533D01*
X52064Y-22580D01*
X52040Y-22676D01*
X52016Y-22723D01*
X51992Y-22747D01*
X51945Y-22771D01*
X51897Y-22771D01*
X51850Y-22747D01*
X51826Y-22723D01*
X51802Y-22676D01*
X51802Y-22557D01*
X51826Y-22485D01*
X52302Y-22271D02*
X51802Y-22271D01*
X51802Y-22080D01*
X51826Y-22033D01*
X51850Y-22009D01*
X51897Y-21985D01*
X51969Y-21985D01*
X52016Y-22009D01*
X52040Y-22033D01*
X52064Y-22080D01*
X52064Y-22271D01*
X52159Y-21795D02*
X52159Y-21557D01*
X52302Y-21842D02*
X51802Y-21676D01*
X52302Y-21509D01*
X52302Y-21342D02*
X51802Y-21342D01*
X51802Y-21223D01*
X51826Y-21152D01*
X51873Y-21104D01*
X51921Y-21080D01*
X52016Y-21057D01*
X52088Y-21057D01*
X52183Y-21080D01*
X52230Y-21104D01*
X52278Y-21152D01*
X52302Y-21223D01*
X52302Y-21342D01*
X52040Y-20842D02*
X52040Y-20676D01*
X52302Y-20604D02*
X52302Y-20842D01*
X51802Y-20842D01*
X51802Y-20604D01*
X52302Y-20128D02*
X52302Y-20414D01*
X52302Y-20271D02*
X51802Y-20271D01*
X51873Y-20319D01*
X51921Y-20366D01*
X51945Y-20414D01*
X45852Y-23116D02*
X46209Y-23116D01*
X46280Y-23140D01*
X46328Y-23188D01*
X46352Y-23259D01*
X46352Y-23307D01*
X45852Y-22926D02*
X45852Y-22592D01*
X46352Y-22807D01*
X47378Y-22721D02*
X47402Y-22650D01*
X47402Y-22530D01*
X47378Y-22483D01*
X47354Y-22459D01*
X47307Y-22435D01*
X47259Y-22435D01*
X47211Y-22459D01*
X47188Y-22483D01*
X47164Y-22530D01*
X47140Y-22626D01*
X47116Y-22673D01*
X47092Y-22697D01*
X47045Y-22721D01*
X46997Y-22721D01*
X46950Y-22697D01*
X46926Y-22673D01*
X46902Y-22626D01*
X46902Y-22507D01*
X46926Y-22435D01*
X47402Y-22221D02*
X46902Y-22221D01*
X46902Y-22030D01*
X46926Y-21983D01*
X46950Y-21959D01*
X46997Y-21935D01*
X47069Y-21935D01*
X47116Y-21959D01*
X47140Y-21983D01*
X47164Y-22030D01*
X47164Y-22221D01*
X47259Y-21745D02*
X47259Y-21507D01*
X47402Y-21792D02*
X46902Y-21626D01*
X47402Y-21459D01*
X47402Y-21292D02*
X46902Y-21292D01*
X46902Y-21173D01*
X46926Y-21102D01*
X46973Y-21054D01*
X47021Y-21030D01*
X47116Y-21007D01*
X47188Y-21007D01*
X47283Y-21030D01*
X47330Y-21054D01*
X47378Y-21102D01*
X47402Y-21173D01*
X47402Y-21292D01*
X47140Y-20792D02*
X47140Y-20626D01*
X47402Y-20554D02*
X47402Y-20792D01*
X46902Y-20792D01*
X46902Y-20554D01*
X47402Y-20078D02*
X47402Y-20364D01*
X47402Y-20221D02*
X46902Y-20221D01*
X46973Y-20269D01*
X47021Y-20316D01*
X47045Y-20364D01*
G54D26*
X50186Y-49774D02*
X50183Y-49778D01*
X50171Y-49781D01*
X50164Y-49781D01*
X50152Y-49778D01*
X50145Y-49770D01*
X50141Y-49763D01*
X50137Y-49748D01*
X50137Y-49736D01*
X50141Y-49721D01*
X50145Y-49714D01*
X50152Y-49706D01*
X50164Y-49702D01*
X50171Y-49702D01*
X50183Y-49706D01*
X50186Y-49710D01*
X50258Y-49702D02*
X50220Y-49702D01*
X50216Y-49740D01*
X50220Y-49736D01*
X50228Y-49733D01*
X50247Y-49733D01*
X50254Y-49736D01*
X50258Y-49740D01*
X50262Y-49748D01*
X50262Y-49766D01*
X50258Y-49774D01*
X50254Y-49778D01*
X50247Y-49781D01*
X50228Y-49781D01*
X50220Y-49778D01*
X50216Y-49774D01*
X48186Y-49074D02*
X48183Y-49078D01*
X48171Y-49081D01*
X48164Y-49081D01*
X48152Y-49078D01*
X48145Y-49070D01*
X48141Y-49063D01*
X48137Y-49048D01*
X48137Y-49036D01*
X48141Y-49021D01*
X48145Y-49014D01*
X48152Y-49006D01*
X48164Y-49002D01*
X48171Y-49002D01*
X48183Y-49006D01*
X48186Y-49010D01*
X48254Y-49029D02*
X48254Y-49081D01*
X48235Y-48999D02*
X48216Y-49055D01*
X48265Y-49055D01*
X46424Y-49213D02*
X46428Y-49216D01*
X46431Y-49228D01*
X46431Y-49235D01*
X46428Y-49247D01*
X46420Y-49254D01*
X46413Y-49258D01*
X46398Y-49262D01*
X46386Y-49262D01*
X46371Y-49258D01*
X46364Y-49254D01*
X46356Y-49247D01*
X46352Y-49235D01*
X46352Y-49228D01*
X46356Y-49216D01*
X46360Y-49213D01*
X46352Y-49186D02*
X46352Y-49137D01*
X46383Y-49164D01*
X46383Y-49152D01*
X46386Y-49145D01*
X46390Y-49141D01*
X46398Y-49137D01*
X46416Y-49137D01*
X46424Y-49141D01*
X46428Y-49145D01*
X46431Y-49152D01*
X46431Y-49175D01*
X46428Y-49183D01*
X46424Y-49186D01*
X44974Y-51413D02*
X44978Y-51416D01*
X44981Y-51428D01*
X44981Y-51435D01*
X44978Y-51447D01*
X44970Y-51454D01*
X44963Y-51458D01*
X44948Y-51462D01*
X44936Y-51462D01*
X44921Y-51458D01*
X44914Y-51454D01*
X44906Y-51447D01*
X44902Y-51435D01*
X44902Y-51428D01*
X44906Y-51416D01*
X44910Y-51413D01*
X44910Y-51383D02*
X44906Y-51379D01*
X44902Y-51371D01*
X44902Y-51352D01*
X44906Y-51345D01*
X44910Y-51341D01*
X44918Y-51337D01*
X44925Y-51337D01*
X44936Y-51341D01*
X44981Y-51386D01*
X44981Y-51337D01*
X47399Y-31324D02*
X47395Y-31328D01*
X47384Y-31331D01*
X47376Y-31331D01*
X47365Y-31328D01*
X47357Y-31320D01*
X47354Y-31313D01*
X47350Y-31298D01*
X47350Y-31286D01*
X47354Y-31271D01*
X47357Y-31264D01*
X47365Y-31256D01*
X47376Y-31252D01*
X47384Y-31252D01*
X47395Y-31256D01*
X47399Y-31260D01*
X47474Y-31331D02*
X47429Y-31331D01*
X47451Y-31331D02*
X47451Y-31252D01*
X47444Y-31264D01*
X47436Y-31271D01*
X47429Y-31275D01*
X47523Y-31252D02*
X47530Y-31252D01*
X47538Y-31256D01*
X47542Y-31260D01*
X47545Y-31268D01*
X47549Y-31283D01*
X47549Y-31301D01*
X47545Y-31316D01*
X47542Y-31324D01*
X47538Y-31328D01*
X47530Y-31331D01*
X47523Y-31331D01*
X47515Y-31328D01*
X47512Y-31324D01*
X47508Y-31316D01*
X47504Y-31301D01*
X47504Y-31283D01*
X47508Y-31268D01*
X47512Y-31260D01*
X47515Y-31256D01*
X47523Y-31252D01*
X49924Y-31863D02*
X49928Y-31866D01*
X49931Y-31878D01*
X49931Y-31885D01*
X49928Y-31897D01*
X49920Y-31904D01*
X49913Y-31908D01*
X49898Y-31912D01*
X49886Y-31912D01*
X49871Y-31908D01*
X49864Y-31904D01*
X49856Y-31897D01*
X49852Y-31885D01*
X49852Y-31878D01*
X49856Y-31866D01*
X49860Y-31863D01*
X49931Y-31825D02*
X49931Y-31810D01*
X49928Y-31802D01*
X49924Y-31799D01*
X49913Y-31791D01*
X49898Y-31787D01*
X49868Y-31787D01*
X49860Y-31791D01*
X49856Y-31795D01*
X49852Y-31802D01*
X49852Y-31818D01*
X49856Y-31825D01*
X49860Y-31829D01*
X49868Y-31833D01*
X49886Y-31833D01*
X49894Y-31829D01*
X49898Y-31825D01*
X49901Y-31818D01*
X49901Y-31802D01*
X49898Y-31795D01*
X49894Y-31791D01*
X49886Y-31787D01*
X51036Y-31874D02*
X51033Y-31878D01*
X51021Y-31881D01*
X51014Y-31881D01*
X51002Y-31878D01*
X50995Y-31870D01*
X50991Y-31863D01*
X50987Y-31848D01*
X50987Y-31836D01*
X50991Y-31821D01*
X50995Y-31814D01*
X51002Y-31806D01*
X51014Y-31802D01*
X51021Y-31802D01*
X51033Y-31806D01*
X51036Y-31810D01*
X51081Y-31836D02*
X51074Y-31833D01*
X51070Y-31829D01*
X51066Y-31821D01*
X51066Y-31818D01*
X51070Y-31810D01*
X51074Y-31806D01*
X51081Y-31802D01*
X51097Y-31802D01*
X51104Y-31806D01*
X51108Y-31810D01*
X51112Y-31818D01*
X51112Y-31821D01*
X51108Y-31829D01*
X51104Y-31833D01*
X51097Y-31836D01*
X51081Y-31836D01*
X51074Y-31840D01*
X51070Y-31844D01*
X51066Y-31851D01*
X51066Y-31866D01*
X51070Y-31874D01*
X51074Y-31878D01*
X51081Y-31881D01*
X51097Y-31881D01*
X51104Y-31878D01*
X51108Y-31874D01*
X51112Y-31866D01*
X51112Y-31851D01*
X51108Y-31844D01*
X51104Y-31840D01*
X51097Y-31836D01*
X52974Y-30213D02*
X52978Y-30216D01*
X52981Y-30228D01*
X52981Y-30235D01*
X52978Y-30247D01*
X52970Y-30254D01*
X52963Y-30258D01*
X52948Y-30262D01*
X52936Y-30262D01*
X52921Y-30258D01*
X52914Y-30254D01*
X52906Y-30247D01*
X52902Y-30235D01*
X52902Y-30228D01*
X52906Y-30216D01*
X52910Y-30213D01*
X52902Y-30186D02*
X52902Y-30134D01*
X52981Y-30168D01*
X46924Y-36863D02*
X46928Y-36866D01*
X46931Y-36878D01*
X46931Y-36885D01*
X46928Y-36897D01*
X46920Y-36904D01*
X46913Y-36908D01*
X46898Y-36912D01*
X46886Y-36912D01*
X46871Y-36908D01*
X46864Y-36904D01*
X46856Y-36897D01*
X46852Y-36885D01*
X46852Y-36878D01*
X46856Y-36866D01*
X46860Y-36863D01*
X46852Y-36795D02*
X46852Y-36810D01*
X46856Y-36818D01*
X46860Y-36821D01*
X46871Y-36829D01*
X46886Y-36833D01*
X46916Y-36833D01*
X46924Y-36829D01*
X46928Y-36825D01*
X46931Y-36818D01*
X46931Y-36802D01*
X46928Y-36795D01*
X46924Y-36791D01*
X46916Y-36787D01*
X46898Y-36787D01*
X46890Y-36791D01*
X46886Y-36795D01*
X46883Y-36802D01*
X46883Y-36818D01*
X46886Y-36825D01*
X46890Y-36829D01*
X46898Y-36833D01*
X49874Y-44063D02*
X49878Y-44066D01*
X49881Y-44078D01*
X49881Y-44085D01*
X49878Y-44097D01*
X49870Y-44104D01*
X49863Y-44108D01*
X49848Y-44112D01*
X49836Y-44112D01*
X49821Y-44108D01*
X49814Y-44104D01*
X49806Y-44097D01*
X49802Y-44085D01*
X49802Y-44078D01*
X49806Y-44066D01*
X49810Y-44063D01*
X49881Y-43987D02*
X49881Y-44033D01*
X49881Y-44010D02*
X49802Y-44010D01*
X49814Y-44018D01*
X49821Y-44025D01*
X49825Y-44033D01*
X37374Y-40050D02*
X37378Y-40054D01*
X37381Y-40065D01*
X37381Y-40073D01*
X37378Y-40084D01*
X37370Y-40092D01*
X37363Y-40095D01*
X37348Y-40099D01*
X37336Y-40099D01*
X37321Y-40095D01*
X37314Y-40092D01*
X37306Y-40084D01*
X37302Y-40073D01*
X37302Y-40065D01*
X37306Y-40054D01*
X37310Y-40050D01*
X37381Y-39975D02*
X37381Y-40020D01*
X37381Y-39998D02*
X37302Y-39998D01*
X37314Y-40005D01*
X37321Y-40013D01*
X37325Y-40020D01*
X37310Y-39945D02*
X37306Y-39941D01*
X37302Y-39934D01*
X37302Y-39915D01*
X37306Y-39907D01*
X37310Y-39904D01*
X37318Y-39900D01*
X37325Y-39900D01*
X37336Y-39904D01*
X37381Y-39949D01*
X37381Y-39900D01*
X44349Y-24274D02*
X44345Y-24278D01*
X44334Y-24281D01*
X44326Y-24281D01*
X44315Y-24278D01*
X44307Y-24270D01*
X44304Y-24263D01*
X44300Y-24248D01*
X44300Y-24236D01*
X44304Y-24221D01*
X44307Y-24214D01*
X44315Y-24206D01*
X44326Y-24202D01*
X44334Y-24202D01*
X44345Y-24206D01*
X44349Y-24210D01*
X44424Y-24281D02*
X44379Y-24281D01*
X44401Y-24281D02*
X44401Y-24202D01*
X44394Y-24214D01*
X44386Y-24221D01*
X44379Y-24225D01*
X44499Y-24281D02*
X44454Y-24281D01*
X44477Y-24281D02*
X44477Y-24202D01*
X44469Y-24214D01*
X44462Y-24221D01*
X44454Y-24225D01*
G54D20*
X60115Y-35215D02*
X59958Y-35215D01*
X59958Y-35178D01*
X59966Y-35156D01*
X59980Y-35141D01*
X59995Y-35133D01*
X60025Y-35126D01*
X60048Y-35126D01*
X60078Y-35133D01*
X60093Y-35141D01*
X60108Y-35156D01*
X60115Y-35178D01*
X60115Y-35215D01*
X60115Y-34976D02*
X60115Y-35066D01*
X60115Y-35021D02*
X59958Y-35021D01*
X59980Y-35036D01*
X59995Y-35051D01*
X60003Y-35066D01*
X61315Y-35215D02*
X61158Y-35215D01*
X61158Y-35178D01*
X61166Y-35156D01*
X61180Y-35141D01*
X61195Y-35133D01*
X61225Y-35126D01*
X61248Y-35126D01*
X61278Y-35133D01*
X61293Y-35141D01*
X61308Y-35156D01*
X61315Y-35178D01*
X61315Y-35215D01*
X61173Y-35066D02*
X61166Y-35058D01*
X61158Y-35043D01*
X61158Y-35006D01*
X61166Y-34991D01*
X61173Y-34984D01*
X61188Y-34976D01*
X61203Y-34976D01*
X61225Y-34984D01*
X61315Y-35073D01*
X61315Y-34976D01*
X62515Y-35215D02*
X62358Y-35215D01*
X62358Y-35178D01*
X62366Y-35156D01*
X62380Y-35141D01*
X62395Y-35133D01*
X62425Y-35126D01*
X62448Y-35126D01*
X62478Y-35133D01*
X62493Y-35141D01*
X62508Y-35156D01*
X62515Y-35178D01*
X62515Y-35215D01*
X62358Y-35073D02*
X62358Y-34976D01*
X62418Y-35028D01*
X62418Y-35006D01*
X62425Y-34991D01*
X62433Y-34984D01*
X62448Y-34976D01*
X62485Y-34976D01*
X62500Y-34984D01*
X62508Y-34991D01*
X62515Y-35006D01*
X62515Y-35051D01*
X62508Y-35066D01*
X62500Y-35073D01*
X63715Y-35215D02*
X63558Y-35215D01*
X63558Y-35178D01*
X63566Y-35156D01*
X63580Y-35141D01*
X63595Y-35133D01*
X63625Y-35126D01*
X63648Y-35126D01*
X63678Y-35133D01*
X63693Y-35141D01*
X63708Y-35156D01*
X63715Y-35178D01*
X63715Y-35215D01*
X63610Y-34991D02*
X63715Y-34991D01*
X63551Y-35028D02*
X63663Y-35066D01*
X63663Y-34969D01*
G54D22*
X60083Y-33813D02*
X60046Y-33839D01*
X60083Y-33858D02*
X60004Y-33858D01*
X60004Y-33828D01*
X60008Y-33820D01*
X60012Y-33816D01*
X60020Y-33813D01*
X60031Y-33813D01*
X60038Y-33816D01*
X60042Y-33820D01*
X60046Y-33828D01*
X60046Y-33858D01*
X60083Y-33737D02*
X60083Y-33783D01*
X60083Y-33760D02*
X60004Y-33760D01*
X60016Y-33768D01*
X60023Y-33775D01*
X60027Y-33783D01*
G54D23*
G54D22*
X61283Y-33813D02*
X61246Y-33839D01*
X61283Y-33858D02*
X61204Y-33858D01*
X61204Y-33828D01*
X61208Y-33820D01*
X61212Y-33816D01*
X61220Y-33813D01*
X61231Y-33813D01*
X61238Y-33816D01*
X61242Y-33820D01*
X61246Y-33828D01*
X61246Y-33858D01*
X61212Y-33783D02*
X61208Y-33779D01*
X61204Y-33771D01*
X61204Y-33752D01*
X61208Y-33745D01*
X61212Y-33741D01*
X61220Y-33737D01*
X61227Y-33737D01*
X61238Y-33741D01*
X61283Y-33786D01*
X61283Y-33737D01*
G54D23*
G54D22*
X62483Y-33813D02*
X62446Y-33839D01*
X62483Y-33858D02*
X62404Y-33858D01*
X62404Y-33828D01*
X62408Y-33820D01*
X62412Y-33816D01*
X62420Y-33813D01*
X62431Y-33813D01*
X62438Y-33816D01*
X62442Y-33820D01*
X62446Y-33828D01*
X62446Y-33858D01*
X62404Y-33786D02*
X62404Y-33737D01*
X62435Y-33764D01*
X62435Y-33752D01*
X62438Y-33745D01*
X62442Y-33741D01*
X62450Y-33737D01*
X62468Y-33737D01*
X62476Y-33741D01*
X62480Y-33745D01*
X62483Y-33752D01*
X62483Y-33775D01*
X62480Y-33783D01*
X62476Y-33786D01*
G54D23*
G54D22*
X63683Y-33813D02*
X63646Y-33839D01*
X63683Y-33858D02*
X63604Y-33858D01*
X63604Y-33828D01*
X63608Y-33820D01*
X63612Y-33816D01*
X63620Y-33813D01*
X63631Y-33813D01*
X63638Y-33816D01*
X63642Y-33820D01*
X63646Y-33828D01*
X63646Y-33858D01*
X63631Y-33745D02*
X63683Y-33745D01*
X63601Y-33764D02*
X63657Y-33783D01*
X63657Y-33734D01*
G54D23*
G54D22*
X34983Y-26713D02*
X34946Y-26739D01*
X34983Y-26758D02*
X34904Y-26758D01*
X34904Y-26728D01*
X34908Y-26720D01*
X34912Y-26716D01*
X34920Y-26713D01*
X34931Y-26713D01*
X34938Y-26716D01*
X34942Y-26720D01*
X34946Y-26728D01*
X34946Y-26758D01*
X34904Y-26641D02*
X34904Y-26679D01*
X34942Y-26683D01*
X34938Y-26679D01*
X34935Y-26671D01*
X34935Y-26652D01*
X34938Y-26645D01*
X34942Y-26641D01*
X34950Y-26637D01*
X34968Y-26637D01*
X34976Y-26641D01*
X34980Y-26645D01*
X34983Y-26652D01*
X34983Y-26671D01*
X34980Y-26679D01*
X34976Y-26683D01*
G54D23*
G54D22*
X35079Y-30013D02*
X35042Y-30039D01*
X35079Y-30058D02*
X35000Y-30058D01*
X35000Y-30028D01*
X35004Y-30020D01*
X35008Y-30016D01*
X35016Y-30013D01*
X35027Y-30013D01*
X35034Y-30016D01*
X35038Y-30020D01*
X35042Y-30028D01*
X35042Y-30058D01*
X35000Y-29945D02*
X35000Y-29960D01*
X35004Y-29968D01*
X35008Y-29971D01*
X35019Y-29979D01*
X35034Y-29983D01*
X35064Y-29983D01*
X35072Y-29979D01*
X35076Y-29975D01*
X35079Y-29968D01*
X35079Y-29952D01*
X35076Y-29945D01*
X35072Y-29941D01*
X35064Y-29937D01*
X35046Y-29937D01*
X35038Y-29941D01*
X35034Y-29945D01*
X35031Y-29952D01*
X35031Y-29968D01*
X35034Y-29975D01*
X35038Y-29979D01*
X35046Y-29983D01*
G54D23*
G54D20*
X49049Y-36032D02*
X49049Y-36192D01*
X49059Y-36210D01*
X49068Y-36220D01*
X49087Y-36229D01*
X49124Y-36229D01*
X49143Y-36220D01*
X49153Y-36210D01*
X49162Y-36192D01*
X49162Y-36032D01*
X49237Y-36032D02*
X49368Y-36032D01*
X49284Y-36229D01*
X48332Y-35523D02*
X48426Y-35523D01*
X48313Y-35579D02*
X48379Y-35382D01*
X48444Y-35579D01*
X48594Y-35448D02*
X48594Y-35579D01*
X48548Y-35373D02*
X48501Y-35514D01*
X48623Y-35514D01*
X48707Y-35579D02*
X48745Y-35579D01*
X48763Y-35570D01*
X48773Y-35560D01*
X48791Y-35532D01*
X48801Y-35495D01*
X48801Y-35420D01*
X48791Y-35401D01*
X48782Y-35392D01*
X48763Y-35382D01*
X48726Y-35382D01*
X48707Y-35392D01*
X48698Y-35401D01*
X48688Y-35420D01*
X48688Y-35467D01*
X48698Y-35485D01*
X48707Y-35495D01*
X48726Y-35504D01*
X48763Y-35504D01*
X48782Y-35495D01*
X48791Y-35485D01*
X48801Y-35467D01*
X48913Y-35467D02*
X48895Y-35457D01*
X48885Y-35448D01*
X48876Y-35429D01*
X48876Y-35420D01*
X48885Y-35401D01*
X48895Y-35392D01*
X48913Y-35382D01*
X48951Y-35382D01*
X48970Y-35392D01*
X48979Y-35401D01*
X48988Y-35420D01*
X48988Y-35429D01*
X48979Y-35448D01*
X48970Y-35457D01*
X48951Y-35467D01*
X48913Y-35467D01*
X48895Y-35476D01*
X48885Y-35485D01*
X48876Y-35504D01*
X48876Y-35542D01*
X48885Y-35560D01*
X48895Y-35570D01*
X48913Y-35579D01*
X48951Y-35579D01*
X48970Y-35570D01*
X48979Y-35560D01*
X48988Y-35542D01*
X48988Y-35504D01*
X48979Y-35485D01*
X48970Y-35476D01*
X48951Y-35467D01*
X49063Y-35401D02*
X49073Y-35392D01*
X49092Y-35382D01*
X49139Y-35382D01*
X49157Y-35392D01*
X49167Y-35401D01*
X49176Y-35420D01*
X49176Y-35439D01*
X49167Y-35467D01*
X49054Y-35579D01*
X49176Y-35579D01*
X49251Y-35570D02*
X49279Y-35579D01*
X49326Y-35579D01*
X49345Y-35570D01*
X49354Y-35560D01*
X49364Y-35542D01*
X49364Y-35523D01*
X49354Y-35504D01*
X49345Y-35495D01*
X49326Y-35485D01*
X49289Y-35476D01*
X49270Y-35467D01*
X49260Y-35457D01*
X49251Y-35439D01*
X49251Y-35420D01*
X49260Y-35401D01*
X49270Y-35392D01*
X49289Y-35382D01*
X49336Y-35382D01*
X49364Y-35392D01*
X49542Y-35579D02*
X49448Y-35579D01*
X49448Y-35382D01*
X49608Y-35579D02*
X49608Y-35382D01*
X49683Y-35382D01*
X49701Y-35392D01*
X49711Y-35401D01*
X49720Y-35420D01*
X49720Y-35448D01*
X49711Y-35467D01*
X49701Y-35476D01*
X49683Y-35485D01*
X49608Y-35485D01*
X49776Y-35382D02*
X49889Y-35382D01*
X49833Y-35579D02*
X49833Y-35382D01*
X50067Y-35579D02*
X50002Y-35485D01*
X49955Y-35579D02*
X49955Y-35382D01*
X50030Y-35382D01*
X50048Y-35392D01*
X50058Y-35401D01*
X50067Y-35420D01*
X50067Y-35448D01*
X50058Y-35467D01*
X50048Y-35476D01*
X50030Y-35485D01*
X49955Y-35485D01*
X47499Y-44582D02*
X47499Y-44742D01*
X47509Y-44760D01*
X47518Y-44770D01*
X47537Y-44779D01*
X47574Y-44779D01*
X47593Y-44770D01*
X47603Y-44760D01*
X47612Y-44742D01*
X47612Y-44582D01*
X47800Y-44582D02*
X47706Y-44582D01*
X47696Y-44676D01*
X47706Y-44667D01*
X47725Y-44657D01*
X47771Y-44657D01*
X47790Y-44667D01*
X47800Y-44676D01*
X47809Y-44695D01*
X47809Y-44742D01*
X47800Y-44760D01*
X47790Y-44770D01*
X47771Y-44779D01*
X47725Y-44779D01*
X47706Y-44770D01*
X47696Y-44760D01*
X46782Y-45373D02*
X46876Y-45373D01*
X46763Y-45429D02*
X46829Y-45232D01*
X46894Y-45429D01*
X47044Y-45298D02*
X47044Y-45429D01*
X46998Y-45223D02*
X46951Y-45364D01*
X47073Y-45364D01*
X47157Y-45429D02*
X47195Y-45429D01*
X47213Y-45420D01*
X47223Y-45410D01*
X47241Y-45382D01*
X47251Y-45345D01*
X47251Y-45270D01*
X47241Y-45251D01*
X47232Y-45242D01*
X47213Y-45232D01*
X47176Y-45232D01*
X47157Y-45242D01*
X47148Y-45251D01*
X47138Y-45270D01*
X47138Y-45317D01*
X47148Y-45335D01*
X47157Y-45345D01*
X47176Y-45354D01*
X47213Y-45354D01*
X47232Y-45345D01*
X47241Y-45335D01*
X47251Y-45317D01*
X47363Y-45317D02*
X47345Y-45307D01*
X47335Y-45298D01*
X47326Y-45279D01*
X47326Y-45270D01*
X47335Y-45251D01*
X47345Y-45242D01*
X47363Y-45232D01*
X47401Y-45232D01*
X47420Y-45242D01*
X47429Y-45251D01*
X47438Y-45270D01*
X47438Y-45279D01*
X47429Y-45298D01*
X47420Y-45307D01*
X47401Y-45317D01*
X47363Y-45317D01*
X47345Y-45326D01*
X47335Y-45335D01*
X47326Y-45354D01*
X47326Y-45392D01*
X47335Y-45410D01*
X47345Y-45420D01*
X47363Y-45429D01*
X47401Y-45429D01*
X47420Y-45420D01*
X47429Y-45410D01*
X47438Y-45392D01*
X47438Y-45354D01*
X47429Y-45335D01*
X47420Y-45326D01*
X47401Y-45317D01*
X47513Y-45251D02*
X47523Y-45242D01*
X47542Y-45232D01*
X47589Y-45232D01*
X47607Y-45242D01*
X47617Y-45251D01*
X47626Y-45270D01*
X47626Y-45289D01*
X47617Y-45317D01*
X47504Y-45429D01*
X47626Y-45429D01*
X47701Y-45420D02*
X47729Y-45429D01*
X47776Y-45429D01*
X47795Y-45420D01*
X47804Y-45410D01*
X47814Y-45392D01*
X47814Y-45373D01*
X47804Y-45354D01*
X47795Y-45345D01*
X47776Y-45335D01*
X47739Y-45326D01*
X47720Y-45317D01*
X47710Y-45307D01*
X47701Y-45289D01*
X47701Y-45270D01*
X47710Y-45251D01*
X47720Y-45242D01*
X47739Y-45232D01*
X47786Y-45232D01*
X47814Y-45242D01*
X47992Y-45429D02*
X47898Y-45429D01*
X47898Y-45232D01*
X48058Y-45429D02*
X48058Y-45232D01*
X48133Y-45232D01*
X48151Y-45242D01*
X48161Y-45251D01*
X48170Y-45270D01*
X48170Y-45298D01*
X48161Y-45317D01*
X48151Y-45326D01*
X48133Y-45335D01*
X48058Y-45335D01*
X48226Y-45232D02*
X48339Y-45232D01*
X48283Y-45429D02*
X48283Y-45232D01*
X48517Y-45429D02*
X48452Y-45335D01*
X48405Y-45429D02*
X48405Y-45232D01*
X48480Y-45232D01*
X48498Y-45242D01*
X48508Y-45251D01*
X48517Y-45270D01*
X48517Y-45298D01*
X48508Y-45317D01*
X48498Y-45326D01*
X48480Y-45335D01*
X48405Y-45335D01*
G54D17*
X55708Y-42665D02*
X55708Y-42834D01*
X55697Y-42867D01*
X55675Y-42890D01*
X55641Y-42901D01*
X55619Y-42901D01*
X55944Y-42901D02*
X55810Y-42901D01*
X55877Y-42901D02*
X55877Y-42665D01*
X55855Y-42699D01*
X55832Y-42721D01*
X55810Y-42732D01*
X56147Y-42665D02*
X56102Y-42665D01*
X56079Y-42676D01*
X56068Y-42688D01*
X56046Y-42721D01*
X56034Y-42766D01*
X56034Y-42856D01*
X56046Y-42879D01*
X56057Y-42890D01*
X56079Y-42901D01*
X56124Y-42901D01*
X56147Y-42890D01*
X56158Y-42879D01*
X56169Y-42856D01*
X56169Y-42800D01*
X56158Y-42777D01*
X56147Y-42766D01*
X56124Y-42755D01*
X56079Y-42755D01*
X56057Y-42766D01*
X56046Y-42777D01*
X56034Y-42800D01*
X61871Y-38015D02*
X61871Y-38184D01*
X61860Y-38217D01*
X61837Y-38240D01*
X61803Y-38251D01*
X61781Y-38251D01*
X61972Y-38038D02*
X61983Y-38026D01*
X62006Y-38015D01*
X62062Y-38015D01*
X62084Y-38026D01*
X62096Y-38038D01*
X62107Y-38060D01*
X62107Y-38082D01*
X62096Y-38116D01*
X61961Y-38251D01*
X62107Y-38251D01*
G54D20*
X57749Y-44632D02*
X57749Y-44792D01*
X57759Y-44810D01*
X57768Y-44820D01*
X57787Y-44829D01*
X57824Y-44829D01*
X57843Y-44820D01*
X57853Y-44810D01*
X57862Y-44792D01*
X57862Y-44632D01*
X57946Y-44651D02*
X57956Y-44642D01*
X57975Y-44632D01*
X58021Y-44632D01*
X58040Y-44642D01*
X58050Y-44651D01*
X58059Y-44670D01*
X58059Y-44689D01*
X58050Y-44717D01*
X57937Y-44829D01*
X58059Y-44829D01*
X57032Y-45423D02*
X57126Y-45423D01*
X57013Y-45479D02*
X57079Y-45282D01*
X57144Y-45479D01*
X57294Y-45348D02*
X57294Y-45479D01*
X57248Y-45273D02*
X57201Y-45414D01*
X57323Y-45414D01*
X57407Y-45479D02*
X57445Y-45479D01*
X57463Y-45470D01*
X57473Y-45460D01*
X57491Y-45432D01*
X57501Y-45395D01*
X57501Y-45320D01*
X57491Y-45301D01*
X57482Y-45292D01*
X57463Y-45282D01*
X57426Y-45282D01*
X57407Y-45292D01*
X57398Y-45301D01*
X57388Y-45320D01*
X57388Y-45367D01*
X57398Y-45385D01*
X57407Y-45395D01*
X57426Y-45404D01*
X57463Y-45404D01*
X57482Y-45395D01*
X57491Y-45385D01*
X57501Y-45367D01*
X57613Y-45367D02*
X57595Y-45357D01*
X57585Y-45348D01*
X57576Y-45329D01*
X57576Y-45320D01*
X57585Y-45301D01*
X57595Y-45292D01*
X57613Y-45282D01*
X57651Y-45282D01*
X57670Y-45292D01*
X57679Y-45301D01*
X57688Y-45320D01*
X57688Y-45329D01*
X57679Y-45348D01*
X57670Y-45357D01*
X57651Y-45367D01*
X57613Y-45367D01*
X57595Y-45376D01*
X57585Y-45385D01*
X57576Y-45404D01*
X57576Y-45442D01*
X57585Y-45460D01*
X57595Y-45470D01*
X57613Y-45479D01*
X57651Y-45479D01*
X57670Y-45470D01*
X57679Y-45460D01*
X57688Y-45442D01*
X57688Y-45404D01*
X57679Y-45385D01*
X57670Y-45376D01*
X57651Y-45367D01*
X57763Y-45301D02*
X57773Y-45292D01*
X57792Y-45282D01*
X57839Y-45282D01*
X57857Y-45292D01*
X57867Y-45301D01*
X57876Y-45320D01*
X57876Y-45339D01*
X57867Y-45367D01*
X57754Y-45479D01*
X57876Y-45479D01*
X57951Y-45470D02*
X57979Y-45479D01*
X58026Y-45479D01*
X58045Y-45470D01*
X58054Y-45460D01*
X58064Y-45442D01*
X58064Y-45423D01*
X58054Y-45404D01*
X58045Y-45395D01*
X58026Y-45385D01*
X57989Y-45376D01*
X57970Y-45367D01*
X57960Y-45357D01*
X57951Y-45339D01*
X57951Y-45320D01*
X57960Y-45301D01*
X57970Y-45292D01*
X57989Y-45282D01*
X58036Y-45282D01*
X58064Y-45292D01*
X58242Y-45479D02*
X58148Y-45479D01*
X58148Y-45282D01*
X58308Y-45479D02*
X58308Y-45282D01*
X58383Y-45282D01*
X58401Y-45292D01*
X58411Y-45301D01*
X58420Y-45320D01*
X58420Y-45348D01*
X58411Y-45367D01*
X58401Y-45376D01*
X58383Y-45385D01*
X58308Y-45385D01*
X58476Y-45282D02*
X58589Y-45282D01*
X58533Y-45479D02*
X58533Y-45282D01*
X58767Y-45479D02*
X58702Y-45385D01*
X58655Y-45479D02*
X58655Y-45282D01*
X58730Y-45282D01*
X58748Y-45292D01*
X58758Y-45301D01*
X58767Y-45320D01*
X58767Y-45348D01*
X58758Y-45367D01*
X58748Y-45376D01*
X58730Y-45385D01*
X58655Y-45385D01*
X57599Y-36532D02*
X57599Y-36692D01*
X57609Y-36710D01*
X57618Y-36720D01*
X57637Y-36729D01*
X57674Y-36729D01*
X57693Y-36720D01*
X57703Y-36710D01*
X57712Y-36692D01*
X57712Y-36532D01*
X57909Y-36729D02*
X57796Y-36729D01*
X57853Y-36729D02*
X57853Y-36532D01*
X57834Y-36560D01*
X57815Y-36579D01*
X57796Y-36589D01*
X56882Y-36023D02*
X56976Y-36023D01*
X56863Y-36079D02*
X56929Y-35882D01*
X56994Y-36079D01*
X57144Y-35948D02*
X57144Y-36079D01*
X57098Y-35873D02*
X57051Y-36014D01*
X57173Y-36014D01*
X57257Y-36079D02*
X57295Y-36079D01*
X57313Y-36070D01*
X57323Y-36060D01*
X57341Y-36032D01*
X57351Y-35995D01*
X57351Y-35920D01*
X57341Y-35901D01*
X57332Y-35892D01*
X57313Y-35882D01*
X57276Y-35882D01*
X57257Y-35892D01*
X57248Y-35901D01*
X57238Y-35920D01*
X57238Y-35967D01*
X57248Y-35985D01*
X57257Y-35995D01*
X57276Y-36004D01*
X57313Y-36004D01*
X57332Y-35995D01*
X57341Y-35985D01*
X57351Y-35967D01*
X57463Y-35967D02*
X57445Y-35957D01*
X57435Y-35948D01*
X57426Y-35929D01*
X57426Y-35920D01*
X57435Y-35901D01*
X57445Y-35892D01*
X57463Y-35882D01*
X57501Y-35882D01*
X57520Y-35892D01*
X57529Y-35901D01*
X57538Y-35920D01*
X57538Y-35929D01*
X57529Y-35948D01*
X57520Y-35957D01*
X57501Y-35967D01*
X57463Y-35967D01*
X57445Y-35976D01*
X57435Y-35985D01*
X57426Y-36004D01*
X57426Y-36042D01*
X57435Y-36060D01*
X57445Y-36070D01*
X57463Y-36079D01*
X57501Y-36079D01*
X57520Y-36070D01*
X57529Y-36060D01*
X57538Y-36042D01*
X57538Y-36004D01*
X57529Y-35985D01*
X57520Y-35976D01*
X57501Y-35967D01*
X57613Y-35901D02*
X57623Y-35892D01*
X57642Y-35882D01*
X57689Y-35882D01*
X57707Y-35892D01*
X57717Y-35901D01*
X57726Y-35920D01*
X57726Y-35939D01*
X57717Y-35967D01*
X57604Y-36079D01*
X57726Y-36079D01*
X57801Y-36070D02*
X57829Y-36079D01*
X57876Y-36079D01*
X57895Y-36070D01*
X57904Y-36060D01*
X57914Y-36042D01*
X57914Y-36023D01*
X57904Y-36004D01*
X57895Y-35995D01*
X57876Y-35985D01*
X57839Y-35976D01*
X57820Y-35967D01*
X57810Y-35957D01*
X57801Y-35939D01*
X57801Y-35920D01*
X57810Y-35901D01*
X57820Y-35892D01*
X57839Y-35882D01*
X57886Y-35882D01*
X57914Y-35892D01*
X58092Y-36079D02*
X57998Y-36079D01*
X57998Y-35882D01*
X58158Y-36079D02*
X58158Y-35882D01*
X58233Y-35882D01*
X58251Y-35892D01*
X58261Y-35901D01*
X58270Y-35920D01*
X58270Y-35948D01*
X58261Y-35967D01*
X58251Y-35976D01*
X58233Y-35985D01*
X58158Y-35985D01*
X58326Y-35882D02*
X58439Y-35882D01*
X58383Y-36079D02*
X58383Y-35882D01*
X58617Y-36079D02*
X58552Y-35985D01*
X58505Y-36079D02*
X58505Y-35882D01*
X58580Y-35882D01*
X58598Y-35892D01*
X58608Y-35901D01*
X58617Y-35920D01*
X58617Y-35948D01*
X58608Y-35967D01*
X58598Y-35976D01*
X58580Y-35985D01*
X58505Y-35985D01*
X55860Y-35300D02*
X55785Y-35353D01*
X55860Y-35390D02*
X55703Y-35390D01*
X55703Y-35330D01*
X55711Y-35315D01*
X55718Y-35308D01*
X55733Y-35300D01*
X55755Y-35300D01*
X55770Y-35308D01*
X55778Y-35315D01*
X55785Y-35330D01*
X55785Y-35390D01*
X55860Y-35151D02*
X55860Y-35241D01*
X55860Y-35196D02*
X55703Y-35196D01*
X55725Y-35211D01*
X55740Y-35226D01*
X55748Y-35241D01*
X55703Y-35054D02*
X55703Y-35039D01*
X55711Y-35024D01*
X55718Y-35016D01*
X55733Y-35009D01*
X55763Y-35001D01*
X55800Y-35001D01*
X55830Y-35009D01*
X55845Y-35016D01*
X55853Y-35024D01*
X55860Y-35039D01*
X55860Y-35054D01*
X55853Y-35069D01*
X55845Y-35076D01*
X55830Y-35084D01*
X55800Y-35091D01*
X55763Y-35091D01*
X55733Y-35084D01*
X55718Y-35076D01*
X55711Y-35069D01*
X55703Y-35054D01*
X60499Y-37960D02*
X60446Y-37885D01*
X60409Y-37960D02*
X60409Y-37803D01*
X60469Y-37803D01*
X60484Y-37811D01*
X60491Y-37818D01*
X60499Y-37833D01*
X60499Y-37855D01*
X60491Y-37870D01*
X60484Y-37878D01*
X60469Y-37885D01*
X60409Y-37885D01*
X60648Y-37960D02*
X60558Y-37960D01*
X60603Y-37960D02*
X60603Y-37803D01*
X60588Y-37825D01*
X60573Y-37840D01*
X60558Y-37848D01*
X60798Y-37960D02*
X60708Y-37960D01*
X60753Y-37960D02*
X60753Y-37803D01*
X60738Y-37825D01*
X60723Y-37840D01*
X60708Y-37848D01*
X60910Y-48050D02*
X60835Y-48103D01*
X60910Y-48140D02*
X60753Y-48140D01*
X60753Y-48080D01*
X60761Y-48065D01*
X60768Y-48058D01*
X60783Y-48050D01*
X60805Y-48050D01*
X60820Y-48058D01*
X60828Y-48065D01*
X60835Y-48080D01*
X60835Y-48140D01*
X60910Y-47901D02*
X60910Y-47991D01*
X60910Y-47946D02*
X60753Y-47946D01*
X60775Y-47961D01*
X60790Y-47976D01*
X60798Y-47991D01*
X60753Y-47759D02*
X60753Y-47834D01*
X60828Y-47841D01*
X60820Y-47834D01*
X60813Y-47819D01*
X60813Y-47781D01*
X60820Y-47766D01*
X60828Y-47759D01*
X60843Y-47751D01*
X60880Y-47751D01*
X60895Y-47759D01*
X60903Y-47766D01*
X60910Y-47781D01*
X60910Y-47819D01*
X60903Y-47834D01*
X60895Y-47841D01*
X55313Y-47300D02*
X55238Y-47353D01*
X55313Y-47390D02*
X55156Y-47390D01*
X55156Y-47330D01*
X55164Y-47315D01*
X55171Y-47308D01*
X55186Y-47300D01*
X55208Y-47300D01*
X55223Y-47308D01*
X55231Y-47315D01*
X55238Y-47330D01*
X55238Y-47390D01*
X55313Y-47151D02*
X55313Y-47241D01*
X55313Y-47196D02*
X55156Y-47196D01*
X55178Y-47211D01*
X55193Y-47226D01*
X55201Y-47241D01*
X55156Y-47016D02*
X55156Y-47046D01*
X55164Y-47061D01*
X55171Y-47069D01*
X55193Y-47084D01*
X55223Y-47091D01*
X55283Y-47091D01*
X55298Y-47084D01*
X55306Y-47076D01*
X55313Y-47061D01*
X55313Y-47031D01*
X55306Y-47016D01*
X55298Y-47009D01*
X55283Y-47001D01*
X55246Y-47001D01*
X55231Y-47009D01*
X55223Y-47016D01*
X55216Y-47031D01*
X55216Y-47061D01*
X55223Y-47076D01*
X55231Y-47084D01*
X55246Y-47091D01*
G54D22*
X62133Y-44150D02*
X62096Y-44177D01*
X62133Y-44195D02*
X62054Y-44195D01*
X62054Y-44165D01*
X62058Y-44158D01*
X62062Y-44154D01*
X62070Y-44150D01*
X62081Y-44150D01*
X62088Y-44154D01*
X62092Y-44158D01*
X62096Y-44165D01*
X62096Y-44195D01*
X62133Y-44075D02*
X62133Y-44120D01*
X62133Y-44098D02*
X62054Y-44098D01*
X62066Y-44105D01*
X62073Y-44113D01*
X62077Y-44120D01*
X62054Y-44049D02*
X62054Y-44000D01*
X62085Y-44026D01*
X62085Y-44015D01*
X62088Y-44007D01*
X62092Y-44004D01*
X62100Y-44000D01*
X62118Y-44000D01*
X62126Y-44004D01*
X62130Y-44007D01*
X62133Y-44015D01*
X62133Y-44037D01*
X62130Y-44045D01*
X62126Y-44049D01*
G54D23*
G54D22*
X63079Y-44150D02*
X63042Y-44177D01*
X63079Y-44195D02*
X63000Y-44195D01*
X63000Y-44165D01*
X63004Y-44158D01*
X63008Y-44154D01*
X63016Y-44150D01*
X63027Y-44150D01*
X63034Y-44154D01*
X63038Y-44158D01*
X63042Y-44165D01*
X63042Y-44195D01*
X63079Y-44075D02*
X63079Y-44120D01*
X63079Y-44098D02*
X63000Y-44098D01*
X63012Y-44105D01*
X63019Y-44113D01*
X63023Y-44120D01*
X63027Y-44007D02*
X63079Y-44007D01*
X62997Y-44026D02*
X63053Y-44045D01*
X63053Y-43996D01*
G54D23*
G54D22*
X65236Y-35733D02*
X65210Y-35696D01*
X65191Y-35733D02*
X65191Y-35654D01*
X65221Y-35654D01*
X65229Y-35658D01*
X65233Y-35662D01*
X65236Y-35670D01*
X65236Y-35681D01*
X65233Y-35688D01*
X65229Y-35692D01*
X65221Y-35696D01*
X65191Y-35696D01*
X65263Y-35654D02*
X65315Y-35654D01*
X65281Y-35733D01*
G54D23*
G54D22*
X58833Y-39713D02*
X58796Y-39739D01*
X58833Y-39758D02*
X58754Y-39758D01*
X58754Y-39728D01*
X58758Y-39720D01*
X58762Y-39716D01*
X58770Y-39713D01*
X58781Y-39713D01*
X58788Y-39716D01*
X58792Y-39720D01*
X58796Y-39728D01*
X58796Y-39758D01*
X58788Y-39668D02*
X58785Y-39675D01*
X58781Y-39679D01*
X58773Y-39683D01*
X58770Y-39683D01*
X58762Y-39679D01*
X58758Y-39675D01*
X58754Y-39668D01*
X58754Y-39652D01*
X58758Y-39645D01*
X58762Y-39641D01*
X58770Y-39637D01*
X58773Y-39637D01*
X58781Y-39641D01*
X58785Y-39645D01*
X58788Y-39652D01*
X58788Y-39668D01*
X58792Y-39675D01*
X58796Y-39679D01*
X58803Y-39683D01*
X58818Y-39683D01*
X58826Y-39679D01*
X58830Y-39675D01*
X58833Y-39668D01*
X58833Y-39652D01*
X58830Y-39645D01*
X58826Y-39641D01*
X58818Y-39637D01*
X58803Y-39637D01*
X58796Y-39641D01*
X58792Y-39645D01*
X58788Y-39652D01*
G54D23*
G54D22*
X58229Y-39713D02*
X58192Y-39739D01*
X58229Y-39758D02*
X58150Y-39758D01*
X58150Y-39728D01*
X58154Y-39720D01*
X58158Y-39716D01*
X58166Y-39713D01*
X58177Y-39713D01*
X58184Y-39716D01*
X58188Y-39720D01*
X58192Y-39728D01*
X58192Y-39758D01*
X58229Y-39675D02*
X58229Y-39660D01*
X58226Y-39652D01*
X58222Y-39649D01*
X58211Y-39641D01*
X58196Y-39637D01*
X58166Y-39637D01*
X58158Y-39641D01*
X58154Y-39645D01*
X58150Y-39652D01*
X58150Y-39668D01*
X58154Y-39675D01*
X58158Y-39679D01*
X58166Y-39683D01*
X58184Y-39683D01*
X58192Y-39679D01*
X58196Y-39675D01*
X58199Y-39668D01*
X58199Y-39652D01*
X58196Y-39645D01*
X58192Y-39641D01*
X58184Y-39637D01*
G54D23*
G54D16*
X55326Y-28111D02*
X55326Y-28397D01*
X55307Y-28454D01*
X55269Y-28492D01*
X55211Y-28511D01*
X55173Y-28511D01*
X55726Y-28511D02*
X55497Y-28511D01*
X55611Y-28511D02*
X55611Y-28111D01*
X55573Y-28169D01*
X55535Y-28207D01*
X55497Y-28226D01*
X55954Y-28283D02*
X55916Y-28264D01*
X55897Y-28245D01*
X55878Y-28207D01*
X55878Y-28188D01*
X55897Y-28150D01*
X55916Y-28130D01*
X55954Y-28111D01*
X56030Y-28111D01*
X56069Y-28130D01*
X56088Y-28150D01*
X56107Y-28188D01*
X56107Y-28207D01*
X56088Y-28245D01*
X56069Y-28264D01*
X56030Y-28283D01*
X55954Y-28283D01*
X55916Y-28302D01*
X55897Y-28321D01*
X55878Y-28359D01*
X55878Y-28435D01*
X55897Y-28473D01*
X55916Y-28492D01*
X55954Y-28511D01*
X56030Y-28511D01*
X56069Y-28492D01*
X56088Y-28473D01*
X56107Y-28435D01*
X56107Y-28359D01*
X56088Y-28321D01*
X56069Y-28302D01*
X56030Y-28283D01*
X58169Y-28302D02*
X58302Y-28302D01*
X58359Y-28511D02*
X58169Y-28511D01*
X58169Y-28111D01*
X58359Y-28111D01*
X58492Y-28111D02*
X58740Y-28111D01*
X58607Y-28264D01*
X58664Y-28264D01*
X58702Y-28283D01*
X58721Y-28302D01*
X58740Y-28340D01*
X58740Y-28435D01*
X58721Y-28473D01*
X58702Y-28492D01*
X58664Y-28511D01*
X58550Y-28511D01*
X58511Y-28492D01*
X58492Y-28473D01*
X59216Y-28511D02*
X59216Y-28111D01*
X59350Y-28397D01*
X59483Y-28111D01*
X59483Y-28511D01*
X59750Y-28111D02*
X59826Y-28111D01*
X59864Y-28130D01*
X59902Y-28169D01*
X59921Y-28245D01*
X59921Y-28378D01*
X59902Y-28454D01*
X59864Y-28492D01*
X59826Y-28511D01*
X59750Y-28511D01*
X59711Y-28492D01*
X59673Y-28454D01*
X59654Y-28378D01*
X59654Y-28245D01*
X59673Y-28169D01*
X59711Y-28130D01*
X59750Y-28111D01*
X60035Y-28111D02*
X60264Y-28111D01*
X60150Y-28511D02*
X60150Y-28111D01*
X60683Y-28092D02*
X60340Y-28607D01*
X60797Y-28492D02*
X60854Y-28511D01*
X60950Y-28511D01*
X60988Y-28492D01*
X61007Y-28473D01*
X61026Y-28435D01*
X61026Y-28397D01*
X61007Y-28359D01*
X60988Y-28340D01*
X60950Y-28321D01*
X60873Y-28302D01*
X60835Y-28283D01*
X60816Y-28264D01*
X60797Y-28226D01*
X60797Y-28188D01*
X60816Y-28150D01*
X60835Y-28130D01*
X60873Y-28111D01*
X60969Y-28111D01*
X61026Y-28130D01*
X61140Y-28111D02*
X61369Y-28111D01*
X61254Y-28511D02*
X61254Y-28111D01*
X61578Y-28111D02*
X61654Y-28111D01*
X61692Y-28130D01*
X61730Y-28169D01*
X61750Y-28245D01*
X61750Y-28378D01*
X61730Y-28454D01*
X61692Y-28492D01*
X61654Y-28511D01*
X61578Y-28511D01*
X61540Y-28492D01*
X61502Y-28454D01*
X61483Y-28378D01*
X61483Y-28245D01*
X61502Y-28169D01*
X61540Y-28130D01*
X61578Y-28111D01*
X61921Y-28511D02*
X61921Y-28111D01*
X62073Y-28111D01*
X62111Y-28130D01*
X62130Y-28150D01*
X62150Y-28188D01*
X62150Y-28245D01*
X62130Y-28283D01*
X62111Y-28302D01*
X62073Y-28321D01*
X61921Y-28321D01*
X61926Y-52561D02*
X61926Y-52847D01*
X61907Y-52904D01*
X61869Y-52942D01*
X61811Y-52961D01*
X61773Y-52961D01*
X62097Y-52600D02*
X62116Y-52580D01*
X62154Y-52561D01*
X62250Y-52561D01*
X62288Y-52580D01*
X62307Y-52600D01*
X62326Y-52638D01*
X62326Y-52676D01*
X62307Y-52733D01*
X62078Y-52961D01*
X62326Y-52961D01*
X62573Y-52561D02*
X62611Y-52561D01*
X62650Y-52580D01*
X62669Y-52600D01*
X62688Y-52638D01*
X62707Y-52714D01*
X62707Y-52809D01*
X62688Y-52885D01*
X62669Y-52923D01*
X62650Y-52942D01*
X62611Y-52961D01*
X62573Y-52961D01*
X62535Y-52942D01*
X62516Y-52923D01*
X62497Y-52885D01*
X62478Y-52809D01*
X62478Y-52714D01*
X62497Y-52638D01*
X62516Y-52600D01*
X62535Y-52580D01*
X62573Y-52561D01*
X55619Y-52802D02*
X55752Y-52802D01*
X55809Y-53011D02*
X55619Y-53011D01*
X55619Y-52611D01*
X55809Y-52611D01*
X56152Y-52745D02*
X56152Y-53011D01*
X56057Y-52592D02*
X55961Y-52878D01*
X56209Y-52878D01*
X56666Y-53011D02*
X56666Y-52611D01*
X56800Y-52897D01*
X56933Y-52611D01*
X56933Y-53011D01*
X57200Y-52611D02*
X57276Y-52611D01*
X57314Y-52630D01*
X57352Y-52669D01*
X57371Y-52745D01*
X57371Y-52878D01*
X57352Y-52954D01*
X57314Y-52992D01*
X57276Y-53011D01*
X57200Y-53011D01*
X57161Y-52992D01*
X57123Y-52954D01*
X57104Y-52878D01*
X57104Y-52745D01*
X57123Y-52669D01*
X57161Y-52630D01*
X57200Y-52611D01*
X57485Y-52611D02*
X57714Y-52611D01*
X57600Y-53011D02*
X57600Y-52611D01*
X58133Y-52592D02*
X57790Y-53107D01*
X58247Y-52992D02*
X58304Y-53011D01*
X58400Y-53011D01*
X58438Y-52992D01*
X58457Y-52973D01*
X58476Y-52935D01*
X58476Y-52897D01*
X58457Y-52859D01*
X58438Y-52840D01*
X58400Y-52821D01*
X58323Y-52802D01*
X58285Y-52783D01*
X58266Y-52764D01*
X58247Y-52726D01*
X58247Y-52688D01*
X58266Y-52650D01*
X58285Y-52630D01*
X58323Y-52611D01*
X58419Y-52611D01*
X58476Y-52630D01*
X58590Y-52611D02*
X58819Y-52611D01*
X58704Y-53011D02*
X58704Y-52611D01*
X59028Y-52611D02*
X59104Y-52611D01*
X59142Y-52630D01*
X59180Y-52669D01*
X59200Y-52745D01*
X59200Y-52878D01*
X59180Y-52954D01*
X59142Y-52992D01*
X59104Y-53011D01*
X59028Y-53011D01*
X58990Y-52992D01*
X58952Y-52954D01*
X58933Y-52878D01*
X58933Y-52745D01*
X58952Y-52669D01*
X58990Y-52630D01*
X59028Y-52611D01*
X59371Y-53011D02*
X59371Y-52611D01*
X59523Y-52611D01*
X59561Y-52630D01*
X59580Y-52650D01*
X59600Y-52688D01*
X59600Y-52745D01*
X59580Y-52783D01*
X59561Y-52802D01*
X59523Y-52821D01*
X59371Y-52821D01*
G54D24*
X53160Y-40076D02*
X53170Y-40086D01*
X53179Y-40114D01*
X53179Y-40132D01*
X53170Y-40161D01*
X53151Y-40179D01*
X53132Y-40189D01*
X53095Y-40198D01*
X53067Y-40198D01*
X53029Y-40189D01*
X53010Y-40179D01*
X52992Y-40161D01*
X52982Y-40132D01*
X52982Y-40114D01*
X52992Y-40086D01*
X53001Y-40076D01*
X53179Y-39889D02*
X53179Y-40001D01*
X53179Y-39945D02*
X52982Y-39945D01*
X53010Y-39964D01*
X53029Y-39982D01*
X53039Y-40001D01*
X52982Y-39720D02*
X52982Y-39757D01*
X52992Y-39776D01*
X53001Y-39785D01*
X53029Y-39804D01*
X53067Y-39813D01*
X53142Y-39813D01*
X53160Y-39804D01*
X53170Y-39795D01*
X53179Y-39776D01*
X53179Y-39738D01*
X53170Y-39720D01*
X53160Y-39710D01*
X53142Y-39701D01*
X53095Y-39701D01*
X53076Y-39710D01*
X53067Y-39720D01*
X53057Y-39738D01*
X53057Y-39776D01*
X53067Y-39795D01*
X53076Y-39804D01*
X53095Y-39813D01*
X55160Y-44876D02*
X55170Y-44886D01*
X55179Y-44914D01*
X55179Y-44932D01*
X55170Y-44961D01*
X55151Y-44979D01*
X55132Y-44989D01*
X55095Y-44998D01*
X55067Y-44998D01*
X55029Y-44989D01*
X55010Y-44979D01*
X54992Y-44961D01*
X54982Y-44932D01*
X54982Y-44914D01*
X54992Y-44886D01*
X55001Y-44876D01*
X54982Y-44810D02*
X54982Y-44689D01*
X55057Y-44754D01*
X55057Y-44726D01*
X55067Y-44707D01*
X55076Y-44698D01*
X55095Y-44689D01*
X55142Y-44689D01*
X55160Y-44698D01*
X55170Y-44707D01*
X55179Y-44726D01*
X55179Y-44782D01*
X55170Y-44801D01*
X55160Y-44810D01*
X54982Y-44623D02*
X54982Y-44492D01*
X55179Y-44576D01*
G54D26*
X60749Y-38324D02*
X60745Y-38328D01*
X60734Y-38331D01*
X60726Y-38331D01*
X60715Y-38328D01*
X60707Y-38320D01*
X60704Y-38313D01*
X60700Y-38298D01*
X60700Y-38286D01*
X60704Y-38271D01*
X60707Y-38264D01*
X60715Y-38256D01*
X60726Y-38252D01*
X60734Y-38252D01*
X60745Y-38256D01*
X60749Y-38260D01*
X60775Y-38252D02*
X60824Y-38252D01*
X60798Y-38283D01*
X60809Y-38283D01*
X60816Y-38286D01*
X60820Y-38290D01*
X60824Y-38298D01*
X60824Y-38316D01*
X60820Y-38324D01*
X60816Y-38328D01*
X60809Y-38331D01*
X60786Y-38331D01*
X60779Y-38328D01*
X60775Y-38324D01*
X60899Y-38331D02*
X60854Y-38331D01*
X60877Y-38331D02*
X60877Y-38252D01*
X60869Y-38264D01*
X60862Y-38271D01*
X60854Y-38275D01*
X59299Y-31924D02*
X59295Y-31928D01*
X59284Y-31931D01*
X59276Y-31931D01*
X59265Y-31928D01*
X59257Y-31920D01*
X59254Y-31913D01*
X59250Y-31898D01*
X59250Y-31886D01*
X59254Y-31871D01*
X59257Y-31864D01*
X59265Y-31856D01*
X59276Y-31852D01*
X59284Y-31852D01*
X59295Y-31856D01*
X59299Y-31860D01*
X59329Y-31860D02*
X59333Y-31856D01*
X59340Y-31852D01*
X59359Y-31852D01*
X59366Y-31856D01*
X59370Y-31860D01*
X59374Y-31868D01*
X59374Y-31875D01*
X59370Y-31886D01*
X59325Y-31931D01*
X59374Y-31931D01*
X59419Y-31886D02*
X59412Y-31883D01*
X59408Y-31879D01*
X59404Y-31871D01*
X59404Y-31868D01*
X59408Y-31860D01*
X59412Y-31856D01*
X59419Y-31852D01*
X59434Y-31852D01*
X59442Y-31856D01*
X59445Y-31860D01*
X59449Y-31868D01*
X59449Y-31871D01*
X59445Y-31879D01*
X59442Y-31883D01*
X59434Y-31886D01*
X59419Y-31886D01*
X59412Y-31890D01*
X59408Y-31894D01*
X59404Y-31901D01*
X59404Y-31916D01*
X59408Y-31924D01*
X59412Y-31928D01*
X59419Y-31931D01*
X59434Y-31931D01*
X59442Y-31928D01*
X59445Y-31924D01*
X59449Y-31916D01*
X59449Y-31901D01*
X59445Y-31894D01*
X59442Y-31890D01*
X59434Y-31886D01*
X62949Y-30924D02*
X62945Y-30928D01*
X62934Y-30931D01*
X62926Y-30931D01*
X62915Y-30928D01*
X62907Y-30920D01*
X62904Y-30913D01*
X62900Y-30898D01*
X62900Y-30886D01*
X62904Y-30871D01*
X62907Y-30864D01*
X62915Y-30856D01*
X62926Y-30852D01*
X62934Y-30852D01*
X62945Y-30856D01*
X62949Y-30860D01*
X62979Y-30860D02*
X62983Y-30856D01*
X62990Y-30852D01*
X63009Y-30852D01*
X63016Y-30856D01*
X63020Y-30860D01*
X63024Y-30868D01*
X63024Y-30875D01*
X63020Y-30886D01*
X62975Y-30931D01*
X63024Y-30931D01*
X63050Y-30852D02*
X63103Y-30852D01*
X63069Y-30931D01*
X62949Y-29674D02*
X62945Y-29678D01*
X62934Y-29681D01*
X62926Y-29681D01*
X62915Y-29678D01*
X62907Y-29670D01*
X62904Y-29663D01*
X62900Y-29648D01*
X62900Y-29636D01*
X62904Y-29621D01*
X62907Y-29614D01*
X62915Y-29606D01*
X62926Y-29602D01*
X62934Y-29602D01*
X62945Y-29606D01*
X62949Y-29610D01*
X62979Y-29610D02*
X62983Y-29606D01*
X62990Y-29602D01*
X63009Y-29602D01*
X63016Y-29606D01*
X63020Y-29610D01*
X63024Y-29618D01*
X63024Y-29625D01*
X63020Y-29636D01*
X62975Y-29681D01*
X63024Y-29681D01*
X63095Y-29602D02*
X63058Y-29602D01*
X63054Y-29640D01*
X63058Y-29636D01*
X63065Y-29633D01*
X63084Y-29633D01*
X63092Y-29636D01*
X63095Y-29640D01*
X63099Y-29648D01*
X63099Y-29666D01*
X63095Y-29674D01*
X63092Y-29678D01*
X63084Y-29681D01*
X63065Y-29681D01*
X63058Y-29678D01*
X63054Y-29674D01*
X60599Y-49774D02*
X60595Y-49778D01*
X60584Y-49781D01*
X60576Y-49781D01*
X60565Y-49778D01*
X60557Y-49770D01*
X60554Y-49763D01*
X60550Y-49748D01*
X60550Y-49736D01*
X60554Y-49721D01*
X60557Y-49714D01*
X60565Y-49706D01*
X60576Y-49702D01*
X60584Y-49702D01*
X60595Y-49706D01*
X60599Y-49710D01*
X60666Y-49729D02*
X60666Y-49781D01*
X60648Y-49699D02*
X60629Y-49755D01*
X60678Y-49755D01*
X60742Y-49702D02*
X60727Y-49702D01*
X60719Y-49706D01*
X60715Y-49710D01*
X60708Y-49721D01*
X60704Y-49736D01*
X60704Y-49766D01*
X60708Y-49774D01*
X60712Y-49778D01*
X60719Y-49781D01*
X60734Y-49781D01*
X60742Y-49778D01*
X60745Y-49774D01*
X60749Y-49766D01*
X60749Y-49748D01*
X60745Y-49740D01*
X60742Y-49736D01*
X60734Y-49733D01*
X60719Y-49733D01*
X60712Y-49736D01*
X60708Y-49740D01*
X60704Y-49748D01*
X56924Y-39650D02*
X56928Y-39654D01*
X56931Y-39665D01*
X56931Y-39673D01*
X56928Y-39684D01*
X56920Y-39692D01*
X56913Y-39695D01*
X56898Y-39699D01*
X56886Y-39699D01*
X56871Y-39695D01*
X56864Y-39692D01*
X56856Y-39684D01*
X56852Y-39673D01*
X56852Y-39665D01*
X56856Y-39654D01*
X56860Y-39650D01*
X56931Y-39575D02*
X56931Y-39620D01*
X56931Y-39598D02*
X56852Y-39598D01*
X56864Y-39605D01*
X56871Y-39613D01*
X56875Y-39620D01*
X56852Y-39549D02*
X56852Y-39500D01*
X56883Y-39526D01*
X56883Y-39515D01*
X56886Y-39507D01*
X56890Y-39504D01*
X56898Y-39500D01*
X56916Y-39500D01*
X56924Y-39504D01*
X56928Y-39507D01*
X56931Y-39515D01*
X56931Y-39537D01*
X56928Y-39545D01*
X56924Y-39549D01*
X58449Y-49024D02*
X58445Y-49028D01*
X58434Y-49031D01*
X58426Y-49031D01*
X58415Y-49028D01*
X58407Y-49020D01*
X58404Y-49013D01*
X58400Y-48998D01*
X58400Y-48986D01*
X58404Y-48971D01*
X58407Y-48964D01*
X58415Y-48956D01*
X58426Y-48952D01*
X58434Y-48952D01*
X58445Y-48956D01*
X58449Y-48960D01*
X58516Y-48979D02*
X58516Y-49031D01*
X58498Y-48949D02*
X58479Y-49005D01*
X58528Y-49005D01*
X58595Y-48952D02*
X58558Y-48952D01*
X58554Y-48990D01*
X58558Y-48986D01*
X58565Y-48983D01*
X58584Y-48983D01*
X58592Y-48986D01*
X58595Y-48990D01*
X58599Y-48998D01*
X58599Y-49016D01*
X58595Y-49024D01*
X58592Y-49028D01*
X58584Y-49031D01*
X58565Y-49031D01*
X58558Y-49028D01*
X58554Y-49024D01*
X56224Y-39650D02*
X56228Y-39654D01*
X56231Y-39665D01*
X56231Y-39673D01*
X56228Y-39684D01*
X56220Y-39692D01*
X56213Y-39695D01*
X56198Y-39699D01*
X56186Y-39699D01*
X56171Y-39695D01*
X56164Y-39692D01*
X56156Y-39684D01*
X56152Y-39673D01*
X56152Y-39665D01*
X56156Y-39654D01*
X56160Y-39650D01*
X56231Y-39575D02*
X56231Y-39620D01*
X56231Y-39598D02*
X56152Y-39598D01*
X56164Y-39605D01*
X56171Y-39613D01*
X56175Y-39620D01*
X56152Y-39549D02*
X56152Y-39496D01*
X56231Y-39530D01*
X56824Y-49250D02*
X56828Y-49254D01*
X56831Y-49265D01*
X56831Y-49273D01*
X56828Y-49284D01*
X56820Y-49292D01*
X56813Y-49295D01*
X56798Y-49299D01*
X56786Y-49299D01*
X56771Y-49295D01*
X56764Y-49292D01*
X56756Y-49284D01*
X56752Y-49273D01*
X56752Y-49265D01*
X56756Y-49254D01*
X56760Y-49250D01*
X56779Y-49183D02*
X56831Y-49183D01*
X56749Y-49201D02*
X56805Y-49220D01*
X56805Y-49171D01*
X56779Y-49107D02*
X56831Y-49107D01*
X56749Y-49126D02*
X56805Y-49145D01*
X56805Y-49096D01*
X58399Y-40524D02*
X58395Y-40528D01*
X58384Y-40531D01*
X58376Y-40531D01*
X58365Y-40528D01*
X58357Y-40520D01*
X58354Y-40513D01*
X58350Y-40498D01*
X58350Y-40486D01*
X58354Y-40471D01*
X58357Y-40464D01*
X58365Y-40456D01*
X58376Y-40452D01*
X58384Y-40452D01*
X58395Y-40456D01*
X58399Y-40460D01*
X58429Y-40460D02*
X58433Y-40456D01*
X58440Y-40452D01*
X58459Y-40452D01*
X58466Y-40456D01*
X58470Y-40460D01*
X58474Y-40468D01*
X58474Y-40475D01*
X58470Y-40486D01*
X58425Y-40531D01*
X58474Y-40531D01*
X58549Y-40531D02*
X58504Y-40531D01*
X58527Y-40531D02*
X58527Y-40452D01*
X58519Y-40464D01*
X58512Y-40471D01*
X58504Y-40475D01*
X55474Y-51600D02*
X55478Y-51604D01*
X55481Y-51615D01*
X55481Y-51623D01*
X55478Y-51634D01*
X55470Y-51642D01*
X55463Y-51645D01*
X55448Y-51649D01*
X55436Y-51649D01*
X55421Y-51645D01*
X55414Y-51642D01*
X55406Y-51634D01*
X55402Y-51623D01*
X55402Y-51615D01*
X55406Y-51604D01*
X55410Y-51600D01*
X55429Y-51533D02*
X55481Y-51533D01*
X55399Y-51551D02*
X55455Y-51570D01*
X55455Y-51521D01*
X55402Y-51499D02*
X55402Y-51450D01*
X55433Y-51476D01*
X55433Y-51465D01*
X55436Y-51457D01*
X55440Y-51454D01*
X55448Y-51450D01*
X55466Y-51450D01*
X55474Y-51454D01*
X55478Y-51457D01*
X55481Y-51465D01*
X55481Y-51487D01*
X55478Y-51495D01*
X55474Y-51499D01*
X59599Y-42624D02*
X59595Y-42628D01*
X59584Y-42631D01*
X59576Y-42631D01*
X59565Y-42628D01*
X59557Y-42620D01*
X59554Y-42613D01*
X59550Y-42598D01*
X59550Y-42586D01*
X59554Y-42571D01*
X59557Y-42564D01*
X59565Y-42556D01*
X59576Y-42552D01*
X59584Y-42552D01*
X59595Y-42556D01*
X59599Y-42560D01*
X59625Y-42552D02*
X59674Y-42552D01*
X59648Y-42583D01*
X59659Y-42583D01*
X59666Y-42586D01*
X59670Y-42590D01*
X59674Y-42598D01*
X59674Y-42616D01*
X59670Y-42624D01*
X59666Y-42628D01*
X59659Y-42631D01*
X59636Y-42631D01*
X59629Y-42628D01*
X59625Y-42624D01*
X59712Y-42631D02*
X59727Y-42631D01*
X59734Y-42628D01*
X59738Y-42624D01*
X59745Y-42613D01*
X59749Y-42598D01*
X59749Y-42568D01*
X59745Y-42560D01*
X59742Y-42556D01*
X59734Y-42552D01*
X59719Y-42552D01*
X59712Y-42556D01*
X59708Y-42560D01*
X59704Y-42568D01*
X59704Y-42586D01*
X59708Y-42594D01*
X59712Y-42598D01*
X59719Y-42601D01*
X59734Y-42601D01*
X59742Y-42598D01*
X59745Y-42594D01*
X59749Y-42586D01*
X59824Y-44150D02*
X59828Y-44154D01*
X59831Y-44165D01*
X59831Y-44173D01*
X59828Y-44184D01*
X59820Y-44192D01*
X59813Y-44195D01*
X59798Y-44199D01*
X59786Y-44199D01*
X59771Y-44195D01*
X59764Y-44192D01*
X59756Y-44184D01*
X59752Y-44173D01*
X59752Y-44165D01*
X59756Y-44154D01*
X59760Y-44150D01*
X59779Y-44083D02*
X59831Y-44083D01*
X59749Y-44101D02*
X59805Y-44120D01*
X59805Y-44071D01*
X59760Y-44045D02*
X59756Y-44041D01*
X59752Y-44034D01*
X59752Y-44015D01*
X59756Y-44007D01*
X59760Y-44004D01*
X59768Y-44000D01*
X59775Y-44000D01*
X59786Y-44004D01*
X59831Y-44049D01*
X59831Y-44000D01*
X60574Y-44150D02*
X60578Y-44154D01*
X60581Y-44165D01*
X60581Y-44173D01*
X60578Y-44184D01*
X60570Y-44192D01*
X60563Y-44195D01*
X60548Y-44199D01*
X60536Y-44199D01*
X60521Y-44195D01*
X60514Y-44192D01*
X60506Y-44184D01*
X60502Y-44173D01*
X60502Y-44165D01*
X60506Y-44154D01*
X60510Y-44150D01*
X60502Y-44124D02*
X60502Y-44075D01*
X60533Y-44101D01*
X60533Y-44090D01*
X60536Y-44083D01*
X60540Y-44079D01*
X60548Y-44075D01*
X60566Y-44075D01*
X60574Y-44079D01*
X60578Y-44083D01*
X60581Y-44090D01*
X60581Y-44113D01*
X60578Y-44120D01*
X60574Y-44124D01*
X60536Y-44030D02*
X60533Y-44037D01*
X60529Y-44041D01*
X60521Y-44045D01*
X60518Y-44045D01*
X60510Y-44041D01*
X60506Y-44037D01*
X60502Y-44030D01*
X60502Y-44015D01*
X60506Y-44007D01*
X60510Y-44004D01*
X60518Y-44000D01*
X60521Y-44000D01*
X60529Y-44004D01*
X60533Y-44007D01*
X60536Y-44015D01*
X60536Y-44030D01*
X60540Y-44037D01*
X60544Y-44041D01*
X60551Y-44045D01*
X60566Y-44045D01*
X60574Y-44041D01*
X60578Y-44037D01*
X60581Y-44030D01*
X60581Y-44015D01*
X60578Y-44007D01*
X60574Y-44004D01*
X60566Y-44000D01*
X60551Y-44000D01*
X60544Y-44004D01*
X60540Y-44007D01*
X60536Y-44015D01*
X55424Y-37350D02*
X55428Y-37354D01*
X55431Y-37365D01*
X55431Y-37373D01*
X55428Y-37384D01*
X55420Y-37392D01*
X55413Y-37395D01*
X55398Y-37399D01*
X55386Y-37399D01*
X55371Y-37395D01*
X55364Y-37392D01*
X55356Y-37384D01*
X55352Y-37373D01*
X55352Y-37365D01*
X55356Y-37354D01*
X55360Y-37350D01*
X55360Y-37320D02*
X55356Y-37316D01*
X55352Y-37309D01*
X55352Y-37290D01*
X55356Y-37283D01*
X55360Y-37279D01*
X55368Y-37275D01*
X55375Y-37275D01*
X55386Y-37279D01*
X55431Y-37324D01*
X55431Y-37275D01*
X55352Y-37249D02*
X55352Y-37200D01*
X55383Y-37226D01*
X55383Y-37215D01*
X55386Y-37207D01*
X55390Y-37204D01*
X55398Y-37200D01*
X55416Y-37200D01*
X55424Y-37204D01*
X55428Y-37207D01*
X55431Y-37215D01*
X55431Y-37237D01*
X55428Y-37245D01*
X55424Y-37249D01*
X61274Y-44150D02*
X61278Y-44154D01*
X61281Y-44165D01*
X61281Y-44173D01*
X61278Y-44184D01*
X61270Y-44192D01*
X61263Y-44195D01*
X61248Y-44199D01*
X61236Y-44199D01*
X61221Y-44195D01*
X61214Y-44192D01*
X61206Y-44184D01*
X61202Y-44173D01*
X61202Y-44165D01*
X61206Y-44154D01*
X61210Y-44150D01*
X61202Y-44124D02*
X61202Y-44075D01*
X61233Y-44101D01*
X61233Y-44090D01*
X61236Y-44083D01*
X61240Y-44079D01*
X61248Y-44075D01*
X61266Y-44075D01*
X61274Y-44079D01*
X61278Y-44083D01*
X61281Y-44090D01*
X61281Y-44113D01*
X61278Y-44120D01*
X61274Y-44124D01*
X61202Y-44049D02*
X61202Y-44000D01*
X61233Y-44026D01*
X61233Y-44015D01*
X61236Y-44007D01*
X61240Y-44004D01*
X61248Y-44000D01*
X61266Y-44000D01*
X61274Y-44004D01*
X61278Y-44007D01*
X61281Y-44015D01*
X61281Y-44037D01*
X61278Y-44045D01*
X61274Y-44049D01*
X55224Y-45100D02*
X55228Y-45104D01*
X55231Y-45115D01*
X55231Y-45123D01*
X55228Y-45134D01*
X55220Y-45142D01*
X55213Y-45145D01*
X55198Y-45149D01*
X55186Y-45149D01*
X55171Y-45145D01*
X55164Y-45142D01*
X55156Y-45134D01*
X55152Y-45123D01*
X55152Y-45115D01*
X55156Y-45104D01*
X55160Y-45100D01*
X55152Y-45074D02*
X55152Y-45025D01*
X55183Y-45051D01*
X55183Y-45040D01*
X55186Y-45033D01*
X55190Y-45029D01*
X55198Y-45025D01*
X55216Y-45025D01*
X55224Y-45029D01*
X55228Y-45033D01*
X55231Y-45040D01*
X55231Y-45063D01*
X55228Y-45070D01*
X55224Y-45074D01*
X55152Y-44954D02*
X55152Y-44991D01*
X55190Y-44995D01*
X55186Y-44991D01*
X55183Y-44984D01*
X55183Y-44965D01*
X55186Y-44957D01*
X55190Y-44954D01*
X55198Y-44950D01*
X55216Y-44950D01*
X55224Y-44954D01*
X55228Y-44957D01*
X55231Y-44965D01*
X55231Y-44984D01*
X55228Y-44991D01*
X55224Y-44995D01*
X54624Y-37350D02*
X54628Y-37354D01*
X54631Y-37365D01*
X54631Y-37373D01*
X54628Y-37384D01*
X54620Y-37392D01*
X54613Y-37395D01*
X54598Y-37399D01*
X54586Y-37399D01*
X54571Y-37395D01*
X54564Y-37392D01*
X54556Y-37384D01*
X54552Y-37373D01*
X54552Y-37365D01*
X54556Y-37354D01*
X54560Y-37350D01*
X54631Y-37275D02*
X54631Y-37320D01*
X54631Y-37298D02*
X54552Y-37298D01*
X54564Y-37305D01*
X54571Y-37313D01*
X54575Y-37320D01*
X54552Y-37204D02*
X54552Y-37241D01*
X54590Y-37245D01*
X54586Y-37241D01*
X54583Y-37234D01*
X54583Y-37215D01*
X54586Y-37207D01*
X54590Y-37204D01*
X54598Y-37200D01*
X54616Y-37200D01*
X54624Y-37204D01*
X54628Y-37207D01*
X54631Y-37215D01*
X54631Y-37234D01*
X54628Y-37241D01*
X54624Y-37245D01*
X57149Y-31324D02*
X57145Y-31328D01*
X57134Y-31331D01*
X57126Y-31331D01*
X57115Y-31328D01*
X57107Y-31320D01*
X57104Y-31313D01*
X57100Y-31298D01*
X57100Y-31286D01*
X57104Y-31271D01*
X57107Y-31264D01*
X57115Y-31256D01*
X57126Y-31252D01*
X57134Y-31252D01*
X57145Y-31256D01*
X57149Y-31260D01*
X57179Y-31260D02*
X57183Y-31256D01*
X57190Y-31252D01*
X57209Y-31252D01*
X57216Y-31256D01*
X57220Y-31260D01*
X57224Y-31268D01*
X57224Y-31275D01*
X57220Y-31286D01*
X57175Y-31331D01*
X57224Y-31331D01*
X57262Y-31331D02*
X57277Y-31331D01*
X57284Y-31328D01*
X57288Y-31324D01*
X57295Y-31313D01*
X57299Y-31298D01*
X57299Y-31268D01*
X57295Y-31260D01*
X57292Y-31256D01*
X57284Y-31252D01*
X57269Y-31252D01*
X57262Y-31256D01*
X57258Y-31260D01*
X57254Y-31268D01*
X57254Y-31286D01*
X57258Y-31294D01*
X57262Y-31298D01*
X57269Y-31301D01*
X57284Y-31301D01*
X57292Y-31298D01*
X57295Y-31294D01*
X57299Y-31286D01*
X55549Y-43574D02*
X55545Y-43578D01*
X55534Y-43581D01*
X55526Y-43581D01*
X55515Y-43578D01*
X55507Y-43570D01*
X55504Y-43563D01*
X55500Y-43548D01*
X55500Y-43536D01*
X55504Y-43521D01*
X55507Y-43514D01*
X55515Y-43506D01*
X55526Y-43502D01*
X55534Y-43502D01*
X55545Y-43506D01*
X55549Y-43510D01*
X55616Y-43529D02*
X55616Y-43581D01*
X55598Y-43499D02*
X55579Y-43555D01*
X55628Y-43555D01*
X55650Y-43502D02*
X55703Y-43502D01*
X55669Y-43581D01*
G54D22*
X61129Y-46200D02*
X61092Y-46227D01*
X61129Y-46245D02*
X61050Y-46245D01*
X61050Y-46215D01*
X61054Y-46208D01*
X61058Y-46204D01*
X61066Y-46200D01*
X61077Y-46200D01*
X61084Y-46204D01*
X61088Y-46208D01*
X61092Y-46215D01*
X61092Y-46245D01*
X61129Y-46125D02*
X61129Y-46170D01*
X61129Y-46148D02*
X61050Y-46148D01*
X61062Y-46155D01*
X61069Y-46163D01*
X61073Y-46170D01*
X61058Y-46095D02*
X61054Y-46091D01*
X61050Y-46084D01*
X61050Y-46065D01*
X61054Y-46057D01*
X61058Y-46054D01*
X61066Y-46050D01*
X61073Y-46050D01*
X61084Y-46054D01*
X61129Y-46099D01*
X61129Y-46050D01*
G54D23*
G54D22*
X63549Y-51279D02*
X63522Y-51242D01*
X63504Y-51279D02*
X63504Y-51200D01*
X63534Y-51200D01*
X63541Y-51204D01*
X63545Y-51208D01*
X63549Y-51216D01*
X63549Y-51227D01*
X63545Y-51234D01*
X63541Y-51238D01*
X63534Y-51242D01*
X63504Y-51242D01*
X63579Y-51208D02*
X63583Y-51204D01*
X63590Y-51200D01*
X63609Y-51200D01*
X63616Y-51204D01*
X63620Y-51208D01*
X63624Y-51216D01*
X63624Y-51223D01*
X63620Y-51234D01*
X63575Y-51279D01*
X63624Y-51279D01*
X63669Y-51234D02*
X63662Y-51231D01*
X63658Y-51227D01*
X63654Y-51219D01*
X63654Y-51216D01*
X63658Y-51208D01*
X63662Y-51204D01*
X63669Y-51200D01*
X63684Y-51200D01*
X63692Y-51204D01*
X63695Y-51208D01*
X63699Y-51216D01*
X63699Y-51219D01*
X63695Y-51227D01*
X63692Y-51231D01*
X63684Y-51234D01*
X63669Y-51234D01*
X63662Y-51238D01*
X63658Y-51242D01*
X63654Y-51249D01*
X63654Y-51264D01*
X63658Y-51272D01*
X63662Y-51276D01*
X63669Y-51279D01*
X63684Y-51279D01*
X63692Y-51276D01*
X63695Y-51272D01*
X63699Y-51264D01*
X63699Y-51249D01*
X63695Y-51242D01*
X63692Y-51238D01*
X63684Y-51234D01*
G54D23*
G54D22*
X54729Y-31950D02*
X54692Y-31977D01*
X54729Y-31995D02*
X54650Y-31995D01*
X54650Y-31965D01*
X54654Y-31958D01*
X54658Y-31954D01*
X54666Y-31950D01*
X54677Y-31950D01*
X54684Y-31954D01*
X54688Y-31958D01*
X54692Y-31965D01*
X54692Y-31995D01*
X54658Y-31920D02*
X54654Y-31916D01*
X54650Y-31909D01*
X54650Y-31890D01*
X54654Y-31883D01*
X54658Y-31879D01*
X54666Y-31875D01*
X54673Y-31875D01*
X54684Y-31879D01*
X54729Y-31924D01*
X54729Y-31875D01*
X54677Y-31807D02*
X54729Y-31807D01*
X54647Y-31826D02*
X54703Y-31845D01*
X54703Y-31796D01*
G54D23*
G54D22*
X55649Y-32579D02*
X55622Y-32542D01*
X55604Y-32579D02*
X55604Y-32500D01*
X55634Y-32500D01*
X55641Y-32504D01*
X55645Y-32508D01*
X55649Y-32516D01*
X55649Y-32527D01*
X55645Y-32534D01*
X55641Y-32538D01*
X55634Y-32542D01*
X55604Y-32542D01*
X55724Y-32579D02*
X55679Y-32579D01*
X55701Y-32579D02*
X55701Y-32500D01*
X55694Y-32512D01*
X55686Y-32519D01*
X55679Y-32523D01*
X55750Y-32500D02*
X55803Y-32500D01*
X55769Y-32579D01*
G54D23*
G54D22*
X63549Y-52729D02*
X63522Y-52692D01*
X63504Y-52729D02*
X63504Y-52650D01*
X63534Y-52650D01*
X63541Y-52654D01*
X63545Y-52658D01*
X63549Y-52666D01*
X63549Y-52677D01*
X63545Y-52684D01*
X63541Y-52688D01*
X63534Y-52692D01*
X63504Y-52692D01*
X63579Y-52658D02*
X63583Y-52654D01*
X63590Y-52650D01*
X63609Y-52650D01*
X63616Y-52654D01*
X63620Y-52658D01*
X63624Y-52666D01*
X63624Y-52673D01*
X63620Y-52684D01*
X63575Y-52729D01*
X63624Y-52729D01*
X63695Y-52650D02*
X63658Y-52650D01*
X63654Y-52688D01*
X63658Y-52684D01*
X63665Y-52681D01*
X63684Y-52681D01*
X63692Y-52684D01*
X63695Y-52688D01*
X63699Y-52696D01*
X63699Y-52714D01*
X63695Y-52722D01*
X63692Y-52726D01*
X63684Y-52729D01*
X63665Y-52729D01*
X63658Y-52726D01*
X63654Y-52722D01*
G54D23*
G54D20*
X63484Y-51865D02*
X63484Y-51708D01*
X63521Y-51708D01*
X63543Y-51716D01*
X63558Y-51730D01*
X63566Y-51745D01*
X63573Y-51775D01*
X63573Y-51798D01*
X63566Y-51828D01*
X63558Y-51843D01*
X63543Y-51858D01*
X63521Y-51865D01*
X63484Y-51865D01*
X63663Y-51775D02*
X63648Y-51768D01*
X63641Y-51760D01*
X63633Y-51745D01*
X63633Y-51738D01*
X63641Y-51723D01*
X63648Y-51716D01*
X63663Y-51708D01*
X63693Y-51708D01*
X63708Y-51716D01*
X63715Y-51723D01*
X63723Y-51738D01*
X63723Y-51745D01*
X63715Y-51760D01*
X63708Y-51768D01*
X63693Y-51775D01*
X63663Y-51775D01*
X63648Y-51783D01*
X63641Y-51790D01*
X63633Y-51805D01*
X63633Y-51835D01*
X63641Y-51850D01*
X63648Y-51858D01*
X63663Y-51865D01*
X63693Y-51865D01*
X63708Y-51858D01*
X63715Y-51850D01*
X63723Y-51835D01*
X63723Y-51805D01*
X63715Y-51790D01*
X63708Y-51783D01*
X63693Y-51775D01*
X54761Y-30715D02*
X54604Y-30715D01*
X54604Y-30678D01*
X54612Y-30656D01*
X54626Y-30641D01*
X54641Y-30633D01*
X54671Y-30626D01*
X54694Y-30626D01*
X54724Y-30633D01*
X54739Y-30641D01*
X54754Y-30656D01*
X54761Y-30678D01*
X54761Y-30715D01*
X54604Y-30484D02*
X54604Y-30558D01*
X54679Y-30566D01*
X54671Y-30558D01*
X54664Y-30543D01*
X54664Y-30506D01*
X54671Y-30491D01*
X54679Y-30484D01*
X54694Y-30476D01*
X54731Y-30476D01*
X54746Y-30484D01*
X54754Y-30491D01*
X54761Y-30506D01*
X54761Y-30543D01*
X54754Y-30558D01*
X54746Y-30566D01*
G54D26*
X55749Y-31824D02*
X55745Y-31828D01*
X55734Y-31831D01*
X55726Y-31831D01*
X55715Y-31828D01*
X55707Y-31820D01*
X55704Y-31813D01*
X55700Y-31798D01*
X55700Y-31786D01*
X55704Y-31771D01*
X55707Y-31764D01*
X55715Y-31756D01*
X55726Y-31752D01*
X55734Y-31752D01*
X55745Y-31756D01*
X55749Y-31760D01*
X55816Y-31779D02*
X55816Y-31831D01*
X55798Y-31749D02*
X55779Y-31805D01*
X55828Y-31805D01*
X55869Y-31786D02*
X55862Y-31783D01*
X55858Y-31779D01*
X55854Y-31771D01*
X55854Y-31768D01*
X55858Y-31760D01*
X55862Y-31756D01*
X55869Y-31752D01*
X55884Y-31752D01*
X55892Y-31756D01*
X55895Y-31760D01*
X55899Y-31768D01*
X55899Y-31771D01*
X55895Y-31779D01*
X55892Y-31783D01*
X55884Y-31786D01*
X55869Y-31786D01*
X55862Y-31790D01*
X55858Y-31794D01*
X55854Y-31801D01*
X55854Y-31816D01*
X55858Y-31824D01*
X55862Y-31828D01*
X55869Y-31831D01*
X55884Y-31831D01*
X55892Y-31828D01*
X55895Y-31824D01*
X55899Y-31816D01*
X55899Y-31801D01*
X55895Y-31794D01*
X55892Y-31790D01*
X55884Y-31786D01*
X65024Y-52350D02*
X65028Y-52354D01*
X65031Y-52365D01*
X65031Y-52373D01*
X65028Y-52384D01*
X65020Y-52392D01*
X65013Y-52395D01*
X64998Y-52399D01*
X64986Y-52399D01*
X64971Y-52395D01*
X64964Y-52392D01*
X64956Y-52384D01*
X64952Y-52373D01*
X64952Y-52365D01*
X64956Y-52354D01*
X64960Y-52350D01*
X64979Y-52283D02*
X65031Y-52283D01*
X64949Y-52301D02*
X65005Y-52320D01*
X65005Y-52271D01*
X65031Y-52237D02*
X65031Y-52222D01*
X65028Y-52215D01*
X65024Y-52211D01*
X65013Y-52204D01*
X64998Y-52200D01*
X64968Y-52200D01*
X64960Y-52204D01*
X64956Y-52207D01*
X64952Y-52215D01*
X64952Y-52230D01*
X64956Y-52237D01*
X64960Y-52241D01*
X64968Y-52245D01*
X64986Y-52245D01*
X64994Y-52241D01*
X64998Y-52237D01*
X65001Y-52230D01*
X65001Y-52215D01*
X64998Y-52207D01*
X64994Y-52204D01*
X64986Y-52200D01*
G54D16*
X43257Y-20884D02*
X43257Y-21098D01*
X43242Y-21141D01*
X43214Y-21170D01*
X43171Y-21184D01*
X43142Y-21184D01*
X43385Y-20913D02*
X43400Y-20898D01*
X43428Y-20884D01*
X43500Y-20884D01*
X43528Y-20898D01*
X43542Y-20913D01*
X43557Y-20941D01*
X43557Y-20970D01*
X43542Y-21013D01*
X43371Y-21184D01*
X43557Y-21184D01*
X43842Y-21184D02*
X43671Y-21184D01*
X43757Y-21184D02*
X43757Y-20884D01*
X43728Y-20927D01*
X43700Y-20955D01*
X43671Y-20970D01*
M02*
