G04 (created by PCBNEW (2013-05-18 BZR 4017)-stable) date Wed 25 Mar 2015 17:38:18 GMT*
%MOIN*%
G04 Gerber Fmt 3.4, Leading zero omitted, Abs format*
%FSLAX34Y34*%
G01*
G70*
G90*
G04 APERTURE LIST*
%ADD10C,0.00590551*%
%ADD11R,0.0906X0.0512*%
%ADD12R,0.2559X0.2323*%
%ADD13C,0.0315*%
%ADD14R,0.0165X0.0579*%
%ADD15C,0.06*%
%ADD16R,0.0394X0.0236*%
%ADD17R,0.0709X0.0453*%
%ADD18R,0.0374X0.0394*%
%ADD19R,0.0394X0.0374*%
%ADD20R,0.06X0.06*%
%ADD21R,0.0512X0.0906*%
%ADD22R,0.2323X0.2559*%
%ADD23R,0.1417X0.063*%
%ADD24R,0.063X0.1417*%
%ADD25R,0.0571X0.0453*%
%ADD26C,0.0866*%
%ADD27R,0.1701X0.1181*%
%ADD28C,0.0354*%
%ADD29R,0.0453X0.0709*%
%ADD30C,0.035*%
%ADD31C,0.008*%
%ADD32C,0.0198*%
%ADD33C,0.0137795*%
%ADD34C,0.0787402*%
%ADD35C,0.0488*%
%ADD36C,0.0197*%
%ADD37C,0.015748*%
G04 APERTURE END LIST*
G54D10*
G54D11*
X41500Y-26400D03*
G54D12*
X39000Y-25500D03*
G54D11*
X41500Y-24600D03*
G54D13*
X51450Y-37050D03*
X45300Y-42400D03*
G54D14*
X64522Y-24552D03*
X64778Y-24552D03*
X65034Y-24552D03*
X65290Y-24552D03*
X63758Y-22350D03*
X63754Y-24552D03*
X64010Y-24552D03*
X64266Y-24552D03*
X65546Y-22348D03*
X65290Y-22348D03*
X65034Y-22348D03*
X64778Y-22348D03*
X64522Y-22348D03*
X64266Y-22348D03*
X65546Y-24552D03*
X64010Y-22350D03*
X63498Y-24552D03*
X65802Y-24552D03*
X65802Y-22348D03*
X63498Y-22348D03*
G54D15*
X43708Y-36904D03*
G54D16*
X40516Y-40775D03*
X39684Y-40400D03*
X40516Y-40025D03*
X44066Y-26125D03*
X43234Y-25750D03*
X44066Y-25375D03*
G54D17*
X51650Y-34609D03*
X51650Y-35791D03*
X46200Y-32841D03*
X46200Y-31659D03*
X44900Y-46609D03*
X44900Y-47791D03*
X50000Y-46959D03*
X50000Y-48141D03*
G54D18*
X53415Y-52600D03*
X52785Y-52600D03*
X45365Y-36700D03*
X44735Y-36700D03*
X43535Y-29400D03*
X44165Y-29400D03*
X64285Y-21350D03*
X64915Y-21350D03*
X41965Y-27350D03*
X41335Y-27350D03*
G54D19*
X35600Y-25615D03*
X35600Y-24985D03*
X35600Y-37015D03*
X35600Y-36385D03*
X37150Y-25885D03*
X37150Y-26515D03*
X38000Y-36385D03*
X38000Y-37015D03*
X38900Y-41815D03*
X38900Y-41185D03*
X44200Y-26935D03*
X44200Y-27565D03*
G54D18*
X41285Y-40700D03*
X41915Y-40700D03*
G54D19*
X38900Y-40315D03*
X38900Y-39685D03*
X47750Y-41715D03*
X47750Y-41085D03*
X47000Y-41085D03*
X47000Y-41715D03*
X50550Y-45135D03*
X50550Y-45765D03*
X45300Y-31585D03*
X45300Y-32215D03*
G54D18*
X44935Y-37400D03*
X45565Y-37400D03*
X43265Y-27350D03*
X42635Y-27350D03*
X43585Y-30950D03*
X44215Y-30950D03*
X53465Y-51200D03*
X52835Y-51200D03*
G54D19*
X63350Y-26515D03*
X63350Y-25885D03*
G54D20*
X40600Y-43200D03*
G54D15*
X40600Y-44200D03*
X40600Y-45200D03*
X40600Y-46200D03*
X40600Y-47200D03*
X40600Y-48200D03*
X40600Y-49200D03*
G54D20*
X32829Y-43313D03*
G54D15*
X32829Y-44313D03*
X32829Y-45313D03*
X32829Y-46313D03*
X32829Y-47313D03*
X32829Y-48313D03*
X32829Y-49313D03*
G54D20*
X45700Y-51181D03*
G54D15*
X46700Y-51181D03*
X47700Y-51181D03*
X48700Y-51181D03*
X49700Y-51181D03*
X50700Y-51181D03*
X51700Y-51181D03*
G54D20*
X51700Y-29900D03*
G54D15*
X50700Y-29900D03*
X49700Y-29900D03*
X48700Y-29900D03*
X47700Y-29900D03*
X46700Y-29900D03*
X45700Y-29900D03*
G54D20*
X40600Y-21800D03*
G54D15*
X39600Y-21800D03*
X38600Y-21800D03*
X37600Y-21800D03*
X36600Y-21800D03*
X35600Y-21800D03*
G54D20*
X66600Y-52050D03*
G54D15*
X66600Y-51050D03*
X66600Y-50050D03*
X66600Y-49050D03*
G54D20*
X69400Y-49050D03*
G54D15*
X69400Y-50050D03*
X69400Y-51050D03*
X69400Y-52050D03*
G54D20*
X32829Y-58313D03*
G54D15*
X32829Y-59313D03*
G54D20*
X69350Y-45950D03*
G54D15*
X69350Y-46950D03*
G54D20*
X68874Y-19639D03*
G54D15*
X69874Y-19639D03*
X68874Y-24639D03*
X69874Y-20639D03*
X68874Y-25639D03*
X69874Y-21639D03*
X68874Y-26639D03*
X69874Y-22639D03*
X68874Y-27639D03*
X69874Y-23639D03*
X68874Y-28639D03*
X69874Y-24639D03*
X68874Y-29639D03*
X69874Y-25639D03*
X68874Y-30639D03*
X69874Y-26639D03*
X68874Y-31639D03*
X69874Y-27639D03*
X68874Y-32639D03*
X69874Y-28639D03*
X68874Y-33639D03*
X69874Y-29639D03*
X68874Y-34639D03*
X69874Y-30639D03*
X69874Y-31639D03*
X68874Y-35639D03*
X69874Y-32639D03*
X69874Y-34639D03*
X69874Y-35639D03*
X69874Y-36639D03*
X69874Y-37639D03*
X68874Y-36639D03*
X68874Y-37639D03*
X68874Y-20639D03*
X68874Y-21639D03*
X68874Y-22639D03*
X68874Y-23639D03*
X68874Y-38639D03*
X69874Y-38639D03*
X69874Y-33639D03*
X68874Y-39639D03*
X69874Y-39639D03*
X68874Y-40639D03*
X69874Y-40639D03*
X68874Y-41639D03*
X69874Y-41639D03*
X68874Y-42639D03*
X69874Y-42639D03*
X68874Y-43639D03*
X69874Y-43639D03*
G54D19*
X38000Y-34985D03*
X38000Y-35600D03*
X37150Y-24485D03*
X37150Y-25100D03*
G54D18*
X44165Y-30150D03*
X43550Y-30150D03*
X52835Y-51900D03*
X53450Y-51900D03*
G54D21*
X38900Y-38500D03*
G54D22*
X39800Y-36000D03*
G54D21*
X40700Y-38500D03*
G54D23*
X52667Y-26300D03*
X54833Y-26300D03*
G54D24*
X43500Y-34433D03*
X43500Y-32267D03*
X43500Y-45883D03*
X43500Y-43717D03*
X35600Y-38817D03*
X35600Y-40983D03*
G54D25*
X35600Y-24254D03*
X35600Y-23546D03*
X35600Y-35654D03*
X35600Y-34946D03*
G54D18*
X43665Y-35800D03*
X43035Y-35800D03*
G54D19*
X45300Y-44535D03*
X45300Y-45165D03*
X52700Y-36515D03*
X52700Y-35885D03*
G54D18*
X44765Y-42400D03*
X44135Y-42400D03*
G54D19*
X54250Y-52615D03*
X54250Y-51985D03*
X42750Y-29385D03*
X42750Y-30015D03*
X66050Y-26515D03*
X66050Y-25885D03*
X52700Y-34185D03*
X52700Y-34815D03*
X48450Y-41715D03*
X48450Y-41085D03*
X49150Y-41715D03*
X49150Y-41085D03*
X45150Y-41415D03*
X45150Y-40785D03*
G54D18*
X45115Y-35200D03*
X44485Y-35200D03*
X45115Y-35950D03*
X44485Y-35950D03*
G54D20*
X32829Y-51313D03*
G54D15*
X32829Y-52313D03*
X32829Y-53313D03*
X32829Y-54313D03*
G54D20*
X32829Y-56313D03*
G54D15*
X32829Y-55313D03*
G54D20*
X40600Y-33200D03*
G54D15*
X39600Y-33200D03*
X38600Y-33200D03*
X37600Y-33200D03*
X36600Y-33200D03*
X35600Y-33200D03*
G54D20*
X40600Y-51400D03*
G54D15*
X40600Y-52400D03*
X40600Y-53400D03*
X40600Y-54400D03*
X40600Y-55400D03*
X40600Y-56400D03*
G54D20*
X40600Y-58300D03*
G54D15*
X40600Y-59300D03*
G54D26*
X52050Y-23350D03*
X53050Y-21350D03*
X51050Y-21350D03*
X47100Y-23350D03*
X48100Y-21350D03*
X46100Y-21350D03*
G54D18*
X49885Y-49500D03*
X50515Y-49500D03*
X48515Y-49300D03*
X47885Y-49300D03*
G54D19*
X46150Y-49515D03*
X46150Y-48885D03*
X44700Y-51715D03*
X44700Y-51085D03*
G54D18*
X47765Y-31550D03*
X47135Y-31550D03*
G54D19*
X49650Y-32165D03*
X49650Y-31535D03*
G54D18*
X50735Y-31600D03*
X51365Y-31600D03*
G54D19*
X52700Y-30515D03*
X52700Y-29885D03*
X47150Y-36535D03*
X47150Y-37165D03*
X49600Y-44365D03*
X49600Y-43735D03*
X37600Y-39685D03*
X37600Y-40315D03*
G54D18*
X44715Y-24500D03*
X44085Y-24500D03*
G54D19*
X60150Y-35415D03*
X60150Y-34800D03*
X61350Y-35415D03*
X61350Y-34800D03*
X62550Y-35415D03*
X62550Y-34800D03*
X63750Y-35415D03*
X63750Y-34800D03*
X60150Y-34115D03*
X60150Y-33485D03*
X61350Y-34115D03*
X61350Y-33485D03*
X62550Y-34115D03*
X62550Y-33485D03*
X63750Y-34115D03*
X63750Y-33485D03*
X35050Y-27015D03*
X35050Y-26385D03*
X34950Y-29685D03*
X34950Y-30315D03*
G54D14*
X49072Y-37052D03*
X49328Y-37052D03*
X49584Y-37052D03*
X49840Y-37052D03*
X48308Y-34850D03*
X48304Y-37052D03*
X48560Y-37052D03*
X48816Y-37052D03*
X50096Y-34848D03*
X49840Y-34848D03*
X49584Y-34848D03*
X49328Y-34848D03*
X49072Y-34848D03*
X48816Y-34848D03*
X50096Y-37052D03*
X48560Y-34850D03*
X48048Y-37052D03*
X50352Y-37052D03*
X50352Y-34848D03*
X48048Y-34848D03*
X47793Y-37052D03*
X50607Y-37052D03*
X50607Y-34848D03*
X47793Y-34848D03*
G54D27*
X49200Y-35950D03*
G54D28*
X48500Y-35550D03*
X49000Y-35550D03*
X49500Y-35550D03*
X50000Y-35550D03*
X48750Y-35900D03*
X49250Y-35900D03*
X49750Y-35900D03*
X48500Y-36250D03*
X49000Y-36250D03*
X49500Y-36250D03*
X50000Y-36250D03*
G54D14*
X47778Y-43798D03*
X47522Y-43798D03*
X47266Y-43798D03*
X47010Y-43798D03*
X48542Y-46000D03*
X48546Y-43798D03*
X48290Y-43798D03*
X48034Y-43798D03*
X46754Y-46002D03*
X47010Y-46002D03*
X47266Y-46002D03*
X47522Y-46002D03*
X47778Y-46002D03*
X48034Y-46002D03*
X46754Y-43798D03*
X48290Y-46000D03*
X48802Y-43798D03*
X46498Y-43798D03*
X46498Y-46002D03*
X48802Y-46002D03*
X49057Y-43798D03*
X46243Y-43798D03*
X46243Y-46002D03*
X49057Y-46002D03*
G54D27*
X47650Y-44900D03*
G54D28*
X48350Y-45300D03*
X47850Y-45300D03*
X47350Y-45300D03*
X46850Y-45300D03*
X48100Y-44950D03*
X47600Y-44950D03*
X47100Y-44950D03*
X48350Y-44600D03*
X47850Y-44600D03*
X47350Y-44600D03*
X46850Y-44600D03*
G54D13*
X55900Y-43200D03*
X61950Y-38550D03*
G54D14*
X58028Y-43848D03*
X57772Y-43848D03*
X57516Y-43848D03*
X57260Y-43848D03*
X58792Y-46050D03*
X58796Y-43848D03*
X58540Y-43848D03*
X58284Y-43848D03*
X57004Y-46052D03*
X57260Y-46052D03*
X57516Y-46052D03*
X57772Y-46052D03*
X58028Y-46052D03*
X58284Y-46052D03*
X57004Y-43848D03*
X58540Y-46050D03*
X59052Y-43848D03*
X56748Y-43848D03*
X56748Y-46052D03*
X59052Y-46052D03*
X59307Y-43848D03*
X56493Y-43848D03*
X56493Y-46052D03*
X59307Y-46052D03*
G54D27*
X57900Y-44950D03*
G54D28*
X58600Y-45350D03*
X58100Y-45350D03*
X57600Y-45350D03*
X57100Y-45350D03*
X58350Y-45000D03*
X57850Y-45000D03*
X57350Y-45000D03*
X58600Y-44650D03*
X58100Y-44650D03*
X57600Y-44650D03*
X57100Y-44650D03*
G54D14*
X57622Y-37552D03*
X57878Y-37552D03*
X58134Y-37552D03*
X58390Y-37552D03*
X56858Y-35350D03*
X56854Y-37552D03*
X57110Y-37552D03*
X57366Y-37552D03*
X58646Y-35348D03*
X58390Y-35348D03*
X58134Y-35348D03*
X57878Y-35348D03*
X57622Y-35348D03*
X57366Y-35348D03*
X58646Y-37552D03*
X57110Y-35350D03*
X56598Y-37552D03*
X58902Y-37552D03*
X58902Y-35348D03*
X56598Y-35348D03*
X56343Y-37552D03*
X59157Y-37552D03*
X59157Y-35348D03*
X56343Y-35348D03*
G54D27*
X57750Y-36450D03*
G54D28*
X57050Y-36050D03*
X57550Y-36050D03*
X58050Y-36050D03*
X58550Y-36050D03*
X57300Y-36400D03*
X57800Y-36400D03*
X58300Y-36400D03*
X57050Y-36750D03*
X57550Y-36750D03*
X58050Y-36750D03*
X58550Y-36750D03*
G54D17*
X55600Y-34609D03*
X55600Y-35791D03*
G54D29*
X61191Y-37700D03*
X60009Y-37700D03*
G54D17*
X60650Y-47359D03*
X60650Y-48541D03*
X55050Y-46609D03*
X55050Y-47791D03*
G54D19*
X62200Y-44415D03*
X62200Y-43785D03*
X62950Y-43785D03*
X62950Y-44415D03*
G54D18*
X64935Y-35800D03*
X65565Y-35800D03*
G54D19*
X58900Y-40015D03*
X58900Y-39385D03*
X58100Y-39385D03*
X58100Y-40015D03*
G54D20*
X61650Y-29900D03*
G54D15*
X60650Y-29900D03*
X59650Y-29900D03*
X58650Y-29900D03*
X57650Y-29900D03*
X56650Y-29900D03*
X55650Y-29900D03*
G54D20*
X56200Y-51181D03*
G54D15*
X57200Y-51181D03*
X58200Y-51181D03*
X59200Y-51181D03*
X60200Y-51181D03*
X61200Y-51181D03*
X62200Y-51181D03*
G54D24*
X54650Y-38867D03*
X54650Y-41033D03*
X53550Y-45833D03*
X53550Y-43667D03*
G54D18*
X61115Y-38550D03*
X60485Y-38550D03*
X59035Y-31650D03*
X59665Y-31650D03*
X62685Y-30650D03*
X63315Y-30650D03*
X63315Y-29900D03*
X62685Y-29900D03*
X60335Y-49500D03*
X60965Y-49500D03*
G54D19*
X57150Y-39285D03*
X57150Y-39915D03*
G54D18*
X58815Y-49250D03*
X58185Y-49250D03*
G54D19*
X56450Y-39285D03*
X56450Y-39915D03*
X56550Y-49515D03*
X56550Y-48885D03*
G54D18*
X58765Y-40750D03*
X58135Y-40750D03*
G54D19*
X55200Y-51865D03*
X55200Y-51235D03*
G54D18*
X59335Y-42350D03*
X59965Y-42350D03*
G54D19*
X60050Y-43785D03*
X60050Y-44415D03*
X60800Y-43785D03*
X60800Y-44415D03*
X55650Y-36985D03*
X55650Y-37615D03*
X61500Y-43785D03*
X61500Y-44415D03*
X55450Y-44735D03*
X55450Y-45365D03*
X54850Y-36985D03*
X54850Y-37615D03*
G54D18*
X57515Y-31550D03*
X56885Y-31550D03*
X55915Y-43800D03*
X55285Y-43800D03*
G54D19*
X61000Y-45835D03*
X61000Y-46465D03*
G54D18*
X63915Y-51150D03*
X63285Y-51150D03*
G54D19*
X54600Y-31585D03*
X54600Y-32215D03*
G54D18*
X56015Y-32450D03*
X55385Y-32450D03*
X63915Y-52600D03*
X63285Y-52600D03*
X63285Y-51900D03*
X63900Y-51900D03*
G54D19*
X54600Y-30285D03*
X54600Y-30900D03*
G54D18*
X55485Y-31550D03*
X56115Y-31550D03*
G54D19*
X64750Y-52615D03*
X64750Y-51985D03*
G54D20*
X43000Y-21850D03*
G54D15*
X44000Y-21850D03*
G54D30*
X61100Y-45400D03*
X60550Y-40900D03*
X62350Y-45150D03*
X58850Y-42350D03*
X56950Y-42400D03*
X58150Y-43150D03*
X65250Y-26500D03*
X60000Y-26450D03*
X60950Y-26400D03*
X58750Y-38450D03*
X57500Y-38300D03*
X54600Y-32700D03*
X50550Y-44750D03*
X46700Y-43000D03*
X47900Y-43000D03*
X53400Y-35600D03*
X50100Y-37700D03*
X48950Y-37700D03*
X44950Y-38300D03*
X44850Y-27600D03*
X42750Y-40700D03*
X62400Y-26500D03*
X63600Y-20950D03*
X43300Y-40450D03*
X61300Y-32900D03*
X42250Y-39450D03*
X39750Y-41800D03*
X43250Y-26650D03*
X63350Y-27650D03*
X64000Y-29750D03*
X67100Y-46050D03*
X63900Y-27400D03*
X64750Y-29700D03*
X64600Y-37600D03*
X64550Y-38800D03*
X63850Y-47250D03*
X64400Y-45600D03*
X54350Y-50150D03*
X45750Y-45800D03*
X66350Y-33200D03*
X52300Y-46550D03*
X67150Y-35700D03*
X45700Y-24850D03*
X45700Y-26100D03*
X62700Y-22300D03*
X66600Y-26000D03*
X43250Y-37800D03*
X44650Y-39850D03*
X52700Y-49150D03*
X51850Y-44000D03*
X45950Y-42400D03*
X65200Y-28350D03*
X65100Y-27650D03*
X53950Y-28900D03*
X53150Y-28900D03*
X53900Y-34650D03*
X46600Y-34350D03*
X41650Y-39600D03*
X41700Y-30600D03*
X61550Y-24550D03*
X53550Y-28300D03*
X66300Y-37250D03*
X64650Y-40000D03*
X63250Y-49700D03*
X63250Y-48450D03*
X63650Y-45550D03*
X67100Y-29450D03*
X44350Y-31650D03*
X53800Y-37200D03*
X56350Y-34600D03*
X60550Y-36100D03*
X58900Y-32850D03*
X59450Y-33050D03*
X57800Y-33000D03*
X56900Y-33000D03*
X67250Y-24100D03*
X64400Y-47350D03*
X66000Y-44350D03*
X66800Y-39350D03*
X56250Y-46700D03*
X68250Y-44900D03*
X63300Y-37300D03*
X62850Y-40600D03*
X62650Y-41850D03*
X66950Y-23400D03*
X64850Y-46900D03*
X66750Y-42900D03*
X67400Y-47500D03*
X65250Y-25550D03*
X62250Y-45750D03*
X60600Y-42350D03*
X52850Y-43850D03*
X55050Y-48300D03*
X58850Y-48700D03*
X56550Y-48600D03*
X55200Y-52550D03*
X61950Y-35450D03*
X55500Y-40950D03*
X55150Y-36400D03*
X63800Y-30300D03*
X56850Y-32250D03*
X44550Y-48650D03*
X43500Y-42400D03*
X48450Y-48800D03*
X44700Y-52400D03*
X46150Y-48650D03*
X52750Y-30950D03*
X51400Y-32200D03*
X49550Y-32650D03*
X47100Y-32150D03*
X42750Y-30800D03*
X53950Y-25200D03*
X36950Y-41000D03*
X43350Y-38500D03*
X63100Y-21300D03*
X42900Y-24600D03*
X45100Y-25600D03*
X57200Y-33750D03*
X55600Y-34050D03*
X57050Y-47700D03*
X55700Y-46600D03*
X58500Y-38850D03*
X57700Y-38850D03*
X62950Y-43300D03*
X57400Y-42950D03*
X58500Y-47400D03*
X59700Y-47400D03*
X46200Y-33300D03*
X48700Y-33600D03*
X51650Y-34100D03*
X49700Y-33400D03*
X61200Y-36950D03*
X58350Y-33600D03*
X45200Y-45950D03*
X46750Y-47850D03*
X50750Y-46950D03*
X48500Y-47800D03*
X47000Y-42350D03*
X47900Y-42450D03*
X45800Y-38150D03*
X49200Y-38150D03*
X49950Y-38150D03*
X66800Y-35100D03*
X60400Y-45450D03*
X53550Y-46950D03*
X59000Y-47750D03*
X57050Y-47200D03*
X55750Y-39150D03*
X60150Y-33000D03*
X58800Y-33850D03*
X56650Y-33850D03*
X49150Y-40450D03*
X48550Y-47150D03*
X46650Y-47200D03*
X43500Y-47150D03*
X50050Y-33700D03*
X44250Y-34200D03*
X48200Y-33700D03*
X37050Y-38800D03*
G54D31*
X61000Y-45835D02*
X61000Y-45500D01*
X61000Y-45500D02*
X61100Y-45400D01*
X61200Y-51181D02*
X61200Y-51500D01*
X61200Y-51500D02*
X61550Y-51850D01*
X61550Y-51850D02*
X62500Y-51850D01*
X62500Y-51850D02*
X63000Y-51350D01*
X63000Y-51350D02*
X63085Y-51350D01*
X63085Y-51350D02*
X63285Y-51150D01*
G54D32*
X59550Y-39800D02*
X59550Y-39900D01*
X59550Y-39900D02*
X60550Y-40900D01*
G54D31*
X62200Y-44415D02*
X62200Y-45000D01*
X62200Y-45000D02*
X62350Y-45150D01*
G54D33*
X59335Y-42350D02*
X58850Y-42350D01*
X56800Y-43100D02*
X56800Y-42550D01*
X56900Y-43200D02*
X56800Y-43100D01*
X57004Y-43848D02*
X57004Y-43454D01*
X57004Y-43454D02*
X56900Y-43350D01*
X56900Y-43350D02*
X56900Y-43200D01*
X56800Y-42550D02*
X56950Y-42400D01*
X58150Y-43848D02*
X58150Y-43150D01*
X58028Y-43848D02*
X58150Y-43848D01*
X58150Y-43848D02*
X58284Y-43848D01*
G54D31*
X60150Y-31000D02*
X60150Y-31085D01*
X56650Y-29600D02*
X57300Y-28950D01*
X57300Y-28950D02*
X59950Y-28950D01*
X59950Y-28950D02*
X60150Y-29150D01*
X60150Y-29150D02*
X60150Y-31000D01*
X56650Y-29900D02*
X56650Y-29600D01*
X60150Y-31085D02*
X62550Y-33485D01*
G54D33*
X59550Y-39400D02*
X59550Y-39250D01*
X59550Y-39250D02*
X59100Y-38800D01*
G54D31*
X64935Y-35800D02*
X64500Y-35800D01*
X63150Y-35900D02*
X63150Y-33485D01*
X63200Y-35950D02*
X63150Y-35900D01*
X64350Y-35950D02*
X63200Y-35950D01*
X64500Y-35800D02*
X64350Y-35950D01*
G54D32*
X66050Y-26515D02*
X65265Y-26515D01*
X65265Y-26515D02*
X65250Y-26500D01*
X60950Y-26400D02*
X60900Y-26450D01*
X60900Y-26450D02*
X60000Y-26450D01*
X59550Y-39400D02*
X59550Y-39800D01*
X59550Y-39800D02*
X59335Y-40015D01*
X58900Y-40015D02*
X59335Y-40015D01*
G54D33*
X59100Y-38800D02*
X58750Y-38450D01*
X58646Y-37552D02*
X58646Y-38346D01*
X58646Y-38346D02*
X58750Y-38450D01*
G54D32*
X58900Y-40015D02*
X58900Y-40615D01*
X58900Y-40615D02*
X58765Y-40750D01*
G54D33*
X57500Y-37552D02*
X57500Y-38300D01*
X57366Y-37552D02*
X57500Y-37552D01*
X57500Y-37552D02*
X57622Y-37552D01*
G54D31*
X62550Y-33485D02*
X63150Y-33485D01*
X63150Y-33485D02*
X63750Y-33485D01*
X54600Y-32700D02*
X54600Y-32215D01*
X50550Y-44750D02*
X50550Y-45135D01*
X45150Y-41415D02*
X46400Y-41415D01*
X46400Y-41415D02*
X46400Y-41450D01*
X47000Y-41085D02*
X46615Y-41085D01*
X46400Y-42700D02*
X46700Y-43000D01*
X46400Y-41300D02*
X46400Y-41450D01*
X46400Y-41450D02*
X46400Y-42700D01*
X46615Y-41085D02*
X46400Y-41300D01*
G54D33*
X46754Y-43798D02*
X46754Y-43054D01*
G54D32*
X47900Y-43000D02*
X47900Y-43798D01*
G54D33*
X46754Y-43054D02*
X46700Y-43000D01*
X48034Y-43798D02*
X47900Y-43798D01*
X47900Y-43798D02*
X47778Y-43798D01*
X53400Y-35600D02*
X53250Y-35450D01*
X53250Y-35450D02*
X53250Y-34150D01*
X53250Y-34150D02*
X52735Y-34150D01*
X52735Y-34150D02*
X52700Y-34185D01*
G54D31*
X52735Y-34150D02*
X52700Y-34185D01*
X50700Y-51181D02*
X50700Y-51719D01*
X52669Y-51200D02*
X52835Y-51200D01*
X52150Y-51719D02*
X52669Y-51200D01*
X50700Y-51719D02*
X52150Y-51719D01*
G54D33*
X48950Y-37052D02*
X48950Y-37700D01*
X50096Y-37696D02*
X50096Y-37052D01*
X50100Y-37700D02*
X50096Y-37696D01*
X48816Y-37052D02*
X48950Y-37052D01*
X48950Y-37052D02*
X49072Y-37052D01*
G54D31*
X44935Y-37400D02*
X44935Y-38285D01*
X44935Y-38285D02*
X44950Y-38300D01*
X45300Y-31585D02*
X45300Y-30950D01*
X45250Y-30950D02*
X45300Y-30950D01*
X45300Y-30950D02*
X45650Y-30950D01*
X45650Y-30950D02*
X46700Y-29900D01*
X44215Y-30950D02*
X45250Y-30950D01*
G54D32*
X44815Y-27565D02*
X44200Y-27565D01*
X44850Y-27600D02*
X44815Y-27565D01*
G54D31*
X64522Y-22348D02*
X64266Y-22348D01*
G54D32*
X42750Y-40700D02*
X41915Y-40700D01*
X63350Y-26515D02*
X62415Y-26515D01*
X62415Y-26515D02*
X62400Y-26500D01*
G54D31*
X64285Y-21350D02*
X64000Y-21350D01*
X64000Y-21350D02*
X63600Y-20950D01*
X64285Y-21350D02*
X64285Y-22329D01*
X64285Y-22329D02*
X64266Y-22348D01*
G54D34*
X32829Y-48313D02*
X40487Y-48313D01*
X40487Y-48313D02*
X40600Y-48200D01*
G54D31*
X41915Y-40700D02*
X41915Y-42035D01*
X41915Y-42035D02*
X41600Y-42350D01*
X41600Y-42350D02*
X34700Y-42350D01*
X34700Y-42350D02*
X34650Y-42300D01*
X34650Y-42300D02*
X34650Y-37965D01*
X34650Y-37965D02*
X35600Y-37015D01*
G54D32*
X44200Y-28000D02*
X44150Y-28000D01*
X44200Y-27565D02*
X44200Y-28100D01*
X44150Y-28050D02*
X35600Y-28050D01*
X44200Y-28100D02*
X44150Y-28050D01*
X35600Y-28050D02*
X35600Y-25615D01*
G54D31*
X35600Y-28050D02*
X35600Y-28050D01*
X43150Y-39550D02*
X42350Y-39550D01*
X43300Y-40450D02*
X43150Y-40300D01*
X43150Y-40300D02*
X43150Y-39550D01*
X61350Y-32950D02*
X61300Y-32900D01*
X61350Y-33485D02*
X61350Y-32950D01*
X42350Y-39550D02*
X42250Y-39450D01*
G54D32*
X38900Y-41815D02*
X39735Y-41815D01*
X39735Y-41815D02*
X39750Y-41800D01*
X43265Y-26665D02*
X43265Y-27350D01*
X43250Y-26650D02*
X43265Y-26665D01*
G54D31*
X64000Y-29750D02*
X64050Y-29750D01*
X67500Y-31050D02*
X67500Y-35600D01*
X67350Y-30900D02*
X67500Y-31050D01*
X65200Y-30900D02*
X67350Y-30900D01*
X64050Y-29750D02*
X65200Y-30900D01*
X62850Y-27500D02*
X63200Y-27500D01*
X63200Y-27500D02*
X63350Y-27650D01*
X67500Y-35600D02*
X68050Y-36150D01*
X68050Y-36150D02*
X69363Y-36150D01*
X69363Y-36150D02*
X69874Y-35639D01*
X61250Y-27150D02*
X61900Y-27150D01*
X62250Y-27500D02*
X62300Y-27500D01*
X61900Y-27150D02*
X62250Y-27500D01*
X62850Y-27500D02*
X62300Y-27500D01*
X51150Y-27150D02*
X61250Y-27150D01*
X45100Y-28750D02*
X40800Y-28750D01*
X45800Y-28050D02*
X45100Y-28750D01*
X45800Y-27050D02*
X45800Y-28050D01*
X45950Y-26900D02*
X45800Y-27050D01*
X50900Y-26900D02*
X45950Y-26900D01*
X51150Y-27150D02*
X50900Y-26900D01*
X40800Y-28750D02*
X35050Y-28750D01*
X34950Y-28850D02*
X34950Y-29685D01*
X35050Y-28750D02*
X34950Y-28850D01*
X40800Y-28750D02*
X40765Y-28750D01*
X68400Y-48050D02*
X69400Y-49050D01*
X68400Y-47350D02*
X68400Y-48050D01*
X67100Y-46050D02*
X68400Y-47350D01*
X64750Y-29700D02*
X64750Y-30050D01*
X67750Y-35250D02*
X67950Y-35450D01*
X67750Y-30750D02*
X67750Y-35250D01*
X67650Y-30650D02*
X67750Y-30750D01*
X65350Y-30650D02*
X67650Y-30650D01*
X64750Y-30050D02*
X65350Y-30650D01*
X63600Y-27250D02*
X63750Y-27250D01*
X63750Y-27250D02*
X63900Y-27400D01*
X64750Y-29700D02*
X64800Y-29750D01*
X51550Y-26900D02*
X53800Y-26900D01*
X35050Y-27015D02*
X35050Y-28150D01*
X35050Y-28150D02*
X35400Y-28500D01*
X35400Y-28500D02*
X44800Y-28500D01*
X44800Y-28500D02*
X45450Y-27850D01*
X45450Y-27850D02*
X45450Y-26750D01*
X45450Y-26750D02*
X45650Y-26550D01*
X45650Y-26550D02*
X51200Y-26550D01*
X51200Y-26550D02*
X51550Y-26900D01*
X53800Y-26900D02*
X61500Y-26900D01*
X63600Y-27250D02*
X62350Y-27250D01*
X62000Y-26900D02*
X62350Y-27250D01*
X61500Y-26900D02*
X62000Y-26900D01*
X68139Y-35639D02*
X68874Y-35639D01*
X67950Y-35450D02*
X68139Y-35639D01*
X54565Y-52615D02*
X54585Y-52615D01*
X54585Y-52615D02*
X54775Y-52425D01*
X64600Y-37600D02*
X64550Y-37650D01*
X64550Y-37650D02*
X64550Y-38800D01*
X63850Y-46150D02*
X63850Y-47250D01*
X64400Y-45600D02*
X63850Y-46150D01*
X54350Y-50150D02*
X54775Y-50575D01*
X54775Y-50575D02*
X54775Y-52425D01*
X54250Y-52615D02*
X54565Y-52615D01*
X53415Y-52600D02*
X54235Y-52600D01*
X54235Y-52600D02*
X54250Y-52615D01*
G54D34*
X32829Y-51313D02*
X32829Y-52313D01*
X40600Y-51400D02*
X40600Y-52400D01*
X32829Y-52313D02*
X40513Y-52313D01*
X40513Y-52313D02*
X40600Y-52400D01*
X32829Y-51313D02*
X40513Y-51313D01*
X40513Y-51313D02*
X40600Y-51400D01*
X32829Y-44313D02*
X40487Y-44313D01*
X40487Y-44313D02*
X40600Y-44200D01*
X32829Y-43313D02*
X40487Y-43313D01*
X40487Y-43313D02*
X40600Y-43200D01*
X32829Y-45313D02*
X40487Y-45313D01*
X40487Y-45313D02*
X40600Y-45200D01*
X32829Y-46313D02*
X40487Y-46313D01*
X40487Y-46313D02*
X40600Y-46200D01*
X32829Y-47313D02*
X40487Y-47313D01*
X40487Y-47313D02*
X40600Y-47200D01*
X32829Y-55313D02*
X40513Y-55313D01*
X40513Y-55313D02*
X40600Y-55400D01*
X40600Y-21800D02*
X40600Y-22950D01*
X40600Y-22950D02*
X39600Y-23950D01*
X39600Y-21800D02*
X39600Y-23950D01*
X39600Y-23950D02*
X39600Y-24900D01*
X39600Y-24900D02*
X39000Y-25500D01*
G54D31*
X37150Y-24485D02*
X37985Y-24485D01*
X37985Y-24485D02*
X39000Y-25500D01*
X46498Y-46502D02*
X46450Y-46550D01*
X46498Y-46002D02*
X46498Y-46502D01*
X45750Y-46350D02*
X45750Y-45800D01*
X45950Y-46550D02*
X45750Y-46350D01*
X46450Y-46550D02*
X45950Y-46550D01*
X67150Y-34550D02*
X67150Y-34000D01*
X67150Y-34000D02*
X66350Y-33200D01*
X52025Y-46275D02*
X52300Y-46550D01*
X49975Y-46275D02*
X52025Y-46275D01*
X67150Y-34550D02*
X67150Y-35700D01*
X50550Y-45765D02*
X50485Y-45765D01*
X50485Y-45765D02*
X49975Y-46275D01*
X49975Y-46275D02*
X49750Y-46500D01*
X48802Y-46502D02*
X48804Y-46500D01*
X48802Y-46002D02*
X48802Y-46502D01*
X48804Y-46500D02*
X49750Y-46500D01*
G54D33*
X47522Y-46202D02*
X47522Y-47428D01*
G54D35*
X46700Y-48650D02*
X47300Y-48050D01*
X47300Y-48050D02*
X47300Y-47650D01*
X46700Y-48650D02*
X46700Y-50100D01*
G54D33*
X47522Y-47428D02*
X47300Y-47650D01*
G54D35*
X46700Y-51181D02*
X46700Y-50100D01*
X46700Y-50100D02*
X46700Y-50065D01*
X46700Y-50065D02*
X46150Y-49515D01*
X45500Y-48450D02*
X46100Y-47850D01*
G54D33*
X46100Y-46850D02*
X46100Y-47300D01*
G54D35*
X45700Y-50100D02*
X45500Y-49900D01*
X45500Y-49900D02*
X45500Y-48450D01*
X46100Y-47850D02*
X46100Y-47300D01*
X45700Y-50100D02*
X45700Y-51181D01*
G54D33*
X46754Y-46646D02*
X46550Y-46850D01*
X46550Y-46850D02*
X46100Y-46850D01*
X46754Y-46002D02*
X46754Y-46646D01*
G54D35*
X44700Y-51085D02*
X45603Y-51085D01*
X45603Y-51085D02*
X45700Y-51181D01*
G54D33*
X47778Y-46202D02*
X47778Y-47478D01*
G54D35*
X47700Y-49485D02*
X47700Y-48600D01*
X47700Y-48600D02*
X47950Y-48350D01*
X47950Y-48350D02*
X47950Y-47650D01*
X47700Y-50115D02*
X47700Y-51181D01*
X47700Y-50115D02*
X47700Y-49485D01*
G54D33*
X47778Y-47478D02*
X47950Y-47650D01*
X49885Y-49500D02*
X49700Y-49500D01*
X49700Y-49500D02*
X49400Y-49800D01*
G54D35*
X49400Y-48950D02*
X49400Y-49800D01*
X49400Y-49800D02*
X49400Y-50000D01*
X49100Y-50300D02*
X49100Y-50285D01*
X49400Y-50000D02*
X49100Y-50300D01*
G54D33*
X48542Y-46200D02*
X48542Y-46592D01*
G54D35*
X49400Y-48950D02*
X49100Y-48650D01*
X49100Y-48650D02*
X49100Y-47250D01*
G54D33*
X49100Y-47150D02*
X49100Y-47250D01*
X48542Y-46592D02*
X49100Y-47150D01*
G54D35*
X48700Y-51181D02*
X48700Y-50685D01*
X48700Y-50685D02*
X49100Y-50285D01*
G54D31*
X49450Y-25450D02*
X46300Y-25450D01*
X46300Y-25450D02*
X45700Y-24850D01*
X45700Y-26100D02*
X45675Y-26125D01*
X45675Y-26125D02*
X44775Y-26125D01*
X60250Y-22300D02*
X49700Y-22300D01*
X62700Y-22300D02*
X60250Y-22300D01*
X49450Y-22550D02*
X49450Y-25450D01*
X49700Y-22300D02*
X49450Y-22550D01*
X44066Y-26125D02*
X44775Y-26125D01*
X44200Y-26935D02*
X44200Y-26259D01*
X44200Y-26259D02*
X44066Y-26125D01*
X65546Y-25046D02*
X65600Y-25100D01*
X65600Y-25100D02*
X66350Y-25100D01*
X65546Y-24552D02*
X65546Y-25046D01*
X66600Y-25350D02*
X66600Y-26000D01*
X66350Y-25100D02*
X66600Y-25350D01*
X43950Y-37800D02*
X43950Y-39150D01*
X43250Y-37800D02*
X43950Y-37800D01*
X43950Y-39150D02*
X44650Y-39850D01*
X45300Y-42400D02*
X44765Y-42400D01*
X45300Y-42400D02*
X45265Y-42400D01*
X45300Y-42400D02*
X45300Y-43750D01*
X45348Y-43798D02*
X46243Y-43798D01*
X45348Y-43798D02*
X45300Y-43750D01*
X52700Y-44850D02*
X52700Y-49150D01*
X51850Y-44000D02*
X52700Y-44850D01*
X46498Y-43448D02*
X45950Y-42900D01*
X45950Y-42900D02*
X45950Y-42400D01*
X46498Y-43798D02*
X46498Y-43448D01*
X52835Y-51900D02*
X52835Y-52550D01*
X52835Y-52550D02*
X52785Y-52600D01*
X49700Y-51181D02*
X49700Y-51900D01*
X49750Y-51900D02*
X52835Y-51900D01*
X49700Y-51900D02*
X49750Y-51900D01*
X35600Y-24985D02*
X35085Y-24985D01*
X35050Y-25020D02*
X35050Y-26385D01*
X35085Y-24985D02*
X35050Y-25020D01*
X36600Y-21800D02*
X36600Y-22350D01*
X36196Y-24254D02*
X35600Y-24254D01*
X36250Y-24200D02*
X36196Y-24254D01*
X36250Y-22700D02*
X36250Y-24200D01*
X36600Y-22350D02*
X36250Y-22700D01*
X35600Y-24985D02*
X35600Y-24254D01*
X38000Y-34985D02*
X38785Y-34985D01*
X38785Y-34985D02*
X39800Y-36000D01*
G54D34*
X39600Y-33200D02*
X39600Y-35800D01*
G54D35*
X39600Y-35800D02*
X39800Y-36000D01*
X39800Y-36000D02*
X39800Y-35400D01*
G54D34*
X40600Y-34600D02*
X40600Y-33200D01*
G54D35*
X39800Y-35400D02*
X40600Y-34600D01*
G54D31*
X66300Y-27650D02*
X65100Y-27650D01*
X68150Y-28150D02*
X68100Y-28100D01*
X68200Y-28150D02*
X69385Y-28150D01*
X69874Y-28639D02*
X69385Y-28150D01*
X68200Y-28150D02*
X68150Y-28150D01*
X66300Y-27650D02*
X67650Y-27650D01*
X67650Y-27650D02*
X68100Y-28100D01*
X65200Y-28350D02*
X65050Y-28500D01*
X65050Y-28500D02*
X64900Y-28500D01*
X62350Y-28200D02*
X63150Y-29000D01*
X64900Y-28500D02*
X65050Y-28500D01*
X64400Y-29000D02*
X64900Y-28500D01*
X63150Y-29000D02*
X64400Y-29000D01*
X60800Y-27600D02*
X61750Y-27600D01*
X61750Y-27600D02*
X62350Y-28200D01*
X53950Y-28900D02*
X53950Y-27600D01*
X53950Y-27600D02*
X60800Y-27600D01*
X52050Y-33150D02*
X53300Y-31900D01*
X50352Y-34848D02*
X50352Y-34398D01*
X50500Y-34250D02*
X50950Y-34250D01*
X50352Y-34398D02*
X50500Y-34250D01*
X52050Y-33150D02*
X50950Y-34250D01*
X53300Y-29050D02*
X53150Y-28900D01*
X53300Y-31900D02*
X53300Y-29050D01*
X67750Y-30150D02*
X67750Y-29250D01*
X67250Y-28750D02*
X65950Y-28750D01*
X67750Y-29250D02*
X67250Y-28750D01*
X62350Y-28500D02*
X63050Y-29200D01*
X53800Y-29650D02*
X54350Y-29100D01*
X53800Y-34550D02*
X53800Y-29650D01*
X53900Y-34650D02*
X53800Y-34550D01*
X54350Y-27800D02*
X54350Y-29100D01*
X60450Y-27800D02*
X54350Y-27800D01*
X60450Y-27800D02*
X61650Y-27800D01*
X64950Y-28750D02*
X65950Y-28750D01*
X61650Y-27800D02*
X62350Y-28500D01*
X63050Y-29200D02*
X64500Y-29200D01*
X64500Y-29200D02*
X64950Y-28750D01*
X69400Y-30150D02*
X69400Y-30165D01*
X67750Y-30150D02*
X69400Y-30150D01*
X69400Y-30165D02*
X69874Y-30639D01*
X47150Y-34350D02*
X47687Y-34350D01*
X47687Y-34350D02*
X47718Y-34318D01*
X46600Y-34350D02*
X47150Y-34350D01*
X45300Y-32215D02*
X45300Y-33050D01*
X45300Y-33050D02*
X46600Y-34350D01*
X48048Y-34485D02*
X48048Y-34848D01*
X47718Y-34318D02*
X47881Y-34318D01*
X47881Y-34318D02*
X48048Y-34485D01*
G54D33*
X49328Y-34848D02*
X49328Y-33172D01*
G54D32*
X50050Y-33000D02*
X50200Y-32850D01*
G54D35*
X50200Y-32850D02*
X50735Y-32315D01*
X50735Y-32315D02*
X50735Y-31600D01*
G54D32*
X49850Y-33000D02*
X50050Y-33000D01*
G54D33*
X49500Y-33000D02*
X49850Y-33000D01*
X49328Y-33172D02*
X49500Y-33000D01*
G54D35*
X50700Y-29900D02*
X50700Y-31565D01*
X50700Y-31565D02*
X50735Y-31600D01*
G54D32*
X50750Y-33750D02*
X50650Y-33750D01*
X50650Y-33750D02*
X50150Y-34250D01*
G54D33*
X50096Y-34304D02*
X50150Y-34250D01*
X50096Y-34848D02*
X50096Y-34304D01*
G54D35*
X52200Y-31250D02*
X52200Y-32300D01*
X51700Y-29900D02*
X51700Y-30750D01*
X51700Y-30750D02*
X52200Y-31250D01*
X52200Y-32300D02*
X50750Y-33750D01*
X51700Y-29900D02*
X52685Y-29900D01*
X52685Y-29900D02*
X52700Y-29885D01*
G54D33*
X49072Y-34848D02*
X49072Y-33072D01*
X49072Y-33072D02*
X48900Y-32900D01*
X49100Y-33100D02*
X48900Y-32900D01*
G54D35*
X48900Y-31500D02*
X48900Y-32900D01*
X49700Y-31485D02*
X49685Y-31500D01*
X49685Y-31500D02*
X48900Y-31500D01*
X49700Y-29900D02*
X49700Y-31485D01*
X48900Y-32900D02*
X48900Y-32950D01*
X48900Y-32950D02*
X48950Y-33000D01*
G54D33*
X48308Y-34850D02*
X48308Y-34408D01*
X48308Y-34408D02*
X48200Y-34300D01*
G54D32*
X47550Y-33600D02*
X47550Y-33650D01*
G54D35*
X47765Y-33335D02*
X47550Y-33550D01*
X47550Y-33550D02*
X47550Y-33600D01*
X47765Y-31550D02*
X47765Y-33335D01*
G54D31*
X48308Y-34408D02*
X48200Y-34300D01*
G54D32*
X47550Y-33650D02*
X48200Y-34300D01*
G54D35*
X48700Y-29900D02*
X48700Y-30615D01*
X48700Y-30615D02*
X47765Y-31550D01*
G54D31*
X68000Y-29639D02*
X68000Y-28600D01*
X67400Y-28000D02*
X66100Y-28000D01*
X68000Y-28600D02*
X67400Y-28000D01*
X64750Y-28000D02*
X64450Y-28300D01*
X66100Y-28000D02*
X64750Y-28000D01*
X62300Y-27850D02*
X62850Y-28400D01*
X62850Y-28400D02*
X64350Y-28400D01*
X64350Y-28400D02*
X64450Y-28300D01*
X68000Y-29639D02*
X68874Y-29639D01*
X61075Y-27375D02*
X61825Y-27375D01*
X41700Y-30600D02*
X41700Y-29250D01*
X50850Y-27300D02*
X50925Y-27375D01*
X46250Y-27300D02*
X50850Y-27300D01*
X46150Y-27400D02*
X46250Y-27300D01*
X46150Y-28100D02*
X46150Y-27400D01*
X45250Y-29000D02*
X46150Y-28100D01*
X41950Y-29000D02*
X45250Y-29000D01*
X41700Y-29250D02*
X41950Y-29000D01*
X41285Y-39965D02*
X41650Y-39600D01*
X41285Y-40700D02*
X41285Y-39965D01*
X50925Y-27375D02*
X61075Y-27375D01*
X61825Y-27375D02*
X62300Y-27850D01*
X40516Y-40775D02*
X41210Y-40775D01*
X41210Y-40775D02*
X41285Y-40700D01*
X63754Y-26996D02*
X62396Y-26996D01*
X62396Y-26996D02*
X61550Y-26150D01*
X53385Y-36515D02*
X52700Y-36515D01*
X53550Y-35050D02*
X53550Y-28300D01*
X53385Y-36515D02*
X53550Y-36350D01*
X61550Y-26150D02*
X61550Y-24550D01*
X54050Y-35850D02*
X54050Y-35200D01*
X54050Y-35200D02*
X53900Y-35050D01*
X53900Y-35050D02*
X53550Y-35050D01*
X53550Y-36350D02*
X54050Y-35850D01*
X63754Y-24552D02*
X63754Y-26996D01*
X63754Y-26996D02*
X63750Y-27000D01*
X51450Y-37050D02*
X52165Y-37050D01*
X52165Y-37050D02*
X52700Y-36515D01*
X50607Y-37052D02*
X51448Y-37052D01*
X51448Y-37052D02*
X51450Y-37050D01*
X66300Y-37250D02*
X66250Y-37300D01*
X66250Y-37300D02*
X66250Y-38400D01*
X66250Y-38400D02*
X64650Y-40000D01*
X65650Y-50100D02*
X66600Y-51050D01*
X63650Y-50100D02*
X65650Y-50100D01*
X63250Y-49700D02*
X63650Y-50100D01*
X63250Y-45950D02*
X63250Y-48450D01*
X63650Y-45550D02*
X63250Y-45950D01*
X64950Y-29050D02*
X66700Y-29050D01*
X64600Y-29400D02*
X62950Y-29400D01*
X64950Y-29050D02*
X64600Y-29400D01*
X62250Y-28700D02*
X62950Y-29400D01*
X66700Y-29050D02*
X67100Y-29450D01*
X54450Y-34650D02*
X54450Y-36000D01*
X50352Y-37502D02*
X50450Y-37600D01*
X50352Y-37052D02*
X50352Y-37502D01*
X53700Y-36750D02*
X54400Y-36050D01*
X53700Y-36750D02*
X53000Y-37450D01*
X50450Y-37600D02*
X52450Y-37600D01*
X52850Y-37600D02*
X52450Y-37600D01*
X53000Y-37450D02*
X52850Y-37600D01*
X54550Y-28000D02*
X60250Y-28000D01*
X54550Y-29550D02*
X54550Y-28000D01*
X61550Y-28000D02*
X60250Y-28000D01*
X61550Y-28000D02*
X62250Y-28700D01*
X62250Y-28700D02*
X62350Y-28800D01*
X54350Y-29750D02*
X54050Y-30050D01*
X54050Y-30050D02*
X54050Y-34250D01*
X54050Y-34250D02*
X54450Y-34650D01*
X54550Y-29550D02*
X54350Y-29750D01*
X54450Y-36000D02*
X54400Y-36050D01*
X62350Y-28800D02*
X62400Y-28850D01*
X55200Y-42400D02*
X55200Y-42350D01*
X66050Y-41450D02*
X67100Y-42500D01*
X56100Y-41450D02*
X66050Y-41450D01*
X55200Y-42350D02*
X56100Y-41450D01*
X53500Y-42000D02*
X53400Y-41900D01*
X53500Y-42000D02*
X53900Y-42400D01*
X53900Y-42400D02*
X55200Y-42400D01*
X68250Y-44450D02*
X70400Y-44450D01*
X67300Y-43500D02*
X68250Y-44450D01*
X67300Y-42700D02*
X67300Y-43500D01*
X67100Y-42500D02*
X67300Y-42700D01*
X70400Y-42700D02*
X69935Y-42700D01*
X70400Y-44450D02*
X70400Y-42700D01*
X43300Y-31350D02*
X44050Y-31350D01*
X43150Y-31200D02*
X43300Y-31350D01*
X43150Y-29385D02*
X43150Y-31200D01*
X44050Y-31350D02*
X44350Y-31650D01*
X53800Y-37200D02*
X53400Y-37600D01*
X53400Y-37600D02*
X53400Y-41900D01*
X69935Y-42700D02*
X69874Y-42639D01*
X42750Y-29385D02*
X43150Y-29385D01*
X43150Y-29385D02*
X43520Y-29385D01*
X43520Y-29385D02*
X43535Y-29400D01*
X46800Y-29300D02*
X47100Y-29300D01*
X46800Y-29300D02*
X45050Y-29300D01*
X45050Y-29300D02*
X44650Y-29700D01*
X44650Y-29700D02*
X44615Y-29700D01*
X44165Y-30150D02*
X44615Y-29700D01*
X47100Y-29300D02*
X47700Y-29900D01*
X44165Y-29400D02*
X44165Y-30150D01*
X36600Y-33200D02*
X35750Y-32350D01*
X34950Y-31800D02*
X34950Y-30315D01*
X35500Y-32350D02*
X34950Y-31800D01*
X35750Y-32350D02*
X35500Y-32350D01*
X35600Y-35654D02*
X35600Y-36385D01*
X36600Y-33200D02*
X36600Y-35300D01*
X36246Y-35654D02*
X35600Y-35654D01*
X36600Y-35300D02*
X36246Y-35654D01*
X67000Y-36500D02*
X67050Y-36500D01*
X67050Y-36500D02*
X67300Y-36750D01*
X67300Y-36750D02*
X67300Y-40400D01*
X68200Y-40650D02*
X68200Y-40639D01*
X67550Y-40650D02*
X68200Y-40650D01*
X67300Y-40400D02*
X67550Y-40650D01*
X64400Y-36500D02*
X67000Y-36500D01*
X58902Y-34798D02*
X59050Y-34650D01*
X59050Y-34650D02*
X59350Y-34650D01*
X59350Y-34650D02*
X59600Y-34900D01*
X59600Y-34900D02*
X59600Y-35800D01*
X59600Y-35800D02*
X60300Y-36500D01*
X60300Y-36500D02*
X64400Y-36500D01*
X58902Y-35348D02*
X58902Y-34798D01*
X68200Y-40639D02*
X68874Y-40639D01*
X67550Y-36650D02*
X67550Y-36450D01*
X67350Y-36250D02*
X67200Y-36250D01*
X67550Y-36450D02*
X67350Y-36250D01*
X65565Y-35800D02*
X65565Y-36250D01*
X65565Y-36250D02*
X65550Y-36250D01*
X64935Y-36250D02*
X64900Y-36250D01*
X67550Y-36650D02*
X67550Y-39600D01*
X56598Y-34848D02*
X56350Y-34600D01*
X60550Y-36100D02*
X60700Y-36250D01*
X60700Y-36250D02*
X64900Y-36250D01*
X64900Y-36250D02*
X65550Y-36250D01*
X65550Y-36250D02*
X67200Y-36250D01*
X56598Y-35348D02*
X56598Y-34848D01*
X69385Y-40150D02*
X69874Y-40639D01*
X68100Y-40150D02*
X69385Y-40150D01*
X67550Y-39600D02*
X68100Y-40150D01*
G54D33*
X57878Y-35348D02*
X57878Y-34598D01*
X57878Y-34048D02*
X57878Y-33572D01*
X58600Y-32850D02*
X58900Y-32850D01*
X57878Y-33572D02*
X58600Y-32850D01*
X57878Y-34598D02*
X57878Y-34048D01*
G54D32*
X60650Y-29900D02*
X60650Y-30600D01*
X60700Y-30650D02*
X62685Y-30650D01*
X60650Y-30600D02*
X60700Y-30650D01*
G54D33*
X58646Y-35348D02*
X58646Y-34554D01*
X59450Y-33750D02*
X59450Y-33050D01*
X58646Y-34554D02*
X59450Y-33750D01*
G54D32*
X61650Y-29900D02*
X62685Y-29900D01*
G54D33*
X57622Y-35348D02*
X57622Y-34598D01*
X57622Y-34048D02*
X57622Y-33178D01*
X57622Y-33178D02*
X57800Y-33000D01*
X57622Y-34598D02*
X57622Y-34048D01*
G54D32*
X59650Y-29900D02*
X59650Y-31635D01*
X59650Y-31635D02*
X59665Y-31650D01*
G54D33*
X56858Y-35350D02*
X56858Y-34608D01*
X56150Y-33750D02*
X56900Y-33000D01*
X56150Y-33900D02*
X56150Y-33750D01*
X56858Y-34608D02*
X56150Y-33900D01*
X56858Y-33042D02*
X56900Y-33000D01*
G54D32*
X58650Y-29900D02*
X58650Y-30415D01*
X58650Y-30415D02*
X57515Y-31550D01*
G54D31*
X61950Y-38550D02*
X61950Y-39250D01*
X60450Y-39250D02*
X61950Y-39250D01*
X59157Y-37957D02*
X60450Y-39250D01*
X59157Y-37552D02*
X59157Y-37957D01*
X61115Y-38550D02*
X61950Y-38550D01*
X67300Y-24050D02*
X67250Y-24100D01*
X62500Y-21750D02*
X62500Y-21250D01*
X63758Y-21958D02*
X63550Y-21750D01*
X63550Y-21750D02*
X62500Y-21750D01*
X63758Y-22350D02*
X63758Y-21958D01*
X63200Y-20550D02*
X67300Y-20550D01*
X62500Y-21250D02*
X63200Y-20550D01*
X67300Y-20550D02*
X67300Y-24050D01*
X64400Y-46700D02*
X64400Y-47350D01*
X65150Y-45950D02*
X64400Y-46700D01*
X65150Y-45200D02*
X65150Y-45950D01*
X66000Y-44350D02*
X65150Y-45200D01*
X66800Y-39350D02*
X66800Y-39850D01*
X60450Y-39700D02*
X60450Y-40200D01*
X58902Y-37552D02*
X58902Y-38152D01*
X58902Y-38152D02*
X59250Y-38500D01*
X59250Y-38500D02*
X60450Y-39700D01*
X60450Y-40200D02*
X61200Y-40950D01*
X61200Y-40950D02*
X66500Y-40950D01*
X66500Y-40950D02*
X66800Y-40650D01*
X66800Y-40650D02*
X66800Y-39850D01*
X54950Y-42100D02*
X55100Y-42100D01*
X66400Y-41250D02*
X67350Y-42200D01*
X55950Y-41250D02*
X66400Y-41250D01*
X55100Y-42100D02*
X55950Y-41250D01*
X53700Y-41750D02*
X54050Y-42100D01*
X54050Y-42100D02*
X54950Y-42100D01*
X67789Y-43639D02*
X68874Y-43639D01*
X67500Y-43350D02*
X67789Y-43639D01*
X67500Y-42350D02*
X67500Y-43350D01*
X67350Y-42200D02*
X67500Y-42350D01*
X56015Y-32585D02*
X54750Y-33850D01*
X54750Y-33850D02*
X54750Y-36250D01*
X54750Y-36250D02*
X54250Y-36750D01*
X54250Y-36750D02*
X54250Y-37700D01*
X54250Y-37700D02*
X53700Y-38250D01*
X53700Y-38250D02*
X53700Y-41750D01*
X56015Y-32450D02*
X56015Y-32585D01*
X55485Y-31550D02*
X55485Y-31635D01*
X56015Y-32165D02*
X56015Y-32450D01*
X55485Y-31635D02*
X56015Y-32165D01*
X55385Y-32450D02*
X55385Y-32235D01*
X55150Y-32000D02*
X55150Y-30500D01*
X55385Y-32235D02*
X55150Y-32000D01*
X57650Y-29900D02*
X57650Y-30250D01*
X54935Y-30285D02*
X54600Y-30285D01*
X55350Y-30700D02*
X55150Y-30500D01*
X55150Y-30500D02*
X54935Y-30285D01*
X57200Y-30700D02*
X55350Y-30700D01*
X57650Y-30250D02*
X57200Y-30700D01*
X56748Y-46602D02*
X56748Y-46052D01*
X56650Y-46700D02*
X56250Y-46700D01*
X56748Y-46602D02*
X56650Y-46700D01*
X64725Y-47575D02*
X63250Y-49050D01*
X63250Y-49050D02*
X63050Y-49050D01*
X61500Y-48700D02*
X61500Y-47050D01*
X61850Y-49050D02*
X61500Y-48700D01*
X63050Y-49050D02*
X61850Y-49050D01*
X61500Y-47050D02*
X61500Y-46465D01*
X61000Y-46465D02*
X61500Y-46465D01*
X64725Y-47575D02*
X67400Y-44900D01*
X67400Y-44900D02*
X68250Y-44900D01*
X60865Y-46600D02*
X59200Y-46600D01*
X59052Y-46452D02*
X59200Y-46600D01*
X59052Y-46452D02*
X59052Y-46052D01*
X60865Y-46600D02*
X61000Y-46465D01*
X60865Y-46600D02*
X61000Y-46465D01*
G54D33*
X57772Y-47400D02*
X57772Y-47678D01*
X57772Y-47678D02*
X57750Y-47700D01*
G54D35*
X57750Y-48000D02*
X57750Y-47700D01*
X57200Y-48550D02*
X57750Y-48000D01*
X57200Y-50000D02*
X57200Y-48550D01*
X57750Y-47700D02*
X57700Y-47650D01*
G54D33*
X57772Y-46052D02*
X57772Y-47400D01*
X57772Y-47400D02*
X57772Y-47578D01*
X57772Y-47578D02*
X57750Y-47600D01*
G54D35*
X56550Y-49515D02*
X56715Y-49515D01*
X56715Y-49515D02*
X57200Y-50000D01*
X57200Y-50015D02*
X57200Y-50000D01*
X57200Y-51181D02*
X57200Y-50015D01*
G54D33*
X56500Y-47250D02*
X56500Y-47200D01*
X56500Y-47200D02*
X57004Y-46696D01*
X57004Y-46052D02*
X57004Y-46696D01*
G54D35*
X56200Y-50400D02*
X55850Y-50050D01*
X55850Y-50050D02*
X55850Y-48400D01*
X55850Y-48400D02*
X56500Y-47750D01*
X56500Y-47750D02*
X56500Y-47250D01*
X56200Y-50400D02*
X56200Y-51181D01*
X56200Y-51181D02*
X55253Y-51181D01*
X55253Y-51181D02*
X55200Y-51235D01*
G54D33*
X58225Y-47625D02*
X58225Y-47725D01*
G54D35*
X58185Y-48515D02*
X58450Y-48250D01*
X58185Y-48515D02*
X58185Y-49250D01*
X58450Y-47950D02*
X58450Y-48250D01*
G54D33*
X58225Y-47725D02*
X58450Y-47950D01*
X58150Y-47400D02*
X58150Y-47550D01*
X58028Y-47278D02*
X58150Y-47400D01*
X58028Y-46052D02*
X58028Y-47178D01*
X58028Y-47178D02*
X58028Y-47278D01*
X58150Y-47550D02*
X58225Y-47625D01*
X58225Y-47625D02*
X58350Y-47750D01*
G54D35*
X58200Y-51181D02*
X58200Y-49265D01*
X58200Y-49265D02*
X58185Y-49250D01*
X59500Y-48000D02*
X59500Y-48700D01*
X59700Y-48900D02*
X59500Y-48700D01*
X59700Y-49800D02*
X59700Y-48900D01*
G54D33*
X59300Y-47550D02*
X59500Y-47750D01*
X59500Y-47750D02*
X59500Y-48000D01*
X59300Y-47550D02*
X59300Y-46900D01*
X58792Y-46050D02*
X58792Y-46742D01*
X58792Y-46742D02*
X58950Y-46900D01*
X58950Y-46900D02*
X59300Y-46900D01*
G54D31*
X60335Y-49500D02*
X60000Y-49500D01*
X60000Y-49500D02*
X59700Y-49800D01*
G54D35*
X59200Y-51181D02*
X59200Y-50650D01*
X59700Y-50150D02*
X59700Y-49800D01*
X59200Y-50650D02*
X59700Y-50150D01*
G54D31*
X62850Y-37750D02*
X62850Y-40600D01*
X63300Y-37300D02*
X62850Y-37750D01*
X55900Y-43200D02*
X55915Y-43185D01*
X62650Y-41850D02*
X62519Y-41719D01*
X62519Y-41719D02*
X62150Y-41719D01*
X55915Y-42235D02*
X55915Y-43185D01*
X55915Y-42235D02*
X56430Y-41719D01*
X62150Y-41719D02*
X56430Y-41719D01*
X55900Y-43200D02*
X55900Y-43785D01*
X55900Y-43785D02*
X55915Y-43800D01*
X56493Y-43848D02*
X55963Y-43848D01*
X55963Y-43848D02*
X55915Y-43800D01*
X66850Y-20800D02*
X66850Y-23300D01*
X66850Y-23300D02*
X66950Y-23400D01*
X65546Y-22348D02*
X65546Y-21454D01*
X66200Y-20800D02*
X66850Y-20800D01*
X65546Y-21454D02*
X66200Y-20800D01*
X64950Y-46800D02*
X64850Y-46900D01*
X66750Y-42900D02*
X66750Y-45050D01*
X66750Y-45050D02*
X65000Y-46800D01*
X65000Y-46800D02*
X64950Y-46800D01*
X65500Y-41850D02*
X65700Y-41850D01*
X65700Y-41850D02*
X65900Y-42050D01*
X66750Y-42900D02*
X65900Y-42050D01*
X65900Y-42050D02*
X65850Y-42000D01*
X61950Y-41900D02*
X62050Y-41900D01*
X63200Y-41850D02*
X65500Y-41850D01*
X62700Y-42350D02*
X63200Y-41850D01*
X62500Y-42350D02*
X62700Y-42350D01*
X56600Y-43350D02*
X56450Y-43200D01*
X56748Y-43498D02*
X56600Y-43350D01*
X56748Y-43848D02*
X56748Y-43498D01*
X56800Y-41900D02*
X61950Y-41900D01*
X56450Y-42250D02*
X56800Y-41900D01*
X56450Y-43200D02*
X56450Y-42250D01*
X62050Y-41900D02*
X62500Y-42350D01*
X67900Y-48450D02*
X67900Y-48000D01*
X67900Y-48000D02*
X67400Y-47500D01*
X65200Y-52615D02*
X65615Y-52615D01*
X67900Y-52800D02*
X67900Y-48450D01*
X65800Y-52800D02*
X67900Y-52800D01*
X65615Y-52615D02*
X65800Y-52800D01*
X65235Y-52615D02*
X65200Y-52615D01*
X65200Y-52615D02*
X64750Y-52615D01*
X63915Y-52600D02*
X64735Y-52600D01*
X64735Y-52600D02*
X64750Y-52615D01*
X60200Y-51181D02*
X60200Y-52100D01*
X62850Y-51900D02*
X63285Y-51900D01*
X62450Y-52300D02*
X62850Y-51900D01*
X60400Y-52300D02*
X62450Y-52300D01*
X60200Y-52100D02*
X60400Y-52300D01*
X63285Y-51900D02*
X63285Y-52600D01*
G54D34*
X32829Y-58313D02*
X40587Y-58313D01*
X40587Y-58313D02*
X40600Y-58300D01*
G54D31*
X65400Y-25400D02*
X65250Y-25550D01*
X65400Y-25400D02*
X65500Y-25400D01*
X61500Y-45750D02*
X62250Y-45750D01*
X62200Y-51181D02*
X62218Y-51181D01*
X64750Y-51000D02*
X64750Y-51985D01*
X64350Y-50600D02*
X64750Y-51000D01*
X62800Y-50600D02*
X64350Y-50600D01*
X62218Y-51181D02*
X62800Y-50600D01*
X61500Y-44415D02*
X61500Y-45750D01*
X62950Y-45750D02*
X62950Y-44415D01*
X62250Y-45750D02*
X62950Y-45750D01*
G54D33*
X59965Y-42350D02*
X60600Y-42350D01*
G54D31*
X55285Y-43800D02*
X55285Y-44570D01*
X55285Y-44570D02*
X55450Y-44735D01*
G54D32*
X53550Y-43667D02*
X53033Y-43667D01*
X53033Y-43667D02*
X52850Y-43850D01*
G54D31*
X55285Y-43800D02*
X53683Y-43800D01*
X53683Y-43800D02*
X53550Y-43667D01*
G54D32*
X60650Y-48541D02*
X60650Y-48550D01*
X60965Y-48865D02*
X60965Y-49500D01*
X60650Y-48550D02*
X60965Y-48865D01*
G54D33*
X55050Y-47791D02*
X55050Y-48300D01*
G54D32*
X60965Y-49500D02*
X62050Y-49500D01*
X62050Y-49500D02*
X62200Y-49650D01*
X62200Y-49650D02*
X62200Y-51181D01*
G54D33*
X59307Y-46052D02*
X59307Y-45507D01*
X59150Y-45350D02*
X58600Y-45350D01*
X59307Y-45507D02*
X59150Y-45350D01*
X58600Y-45350D02*
X57900Y-44950D01*
X56493Y-46052D02*
X56493Y-45457D01*
X56600Y-45350D02*
X57100Y-45350D01*
X56493Y-45457D02*
X56600Y-45350D01*
X57100Y-45350D02*
X57900Y-44950D01*
G54D31*
X58815Y-49250D02*
X58815Y-48735D01*
X58815Y-48735D02*
X58850Y-48700D01*
X56550Y-48885D02*
X56550Y-48600D01*
X55200Y-51865D02*
X55200Y-52550D01*
X60009Y-37700D02*
X60009Y-38074D01*
X60009Y-38074D02*
X60485Y-38550D01*
X63300Y-21500D02*
X63600Y-21500D01*
X63600Y-21500D02*
X63850Y-21750D01*
X61350Y-35415D02*
X61915Y-35415D01*
X61915Y-35415D02*
X61950Y-35450D01*
X62550Y-35415D02*
X61985Y-35415D01*
X61985Y-35415D02*
X61950Y-35450D01*
G54D32*
X58100Y-40015D02*
X58100Y-40715D01*
X58100Y-40715D02*
X58135Y-40750D01*
X58135Y-40750D02*
X57200Y-40750D01*
X57200Y-40750D02*
X57150Y-40700D01*
X57150Y-39915D02*
X57150Y-40700D01*
G54D31*
X57150Y-40700D02*
X57150Y-40650D01*
X57150Y-40650D02*
X57150Y-40700D01*
G54D35*
X54650Y-41033D02*
X55417Y-41033D01*
X55417Y-41033D02*
X55500Y-40950D01*
G54D32*
X56900Y-40950D02*
X55500Y-40950D01*
X57150Y-40700D02*
X56900Y-40950D01*
X54850Y-36985D02*
X54850Y-36700D01*
X54850Y-36700D02*
X55150Y-36400D01*
X57750Y-36450D02*
X56259Y-36450D01*
X56259Y-36450D02*
X55600Y-35791D01*
X57750Y-36450D02*
X59400Y-36450D01*
X60009Y-37059D02*
X60009Y-37700D01*
X59400Y-36450D02*
X60009Y-37059D01*
G54D33*
X56343Y-35348D02*
X56343Y-35893D01*
X56500Y-36050D02*
X57050Y-36050D01*
X56343Y-35893D02*
X56500Y-36050D01*
X57050Y-36050D02*
X57750Y-36450D01*
X59157Y-35348D02*
X59157Y-35843D01*
X58950Y-36050D02*
X58550Y-36050D01*
X59157Y-35843D02*
X58950Y-36050D01*
X58550Y-36050D02*
X57750Y-36450D01*
X63315Y-30300D02*
X63800Y-30300D01*
X63315Y-29900D02*
X63315Y-30300D01*
X63315Y-30300D02*
X63315Y-30650D01*
X56850Y-32250D02*
X58435Y-32250D01*
X58435Y-32250D02*
X59035Y-31650D01*
G54D31*
X60150Y-35415D02*
X61350Y-35415D01*
G54D36*
X56115Y-31550D02*
X56885Y-31550D01*
G54D32*
X56885Y-31550D02*
X56885Y-32215D01*
X56885Y-32215D02*
X56850Y-32250D01*
G54D36*
X44735Y-36700D02*
X44300Y-36700D01*
X44300Y-36700D02*
X43912Y-36700D01*
X43912Y-36700D02*
X43708Y-36904D01*
G54D31*
X48100Y-41085D02*
X48100Y-40600D01*
X46315Y-40785D02*
X46500Y-40600D01*
X46500Y-40600D02*
X48100Y-40600D01*
X46315Y-40785D02*
X45150Y-40785D01*
X48100Y-41085D02*
X48100Y-41100D01*
X48100Y-41100D02*
X48100Y-41085D01*
X48450Y-41085D02*
X48100Y-41085D01*
X48100Y-41085D02*
X47750Y-41085D01*
X45150Y-40785D02*
X45065Y-40785D01*
X45065Y-40785D02*
X44135Y-41715D01*
X44135Y-41715D02*
X44135Y-42400D01*
X43500Y-42400D02*
X44135Y-42400D01*
G54D32*
X51650Y-49500D02*
X50515Y-49500D01*
X50515Y-49500D02*
X50515Y-48656D01*
X50515Y-48656D02*
X50000Y-48141D01*
X50565Y-49550D02*
X50515Y-49500D01*
X51700Y-51181D02*
X51700Y-49550D01*
X51700Y-49550D02*
X51650Y-49500D01*
X44900Y-47791D02*
X44900Y-48300D01*
X44900Y-48300D02*
X44550Y-48650D01*
G54D31*
X54250Y-51985D02*
X54250Y-50600D01*
X51918Y-51181D02*
X52500Y-50600D01*
X52500Y-50600D02*
X54250Y-50600D01*
X51918Y-51181D02*
X51700Y-51181D01*
G54D35*
X43500Y-42400D02*
X43500Y-43717D01*
G54D31*
X46150Y-48650D02*
X46150Y-48885D01*
X48515Y-48865D02*
X48450Y-48800D01*
X48515Y-48865D02*
X48515Y-49300D01*
G54D33*
X44700Y-51715D02*
X44700Y-52400D01*
G54D31*
X51650Y-49500D02*
X51700Y-49550D01*
G54D33*
X49057Y-46202D02*
X49057Y-45457D01*
X48700Y-45100D02*
X47650Y-45100D01*
X49057Y-45457D02*
X48700Y-45100D01*
X46243Y-46202D02*
X46243Y-45557D01*
X46700Y-45100D02*
X47650Y-45100D01*
X46243Y-45557D02*
X46700Y-45100D01*
G54D31*
X43500Y-43717D02*
X43667Y-43717D01*
X44485Y-44535D02*
X45300Y-44535D01*
X43667Y-43717D02*
X44485Y-44535D01*
G54D32*
X52700Y-34815D02*
X52700Y-35885D01*
X51650Y-35791D02*
X52606Y-35791D01*
X52606Y-35791D02*
X52700Y-35885D01*
X51650Y-35791D02*
X49359Y-35791D01*
X49359Y-35791D02*
X49200Y-35950D01*
G54D31*
X43912Y-36700D02*
X43708Y-36904D01*
X44485Y-35950D02*
X43815Y-35950D01*
X43815Y-35950D02*
X43665Y-35800D01*
X43665Y-35800D02*
X43665Y-36861D01*
X43665Y-36861D02*
X43708Y-36904D01*
G54D35*
X42750Y-30800D02*
X42750Y-31517D01*
X42750Y-31517D02*
X43500Y-32267D01*
G54D32*
X42750Y-31517D02*
X43500Y-32267D01*
X46200Y-31659D02*
X47026Y-31659D01*
X47026Y-31659D02*
X47135Y-31550D01*
G54D33*
X47793Y-35543D02*
X48793Y-35543D01*
X48793Y-35543D02*
X49200Y-35950D01*
X47793Y-34848D02*
X47793Y-35543D01*
X47793Y-35543D02*
X47800Y-35550D01*
X50607Y-35543D02*
X50007Y-35543D01*
X50007Y-35543D02*
X50000Y-35550D01*
X50000Y-35550D02*
X49200Y-35950D01*
X50607Y-34848D02*
X50607Y-35543D01*
X50607Y-35543D02*
X50600Y-35550D01*
G54D32*
X52700Y-30900D02*
X52750Y-30950D01*
X52700Y-30900D02*
X52700Y-30515D01*
X51365Y-32165D02*
X51400Y-32200D01*
X51365Y-32165D02*
X51365Y-31600D01*
X49650Y-32550D02*
X49550Y-32650D01*
X49650Y-32550D02*
X49650Y-32165D01*
X47135Y-32115D02*
X47100Y-32150D01*
X47135Y-32115D02*
X47135Y-31550D01*
X42750Y-30800D02*
X42750Y-30015D01*
G54D34*
X54833Y-26083D02*
X53950Y-25200D01*
X54833Y-26300D02*
X54833Y-26083D01*
G54D31*
X36950Y-41000D02*
X36950Y-40983D01*
G54D35*
X40700Y-38500D02*
X43350Y-38500D01*
G54D31*
X65290Y-24552D02*
X65290Y-25190D01*
X65290Y-25190D02*
X65500Y-25400D01*
X66050Y-25400D02*
X66050Y-25885D01*
X65500Y-25400D02*
X66050Y-25400D01*
X64010Y-21910D02*
X64010Y-22350D01*
X63850Y-21750D02*
X64010Y-21910D01*
X63100Y-21300D02*
X63300Y-21500D01*
X65290Y-22348D02*
X65290Y-22940D01*
X65280Y-22950D02*
X64700Y-22950D01*
X64700Y-22950D02*
X64600Y-22950D01*
X64600Y-22950D02*
X64500Y-22950D01*
X65290Y-22940D02*
X65280Y-22950D01*
X64010Y-22890D02*
X64070Y-22950D01*
X64010Y-22350D02*
X64010Y-22890D01*
X64070Y-22950D02*
X64500Y-22950D01*
X64266Y-24552D02*
X64266Y-24084D01*
X64266Y-24084D02*
X64300Y-24050D01*
X64300Y-24050D02*
X64700Y-24050D01*
X65034Y-24084D02*
X65034Y-24552D01*
X64700Y-24050D02*
X65000Y-24050D01*
X65000Y-24050D02*
X65034Y-24084D01*
X65034Y-24552D02*
X65290Y-24552D01*
X64010Y-24552D02*
X64266Y-24552D01*
G54D34*
X41500Y-24600D02*
X42900Y-24600D01*
G54D32*
X40700Y-38500D02*
X40700Y-39841D01*
X40700Y-39841D02*
X40516Y-40025D01*
G54D35*
X37600Y-40315D02*
X37600Y-40400D01*
X37600Y-40400D02*
X37017Y-40983D01*
X37017Y-40983D02*
X36950Y-40983D01*
X36950Y-40983D02*
X35600Y-40983D01*
G54D31*
X44066Y-25375D02*
X44066Y-24519D01*
X44066Y-24519D02*
X44085Y-24500D01*
X44875Y-25375D02*
X44066Y-25375D01*
X45100Y-25600D02*
X44875Y-25375D01*
X58150Y-40132D02*
X58150Y-40150D01*
X58134Y-40116D02*
X58150Y-40132D01*
X60800Y-43785D02*
X60800Y-43350D01*
X58796Y-43204D02*
X58796Y-43848D01*
X58800Y-43200D02*
X58796Y-43204D01*
X60650Y-43200D02*
X58800Y-43200D01*
X60800Y-43350D02*
X60650Y-43200D01*
X60150Y-34800D02*
X60150Y-34115D01*
X63750Y-34800D02*
X63750Y-34115D01*
X62550Y-34800D02*
X62550Y-34115D01*
X58134Y-37552D02*
X58134Y-39351D01*
X58134Y-39351D02*
X58100Y-39385D01*
X57110Y-38745D02*
X57110Y-39245D01*
X57110Y-37552D02*
X57110Y-38245D01*
X57110Y-38245D02*
X57110Y-38745D01*
X57110Y-39245D02*
X57150Y-39285D01*
G54D33*
X57366Y-35348D02*
X57366Y-33916D01*
X57366Y-33916D02*
X57200Y-33750D01*
G54D32*
X55600Y-34050D02*
X55600Y-34609D01*
G54D33*
X55700Y-46600D02*
X55059Y-46600D01*
X57516Y-47234D02*
X57050Y-47700D01*
X57516Y-46052D02*
X57516Y-47234D01*
X55059Y-46600D02*
X55050Y-46609D01*
G54D31*
X49250Y-44350D02*
X49585Y-44350D01*
X49057Y-44157D02*
X49250Y-44350D01*
X49057Y-43798D02*
X49057Y-44157D01*
X49585Y-44350D02*
X49600Y-44365D01*
X47150Y-36535D02*
X47276Y-36535D01*
X47276Y-36535D02*
X47793Y-37052D01*
X56343Y-37552D02*
X56343Y-37043D01*
X56285Y-36985D02*
X55650Y-36985D01*
X56343Y-37043D02*
X56285Y-36985D01*
X56750Y-38450D02*
X56450Y-38750D01*
X56854Y-38346D02*
X56750Y-38450D01*
X56854Y-37552D02*
X56854Y-38346D01*
X56450Y-38750D02*
X56450Y-39285D01*
X58500Y-38850D02*
X58700Y-38850D01*
X58900Y-39050D02*
X58900Y-39385D01*
X58700Y-38850D02*
X58900Y-39050D01*
X57878Y-37552D02*
X57878Y-38672D01*
X58390Y-38740D02*
X58390Y-37552D01*
X58500Y-38850D02*
X58390Y-38740D01*
X57878Y-38672D02*
X57700Y-38850D01*
X59307Y-43848D02*
X59987Y-43848D01*
X59987Y-43848D02*
X60050Y-43785D01*
X58550Y-42950D02*
X58550Y-43838D01*
X61500Y-43500D02*
X60950Y-42950D01*
X60950Y-42950D02*
X58550Y-42950D01*
X61500Y-43785D02*
X61500Y-43500D01*
X58550Y-43838D02*
X58540Y-43848D01*
X62950Y-43785D02*
X62950Y-43300D01*
X57516Y-43066D02*
X57400Y-42950D01*
X57516Y-43066D02*
X57516Y-43848D01*
G54D32*
X59700Y-47400D02*
X60609Y-47400D01*
G54D33*
X58284Y-47184D02*
X58500Y-47400D01*
X58284Y-46052D02*
X58284Y-47184D01*
G54D32*
X60609Y-47400D02*
X60650Y-47359D01*
G54D31*
X57200Y-43200D02*
X57200Y-43350D01*
X57750Y-42750D02*
X57550Y-42550D01*
X57550Y-42550D02*
X57300Y-42550D01*
X57300Y-42550D02*
X57050Y-42800D01*
X57050Y-42800D02*
X57050Y-43050D01*
X57050Y-43050D02*
X57200Y-43200D01*
X57950Y-42750D02*
X57750Y-42750D01*
X57260Y-43410D02*
X57260Y-43848D01*
X57200Y-43350D02*
X57260Y-43410D01*
X62200Y-43785D02*
X62200Y-43400D01*
X57772Y-42928D02*
X57772Y-43848D01*
X57950Y-42750D02*
X57772Y-42928D01*
X61550Y-42750D02*
X57950Y-42750D01*
X62200Y-43400D02*
X61550Y-42750D01*
X63915Y-51150D02*
X63915Y-51885D01*
X63915Y-51885D02*
X63900Y-51900D01*
X54600Y-30900D02*
X54600Y-31585D01*
G54D32*
X46200Y-32841D02*
X46200Y-33300D01*
G54D33*
X48816Y-34848D02*
X48816Y-33716D01*
X48816Y-33716D02*
X48700Y-33600D01*
G54D31*
X48766Y-33666D02*
X48700Y-33600D01*
G54D33*
X51650Y-34100D02*
X51650Y-34609D01*
X49584Y-34848D02*
X49584Y-33516D01*
X49584Y-33516D02*
X49700Y-33400D01*
G54D31*
X49584Y-33516D02*
X49700Y-33400D01*
X45115Y-35200D02*
X45900Y-35200D01*
X46750Y-36050D02*
X45900Y-35200D01*
X46950Y-37950D02*
X46950Y-37950D01*
X47004Y-37996D02*
X46950Y-37950D01*
X47004Y-37996D02*
X48304Y-37996D01*
X46950Y-37950D02*
X46750Y-37750D01*
X46750Y-37750D02*
X46750Y-36050D01*
X48304Y-37052D02*
X48304Y-37996D01*
X48304Y-37996D02*
X48300Y-38000D01*
G54D32*
X61200Y-36950D02*
X61200Y-37691D01*
X61200Y-37691D02*
X61191Y-37700D01*
G54D33*
X58134Y-35348D02*
X58134Y-33816D01*
X58134Y-33816D02*
X58350Y-33600D01*
G54D32*
X44900Y-46250D02*
X44900Y-46609D01*
X45200Y-45950D02*
X44900Y-46250D01*
X46750Y-47850D02*
X46750Y-47600D01*
G54D33*
X46750Y-47600D02*
X47266Y-47084D01*
X47266Y-46002D02*
X47266Y-47084D01*
G54D31*
X47266Y-46202D02*
X47266Y-47084D01*
G54D32*
X50750Y-46950D02*
X50741Y-46959D01*
X50741Y-46959D02*
X50000Y-46959D01*
G54D33*
X48500Y-47600D02*
X48350Y-47450D01*
X48034Y-47134D02*
X48350Y-47450D01*
G54D32*
X48500Y-47600D02*
X48500Y-47800D01*
G54D33*
X48034Y-46002D02*
X48034Y-47134D01*
G54D31*
X48034Y-46202D02*
X48034Y-47134D01*
X47266Y-43798D02*
X47266Y-42584D01*
X47750Y-42100D02*
X47750Y-41715D01*
X47266Y-42584D02*
X47750Y-42100D01*
X48048Y-37052D02*
X48048Y-37752D01*
X47150Y-37700D02*
X47250Y-37800D01*
X47250Y-37800D02*
X48000Y-37800D01*
X47150Y-37700D02*
X47150Y-37165D01*
X48048Y-37752D02*
X48000Y-37800D01*
X48802Y-43798D02*
X48802Y-43398D01*
X49600Y-43250D02*
X49600Y-43735D01*
X49600Y-43250D02*
X49450Y-43100D01*
X49100Y-43100D02*
X49450Y-43100D01*
X48802Y-43398D02*
X49100Y-43100D01*
X48800Y-43796D02*
X48802Y-43798D01*
X47522Y-43798D02*
X47522Y-42828D01*
X47522Y-42828D02*
X47900Y-42450D01*
X47000Y-41715D02*
X47000Y-42350D01*
X47000Y-42350D02*
X47000Y-42450D01*
X47010Y-43290D02*
X47050Y-43250D01*
X47050Y-43250D02*
X47050Y-42500D01*
X47050Y-42500D02*
X47000Y-42450D01*
X47010Y-43290D02*
X47010Y-43798D01*
X63350Y-25885D02*
X63350Y-24700D01*
X63350Y-24700D02*
X63498Y-24552D01*
X62700Y-24500D02*
X63446Y-24500D01*
X62702Y-22998D02*
X62700Y-23000D01*
X62700Y-23000D02*
X62700Y-24500D01*
X63498Y-22998D02*
X62702Y-22998D01*
X63446Y-24500D02*
X63498Y-24552D01*
X63498Y-22348D02*
X63498Y-22998D01*
X63850Y-23250D02*
X65802Y-23250D01*
X63600Y-23000D02*
X63850Y-23250D01*
X63500Y-23000D02*
X63600Y-23000D01*
X63498Y-22998D02*
X63500Y-23000D01*
X63500Y-22350D02*
X63498Y-22348D01*
X65802Y-23500D02*
X65800Y-23500D01*
X65800Y-23500D02*
X65802Y-23500D01*
X65802Y-24552D02*
X65802Y-23500D01*
X65802Y-23500D02*
X65802Y-23250D01*
X65802Y-23250D02*
X65802Y-22348D01*
X59052Y-43848D02*
X59052Y-44402D01*
X59065Y-44415D02*
X60050Y-44415D01*
X59052Y-44402D02*
X59065Y-44415D01*
X48546Y-43798D02*
X48546Y-43304D01*
X49150Y-42700D02*
X49150Y-41715D01*
X48546Y-43304D02*
X49150Y-42700D01*
X49246Y-41811D02*
X49150Y-41715D01*
X48450Y-41715D02*
X48450Y-43000D01*
X48290Y-43160D02*
X48290Y-43798D01*
X48450Y-43000D02*
X48290Y-43160D01*
X48515Y-41715D02*
X48450Y-41715D01*
X48300Y-43788D02*
X48290Y-43798D01*
X53465Y-51200D02*
X53465Y-51885D01*
X53465Y-51885D02*
X53450Y-51900D01*
X43550Y-30150D02*
X43550Y-30915D01*
X43550Y-30915D02*
X43585Y-30950D01*
X64915Y-21350D02*
X64915Y-21735D01*
X64778Y-21872D02*
X64778Y-22348D01*
X64915Y-21735D02*
X64778Y-21872D01*
X45115Y-35950D02*
X46200Y-35950D01*
X48560Y-38240D02*
X48550Y-38250D01*
X48550Y-38250D02*
X46850Y-38250D01*
X46850Y-38250D02*
X46500Y-37900D01*
X46500Y-37900D02*
X46500Y-36250D01*
X46500Y-36250D02*
X46200Y-35950D01*
X48560Y-38240D02*
X48560Y-37052D01*
X56598Y-37552D02*
X56598Y-38098D01*
X55650Y-38050D02*
X55650Y-37615D01*
X55700Y-38100D02*
X55650Y-38050D01*
X56596Y-38100D02*
X55700Y-38100D01*
X56598Y-38098D02*
X56596Y-38100D01*
X49550Y-38500D02*
X49600Y-38450D01*
X46000Y-36700D02*
X46250Y-36950D01*
X46250Y-36950D02*
X46250Y-38050D01*
X46250Y-38050D02*
X46700Y-38500D01*
X46700Y-38500D02*
X49550Y-38500D01*
X45365Y-36700D02*
X46000Y-36700D01*
X49600Y-37068D02*
X49584Y-37052D01*
X49600Y-38450D02*
X49600Y-37068D01*
X45565Y-37915D02*
X45565Y-37400D01*
X45800Y-38150D02*
X45565Y-37915D01*
X49780Y-37950D02*
X49780Y-37980D01*
X49328Y-38022D02*
X49200Y-38150D01*
X49328Y-37052D02*
X49328Y-38022D01*
X49840Y-37510D02*
X49780Y-37569D01*
X49780Y-37569D02*
X49780Y-37950D01*
X49840Y-37510D02*
X49840Y-37052D01*
X49780Y-37980D02*
X49950Y-38150D01*
X42642Y-26342D02*
X42642Y-27343D01*
X42642Y-27343D02*
X42635Y-27350D01*
X41965Y-27350D02*
X42635Y-27350D01*
X42635Y-26349D02*
X42642Y-26342D01*
X42642Y-26342D02*
X43234Y-25750D01*
X38000Y-35600D02*
X38000Y-36385D01*
X41500Y-26400D02*
X41500Y-26600D01*
X41335Y-26765D02*
X41335Y-27350D01*
X41500Y-26600D02*
X41335Y-26765D01*
X38900Y-38500D02*
X38900Y-39685D01*
X38900Y-40315D02*
X39599Y-40315D01*
X39599Y-40315D02*
X39684Y-40400D01*
X38900Y-40315D02*
X38900Y-41185D01*
X37150Y-25100D02*
X37150Y-25885D01*
X61350Y-34800D02*
X61350Y-34115D01*
X66800Y-35100D02*
X66150Y-35100D01*
X64650Y-35100D02*
X64350Y-35400D01*
X66150Y-35100D02*
X64650Y-35100D01*
X64335Y-35415D02*
X63750Y-35415D01*
X64350Y-35400D02*
X64335Y-35415D01*
X67000Y-27150D02*
X67006Y-27150D01*
X67900Y-26200D02*
X67899Y-26200D01*
X67006Y-27150D02*
X67900Y-26200D01*
X67900Y-22150D02*
X67899Y-26200D01*
X69874Y-21639D02*
X69811Y-21639D01*
X69300Y-22150D02*
X67900Y-22150D01*
X69811Y-21639D02*
X69300Y-22150D01*
X64500Y-27100D02*
X64522Y-25413D01*
X64528Y-27128D02*
X64500Y-27100D01*
X67000Y-27150D02*
X64528Y-27128D01*
X64522Y-24552D02*
X64522Y-25413D01*
X66850Y-26950D02*
X66950Y-26850D01*
X64800Y-25350D02*
X64800Y-25950D01*
X64778Y-25313D02*
X64800Y-25350D01*
X64778Y-24552D02*
X64778Y-25313D01*
X66850Y-26950D02*
X66650Y-26950D01*
X66650Y-26950D02*
X64800Y-26950D01*
X64800Y-26950D02*
X64800Y-26435D01*
X64800Y-26435D02*
X64800Y-25950D01*
X67650Y-21850D02*
X67650Y-26050D01*
X67861Y-21639D02*
X67650Y-21850D01*
X68874Y-21639D02*
X67861Y-21639D01*
X66950Y-26850D02*
X67650Y-26050D01*
G54D34*
X32829Y-56313D02*
X40513Y-56313D01*
X40513Y-56313D02*
X40600Y-56400D01*
G54D31*
X35600Y-21800D02*
X34550Y-21800D01*
X34550Y-21800D02*
X34550Y-21850D01*
X34550Y-21850D02*
X34550Y-32150D01*
X34550Y-32150D02*
X35600Y-33200D01*
X35600Y-33200D02*
X35600Y-34946D01*
X35600Y-23546D02*
X35600Y-21800D01*
X60800Y-44415D02*
X60800Y-45050D01*
X60800Y-45050D02*
X60400Y-45450D01*
G54D32*
X53550Y-45833D02*
X53550Y-46950D01*
G54D31*
X55450Y-45365D02*
X54018Y-45365D01*
X54018Y-45365D02*
X53550Y-45833D01*
G54D33*
X59000Y-47750D02*
X59000Y-47350D01*
X58550Y-46750D02*
X58540Y-46750D01*
X58550Y-46900D02*
X58550Y-46750D01*
X59000Y-47350D02*
X58550Y-46900D01*
X58540Y-46050D02*
X58540Y-46750D01*
X57260Y-46990D02*
X57260Y-46052D01*
X57260Y-46990D02*
X57050Y-47200D01*
X56450Y-39915D02*
X55915Y-39915D01*
X55915Y-39915D02*
X55750Y-39750D01*
X55750Y-39750D02*
X55750Y-39150D01*
G54D31*
X55750Y-39150D02*
X55750Y-39200D01*
G54D35*
X54650Y-38867D02*
X55467Y-38867D01*
X55467Y-38867D02*
X55750Y-39150D01*
G54D32*
X54650Y-38867D02*
X54650Y-37815D01*
X54650Y-37815D02*
X54850Y-37615D01*
G54D33*
X60150Y-33000D02*
X60150Y-33485D01*
X58390Y-34260D02*
X58800Y-33850D01*
X58390Y-34260D02*
X58390Y-35348D01*
X57110Y-34310D02*
X57110Y-35350D01*
X56650Y-33850D02*
X57110Y-34310D01*
G54D31*
X49150Y-41085D02*
X49150Y-40450D01*
X45300Y-45165D02*
X44218Y-45165D01*
X44218Y-45165D02*
X43500Y-45883D01*
G54D33*
X48290Y-46200D02*
X48290Y-46940D01*
X48290Y-46940D02*
X48550Y-47150D01*
X47010Y-46202D02*
X47010Y-46890D01*
X47010Y-46890D02*
X46650Y-47200D01*
X46660Y-47190D02*
X46650Y-47200D01*
G54D35*
X43500Y-45883D02*
X43500Y-47150D01*
G54D33*
X48540Y-47140D02*
X48550Y-47150D01*
X49840Y-34848D02*
X49840Y-33910D01*
X49840Y-33910D02*
X50050Y-33700D01*
G54D31*
X44485Y-35200D02*
X44485Y-34435D01*
X44485Y-34435D02*
X44250Y-34200D01*
G54D32*
X43500Y-34433D02*
X44017Y-34433D01*
X44017Y-34433D02*
X44250Y-34200D01*
G54D31*
X44250Y-34200D02*
X44017Y-34433D01*
X43035Y-35800D02*
X43035Y-34898D01*
X43035Y-34898D02*
X43500Y-34433D01*
G54D33*
X48560Y-34850D02*
X48560Y-34290D01*
G54D37*
X48560Y-33960D02*
X48560Y-34290D01*
X48200Y-33700D02*
X48560Y-33960D01*
G54D32*
X50050Y-33700D02*
X50033Y-33700D01*
G54D31*
X45500Y-25200D02*
X46400Y-26100D01*
X44715Y-24500D02*
X44800Y-24500D01*
X44800Y-24500D02*
X45500Y-25200D01*
X50300Y-26100D02*
X51250Y-25150D01*
X46400Y-26100D02*
X50300Y-26100D01*
X51200Y-25200D02*
X51250Y-25150D01*
X51250Y-25150D02*
X52050Y-24350D01*
G54D34*
X52050Y-23350D02*
X52050Y-24350D01*
X52050Y-24350D02*
X52050Y-25683D01*
X52050Y-25683D02*
X52667Y-26300D01*
X32829Y-59313D02*
X40587Y-59313D01*
X40587Y-59313D02*
X40600Y-59300D01*
X32829Y-54313D02*
X40513Y-54313D01*
X40513Y-54313D02*
X40600Y-54400D01*
X32829Y-53313D02*
X40513Y-53313D01*
X40513Y-53313D02*
X40600Y-53400D01*
G54D31*
X37150Y-26515D02*
X36665Y-26515D01*
X38600Y-23750D02*
X38600Y-21800D01*
X38600Y-23800D02*
X38600Y-23750D01*
X36800Y-23800D02*
X38600Y-23800D01*
X36550Y-24050D02*
X36800Y-23800D01*
X36550Y-26400D02*
X36550Y-24050D01*
X36665Y-26515D02*
X36550Y-26400D01*
G54D32*
X38000Y-37015D02*
X38000Y-39100D01*
X37600Y-39500D02*
X37600Y-39685D01*
X38000Y-39100D02*
X37600Y-39500D01*
G54D35*
X37600Y-39685D02*
X37600Y-39350D01*
X37600Y-39350D02*
X37050Y-38800D01*
X37050Y-38800D02*
X37033Y-38817D01*
X37033Y-38817D02*
X35600Y-38817D01*
M02*
