G04 (created by PCBNEW (2013-05-18 BZR 4017)-stable) date Wed 14 Jan 2015 22:50:39 GMT*
%MOIN*%
G04 Gerber Fmt 3.4, Leading zero omitted, Abs format*
%FSLAX34Y34*%
G01*
G70*
G90*
G04 APERTURE LIST*
%ADD10C,0.00590551*%
%ADD11C,0.00787402*%
%ADD12C,0.0039*%
%ADD13C,0.0041*%
%ADD14C,0.0059*%
%ADD15C,0.015*%
%ADD16C,0.006*%
%ADD17C,0.2169*%
%ADD18R,0.0987X0.0987*%
%ADD19C,0.1184*%
%ADD20O,0.0594X0.0692*%
%ADD21O,0.0948X0.1027*%
%ADD22C,0.0535*%
%ADD23R,0.08X0.08*%
%ADD24C,0.08*%
%ADD25R,0.0594X0.0594*%
%ADD26C,0.0594*%
%ADD27C,0.1499*%
%ADD28C,0.12*%
%ADD29C,0.0515*%
G04 APERTURE END LIST*
G54D10*
G54D11*
X562Y4342D02*
X562Y4447D01*
X727Y4447D02*
X412Y4447D01*
X412Y4297D01*
X637Y4192D02*
X637Y4043D01*
X727Y4222D02*
X412Y4117D01*
X727Y4013D01*
X727Y3908D02*
X412Y3908D01*
X727Y3728D01*
X412Y3728D01*
X4364Y4775D02*
X4259Y4460D01*
X4154Y4775D01*
X4124Y4430D02*
X3885Y4430D01*
X3810Y4460D02*
X3810Y4775D01*
X3660Y4460D02*
X3660Y4775D01*
X3480Y4460D01*
X3480Y4775D01*
X4499Y3586D02*
X4604Y3586D01*
X4604Y3421D02*
X4604Y3736D01*
X4454Y3736D01*
X4349Y3511D02*
X4199Y3511D01*
X4379Y3421D02*
X4274Y3736D01*
X4169Y3421D01*
X4064Y3421D02*
X4064Y3736D01*
X3885Y3421D01*
X3885Y3736D01*
X3675Y3736D02*
X3645Y3736D01*
X3615Y3721D01*
X3600Y3706D01*
X3585Y3676D01*
X3570Y3616D01*
X3570Y3541D01*
X3585Y3481D01*
X3600Y3451D01*
X3615Y3436D01*
X3645Y3421D01*
X3675Y3421D01*
X3705Y3436D01*
X3720Y3451D01*
X3735Y3481D01*
X3750Y3541D01*
X3750Y3616D01*
X3735Y3676D01*
X3720Y3706D01*
X3705Y3721D01*
X3675Y3736D01*
X3435Y3541D02*
X3195Y3541D01*
G54D12*
X8610Y2230D02*
X8439Y2230D01*
X8531Y2125D01*
X8492Y2125D01*
X8465Y2112D01*
X8452Y2098D01*
X8439Y2072D01*
X8439Y2006D01*
X8452Y1980D01*
X8465Y1967D01*
X8492Y1954D01*
X8570Y1954D01*
X8597Y1967D01*
X8610Y1980D01*
X8321Y1980D02*
X8308Y1967D01*
X8321Y1954D01*
X8334Y1967D01*
X8321Y1980D01*
X8321Y1954D01*
X8215Y2230D02*
X8045Y2230D01*
X8137Y2125D01*
X8097Y2125D01*
X8071Y2112D01*
X8058Y2098D01*
X8045Y2072D01*
X8045Y2006D01*
X8058Y1980D01*
X8071Y1967D01*
X8097Y1954D01*
X8176Y1954D01*
X8202Y1967D01*
X8215Y1980D01*
X7966Y2230D02*
X7874Y1954D01*
X7782Y2230D01*
X7480Y1954D02*
X7480Y2230D01*
X7374Y2230D01*
X7348Y2217D01*
X7335Y2204D01*
X7322Y2177D01*
X7322Y2138D01*
X7335Y2112D01*
X7348Y2098D01*
X7374Y2085D01*
X7480Y2085D01*
X7046Y1980D02*
X7059Y1967D01*
X7098Y1954D01*
X7125Y1954D01*
X7164Y1967D01*
X7190Y1993D01*
X7204Y2020D01*
X7217Y2072D01*
X7217Y2112D01*
X7204Y2164D01*
X7190Y2190D01*
X7164Y2217D01*
X7125Y2230D01*
X7098Y2230D01*
X7059Y2217D01*
X7046Y2204D01*
X6783Y1954D02*
X6941Y1954D01*
X6862Y1954D02*
X6862Y2230D01*
X6888Y2190D01*
X6914Y2164D01*
X6941Y2151D01*
X6612Y2230D02*
X6586Y2230D01*
X6560Y2217D01*
X6546Y2204D01*
X6533Y2177D01*
X6520Y2125D01*
X6520Y2059D01*
X6533Y2006D01*
X6546Y1980D01*
X6560Y1967D01*
X6586Y1954D01*
X6612Y1954D01*
X6638Y1967D01*
X6652Y1980D01*
X6665Y2006D01*
X6678Y2059D01*
X6678Y2125D01*
X6665Y2177D01*
X6652Y2204D01*
X6638Y2217D01*
X6612Y2230D01*
X6047Y2217D02*
X6073Y2230D01*
X6113Y2230D01*
X6152Y2217D01*
X6178Y2190D01*
X6192Y2164D01*
X6205Y2112D01*
X6205Y2072D01*
X6192Y2020D01*
X6178Y1993D01*
X6152Y1967D01*
X6113Y1954D01*
X6086Y1954D01*
X6047Y1967D01*
X6034Y1980D01*
X6034Y2072D01*
X6086Y2072D01*
X5916Y1954D02*
X5916Y2230D01*
X5758Y1954D01*
X5758Y2230D01*
X5626Y1954D02*
X5626Y2230D01*
X5561Y2230D01*
X5521Y2217D01*
X5495Y2190D01*
X5482Y2164D01*
X5469Y2112D01*
X5469Y2072D01*
X5482Y2020D01*
X5495Y1993D01*
X5521Y1967D01*
X5561Y1954D01*
X5626Y1954D01*
X5153Y2033D02*
X5022Y2033D01*
X5179Y1954D02*
X5087Y2230D01*
X4995Y1954D01*
X4904Y1954D02*
X4904Y2230D01*
X4838Y2230D01*
X4798Y2217D01*
X4772Y2190D01*
X4759Y2164D01*
X4746Y2112D01*
X4746Y2072D01*
X4759Y2020D01*
X4772Y1993D01*
X4798Y1967D01*
X4838Y1954D01*
X4904Y1954D01*
X4483Y1954D02*
X4641Y1954D01*
X4562Y1954D02*
X4562Y2230D01*
X4588Y2190D01*
X4614Y2164D01*
X4641Y2151D01*
X4378Y2204D02*
X4365Y2217D01*
X4338Y2230D01*
X4273Y2230D01*
X4246Y2217D01*
X4233Y2204D01*
X4220Y2177D01*
X4220Y2151D01*
X4233Y2112D01*
X4391Y1954D01*
X4220Y1954D01*
G54D13*
X6078Y191D02*
X6078Y585D01*
X5928Y585D01*
X5890Y566D01*
X5872Y548D01*
X5853Y510D01*
X5853Y454D01*
X5872Y416D01*
X5890Y397D01*
X5928Y379D01*
X6078Y379D01*
X5684Y191D02*
X5684Y454D01*
X5684Y379D02*
X5665Y416D01*
X5646Y435D01*
X5609Y454D01*
X5571Y454D01*
X5384Y191D02*
X5421Y210D01*
X5440Y229D01*
X5459Y266D01*
X5459Y379D01*
X5440Y416D01*
X5421Y435D01*
X5384Y454D01*
X5328Y454D01*
X5290Y435D01*
X5271Y416D01*
X5252Y379D01*
X5252Y266D01*
X5271Y229D01*
X5290Y210D01*
X5328Y191D01*
X5384Y191D01*
X5084Y191D02*
X5084Y585D01*
X5084Y435D02*
X5046Y454D01*
X4971Y454D01*
X4934Y435D01*
X4915Y416D01*
X4896Y379D01*
X4896Y266D01*
X4915Y229D01*
X4934Y210D01*
X4971Y191D01*
X5046Y191D01*
X5084Y210D01*
X4577Y210D02*
X4615Y191D01*
X4690Y191D01*
X4727Y210D01*
X4746Y247D01*
X4746Y397D01*
X4727Y435D01*
X4690Y454D01*
X4615Y454D01*
X4577Y435D01*
X4558Y397D01*
X4558Y360D01*
X4746Y322D01*
G54D14*
X3555Y19390D02*
X3735Y19390D01*
X3645Y19390D02*
X3645Y19705D01*
X3675Y19660D01*
X3705Y19630D01*
X3735Y19615D01*
X3315Y19555D02*
X3270Y19540D01*
X3255Y19525D01*
X3240Y19495D01*
X3240Y19450D01*
X3255Y19420D01*
X3270Y19405D01*
X3300Y19390D01*
X3420Y19390D01*
X3420Y19705D01*
X3315Y19705D01*
X3285Y19690D01*
X3270Y19675D01*
X3255Y19645D01*
X3255Y19615D01*
X3270Y19585D01*
X3285Y19570D01*
X3315Y19555D01*
X3420Y19555D01*
X3510Y18390D02*
X3690Y18390D01*
X3600Y18390D02*
X3600Y18705D01*
X3630Y18660D01*
X3660Y18630D01*
X3690Y18615D01*
X3390Y18480D02*
X3240Y18480D01*
X3420Y18390D02*
X3315Y18705D01*
X3210Y18390D01*
X3690Y17675D02*
X3675Y17690D01*
X3645Y17705D01*
X3570Y17705D01*
X3540Y17690D01*
X3525Y17675D01*
X3510Y17645D01*
X3510Y17615D01*
X3525Y17570D01*
X3705Y17390D01*
X3510Y17390D01*
X3390Y17480D02*
X3240Y17480D01*
X3420Y17390D02*
X3315Y17705D01*
X3210Y17390D01*
X3735Y16675D02*
X3720Y16690D01*
X3690Y16705D01*
X3615Y16705D01*
X3585Y16690D01*
X3570Y16675D01*
X3555Y16645D01*
X3555Y16615D01*
X3570Y16570D01*
X3750Y16390D01*
X3555Y16390D01*
X3315Y16555D02*
X3270Y16540D01*
X3255Y16525D01*
X3240Y16495D01*
X3240Y16450D01*
X3255Y16420D01*
X3270Y16405D01*
X3300Y16390D01*
X3420Y16390D01*
X3420Y16705D01*
X3315Y16705D01*
X3285Y16690D01*
X3270Y16675D01*
X3255Y16645D01*
X3255Y16615D01*
X3270Y16585D01*
X3285Y16570D01*
X3315Y16555D01*
X3420Y16555D01*
X3975Y15405D02*
X3930Y15390D01*
X3855Y15390D01*
X3825Y15405D01*
X3810Y15420D01*
X3795Y15450D01*
X3795Y15480D01*
X3810Y15510D01*
X3825Y15525D01*
X3855Y15540D01*
X3915Y15555D01*
X3945Y15570D01*
X3960Y15585D01*
X3975Y15615D01*
X3975Y15645D01*
X3960Y15675D01*
X3945Y15690D01*
X3915Y15705D01*
X3840Y15705D01*
X3795Y15690D01*
X3705Y15705D02*
X3525Y15705D01*
X3615Y15390D02*
X3615Y15705D01*
X3420Y15390D02*
X3420Y15705D01*
X3300Y15705D01*
X3270Y15690D01*
X3255Y15675D01*
X3240Y15645D01*
X3240Y15600D01*
X3255Y15570D01*
X3270Y15555D01*
X3300Y15540D01*
X3420Y15540D01*
X4005Y14705D02*
X3810Y14705D01*
X3915Y14585D01*
X3870Y14585D01*
X3840Y14570D01*
X3825Y14555D01*
X3810Y14525D01*
X3810Y14450D01*
X3825Y14420D01*
X3840Y14405D01*
X3870Y14390D01*
X3960Y14390D01*
X3990Y14405D01*
X4005Y14420D01*
X3720Y14705D02*
X3615Y14390D01*
X3510Y14705D01*
X3435Y14705D02*
X3240Y14705D01*
X3345Y14585D01*
X3300Y14585D01*
X3270Y14570D01*
X3255Y14555D01*
X3240Y14525D01*
X3240Y14450D01*
X3255Y14420D01*
X3270Y14405D01*
X3300Y14390D01*
X3390Y14390D01*
X3420Y14405D01*
X3435Y14420D01*
X3900Y13690D02*
X3930Y13705D01*
X3975Y13705D01*
X4020Y13690D01*
X4050Y13660D01*
X4065Y13630D01*
X4080Y13570D01*
X4080Y13525D01*
X4065Y13465D01*
X4050Y13435D01*
X4020Y13405D01*
X3975Y13390D01*
X3945Y13390D01*
X3900Y13405D01*
X3885Y13420D01*
X3885Y13525D01*
X3945Y13525D01*
X3750Y13390D02*
X3750Y13705D01*
X3570Y13390D01*
X3570Y13705D01*
X3420Y13390D02*
X3420Y13705D01*
X3345Y13705D01*
X3300Y13690D01*
X3270Y13660D01*
X3255Y13630D01*
X3240Y13570D01*
X3240Y13525D01*
X3255Y13465D01*
X3270Y13435D01*
X3300Y13405D01*
X3345Y13390D01*
X3420Y13390D01*
X3499Y27456D02*
X3679Y27456D01*
X3589Y27456D02*
X3589Y27771D01*
X3619Y27726D01*
X3649Y27696D01*
X3679Y27681D01*
X3259Y27621D02*
X3214Y27606D01*
X3199Y27591D01*
X3184Y27561D01*
X3184Y27516D01*
X3199Y27486D01*
X3214Y27471D01*
X3244Y27456D01*
X3364Y27456D01*
X3364Y27771D01*
X3259Y27771D01*
X3229Y27756D01*
X3214Y27741D01*
X3199Y27711D01*
X3199Y27681D01*
X3214Y27651D01*
X3229Y27636D01*
X3259Y27621D01*
X3364Y27621D01*
X3454Y26456D02*
X3634Y26456D01*
X3544Y26456D02*
X3544Y26771D01*
X3574Y26726D01*
X3604Y26696D01*
X3634Y26681D01*
X3334Y26546D02*
X3184Y26546D01*
X3364Y26456D02*
X3259Y26771D01*
X3154Y26456D01*
X3634Y25741D02*
X3619Y25756D01*
X3589Y25771D01*
X3514Y25771D01*
X3484Y25756D01*
X3469Y25741D01*
X3454Y25711D01*
X3454Y25681D01*
X3469Y25636D01*
X3649Y25456D01*
X3454Y25456D01*
X3334Y25546D02*
X3184Y25546D01*
X3364Y25456D02*
X3259Y25771D01*
X3154Y25456D01*
X3679Y24741D02*
X3664Y24756D01*
X3634Y24771D01*
X3559Y24771D01*
X3529Y24756D01*
X3514Y24741D01*
X3499Y24711D01*
X3499Y24681D01*
X3514Y24636D01*
X3694Y24456D01*
X3499Y24456D01*
X3259Y24621D02*
X3214Y24606D01*
X3199Y24591D01*
X3184Y24561D01*
X3184Y24516D01*
X3199Y24486D01*
X3214Y24471D01*
X3244Y24456D01*
X3364Y24456D01*
X3364Y24771D01*
X3259Y24771D01*
X3229Y24756D01*
X3214Y24741D01*
X3199Y24711D01*
X3199Y24681D01*
X3214Y24651D01*
X3229Y24636D01*
X3259Y24621D01*
X3364Y24621D01*
X3919Y23471D02*
X3874Y23456D01*
X3799Y23456D01*
X3769Y23471D01*
X3754Y23486D01*
X3739Y23516D01*
X3739Y23546D01*
X3754Y23576D01*
X3769Y23591D01*
X3799Y23606D01*
X3859Y23621D01*
X3889Y23636D01*
X3904Y23651D01*
X3919Y23681D01*
X3919Y23711D01*
X3904Y23741D01*
X3889Y23756D01*
X3859Y23771D01*
X3784Y23771D01*
X3739Y23756D01*
X3649Y23771D02*
X3469Y23771D01*
X3559Y23456D02*
X3559Y23771D01*
X3364Y23456D02*
X3364Y23771D01*
X3244Y23771D01*
X3214Y23756D01*
X3199Y23741D01*
X3184Y23711D01*
X3184Y23666D01*
X3199Y23636D01*
X3214Y23621D01*
X3244Y23606D01*
X3364Y23606D01*
X3949Y22771D02*
X3754Y22771D01*
X3859Y22651D01*
X3814Y22651D01*
X3784Y22636D01*
X3769Y22621D01*
X3754Y22591D01*
X3754Y22516D01*
X3769Y22486D01*
X3784Y22471D01*
X3814Y22456D01*
X3904Y22456D01*
X3934Y22471D01*
X3949Y22486D01*
X3664Y22771D02*
X3559Y22456D01*
X3454Y22771D01*
X3379Y22771D02*
X3184Y22771D01*
X3289Y22651D01*
X3244Y22651D01*
X3214Y22636D01*
X3199Y22621D01*
X3184Y22591D01*
X3184Y22516D01*
X3199Y22486D01*
X3214Y22471D01*
X3244Y22456D01*
X3334Y22456D01*
X3364Y22471D01*
X3379Y22486D01*
X3844Y21756D02*
X3874Y21771D01*
X3919Y21771D01*
X3964Y21756D01*
X3994Y21726D01*
X4009Y21696D01*
X4024Y21636D01*
X4024Y21591D01*
X4009Y21531D01*
X3994Y21501D01*
X3964Y21471D01*
X3919Y21456D01*
X3889Y21456D01*
X3844Y21471D01*
X3829Y21486D01*
X3829Y21591D01*
X3889Y21591D01*
X3694Y21456D02*
X3694Y21771D01*
X3514Y21456D01*
X3514Y21771D01*
X3364Y21456D02*
X3364Y21771D01*
X3289Y21771D01*
X3244Y21756D01*
X3214Y21726D01*
X3199Y21696D01*
X3184Y21636D01*
X3184Y21591D01*
X3199Y21531D01*
X3214Y21501D01*
X3244Y21471D01*
X3289Y21456D01*
X3364Y21456D01*
X3439Y35436D02*
X3619Y35436D01*
X3529Y35436D02*
X3529Y35751D01*
X3559Y35706D01*
X3589Y35676D01*
X3619Y35661D01*
X3199Y35601D02*
X3154Y35586D01*
X3139Y35571D01*
X3124Y35541D01*
X3124Y35496D01*
X3139Y35466D01*
X3154Y35451D01*
X3184Y35436D01*
X3304Y35436D01*
X3304Y35751D01*
X3199Y35751D01*
X3169Y35736D01*
X3154Y35721D01*
X3139Y35691D01*
X3139Y35661D01*
X3154Y35631D01*
X3169Y35616D01*
X3199Y35601D01*
X3304Y35601D01*
X3394Y34436D02*
X3574Y34436D01*
X3484Y34436D02*
X3484Y34751D01*
X3514Y34706D01*
X3544Y34676D01*
X3574Y34661D01*
X3274Y34526D02*
X3124Y34526D01*
X3304Y34436D02*
X3199Y34751D01*
X3094Y34436D01*
X3574Y33721D02*
X3559Y33736D01*
X3529Y33751D01*
X3454Y33751D01*
X3424Y33736D01*
X3409Y33721D01*
X3394Y33691D01*
X3394Y33661D01*
X3409Y33616D01*
X3589Y33436D01*
X3394Y33436D01*
X3274Y33526D02*
X3124Y33526D01*
X3304Y33436D02*
X3199Y33751D01*
X3094Y33436D01*
X3619Y32721D02*
X3604Y32736D01*
X3574Y32751D01*
X3499Y32751D01*
X3469Y32736D01*
X3454Y32721D01*
X3439Y32691D01*
X3439Y32661D01*
X3454Y32616D01*
X3634Y32436D01*
X3439Y32436D01*
X3199Y32601D02*
X3154Y32586D01*
X3139Y32571D01*
X3124Y32541D01*
X3124Y32496D01*
X3139Y32466D01*
X3154Y32451D01*
X3184Y32436D01*
X3304Y32436D01*
X3304Y32751D01*
X3199Y32751D01*
X3169Y32736D01*
X3154Y32721D01*
X3139Y32691D01*
X3139Y32661D01*
X3154Y32631D01*
X3169Y32616D01*
X3199Y32601D01*
X3304Y32601D01*
X3859Y31451D02*
X3814Y31436D01*
X3739Y31436D01*
X3709Y31451D01*
X3694Y31466D01*
X3679Y31496D01*
X3679Y31526D01*
X3694Y31556D01*
X3709Y31571D01*
X3739Y31586D01*
X3799Y31601D01*
X3829Y31616D01*
X3844Y31631D01*
X3859Y31661D01*
X3859Y31691D01*
X3844Y31721D01*
X3829Y31736D01*
X3799Y31751D01*
X3724Y31751D01*
X3679Y31736D01*
X3589Y31751D02*
X3409Y31751D01*
X3499Y31436D02*
X3499Y31751D01*
X3304Y31436D02*
X3304Y31751D01*
X3184Y31751D01*
X3154Y31736D01*
X3139Y31721D01*
X3124Y31691D01*
X3124Y31646D01*
X3139Y31616D01*
X3154Y31601D01*
X3184Y31586D01*
X3304Y31586D01*
X3889Y30751D02*
X3694Y30751D01*
X3799Y30631D01*
X3754Y30631D01*
X3724Y30616D01*
X3709Y30601D01*
X3694Y30571D01*
X3694Y30496D01*
X3709Y30466D01*
X3724Y30451D01*
X3754Y30436D01*
X3844Y30436D01*
X3874Y30451D01*
X3889Y30466D01*
X3604Y30751D02*
X3499Y30436D01*
X3394Y30751D01*
X3319Y30751D02*
X3124Y30751D01*
X3229Y30631D01*
X3184Y30631D01*
X3154Y30616D01*
X3139Y30601D01*
X3124Y30571D01*
X3124Y30496D01*
X3139Y30466D01*
X3154Y30451D01*
X3184Y30436D01*
X3274Y30436D01*
X3304Y30451D01*
X3319Y30466D01*
X3784Y29736D02*
X3814Y29751D01*
X3859Y29751D01*
X3904Y29736D01*
X3934Y29706D01*
X3949Y29676D01*
X3964Y29616D01*
X3964Y29571D01*
X3949Y29511D01*
X3934Y29481D01*
X3904Y29451D01*
X3859Y29436D01*
X3829Y29436D01*
X3784Y29451D01*
X3769Y29466D01*
X3769Y29571D01*
X3829Y29571D01*
X3634Y29436D02*
X3634Y29751D01*
X3454Y29436D01*
X3454Y29751D01*
X3304Y29436D02*
X3304Y29751D01*
X3229Y29751D01*
X3184Y29736D01*
X3154Y29706D01*
X3139Y29676D01*
X3124Y29616D01*
X3124Y29571D01*
X3139Y29511D01*
X3154Y29481D01*
X3184Y29451D01*
X3229Y29436D01*
X3304Y29436D01*
X3455Y43420D02*
X3635Y43420D01*
X3545Y43420D02*
X3545Y43735D01*
X3575Y43690D01*
X3605Y43660D01*
X3635Y43645D01*
X3215Y43585D02*
X3170Y43570D01*
X3155Y43555D01*
X3140Y43525D01*
X3140Y43480D01*
X3155Y43450D01*
X3170Y43435D01*
X3200Y43420D01*
X3320Y43420D01*
X3320Y43735D01*
X3215Y43735D01*
X3185Y43720D01*
X3170Y43705D01*
X3155Y43675D01*
X3155Y43645D01*
X3170Y43615D01*
X3185Y43600D01*
X3215Y43585D01*
X3320Y43585D01*
X3410Y42420D02*
X3590Y42420D01*
X3500Y42420D02*
X3500Y42735D01*
X3530Y42690D01*
X3560Y42660D01*
X3590Y42645D01*
X3290Y42510D02*
X3140Y42510D01*
X3320Y42420D02*
X3215Y42735D01*
X3110Y42420D01*
X3590Y41705D02*
X3575Y41720D01*
X3545Y41735D01*
X3470Y41735D01*
X3440Y41720D01*
X3425Y41705D01*
X3410Y41675D01*
X3410Y41645D01*
X3425Y41600D01*
X3605Y41420D01*
X3410Y41420D01*
X3290Y41510D02*
X3140Y41510D01*
X3320Y41420D02*
X3215Y41735D01*
X3110Y41420D01*
X3635Y40705D02*
X3620Y40720D01*
X3590Y40735D01*
X3515Y40735D01*
X3485Y40720D01*
X3470Y40705D01*
X3455Y40675D01*
X3455Y40645D01*
X3470Y40600D01*
X3650Y40420D01*
X3455Y40420D01*
X3215Y40585D02*
X3170Y40570D01*
X3155Y40555D01*
X3140Y40525D01*
X3140Y40480D01*
X3155Y40450D01*
X3170Y40435D01*
X3200Y40420D01*
X3320Y40420D01*
X3320Y40735D01*
X3215Y40735D01*
X3185Y40720D01*
X3170Y40705D01*
X3155Y40675D01*
X3155Y40645D01*
X3170Y40615D01*
X3185Y40600D01*
X3215Y40585D01*
X3320Y40585D01*
X3875Y39435D02*
X3830Y39420D01*
X3755Y39420D01*
X3725Y39435D01*
X3710Y39450D01*
X3695Y39480D01*
X3695Y39510D01*
X3710Y39540D01*
X3725Y39555D01*
X3755Y39570D01*
X3815Y39585D01*
X3845Y39600D01*
X3860Y39615D01*
X3875Y39645D01*
X3875Y39675D01*
X3860Y39705D01*
X3845Y39720D01*
X3815Y39735D01*
X3740Y39735D01*
X3695Y39720D01*
X3605Y39735D02*
X3425Y39735D01*
X3515Y39420D02*
X3515Y39735D01*
X3320Y39420D02*
X3320Y39735D01*
X3200Y39735D01*
X3170Y39720D01*
X3155Y39705D01*
X3140Y39675D01*
X3140Y39630D01*
X3155Y39600D01*
X3170Y39585D01*
X3200Y39570D01*
X3320Y39570D01*
X3905Y38735D02*
X3710Y38735D01*
X3815Y38615D01*
X3770Y38615D01*
X3740Y38600D01*
X3725Y38585D01*
X3710Y38555D01*
X3710Y38480D01*
X3725Y38450D01*
X3740Y38435D01*
X3770Y38420D01*
X3860Y38420D01*
X3890Y38435D01*
X3905Y38450D01*
X3620Y38735D02*
X3515Y38420D01*
X3410Y38735D01*
X3335Y38735D02*
X3140Y38735D01*
X3245Y38615D01*
X3200Y38615D01*
X3170Y38600D01*
X3155Y38585D01*
X3140Y38555D01*
X3140Y38480D01*
X3155Y38450D01*
X3170Y38435D01*
X3200Y38420D01*
X3290Y38420D01*
X3320Y38435D01*
X3335Y38450D01*
X3800Y37720D02*
X3830Y37735D01*
X3875Y37735D01*
X3920Y37720D01*
X3950Y37690D01*
X3965Y37660D01*
X3980Y37600D01*
X3980Y37555D01*
X3965Y37495D01*
X3950Y37465D01*
X3920Y37435D01*
X3875Y37420D01*
X3845Y37420D01*
X3800Y37435D01*
X3785Y37450D01*
X3785Y37555D01*
X3845Y37555D01*
X3650Y37420D02*
X3650Y37735D01*
X3470Y37420D01*
X3470Y37735D01*
X3320Y37420D02*
X3320Y37735D01*
X3245Y37735D01*
X3200Y37720D01*
X3170Y37690D01*
X3155Y37660D01*
X3140Y37600D01*
X3140Y37555D01*
X3155Y37495D01*
X3170Y37465D01*
X3200Y37435D01*
X3245Y37420D01*
X3320Y37420D01*
G54D15*
X24179Y13400D02*
X32579Y13400D01*
X32579Y14400D02*
X24179Y14400D01*
X24179Y15400D02*
X32579Y15400D01*
X32579Y16400D02*
X24179Y16400D01*
X24179Y17400D02*
X32579Y17400D01*
X32579Y18400D02*
X24179Y18400D01*
X24179Y19400D02*
X32579Y19400D01*
X32579Y20400D02*
X24179Y20400D01*
X24179Y21400D02*
X32579Y21400D01*
X32579Y22400D02*
X24179Y22400D01*
X24179Y23400D02*
X32579Y23400D01*
X32579Y24400D02*
X24179Y24400D01*
X24179Y25400D02*
X32579Y25400D01*
X32579Y26400D02*
X24179Y26400D01*
X24179Y27400D02*
X32579Y27400D01*
X32579Y28400D02*
X24179Y28400D01*
X24179Y29400D02*
X32579Y29400D01*
X32579Y30400D02*
X24179Y30400D01*
X24179Y31400D02*
X32579Y31400D01*
X32579Y32400D02*
X24179Y32400D01*
X24179Y33400D02*
X32579Y33400D01*
X32579Y34400D02*
X24179Y34400D01*
X24179Y35400D02*
X32579Y35400D01*
X32579Y36400D02*
X24179Y36400D01*
X24179Y37400D02*
X32579Y37400D01*
X32579Y38400D02*
X24179Y38400D01*
X24179Y39400D02*
X32579Y39400D01*
G54D14*
X39939Y44357D02*
X39924Y44372D01*
X39894Y44387D01*
X39819Y44387D01*
X39789Y44372D01*
X39774Y44357D01*
X39759Y44327D01*
X39759Y44297D01*
X39774Y44252D01*
X39954Y44072D01*
X39759Y44072D01*
X38019Y44072D02*
X38199Y44072D01*
X38109Y44072D02*
X38109Y44387D01*
X38139Y44342D01*
X38169Y44312D01*
X38199Y44297D01*
G54D15*
X28379Y39400D02*
X28379Y13400D01*
X31579Y13400D02*
X31579Y39400D01*
X32579Y39400D02*
X32579Y13400D01*
X27379Y13400D02*
X27379Y39400D01*
X24179Y39400D02*
X24179Y13400D01*
G54D14*
X31139Y38072D02*
X31169Y38087D01*
X31214Y38087D01*
X31259Y38072D01*
X31289Y38042D01*
X31304Y38012D01*
X31319Y37952D01*
X31319Y37907D01*
X31304Y37847D01*
X31289Y37817D01*
X31259Y37787D01*
X31214Y37772D01*
X31184Y37772D01*
X31139Y37787D01*
X31124Y37802D01*
X31124Y37907D01*
X31184Y37907D01*
X30989Y37772D02*
X30989Y38087D01*
X30809Y37772D01*
X30809Y38087D01*
X30659Y37772D02*
X30659Y38087D01*
X30584Y38087D01*
X30539Y38072D01*
X30509Y38042D01*
X30494Y38012D01*
X30479Y37952D01*
X30479Y37907D01*
X30494Y37847D01*
X30509Y37817D01*
X30539Y37787D01*
X30584Y37772D01*
X30659Y37772D01*
X31124Y36772D02*
X31229Y36922D01*
X31304Y36772D02*
X31304Y37087D01*
X31184Y37087D01*
X31154Y37072D01*
X31139Y37057D01*
X31124Y37027D01*
X31124Y36982D01*
X31139Y36952D01*
X31154Y36937D01*
X31184Y36922D01*
X31304Y36922D01*
X31004Y36787D02*
X30959Y36772D01*
X30884Y36772D01*
X30854Y36787D01*
X30839Y36802D01*
X30824Y36832D01*
X30824Y36862D01*
X30839Y36892D01*
X30854Y36907D01*
X30884Y36922D01*
X30944Y36937D01*
X30974Y36952D01*
X30989Y36967D01*
X31004Y36997D01*
X31004Y37027D01*
X30989Y37057D01*
X30974Y37072D01*
X30944Y37087D01*
X30869Y37087D01*
X30824Y37072D01*
X30734Y37087D02*
X30554Y37087D01*
X30644Y36772D02*
X30644Y37087D01*
X31349Y36087D02*
X31169Y36087D01*
X31259Y35772D02*
X31259Y36087D01*
X31094Y36087D02*
X31019Y35772D01*
X30959Y35997D01*
X30899Y35772D01*
X30824Y36087D01*
X30524Y35802D02*
X30539Y35787D01*
X30584Y35772D01*
X30614Y35772D01*
X30659Y35787D01*
X30689Y35817D01*
X30704Y35847D01*
X30719Y35907D01*
X30719Y35952D01*
X30704Y36012D01*
X30689Y36042D01*
X30659Y36072D01*
X30614Y36087D01*
X30584Y36087D01*
X30539Y36072D01*
X30524Y36057D01*
X30389Y35772D02*
X30389Y36087D01*
X30209Y35772D02*
X30344Y35952D01*
X30209Y36087D02*
X30389Y35907D01*
X30014Y36087D02*
X29984Y36087D01*
X29954Y36072D01*
X29939Y36057D01*
X29924Y36027D01*
X29909Y35967D01*
X29909Y35892D01*
X29924Y35832D01*
X29939Y35802D01*
X29954Y35787D01*
X29984Y35772D01*
X30014Y35772D01*
X30044Y35787D01*
X30059Y35802D01*
X30074Y35832D01*
X30089Y35892D01*
X30089Y35967D01*
X30074Y36027D01*
X30059Y36057D01*
X30044Y36072D01*
X30014Y36087D01*
X31304Y35087D02*
X31304Y34832D01*
X31289Y34802D01*
X31274Y34787D01*
X31244Y34772D01*
X31184Y34772D01*
X31154Y34787D01*
X31139Y34802D01*
X31124Y34832D01*
X31124Y35087D01*
X31019Y35087D02*
X30839Y35087D01*
X30929Y34772D02*
X30929Y35087D01*
X30764Y35087D02*
X30554Y34772D01*
X30554Y35087D02*
X30764Y34772D01*
X30434Y34772D02*
X30434Y35087D01*
X30359Y35087D01*
X30314Y35072D01*
X30284Y35042D01*
X30269Y35012D01*
X30254Y34952D01*
X30254Y34907D01*
X30269Y34847D01*
X30284Y34817D01*
X30314Y34787D01*
X30359Y34772D01*
X30434Y34772D01*
X31304Y33772D02*
X31304Y34087D01*
X31184Y34087D01*
X31154Y34072D01*
X31139Y34057D01*
X31124Y34027D01*
X31124Y33982D01*
X31139Y33952D01*
X31154Y33937D01*
X31184Y33922D01*
X31304Y33922D01*
X31004Y33862D02*
X30854Y33862D01*
X31034Y33772D02*
X30929Y34087D01*
X30824Y33772D01*
X30554Y33772D02*
X30734Y33772D01*
X30644Y33772D02*
X30644Y34087D01*
X30674Y34042D01*
X30704Y34012D01*
X30734Y33997D01*
X30284Y33982D02*
X30284Y33772D01*
X30359Y34102D02*
X30434Y33877D01*
X30239Y33877D01*
X31124Y32772D02*
X31229Y32922D01*
X31304Y32772D02*
X31304Y33087D01*
X31184Y33087D01*
X31154Y33072D01*
X31139Y33057D01*
X31124Y33027D01*
X31124Y32982D01*
X31139Y32952D01*
X31154Y32937D01*
X31184Y32922D01*
X31304Y32922D01*
X31019Y33087D02*
X30809Y32772D01*
X30809Y33087D02*
X31019Y32772D01*
X30689Y32772D02*
X30689Y33087D01*
X30614Y33087D01*
X30569Y33072D01*
X30539Y33042D01*
X30524Y33012D01*
X30509Y32952D01*
X30509Y32907D01*
X30524Y32847D01*
X30539Y32817D01*
X30569Y32787D01*
X30614Y32772D01*
X30689Y32772D01*
X30209Y32772D02*
X30389Y32772D01*
X30299Y32772D02*
X30299Y33087D01*
X30329Y33042D01*
X30359Y33012D01*
X30389Y32997D01*
X31124Y31772D02*
X31229Y31922D01*
X31304Y31772D02*
X31304Y32087D01*
X31184Y32087D01*
X31154Y32072D01*
X31139Y32057D01*
X31124Y32027D01*
X31124Y31982D01*
X31139Y31952D01*
X31154Y31937D01*
X31184Y31922D01*
X31304Y31922D01*
X31019Y32087D02*
X30809Y31772D01*
X30809Y32087D02*
X31019Y31772D01*
X30689Y31772D02*
X30689Y32087D01*
X30614Y32087D01*
X30569Y32072D01*
X30539Y32042D01*
X30524Y32012D01*
X30509Y31952D01*
X30509Y31907D01*
X30524Y31847D01*
X30539Y31817D01*
X30569Y31787D01*
X30614Y31772D01*
X30689Y31772D01*
X30314Y32087D02*
X30284Y32087D01*
X30254Y32072D01*
X30239Y32057D01*
X30224Y32027D01*
X30209Y31967D01*
X30209Y31892D01*
X30224Y31832D01*
X30239Y31802D01*
X30254Y31787D01*
X30284Y31772D01*
X30314Y31772D01*
X30344Y31787D01*
X30359Y31802D01*
X30374Y31832D01*
X30389Y31892D01*
X30389Y31967D01*
X30374Y32027D01*
X30359Y32057D01*
X30344Y32072D01*
X30314Y32087D01*
X31304Y30772D02*
X31304Y31087D01*
X31184Y31087D01*
X31154Y31072D01*
X31139Y31057D01*
X31124Y31027D01*
X31124Y30982D01*
X31139Y30952D01*
X31154Y30937D01*
X31184Y30922D01*
X31304Y30922D01*
X30809Y30802D02*
X30824Y30787D01*
X30869Y30772D01*
X30899Y30772D01*
X30944Y30787D01*
X30974Y30817D01*
X30989Y30847D01*
X31004Y30907D01*
X31004Y30952D01*
X30989Y31012D01*
X30974Y31042D01*
X30944Y31072D01*
X30899Y31087D01*
X30869Y31087D01*
X30824Y31072D01*
X30809Y31057D01*
X30704Y31087D02*
X30509Y31087D01*
X30614Y30967D01*
X30569Y30967D01*
X30539Y30952D01*
X30524Y30937D01*
X30509Y30907D01*
X30509Y30832D01*
X30524Y30802D01*
X30539Y30787D01*
X30569Y30772D01*
X30659Y30772D01*
X30689Y30787D01*
X30704Y30802D01*
X31304Y29772D02*
X31304Y30087D01*
X31184Y30087D01*
X31154Y30072D01*
X31139Y30057D01*
X31124Y30027D01*
X31124Y29982D01*
X31139Y29952D01*
X31154Y29937D01*
X31184Y29922D01*
X31304Y29922D01*
X30809Y29802D02*
X30824Y29787D01*
X30869Y29772D01*
X30899Y29772D01*
X30944Y29787D01*
X30974Y29817D01*
X30989Y29847D01*
X31004Y29907D01*
X31004Y29952D01*
X30989Y30012D01*
X30974Y30042D01*
X30944Y30072D01*
X30899Y30087D01*
X30869Y30087D01*
X30824Y30072D01*
X30809Y30057D01*
X30539Y30087D02*
X30599Y30087D01*
X30629Y30072D01*
X30644Y30057D01*
X30674Y30012D01*
X30689Y29952D01*
X30689Y29832D01*
X30674Y29802D01*
X30659Y29787D01*
X30629Y29772D01*
X30569Y29772D01*
X30539Y29787D01*
X30524Y29802D01*
X30509Y29832D01*
X30509Y29907D01*
X30524Y29937D01*
X30539Y29952D01*
X30569Y29967D01*
X30629Y29967D01*
X30659Y29952D01*
X30674Y29937D01*
X30689Y29907D01*
X31304Y28772D02*
X31304Y29087D01*
X31184Y29087D01*
X31154Y29072D01*
X31139Y29057D01*
X31124Y29027D01*
X31124Y28982D01*
X31139Y28952D01*
X31154Y28937D01*
X31184Y28922D01*
X31304Y28922D01*
X30809Y28802D02*
X30824Y28787D01*
X30869Y28772D01*
X30899Y28772D01*
X30944Y28787D01*
X30974Y28817D01*
X30989Y28847D01*
X31004Y28907D01*
X31004Y28952D01*
X30989Y29012D01*
X30974Y29042D01*
X30944Y29072D01*
X30899Y29087D01*
X30869Y29087D01*
X30824Y29072D01*
X30809Y29057D01*
X30704Y29087D02*
X30494Y29087D01*
X30629Y28772D01*
X31304Y27772D02*
X31304Y28087D01*
X31184Y28087D01*
X31154Y28072D01*
X31139Y28057D01*
X31124Y28027D01*
X31124Y27982D01*
X31139Y27952D01*
X31154Y27937D01*
X31184Y27922D01*
X31304Y27922D01*
X30809Y27802D02*
X30824Y27787D01*
X30869Y27772D01*
X30899Y27772D01*
X30944Y27787D01*
X30974Y27817D01*
X30989Y27847D01*
X31004Y27907D01*
X31004Y27952D01*
X30989Y28012D01*
X30974Y28042D01*
X30944Y28072D01*
X30899Y28087D01*
X30869Y28087D01*
X30824Y28072D01*
X30809Y28057D01*
X30689Y28057D02*
X30674Y28072D01*
X30644Y28087D01*
X30569Y28087D01*
X30539Y28072D01*
X30524Y28057D01*
X30509Y28027D01*
X30509Y27997D01*
X30524Y27952D01*
X30704Y27772D01*
X30509Y27772D01*
X30389Y28057D02*
X30374Y28072D01*
X30344Y28087D01*
X30269Y28087D01*
X30239Y28072D01*
X30224Y28057D01*
X30209Y28027D01*
X30209Y27997D01*
X30224Y27952D01*
X30404Y27772D01*
X30209Y27772D01*
X31304Y26772D02*
X31304Y27087D01*
X31184Y27087D01*
X31154Y27072D01*
X31139Y27057D01*
X31124Y27027D01*
X31124Y26982D01*
X31139Y26952D01*
X31154Y26937D01*
X31184Y26922D01*
X31304Y26922D01*
X30809Y26802D02*
X30824Y26787D01*
X30869Y26772D01*
X30899Y26772D01*
X30944Y26787D01*
X30974Y26817D01*
X30989Y26847D01*
X31004Y26907D01*
X31004Y26952D01*
X30989Y27012D01*
X30974Y27042D01*
X30944Y27072D01*
X30899Y27087D01*
X30869Y27087D01*
X30824Y27072D01*
X30809Y27057D01*
X30689Y27057D02*
X30674Y27072D01*
X30644Y27087D01*
X30569Y27087D01*
X30539Y27072D01*
X30524Y27057D01*
X30509Y27027D01*
X30509Y26997D01*
X30524Y26952D01*
X30704Y26772D01*
X30509Y26772D01*
X30314Y27087D02*
X30284Y27087D01*
X30254Y27072D01*
X30239Y27057D01*
X30224Y27027D01*
X30209Y26967D01*
X30209Y26892D01*
X30224Y26832D01*
X30239Y26802D01*
X30254Y26787D01*
X30284Y26772D01*
X30314Y26772D01*
X30344Y26787D01*
X30359Y26802D01*
X30374Y26832D01*
X30389Y26892D01*
X30389Y26967D01*
X30374Y27027D01*
X30359Y27057D01*
X30344Y27072D01*
X30314Y27087D01*
X31304Y25772D02*
X31304Y26087D01*
X31124Y25772D01*
X31124Y26087D01*
X30974Y25772D02*
X30974Y26087D01*
X30854Y26087D01*
X30824Y26072D01*
X30809Y26057D01*
X30794Y26027D01*
X30794Y25982D01*
X30809Y25952D01*
X30824Y25937D01*
X30854Y25922D01*
X30974Y25922D01*
X30479Y25802D02*
X30494Y25787D01*
X30539Y25772D01*
X30569Y25772D01*
X30614Y25787D01*
X30644Y25817D01*
X30659Y25847D01*
X30674Y25907D01*
X30674Y25952D01*
X30659Y26012D01*
X30644Y26042D01*
X30614Y26072D01*
X30569Y26087D01*
X30539Y26087D01*
X30494Y26072D01*
X30479Y26057D01*
X30359Y25787D02*
X30314Y25772D01*
X30239Y25772D01*
X30209Y25787D01*
X30194Y25802D01*
X30179Y25832D01*
X30179Y25862D01*
X30194Y25892D01*
X30209Y25907D01*
X30239Y25922D01*
X30299Y25937D01*
X30329Y25952D01*
X30344Y25967D01*
X30359Y25997D01*
X30359Y26027D01*
X30344Y26057D01*
X30329Y26072D01*
X30299Y26087D01*
X30224Y26087D01*
X30179Y26072D01*
X29879Y25772D02*
X30059Y25772D01*
X29969Y25772D02*
X29969Y26087D01*
X29999Y26042D01*
X30029Y26012D01*
X30059Y25997D01*
X31319Y24787D02*
X31274Y24772D01*
X31199Y24772D01*
X31169Y24787D01*
X31154Y24802D01*
X31139Y24832D01*
X31139Y24862D01*
X31154Y24892D01*
X31169Y24907D01*
X31199Y24922D01*
X31259Y24937D01*
X31289Y24952D01*
X31304Y24967D01*
X31319Y24997D01*
X31319Y25027D01*
X31304Y25057D01*
X31289Y25072D01*
X31259Y25087D01*
X31184Y25087D01*
X31139Y25072D01*
X31004Y24772D02*
X31004Y25087D01*
X30884Y25087D01*
X30854Y25072D01*
X30839Y25057D01*
X30824Y25027D01*
X30824Y24982D01*
X30839Y24952D01*
X30854Y24937D01*
X30884Y24922D01*
X31004Y24922D01*
X30509Y24802D02*
X30524Y24787D01*
X30569Y24772D01*
X30599Y24772D01*
X30644Y24787D01*
X30674Y24817D01*
X30689Y24847D01*
X30704Y24907D01*
X30704Y24952D01*
X30689Y25012D01*
X30674Y25042D01*
X30644Y25072D01*
X30599Y25087D01*
X30569Y25087D01*
X30524Y25072D01*
X30509Y25057D01*
X30374Y24772D02*
X30374Y25087D01*
X30194Y24772D02*
X30329Y24952D01*
X30194Y25087D02*
X30374Y24907D01*
X29999Y25087D02*
X29969Y25087D01*
X29939Y25072D01*
X29924Y25057D01*
X29909Y25027D01*
X29894Y24967D01*
X29894Y24892D01*
X29909Y24832D01*
X29924Y24802D01*
X29939Y24787D01*
X29969Y24772D01*
X29999Y24772D01*
X30029Y24787D01*
X30044Y24802D01*
X30059Y24832D01*
X30074Y24892D01*
X30074Y24967D01*
X30059Y25027D01*
X30044Y25057D01*
X30029Y25072D01*
X29999Y25087D01*
X31304Y23772D02*
X31304Y24087D01*
X31199Y23862D01*
X31094Y24087D01*
X31094Y23772D01*
X30944Y23772D02*
X30944Y24087D01*
X30809Y23787D02*
X30764Y23772D01*
X30689Y23772D01*
X30659Y23787D01*
X30644Y23802D01*
X30629Y23832D01*
X30629Y23862D01*
X30644Y23892D01*
X30659Y23907D01*
X30689Y23922D01*
X30749Y23937D01*
X30779Y23952D01*
X30794Y23967D01*
X30809Y23997D01*
X30809Y24027D01*
X30794Y24057D01*
X30779Y24072D01*
X30749Y24087D01*
X30674Y24087D01*
X30629Y24072D01*
X30434Y24087D02*
X30374Y24087D01*
X30344Y24072D01*
X30314Y24042D01*
X30299Y23982D01*
X30299Y23877D01*
X30314Y23817D01*
X30344Y23787D01*
X30374Y23772D01*
X30434Y23772D01*
X30464Y23787D01*
X30494Y23817D01*
X30509Y23877D01*
X30509Y23982D01*
X30494Y24042D01*
X30464Y24072D01*
X30434Y24087D01*
X30104Y24087D02*
X30074Y24087D01*
X30044Y24072D01*
X30029Y24057D01*
X30014Y24027D01*
X29999Y23967D01*
X29999Y23892D01*
X30014Y23832D01*
X30029Y23802D01*
X30044Y23787D01*
X30074Y23772D01*
X30104Y23772D01*
X30134Y23787D01*
X30149Y23802D01*
X30164Y23832D01*
X30179Y23892D01*
X30179Y23967D01*
X30164Y24027D01*
X30149Y24057D01*
X30134Y24072D01*
X30104Y24087D01*
X31304Y22772D02*
X31304Y23087D01*
X31184Y23087D01*
X31154Y23072D01*
X31139Y23057D01*
X31124Y23027D01*
X31124Y22982D01*
X31139Y22952D01*
X31154Y22937D01*
X31184Y22922D01*
X31304Y22922D01*
X30884Y22937D02*
X30839Y22922D01*
X30824Y22907D01*
X30809Y22877D01*
X30809Y22832D01*
X30824Y22802D01*
X30839Y22787D01*
X30869Y22772D01*
X30989Y22772D01*
X30989Y23087D01*
X30884Y23087D01*
X30854Y23072D01*
X30839Y23057D01*
X30824Y23027D01*
X30824Y22997D01*
X30839Y22967D01*
X30854Y22952D01*
X30884Y22937D01*
X30989Y22937D01*
X30509Y22772D02*
X30689Y22772D01*
X30599Y22772D02*
X30599Y23087D01*
X30629Y23042D01*
X30659Y23012D01*
X30689Y22997D01*
X30239Y23087D02*
X30299Y23087D01*
X30329Y23072D01*
X30344Y23057D01*
X30374Y23012D01*
X30389Y22952D01*
X30389Y22832D01*
X30374Y22802D01*
X30359Y22787D01*
X30329Y22772D01*
X30269Y22772D01*
X30239Y22787D01*
X30224Y22802D01*
X30209Y22832D01*
X30209Y22907D01*
X30224Y22937D01*
X30239Y22952D01*
X30269Y22967D01*
X30329Y22967D01*
X30359Y22952D01*
X30374Y22937D01*
X30389Y22907D01*
X31319Y21862D02*
X31169Y21862D01*
X31349Y21772D02*
X31244Y22087D01*
X31139Y21772D01*
X31034Y21772D02*
X31034Y22087D01*
X30959Y22087D01*
X30914Y22072D01*
X30884Y22042D01*
X30869Y22012D01*
X30854Y21952D01*
X30854Y21907D01*
X30869Y21847D01*
X30884Y21817D01*
X30914Y21787D01*
X30959Y21772D01*
X31034Y21772D01*
X30659Y22087D02*
X30629Y22087D01*
X30599Y22072D01*
X30584Y22057D01*
X30569Y22027D01*
X30554Y21967D01*
X30554Y21892D01*
X30569Y21832D01*
X30584Y21802D01*
X30599Y21787D01*
X30629Y21772D01*
X30659Y21772D01*
X30689Y21787D01*
X30704Y21802D01*
X30719Y21832D01*
X30734Y21892D01*
X30734Y21967D01*
X30719Y22027D01*
X30704Y22057D01*
X30689Y22072D01*
X30659Y22087D01*
X31349Y21087D02*
X31169Y21087D01*
X31259Y20772D02*
X31259Y21087D01*
X31094Y21087D02*
X31019Y20772D01*
X30959Y20997D01*
X30899Y20772D01*
X30824Y21087D01*
X30524Y20802D02*
X30539Y20787D01*
X30584Y20772D01*
X30614Y20772D01*
X30659Y20787D01*
X30689Y20817D01*
X30704Y20847D01*
X30719Y20907D01*
X30719Y20952D01*
X30704Y21012D01*
X30689Y21042D01*
X30659Y21072D01*
X30614Y21087D01*
X30584Y21087D01*
X30539Y21072D01*
X30524Y21057D01*
X30389Y20772D02*
X30389Y21087D01*
X30209Y20772D02*
X30344Y20952D01*
X30209Y21087D02*
X30389Y20907D01*
X29909Y20772D02*
X30089Y20772D01*
X29999Y20772D02*
X29999Y21087D01*
X30029Y21042D01*
X30059Y21012D01*
X30089Y20997D01*
X31319Y19862D02*
X31169Y19862D01*
X31349Y19772D02*
X31244Y20087D01*
X31139Y19772D01*
X31034Y19772D02*
X31034Y20087D01*
X30959Y20087D01*
X30914Y20072D01*
X30884Y20042D01*
X30869Y20012D01*
X30854Y19952D01*
X30854Y19907D01*
X30869Y19847D01*
X30884Y19817D01*
X30914Y19787D01*
X30959Y19772D01*
X31034Y19772D01*
X30554Y19772D02*
X30734Y19772D01*
X30644Y19772D02*
X30644Y20087D01*
X30674Y20042D01*
X30704Y20012D01*
X30734Y19997D01*
X30254Y19772D02*
X30434Y19772D01*
X30344Y19772D02*
X30344Y20087D01*
X30374Y20042D01*
X30404Y20012D01*
X30434Y19997D01*
X31319Y18862D02*
X31169Y18862D01*
X31349Y18772D02*
X31244Y19087D01*
X31139Y18772D01*
X31034Y18772D02*
X31034Y19087D01*
X30959Y19087D01*
X30914Y19072D01*
X30884Y19042D01*
X30869Y19012D01*
X30854Y18952D01*
X30854Y18907D01*
X30869Y18847D01*
X30884Y18817D01*
X30914Y18787D01*
X30959Y18772D01*
X31034Y18772D01*
X30554Y18772D02*
X30734Y18772D01*
X30644Y18772D02*
X30644Y19087D01*
X30674Y19042D01*
X30704Y19012D01*
X30734Y18997D01*
X30449Y19087D02*
X30254Y19087D01*
X30359Y18967D01*
X30314Y18967D01*
X30284Y18952D01*
X30269Y18937D01*
X30254Y18907D01*
X30254Y18832D01*
X30269Y18802D01*
X30284Y18787D01*
X30314Y18772D01*
X30404Y18772D01*
X30434Y18787D01*
X30449Y18802D01*
X31304Y17772D02*
X31304Y18087D01*
X31184Y18087D01*
X31154Y18072D01*
X31139Y18057D01*
X31124Y18027D01*
X31124Y17982D01*
X31139Y17952D01*
X31154Y17937D01*
X31184Y17922D01*
X31304Y17922D01*
X30809Y17802D02*
X30824Y17787D01*
X30869Y17772D01*
X30899Y17772D01*
X30944Y17787D01*
X30974Y17817D01*
X30989Y17847D01*
X31004Y17907D01*
X31004Y17952D01*
X30989Y18012D01*
X30974Y18042D01*
X30944Y18072D01*
X30899Y18087D01*
X30869Y18087D01*
X30824Y18072D01*
X30809Y18057D01*
X30509Y17772D02*
X30689Y17772D01*
X30599Y17772D02*
X30599Y18087D01*
X30629Y18042D01*
X30659Y18012D01*
X30689Y17997D01*
X30209Y17772D02*
X30389Y17772D01*
X30299Y17772D02*
X30299Y18087D01*
X30329Y18042D01*
X30359Y18012D01*
X30389Y17997D01*
X31304Y16772D02*
X31304Y17087D01*
X31184Y17087D01*
X31154Y17072D01*
X31139Y17057D01*
X31124Y17027D01*
X31124Y16982D01*
X31139Y16952D01*
X31154Y16937D01*
X31184Y16922D01*
X31304Y16922D01*
X30809Y16802D02*
X30824Y16787D01*
X30869Y16772D01*
X30899Y16772D01*
X30944Y16787D01*
X30974Y16817D01*
X30989Y16847D01*
X31004Y16907D01*
X31004Y16952D01*
X30989Y17012D01*
X30974Y17042D01*
X30944Y17072D01*
X30899Y17087D01*
X30869Y17087D01*
X30824Y17072D01*
X30809Y17057D01*
X30509Y16772D02*
X30689Y16772D01*
X30599Y16772D02*
X30599Y17087D01*
X30629Y17042D01*
X30659Y17012D01*
X30689Y16997D01*
X30404Y17087D02*
X30209Y17087D01*
X30314Y16967D01*
X30269Y16967D01*
X30239Y16952D01*
X30224Y16937D01*
X30209Y16907D01*
X30209Y16832D01*
X30224Y16802D01*
X30239Y16787D01*
X30269Y16772D01*
X30359Y16772D01*
X30389Y16787D01*
X30404Y16802D01*
X31304Y15772D02*
X31304Y16087D01*
X31184Y16087D01*
X31154Y16072D01*
X31139Y16057D01*
X31124Y16027D01*
X31124Y15982D01*
X31139Y15952D01*
X31154Y15937D01*
X31184Y15922D01*
X31304Y15922D01*
X30809Y15802D02*
X30824Y15787D01*
X30869Y15772D01*
X30899Y15772D01*
X30944Y15787D01*
X30974Y15817D01*
X30989Y15847D01*
X31004Y15907D01*
X31004Y15952D01*
X30989Y16012D01*
X30974Y16042D01*
X30944Y16072D01*
X30899Y16087D01*
X30869Y16087D01*
X30824Y16072D01*
X30809Y16057D01*
X30509Y15772D02*
X30689Y15772D01*
X30599Y15772D02*
X30599Y16087D01*
X30629Y16042D01*
X30659Y16012D01*
X30689Y15997D01*
X30224Y16087D02*
X30374Y16087D01*
X30389Y15937D01*
X30374Y15952D01*
X30344Y15967D01*
X30269Y15967D01*
X30239Y15952D01*
X30224Y15937D01*
X30209Y15907D01*
X30209Y15832D01*
X30224Y15802D01*
X30239Y15787D01*
X30269Y15772D01*
X30344Y15772D01*
X30374Y15787D01*
X30389Y15802D01*
X31304Y14772D02*
X31304Y15087D01*
X31184Y15087D01*
X31154Y15072D01*
X31139Y15057D01*
X31124Y15027D01*
X31124Y14982D01*
X31139Y14952D01*
X31154Y14937D01*
X31184Y14922D01*
X31304Y14922D01*
X30809Y14802D02*
X30824Y14787D01*
X30869Y14772D01*
X30899Y14772D01*
X30944Y14787D01*
X30974Y14817D01*
X30989Y14847D01*
X31004Y14907D01*
X31004Y14952D01*
X30989Y15012D01*
X30974Y15042D01*
X30944Y15072D01*
X30899Y15087D01*
X30869Y15087D01*
X30824Y15072D01*
X30809Y15057D01*
X30509Y14772D02*
X30689Y14772D01*
X30599Y14772D02*
X30599Y15087D01*
X30629Y15042D01*
X30659Y15012D01*
X30689Y14997D01*
X30404Y15087D02*
X30194Y15087D01*
X30329Y14772D01*
X31304Y13772D02*
X31304Y14087D01*
X31184Y14087D01*
X31154Y14072D01*
X31139Y14057D01*
X31124Y14027D01*
X31124Y13982D01*
X31139Y13952D01*
X31154Y13937D01*
X31184Y13922D01*
X31304Y13922D01*
X30809Y13802D02*
X30824Y13787D01*
X30869Y13772D01*
X30899Y13772D01*
X30944Y13787D01*
X30974Y13817D01*
X30989Y13847D01*
X31004Y13907D01*
X31004Y13952D01*
X30989Y14012D01*
X30974Y14042D01*
X30944Y14072D01*
X30899Y14087D01*
X30869Y14087D01*
X30824Y14072D01*
X30809Y14057D01*
X30509Y13772D02*
X30689Y13772D01*
X30599Y13772D02*
X30599Y14087D01*
X30629Y14042D01*
X30659Y14012D01*
X30689Y13997D01*
X30359Y13772D02*
X30299Y13772D01*
X30269Y13787D01*
X30254Y13802D01*
X30224Y13847D01*
X30209Y13907D01*
X30209Y14027D01*
X30224Y14057D01*
X30239Y14072D01*
X30269Y14087D01*
X30329Y14087D01*
X30359Y14072D01*
X30374Y14057D01*
X30389Y14027D01*
X30389Y13952D01*
X30374Y13922D01*
X30359Y13907D01*
X30329Y13892D01*
X30269Y13892D01*
X30239Y13907D01*
X30224Y13922D01*
X30209Y13952D01*
X28201Y38772D02*
X28201Y39087D01*
X28081Y39087D01*
X28051Y39072D01*
X28036Y39057D01*
X28021Y39027D01*
X28021Y38982D01*
X28036Y38952D01*
X28051Y38937D01*
X28081Y38922D01*
X28201Y38922D01*
X27886Y38772D02*
X27886Y39087D01*
X27736Y38772D02*
X27736Y39087D01*
X27556Y38772D01*
X27556Y39087D01*
X36270Y46290D02*
X36300Y46305D01*
X36345Y46305D01*
X36390Y46290D01*
X36420Y46260D01*
X36435Y46230D01*
X36450Y46170D01*
X36450Y46125D01*
X36435Y46065D01*
X36420Y46035D01*
X36390Y46005D01*
X36345Y45990D01*
X36315Y45990D01*
X36270Y46005D01*
X36255Y46020D01*
X36255Y46125D01*
X36315Y46125D01*
X36120Y45990D02*
X36120Y46305D01*
X35940Y45990D01*
X35940Y46305D01*
X35790Y45990D02*
X35790Y46305D01*
X35715Y46305D01*
X35670Y46290D01*
X35640Y46260D01*
X35625Y46230D01*
X35610Y46170D01*
X35610Y46125D01*
X35625Y46065D01*
X35640Y46035D01*
X35670Y46005D01*
X35715Y45990D01*
X35790Y45990D01*
X35055Y45990D02*
X35160Y46140D01*
X35235Y45990D02*
X35235Y46305D01*
X35115Y46305D01*
X35085Y46290D01*
X35070Y46275D01*
X35055Y46245D01*
X35055Y46200D01*
X35070Y46170D01*
X35085Y46155D01*
X35115Y46140D01*
X35235Y46140D01*
X34830Y45870D02*
X34845Y45885D01*
X34875Y45930D01*
X34890Y45960D01*
X34905Y46005D01*
X34920Y46080D01*
X34920Y46140D01*
X34905Y46215D01*
X34890Y46260D01*
X34875Y46290D01*
X34845Y46335D01*
X34830Y46350D01*
X34755Y46200D02*
X34635Y46200D01*
X34710Y46305D02*
X34710Y46035D01*
X34695Y46005D01*
X34665Y45990D01*
X34635Y45990D01*
X34530Y45990D02*
X34530Y46305D01*
X34395Y45990D02*
X34395Y46155D01*
X34410Y46185D01*
X34440Y46200D01*
X34485Y46200D01*
X34515Y46185D01*
X34530Y46170D01*
X34275Y45870D02*
X34260Y45885D01*
X34230Y45930D01*
X34215Y45960D01*
X34200Y46005D01*
X34185Y46080D01*
X34185Y46140D01*
X34200Y46215D01*
X34215Y46260D01*
X34230Y46290D01*
X34260Y46335D01*
X34275Y46350D01*
X39834Y18587D02*
X39984Y18587D01*
X39999Y18437D01*
X39984Y18452D01*
X39954Y18467D01*
X39879Y18467D01*
X39849Y18452D01*
X39834Y18437D01*
X39819Y18407D01*
X39819Y18332D01*
X39834Y18302D01*
X39849Y18287D01*
X39879Y18272D01*
X39954Y18272D01*
X39984Y18287D01*
X39999Y18302D01*
X39624Y18587D02*
X39594Y18587D01*
X39564Y18572D01*
X39549Y18557D01*
X39534Y18527D01*
X39519Y18467D01*
X39519Y18392D01*
X39534Y18332D01*
X39549Y18302D01*
X39564Y18287D01*
X39594Y18272D01*
X39624Y18272D01*
X39654Y18287D01*
X39669Y18302D01*
X39684Y18332D01*
X39699Y18392D01*
X39699Y18467D01*
X39684Y18527D01*
X39669Y18557D01*
X39654Y18572D01*
X39624Y18587D01*
X38289Y18482D02*
X38289Y18272D01*
X38364Y18602D02*
X38439Y18377D01*
X38244Y18377D01*
X38109Y18272D02*
X38049Y18272D01*
X38019Y18287D01*
X38004Y18302D01*
X37974Y18347D01*
X37959Y18407D01*
X37959Y18527D01*
X37974Y18557D01*
X37989Y18572D01*
X38019Y18587D01*
X38079Y18587D01*
X38109Y18572D01*
X38124Y18557D01*
X38139Y18527D01*
X38139Y18452D01*
X38124Y18422D01*
X38109Y18407D01*
X38079Y18392D01*
X38019Y18392D01*
X37989Y18407D01*
X37974Y18422D01*
X37959Y18452D01*
G54D15*
X32579Y13400D02*
X37979Y18800D01*
X32579Y38400D02*
X37979Y43800D01*
X37979Y18800D02*
X37979Y43800D01*
X39979Y18800D02*
X37979Y18800D01*
X39979Y43800D02*
X39979Y18800D01*
X37979Y43800D02*
X39979Y43800D01*
G54D16*
X36687Y47954D02*
X36631Y47936D01*
X36612Y47917D01*
X36593Y47879D01*
X36593Y47823D01*
X36612Y47786D01*
X36631Y47767D01*
X36668Y47748D01*
X36819Y47748D01*
X36819Y48142D01*
X36687Y48142D01*
X36650Y48123D01*
X36631Y48105D01*
X36612Y48067D01*
X36612Y48029D01*
X36631Y47992D01*
X36650Y47973D01*
X36687Y47954D01*
X36819Y47954D01*
X36425Y47954D02*
X36293Y47954D01*
X36237Y47748D02*
X36425Y47748D01*
X36425Y48142D01*
X36237Y48142D01*
X36068Y47748D02*
X36068Y48142D01*
X35974Y48142D01*
X35918Y48123D01*
X35880Y48086D01*
X35862Y48048D01*
X35843Y47973D01*
X35843Y47917D01*
X35862Y47842D01*
X35880Y47804D01*
X35918Y47767D01*
X35974Y47748D01*
X36068Y47748D01*
X35430Y48142D02*
X35205Y48142D01*
X35318Y47748D02*
X35318Y48142D01*
X35074Y47954D02*
X34942Y47954D01*
X34886Y47748D02*
X35074Y47748D01*
X35074Y48142D01*
X34886Y48142D01*
X34717Y47748D02*
X34717Y48142D01*
X34586Y47861D01*
X34454Y48142D01*
X34454Y47748D01*
X34267Y47748D02*
X34267Y48142D01*
X34117Y48142D01*
X34079Y48123D01*
X34060Y48105D01*
X34042Y48067D01*
X34042Y48011D01*
X34060Y47973D01*
X34079Y47954D01*
X34117Y47936D01*
X34267Y47936D01*
X32746Y47524D02*
X32689Y47506D01*
X32670Y47487D01*
X32652Y47449D01*
X32652Y47393D01*
X32670Y47356D01*
X32689Y47337D01*
X32727Y47318D01*
X32877Y47318D01*
X32877Y47712D01*
X32746Y47712D01*
X32708Y47693D01*
X32689Y47675D01*
X32670Y47637D01*
X32670Y47599D01*
X32689Y47562D01*
X32708Y47543D01*
X32746Y47524D01*
X32877Y47524D01*
X32483Y47524D02*
X32352Y47524D01*
X32295Y47318D02*
X32483Y47318D01*
X32483Y47712D01*
X32295Y47712D01*
X32126Y47318D02*
X32126Y47712D01*
X32033Y47712D01*
X31976Y47693D01*
X31939Y47656D01*
X31920Y47618D01*
X31901Y47543D01*
X31901Y47487D01*
X31920Y47412D01*
X31939Y47374D01*
X31976Y47337D01*
X32033Y47318D01*
X32126Y47318D01*
X31432Y47318D02*
X31432Y47712D01*
X31432Y47524D02*
X31207Y47524D01*
X31207Y47318D02*
X31207Y47712D01*
X31019Y47524D02*
X30888Y47524D01*
X30832Y47318D02*
X31019Y47318D01*
X31019Y47712D01*
X30832Y47712D01*
X30682Y47431D02*
X30494Y47431D01*
X30719Y47318D02*
X30588Y47712D01*
X30457Y47318D01*
X30382Y47712D02*
X30156Y47712D01*
X30269Y47318D02*
X30269Y47712D01*
X30025Y47524D02*
X29894Y47524D01*
X29837Y47318D02*
X30025Y47318D01*
X30025Y47712D01*
X29837Y47712D01*
X29443Y47318D02*
X29575Y47506D01*
X29669Y47318D02*
X29669Y47712D01*
X29518Y47712D01*
X29481Y47693D01*
X29462Y47675D01*
X29443Y47637D01*
X29443Y47581D01*
X29462Y47543D01*
X29481Y47524D01*
X29518Y47506D01*
X29669Y47506D01*
X32914Y46489D02*
X32783Y46095D01*
X32652Y46489D01*
X32520Y46095D02*
X32520Y46489D01*
X32333Y46095D02*
X32333Y46489D01*
X32108Y46095D01*
X32108Y46489D01*
X30475Y46489D02*
X30344Y46095D01*
X30213Y46489D01*
X30081Y46245D02*
X29781Y46245D01*
X20000Y47578D02*
X20000Y47972D01*
X19850Y47972D01*
X19812Y47953D01*
X19793Y47935D01*
X19775Y47897D01*
X19775Y47841D01*
X19793Y47803D01*
X19812Y47784D01*
X19850Y47766D01*
X20000Y47766D01*
X19531Y47972D02*
X19456Y47972D01*
X19418Y47953D01*
X19381Y47916D01*
X19362Y47841D01*
X19362Y47709D01*
X19381Y47634D01*
X19418Y47597D01*
X19456Y47578D01*
X19531Y47578D01*
X19568Y47597D01*
X19606Y47634D01*
X19625Y47709D01*
X19625Y47841D01*
X19606Y47916D01*
X19568Y47953D01*
X19531Y47972D01*
X19231Y47972D02*
X19137Y47578D01*
X19062Y47859D01*
X18987Y47578D01*
X18893Y47972D01*
X18743Y47784D02*
X18611Y47784D01*
X18555Y47578D02*
X18743Y47578D01*
X18743Y47972D01*
X18555Y47972D01*
X18161Y47578D02*
X18292Y47766D01*
X18386Y47578D02*
X18386Y47972D01*
X18236Y47972D01*
X18199Y47953D01*
X18180Y47935D01*
X18161Y47897D01*
X18161Y47841D01*
X18180Y47803D01*
X18199Y47784D01*
X18236Y47766D01*
X18386Y47766D01*
X17692Y47578D02*
X17692Y47972D01*
X17504Y47578D02*
X17504Y47972D01*
X17279Y47578D01*
X17279Y47972D01*
X20459Y46730D02*
X20497Y46749D01*
X20553Y46749D01*
X20610Y46730D01*
X20647Y46693D01*
X20666Y46655D01*
X20685Y46580D01*
X20685Y46524D01*
X20666Y46449D01*
X20647Y46411D01*
X20610Y46374D01*
X20553Y46355D01*
X20516Y46355D01*
X20459Y46374D01*
X20441Y46392D01*
X20441Y46524D01*
X20516Y46524D01*
X20272Y46355D02*
X20272Y46749D01*
X20047Y46355D01*
X20047Y46749D01*
X19859Y46355D02*
X19859Y46749D01*
X19765Y46749D01*
X19709Y46730D01*
X19671Y46693D01*
X19653Y46655D01*
X19634Y46580D01*
X19634Y46524D01*
X19653Y46449D01*
X19671Y46411D01*
X19709Y46374D01*
X19765Y46355D01*
X19859Y46355D01*
X17420Y46749D02*
X17289Y46355D01*
X17157Y46749D01*
X17026Y46355D02*
X17026Y46749D01*
X16838Y46355D02*
X16838Y46749D01*
X16613Y46355D01*
X16613Y46749D01*
G54D14*
X37416Y38075D02*
X37416Y38180D01*
X37251Y38225D02*
X37251Y38075D01*
X37566Y38075D01*
X37566Y38225D01*
X37566Y38330D02*
X37251Y38540D01*
X37566Y38540D02*
X37251Y38330D01*
X37251Y38660D02*
X37566Y38660D01*
X37566Y38780D01*
X37551Y38810D01*
X37536Y38825D01*
X37506Y38840D01*
X37461Y38840D01*
X37431Y38825D01*
X37416Y38810D01*
X37401Y38780D01*
X37401Y38660D01*
X37341Y38960D02*
X37341Y39110D01*
X37251Y38930D02*
X37566Y39035D01*
X37251Y39140D01*
X37251Y39245D02*
X37566Y39245D01*
X37251Y39425D01*
X37566Y39425D01*
X37266Y39560D02*
X37251Y39605D01*
X37251Y39680D01*
X37266Y39710D01*
X37281Y39725D01*
X37311Y39740D01*
X37341Y39740D01*
X37371Y39725D01*
X37386Y39710D01*
X37401Y39680D01*
X37416Y39620D01*
X37431Y39590D01*
X37446Y39575D01*
X37476Y39560D01*
X37506Y39560D01*
X37536Y39575D01*
X37551Y39590D01*
X37566Y39620D01*
X37566Y39695D01*
X37551Y39740D01*
X37251Y39875D02*
X37566Y39875D01*
X37566Y40085D02*
X37566Y40145D01*
X37551Y40175D01*
X37521Y40205D01*
X37461Y40220D01*
X37356Y40220D01*
X37296Y40205D01*
X37266Y40175D01*
X37251Y40145D01*
X37251Y40085D01*
X37266Y40055D01*
X37296Y40025D01*
X37356Y40010D01*
X37461Y40010D01*
X37521Y40025D01*
X37551Y40055D01*
X37566Y40085D01*
X37251Y40355D02*
X37566Y40355D01*
X37251Y40535D01*
X37566Y40535D01*
X37251Y40925D02*
X37566Y40925D01*
X37416Y40925D02*
X37416Y41105D01*
X37251Y41105D02*
X37566Y41105D01*
X37416Y41255D02*
X37416Y41360D01*
X37251Y41405D02*
X37251Y41255D01*
X37566Y41255D01*
X37566Y41405D01*
X37341Y41525D02*
X37341Y41675D01*
X37251Y41495D02*
X37566Y41600D01*
X37251Y41705D01*
X37251Y41810D02*
X37566Y41810D01*
X37566Y41885D01*
X37551Y41930D01*
X37521Y41960D01*
X37491Y41975D01*
X37431Y41990D01*
X37386Y41990D01*
X37326Y41975D01*
X37296Y41960D01*
X37266Y41930D01*
X37251Y41885D01*
X37251Y41810D01*
X37416Y42125D02*
X37416Y42230D01*
X37251Y42275D02*
X37251Y42125D01*
X37566Y42125D01*
X37566Y42275D01*
X37251Y42590D02*
X37401Y42485D01*
X37251Y42410D02*
X37566Y42410D01*
X37566Y42530D01*
X37551Y42560D01*
X37536Y42575D01*
X37506Y42590D01*
X37461Y42590D01*
X37431Y42575D01*
X37416Y42560D01*
X37401Y42530D01*
X37401Y42410D01*
X26699Y38937D02*
X26804Y38937D01*
X26804Y38772D02*
X26804Y39087D01*
X26654Y39087D01*
X26534Y39087D02*
X26534Y38832D01*
X26519Y38802D01*
X26504Y38787D01*
X26474Y38772D01*
X26414Y38772D01*
X26384Y38787D01*
X26369Y38802D01*
X26354Y38832D01*
X26354Y39087D01*
X26204Y38772D02*
X26204Y39087D01*
X26024Y38772D01*
X26024Y39087D01*
X25694Y38802D02*
X25709Y38787D01*
X25754Y38772D01*
X25784Y38772D01*
X25829Y38787D01*
X25859Y38817D01*
X25874Y38847D01*
X25889Y38907D01*
X25889Y38952D01*
X25874Y39012D01*
X25859Y39042D01*
X25829Y39072D01*
X25784Y39087D01*
X25754Y39087D01*
X25709Y39072D01*
X25694Y39057D01*
X25604Y39087D02*
X25424Y39087D01*
X25514Y38772D02*
X25514Y39087D01*
X25319Y38772D02*
X25319Y39087D01*
X25109Y39087D02*
X25049Y39087D01*
X25019Y39072D01*
X24989Y39042D01*
X24974Y38982D01*
X24974Y38877D01*
X24989Y38817D01*
X25019Y38787D01*
X25049Y38772D01*
X25109Y38772D01*
X25139Y38787D01*
X25169Y38817D01*
X25184Y38877D01*
X25184Y38982D01*
X25169Y39042D01*
X25139Y39072D01*
X25109Y39087D01*
X24839Y38772D02*
X24839Y39087D01*
X24659Y38772D01*
X24659Y39087D01*
X30899Y38937D02*
X31004Y38937D01*
X31004Y38772D02*
X31004Y39087D01*
X30854Y39087D01*
X30734Y39087D02*
X30734Y38832D01*
X30719Y38802D01*
X30704Y38787D01*
X30674Y38772D01*
X30614Y38772D01*
X30584Y38787D01*
X30569Y38802D01*
X30554Y38832D01*
X30554Y39087D01*
X30404Y38772D02*
X30404Y39087D01*
X30224Y38772D01*
X30224Y39087D01*
X29894Y38802D02*
X29909Y38787D01*
X29954Y38772D01*
X29984Y38772D01*
X30029Y38787D01*
X30059Y38817D01*
X30074Y38847D01*
X30089Y38907D01*
X30089Y38952D01*
X30074Y39012D01*
X30059Y39042D01*
X30029Y39072D01*
X29984Y39087D01*
X29954Y39087D01*
X29909Y39072D01*
X29894Y39057D01*
X29804Y39087D02*
X29624Y39087D01*
X29714Y38772D02*
X29714Y39087D01*
X29519Y38772D02*
X29519Y39087D01*
X29309Y39087D02*
X29249Y39087D01*
X29219Y39072D01*
X29189Y39042D01*
X29174Y38982D01*
X29174Y38877D01*
X29189Y38817D01*
X29219Y38787D01*
X29249Y38772D01*
X29309Y38772D01*
X29339Y38787D01*
X29369Y38817D01*
X29384Y38877D01*
X29384Y38982D01*
X29369Y39042D01*
X29339Y39072D01*
X29309Y39087D01*
X29039Y38772D02*
X29039Y39087D01*
X28859Y38772D01*
X28859Y39087D01*
X32401Y38772D02*
X32401Y39087D01*
X32281Y39087D01*
X32251Y39072D01*
X32236Y39057D01*
X32221Y39027D01*
X32221Y38982D01*
X32236Y38952D01*
X32251Y38937D01*
X32281Y38922D01*
X32401Y38922D01*
X32086Y38772D02*
X32086Y39087D01*
X31936Y38772D02*
X31936Y39087D01*
X31756Y38772D01*
X31756Y39087D01*
X27789Y37772D02*
X27969Y37772D01*
X27879Y37772D02*
X27879Y38087D01*
X27909Y38042D01*
X27939Y38012D01*
X27969Y37997D01*
X27984Y37087D02*
X27789Y37087D01*
X27894Y36967D01*
X27849Y36967D01*
X27819Y36952D01*
X27804Y36937D01*
X27789Y36907D01*
X27789Y36832D01*
X27804Y36802D01*
X27819Y36787D01*
X27849Y36772D01*
X27939Y36772D01*
X27969Y36787D01*
X27984Y36802D01*
X27804Y36087D02*
X27954Y36087D01*
X27969Y35937D01*
X27954Y35952D01*
X27924Y35967D01*
X27849Y35967D01*
X27819Y35952D01*
X27804Y35937D01*
X27789Y35907D01*
X27789Y35832D01*
X27804Y35802D01*
X27819Y35787D01*
X27849Y35772D01*
X27924Y35772D01*
X27954Y35787D01*
X27969Y35802D01*
X27984Y35087D02*
X27774Y35087D01*
X27909Y34772D01*
X27939Y33772D02*
X27879Y33772D01*
X27849Y33787D01*
X27834Y33802D01*
X27804Y33847D01*
X27789Y33907D01*
X27789Y34027D01*
X27804Y34057D01*
X27819Y34072D01*
X27849Y34087D01*
X27909Y34087D01*
X27939Y34072D01*
X27954Y34057D01*
X27969Y34027D01*
X27969Y33952D01*
X27954Y33922D01*
X27939Y33907D01*
X27909Y33892D01*
X27849Y33892D01*
X27819Y33907D01*
X27804Y33922D01*
X27789Y33952D01*
X27939Y32772D02*
X28119Y32772D01*
X28029Y32772D02*
X28029Y33087D01*
X28059Y33042D01*
X28089Y33012D01*
X28119Y32997D01*
X27639Y32772D02*
X27819Y32772D01*
X27729Y32772D02*
X27729Y33087D01*
X27759Y33042D01*
X27789Y33012D01*
X27819Y32997D01*
X27939Y31772D02*
X28119Y31772D01*
X28029Y31772D02*
X28029Y32087D01*
X28059Y32042D01*
X28089Y32012D01*
X28119Y31997D01*
X27834Y32087D02*
X27639Y32087D01*
X27744Y31967D01*
X27699Y31967D01*
X27669Y31952D01*
X27654Y31937D01*
X27639Y31907D01*
X27639Y31832D01*
X27654Y31802D01*
X27669Y31787D01*
X27699Y31772D01*
X27789Y31772D01*
X27819Y31787D01*
X27834Y31802D01*
X27939Y30772D02*
X28119Y30772D01*
X28029Y30772D02*
X28029Y31087D01*
X28059Y31042D01*
X28089Y31012D01*
X28119Y30997D01*
X27654Y31087D02*
X27804Y31087D01*
X27819Y30937D01*
X27804Y30952D01*
X27774Y30967D01*
X27699Y30967D01*
X27669Y30952D01*
X27654Y30937D01*
X27639Y30907D01*
X27639Y30832D01*
X27654Y30802D01*
X27669Y30787D01*
X27699Y30772D01*
X27774Y30772D01*
X27804Y30787D01*
X27819Y30802D01*
X27939Y29772D02*
X28119Y29772D01*
X28029Y29772D02*
X28029Y30087D01*
X28059Y30042D01*
X28089Y30012D01*
X28119Y29997D01*
X27834Y30087D02*
X27624Y30087D01*
X27759Y29772D01*
X27939Y28772D02*
X28119Y28772D01*
X28029Y28772D02*
X28029Y29087D01*
X28059Y29042D01*
X28089Y29012D01*
X28119Y28997D01*
X27789Y28772D02*
X27729Y28772D01*
X27699Y28787D01*
X27684Y28802D01*
X27654Y28847D01*
X27639Y28907D01*
X27639Y29027D01*
X27654Y29057D01*
X27669Y29072D01*
X27699Y29087D01*
X27759Y29087D01*
X27789Y29072D01*
X27804Y29057D01*
X27819Y29027D01*
X27819Y28952D01*
X27804Y28922D01*
X27789Y28907D01*
X27759Y28892D01*
X27699Y28892D01*
X27669Y28907D01*
X27654Y28922D01*
X27639Y28952D01*
X28119Y28057D02*
X28104Y28072D01*
X28074Y28087D01*
X27999Y28087D01*
X27969Y28072D01*
X27954Y28057D01*
X27939Y28027D01*
X27939Y27997D01*
X27954Y27952D01*
X28134Y27772D01*
X27939Y27772D01*
X27639Y27772D02*
X27819Y27772D01*
X27729Y27772D02*
X27729Y28087D01*
X27759Y28042D01*
X27789Y28012D01*
X27819Y27997D01*
X28119Y27057D02*
X28104Y27072D01*
X28074Y27087D01*
X27999Y27087D01*
X27969Y27072D01*
X27954Y27057D01*
X27939Y27027D01*
X27939Y26997D01*
X27954Y26952D01*
X28134Y26772D01*
X27939Y26772D01*
X27834Y27087D02*
X27639Y27087D01*
X27744Y26967D01*
X27699Y26967D01*
X27669Y26952D01*
X27654Y26937D01*
X27639Y26907D01*
X27639Y26832D01*
X27654Y26802D01*
X27669Y26787D01*
X27699Y26772D01*
X27789Y26772D01*
X27819Y26787D01*
X27834Y26802D01*
X28119Y26057D02*
X28104Y26072D01*
X28074Y26087D01*
X27999Y26087D01*
X27969Y26072D01*
X27954Y26057D01*
X27939Y26027D01*
X27939Y25997D01*
X27954Y25952D01*
X28134Y25772D01*
X27939Y25772D01*
X27654Y26087D02*
X27804Y26087D01*
X27819Y25937D01*
X27804Y25952D01*
X27774Y25967D01*
X27699Y25967D01*
X27669Y25952D01*
X27654Y25937D01*
X27639Y25907D01*
X27639Y25832D01*
X27654Y25802D01*
X27669Y25787D01*
X27699Y25772D01*
X27774Y25772D01*
X27804Y25787D01*
X27819Y25802D01*
X28119Y25057D02*
X28104Y25072D01*
X28074Y25087D01*
X27999Y25087D01*
X27969Y25072D01*
X27954Y25057D01*
X27939Y25027D01*
X27939Y24997D01*
X27954Y24952D01*
X28134Y24772D01*
X27939Y24772D01*
X27834Y25087D02*
X27624Y25087D01*
X27759Y24772D01*
X28119Y24057D02*
X28104Y24072D01*
X28074Y24087D01*
X27999Y24087D01*
X27969Y24072D01*
X27954Y24057D01*
X27939Y24027D01*
X27939Y23997D01*
X27954Y23952D01*
X28134Y23772D01*
X27939Y23772D01*
X27789Y23772D02*
X27729Y23772D01*
X27699Y23787D01*
X27684Y23802D01*
X27654Y23847D01*
X27639Y23907D01*
X27639Y24027D01*
X27654Y24057D01*
X27669Y24072D01*
X27699Y24087D01*
X27759Y24087D01*
X27789Y24072D01*
X27804Y24057D01*
X27819Y24027D01*
X27819Y23952D01*
X27804Y23922D01*
X27789Y23907D01*
X27759Y23892D01*
X27699Y23892D01*
X27669Y23907D01*
X27654Y23922D01*
X27639Y23952D01*
X28134Y23087D02*
X27939Y23087D01*
X28044Y22967D01*
X27999Y22967D01*
X27969Y22952D01*
X27954Y22937D01*
X27939Y22907D01*
X27939Y22832D01*
X27954Y22802D01*
X27969Y22787D01*
X27999Y22772D01*
X28089Y22772D01*
X28119Y22787D01*
X28134Y22802D01*
X27639Y22772D02*
X27819Y22772D01*
X27729Y22772D02*
X27729Y23087D01*
X27759Y23042D01*
X27789Y23012D01*
X27819Y22997D01*
X28134Y22087D02*
X27939Y22087D01*
X28044Y21967D01*
X27999Y21967D01*
X27969Y21952D01*
X27954Y21937D01*
X27939Y21907D01*
X27939Y21832D01*
X27954Y21802D01*
X27969Y21787D01*
X27999Y21772D01*
X28089Y21772D01*
X28119Y21787D01*
X28134Y21802D01*
X27834Y22087D02*
X27639Y22087D01*
X27744Y21967D01*
X27699Y21967D01*
X27669Y21952D01*
X27654Y21937D01*
X27639Y21907D01*
X27639Y21832D01*
X27654Y21802D01*
X27669Y21787D01*
X27699Y21772D01*
X27789Y21772D01*
X27819Y21787D01*
X27834Y21802D01*
X28134Y21087D02*
X27939Y21087D01*
X28044Y20967D01*
X27999Y20967D01*
X27969Y20952D01*
X27954Y20937D01*
X27939Y20907D01*
X27939Y20832D01*
X27954Y20802D01*
X27969Y20787D01*
X27999Y20772D01*
X28089Y20772D01*
X28119Y20787D01*
X28134Y20802D01*
X27654Y21087D02*
X27804Y21087D01*
X27819Y20937D01*
X27804Y20952D01*
X27774Y20967D01*
X27699Y20967D01*
X27669Y20952D01*
X27654Y20937D01*
X27639Y20907D01*
X27639Y20832D01*
X27654Y20802D01*
X27669Y20787D01*
X27699Y20772D01*
X27774Y20772D01*
X27804Y20787D01*
X27819Y20802D01*
X28134Y20087D02*
X27939Y20087D01*
X28044Y19967D01*
X27999Y19967D01*
X27969Y19952D01*
X27954Y19937D01*
X27939Y19907D01*
X27939Y19832D01*
X27954Y19802D01*
X27969Y19787D01*
X27999Y19772D01*
X28089Y19772D01*
X28119Y19787D01*
X28134Y19802D01*
X27834Y20087D02*
X27624Y20087D01*
X27759Y19772D01*
X28134Y19087D02*
X27939Y19087D01*
X28044Y18967D01*
X27999Y18967D01*
X27969Y18952D01*
X27954Y18937D01*
X27939Y18907D01*
X27939Y18832D01*
X27954Y18802D01*
X27969Y18787D01*
X27999Y18772D01*
X28089Y18772D01*
X28119Y18787D01*
X28134Y18802D01*
X27789Y18772D02*
X27729Y18772D01*
X27699Y18787D01*
X27684Y18802D01*
X27654Y18847D01*
X27639Y18907D01*
X27639Y19027D01*
X27654Y19057D01*
X27669Y19072D01*
X27699Y19087D01*
X27759Y19087D01*
X27789Y19072D01*
X27804Y19057D01*
X27819Y19027D01*
X27819Y18952D01*
X27804Y18922D01*
X27789Y18907D01*
X27759Y18892D01*
X27699Y18892D01*
X27669Y18907D01*
X27654Y18922D01*
X27639Y18952D01*
X27969Y17982D02*
X27969Y17772D01*
X28044Y18102D02*
X28119Y17877D01*
X27924Y17877D01*
X27639Y17772D02*
X27819Y17772D01*
X27729Y17772D02*
X27729Y18087D01*
X27759Y18042D01*
X27789Y18012D01*
X27819Y17997D01*
X27969Y16982D02*
X27969Y16772D01*
X28044Y17102D02*
X28119Y16877D01*
X27924Y16877D01*
X27834Y17087D02*
X27639Y17087D01*
X27744Y16967D01*
X27699Y16967D01*
X27669Y16952D01*
X27654Y16937D01*
X27639Y16907D01*
X27639Y16832D01*
X27654Y16802D01*
X27669Y16787D01*
X27699Y16772D01*
X27789Y16772D01*
X27819Y16787D01*
X27834Y16802D01*
X27969Y15982D02*
X27969Y15772D01*
X28044Y16102D02*
X28119Y15877D01*
X27924Y15877D01*
X27654Y16087D02*
X27804Y16087D01*
X27819Y15937D01*
X27804Y15952D01*
X27774Y15967D01*
X27699Y15967D01*
X27669Y15952D01*
X27654Y15937D01*
X27639Y15907D01*
X27639Y15832D01*
X27654Y15802D01*
X27669Y15787D01*
X27699Y15772D01*
X27774Y15772D01*
X27804Y15787D01*
X27819Y15802D01*
X27969Y14982D02*
X27969Y14772D01*
X28044Y15102D02*
X28119Y14877D01*
X27924Y14877D01*
X27834Y15087D02*
X27624Y15087D01*
X27759Y14772D01*
X27969Y13982D02*
X27969Y13772D01*
X28044Y14102D02*
X28119Y13877D01*
X27924Y13877D01*
X27789Y13772D02*
X27729Y13772D01*
X27699Y13787D01*
X27684Y13802D01*
X27654Y13847D01*
X27639Y13907D01*
X27639Y14027D01*
X27654Y14057D01*
X27669Y14072D01*
X27699Y14087D01*
X27759Y14087D01*
X27789Y14072D01*
X27804Y14057D01*
X27819Y14027D01*
X27819Y13952D01*
X27804Y13922D01*
X27789Y13907D01*
X27759Y13892D01*
X27699Y13892D01*
X27669Y13907D01*
X27654Y13922D01*
X27639Y13952D01*
X27104Y37892D02*
X26864Y37892D01*
X26984Y37772D02*
X26984Y38012D01*
X26564Y38087D02*
X26714Y38087D01*
X26729Y37937D01*
X26714Y37952D01*
X26684Y37967D01*
X26609Y37967D01*
X26579Y37952D01*
X26564Y37937D01*
X26549Y37907D01*
X26549Y37832D01*
X26564Y37802D01*
X26579Y37787D01*
X26609Y37772D01*
X26684Y37772D01*
X26714Y37787D01*
X26729Y37802D01*
X26459Y38087D02*
X26354Y37772D01*
X26249Y38087D01*
X27104Y36892D02*
X26864Y36892D01*
X26984Y36772D02*
X26984Y37012D01*
X26744Y37087D02*
X26549Y37087D01*
X26654Y36967D01*
X26609Y36967D01*
X26579Y36952D01*
X26564Y36937D01*
X26549Y36907D01*
X26549Y36832D01*
X26564Y36802D01*
X26579Y36787D01*
X26609Y36772D01*
X26699Y36772D01*
X26729Y36787D01*
X26744Y36802D01*
X26414Y36802D02*
X26399Y36787D01*
X26414Y36772D01*
X26429Y36787D01*
X26414Y36802D01*
X26414Y36772D01*
X26294Y37087D02*
X26099Y37087D01*
X26204Y36967D01*
X26159Y36967D01*
X26129Y36952D01*
X26114Y36937D01*
X26099Y36907D01*
X26099Y36832D01*
X26114Y36802D01*
X26129Y36787D01*
X26159Y36772D01*
X26249Y36772D01*
X26279Y36787D01*
X26294Y36802D01*
X26009Y37087D02*
X25904Y36772D01*
X25799Y37087D01*
X27149Y36087D02*
X26969Y36087D01*
X27059Y35772D02*
X27059Y36087D01*
X26894Y36087D02*
X26819Y35772D01*
X26759Y35997D01*
X26699Y35772D01*
X26624Y36087D01*
X26504Y35772D02*
X26504Y36087D01*
X26429Y36087D01*
X26384Y36072D01*
X26354Y36042D01*
X26339Y36012D01*
X26324Y35952D01*
X26324Y35907D01*
X26339Y35847D01*
X26354Y35817D01*
X26384Y35787D01*
X26429Y35772D01*
X26504Y35772D01*
X26129Y36087D02*
X26099Y36087D01*
X26069Y36072D01*
X26054Y36057D01*
X26039Y36027D01*
X26024Y35967D01*
X26024Y35892D01*
X26039Y35832D01*
X26054Y35802D01*
X26069Y35787D01*
X26099Y35772D01*
X26129Y35772D01*
X26159Y35787D01*
X26174Y35802D01*
X26189Y35832D01*
X26204Y35892D01*
X26204Y35967D01*
X26189Y36027D01*
X26174Y36057D01*
X26159Y36072D01*
X26129Y36087D01*
X27104Y35087D02*
X27104Y34832D01*
X27089Y34802D01*
X27074Y34787D01*
X27044Y34772D01*
X26984Y34772D01*
X26954Y34787D01*
X26939Y34802D01*
X26924Y34832D01*
X26924Y35087D01*
X26594Y34772D02*
X26699Y34922D01*
X26774Y34772D02*
X26774Y35087D01*
X26654Y35087D01*
X26624Y35072D01*
X26609Y35057D01*
X26594Y35027D01*
X26594Y34982D01*
X26609Y34952D01*
X26624Y34937D01*
X26654Y34922D01*
X26774Y34922D01*
X26489Y35087D02*
X26279Y34772D01*
X26279Y35087D02*
X26489Y34772D01*
X26159Y34772D02*
X26159Y35087D01*
X26084Y35087D01*
X26039Y35072D01*
X26009Y35042D01*
X25994Y35012D01*
X25979Y34952D01*
X25979Y34907D01*
X25994Y34847D01*
X26009Y34817D01*
X26039Y34787D01*
X26084Y34772D01*
X26159Y34772D01*
X27104Y33772D02*
X27104Y34087D01*
X26984Y34087D01*
X26954Y34072D01*
X26939Y34057D01*
X26924Y34027D01*
X26924Y33982D01*
X26939Y33952D01*
X26954Y33937D01*
X26984Y33922D01*
X27104Y33922D01*
X26804Y33862D02*
X26654Y33862D01*
X26834Y33772D02*
X26729Y34087D01*
X26624Y33772D01*
X26354Y33772D02*
X26534Y33772D01*
X26444Y33772D02*
X26444Y34087D01*
X26474Y34042D01*
X26504Y34012D01*
X26534Y33997D01*
X26069Y34087D02*
X26219Y34087D01*
X26234Y33937D01*
X26219Y33952D01*
X26189Y33967D01*
X26114Y33967D01*
X26084Y33952D01*
X26069Y33937D01*
X26054Y33907D01*
X26054Y33832D01*
X26069Y33802D01*
X26084Y33787D01*
X26114Y33772D01*
X26189Y33772D01*
X26219Y33787D01*
X26234Y33802D01*
X27149Y33087D02*
X26969Y33087D01*
X27059Y32772D02*
X27059Y33087D01*
X26894Y33087D02*
X26684Y32772D01*
X26684Y33087D02*
X26894Y32772D01*
X26564Y32772D02*
X26564Y33087D01*
X26489Y33087D01*
X26444Y33072D01*
X26414Y33042D01*
X26399Y33012D01*
X26384Y32952D01*
X26384Y32907D01*
X26399Y32847D01*
X26414Y32817D01*
X26444Y32787D01*
X26489Y32772D01*
X26564Y32772D01*
X26084Y32772D02*
X26264Y32772D01*
X26174Y32772D02*
X26174Y33087D01*
X26204Y33042D01*
X26234Y33012D01*
X26264Y32997D01*
X27149Y32087D02*
X26969Y32087D01*
X27059Y31772D02*
X27059Y32087D01*
X26894Y32087D02*
X26684Y31772D01*
X26684Y32087D02*
X26894Y31772D01*
X26564Y31772D02*
X26564Y32087D01*
X26489Y32087D01*
X26444Y32072D01*
X26414Y32042D01*
X26399Y32012D01*
X26384Y31952D01*
X26384Y31907D01*
X26399Y31847D01*
X26414Y31817D01*
X26444Y31787D01*
X26489Y31772D01*
X26564Y31772D01*
X26189Y32087D02*
X26159Y32087D01*
X26129Y32072D01*
X26114Y32057D01*
X26099Y32027D01*
X26084Y31967D01*
X26084Y31892D01*
X26099Y31832D01*
X26114Y31802D01*
X26129Y31787D01*
X26159Y31772D01*
X26189Y31772D01*
X26219Y31787D01*
X26234Y31802D01*
X26249Y31832D01*
X26264Y31892D01*
X26264Y31967D01*
X26249Y32027D01*
X26234Y32057D01*
X26219Y32072D01*
X26189Y32087D01*
X27104Y30772D02*
X27104Y31087D01*
X26984Y31087D01*
X26954Y31072D01*
X26939Y31057D01*
X26924Y31027D01*
X26924Y30982D01*
X26939Y30952D01*
X26954Y30937D01*
X26984Y30922D01*
X27104Y30922D01*
X26609Y30802D02*
X26624Y30787D01*
X26669Y30772D01*
X26699Y30772D01*
X26744Y30787D01*
X26774Y30817D01*
X26789Y30847D01*
X26804Y30907D01*
X26804Y30952D01*
X26789Y31012D01*
X26774Y31042D01*
X26744Y31072D01*
X26699Y31087D01*
X26669Y31087D01*
X26624Y31072D01*
X26609Y31057D01*
X26459Y30772D02*
X26399Y30772D01*
X26369Y30787D01*
X26354Y30802D01*
X26324Y30847D01*
X26309Y30907D01*
X26309Y31027D01*
X26324Y31057D01*
X26339Y31072D01*
X26369Y31087D01*
X26429Y31087D01*
X26459Y31072D01*
X26474Y31057D01*
X26489Y31027D01*
X26489Y30952D01*
X26474Y30922D01*
X26459Y30907D01*
X26429Y30892D01*
X26369Y30892D01*
X26339Y30907D01*
X26324Y30922D01*
X26309Y30952D01*
X27104Y29772D02*
X27104Y30087D01*
X26984Y30087D01*
X26954Y30072D01*
X26939Y30057D01*
X26924Y30027D01*
X26924Y29982D01*
X26939Y29952D01*
X26954Y29937D01*
X26984Y29922D01*
X27104Y29922D01*
X26609Y29802D02*
X26624Y29787D01*
X26669Y29772D01*
X26699Y29772D01*
X26744Y29787D01*
X26774Y29817D01*
X26789Y29847D01*
X26804Y29907D01*
X26804Y29952D01*
X26789Y30012D01*
X26774Y30042D01*
X26744Y30072D01*
X26699Y30087D01*
X26669Y30087D01*
X26624Y30072D01*
X26609Y30057D01*
X26324Y30087D02*
X26474Y30087D01*
X26489Y29937D01*
X26474Y29952D01*
X26444Y29967D01*
X26369Y29967D01*
X26339Y29952D01*
X26324Y29937D01*
X26309Y29907D01*
X26309Y29832D01*
X26324Y29802D01*
X26339Y29787D01*
X26369Y29772D01*
X26444Y29772D01*
X26474Y29787D01*
X26489Y29802D01*
X27104Y28772D02*
X27104Y29087D01*
X26984Y29087D01*
X26954Y29072D01*
X26939Y29057D01*
X26924Y29027D01*
X26924Y28982D01*
X26939Y28952D01*
X26954Y28937D01*
X26984Y28922D01*
X27104Y28922D01*
X26609Y28802D02*
X26624Y28787D01*
X26669Y28772D01*
X26699Y28772D01*
X26744Y28787D01*
X26774Y28817D01*
X26789Y28847D01*
X26804Y28907D01*
X26804Y28952D01*
X26789Y29012D01*
X26774Y29042D01*
X26744Y29072D01*
X26699Y29087D01*
X26669Y29087D01*
X26624Y29072D01*
X26609Y29057D01*
X26504Y29087D02*
X26294Y29087D01*
X26429Y28772D01*
X27104Y27772D02*
X27104Y28087D01*
X26984Y28087D01*
X26954Y28072D01*
X26939Y28057D01*
X26924Y28027D01*
X26924Y27982D01*
X26939Y27952D01*
X26954Y27937D01*
X26984Y27922D01*
X27104Y27922D01*
X26609Y27802D02*
X26624Y27787D01*
X26669Y27772D01*
X26699Y27772D01*
X26744Y27787D01*
X26774Y27817D01*
X26789Y27847D01*
X26804Y27907D01*
X26804Y27952D01*
X26789Y28012D01*
X26774Y28042D01*
X26744Y28072D01*
X26699Y28087D01*
X26669Y28087D01*
X26624Y28072D01*
X26609Y28057D01*
X26489Y28057D02*
X26474Y28072D01*
X26444Y28087D01*
X26369Y28087D01*
X26339Y28072D01*
X26324Y28057D01*
X26309Y28027D01*
X26309Y27997D01*
X26324Y27952D01*
X26504Y27772D01*
X26309Y27772D01*
X26204Y28087D02*
X26009Y28087D01*
X26114Y27967D01*
X26069Y27967D01*
X26039Y27952D01*
X26024Y27937D01*
X26009Y27907D01*
X26009Y27832D01*
X26024Y27802D01*
X26039Y27787D01*
X26069Y27772D01*
X26159Y27772D01*
X26189Y27787D01*
X26204Y27802D01*
X27104Y26772D02*
X27104Y27087D01*
X26984Y27087D01*
X26954Y27072D01*
X26939Y27057D01*
X26924Y27027D01*
X26924Y26982D01*
X26939Y26952D01*
X26954Y26937D01*
X26984Y26922D01*
X27104Y26922D01*
X26609Y26802D02*
X26624Y26787D01*
X26669Y26772D01*
X26699Y26772D01*
X26744Y26787D01*
X26774Y26817D01*
X26789Y26847D01*
X26804Y26907D01*
X26804Y26952D01*
X26789Y27012D01*
X26774Y27042D01*
X26744Y27072D01*
X26699Y27087D01*
X26669Y27087D01*
X26624Y27072D01*
X26609Y27057D01*
X26489Y27057D02*
X26474Y27072D01*
X26444Y27087D01*
X26369Y27087D01*
X26339Y27072D01*
X26324Y27057D01*
X26309Y27027D01*
X26309Y26997D01*
X26324Y26952D01*
X26504Y26772D01*
X26309Y26772D01*
X26009Y26772D02*
X26189Y26772D01*
X26099Y26772D02*
X26099Y27087D01*
X26129Y27042D01*
X26159Y27012D01*
X26189Y26997D01*
X27104Y25772D02*
X27104Y26087D01*
X26984Y26087D01*
X26954Y26072D01*
X26939Y26057D01*
X26924Y26027D01*
X26924Y25982D01*
X26939Y25952D01*
X26954Y25937D01*
X26984Y25922D01*
X27104Y25922D01*
X26609Y25802D02*
X26624Y25787D01*
X26669Y25772D01*
X26699Y25772D01*
X26744Y25787D01*
X26774Y25817D01*
X26789Y25847D01*
X26804Y25907D01*
X26804Y25952D01*
X26789Y26012D01*
X26774Y26042D01*
X26744Y26072D01*
X26699Y26087D01*
X26669Y26087D01*
X26624Y26072D01*
X26609Y26057D01*
X26339Y25982D02*
X26339Y25772D01*
X26414Y26102D02*
X26489Y25877D01*
X26294Y25877D01*
X27104Y24772D02*
X27104Y25087D01*
X26924Y24772D01*
X26924Y25087D01*
X26774Y24772D02*
X26774Y25087D01*
X26654Y25087D01*
X26624Y25072D01*
X26609Y25057D01*
X26594Y25027D01*
X26594Y24982D01*
X26609Y24952D01*
X26624Y24937D01*
X26654Y24922D01*
X26774Y24922D01*
X26279Y24802D02*
X26294Y24787D01*
X26339Y24772D01*
X26369Y24772D01*
X26414Y24787D01*
X26444Y24817D01*
X26459Y24847D01*
X26474Y24907D01*
X26474Y24952D01*
X26459Y25012D01*
X26444Y25042D01*
X26414Y25072D01*
X26369Y25087D01*
X26339Y25087D01*
X26294Y25072D01*
X26279Y25057D01*
X26159Y24787D02*
X26114Y24772D01*
X26039Y24772D01*
X26009Y24787D01*
X25994Y24802D01*
X25979Y24832D01*
X25979Y24862D01*
X25994Y24892D01*
X26009Y24907D01*
X26039Y24922D01*
X26099Y24937D01*
X26129Y24952D01*
X26144Y24967D01*
X26159Y24997D01*
X26159Y25027D01*
X26144Y25057D01*
X26129Y25072D01*
X26099Y25087D01*
X26024Y25087D01*
X25979Y25072D01*
X25784Y25087D02*
X25754Y25087D01*
X25724Y25072D01*
X25709Y25057D01*
X25694Y25027D01*
X25679Y24967D01*
X25679Y24892D01*
X25694Y24832D01*
X25709Y24802D01*
X25724Y24787D01*
X25754Y24772D01*
X25784Y24772D01*
X25814Y24787D01*
X25829Y24802D01*
X25844Y24832D01*
X25859Y24892D01*
X25859Y24967D01*
X25844Y25027D01*
X25829Y25057D01*
X25814Y25072D01*
X25784Y25087D01*
X27104Y23772D02*
X27104Y24087D01*
X26999Y23862D01*
X26894Y24087D01*
X26894Y23772D01*
X26684Y24087D02*
X26624Y24087D01*
X26594Y24072D01*
X26564Y24042D01*
X26549Y23982D01*
X26549Y23877D01*
X26564Y23817D01*
X26594Y23787D01*
X26624Y23772D01*
X26684Y23772D01*
X26714Y23787D01*
X26744Y23817D01*
X26759Y23877D01*
X26759Y23982D01*
X26744Y24042D01*
X26714Y24072D01*
X26684Y24087D01*
X26429Y23787D02*
X26384Y23772D01*
X26309Y23772D01*
X26279Y23787D01*
X26264Y23802D01*
X26249Y23832D01*
X26249Y23862D01*
X26264Y23892D01*
X26279Y23907D01*
X26309Y23922D01*
X26369Y23937D01*
X26399Y23952D01*
X26414Y23967D01*
X26429Y23997D01*
X26429Y24027D01*
X26414Y24057D01*
X26399Y24072D01*
X26369Y24087D01*
X26294Y24087D01*
X26249Y24072D01*
X26114Y23772D02*
X26114Y24087D01*
X25904Y24087D02*
X25874Y24087D01*
X25844Y24072D01*
X25829Y24057D01*
X25814Y24027D01*
X25799Y23967D01*
X25799Y23892D01*
X25814Y23832D01*
X25829Y23802D01*
X25844Y23787D01*
X25874Y23772D01*
X25904Y23772D01*
X25934Y23787D01*
X25949Y23802D01*
X25964Y23832D01*
X25979Y23892D01*
X25979Y23967D01*
X25964Y24027D01*
X25949Y24057D01*
X25934Y24072D01*
X25904Y24087D01*
X27104Y22772D02*
X27104Y23087D01*
X26984Y23087D01*
X26954Y23072D01*
X26939Y23057D01*
X26924Y23027D01*
X26924Y22982D01*
X26939Y22952D01*
X26954Y22937D01*
X26984Y22922D01*
X27104Y22922D01*
X26684Y22937D02*
X26639Y22922D01*
X26624Y22907D01*
X26609Y22877D01*
X26609Y22832D01*
X26624Y22802D01*
X26639Y22787D01*
X26669Y22772D01*
X26789Y22772D01*
X26789Y23087D01*
X26684Y23087D01*
X26654Y23072D01*
X26639Y23057D01*
X26624Y23027D01*
X26624Y22997D01*
X26639Y22967D01*
X26654Y22952D01*
X26684Y22937D01*
X26789Y22937D01*
X26309Y22772D02*
X26489Y22772D01*
X26399Y22772D02*
X26399Y23087D01*
X26429Y23042D01*
X26459Y23012D01*
X26489Y22997D01*
X26024Y23087D02*
X26174Y23087D01*
X26189Y22937D01*
X26174Y22952D01*
X26144Y22967D01*
X26069Y22967D01*
X26039Y22952D01*
X26024Y22937D01*
X26009Y22907D01*
X26009Y22832D01*
X26024Y22802D01*
X26039Y22787D01*
X26069Y22772D01*
X26144Y22772D01*
X26174Y22787D01*
X26189Y22802D01*
X27119Y21862D02*
X26969Y21862D01*
X27149Y21772D02*
X27044Y22087D01*
X26939Y21772D01*
X26834Y21772D02*
X26834Y22087D01*
X26759Y22087D01*
X26714Y22072D01*
X26684Y22042D01*
X26669Y22012D01*
X26654Y21952D01*
X26654Y21907D01*
X26669Y21847D01*
X26684Y21817D01*
X26714Y21787D01*
X26759Y21772D01*
X26834Y21772D01*
X26549Y22087D02*
X26339Y22087D01*
X26474Y21772D01*
X27149Y21087D02*
X26969Y21087D01*
X27059Y20772D02*
X27059Y21087D01*
X26894Y21087D02*
X26819Y20772D01*
X26759Y20997D01*
X26699Y20772D01*
X26624Y21087D01*
X26504Y20772D02*
X26504Y21087D01*
X26429Y21087D01*
X26384Y21072D01*
X26354Y21042D01*
X26339Y21012D01*
X26324Y20952D01*
X26324Y20907D01*
X26339Y20847D01*
X26354Y20817D01*
X26384Y20787D01*
X26429Y20772D01*
X26504Y20772D01*
X26024Y20772D02*
X26204Y20772D01*
X26114Y20772D02*
X26114Y21087D01*
X26144Y21042D01*
X26174Y21012D01*
X26204Y20997D01*
X27119Y19862D02*
X26969Y19862D01*
X27149Y19772D02*
X27044Y20087D01*
X26939Y19772D01*
X26834Y19772D02*
X26834Y20087D01*
X26759Y20087D01*
X26714Y20072D01*
X26684Y20042D01*
X26669Y20012D01*
X26654Y19952D01*
X26654Y19907D01*
X26669Y19847D01*
X26684Y19817D01*
X26714Y19787D01*
X26759Y19772D01*
X26834Y19772D01*
X26354Y19772D02*
X26534Y19772D01*
X26444Y19772D02*
X26444Y20087D01*
X26474Y20042D01*
X26504Y20012D01*
X26534Y19997D01*
X26159Y20087D02*
X26129Y20087D01*
X26099Y20072D01*
X26084Y20057D01*
X26069Y20027D01*
X26054Y19967D01*
X26054Y19892D01*
X26069Y19832D01*
X26084Y19802D01*
X26099Y19787D01*
X26129Y19772D01*
X26159Y19772D01*
X26189Y19787D01*
X26204Y19802D01*
X26219Y19832D01*
X26234Y19892D01*
X26234Y19967D01*
X26219Y20027D01*
X26204Y20057D01*
X26189Y20072D01*
X26159Y20087D01*
X27119Y18862D02*
X26969Y18862D01*
X27149Y18772D02*
X27044Y19087D01*
X26939Y18772D01*
X26834Y18772D02*
X26834Y19087D01*
X26759Y19087D01*
X26714Y19072D01*
X26684Y19042D01*
X26669Y19012D01*
X26654Y18952D01*
X26654Y18907D01*
X26669Y18847D01*
X26684Y18817D01*
X26714Y18787D01*
X26759Y18772D01*
X26834Y18772D01*
X26354Y18772D02*
X26534Y18772D01*
X26444Y18772D02*
X26444Y19087D01*
X26474Y19042D01*
X26504Y19012D01*
X26534Y18997D01*
X26234Y19057D02*
X26219Y19072D01*
X26189Y19087D01*
X26114Y19087D01*
X26084Y19072D01*
X26069Y19057D01*
X26054Y19027D01*
X26054Y18997D01*
X26069Y18952D01*
X26249Y18772D01*
X26054Y18772D01*
X27119Y17862D02*
X26969Y17862D01*
X27149Y17772D02*
X27044Y18087D01*
X26939Y17772D01*
X26834Y17772D02*
X26834Y18087D01*
X26759Y18087D01*
X26714Y18072D01*
X26684Y18042D01*
X26669Y18012D01*
X26654Y17952D01*
X26654Y17907D01*
X26669Y17847D01*
X26684Y17817D01*
X26714Y17787D01*
X26759Y17772D01*
X26834Y17772D01*
X26354Y17772D02*
X26534Y17772D01*
X26444Y17772D02*
X26444Y18087D01*
X26474Y18042D01*
X26504Y18012D01*
X26534Y17997D01*
X26084Y17982D02*
X26084Y17772D01*
X26159Y18102D02*
X26234Y17877D01*
X26039Y17877D01*
X27104Y16772D02*
X27104Y17087D01*
X26984Y17087D01*
X26954Y17072D01*
X26939Y17057D01*
X26924Y17027D01*
X26924Y16982D01*
X26939Y16952D01*
X26954Y16937D01*
X26984Y16922D01*
X27104Y16922D01*
X26609Y16802D02*
X26624Y16787D01*
X26669Y16772D01*
X26699Y16772D01*
X26744Y16787D01*
X26774Y16817D01*
X26789Y16847D01*
X26804Y16907D01*
X26804Y16952D01*
X26789Y17012D01*
X26774Y17042D01*
X26744Y17072D01*
X26699Y17087D01*
X26669Y17087D01*
X26624Y17072D01*
X26609Y17057D01*
X26309Y16772D02*
X26489Y16772D01*
X26399Y16772D02*
X26399Y17087D01*
X26429Y17042D01*
X26459Y17012D01*
X26489Y16997D01*
X26189Y17057D02*
X26174Y17072D01*
X26144Y17087D01*
X26069Y17087D01*
X26039Y17072D01*
X26024Y17057D01*
X26009Y17027D01*
X26009Y16997D01*
X26024Y16952D01*
X26204Y16772D01*
X26009Y16772D01*
X27104Y15772D02*
X27104Y16087D01*
X26984Y16087D01*
X26954Y16072D01*
X26939Y16057D01*
X26924Y16027D01*
X26924Y15982D01*
X26939Y15952D01*
X26954Y15937D01*
X26984Y15922D01*
X27104Y15922D01*
X26609Y15802D02*
X26624Y15787D01*
X26669Y15772D01*
X26699Y15772D01*
X26744Y15787D01*
X26774Y15817D01*
X26789Y15847D01*
X26804Y15907D01*
X26804Y15952D01*
X26789Y16012D01*
X26774Y16042D01*
X26744Y16072D01*
X26699Y16087D01*
X26669Y16087D01*
X26624Y16072D01*
X26609Y16057D01*
X26309Y15772D02*
X26489Y15772D01*
X26399Y15772D02*
X26399Y16087D01*
X26429Y16042D01*
X26459Y16012D01*
X26489Y15997D01*
X26039Y15982D02*
X26039Y15772D01*
X26114Y16102D02*
X26189Y15877D01*
X25994Y15877D01*
X27104Y14772D02*
X27104Y15087D01*
X26984Y15087D01*
X26954Y15072D01*
X26939Y15057D01*
X26924Y15027D01*
X26924Y14982D01*
X26939Y14952D01*
X26954Y14937D01*
X26984Y14922D01*
X27104Y14922D01*
X26609Y14802D02*
X26624Y14787D01*
X26669Y14772D01*
X26699Y14772D01*
X26744Y14787D01*
X26774Y14817D01*
X26789Y14847D01*
X26804Y14907D01*
X26804Y14952D01*
X26789Y15012D01*
X26774Y15042D01*
X26744Y15072D01*
X26699Y15087D01*
X26669Y15087D01*
X26624Y15072D01*
X26609Y15057D01*
X26309Y14772D02*
X26489Y14772D01*
X26399Y14772D02*
X26399Y15087D01*
X26429Y15042D01*
X26459Y15012D01*
X26489Y14997D01*
X26039Y15087D02*
X26099Y15087D01*
X26129Y15072D01*
X26144Y15057D01*
X26174Y15012D01*
X26189Y14952D01*
X26189Y14832D01*
X26174Y14802D01*
X26159Y14787D01*
X26129Y14772D01*
X26069Y14772D01*
X26039Y14787D01*
X26024Y14802D01*
X26009Y14832D01*
X26009Y14907D01*
X26024Y14937D01*
X26039Y14952D01*
X26069Y14967D01*
X26129Y14967D01*
X26159Y14952D01*
X26174Y14937D01*
X26189Y14907D01*
X27104Y13772D02*
X27104Y14087D01*
X26984Y14087D01*
X26954Y14072D01*
X26939Y14057D01*
X26924Y14027D01*
X26924Y13982D01*
X26939Y13952D01*
X26954Y13937D01*
X26984Y13922D01*
X27104Y13922D01*
X26609Y13802D02*
X26624Y13787D01*
X26669Y13772D01*
X26699Y13772D01*
X26744Y13787D01*
X26774Y13817D01*
X26789Y13847D01*
X26804Y13907D01*
X26804Y13952D01*
X26789Y14012D01*
X26774Y14042D01*
X26744Y14072D01*
X26699Y14087D01*
X26669Y14087D01*
X26624Y14072D01*
X26609Y14057D01*
X26309Y13772D02*
X26489Y13772D01*
X26399Y13772D02*
X26399Y14087D01*
X26429Y14042D01*
X26459Y14012D01*
X26489Y13997D01*
X26129Y13952D02*
X26159Y13967D01*
X26174Y13982D01*
X26189Y14012D01*
X26189Y14027D01*
X26174Y14057D01*
X26159Y14072D01*
X26129Y14087D01*
X26069Y14087D01*
X26039Y14072D01*
X26024Y14057D01*
X26009Y14027D01*
X26009Y14012D01*
X26024Y13982D01*
X26039Y13967D01*
X26069Y13952D01*
X26129Y13952D01*
X26159Y13937D01*
X26174Y13922D01*
X26189Y13892D01*
X26189Y13832D01*
X26174Y13802D01*
X26159Y13787D01*
X26129Y13772D01*
X26069Y13772D01*
X26039Y13787D01*
X26024Y13802D01*
X26009Y13832D01*
X26009Y13892D01*
X26024Y13922D01*
X26039Y13937D01*
X26069Y13952D01*
X32169Y38057D02*
X32154Y38072D01*
X32124Y38087D01*
X32049Y38087D01*
X32019Y38072D01*
X32004Y38057D01*
X31989Y38027D01*
X31989Y37997D01*
X32004Y37952D01*
X32184Y37772D01*
X31989Y37772D01*
X32019Y36982D02*
X32019Y36772D01*
X32094Y37102D02*
X32169Y36877D01*
X31974Y36877D01*
X32019Y36087D02*
X32079Y36087D01*
X32109Y36072D01*
X32124Y36057D01*
X32154Y36012D01*
X32169Y35952D01*
X32169Y35832D01*
X32154Y35802D01*
X32139Y35787D01*
X32109Y35772D01*
X32049Y35772D01*
X32019Y35787D01*
X32004Y35802D01*
X31989Y35832D01*
X31989Y35907D01*
X32004Y35937D01*
X32019Y35952D01*
X32049Y35967D01*
X32109Y35967D01*
X32139Y35952D01*
X32154Y35937D01*
X32169Y35907D01*
X32109Y34952D02*
X32139Y34967D01*
X32154Y34982D01*
X32169Y35012D01*
X32169Y35027D01*
X32154Y35057D01*
X32139Y35072D01*
X32109Y35087D01*
X32049Y35087D01*
X32019Y35072D01*
X32004Y35057D01*
X31989Y35027D01*
X31989Y35012D01*
X32004Y34982D01*
X32019Y34967D01*
X32049Y34952D01*
X32109Y34952D01*
X32139Y34937D01*
X32154Y34922D01*
X32169Y34892D01*
X32169Y34832D01*
X32154Y34802D01*
X32139Y34787D01*
X32109Y34772D01*
X32049Y34772D01*
X32019Y34787D01*
X32004Y34802D01*
X31989Y34832D01*
X31989Y34892D01*
X32004Y34922D01*
X32019Y34937D01*
X32049Y34952D01*
X32139Y33772D02*
X32319Y33772D01*
X32229Y33772D02*
X32229Y34087D01*
X32259Y34042D01*
X32289Y34012D01*
X32319Y33997D01*
X31944Y34087D02*
X31914Y34087D01*
X31884Y34072D01*
X31869Y34057D01*
X31854Y34027D01*
X31839Y33967D01*
X31839Y33892D01*
X31854Y33832D01*
X31869Y33802D01*
X31884Y33787D01*
X31914Y33772D01*
X31944Y33772D01*
X31974Y33787D01*
X31989Y33802D01*
X32004Y33832D01*
X32019Y33892D01*
X32019Y33967D01*
X32004Y34027D01*
X31989Y34057D01*
X31974Y34072D01*
X31944Y34087D01*
X32139Y32772D02*
X32319Y32772D01*
X32229Y32772D02*
X32229Y33087D01*
X32259Y33042D01*
X32289Y33012D01*
X32319Y32997D01*
X32019Y33057D02*
X32004Y33072D01*
X31974Y33087D01*
X31899Y33087D01*
X31869Y33072D01*
X31854Y33057D01*
X31839Y33027D01*
X31839Y32997D01*
X31854Y32952D01*
X32034Y32772D01*
X31839Y32772D01*
X32139Y31772D02*
X32319Y31772D01*
X32229Y31772D02*
X32229Y32087D01*
X32259Y32042D01*
X32289Y32012D01*
X32319Y31997D01*
X31869Y31982D02*
X31869Y31772D01*
X31944Y32102D02*
X32019Y31877D01*
X31824Y31877D01*
X32139Y30772D02*
X32319Y30772D01*
X32229Y30772D02*
X32229Y31087D01*
X32259Y31042D01*
X32289Y31012D01*
X32319Y30997D01*
X31869Y31087D02*
X31929Y31087D01*
X31959Y31072D01*
X31974Y31057D01*
X32004Y31012D01*
X32019Y30952D01*
X32019Y30832D01*
X32004Y30802D01*
X31989Y30787D01*
X31959Y30772D01*
X31899Y30772D01*
X31869Y30787D01*
X31854Y30802D01*
X31839Y30832D01*
X31839Y30907D01*
X31854Y30937D01*
X31869Y30952D01*
X31899Y30967D01*
X31959Y30967D01*
X31989Y30952D01*
X32004Y30937D01*
X32019Y30907D01*
X32139Y29772D02*
X32319Y29772D01*
X32229Y29772D02*
X32229Y30087D01*
X32259Y30042D01*
X32289Y30012D01*
X32319Y29997D01*
X31959Y29952D02*
X31989Y29967D01*
X32004Y29982D01*
X32019Y30012D01*
X32019Y30027D01*
X32004Y30057D01*
X31989Y30072D01*
X31959Y30087D01*
X31899Y30087D01*
X31869Y30072D01*
X31854Y30057D01*
X31839Y30027D01*
X31839Y30012D01*
X31854Y29982D01*
X31869Y29967D01*
X31899Y29952D01*
X31959Y29952D01*
X31989Y29937D01*
X32004Y29922D01*
X32019Y29892D01*
X32019Y29832D01*
X32004Y29802D01*
X31989Y29787D01*
X31959Y29772D01*
X31899Y29772D01*
X31869Y29787D01*
X31854Y29802D01*
X31839Y29832D01*
X31839Y29892D01*
X31854Y29922D01*
X31869Y29937D01*
X31899Y29952D01*
X32319Y29057D02*
X32304Y29072D01*
X32274Y29087D01*
X32199Y29087D01*
X32169Y29072D01*
X32154Y29057D01*
X32139Y29027D01*
X32139Y28997D01*
X32154Y28952D01*
X32334Y28772D01*
X32139Y28772D01*
X31944Y29087D02*
X31914Y29087D01*
X31884Y29072D01*
X31869Y29057D01*
X31854Y29027D01*
X31839Y28967D01*
X31839Y28892D01*
X31854Y28832D01*
X31869Y28802D01*
X31884Y28787D01*
X31914Y28772D01*
X31944Y28772D01*
X31974Y28787D01*
X31989Y28802D01*
X32004Y28832D01*
X32019Y28892D01*
X32019Y28967D01*
X32004Y29027D01*
X31989Y29057D01*
X31974Y29072D01*
X31944Y29087D01*
X32319Y28057D02*
X32304Y28072D01*
X32274Y28087D01*
X32199Y28087D01*
X32169Y28072D01*
X32154Y28057D01*
X32139Y28027D01*
X32139Y27997D01*
X32154Y27952D01*
X32334Y27772D01*
X32139Y27772D01*
X32019Y28057D02*
X32004Y28072D01*
X31974Y28087D01*
X31899Y28087D01*
X31869Y28072D01*
X31854Y28057D01*
X31839Y28027D01*
X31839Y27997D01*
X31854Y27952D01*
X32034Y27772D01*
X31839Y27772D01*
X32319Y27057D02*
X32304Y27072D01*
X32274Y27087D01*
X32199Y27087D01*
X32169Y27072D01*
X32154Y27057D01*
X32139Y27027D01*
X32139Y26997D01*
X32154Y26952D01*
X32334Y26772D01*
X32139Y26772D01*
X31869Y26982D02*
X31869Y26772D01*
X31944Y27102D02*
X32019Y26877D01*
X31824Y26877D01*
X32319Y26057D02*
X32304Y26072D01*
X32274Y26087D01*
X32199Y26087D01*
X32169Y26072D01*
X32154Y26057D01*
X32139Y26027D01*
X32139Y25997D01*
X32154Y25952D01*
X32334Y25772D01*
X32139Y25772D01*
X31869Y26087D02*
X31929Y26087D01*
X31959Y26072D01*
X31974Y26057D01*
X32004Y26012D01*
X32019Y25952D01*
X32019Y25832D01*
X32004Y25802D01*
X31989Y25787D01*
X31959Y25772D01*
X31899Y25772D01*
X31869Y25787D01*
X31854Y25802D01*
X31839Y25832D01*
X31839Y25907D01*
X31854Y25937D01*
X31869Y25952D01*
X31899Y25967D01*
X31959Y25967D01*
X31989Y25952D01*
X32004Y25937D01*
X32019Y25907D01*
X32319Y25057D02*
X32304Y25072D01*
X32274Y25087D01*
X32199Y25087D01*
X32169Y25072D01*
X32154Y25057D01*
X32139Y25027D01*
X32139Y24997D01*
X32154Y24952D01*
X32334Y24772D01*
X32139Y24772D01*
X31959Y24952D02*
X31989Y24967D01*
X32004Y24982D01*
X32019Y25012D01*
X32019Y25027D01*
X32004Y25057D01*
X31989Y25072D01*
X31959Y25087D01*
X31899Y25087D01*
X31869Y25072D01*
X31854Y25057D01*
X31839Y25027D01*
X31839Y25012D01*
X31854Y24982D01*
X31869Y24967D01*
X31899Y24952D01*
X31959Y24952D01*
X31989Y24937D01*
X32004Y24922D01*
X32019Y24892D01*
X32019Y24832D01*
X32004Y24802D01*
X31989Y24787D01*
X31959Y24772D01*
X31899Y24772D01*
X31869Y24787D01*
X31854Y24802D01*
X31839Y24832D01*
X31839Y24892D01*
X31854Y24922D01*
X31869Y24937D01*
X31899Y24952D01*
X32334Y24087D02*
X32139Y24087D01*
X32244Y23967D01*
X32199Y23967D01*
X32169Y23952D01*
X32154Y23937D01*
X32139Y23907D01*
X32139Y23832D01*
X32154Y23802D01*
X32169Y23787D01*
X32199Y23772D01*
X32289Y23772D01*
X32319Y23787D01*
X32334Y23802D01*
X31944Y24087D02*
X31914Y24087D01*
X31884Y24072D01*
X31869Y24057D01*
X31854Y24027D01*
X31839Y23967D01*
X31839Y23892D01*
X31854Y23832D01*
X31869Y23802D01*
X31884Y23787D01*
X31914Y23772D01*
X31944Y23772D01*
X31974Y23787D01*
X31989Y23802D01*
X32004Y23832D01*
X32019Y23892D01*
X32019Y23967D01*
X32004Y24027D01*
X31989Y24057D01*
X31974Y24072D01*
X31944Y24087D01*
X32334Y23087D02*
X32139Y23087D01*
X32244Y22967D01*
X32199Y22967D01*
X32169Y22952D01*
X32154Y22937D01*
X32139Y22907D01*
X32139Y22832D01*
X32154Y22802D01*
X32169Y22787D01*
X32199Y22772D01*
X32289Y22772D01*
X32319Y22787D01*
X32334Y22802D01*
X32019Y23057D02*
X32004Y23072D01*
X31974Y23087D01*
X31899Y23087D01*
X31869Y23072D01*
X31854Y23057D01*
X31839Y23027D01*
X31839Y22997D01*
X31854Y22952D01*
X32034Y22772D01*
X31839Y22772D01*
X32334Y22087D02*
X32139Y22087D01*
X32244Y21967D01*
X32199Y21967D01*
X32169Y21952D01*
X32154Y21937D01*
X32139Y21907D01*
X32139Y21832D01*
X32154Y21802D01*
X32169Y21787D01*
X32199Y21772D01*
X32289Y21772D01*
X32319Y21787D01*
X32334Y21802D01*
X31869Y21982D02*
X31869Y21772D01*
X31944Y22102D02*
X32019Y21877D01*
X31824Y21877D01*
X32334Y21087D02*
X32139Y21087D01*
X32244Y20967D01*
X32199Y20967D01*
X32169Y20952D01*
X32154Y20937D01*
X32139Y20907D01*
X32139Y20832D01*
X32154Y20802D01*
X32169Y20787D01*
X32199Y20772D01*
X32289Y20772D01*
X32319Y20787D01*
X32334Y20802D01*
X31869Y21087D02*
X31929Y21087D01*
X31959Y21072D01*
X31974Y21057D01*
X32004Y21012D01*
X32019Y20952D01*
X32019Y20832D01*
X32004Y20802D01*
X31989Y20787D01*
X31959Y20772D01*
X31899Y20772D01*
X31869Y20787D01*
X31854Y20802D01*
X31839Y20832D01*
X31839Y20907D01*
X31854Y20937D01*
X31869Y20952D01*
X31899Y20967D01*
X31959Y20967D01*
X31989Y20952D01*
X32004Y20937D01*
X32019Y20907D01*
X32334Y20087D02*
X32139Y20087D01*
X32244Y19967D01*
X32199Y19967D01*
X32169Y19952D01*
X32154Y19937D01*
X32139Y19907D01*
X32139Y19832D01*
X32154Y19802D01*
X32169Y19787D01*
X32199Y19772D01*
X32289Y19772D01*
X32319Y19787D01*
X32334Y19802D01*
X31959Y19952D02*
X31989Y19967D01*
X32004Y19982D01*
X32019Y20012D01*
X32019Y20027D01*
X32004Y20057D01*
X31989Y20072D01*
X31959Y20087D01*
X31899Y20087D01*
X31869Y20072D01*
X31854Y20057D01*
X31839Y20027D01*
X31839Y20012D01*
X31854Y19982D01*
X31869Y19967D01*
X31899Y19952D01*
X31959Y19952D01*
X31989Y19937D01*
X32004Y19922D01*
X32019Y19892D01*
X32019Y19832D01*
X32004Y19802D01*
X31989Y19787D01*
X31959Y19772D01*
X31899Y19772D01*
X31869Y19787D01*
X31854Y19802D01*
X31839Y19832D01*
X31839Y19892D01*
X31854Y19922D01*
X31869Y19937D01*
X31899Y19952D01*
X32169Y18982D02*
X32169Y18772D01*
X32244Y19102D02*
X32319Y18877D01*
X32124Y18877D01*
X31944Y19087D02*
X31914Y19087D01*
X31884Y19072D01*
X31869Y19057D01*
X31854Y19027D01*
X31839Y18967D01*
X31839Y18892D01*
X31854Y18832D01*
X31869Y18802D01*
X31884Y18787D01*
X31914Y18772D01*
X31944Y18772D01*
X31974Y18787D01*
X31989Y18802D01*
X32004Y18832D01*
X32019Y18892D01*
X32019Y18967D01*
X32004Y19027D01*
X31989Y19057D01*
X31974Y19072D01*
X31944Y19087D01*
X32169Y17982D02*
X32169Y17772D01*
X32244Y18102D02*
X32319Y17877D01*
X32124Y17877D01*
X32019Y18057D02*
X32004Y18072D01*
X31974Y18087D01*
X31899Y18087D01*
X31869Y18072D01*
X31854Y18057D01*
X31839Y18027D01*
X31839Y17997D01*
X31854Y17952D01*
X32034Y17772D01*
X31839Y17772D01*
X32169Y16982D02*
X32169Y16772D01*
X32244Y17102D02*
X32319Y16877D01*
X32124Y16877D01*
X31869Y16982D02*
X31869Y16772D01*
X31944Y17102D02*
X32019Y16877D01*
X31824Y16877D01*
X32169Y15982D02*
X32169Y15772D01*
X32244Y16102D02*
X32319Y15877D01*
X32124Y15877D01*
X31869Y16087D02*
X31929Y16087D01*
X31959Y16072D01*
X31974Y16057D01*
X32004Y16012D01*
X32019Y15952D01*
X32019Y15832D01*
X32004Y15802D01*
X31989Y15787D01*
X31959Y15772D01*
X31899Y15772D01*
X31869Y15787D01*
X31854Y15802D01*
X31839Y15832D01*
X31839Y15907D01*
X31854Y15937D01*
X31869Y15952D01*
X31899Y15967D01*
X31959Y15967D01*
X31989Y15952D01*
X32004Y15937D01*
X32019Y15907D01*
X32169Y14982D02*
X32169Y14772D01*
X32244Y15102D02*
X32319Y14877D01*
X32124Y14877D01*
X31959Y14952D02*
X31989Y14967D01*
X32004Y14982D01*
X32019Y15012D01*
X32019Y15027D01*
X32004Y15057D01*
X31989Y15072D01*
X31959Y15087D01*
X31899Y15087D01*
X31869Y15072D01*
X31854Y15057D01*
X31839Y15027D01*
X31839Y15012D01*
X31854Y14982D01*
X31869Y14967D01*
X31899Y14952D01*
X31959Y14952D01*
X31989Y14937D01*
X32004Y14922D01*
X32019Y14892D01*
X32019Y14832D01*
X32004Y14802D01*
X31989Y14787D01*
X31959Y14772D01*
X31899Y14772D01*
X31869Y14787D01*
X31854Y14802D01*
X31839Y14832D01*
X31839Y14892D01*
X31854Y14922D01*
X31869Y14937D01*
X31899Y14952D01*
X32154Y14087D02*
X32304Y14087D01*
X32319Y13937D01*
X32304Y13952D01*
X32274Y13967D01*
X32199Y13967D01*
X32169Y13952D01*
X32154Y13937D01*
X32139Y13907D01*
X32139Y13832D01*
X32154Y13802D01*
X32169Y13787D01*
X32199Y13772D01*
X32274Y13772D01*
X32304Y13787D01*
X32319Y13802D01*
X31944Y14087D02*
X31914Y14087D01*
X31884Y14072D01*
X31869Y14057D01*
X31854Y14027D01*
X31839Y13967D01*
X31839Y13892D01*
X31854Y13832D01*
X31869Y13802D01*
X31884Y13787D01*
X31914Y13772D01*
X31944Y13772D01*
X31974Y13787D01*
X31989Y13802D01*
X32004Y13832D01*
X32019Y13892D01*
X32019Y13967D01*
X32004Y14027D01*
X31989Y14057D01*
X31974Y14072D01*
X31944Y14087D01*
X587Y6363D02*
X587Y6468D01*
X422Y6513D02*
X422Y6363D01*
X737Y6363D01*
X737Y6513D01*
X737Y6708D02*
X737Y6738D01*
X722Y6768D01*
X707Y6783D01*
X677Y6798D01*
X617Y6813D01*
X542Y6813D01*
X482Y6798D01*
X452Y6783D01*
X437Y6768D01*
X422Y6738D01*
X422Y6708D01*
X437Y6678D01*
X452Y6663D01*
X482Y6648D01*
X542Y6633D01*
X617Y6633D01*
X677Y6648D01*
X707Y6663D01*
X722Y6678D01*
X737Y6708D01*
X737Y7143D02*
X737Y7323D01*
X422Y7233D02*
X737Y7233D01*
X587Y7428D02*
X587Y7533D01*
X422Y7578D02*
X422Y7428D01*
X737Y7428D01*
X737Y7578D01*
X422Y7713D02*
X737Y7713D01*
X512Y7818D01*
X737Y7923D01*
X422Y7923D01*
X422Y8073D02*
X737Y8073D01*
X737Y8193D01*
X722Y8223D01*
X707Y8238D01*
X677Y8253D01*
X632Y8253D01*
X602Y8238D01*
X587Y8223D01*
X572Y8193D01*
X572Y8073D01*
X587Y9588D02*
X587Y9693D01*
X422Y9738D02*
X422Y9588D01*
X737Y9588D01*
X737Y9738D01*
X737Y9933D02*
X737Y9963D01*
X722Y9993D01*
X707Y10008D01*
X677Y10023D01*
X617Y10038D01*
X542Y10038D01*
X482Y10023D01*
X452Y10008D01*
X437Y9993D01*
X422Y9963D01*
X422Y9933D01*
X437Y9903D01*
X452Y9888D01*
X482Y9873D01*
X542Y9858D01*
X617Y9858D01*
X677Y9873D01*
X707Y9888D01*
X722Y9903D01*
X737Y9933D01*
X422Y10413D02*
X737Y10413D01*
X587Y10413D02*
X587Y10593D01*
X422Y10593D02*
X737Y10593D01*
X587Y10743D02*
X587Y10848D01*
X422Y10893D02*
X422Y10743D01*
X737Y10743D01*
X737Y10893D01*
X512Y11013D02*
X512Y11163D01*
X422Y10983D02*
X737Y11088D01*
X422Y11193D01*
X737Y11253D02*
X737Y11433D01*
X422Y11343D02*
X737Y11343D01*
X587Y11538D02*
X587Y11643D01*
X422Y11688D02*
X422Y11538D01*
X737Y11538D01*
X737Y11688D01*
X422Y12003D02*
X572Y11898D01*
X422Y11823D02*
X737Y11823D01*
X737Y11943D01*
X722Y11973D01*
X707Y11988D01*
X677Y12003D01*
X632Y12003D01*
X602Y11988D01*
X587Y11973D01*
X572Y11943D01*
X572Y11823D01*
X3746Y11827D02*
X3641Y11512D01*
X3536Y11827D01*
X3431Y11512D02*
X3431Y11827D01*
X3281Y11512D02*
X3281Y11827D01*
X3101Y11512D01*
X3101Y11827D01*
X3746Y10827D02*
X3641Y10512D01*
X3536Y10827D01*
X3431Y10512D02*
X3431Y10827D01*
X3281Y10512D02*
X3281Y10827D01*
X3101Y10512D01*
X3101Y10827D01*
X3926Y9677D02*
X3821Y9677D01*
X3776Y9512D02*
X3926Y9512D01*
X3926Y9827D01*
X3776Y9827D01*
X3581Y9827D02*
X3551Y9827D01*
X3521Y9812D01*
X3506Y9797D01*
X3491Y9767D01*
X3476Y9707D01*
X3476Y9632D01*
X3491Y9572D01*
X3506Y9542D01*
X3521Y9527D01*
X3551Y9512D01*
X3581Y9512D01*
X3611Y9527D01*
X3626Y9542D01*
X3641Y9572D01*
X3656Y9632D01*
X3656Y9707D01*
X3641Y9767D01*
X3626Y9797D01*
X3611Y9812D01*
X3581Y9827D01*
X3341Y9632D02*
X3101Y9632D01*
X3926Y8677D02*
X3821Y8677D01*
X3776Y8512D02*
X3926Y8512D01*
X3926Y8827D01*
X3776Y8827D01*
X3581Y8827D02*
X3551Y8827D01*
X3521Y8812D01*
X3506Y8797D01*
X3491Y8767D01*
X3476Y8707D01*
X3476Y8632D01*
X3491Y8572D01*
X3506Y8542D01*
X3521Y8527D01*
X3551Y8512D01*
X3581Y8512D01*
X3611Y8527D01*
X3626Y8542D01*
X3641Y8572D01*
X3656Y8632D01*
X3656Y8707D01*
X3641Y8767D01*
X3626Y8797D01*
X3611Y8812D01*
X3581Y8827D01*
X3341Y8632D02*
X3101Y8632D01*
X4136Y7827D02*
X4031Y7512D01*
X3926Y7827D01*
X3836Y7527D02*
X3791Y7512D01*
X3716Y7512D01*
X3686Y7527D01*
X3671Y7542D01*
X3656Y7572D01*
X3656Y7602D01*
X3671Y7632D01*
X3686Y7647D01*
X3716Y7662D01*
X3776Y7677D01*
X3806Y7692D01*
X3821Y7707D01*
X3836Y7737D01*
X3836Y7767D01*
X3821Y7797D01*
X3806Y7812D01*
X3776Y7827D01*
X3701Y7827D01*
X3656Y7812D01*
X3536Y7527D02*
X3491Y7512D01*
X3416Y7512D01*
X3386Y7527D01*
X3371Y7542D01*
X3356Y7572D01*
X3356Y7602D01*
X3371Y7632D01*
X3386Y7647D01*
X3416Y7662D01*
X3476Y7677D01*
X3506Y7692D01*
X3521Y7707D01*
X3536Y7737D01*
X3536Y7767D01*
X3521Y7797D01*
X3506Y7812D01*
X3476Y7827D01*
X3401Y7827D01*
X3356Y7812D01*
X3236Y7602D02*
X3086Y7602D01*
X3266Y7512D02*
X3161Y7827D01*
X3056Y7512D01*
X3971Y6512D02*
X4076Y6662D01*
X4151Y6512D02*
X4151Y6827D01*
X4031Y6827D01*
X4001Y6812D01*
X3986Y6797D01*
X3971Y6767D01*
X3971Y6722D01*
X3986Y6692D01*
X4001Y6677D01*
X4031Y6662D01*
X4151Y6662D01*
X3746Y6392D02*
X3761Y6407D01*
X3791Y6452D01*
X3806Y6482D01*
X3821Y6527D01*
X3836Y6602D01*
X3836Y6662D01*
X3821Y6737D01*
X3806Y6782D01*
X3791Y6812D01*
X3761Y6857D01*
X3746Y6872D01*
X3671Y6722D02*
X3551Y6722D01*
X3626Y6827D02*
X3626Y6557D01*
X3611Y6527D01*
X3581Y6512D01*
X3551Y6512D01*
X3446Y6512D02*
X3446Y6827D01*
X3311Y6512D02*
X3311Y6677D01*
X3326Y6707D01*
X3356Y6722D01*
X3401Y6722D01*
X3431Y6707D01*
X3446Y6692D01*
X3191Y6392D02*
X3176Y6407D01*
X3146Y6452D01*
X3131Y6482D01*
X3116Y6527D01*
X3101Y6602D01*
X3101Y6662D01*
X3116Y6737D01*
X3131Y6782D01*
X3146Y6812D01*
X3176Y6857D01*
X3191Y6872D01*
X507Y14083D02*
X507Y14188D01*
X342Y14233D02*
X342Y14083D01*
X657Y14083D01*
X657Y14233D01*
X657Y14338D02*
X342Y14548D01*
X657Y14548D02*
X342Y14338D01*
X657Y14623D02*
X657Y14803D01*
X342Y14713D02*
X657Y14713D01*
X342Y15088D02*
X492Y14983D01*
X342Y14908D02*
X657Y14908D01*
X657Y15028D01*
X642Y15058D01*
X627Y15073D01*
X597Y15088D01*
X552Y15088D01*
X522Y15073D01*
X507Y15058D01*
X492Y15028D01*
X492Y14908D01*
X657Y15223D02*
X402Y15223D01*
X372Y15238D01*
X357Y15253D01*
X342Y15283D01*
X342Y15343D01*
X357Y15373D01*
X372Y15388D01*
X402Y15403D01*
X657Y15403D01*
X342Y15553D02*
X657Y15553D01*
X657Y15628D01*
X642Y15673D01*
X612Y15703D01*
X582Y15718D01*
X522Y15733D01*
X477Y15733D01*
X417Y15718D01*
X387Y15703D01*
X357Y15673D01*
X342Y15628D01*
X342Y15553D01*
X507Y15868D02*
X507Y15973D01*
X342Y16018D02*
X342Y15868D01*
X657Y15868D01*
X657Y16018D01*
X342Y16333D02*
X492Y16228D01*
X342Y16153D02*
X657Y16153D01*
X657Y16273D01*
X642Y16303D01*
X627Y16318D01*
X597Y16333D01*
X552Y16333D01*
X522Y16318D01*
X507Y16303D01*
X492Y16273D01*
X492Y16153D01*
X342Y16708D02*
X657Y16708D01*
X432Y16813D01*
X657Y16918D01*
X342Y16918D01*
X657Y17128D02*
X657Y17188D01*
X642Y17218D01*
X612Y17248D01*
X552Y17263D01*
X447Y17263D01*
X387Y17248D01*
X357Y17218D01*
X342Y17188D01*
X342Y17128D01*
X357Y17098D01*
X387Y17068D01*
X447Y17053D01*
X552Y17053D01*
X612Y17068D01*
X642Y17098D01*
X657Y17128D01*
X657Y17353D02*
X657Y17533D01*
X342Y17443D02*
X657Y17443D01*
X657Y17698D02*
X657Y17758D01*
X642Y17788D01*
X612Y17818D01*
X552Y17833D01*
X447Y17833D01*
X387Y17818D01*
X357Y17788D01*
X342Y17758D01*
X342Y17698D01*
X357Y17668D01*
X387Y17638D01*
X447Y17623D01*
X552Y17623D01*
X612Y17638D01*
X642Y17668D01*
X657Y17698D01*
X342Y18148D02*
X492Y18043D01*
X342Y17968D02*
X657Y17968D01*
X657Y18088D01*
X642Y18118D01*
X627Y18133D01*
X597Y18148D01*
X552Y18148D01*
X522Y18133D01*
X507Y18118D01*
X492Y18088D01*
X492Y17968D01*
X672Y18508D02*
X267Y18238D01*
X357Y18598D02*
X342Y18643D01*
X342Y18718D01*
X357Y18748D01*
X372Y18763D01*
X402Y18778D01*
X432Y18778D01*
X462Y18763D01*
X477Y18748D01*
X492Y18718D01*
X507Y18658D01*
X522Y18628D01*
X537Y18613D01*
X567Y18598D01*
X597Y18598D01*
X627Y18613D01*
X642Y18628D01*
X657Y18658D01*
X657Y18733D01*
X642Y18778D01*
X657Y18868D02*
X657Y19048D01*
X342Y18958D02*
X657Y18958D01*
X657Y19213D02*
X657Y19273D01*
X642Y19303D01*
X612Y19333D01*
X552Y19348D01*
X447Y19348D01*
X387Y19333D01*
X357Y19303D01*
X342Y19273D01*
X342Y19213D01*
X357Y19183D01*
X387Y19153D01*
X447Y19138D01*
X552Y19138D01*
X612Y19153D01*
X642Y19183D01*
X657Y19213D01*
X342Y19483D02*
X657Y19483D01*
X657Y19603D01*
X642Y19633D01*
X627Y19648D01*
X597Y19663D01*
X552Y19663D01*
X522Y19648D01*
X507Y19633D01*
X492Y19603D01*
X492Y19483D01*
X762Y22278D02*
X447Y22488D01*
X762Y22488D02*
X447Y22278D01*
X567Y22608D02*
X567Y22848D01*
X537Y22983D02*
X537Y23133D01*
X447Y22953D02*
X762Y23058D01*
X447Y23163D01*
X762Y23238D02*
X447Y23448D01*
X762Y23448D02*
X447Y23238D01*
X447Y23568D02*
X762Y23568D01*
X462Y23703D02*
X447Y23748D01*
X447Y23823D01*
X462Y23853D01*
X477Y23868D01*
X507Y23883D01*
X537Y23883D01*
X567Y23868D01*
X582Y23853D01*
X597Y23823D01*
X612Y23763D01*
X627Y23733D01*
X642Y23718D01*
X672Y23703D01*
X702Y23703D01*
X732Y23718D01*
X747Y23733D01*
X762Y23763D01*
X762Y23838D01*
X747Y23883D01*
X447Y24258D02*
X762Y24258D01*
X537Y24363D01*
X762Y24468D01*
X447Y24468D01*
X762Y24678D02*
X762Y24738D01*
X747Y24768D01*
X717Y24798D01*
X657Y24813D01*
X552Y24813D01*
X492Y24798D01*
X462Y24768D01*
X447Y24738D01*
X447Y24678D01*
X462Y24648D01*
X492Y24618D01*
X552Y24603D01*
X657Y24603D01*
X717Y24618D01*
X747Y24648D01*
X762Y24678D01*
X762Y24903D02*
X762Y25083D01*
X447Y24993D02*
X762Y24993D01*
X762Y25248D02*
X762Y25308D01*
X747Y25338D01*
X717Y25368D01*
X657Y25383D01*
X552Y25383D01*
X492Y25368D01*
X462Y25338D01*
X447Y25308D01*
X447Y25248D01*
X462Y25218D01*
X492Y25188D01*
X552Y25173D01*
X657Y25173D01*
X717Y25188D01*
X747Y25218D01*
X762Y25248D01*
X447Y25698D02*
X597Y25593D01*
X447Y25518D02*
X762Y25518D01*
X762Y25638D01*
X747Y25668D01*
X732Y25683D01*
X702Y25698D01*
X657Y25698D01*
X627Y25683D01*
X612Y25668D01*
X597Y25638D01*
X597Y25518D01*
X777Y26058D02*
X372Y25788D01*
X462Y26148D02*
X447Y26193D01*
X447Y26268D01*
X462Y26298D01*
X477Y26313D01*
X507Y26328D01*
X537Y26328D01*
X567Y26313D01*
X582Y26298D01*
X597Y26268D01*
X612Y26208D01*
X627Y26178D01*
X642Y26163D01*
X672Y26148D01*
X702Y26148D01*
X732Y26163D01*
X747Y26178D01*
X762Y26208D01*
X762Y26283D01*
X747Y26328D01*
X762Y26418D02*
X762Y26598D01*
X447Y26508D02*
X762Y26508D01*
X762Y26763D02*
X762Y26823D01*
X747Y26853D01*
X717Y26883D01*
X657Y26898D01*
X552Y26898D01*
X492Y26883D01*
X462Y26853D01*
X447Y26823D01*
X447Y26763D01*
X462Y26733D01*
X492Y26703D01*
X552Y26688D01*
X657Y26688D01*
X717Y26703D01*
X747Y26733D01*
X762Y26763D01*
X447Y27033D02*
X762Y27033D01*
X762Y27153D01*
X747Y27183D01*
X732Y27198D01*
X702Y27213D01*
X657Y27213D01*
X627Y27198D01*
X612Y27183D01*
X597Y27153D01*
X597Y27033D01*
X532Y30293D02*
X382Y30293D01*
X697Y30188D02*
X532Y30293D01*
X697Y30398D01*
X502Y30503D02*
X502Y30743D01*
X472Y30878D02*
X472Y31028D01*
X382Y30848D02*
X697Y30953D01*
X382Y31058D01*
X697Y31133D02*
X382Y31343D01*
X697Y31343D02*
X382Y31133D01*
X382Y31463D02*
X697Y31463D01*
X397Y31598D02*
X382Y31643D01*
X382Y31718D01*
X397Y31748D01*
X412Y31763D01*
X442Y31778D01*
X472Y31778D01*
X502Y31763D01*
X517Y31748D01*
X532Y31718D01*
X547Y31658D01*
X562Y31628D01*
X577Y31613D01*
X607Y31598D01*
X637Y31598D01*
X667Y31613D01*
X682Y31628D01*
X697Y31658D01*
X697Y31733D01*
X682Y31778D01*
X382Y32153D02*
X697Y32153D01*
X472Y32258D01*
X697Y32363D01*
X382Y32363D01*
X697Y32573D02*
X697Y32633D01*
X682Y32663D01*
X652Y32693D01*
X592Y32708D01*
X487Y32708D01*
X427Y32693D01*
X397Y32663D01*
X382Y32633D01*
X382Y32573D01*
X397Y32543D01*
X427Y32513D01*
X487Y32498D01*
X592Y32498D01*
X652Y32513D01*
X682Y32543D01*
X697Y32573D01*
X697Y32798D02*
X697Y32978D01*
X382Y32888D02*
X697Y32888D01*
X697Y33143D02*
X697Y33203D01*
X682Y33233D01*
X652Y33263D01*
X592Y33278D01*
X487Y33278D01*
X427Y33263D01*
X397Y33233D01*
X382Y33203D01*
X382Y33143D01*
X397Y33113D01*
X427Y33083D01*
X487Y33068D01*
X592Y33068D01*
X652Y33083D01*
X682Y33113D01*
X697Y33143D01*
X382Y33593D02*
X532Y33488D01*
X382Y33413D02*
X697Y33413D01*
X697Y33533D01*
X682Y33563D01*
X667Y33578D01*
X637Y33593D01*
X592Y33593D01*
X562Y33578D01*
X547Y33563D01*
X532Y33533D01*
X532Y33413D01*
X712Y33953D02*
X307Y33683D01*
X397Y34043D02*
X382Y34088D01*
X382Y34163D01*
X397Y34193D01*
X412Y34208D01*
X442Y34223D01*
X472Y34223D01*
X502Y34208D01*
X517Y34193D01*
X532Y34163D01*
X547Y34103D01*
X562Y34073D01*
X577Y34058D01*
X607Y34043D01*
X637Y34043D01*
X667Y34058D01*
X682Y34073D01*
X697Y34103D01*
X697Y34178D01*
X682Y34223D01*
X697Y34313D02*
X697Y34493D01*
X382Y34403D02*
X697Y34403D01*
X697Y34658D02*
X697Y34718D01*
X682Y34748D01*
X652Y34778D01*
X592Y34793D01*
X487Y34793D01*
X427Y34778D01*
X397Y34748D01*
X382Y34718D01*
X382Y34658D01*
X397Y34628D01*
X427Y34598D01*
X487Y34583D01*
X592Y34583D01*
X652Y34598D01*
X682Y34628D01*
X697Y34658D01*
X382Y34928D02*
X697Y34928D01*
X697Y35048D01*
X682Y35078D01*
X667Y35093D01*
X637Y35108D01*
X592Y35108D01*
X562Y35093D01*
X547Y35078D01*
X532Y35048D01*
X532Y34928D01*
X631Y38079D02*
X631Y38289D01*
X316Y38079D01*
X316Y38289D01*
X436Y38409D02*
X436Y38649D01*
X406Y38784D02*
X406Y38934D01*
X316Y38754D02*
X631Y38859D01*
X316Y38964D01*
X631Y39039D02*
X316Y39249D01*
X631Y39249D02*
X316Y39039D01*
X316Y39369D02*
X631Y39369D01*
X331Y39504D02*
X316Y39549D01*
X316Y39624D01*
X331Y39654D01*
X346Y39669D01*
X376Y39684D01*
X406Y39684D01*
X436Y39669D01*
X451Y39654D01*
X466Y39624D01*
X481Y39564D01*
X496Y39534D01*
X511Y39519D01*
X541Y39504D01*
X571Y39504D01*
X601Y39519D01*
X616Y39534D01*
X631Y39564D01*
X631Y39639D01*
X616Y39684D01*
X316Y40059D02*
X631Y40059D01*
X406Y40164D01*
X631Y40269D01*
X316Y40269D01*
X631Y40479D02*
X631Y40539D01*
X616Y40569D01*
X586Y40599D01*
X526Y40614D01*
X421Y40614D01*
X361Y40599D01*
X331Y40569D01*
X316Y40539D01*
X316Y40479D01*
X331Y40449D01*
X361Y40419D01*
X421Y40404D01*
X526Y40404D01*
X586Y40419D01*
X616Y40449D01*
X631Y40479D01*
X631Y40704D02*
X631Y40884D01*
X316Y40794D02*
X631Y40794D01*
X631Y41049D02*
X631Y41109D01*
X616Y41139D01*
X586Y41169D01*
X526Y41184D01*
X421Y41184D01*
X361Y41169D01*
X331Y41139D01*
X316Y41109D01*
X316Y41049D01*
X331Y41019D01*
X361Y40989D01*
X421Y40974D01*
X526Y40974D01*
X586Y40989D01*
X616Y41019D01*
X631Y41049D01*
X316Y41499D02*
X466Y41394D01*
X316Y41319D02*
X631Y41319D01*
X631Y41439D01*
X616Y41469D01*
X601Y41484D01*
X571Y41499D01*
X526Y41499D01*
X496Y41484D01*
X481Y41469D01*
X466Y41439D01*
X466Y41319D01*
X646Y41859D02*
X241Y41589D01*
X331Y41949D02*
X316Y41994D01*
X316Y42069D01*
X331Y42099D01*
X346Y42114D01*
X376Y42129D01*
X406Y42129D01*
X436Y42114D01*
X451Y42099D01*
X466Y42069D01*
X481Y42009D01*
X496Y41979D01*
X511Y41964D01*
X541Y41949D01*
X571Y41949D01*
X601Y41964D01*
X616Y41979D01*
X631Y42009D01*
X631Y42084D01*
X616Y42129D01*
X631Y42219D02*
X631Y42399D01*
X316Y42309D02*
X631Y42309D01*
X631Y42564D02*
X631Y42624D01*
X616Y42654D01*
X586Y42684D01*
X526Y42699D01*
X421Y42699D01*
X361Y42684D01*
X331Y42654D01*
X316Y42624D01*
X316Y42564D01*
X331Y42534D01*
X361Y42504D01*
X421Y42489D01*
X526Y42489D01*
X586Y42504D01*
X616Y42534D01*
X631Y42564D01*
X316Y42834D02*
X631Y42834D01*
X631Y42954D01*
X616Y42984D01*
X601Y42999D01*
X571Y43014D01*
X526Y43014D01*
X496Y42999D01*
X481Y42984D01*
X466Y42954D01*
X466Y42834D01*
%LPC*%
G54D17*
X2754Y1575D03*
G54D18*
X17390Y45236D03*
G54D19*
X19890Y45236D03*
G54D20*
X18905Y1968D03*
X20657Y1968D03*
G54D21*
X21395Y716D03*
X18167Y716D03*
G54D22*
X20716Y716D03*
X18846Y716D03*
G54D23*
X12114Y46430D03*
G54D24*
X13114Y46430D03*
X14114Y46430D03*
G54D23*
X2429Y43625D03*
G54D24*
X2429Y42625D03*
X2429Y41625D03*
X2429Y40625D03*
X2429Y39625D03*
X2429Y38625D03*
X2429Y37625D03*
G54D23*
X2429Y35625D03*
G54D24*
X2429Y34625D03*
X2429Y33625D03*
X2429Y32625D03*
X2429Y31625D03*
X2429Y30625D03*
X2429Y29625D03*
G54D23*
X2429Y27625D03*
G54D24*
X2429Y26625D03*
X2429Y25625D03*
X2429Y24625D03*
X2429Y23625D03*
X2429Y22625D03*
X2429Y21625D03*
G54D23*
X2429Y19625D03*
G54D24*
X2429Y18625D03*
X2429Y17625D03*
X2429Y16625D03*
X2429Y15625D03*
X2429Y14625D03*
X2429Y13625D03*
G54D23*
X35911Y46929D03*
G54D24*
X34911Y46929D03*
G54D25*
X20651Y7329D03*
G54D26*
X20651Y7829D03*
X21151Y7329D03*
X21151Y7829D03*
X21651Y7329D03*
X21651Y7829D03*
X22151Y7329D03*
X22151Y7829D03*
X22651Y7329D03*
X22651Y7829D03*
X24140Y1870D03*
X27282Y1870D03*
G54D23*
X38474Y43299D03*
G54D24*
X39474Y43299D03*
X38474Y38299D03*
X39474Y42299D03*
X38474Y37299D03*
X39474Y41299D03*
X38474Y36299D03*
X39474Y40299D03*
X38474Y35299D03*
X39474Y39299D03*
X38474Y34299D03*
X39474Y38299D03*
X38474Y33299D03*
X39474Y37299D03*
X38474Y32299D03*
X39474Y36299D03*
X38474Y31299D03*
X39474Y35299D03*
X38474Y30299D03*
X39474Y34299D03*
X38474Y29299D03*
X39474Y33299D03*
X38474Y28299D03*
X39474Y32299D03*
X39474Y31299D03*
X38474Y27299D03*
X39474Y30299D03*
X39474Y28299D03*
X39474Y27299D03*
X39474Y26299D03*
X39474Y25299D03*
X38474Y26299D03*
X38474Y25299D03*
X38474Y42299D03*
X38474Y41299D03*
X38474Y40299D03*
X38474Y39299D03*
X38474Y24299D03*
X39474Y24299D03*
X39474Y29299D03*
X38474Y23299D03*
X39474Y23299D03*
X38474Y22299D03*
X39474Y22299D03*
X38474Y21299D03*
X39474Y21299D03*
X38474Y20299D03*
X39474Y20299D03*
X38474Y19299D03*
X39474Y19299D03*
G54D27*
X32098Y4528D03*
X36598Y4528D03*
G54D24*
X36098Y8028D03*
X35600Y7028D03*
X35098Y8028D03*
X34600Y7028D03*
X34098Y8028D03*
X33600Y7028D03*
X33098Y8028D03*
G54D28*
X31298Y5729D03*
X37398Y5728D03*
G54D24*
X35956Y2599D03*
X32740Y2599D03*
X36956Y2599D03*
X31740Y2599D03*
G54D23*
X32600Y7028D03*
G54D29*
X16730Y26181D03*
X16533Y42028D03*
X16730Y34252D03*
X15746Y17618D03*
G54D23*
X32696Y41944D03*
G54D24*
X32696Y40944D03*
G54D23*
X20089Y34050D03*
G54D24*
X20089Y35050D03*
X32638Y13104D03*
X21148Y41630D03*
G54D23*
X22280Y40558D03*
G54D24*
X23280Y40558D03*
G54D18*
X30205Y45236D03*
G54D19*
X32705Y45236D03*
G54D23*
X4888Y1328D03*
G54D24*
X5888Y1328D03*
X6888Y1328D03*
X7888Y1328D03*
G54D17*
X38974Y46850D03*
X38974Y1575D03*
X2754Y46850D03*
G54D23*
X2429Y8625D03*
G54D24*
X2429Y9625D03*
X2429Y10625D03*
X2429Y11625D03*
G54D23*
X2429Y6625D03*
G54D24*
X2429Y7625D03*
G54D23*
X2429Y3625D03*
G54D24*
X2429Y4625D03*
M02*
