999
dxflib 2.2.0.0
  0
SECTION
  2
HEADER
  9
$ACADVER
  1
AC1015
  9
$HANDSEED
  5
FFFF
  9
$DIMASZ
 40
2.5
  9
$PLIMMIN
 10
0.0
 20
0.0
  9
$DIMEXE
 40
1.25
  9
$DIMGAP
 40
0.625
  9
$PLIMMAX
 10
210.0
 20
297.0
  9
$INSUNITS
 70
4
  9
$DIMSTYLE
  2
Standard
  9
$DIMEXO
 40
0.625
  9
$DIMTXT
 40
2.5
  0
ENDSEC
  0
SECTION
  2
TABLES
  0
TABLE
  2
VPORT
  5
8
100
AcDbSymbolTable
 70
1
  0
VPORT
  5
30
100
AcDbSymbolTableRecord
100
AcDbViewportTableRecord
  2
*Active
 70
0
 10
0.0
 20
0.0
 11
1.0
 21
1.0
 12
286.3055555555554861
 22
148.5
 13
0.0
 23
0.0
 14
10.0
 24
10.0
 15
10.0
 25
10.0
 16
0.0
 26
0.0
 36
1.0
 17
0.0
 27
0.0
 37
0.0
 40
297.0
 41
1.92798353909465
 42
50.0
 43
0.0
 44
0.0
 50
0.0
 51
0.0
 71
0
 72
100
 73
1
 74
3
 75
1
 76
1
 77
0
 78
0
281
0
 65
1
110
0.0
120
0.0
130
0.0
111
1.0
121
0.0
131
0.0
112
0.0
122
1.0
132
0.0
 79
0
146
0.0
  0
ENDTAB
  0
TABLE
  2
LTYPE
  5
5
100
AcDbSymbolTable
 70
21
  0
LTYPE
  5
14
100
AcDbSymbolTableRecord
100
AcDbLinetypeTableRecord
  2
ByBlock
 70
0
  3

 72
65
 73
0
 40
0.0
  0
LTYPE
  5
15
100
AcDbSymbolTableRecord
100
AcDbLinetypeTableRecord
  2
ByLayer
 70
0
  3

 72
65
 73
0
 40
0.0
  0
LTYPE
  5
16
100
AcDbSymbolTableRecord
100
AcDbLinetypeTableRecord
  2
CONTINUOUS
 70
0
  3
Solid line
 72
65
 73
0
 40
0.0
  0
LTYPE
  5
31
100
AcDbSymbolTableRecord
100
AcDbLinetypeTableRecord
  2
DOT
 70
0
  3
Dot . . . . . . . . . . . . . . . . . . . . . .
 72
65
 73
2
 40
6.3499999999999996
 49
0.0
 74
0
 49
-6.3499999999999996
 74
0
  0
LTYPE
  5
32
100
AcDbSymbolTableRecord
100
AcDbLinetypeTableRecord
  2
DOT2
 70
0
  3
Dot (.5x) .....................................
 72
65
 73
2
 40
3.1749999999999998
 49
0.0
 74
0
 49
-3.1749999999999998
 74
0
  0
LTYPE
  5
33
100
AcDbSymbolTableRecord
100
AcDbLinetypeTableRecord
  2
DOTX2
 70
0
  3
Dot (2x) .  .  .  .  .  .  .  .  .  .  .  .  .
 72
65
 73
2
 40
12.6999999999999993
 49
0.0
 74
0
 49
-12.6999999999999993
 74
0
  0
LTYPE
  5
34
100
AcDbSymbolTableRecord
100
AcDbLinetypeTableRecord
  2
DASHED
 70
0
  3
Dashed __ __ __ __ __ __ __ __ __ __ __ __ __ _
 72
65
 73
2
 40
19.0500000000000007
 49
12.6999999999999993
 74
0
 49
-6.3499999999999996
 74
0
  0
LTYPE
  5
35
100
AcDbSymbolTableRecord
100
AcDbLinetypeTableRecord
  2
DASHED2
 70
0
  3
Dashed (.5x) _ _ _ _ _ _ _ _ _ _ _ _ _ _ _ _ _
 72
65
 73
2
 40
9.5250000000000004
 49
6.3499999999999996
 74
0
 49
-3.1749999999999998
 74
0
  0
LTYPE
  5
36
100
AcDbSymbolTableRecord
100
AcDbLinetypeTableRecord
  2
DASHEDX2
 70
0
  3
Dashed (2x) ____  ____  ____  ____  ____  ___
 72
65
 73
2
 40
38.1000000000000014
 49
25.3999999999999986
 74
0
 49
-12.6999999999999993
 74
0
  0
LTYPE
  5
37
100
AcDbSymbolTableRecord
100
AcDbLinetypeTableRecord
  2
DASHDOT
 70
0
  3
Dash dot __ . __ . __ . __ . __ . __ . __ . __
 72
65
 73
4
 40
25.3999999999999986
 49
12.6999999999999993
 74
0
 49
-6.3499999999999996
 74
0
 49
0.0
 74
0
 49
-6.3499999999999996
 74
0
  0
LTYPE
  5
38
100
AcDbSymbolTableRecord
100
AcDbLinetypeTableRecord
  2
DASHDOT2
 70
0
  3
Dash dot (.5x) _._._._._._._._._._._._._._._.
 72
65
 73
4
 40
12.6999999999999993
 49
6.3499999999999996
 74
0
 49
-3.1749999999999998
 74
0
 49
0.0
 74
0
 49
-3.1749999999999998
 74
0
  0
LTYPE
  5
39
100
AcDbSymbolTableRecord
100
AcDbLinetypeTableRecord
  2
DASHDOTX2
 70
0
  3
Dash dot (2x) ____  .  ____  .  ____  .  ___
 72
65
 73
4
 40
50.7999999999999972
 49
25.3999999999999986
 74
0
 49
-12.6999999999999993
 74
0
 49
0.0
 74
0
 49
-12.6999999999999993
 74
0
  0
LTYPE
  5
3A
100
AcDbSymbolTableRecord
100
AcDbLinetypeTableRecord
  2
DIVIDE
 70
0
  3
Divide ____ . . ____ . . ____ . . ____ . . ____
 72
65
 73
6
 40
31.75
 49
12.6999999999999993
 74
0
 49
-6.3499999999999996
 74
0
 49
0.0
 74
0
 49
-6.3499999999999996
 74
0
 49
0.0
 74
0
 49
-6.3499999999999996
 74
0
  0
LTYPE
  5
3B
100
AcDbSymbolTableRecord
100
AcDbLinetypeTableRecord
  2
DIVIDE2
 70
0
  3
Divide (.5x) __..__..__..__..__..__..__..__.._
 72
65
 73
6
 40
15.875
 49
6.3499999999999996
 74
0
 49
-3.1749999999999998
 74
0
 49
0.0
 74
0
 49
-3.1749999999999998
 74
0
 49
0.0
 74
0
 49
-3.1749999999999998
 74
0
  0
LTYPE
  5
3C
100
AcDbSymbolTableRecord
100
AcDbLinetypeTableRecord
  2
DIVIDEX2
 70
0
  3
Divide (2x) ________  .  .  ________  .  .  _
 72
65
 73
6
 40
63.5
 49
25.3999999999999986
 74
0
 49
-12.6999999999999993
 74
0
 49
0.0
 74
0
 49
-12.6999999999999993
 74
0
 49
0.0
 74
0
 49
-12.6999999999999993
 74
0
  0
LTYPE
  5
3D
100
AcDbSymbolTableRecord
100
AcDbLinetypeTableRecord
  2
CENTER
 70
0
  3
Center ____ _ ____ _ ____ _ ____ _ ____ _ ____
 72
65
 73
4
 40
50.7999999999999972
 49
31.75
 74
0
 49
-6.3499999999999996
 74
0
 49
6.3499999999999996
 74
0
 49
-6.3499999999999996
 74
0
  0
LTYPE
  5
3E
100
AcDbSymbolTableRecord
100
AcDbLinetypeTableRecord
  2
CENTER2
 70
0
  3
Center (.5x) ___ _ ___ _ ___ _ ___ _ ___ _ ___
 72
65
 73
4
 40
28.5749999999999993
 49
19.0500000000000007
 74
0
 49
-3.1749999999999998
 74
0
 49
3.1749999999999998
 74
0
 49
-3.1749999999999998
 74
0
  0
LTYPE
  5
3F
100
AcDbSymbolTableRecord
100
AcDbLinetypeTableRecord
  2
CENTERX2
 70
0
  3
Center (2x) ________  __  ________  __  _____
 72
65
 73
4
 40
101.5999999999999943
 49
63.5
 74
0
 49
-12.6999999999999993
 74
0
 49
12.6999999999999993
 74
0
 49
-12.6999999999999993
 74
0
  0
LTYPE
  5
40
100
AcDbSymbolTableRecord
100
AcDbLinetypeTableRecord
  2
BORDER
 70
0
  3
Border __ __ . __ __ . __ __ . __ __ . __ __ .
 72
65
 73
6
 40
44.4500000000000028
 49
12.6999999999999993
 74
0
 49
-6.3499999999999996
 74
0
 49
12.6999999999999993
 74
0
 49
-6.3499999999999996
 74
0
 49
0.0
 74
0
 49
-6.3499999999999996
 74
0
  0
LTYPE
  5
41
100
AcDbSymbolTableRecord
100
AcDbLinetypeTableRecord
  2
BORDER2
 70
0
  3
Border (.5x) __.__.__.__.__.__.__.__.__.__.__.
 72
65
 73
6
 40
22.2250000000000014
 49
6.3499999999999996
 74
0
 49
-3.1749999999999998
 74
0
 49
6.3499999999999996
 74
0
 49
-3.1749999999999998
 74
0
 49
0.0
 74
0
 49
-3.1749999999999998
 74
0
  0
LTYPE
  5
42
100
AcDbSymbolTableRecord
100
AcDbLinetypeTableRecord
  2
BORDERX2
 70
0
  3
Border (2x) ____  ____  .  ____  ____  .  ___
 72
65
 73
6
 40
88.9000000000000057
 49
25.3999999999999986
 74
0
 49
-12.6999999999999993
 74
0
 49
25.3999999999999986
 74
0
 49
-12.6999999999999993
 74
0
 49
0.0
 74
0
 49
-12.6999999999999993
 74
0
  0
ENDTAB
  0
TABLE
  2
LAYER
  5
2
100
AcDbSymbolTable
 70
7
  0
LAYER
  5
10
100
AcDbSymbolTableRecord
100
AcDbLayerTableRecord
  2
0
 70
0
 62
7
  6
CONTINUOUS
370
0
390
F
  0
LAYER
  5
43
100
AcDbSymbolTableRecord
100
AcDbLayerTableRecord
  2
reset buttons
 70
0
 62
7
  6
CONTINUOUS
370
0
390
F
  0
LAYER
  5
44
100
AcDbSymbolTableRecord
100
AcDbLayerTableRecord
  2
mounting holes
 70
0
 62
7
  6
CONTINUOUS
370
0
390
F
  0
LAYER
  5
45
100
AcDbSymbolTableRecord
100
AcDbLayerTableRecord
  2
duet outline
 70
0
 62
7
  6
CONTINUOUS
370
0
390
F
  0
LAYER
  5
46
100
AcDbSymbolTableRecord
100
AcDbLayerTableRecord
  2
header pins
 70
1
 62
7
  6
CONTINUOUS
370
0
390
F
  0
LAYER
  5
47
100
AcDbSymbolTableRecord
100
AcDbLayerTableRecord
  2
shield mount pins
 70
0
 62
7
  6
CONTINUOUS
370
0
390
F
  0
LAYER
  5
48
100
AcDbSymbolTableRecord
100
AcDbLayerTableRecord
  2
dims
 70
0
 62
7
  6
CONTINUOUS
370
0
390
F
  0
ENDTAB
  0
TABLE
  2
STYLE
  5
3
100
AcDbSymbolTable
 70
1
  0
STYLE
  5
11
100
AcDbSymbolTableRecord
100
AcDbTextStyleTableRecord
  2
Standard
 70
0
 40
0.0
 41
0.75
 50
0.0
 71
0
 42
2.5
  3
txt
  4

  0
ENDTAB
  0
TABLE
  2
VIEW
  5
6
100
AcDbSymbolTable
 70
0
  0
ENDTAB
  0
TABLE
  2
UCS
  5
7
100
AcDbSymbolTable
 70
0
  0
ENDTAB
  0
TABLE
  2
APPID
  5
9
100
AcDbSymbolTable
 70
1
  0
APPID
  5
12
100
AcDbSymbolTableRecord
100
AcDbRegAppTableRecord
  2
ACAD
 70
0
  0
ENDTAB
  0
TABLE
  2
DIMSTYLE
  5
A
100
AcDbSymbolTable
 70
1
100
AcDbDimStyleTable
 71
0
  0
DIMSTYLE
105
27
100
AcDbSymbolTableRecord
100
AcDbDimStyleTableRecord
  2
Standard
 41
2.5
 42
0.625
 43
3.75
 44
1.25
 70
0
 73
0
 74
0
 77
1
 78
8
140
2.5
141
2.5
143
0.03937007874016
147
0.625
171
3
172
1
271
2
272
2
274
3
278
44
283
0
284
8
340
11
  0
ENDTAB
  0
TABLE
  2
BLOCK_RECORD
  5
1
100
AcDbSymbolTable
 70
1
  0
BLOCK_RECORD
  5
1F
100
AcDbSymbolTableRecord
100
AcDbBlockTableRecord
  2
*Model_Space
340
22
  0
BLOCK_RECORD
  5
1B
100
AcDbSymbolTableRecord
100
AcDbBlockTableRecord
  2
*Paper_Space
340
1E
  0
BLOCK_RECORD
  5
23
100
AcDbSymbolTableRecord
100
AcDbBlockTableRecord
  2
*Paper_Space0
340
26
  0
ENDTAB
  0
ENDSEC
  0
SECTION
  2
BLOCKS
  0
BLOCK
  5
20
100
AcDbEntity
  8
0
100
AcDbBlockBegin
  2
*Model_Space
 70
0
 10
0.0
 20
0.0
 30
0.0
  3
*Model_Space
  1

  0
ENDBLK
  5
21
100
AcDbEntity
  8
0
100
AcDbBlockEnd
  0
BLOCK
  5
1C
100
AcDbEntity
 67
1
  8
0
100
AcDbBlockBegin
  2
*Paper_Space
 70
0
 10
0.0
 20
0.0
 30
0.0
  3
*Paper_Space
  1

  0
ENDBLK
  5
1D
100
AcDbEntity
 67
1
  8
0
100
AcDbBlockEnd
  0
BLOCK
  5
24
100
AcDbEntity
  8
0
100
AcDbBlockBegin
  2
*Paper_Space0
 70
0
 10
0.0
 20
0.0
 30
0.0
  3
*Paper_Space0
  1

  0
ENDBLK
  5
25
100
AcDbEntity
  8
0
100
AcDbBlockEnd
  0
ENDSEC
  0
SECTION
  2
ENTITIES
  0
LINE
  5
49
100
AcDbEntity
100
AcDbLine
  8
duet outline
 62
256
370
-1
  6
ByLayer
 10
52048.130460000000312
 20
42940.899279999997816
 30
0.0
 11
51948.1306600000025355
 21
42940.899279999997816
 31
0.0
  0
LINE
  5
4A
100
AcDbEntity
100
AcDbLine
  8
duet outline
 62
256
370
-1
  6
ByLayer
 10
52048.130460000000312
 20
43063.8987800000031712
 30
0.0
 11
52048.130460000000312
 21
42940.899279999997816
 31
0.0
  0
LINE
  5
4B
100
AcDbEntity
100
AcDbLine
  8
duet outline
 62
256
370
-1
  6
ByLayer
 10
51948.1306600000025355
 20
43063.8987800000031712
 30
0.0
 11
52048.130460000000312
 21
43063.8987800000031712
 31
0.0
  0
LINE
  5
4C
100
AcDbEntity
100
AcDbLine
  8
duet outline
 62
256
370
-1
  6
ByLayer
 10
51948.1306600000025355
 20
42940.899279999997816
 30
0.0
 11
51948.1306600000025355
 21
43063.8987800000031712
 31
0.0
  0
LINE
  5
4D
100
AcDbEntity
100
AcDbLine
  8
header pins
 62
256
370
-1
  6
ByLayer
 10
51952.0676600000006147
 20
43052.4687800000028801
 30
0.0
 11
51950.5436600000030012
 21
43052.4687800000028801
 31
0.0
  0
LINE
  5
4E
100
AcDbEntity
100
AcDbLine
  8
header pins
 62
256
370
-1
  6
ByLayer
 10
51950.5436600000030012
 20
43052.4687800000028801
 30
0.0
 11
51950.5436600000030012
 21
43050.9447799999979907
 31
0.0
  0
LINE
  5
4F
100
AcDbEntity
100
AcDbLine
  8
header pins
 62
256
370
-1
  6
ByLayer
 10
51950.5436600000030012
 20
43050.9447799999979907
 30
0.0
 11
51952.0676600000006147
 21
43050.9447799999979907
 31
0.0
  0
LINE
  5
50
100
AcDbEntity
100
AcDbLine
  8
header pins
 62
256
370
-1
  6
ByLayer
 10
51952.0676600000006147
 20
43050.9447799999979907
 30
0.0
 11
51952.0676600000006147
 21
43052.4687800000028801
 31
0.0
  0
CIRCLE
  5
51
100
AcDbEntity
100
AcDbCircle
  8
header pins
 62
256
370
-1
  6
ByLayer
 10
51951.30565999999817
 20
43049.1667799999995623
 30
0.0
 40
0.762
  0
CIRCLE
  5
52
100
AcDbEntity
100
AcDbCircle
  8
header pins
 62
256
370
-1
  6
ByLayer
 10
51951.30565999999817
 20
43046.6267799999986892
 30
0.0
 40
0.762
  0
CIRCLE
  5
53
100
AcDbEntity
100
AcDbCircle
  8
header pins
 62
256
370
-1
  6
ByLayer
 10
51951.30565999999817
 20
43044.086779999997816
 30
0.0
 40
0.762
  0
CIRCLE
  5
54
100
AcDbEntity
100
AcDbCircle
  8
header pins
 62
256
370
-1
  6
ByLayer
 10
51951.30565999999817
 20
43041.5467799999969429
 30
0.0
 40
0.762
  0
CIRCLE
  5
55
100
AcDbEntity
100
AcDbCircle
  8
header pins
 62
256
370
-1
  6
ByLayer
 10
51951.30565999999817
 20
43039.0067800000033458
 30
0.0
 40
0.762
  0
CIRCLE
  5
56
100
AcDbEntity
100
AcDbCircle
  8
header pins
 62
256
370
-1
  6
ByLayer
 10
51951.30565999999817
 20
43036.4667800000024727
 30
0.0
 40
0.762
  0
LINE
  5
57
100
AcDbEntity
100
AcDbLine
  8
header pins
 62
256
370
-1
  6
ByLayer
 10
51952.0676600000006147
 20
43032.1487800000031712
 30
0.0
 11
51950.5436600000030012
 21
43032.1487800000031712
 31
0.0
  0
LINE
  5
58
100
AcDbEntity
100
AcDbLine
  8
header pins
 62
256
370
-1
  6
ByLayer
 10
51950.5436600000030012
 20
43032.1487800000031712
 30
0.0
 11
51950.5436600000030012
 21
43030.6247799999982817
 31
0.0
  0
LINE
  5
59
100
AcDbEntity
100
AcDbLine
  8
header pins
 62
256
370
-1
  6
ByLayer
 10
51950.5436600000030012
 20
43030.6247799999982817
 30
0.0
 11
51952.0676600000006147
 21
43030.6247799999982817
 31
0.0
  0
LINE
  5
5A
100
AcDbEntity
100
AcDbLine
  8
header pins
 62
256
370
-1
  6
ByLayer
 10
51952.0676600000006147
 20
43030.6247799999982817
 30
0.0
 11
51952.0676600000006147
 21
43032.1487800000031712
 31
0.0
  0
CIRCLE
  5
5B
100
AcDbEntity
100
AcDbCircle
  8
header pins
 62
256
370
-1
  6
ByLayer
 10
51951.30565999999817
 20
43028.8467799999998533
 30
0.0
 40
0.762
  0
CIRCLE
  5
5C
100
AcDbEntity
100
AcDbCircle
  8
header pins
 62
256
370
-1
  6
ByLayer
 10
51951.30565999999817
 20
43026.3067799999989802
 30
0.0
 40
0.762
  0
CIRCLE
  5
5D
100
AcDbEntity
100
AcDbCircle
  8
header pins
 62
256
370
-1
  6
ByLayer
 10
51951.30565999999817
 20
43023.7667799999981071
 30
0.0
 40
0.762
  0
CIRCLE
  5
5E
100
AcDbEntity
100
AcDbCircle
  8
header pins
 62
256
370
-1
  6
ByLayer
 10
51951.30565999999817
 20
43021.226779999997234
 30
0.0
 40
0.762
  0
CIRCLE
  5
5F
100
AcDbEntity
100
AcDbCircle
  8
header pins
 62
256
370
-1
  6
ByLayer
 10
51951.30565999999817
 20
43018.6867800000036368
 30
0.0
 40
0.762
  0
CIRCLE
  5
60
100
AcDbEntity
100
AcDbCircle
  8
header pins
 62
256
370
-1
  6
ByLayer
 10
51951.30565999999817
 20
43016.1467800000027637
 30
0.0
 40
0.762
  0
LINE
  5
61
100
AcDbEntity
100
AcDbLine
  8
header pins
 62
256
370
-1
  6
ByLayer
 10
51952.0676600000006147
 20
43011.8287800000034622
 30
0.0
 11
51950.5436600000030012
 21
43011.8287800000034622
 31
0.0
  0
LINE
  5
62
100
AcDbEntity
100
AcDbLine
  8
header pins
 62
256
370
-1
  6
ByLayer
 10
51950.5436600000030012
 20
43011.8287800000034622
 30
0.0
 11
51950.5436600000030012
 21
43010.3047799999985727
 31
0.0
  0
LINE
  5
63
100
AcDbEntity
100
AcDbLine
  8
header pins
 62
256
370
-1
  6
ByLayer
 10
51950.5436600000030012
 20
43010.3047799999985727
 30
0.0
 11
51952.0676600000006147
 21
43010.3047799999985727
 31
0.0
  0
LINE
  5
64
100
AcDbEntity
100
AcDbLine
  8
header pins
 62
256
370
-1
  6
ByLayer
 10
51952.0676600000006147
 20
43010.3047799999985727
 30
0.0
 11
51952.0676600000006147
 21
43011.8287800000034622
 31
0.0
  0
CIRCLE
  5
65
100
AcDbEntity
100
AcDbCircle
  8
header pins
 62
256
370
-1
  6
ByLayer
 10
51951.30565999999817
 20
43008.5267800000001444
 30
0.0
 40
0.762
  0
CIRCLE
  5
66
100
AcDbEntity
100
AcDbCircle
  8
header pins
 62
256
370
-1
  6
ByLayer
 10
51951.30565999999817
 20
43005.9867799999992712
 30
0.0
 40
0.762
  0
CIRCLE
  5
67
100
AcDbEntity
100
AcDbCircle
  8
header pins
 62
256
370
-1
  6
ByLayer
 10
51951.30565999999817
 20
43003.4467799999983981
 30
0.0
 40
0.762
  0
CIRCLE
  5
68
100
AcDbEntity
100
AcDbCircle
  8
header pins
 62
256
370
-1
  6
ByLayer
 10
51951.30565999999817
 20
43000.906779999997525
 30
0.0
 40
0.762
  0
CIRCLE
  5
69
100
AcDbEntity
100
AcDbCircle
  8
header pins
 62
256
370
-1
  6
ByLayer
 10
51951.30565999999817
 20
42998.3667799999966519
 30
0.0
 40
0.762
  0
CIRCLE
  5
6A
100
AcDbEntity
100
AcDbCircle
  8
header pins
 62
256
370
-1
  6
ByLayer
 10
51951.30565999999817
 20
42995.8267800000030547
 30
0.0
 40
0.762
  0
LINE
  5
6B
100
AcDbEntity
100
AcDbLine
  8
header pins
 62
256
370
-1
  6
ByLayer
 10
51952.0676600000006147
 20
42991.5087799999964773
 30
0.0
 11
51950.5436600000030012
 21
42991.5087799999964773
 31
0.0
  0
LINE
  5
6C
100
AcDbEntity
100
AcDbLine
  8
header pins
 62
256
370
-1
  6
ByLayer
 10
51950.5436600000030012
 20
42991.5087799999964773
 30
0.0
 11
51950.5436600000030012
 21
42989.9847799999988638
 31
0.0
  0
LINE
  5
6D
100
AcDbEntity
100
AcDbLine
  8
header pins
 62
256
370
-1
  6
ByLayer
 10
51950.5436600000030012
 20
42989.9847799999988638
 30
0.0
 11
51952.0676600000006147
 21
42989.9847799999988638
 31
0.0
  0
LINE
  5
6E
100
AcDbEntity
100
AcDbLine
  8
header pins
 62
256
370
-1
  6
ByLayer
 10
51952.0676600000006147
 20
42989.9847799999988638
 30
0.0
 11
51952.0676600000006147
 21
42991.5087799999964773
 31
0.0
  0
CIRCLE
  5
6F
100
AcDbEntity
100
AcDbCircle
  8
header pins
 62
256
370
-1
  6
ByLayer
 10
51951.30565999999817
 20
42988.2067800000004354
 30
0.0
 40
0.762
  0
CIRCLE
  5
70
100
AcDbEntity
100
AcDbCircle
  8
header pins
 62
256
370
-1
  6
ByLayer
 10
51951.30565999999817
 20
42985.6667799999995623
 30
0.0
 40
0.762
  0
CIRCLE
  5
71
100
AcDbEntity
100
AcDbCircle
  8
header pins
 62
256
370
-1
  6
ByLayer
 10
51951.30565999999817
 20
42983.1267799999986892
 30
0.0
 40
0.762
  0
CIRCLE
  5
72
100
AcDbEntity
100
AcDbCircle
  8
header pins
 62
256
370
-1
  6
ByLayer
 10
51951.30565999999817
 20
42980.586779999997816
 30
0.0
 40
0.762
  0
CIRCLE
  5
73
100
AcDbEntity
100
AcDbCircle
  8
header pins
 62
256
370
-1
  6
ByLayer
 10
51951.30565999999817
 20
42978.0467799999969429
 30
0.0
 40
0.762
  0
CIRCLE
  5
74
100
AcDbEntity
100
AcDbCircle
  8
header pins
 62
256
370
-1
  6
ByLayer
 10
51951.30565999999817
 20
42975.5067800000033458
 30
0.0
 40
0.762
  0
LINE
  5
75
100
AcDbEntity
100
AcDbLine
  8
header pins
 62
256
370
-1
  6
ByLayer
 10
51952.0676600000006147
 20
42971.1887799999967683
 30
0.0
 11
51950.5436600000030012
 21
42971.1887799999967683
 31
0.0
  0
LINE
  5
76
100
AcDbEntity
100
AcDbLine
  8
header pins
 62
256
370
-1
  6
ByLayer
 10
51950.5436600000030012
 20
42971.1887799999967683
 30
0.0
 11
51950.5436600000030012
 21
42969.6647799999991548
 31
0.0
  0
LINE
  5
77
100
AcDbEntity
100
AcDbLine
  8
header pins
 62
256
370
-1
  6
ByLayer
 10
51950.5436600000030012
 20
42969.6647799999991548
 30
0.0
 11
51952.0676600000006147
 21
42969.6647799999991548
 31
0.0
  0
LINE
  5
78
100
AcDbEntity
100
AcDbLine
  8
header pins
 62
256
370
-1
  6
ByLayer
 10
51952.0676600000006147
 20
42969.6647799999991548
 30
0.0
 11
51952.0676600000006147
 21
42971.1887799999967683
 31
0.0
  0
CIRCLE
  5
79
100
AcDbEntity
100
AcDbCircle
  8
header pins
 62
256
370
-1
  6
ByLayer
 10
51951.30565999999817
 20
42967.8867800000007264
 30
0.0
 40
0.762
  0
CIRCLE
  5
7A
100
AcDbEntity
100
AcDbCircle
  8
header pins
 62
256
370
-1
  6
ByLayer
 10
51951.30565999999817
 20
42965.3467799999998533
 30
0.0
 40
0.762
  0
CIRCLE
  5
7B
100
AcDbEntity
100
AcDbCircle
  8
header pins
 62
256
370
-1
  6
ByLayer
 10
51951.30565999999817
 20
42962.8067799999989802
 30
0.0
 40
0.762
  0
LINE
  5
7C
100
AcDbEntity
100
AcDbLine
  8
header pins
 62
256
370
-1
  6
ByLayer
 10
51952.0676600000006147
 20
42961.0287800000005518
 30
0.0
 11
51950.5436600000030012
 21
42961.0287800000005518
 31
0.0
  0
LINE
  5
7D
100
AcDbEntity
100
AcDbLine
  8
header pins
 62
256
370
-1
  6
ByLayer
 10
51950.5436600000030012
 20
42961.0287800000005518
 30
0.0
 11
51950.5436600000030012
 21
42959.5047800000029383
 31
0.0
  0
LINE
  5
7E
100
AcDbEntity
100
AcDbLine
  8
header pins
 62
256
370
-1
  6
ByLayer
 10
51950.5436600000030012
 20
42959.5047800000029383
 30
0.0
 11
51952.0676600000006147
 21
42959.5047800000029383
 31
0.0
  0
LINE
  5
7F
100
AcDbEntity
100
AcDbLine
  8
header pins
 62
256
370
-1
  6
ByLayer
 10
51952.0676600000006147
 20
42959.5047800000029383
 30
0.0
 11
51952.0676600000006147
 21
42961.0287800000005518
 31
0.0
  0
CIRCLE
  5
80
100
AcDbEntity
100
AcDbCircle
  8
header pins
 62
256
370
-1
  6
ByLayer
 10
51951.30565999999817
 20
42957.726779999997234
 30
0.0
 40
0.762
  0
LINE
  5
81
100
AcDbEntity
100
AcDbLine
  8
header pins
 62
256
370
-1
  6
ByLayer
 10
51952.0676600000006147
 20
42953.4087799999979325
 30
0.0
 11
51950.5436600000030012
 21
42953.4087799999979325
 31
0.0
  0
LINE
  5
82
100
AcDbEntity
100
AcDbLine
  8
header pins
 62
256
370
-1
  6
ByLayer
 10
51950.5436600000030012
 20
42953.4087799999979325
 30
0.0
 11
51950.5436600000030012
 21
42951.884780000000319
 31
0.0
  0
LINE
  5
83
100
AcDbEntity
100
AcDbLine
  8
header pins
 62
256
370
-1
  6
ByLayer
 10
51950.5436600000030012
 20
42951.884780000000319
 30
0.0
 11
51952.0676600000006147
 21
42951.884780000000319
 31
0.0
  0
LINE
  5
84
100
AcDbEntity
100
AcDbLine
  8
header pins
 62
256
370
-1
  6
ByLayer
 10
51952.0676600000006147
 20
42951.884780000000319
 30
0.0
 11
51952.0676600000006147
 21
42953.4087799999979325
 31
0.0
  0
CIRCLE
  5
85
100
AcDbEntity
100
AcDbCircle
  8
header pins
 62
256
370
-1
  6
ByLayer
 10
51951.30565999999817
 20
42950.1067800000018906
 30
0.0
 40
0.762
  0
LINE
  5
86
100
AcDbEntity
100
AcDbLine
  8
header pins
 62
256
370
-1
  6
ByLayer
 10
52043.6219599999967613
 20
43051.6407400000025518
 30
0.0
 11
52042.0979599999991478
 21
43051.6407400000025518
 31
0.0
  0
LINE
  5
87
100
AcDbEntity
100
AcDbLine
  8
header pins
 62
256
370
-1
  6
ByLayer
 10
52042.0979599999991478
 20
43051.6407400000025518
 30
0.0
 11
52042.0979599999991478
 21
43050.1167399999976624
 31
0.0
  0
LINE
  5
88
100
AcDbEntity
100
AcDbLine
  8
header pins
 62
256
370
-1
  6
ByLayer
 10
52042.0979599999991478
 20
43050.1167399999976624
 30
0.0
 11
52043.6219599999967613
 21
43050.1167399999976624
 31
0.0
  0
LINE
  5
89
100
AcDbEntity
100
AcDbLine
  8
header pins
 62
256
370
-1
  6
ByLayer
 10
52043.6219599999967613
 20
43050.1167399999976624
 30
0.0
 11
52043.6219599999967613
 21
43051.6407400000025518
 31
0.0
  0
CIRCLE
  5
8A
100
AcDbEntity
100
AcDbCircle
  8
header pins
 62
256
370
-1
  6
ByLayer
 10
52045.3999600000024657
 20
43050.8787400000001071
 30
0.0
 40
0.762
  0
CIRCLE
  5
8B
100
AcDbEntity
100
AcDbCircle
  8
header pins
 62
256
370
-1
  6
ByLayer
 10
52042.8599600000015926
 20
43038.1787400000030175
 30
0.0
 40
0.762
  0
CIRCLE
  5
8C
100
AcDbEntity
100
AcDbCircle
  8
header pins
 62
256
370
-1
  6
ByLayer
 10
52045.3999600000024657
 20
43048.338739999999234
 30
0.0
 40
0.762
  0
CIRCLE
  5
8D
100
AcDbEntity
100
AcDbCircle
  8
header pins
 62
256
370
-1
  6
ByLayer
 10
52042.8599600000015926
 20
43035.6387400000021444
 30
0.0
 40
0.762
  0
CIRCLE
  5
8E
100
AcDbEntity
100
AcDbCircle
  8
header pins
 62
256
370
-1
  6
ByLayer
 10
52045.3999600000024657
 20
43045.7987399999983609
 30
0.0
 40
0.762
  0
CIRCLE
  5
8F
100
AcDbEntity
100
AcDbCircle
  8
header pins
 62
256
370
-1
  6
ByLayer
 10
52042.8599600000015926
 20
43033.0987400000012713
 30
0.0
 40
0.762
  0
CIRCLE
  5
90
100
AcDbEntity
100
AcDbCircle
  8
header pins
 62
256
370
-1
  6
ByLayer
 10
52045.3999600000024657
 20
43043.2587399999974878
 30
0.0
 40
0.762
  0
CIRCLE
  5
91
100
AcDbEntity
100
AcDbCircle
  8
header pins
 62
256
370
-1
  6
ByLayer
 10
52042.8599600000015926
 20
43030.5587400000003981
 30
0.0
 40
0.762
  0
CIRCLE
  5
92
100
AcDbEntity
100
AcDbCircle
  8
header pins
 62
256
370
-1
  6
ByLayer
 10
52045.3999600000024657
 20
43040.7187399999966146
 30
0.0
 40
0.762
  0
CIRCLE
  5
93
100
AcDbEntity
100
AcDbCircle
  8
header pins
 62
256
370
-1
  6
ByLayer
 10
52042.8599600000015926
 20
43028.018739999999525
 30
0.0
 40
0.762
  0
CIRCLE
  5
94
100
AcDbEntity
100
AcDbCircle
  8
header pins
 62
256
370
-1
  6
ByLayer
 10
52045.3999600000024657
 20
43038.1787400000030175
 30
0.0
 40
0.762
  0
CIRCLE
  5
95
100
AcDbEntity
100
AcDbCircle
  8
header pins
 62
256
370
-1
  6
ByLayer
 10
52042.8599600000015926
 20
43025.4787399999986519
 30
0.0
 40
0.762
  0
CIRCLE
  5
96
100
AcDbEntity
100
AcDbCircle
  8
header pins
 62
256
370
-1
  6
ByLayer
 10
52045.3999600000024657
 20
43035.6387400000021444
 30
0.0
 40
0.762
  0
CIRCLE
  5
97
100
AcDbEntity
100
AcDbCircle
  8
header pins
 62
256
370
-1
  6
ByLayer
 10
52042.8599600000015926
 20
43022.9387399999977788
 30
0.0
 40
0.762
  0
CIRCLE
  5
98
100
AcDbEntity
100
AcDbCircle
  8
header pins
 62
256
370
-1
  6
ByLayer
 10
52045.3999600000024657
 20
43033.0987400000012713
 30
0.0
 40
0.762
  0
CIRCLE
  5
99
100
AcDbEntity
100
AcDbCircle
  8
header pins
 62
256
370
-1
  6
ByLayer
 10
52042.8599600000015926
 20
43020.3987399999969057
 30
0.0
 40
0.762
  0
CIRCLE
  5
9A
100
AcDbEntity
100
AcDbCircle
  8
header pins
 62
256
370
-1
  6
ByLayer
 10
52045.3999600000024657
 20
43030.5587400000003981
 30
0.0
 40
0.762
  0
CIRCLE
  5
9B
100
AcDbEntity
100
AcDbCircle
  8
header pins
 62
256
370
-1
  6
ByLayer
 10
52042.8599600000015926
 20
43017.8587400000033085
 30
0.0
 40
0.762
  0
CIRCLE
  5
9C
100
AcDbEntity
100
AcDbCircle
  8
header pins
 62
256
370
-1
  6
ByLayer
 10
52045.3999600000024657
 20
43028.018739999999525
 30
0.0
 40
0.762
  0
CIRCLE
  5
9D
100
AcDbEntity
100
AcDbCircle
  8
header pins
 62
256
370
-1
  6
ByLayer
 10
52042.8599600000015926
 20
43015.3187400000024354
 30
0.0
 40
0.762
  0
CIRCLE
  5
9E
100
AcDbEntity
100
AcDbCircle
  8
header pins
 62
256
370
-1
  6
ByLayer
 10
52045.3999600000024657
 20
43025.4787399999986519
 30
0.0
 40
0.762
  0
CIRCLE
  5
9F
100
AcDbEntity
100
AcDbCircle
  8
header pins
 62
256
370
-1
  6
ByLayer
 10
52042.8599600000015926
 20
43012.7787400000015623
 30
0.0
 40
0.762
  0
CIRCLE
  5
A0
100
AcDbEntity
100
AcDbCircle
  8
header pins
 62
256
370
-1
  6
ByLayer
 10
52045.3999600000024657
 20
43022.9387399999977788
 30
0.0
 40
0.762
  0
CIRCLE
  5
A1
100
AcDbEntity
100
AcDbCircle
  8
header pins
 62
256
370
-1
  6
ByLayer
 10
52045.3999600000024657
 20
43020.3987399999969057
 30
0.0
 40
0.762
  0
CIRCLE
  5
A2
100
AcDbEntity
100
AcDbCircle
  8
header pins
 62
256
370
-1
  6
ByLayer
 10
52042.8599600000015926
 20
43010.2387400000006892
 30
0.0
 40
0.762
  0
CIRCLE
  5
A3
100
AcDbEntity
100
AcDbCircle
  8
header pins
 62
256
370
-1
  6
ByLayer
 10
52045.3999600000024657
 20
43017.8587400000033085
 30
0.0
 40
0.762
  0
CIRCLE
  5
A4
100
AcDbEntity
100
AcDbCircle
  8
header pins
 62
256
370
-1
  6
ByLayer
 10
52045.3999600000024657
 20
43012.7787400000015623
 30
0.0
 40
0.762
  0
CIRCLE
  5
A5
100
AcDbEntity
100
AcDbCircle
  8
header pins
 62
256
370
-1
  6
ByLayer
 10
52045.3999600000024657
 20
43010.2387400000006892
 30
0.0
 40
0.762
  0
CIRCLE
  5
A6
100
AcDbEntity
100
AcDbCircle
  8
header pins
 62
256
370
-1
  6
ByLayer
 10
52045.3999600000024657
 20
43007.6987399999998161
 30
0.0
 40
0.762
  0
CIRCLE
  5
A7
100
AcDbEntity
100
AcDbCircle
  8
header pins
 62
256
370
-1
  6
ByLayer
 10
52045.3999600000024657
 20
43005.1587399999989429
 30
0.0
 40
0.762
  0
CIRCLE
  5
A8
100
AcDbEntity
100
AcDbCircle
  8
header pins
 62
256
370
-1
  6
ByLayer
 10
52042.8599600000015926
 20
43007.6987399999998161
 30
0.0
 40
0.762
  0
CIRCLE
  5
A9
100
AcDbEntity
100
AcDbCircle
  8
header pins
 62
256
370
-1
  6
ByLayer
 10
52042.8599600000015926
 20
43005.1587399999989429
 30
0.0
 40
0.762
  0
CIRCLE
  5
AA
100
AcDbEntity
100
AcDbCircle
  8
header pins
 62
256
370
-1
  6
ByLayer
 10
52042.8599600000015926
 20
43048.338739999999234
 30
0.0
 40
0.762
  0
CIRCLE
  5
AB
100
AcDbEntity
100
AcDbCircle
  8
header pins
 62
256
370
-1
  6
ByLayer
 10
52042.8599600000015926
 20
43045.7987399999983609
 30
0.0
 40
0.762
  0
CIRCLE
  5
AC
100
AcDbEntity
100
AcDbCircle
  8
header pins
 62
256
370
-1
  6
ByLayer
 10
52042.8599600000015926
 20
43043.2587399999974878
 30
0.0
 40
0.762
  0
CIRCLE
  5
AD
100
AcDbEntity
100
AcDbCircle
  8
header pins
 62
256
370
-1
  6
ByLayer
 10
52042.8599600000015926
 20
43040.7187399999966146
 30
0.0
 40
0.762
  0
CIRCLE
  5
AE
100
AcDbEntity
100
AcDbCircle
  8
header pins
 62
256
370
-1
  6
ByLayer
 10
52042.8599600000015926
 20
43002.6187399999980698
 30
0.0
 40
0.762
  0
CIRCLE
  5
AF
100
AcDbEntity
100
AcDbCircle
  8
header pins
 62
256
370
-1
  6
ByLayer
 10
52045.3999600000024657
 20
43002.6187399999980698
 30
0.0
 40
0.762
  0
CIRCLE
  5
B0
100
AcDbEntity
100
AcDbCircle
  8
header pins
 62
256
370
-1
  6
ByLayer
 10
52045.3999600000024657
 20
43015.3187400000024354
 30
0.0
 40
0.762
  0
CIRCLE
  5
B1
100
AcDbEntity
100
AcDbCircle
  8
header pins
 62
256
370
-1
  6
ByLayer
 10
52042.8599600000015926
 20
43000.0787399999971967
 30
0.0
 40
0.762
  0
CIRCLE
  5
B2
100
AcDbEntity
100
AcDbCircle
  8
header pins
 62
256
370
-1
  6
ByLayer
 10
52045.3999600000024657
 20
43000.0787399999971967
 30
0.0
 40
0.762
  0
CIRCLE
  5
B3
100
AcDbEntity
100
AcDbCircle
  8
header pins
 62
256
370
-1
  6
ByLayer
 10
52042.8599600000015926
 20
42997.5387400000035996
 30
0.0
 40
0.762
  0
CIRCLE
  5
B4
100
AcDbEntity
100
AcDbCircle
  8
header pins
 62
256
370
-1
  6
ByLayer
 10
52045.3999600000024657
 20
42997.5387400000035996
 30
0.0
 40
0.762
  0
CIRCLE
  5
B5
100
AcDbEntity
100
AcDbCircle
  8
header pins
 62
256
370
-1
  6
ByLayer
 10
52042.8599600000015926
 20
42994.9987400000027264
 30
0.0
 40
0.762
  0
CIRCLE
  5
B6
100
AcDbEntity
100
AcDbCircle
  8
header pins
 62
256
370
-1
  6
ByLayer
 10
52045.3999600000024657
 20
42994.9987400000027264
 30
0.0
 40
0.762
  0
CIRCLE
  5
B7
100
AcDbEntity
100
AcDbCircle
  8
header pins
 62
256
370
-1
  6
ByLayer
 10
52042.8599600000015926
 20
42992.4587400000018533
 30
0.0
 40
0.762
  0
CIRCLE
  5
B8
100
AcDbEntity
100
AcDbCircle
  8
header pins
 62
256
370
-1
  6
ByLayer
 10
52045.3999600000024657
 20
42992.4587400000018533
 30
0.0
 40
0.762
  0
CIRCLE
  5
B9
100
AcDbEntity
100
AcDbCircle
  8
header pins
 62
256
370
-1
  6
ByLayer
 10
52042.8599600000015926
 20
42989.9187400000009802
 30
0.0
 40
0.762
  0
CIRCLE
  5
BA
100
AcDbEntity
100
AcDbCircle
  8
header pins
 62
256
370
-1
  6
ByLayer
 10
52045.3999600000024657
 20
42989.9187400000009802
 30
0.0
 40
0.762
  0
LINE
  5
BB
100
AcDbEntity
100
AcDbLine
  8
header pins
 62
256
370
-1
  6
ByLayer
 10
51957.1476600000023609
 20
43032.1487800000031712
 30
0.0
 11
51955.6236599999974715
 21
43032.1487800000031712
 31
0.0
  0
LINE
  5
BC
100
AcDbEntity
100
AcDbLine
  8
header pins
 62
256
370
-1
  6
ByLayer
 10
51955.6236599999974715
 20
43032.1487800000031712
 30
0.0
 11
51955.6236599999974715
 21
43030.6247799999982817
 31
0.0
  0
LINE
  5
BD
100
AcDbEntity
100
AcDbLine
  8
header pins
 62
256
370
-1
  6
ByLayer
 10
51955.6236599999974715
 20
43030.6247799999982817
 30
0.0
 11
51957.1476600000023609
 21
43030.6247799999982817
 31
0.0
  0
LINE
  5
BE
100
AcDbEntity
100
AcDbLine
  8
header pins
 62
256
370
-1
  6
ByLayer
 10
51957.1476600000023609
 20
43030.6247799999982817
 30
0.0
 11
51957.1476600000023609
 21
43032.1487800000031712
 31
0.0
  0
CIRCLE
  5
BF
100
AcDbEntity
100
AcDbCircle
  8
header pins
 62
256
370
-1
  6
ByLayer
 10
51958.9256600000007893
 20
43031.3867800000007264
 30
0.0
 40
0.762
  0
CIRCLE
  5
C0
100
AcDbEntity
100
AcDbCircle
  8
header pins
 62
256
370
-1
  6
ByLayer
 10
51956.3856599999999162
 20
43018.6867800000036368
 30
0.0
 40
0.762
  0
CIRCLE
  5
C1
100
AcDbEntity
100
AcDbCircle
  8
header pins
 62
256
370
-1
  6
ByLayer
 10
51958.9256600000007893
 20
43028.8467799999998533
 30
0.0
 40
0.762
  0
CIRCLE
  5
C2
100
AcDbEntity
100
AcDbCircle
  8
header pins
 62
256
370
-1
  6
ByLayer
 10
51956.3856599999999162
 20
43016.1467800000027637
 30
0.0
 40
0.762
  0
CIRCLE
  5
C3
100
AcDbEntity
100
AcDbCircle
  8
header pins
 62
256
370
-1
  6
ByLayer
 10
51958.9256600000007893
 20
43026.3067799999989802
 30
0.0
 40
0.762
  0
CIRCLE
  5
C4
100
AcDbEntity
100
AcDbCircle
  8
header pins
 62
256
370
-1
  6
ByLayer
 10
51956.3856599999999162
 20
43013.6067800000018906
 30
0.0
 40
0.762
  0
CIRCLE
  5
C5
100
AcDbEntity
100
AcDbCircle
  8
header pins
 62
256
370
-1
  6
ByLayer
 10
51958.9256600000007893
 20
43023.7667799999981071
 30
0.0
 40
0.762
  0
CIRCLE
  5
C6
100
AcDbEntity
100
AcDbCircle
  8
header pins
 62
256
370
-1
  6
ByLayer
 10
51956.3856599999999162
 20
43011.0667800000010175
 30
0.0
 40
0.762
  0
CIRCLE
  5
C7
100
AcDbEntity
100
AcDbCircle
  8
header pins
 62
256
370
-1
  6
ByLayer
 10
51958.9256600000007893
 20
43021.226779999997234
 30
0.0
 40
0.762
  0
CIRCLE
  5
C8
100
AcDbEntity
100
AcDbCircle
  8
header pins
 62
256
370
-1
  6
ByLayer
 10
51956.3856599999999162
 20
43008.5267800000001444
 30
0.0
 40
0.762
  0
CIRCLE
  5
C9
100
AcDbEntity
100
AcDbCircle
  8
header pins
 62
256
370
-1
  6
ByLayer
 10
51958.9256600000007893
 20
43018.6867800000036368
 30
0.0
 40
0.762
  0
CIRCLE
  5
CA
100
AcDbEntity
100
AcDbCircle
  8
header pins
 62
256
370
-1
  6
ByLayer
 10
51956.3856599999999162
 20
43005.9867799999992712
 30
0.0
 40
0.762
  0
CIRCLE
  5
CB
100
AcDbEntity
100
AcDbCircle
  8
header pins
 62
256
370
-1
  6
ByLayer
 10
51958.9256600000007893
 20
43016.1467800000027637
 30
0.0
 40
0.762
  0
CIRCLE
  5
CC
100
AcDbEntity
100
AcDbCircle
  8
header pins
 62
256
370
-1
  6
ByLayer
 10
51956.3856599999999162
 20
43003.4467799999983981
 30
0.0
 40
0.762
  0
CIRCLE
  5
CD
100
AcDbEntity
100
AcDbCircle
  8
header pins
 62
256
370
-1
  6
ByLayer
 10
51958.9256600000007893
 20
43013.6067800000018906
 30
0.0
 40
0.762
  0
CIRCLE
  5
CE
100
AcDbEntity
100
AcDbCircle
  8
header pins
 62
256
370
-1
  6
ByLayer
 10
51956.3856599999999162
 20
43000.906779999997525
 30
0.0
 40
0.762
  0
CIRCLE
  5
CF
100
AcDbEntity
100
AcDbCircle
  8
header pins
 62
256
370
-1
  6
ByLayer
 10
51958.9256600000007893
 20
43011.0667800000010175
 30
0.0
 40
0.762
  0
CIRCLE
  5
D0
100
AcDbEntity
100
AcDbCircle
  8
header pins
 62
256
370
-1
  6
ByLayer
 10
51956.3856599999999162
 20
42998.3667799999966519
 30
0.0
 40
0.762
  0
CIRCLE
  5
D1
100
AcDbEntity
100
AcDbCircle
  8
header pins
 62
256
370
-1
  6
ByLayer
 10
51958.9256600000007893
 20
43008.5267800000001444
 30
0.0
 40
0.762
  0
CIRCLE
  5
D2
100
AcDbEntity
100
AcDbCircle
  8
header pins
 62
256
370
-1
  6
ByLayer
 10
51956.3856599999999162
 20
42995.8267800000030547
 30
0.0
 40
0.762
  0
CIRCLE
  5
D3
100
AcDbEntity
100
AcDbCircle
  8
header pins
 62
256
370
-1
  6
ByLayer
 10
51958.9256600000007893
 20
43005.9867799999992712
 30
0.0
 40
0.762
  0
CIRCLE
  5
D4
100
AcDbEntity
100
AcDbCircle
  8
header pins
 62
256
370
-1
  6
ByLayer
 10
51956.3856599999999162
 20
42993.2867800000021816
 30
0.0
 40
0.762
  0
CIRCLE
  5
D5
100
AcDbEntity
100
AcDbCircle
  8
header pins
 62
256
370
-1
  6
ByLayer
 10
51958.9256600000007893
 20
43003.4467799999983981
 30
0.0
 40
0.762
  0
CIRCLE
  5
D6
100
AcDbEntity
100
AcDbCircle
  8
header pins
 62
256
370
-1
  6
ByLayer
 10
51958.9256600000007893
 20
43000.906779999997525
 30
0.0
 40
0.762
  0
CIRCLE
  5
D7
100
AcDbEntity
100
AcDbCircle
  8
header pins
 62
256
370
-1
  6
ByLayer
 10
51956.3856599999999162
 20
42990.7467800000013085
 30
0.0
 40
0.762
  0
CIRCLE
  5
D8
100
AcDbEntity
100
AcDbCircle
  8
header pins
 62
256
370
-1
  6
ByLayer
 10
51958.9256600000007893
 20
42998.3667799999966519
 30
0.0
 40
0.762
  0
CIRCLE
  5
D9
100
AcDbEntity
100
AcDbCircle
  8
header pins
 62
256
370
-1
  6
ByLayer
 10
51958.9256600000007893
 20
42993.2867800000021816
 30
0.0
 40
0.762
  0
CIRCLE
  5
DA
100
AcDbEntity
100
AcDbCircle
  8
header pins
 62
256
370
-1
  6
ByLayer
 10
51958.9256600000007893
 20
42990.7467800000013085
 30
0.0
 40
0.762
  0
CIRCLE
  5
DB
100
AcDbEntity
100
AcDbCircle
  8
header pins
 62
256
370
-1
  6
ByLayer
 10
51958.9256600000007893
 20
42988.2067800000004354
 30
0.0
 40
0.762
  0
CIRCLE
  5
DC
100
AcDbEntity
100
AcDbCircle
  8
header pins
 62
256
370
-1
  6
ByLayer
 10
51958.9256600000007893
 20
42985.6667799999995623
 30
0.0
 40
0.762
  0
CIRCLE
  5
DD
100
AcDbEntity
100
AcDbCircle
  8
header pins
 62
256
370
-1
  6
ByLayer
 10
51956.3856599999999162
 20
42988.2067800000004354
 30
0.0
 40
0.762
  0
CIRCLE
  5
DE
100
AcDbEntity
100
AcDbCircle
  8
header pins
 62
256
370
-1
  6
ByLayer
 10
51956.3856599999999162
 20
42985.6667799999995623
 30
0.0
 40
0.762
  0
CIRCLE
  5
DF
100
AcDbEntity
100
AcDbCircle
  8
header pins
 62
256
370
-1
  6
ByLayer
 10
51956.3856599999999162
 20
43028.8467799999998533
 30
0.0
 40
0.762
  0
CIRCLE
  5
E0
100
AcDbEntity
100
AcDbCircle
  8
header pins
 62
256
370
-1
  6
ByLayer
 10
51956.3856599999999162
 20
43026.3067799999989802
 30
0.0
 40
0.762
  0
CIRCLE
  5
E1
100
AcDbEntity
100
AcDbCircle
  8
header pins
 62
256
370
-1
  6
ByLayer
 10
51956.3856599999999162
 20
43023.7667799999981071
 30
0.0
 40
0.762
  0
CIRCLE
  5
E2
100
AcDbEntity
100
AcDbCircle
  8
header pins
 62
256
370
-1
  6
ByLayer
 10
51956.3856599999999162
 20
43021.226779999997234
 30
0.0
 40
0.762
  0
CIRCLE
  5
E3
100
AcDbEntity
100
AcDbCircle
  8
header pins
 62
256
370
-1
  6
ByLayer
 10
51956.3856599999999162
 20
42983.1267799999986892
 30
0.0
 40
0.762
  0
CIRCLE
  5
E4
100
AcDbEntity
100
AcDbCircle
  8
header pins
 62
256
370
-1
  6
ByLayer
 10
51958.9256600000007893
 20
42983.1267799999986892
 30
0.0
 40
0.762
  0
CIRCLE
  5
E5
100
AcDbEntity
100
AcDbCircle
  8
header pins
 62
256
370
-1
  6
ByLayer
 10
51958.9256600000007893
 20
42995.8267800000030547
 30
0.0
 40
0.762
  0
LINE
  5
E6
100
AcDbEntity
100
AcDbLine
  8
header pins
 62
256
370
-1
  6
ByLayer
 10
52045.3999600000024657
 20
43050.8787400000001071
 30
0.0
 11
52045.3593200000032084
 21
43050.8787400000001071
 31
0.0
  0
LINE
  5
E7
100
AcDbEntity
100
AcDbLine
  8
header pins
 62
256
370
-1
  6
ByLayer
 10
52045.3999600000024657
 20
43022.9387399999977788
 30
0.0
 11
52045.3999600000024657
 21
43022.9184200000017881
 31
0.0
  0
LINE
  5
E8
100
AcDbEntity
100
AcDbLine
  8
header pins
 62
256
370
-1
  6
ByLayer
 10
52045.3796399999991991
 20
43020.3987399999969057
 30
0.0
 11
52045.3999600000024657
 21
43020.3987399999969057
 31
0.0
  0
LINE
  5
E9
100
AcDbEntity
100
AcDbLine
  8
header pins
 62
256
370
-1
  6
ByLayer
 10
51959.880700000001525
 20
42982.1488800000006449
 30
0.0
 11
51959.880700000001525
 21
42982.1717399999979534
 31
0.0
  0
LINE
  5
EA
100
AcDbEntity
100
AcDbLine
  8
header pins
 62
256
370
-1
  6
ByLayer
 10
51957.6302599999980885
 20
43004.7497999999977765
 30
0.0
 11
51957.622640000001411
 21
43004.7497999999977765
 31
0.0
  0
LINE
  5
EB
100
AcDbEntity
100
AcDbLine
  8
header pins
 62
256
370
-1
  6
ByLayer
 10
51956.3856599999999162
 20
43018.6867800000036368
 30
0.0
 11
51956.4186800000024959
 21
43018.6867800000036368
 31
0.0
  0
LINE
  5
EC
100
AcDbEntity
100
AcDbLine
  8
shield mount pins
 62
256
370
-1
  6
ByLayer
 10
51952.0676600000006147
 20
42991.5087799999964773
 30
0.0
 11
51950.5436600000030012
 21
42991.5087799999964773
 31
0.0
  0
LINE
  5
ED
100
AcDbEntity
100
AcDbLine
  8
shield mount pins
 62
256
370
-1
  6
ByLayer
 10
51950.5436600000030012
 20
42991.5087799999964773
 30
0.0
 11
51950.5436600000030012
 21
42989.9847799999988638
 31
0.0
  0
LINE
  5
EE
100
AcDbEntity
100
AcDbLine
  8
shield mount pins
 62
256
370
-1
  6
ByLayer
 10
51950.5436600000030012
 20
42989.9847799999988638
 30
0.0
 11
51952.0676600000006147
 21
42989.9847799999988638
 31
0.0
  0
LINE
  5
EF
100
AcDbEntity
100
AcDbLine
  8
shield mount pins
 62
256
370
-1
  6
ByLayer
 10
51952.0676600000006147
 20
42989.9847799999988638
 30
0.0
 11
51952.0676600000006147
 21
42991.5087799999964773
 31
0.0
  0
CIRCLE
  5
F0
100
AcDbEntity
100
AcDbCircle
  8
shield mount pins
 62
256
370
-1
  6
ByLayer
 10
51951.30565999999817
 20
42988.2067800000004354
 30
0.0
 40
0.762
  0
CIRCLE
  5
F1
100
AcDbEntity
100
AcDbCircle
  8
shield mount pins
 62
256
370
-1
  6
ByLayer
 10
51951.30565999999817
 20
42985.6667799999995623
 30
0.0
 40
0.762
  0
CIRCLE
  5
F2
100
AcDbEntity
100
AcDbCircle
  8
shield mount pins
 62
256
370
-1
  6
ByLayer
 10
51951.30565999999817
 20
42983.1267799999986892
 30
0.0
 40
0.762
  0
CIRCLE
  5
F3
100
AcDbEntity
100
AcDbCircle
  8
shield mount pins
 62
256
370
-1
  6
ByLayer
 10
51951.30565999999817
 20
42980.586779999997816
 30
0.0
 40
0.762
  0
CIRCLE
  5
F4
100
AcDbEntity
100
AcDbCircle
  8
shield mount pins
 62
256
370
-1
  6
ByLayer
 10
51951.30565999999817
 20
42978.0467799999969429
 30
0.0
 40
0.762
  0
CIRCLE
  5
F5
100
AcDbEntity
100
AcDbCircle
  8
shield mount pins
 62
256
370
-1
  6
ByLayer
 10
51951.30565999999817
 20
42975.5067800000033458
 30
0.0
 40
0.762
  0
LINE
  5
F6
100
AcDbEntity
100
AcDbLine
  8
shield mount pins
 62
256
370
-1
  6
ByLayer
 10
51952.0676600000006147
 20
42971.1887799999967683
 30
0.0
 11
51950.5436600000030012
 21
42971.1887799999967683
 31
0.0
  0
LINE
  5
F7
100
AcDbEntity
100
AcDbLine
  8
shield mount pins
 62
256
370
-1
  6
ByLayer
 10
51950.5436600000030012
 20
42971.1887799999967683
 30
0.0
 11
51950.5436600000030012
 21
42969.6647799999991548
 31
0.0
  0
LINE
  5
F8
100
AcDbEntity
100
AcDbLine
  8
shield mount pins
 62
256
370
-1
  6
ByLayer
 10
51950.5436600000030012
 20
42969.6647799999991548
 30
0.0
 11
51952.0676600000006147
 21
42969.6647799999991548
 31
0.0
  0
LINE
  5
F9
100
AcDbEntity
100
AcDbLine
  8
shield mount pins
 62
256
370
-1
  6
ByLayer
 10
51952.0676600000006147
 20
42969.6647799999991548
 30
0.0
 11
51952.0676600000006147
 21
42971.1887799999967683
 31
0.0
  0
CIRCLE
  5
FA
100
AcDbEntity
100
AcDbCircle
  8
shield mount pins
 62
256
370
-1
  6
ByLayer
 10
51951.30565999999817
 20
42967.8867800000007264
 30
0.0
 40
0.762
  0
CIRCLE
  5
FB
100
AcDbEntity
100
AcDbCircle
  8
shield mount pins
 62
256
370
-1
  6
ByLayer
 10
51951.30565999999817
 20
42965.3467799999998533
 30
0.0
 40
0.762
  0
CIRCLE
  5
FC
100
AcDbEntity
100
AcDbCircle
  8
shield mount pins
 62
256
370
-1
  6
ByLayer
 10
51951.30565999999817
 20
42962.8067799999989802
 30
0.0
 40
0.762
  0
LINE
  5
FD
100
AcDbEntity
100
AcDbLine
  8
shield mount pins
 62
256
370
-1
  6
ByLayer
 10
51952.0676600000006147
 20
42961.0287800000005518
 30
0.0
 11
51950.5436600000030012
 21
42961.0287800000005518
 31
0.0
  0
LINE
  5
FE
100
AcDbEntity
100
AcDbLine
  8
shield mount pins
 62
256
370
-1
  6
ByLayer
 10
51950.5436600000030012
 20
42961.0287800000005518
 30
0.0
 11
51950.5436600000030012
 21
42959.5047800000029383
 31
0.0
  0
LINE
  5
FF
100
AcDbEntity
100
AcDbLine
  8
shield mount pins
 62
256
370
-1
  6
ByLayer
 10
51950.5436600000030012
 20
42959.5047800000029383
 30
0.0
 11
51952.0676600000006147
 21
42959.5047800000029383
 31
0.0
  0
LINE
  5
100
100
AcDbEntity
100
AcDbLine
  8
shield mount pins
 62
256
370
-1
  6
ByLayer
 10
51952.0676600000006147
 20
42959.5047800000029383
 30
0.0
 11
51952.0676600000006147
 21
42961.0287800000005518
 31
0.0
  0
CIRCLE
  5
101
100
AcDbEntity
100
AcDbCircle
  8
shield mount pins
 62
256
370
-1
  6
ByLayer
 10
51951.30565999999817
 20
42957.726779999997234
 30
0.0
 40
0.762
  0
LINE
  5
102
100
AcDbEntity
100
AcDbLine
  8
shield mount pins
 62
256
370
-1
  6
ByLayer
 10
51952.0676600000006147
 20
42953.4087799999979325
 30
0.0
 11
51950.5436600000030012
 21
42953.4087799999979325
 31
0.0
  0
LINE
  5
103
100
AcDbEntity
100
AcDbLine
  8
shield mount pins
 62
256
370
-1
  6
ByLayer
 10
51950.5436600000030012
 20
42953.4087799999979325
 30
0.0
 11
51950.5436600000030012
 21
42951.884780000000319
 31
0.0
  0
LINE
  5
104
100
AcDbEntity
100
AcDbLine
  8
shield mount pins
 62
256
370
-1
  6
ByLayer
 10
51950.5436600000030012
 20
42951.884780000000319
 30
0.0
 11
51952.0676600000006147
 21
42951.884780000000319
 31
0.0
  0
LINE
  5
105
100
AcDbEntity
100
AcDbLine
  8
shield mount pins
 62
256
370
-1
  6
ByLayer
 10
51952.0676600000006147
 20
42951.884780000000319
 30
0.0
 11
51952.0676600000006147
 21
42953.4087799999979325
 31
0.0
  0
CIRCLE
  5
106
100
AcDbEntity
100
AcDbCircle
  8
shield mount pins
 62
256
370
-1
  6
ByLayer
 10
51951.30565999999817
 20
42950.1067800000018906
 30
0.0
 40
0.762
  0
LINE
  5
107
100
AcDbEntity
100
AcDbLine
  8
shield mount pins
 62
256
370
-1
  6
ByLayer
 10
52043.6219599999967613
 20
43051.6407400000025518
 30
0.0
 11
52042.0979599999991478
 21
43051.6407400000025518
 31
0.0
  0
LINE
  5
108
100
AcDbEntity
100
AcDbLine
  8
shield mount pins
 62
256
370
-1
  6
ByLayer
 10
52042.0979599999991478
 20
43051.6407400000025518
 30
0.0
 11
52042.0979599999991478
 21
43050.1167399999976624
 31
0.0
  0
LINE
  5
109
100
AcDbEntity
100
AcDbLine
  8
shield mount pins
 62
256
370
-1
  6
ByLayer
 10
52042.0979599999991478
 20
43050.1167399999976624
 30
0.0
 11
52043.6219599999967613
 21
43050.1167399999976624
 31
0.0
  0
LINE
  5
10A
100
AcDbEntity
100
AcDbLine
  8
shield mount pins
 62
256
370
-1
  6
ByLayer
 10
52043.6219599999967613
 20
43050.1167399999976624
 30
0.0
 11
52043.6219599999967613
 21
43051.6407400000025518
 31
0.0
  0
CIRCLE
  5
10B
100
AcDbEntity
100
AcDbCircle
  8
shield mount pins
 62
256
370
-1
  6
ByLayer
 10
52045.3999600000024657
 20
43050.8787400000001071
 30
0.0
 40
0.762
  0
CIRCLE
  5
10C
100
AcDbEntity
100
AcDbCircle
  8
shield mount pins
 62
256
370
-1
  6
ByLayer
 10
52042.8599600000015926
 20
43038.1787400000030175
 30
0.0
 40
0.762
  0
CIRCLE
  5
10D
100
AcDbEntity
100
AcDbCircle
  8
shield mount pins
 62
256
370
-1
  6
ByLayer
 10
52045.3999600000024657
 20
43048.338739999999234
 30
0.0
 40
0.762
  0
CIRCLE
  5
10E
100
AcDbEntity
100
AcDbCircle
  8
shield mount pins
 62
256
370
-1
  6
ByLayer
 10
52042.8599600000015926
 20
43035.6387400000021444
 30
0.0
 40
0.762
  0
CIRCLE
  5
10F
100
AcDbEntity
100
AcDbCircle
  8
shield mount pins
 62
256
370
-1
  6
ByLayer
 10
52045.3999600000024657
 20
43045.7987399999983609
 30
0.0
 40
0.762
  0
CIRCLE
  5
110
100
AcDbEntity
100
AcDbCircle
  8
shield mount pins
 62
256
370
-1
  6
ByLayer
 10
52042.8599600000015926
 20
43033.0987400000012713
 30
0.0
 40
0.762
  0
CIRCLE
  5
111
100
AcDbEntity
100
AcDbCircle
  8
shield mount pins
 62
256
370
-1
  6
ByLayer
 10
52045.3999600000024657
 20
43043.2587399999974878
 30
0.0
 40
0.762
  0
CIRCLE
  5
112
100
AcDbEntity
100
AcDbCircle
  8
shield mount pins
 62
256
370
-1
  6
ByLayer
 10
52042.8599600000015926
 20
43030.5587400000003981
 30
0.0
 40
0.762
  0
CIRCLE
  5
113
100
AcDbEntity
100
AcDbCircle
  8
shield mount pins
 62
256
370
-1
  6
ByLayer
 10
52045.3999600000024657
 20
43040.7187399999966146
 30
0.0
 40
0.762
  0
CIRCLE
  5
114
100
AcDbEntity
100
AcDbCircle
  8
shield mount pins
 62
256
370
-1
  6
ByLayer
 10
52042.8599600000015926
 20
43028.018739999999525
 30
0.0
 40
0.762
  0
CIRCLE
  5
115
100
AcDbEntity
100
AcDbCircle
  8
shield mount pins
 62
256
370
-1
  6
ByLayer
 10
52045.3999600000024657
 20
43038.1787400000030175
 30
0.0
 40
0.762
  0
CIRCLE
  5
116
100
AcDbEntity
100
AcDbCircle
  8
shield mount pins
 62
256
370
-1
  6
ByLayer
 10
52042.8599600000015926
 20
43025.4787399999986519
 30
0.0
 40
0.762
  0
CIRCLE
  5
117
100
AcDbEntity
100
AcDbCircle
  8
shield mount pins
 62
256
370
-1
  6
ByLayer
 10
52045.3999600000024657
 20
43035.6387400000021444
 30
0.0
 40
0.762
  0
CIRCLE
  5
118
100
AcDbEntity
100
AcDbCircle
  8
shield mount pins
 62
256
370
-1
  6
ByLayer
 10
52042.8599600000015926
 20
43022.9387399999977788
 30
0.0
 40
0.762
  0
CIRCLE
  5
119
100
AcDbEntity
100
AcDbCircle
  8
shield mount pins
 62
256
370
-1
  6
ByLayer
 10
52045.3999600000024657
 20
43033.0987400000012713
 30
0.0
 40
0.762
  0
CIRCLE
  5
11A
100
AcDbEntity
100
AcDbCircle
  8
shield mount pins
 62
256
370
-1
  6
ByLayer
 10
52042.8599600000015926
 20
43020.3987399999969057
 30
0.0
 40
0.762
  0
CIRCLE
  5
11B
100
AcDbEntity
100
AcDbCircle
  8
shield mount pins
 62
256
370
-1
  6
ByLayer
 10
52045.3999600000024657
 20
43030.5587400000003981
 30
0.0
 40
0.762
  0
CIRCLE
  5
11C
100
AcDbEntity
100
AcDbCircle
  8
shield mount pins
 62
256
370
-1
  6
ByLayer
 10
52042.8599600000015926
 20
43017.8587400000033085
 30
0.0
 40
0.762
  0
CIRCLE
  5
11D
100
AcDbEntity
100
AcDbCircle
  8
shield mount pins
 62
256
370
-1
  6
ByLayer
 10
52045.3999600000024657
 20
43028.018739999999525
 30
0.0
 40
0.762
  0
CIRCLE
  5
11E
100
AcDbEntity
100
AcDbCircle
  8
shield mount pins
 62
256
370
-1
  6
ByLayer
 10
52042.8599600000015926
 20
43015.3187400000024354
 30
0.0
 40
0.762
  0
CIRCLE
  5
11F
100
AcDbEntity
100
AcDbCircle
  8
shield mount pins
 62
256
370
-1
  6
ByLayer
 10
52045.3999600000024657
 20
43025.4787399999986519
 30
0.0
 40
0.762
  0
CIRCLE
  5
120
100
AcDbEntity
100
AcDbCircle
  8
shield mount pins
 62
256
370
-1
  6
ByLayer
 10
52042.8599600000015926
 20
43012.7787400000015623
 30
0.0
 40
0.762
  0
CIRCLE
  5
121
100
AcDbEntity
100
AcDbCircle
  8
shield mount pins
 62
256
370
-1
  6
ByLayer
 10
52045.3999600000024657
 20
43022.9387399999977788
 30
0.0
 40
0.762
  0
CIRCLE
  5
122
100
AcDbEntity
100
AcDbCircle
  8
shield mount pins
 62
256
370
-1
  6
ByLayer
 10
52045.3999600000024657
 20
43020.3987399999969057
 30
0.0
 40
0.762
  0
CIRCLE
  5
123
100
AcDbEntity
100
AcDbCircle
  8
shield mount pins
 62
256
370
-1
  6
ByLayer
 10
52042.8599600000015926
 20
43010.2387400000006892
 30
0.0
 40
0.762
  0
CIRCLE
  5
124
100
AcDbEntity
100
AcDbCircle
  8
shield mount pins
 62
256
370
-1
  6
ByLayer
 10
52045.3999600000024657
 20
43017.8587400000033085
 30
0.0
 40
0.762
  0
CIRCLE
  5
125
100
AcDbEntity
100
AcDbCircle
  8
shield mount pins
 62
256
370
-1
  6
ByLayer
 10
52045.3999600000024657
 20
43012.7787400000015623
 30
0.0
 40
0.762
  0
CIRCLE
  5
126
100
AcDbEntity
100
AcDbCircle
  8
shield mount pins
 62
256
370
-1
  6
ByLayer
 10
52045.3999600000024657
 20
43010.2387400000006892
 30
0.0
 40
0.762
  0
CIRCLE
  5
127
100
AcDbEntity
100
AcDbCircle
  8
shield mount pins
 62
256
370
-1
  6
ByLayer
 10
52045.3999600000024657
 20
43007.6987399999998161
 30
0.0
 40
0.762
  0
CIRCLE
  5
128
100
AcDbEntity
100
AcDbCircle
  8
shield mount pins
 62
256
370
-1
  6
ByLayer
 10
52045.3999600000024657
 20
43005.1587399999989429
 30
0.0
 40
0.762
  0
CIRCLE
  5
129
100
AcDbEntity
100
AcDbCircle
  8
shield mount pins
 62
256
370
-1
  6
ByLayer
 10
52042.8599600000015926
 20
43007.6987399999998161
 30
0.0
 40
0.762
  0
CIRCLE
  5
12A
100
AcDbEntity
100
AcDbCircle
  8
shield mount pins
 62
256
370
-1
  6
ByLayer
 10
52042.8599600000015926
 20
43005.1587399999989429
 30
0.0
 40
0.762
  0
CIRCLE
  5
12B
100
AcDbEntity
100
AcDbCircle
  8
shield mount pins
 62
256
370
-1
  6
ByLayer
 10
52042.8599600000015926
 20
43048.338739999999234
 30
0.0
 40
0.762
  0
CIRCLE
  5
12C
100
AcDbEntity
100
AcDbCircle
  8
shield mount pins
 62
256
370
-1
  6
ByLayer
 10
52042.8599600000015926
 20
43045.7987399999983609
 30
0.0
 40
0.762
  0
CIRCLE
  5
12D
100
AcDbEntity
100
AcDbCircle
  8
shield mount pins
 62
256
370
-1
  6
ByLayer
 10
52042.8599600000015926
 20
43043.2587399999974878
 30
0.0
 40
0.762
  0
CIRCLE
  5
12E
100
AcDbEntity
100
AcDbCircle
  8
shield mount pins
 62
256
370
-1
  6
ByLayer
 10
52042.8599600000015926
 20
43040.7187399999966146
 30
0.0
 40
0.762
  0
CIRCLE
  5
12F
100
AcDbEntity
100
AcDbCircle
  8
shield mount pins
 62
256
370
-1
  6
ByLayer
 10
52042.8599600000015926
 20
43002.6187399999980698
 30
0.0
 40
0.762
  0
CIRCLE
  5
130
100
AcDbEntity
100
AcDbCircle
  8
shield mount pins
 62
256
370
-1
  6
ByLayer
 10
52045.3999600000024657
 20
43002.6187399999980698
 30
0.0
 40
0.762
  0
CIRCLE
  5
131
100
AcDbEntity
100
AcDbCircle
  8
shield mount pins
 62
256
370
-1
  6
ByLayer
 10
52045.3999600000024657
 20
43015.3187400000024354
 30
0.0
 40
0.762
  0
CIRCLE
  5
132
100
AcDbEntity
100
AcDbCircle
  8
shield mount pins
 62
256
370
-1
  6
ByLayer
 10
52042.8599600000015926
 20
43000.0787399999971967
 30
0.0
 40
0.762
  0
CIRCLE
  5
133
100
AcDbEntity
100
AcDbCircle
  8
shield mount pins
 62
256
370
-1
  6
ByLayer
 10
52045.3999600000024657
 20
43000.0787399999971967
 30
0.0
 40
0.762
  0
CIRCLE
  5
134
100
AcDbEntity
100
AcDbCircle
  8
shield mount pins
 62
256
370
-1
  6
ByLayer
 10
52042.8599600000015926
 20
42997.5387400000035996
 30
0.0
 40
0.762
  0
CIRCLE
  5
135
100
AcDbEntity
100
AcDbCircle
  8
shield mount pins
 62
256
370
-1
  6
ByLayer
 10
52045.3999600000024657
 20
42997.5387400000035996
 30
0.0
 40
0.762
  0
CIRCLE
  5
136
100
AcDbEntity
100
AcDbCircle
  8
shield mount pins
 62
256
370
-1
  6
ByLayer
 10
52042.8599600000015926
 20
42994.9987400000027264
 30
0.0
 40
0.762
  0
CIRCLE
  5
137
100
AcDbEntity
100
AcDbCircle
  8
shield mount pins
 62
256
370
-1
  6
ByLayer
 10
52045.3999600000024657
 20
42994.9987400000027264
 30
0.0
 40
0.762
  0
CIRCLE
  5
138
100
AcDbEntity
100
AcDbCircle
  8
shield mount pins
 62
256
370
-1
  6
ByLayer
 10
52042.8599600000015926
 20
42992.4587400000018533
 30
0.0
 40
0.762
  0
CIRCLE
  5
139
100
AcDbEntity
100
AcDbCircle
  8
shield mount pins
 62
256
370
-1
  6
ByLayer
 10
52045.3999600000024657
 20
42992.4587400000018533
 30
0.0
 40
0.762
  0
CIRCLE
  5
13A
100
AcDbEntity
100
AcDbCircle
  8
shield mount pins
 62
256
370
-1
  6
ByLayer
 10
52042.8599600000015926
 20
42989.9187400000009802
 30
0.0
 40
0.762
  0
CIRCLE
  5
13B
100
AcDbEntity
100
AcDbCircle
  8
shield mount pins
 62
256
370
-1
  6
ByLayer
 10
52045.3999600000024657
 20
42989.9187400000009802
 30
0.0
 40
0.762
  0
LINE
  5
13C
100
AcDbEntity
100
AcDbLine
  8
shield mount pins
 62
256
370
-1
  6
ByLayer
 10
52045.3999600000024657
 20
43050.8787400000001071
 30
0.0
 11
52045.3593200000032084
 21
43050.8787400000001071
 31
0.0
  0
LINE
  5
13D
100
AcDbEntity
100
AcDbLine
  8
shield mount pins
 62
256
370
-1
  6
ByLayer
 10
52045.3999600000024657
 20
43022.9387399999977788
 30
0.0
 11
52045.3999600000024657
 21
43022.9184200000017881
 31
0.0
  0
LINE
  5
13E
100
AcDbEntity
100
AcDbLine
  8
shield mount pins
 62
256
370
-1
  6
ByLayer
 10
52045.3796399999991991
 20
43020.3987399999969057
 30
0.0
 11
52045.3999600000024657
 21
43020.3987399999969057
 31
0.0
  0
LINE
  5
13F
100
AcDbEntity
100
AcDbLine
  8
reset buttons
 62
1
370
-1
  6
ByLayer
 10
52022.1284799999993993
 20
42957.1476600000023609
 30
0.0
 11
52023.129240000002028
 21
42957.1476600000023609
 31
0.0
  0
LINE
  5
140
100
AcDbEntity
100
AcDbLine
  8
reset buttons
 62
1
370
-1
  6
ByLayer
 10
52023.129240000002028
 20
42957.1476600000023609
 30
0.0
 11
52023.129240000002028
 21
42960.3480599999966216
 31
0.0
  0
LINE
  5
141
100
AcDbEntity
100
AcDbLine
  8
reset buttons
 62
1
370
-1
  6
ByLayer
 10
52023.129240000002028
 20
42960.3480599999966216
 30
0.0
 11
52022.1284799999993993
 21
42960.3480599999966216
 31
0.0
  0
LINE
  5
142
100
AcDbEntity
100
AcDbLine
  8
reset buttons
 62
1
370
-1
  6
ByLayer
 10
52022.1284799999993993
 20
42960.3480599999966216
 30
0.0
 11
52022.1284799999993993
 21
42957.1476600000023609
 31
0.0
  0
LINE
  5
143
100
AcDbEntity
100
AcDbLine
  8
reset buttons
 62
1
370
-1
  6
ByLayer
 10
52022.1284799999993993
 20
42963.9497800000026473
 30
0.0
 11
52023.129240000002028
 21
42963.9497800000026473
 31
0.0
  0
LINE
  5
144
100
AcDbEntity
100
AcDbLine
  8
reset buttons
 62
1
370
-1
  6
ByLayer
 10
52023.129240000002028
 20
42963.9497800000026473
 30
0.0
 11
52023.129240000002028
 21
42967.150179999996908
 31
0.0
  0
LINE
  5
145
100
AcDbEntity
100
AcDbLine
  8
reset buttons
 62
1
370
-1
  6
ByLayer
 10
52023.129240000002028
 20
42967.150179999996908
 30
0.0
 11
52022.1284799999993993
 21
42967.150179999996908
 31
0.0
  0
LINE
  5
146
100
AcDbEntity
100
AcDbLine
  8
reset buttons
 62
1
370
-1
  6
ByLayer
 10
52022.1284799999993993
 20
42967.150179999996908
 30
0.0
 11
52022.1284799999993993
 21
42963.9497800000026473
 31
0.0
  0
LINE
  5
147
100
AcDbEntity
100
AcDbLine
  8
reset buttons
 62
1
370
-1
  6
ByLayer
 10
52018.1305199999987963
 20
42963.9497800000026473
 30
0.0
 11
52019.1312800000014249
 21
42963.9497800000026473
 31
0.0
  0
LINE
  5
148
100
AcDbEntity
100
AcDbLine
  8
reset buttons
 62
1
370
-1
  6
ByLayer
 10
52019.1312800000014249
 20
42963.9497800000026473
 30
0.0
 11
52019.1312800000014249
 21
42967.150179999996908
 31
0.0
  0
LINE
  5
149
100
AcDbEntity
100
AcDbLine
  8
reset buttons
 62
1
370
-1
  6
ByLayer
 10
52019.1312800000014249
 20
42967.150179999996908
 30
0.0
 11
52018.1305199999987963
 21
42967.150179999996908
 31
0.0
  0
LINE
  5
14A
100
AcDbEntity
100
AcDbLine
  8
reset buttons
 62
1
370
-1
  6
ByLayer
 10
52018.1305199999987963
 20
42967.150179999996908
 30
0.0
 11
52018.1305199999987963
 21
42963.9497800000026473
 31
0.0
  0
LINE
  5
14B
100
AcDbEntity
100
AcDbLine
  8
reset buttons
 62
1
370
-1
  6
ByLayer
 10
52018.1305199999987963
 20
42957.1476600000023609
 30
0.0
 11
52019.1312800000014249
 21
42957.1476600000023609
 31
0.0
  0
LINE
  5
14C
100
AcDbEntity
100
AcDbLine
  8
reset buttons
 62
1
370
-1
  6
ByLayer
 10
52019.1312800000014249
 20
42957.1476600000023609
 30
0.0
 11
52019.1312800000014249
 21
42960.3480599999966216
 31
0.0
  0
LINE
  5
14D
100
AcDbEntity
100
AcDbLine
  8
reset buttons
 62
1
370
-1
  6
ByLayer
 10
52019.1312800000014249
 20
42960.3480599999966216
 30
0.0
 11
52018.1305199999987963
 21
42960.3480599999966216
 31
0.0
  0
LINE
  5
14E
100
AcDbEntity
100
AcDbLine
  8
reset buttons
 62
1
370
-1
  6
ByLayer
 10
52018.1305199999987963
 20
42960.3480599999966216
 30
0.0
 11
52018.1305199999987963
 21
42957.1476600000023609
 31
0.0
  0
LINE
  5
14F
100
AcDbEntity
100
AcDbLine
  8
reset buttons
 62
1
370
-1
  6
ByLayer
 10
51978.6284400000004098
 20
42942.9008000000030734
 30
0.0
 11
51978.6284400000004098
 21
42941.9000400000004447
 31
0.0
  0
LINE
  5
150
100
AcDbEntity
100
AcDbLine
  8
reset buttons
 62
1
370
-1
  6
ByLayer
 10
51978.6284400000004098
 20
42941.9000400000004447
 30
0.0
 11
51981.8288400000019465
 21
42941.9000400000004447
 31
0.0
  0
LINE
  5
151
100
AcDbEntity
100
AcDbLine
  8
reset buttons
 62
1
370
-1
  6
ByLayer
 10
51981.8288400000019465
 20
42941.9000400000004447
 30
0.0
 11
51981.8288400000019465
 21
42942.9008000000030734
 31
0.0
  0
LINE
  5
152
100
AcDbEntity
100
AcDbLine
  8
reset buttons
 62
1
370
-1
  6
ByLayer
 10
51981.8288400000019465
 20
42942.9008000000030734
 30
0.0
 11
51978.6284400000004098
 21
42942.9008000000030734
 31
0.0
  0
LINE
  5
153
100
AcDbEntity
100
AcDbLine
  8
reset buttons
 62
1
370
-1
  6
ByLayer
 10
51985.4305600000006962
 20
42942.9008000000030734
 30
0.0
 11
51985.4305600000006962
 21
42941.9000400000004447
 31
0.0
  0
LINE
  5
154
100
AcDbEntity
100
AcDbLine
  8
reset buttons
 62
1
370
-1
  6
ByLayer
 10
51985.4305600000006962
 20
42941.9000400000004447
 30
0.0
 11
51988.6309600000022328
 21
42941.9000400000004447
 31
0.0
  0
LINE
  5
155
100
AcDbEntity
100
AcDbLine
  8
reset buttons
 62
1
370
-1
  6
ByLayer
 10
51988.6309600000022328
 20
42941.9000400000004447
 30
0.0
 11
51988.6309600000022328
 21
42942.9008000000030734
 31
0.0
  0
LINE
  5
156
100
AcDbEntity
100
AcDbLine
  8
reset buttons
 62
1
370
-1
  6
ByLayer
 10
51988.6309600000022328
 20
42942.9008000000030734
 30
0.0
 11
51985.4305600000006962
 21
42942.9008000000030734
 31
0.0
  0
LINE
  5
157
100
AcDbEntity
100
AcDbLine
  8
reset buttons
 62
1
370
-1
  6
ByLayer
 10
51985.4305600000006962
 20
42946.8987599999964004
 30
0.0
 11
51985.4305600000006962
 21
42945.8980000000010477
 31
0.0
  0
LINE
  5
158
100
AcDbEntity
100
AcDbLine
  8
reset buttons
 62
1
370
-1
  6
ByLayer
 10
51985.4305600000006962
 20
42945.8980000000010477
 30
0.0
 11
51988.6309600000022328
 21
42945.8980000000010477
 31
0.0
  0
LINE
  5
159
100
AcDbEntity
100
AcDbLine
  8
reset buttons
 62
1
370
-1
  6
ByLayer
 10
51988.6309600000022328
 20
42945.8980000000010477
 30
0.0
 11
51988.6309600000022328
 21
42946.8987599999964004
 31
0.0
  0
LINE
  5
15A
100
AcDbEntity
100
AcDbLine
  8
reset buttons
 62
1
370
-1
  6
ByLayer
 10
51988.6309600000022328
 20
42946.8987599999964004
 30
0.0
 11
51985.4305600000006962
 21
42946.8987599999964004
 31
0.0
  0
LINE
  5
15B
100
AcDbEntity
100
AcDbLine
  8
reset buttons
 62
1
370
-1
  6
ByLayer
 10
51978.6284400000004098
 20
42946.8987599999964004
 30
0.0
 11
51978.6284400000004098
 21
42945.8980000000010477
 31
0.0
  0
LINE
  5
15C
100
AcDbEntity
100
AcDbLine
  8
reset buttons
 62
1
370
-1
  6
ByLayer
 10
51978.6284400000004098
 20
42945.8980000000010477
 30
0.0
 11
51981.8288400000019465
 21
42945.8980000000010477
 31
0.0
  0
LINE
  5
15D
100
AcDbEntity
100
AcDbLine
  8
reset buttons
 62
1
370
-1
  6
ByLayer
 10
51981.8288400000019465
 20
42945.8980000000010477
 30
0.0
 11
51981.8288400000019465
 21
42946.8987599999964004
 31
0.0
  0
LINE
  5
15E
100
AcDbEntity
100
AcDbLine
  8
reset buttons
 62
1
370
-1
  6
ByLayer
 10
51981.8288400000019465
 20
42946.8987599999964004
 30
0.0
 11
51978.6284400000004098
 21
42946.8987599999964004
 31
0.0
  0
LINE
  5
15F
100
AcDbEntity
100
AcDbLine
  8
reset buttons
 62
1
370
-1
  6
ByLayer
 10
51989.1287999999985914
 20
42946.8987599999964004
 30
0.0
 11
51989.1313399999999092
 21
42946.8987599999964004
 31
0.0
  0
CIRCLE
  5
160
100
AcDbEntity
100
AcDbCircle
  8
mounting holes
 62
1
370
-1
  6
ByLayer
 10
52044.1299599999983911
 20
43059.8982800000012503
 30
0.0
 40
2.4993600000000002
  0
CIRCLE
  5
161
100
AcDbEntity
100
AcDbCircle
  8
mounting holes
 62
1
370
-1
  6
ByLayer
 10
51952.1311599999971804
 20
43059.8982800000012503
 30
0.0
 40
2.4993600000000002
  0
CIRCLE
  5
162
100
AcDbEntity
100
AcDbCircle
  8
mounting holes
 62
1
370
-1
  6
ByLayer
 10
52044.1299599999983911
 20
42944.8997799999997369
 30
0.0
 40
2.4993600000000002
  0
CIRCLE
  5
163
100
AcDbEntity
100
AcDbCircle
  8
mounting holes
 62
1
370
-1
  6
ByLayer
 10
51952.1311599999971804
 20
42944.8997799999997369
 30
0.0
 40
2.4993600000000002
  0
LINE
  5
164
100
AcDbEntity
100
AcDbLine
  8
0
 62
256
370
-1
  6
ByLayer
 10
51952.1311599999971804
 20
42944.8997799999997369
 30
0.0
 11
51952.1311599999971804
 21
42944.9251799999983632
 31
0.0
  0
LINE
  5
165
100
AcDbEntity
100
AcDbLine
  8
0
 62
256
370
-1
  6
ByLayer
 10
51952.1311599999971804
 20
42944.8997799999997369
 30
0.0
 11
51952.1311599999971804
 21
42944.9251799999983632
 31
0.0
  0
LINE
  5
166
100
AcDbEntity
100
AcDbLine
  8
0
 62
256
370
-1
  6
ByLayer
 10
51952.1311599999971804
 20
42944.9124799999990501
 30
0.0
 11
51952.1311599999971804
 21
42944.9378799999976764
 31
0.0
  0
LINE
  5
167
100
AcDbEntity
100
AcDbLine
  8
0
 62
256
370
-1
  6
DASHDOTX2
 10
51952.1311599999971804
 20
42944.8997799999997369
 30
0.0
 11
51952.1311599999971804
 21
43059.8982800000012503
 31
0.0
  0
LINE
  5
168
100
AcDbEntity
100
AcDbLine
  8
0
 62
256
370
-1
  6
DASHDOTX2
 10
51969.1311599999971804
 20
42944.8997799999997369
 30
0.0
 11
51969.1311599999971804
 21
43059.8982800000012503
 31
0.0
  0
DIMENSION
  5
169
100
AcDbEntity
  8
dims
 62
256
370
-1
  6
ByLayer
100
AcDbDimension
 10
51969.1311599999971804
 20
42934.0
 30
0.0
 11
51960.6311599999971804
 21
42935.875
 31
0.0
 70
0
 71
5
 72
0
 41
1.0
 42
0.0
  1

  3
Standard
100
AcDbAlignedDimension
 13
51952.1311599999971804
 23
42944.8997799999997369
 33
0.0
 14
51969.1311599999971804
 24
42944.8997799999997369
 34
0.0
 50
0.0
100
AcDbRotatedDimension
  0
LEADER
  5
16A
  8
dims
 62
256
370
-1
  6
ByLayer
100
AcDbEntity
100
AcDbLeader
  3
Standard
 71
1
 72
0
 73
3
 74
0
 75
0
 40
1.0
 41
10.0
 76
2
 10
51969.0
 20
43030.0
 10
51933.0
 20
43046.0
  0
MTEXT
  5
16B
100
AcDbEntity
100
AcDbMText
  8
dims
 62
256
370
-1
  6
ByLayer
 10
51911.0
 20
43048.0
 30
0.0
 40
2.0
 41
100.0
 71
1
 72
2
  1
Inner face of \Pconnector shells -\Pstepper connectors \Palong this line
  7
standard
 50
0.0
 73
0
 44
1.0
  0
MTEXT
  5
16C
100
AcDbEntity
100
AcDbMText
  8
dims
 62
256
370
-1
  6
ByLayer
 10
51962.2088083477137843
 20
42936.989390079776058
 30
0.0
 40
2.0
 41
100.0
 71
1
 72
0
  1
+/-3
  7
standard
 50
0.0
 73
1
 44
1.0
  0
MTEXT
  5
16D
100
AcDbEntity
100
AcDbMText
  8
shield mount pins
 62
256
370
-1
  6
ByLayer
 10
51994.4016941744848737
 20
42952.0536853553712717
 30
0.0
 40
2.0
 41
100.0
 71
1
 72
0
  1
Do not cover mounting\Pholes reset switches and\PDuet pins (red).
  7
standard
 50
0.0
 73
1
 44
1.0
  0
ENDSEC
  0
SECTION
  2
OBJECTS
  0
DICTIONARY
  5
C
100
AcDbDictionary
280
0
281
1
  3
ACAD_GROUP
350
D
  3
ACAD_LAYOUT
350
1A
  3
ACAD_MLINESTYLE
350
17
  3
ACAD_PLOTSETTINGS
350
19
  3
ACAD_PLOTSTYLENAME
350
E
  3
AcDbVariableDictionary
350
16E
  0
DICTIONARY
  5
D
100
AcDbDictionary
280
0
281
1
  0
ACDBDICTIONARYWDFLT
  5
E
100
AcDbDictionary
281
1
  3
Normal
350
F
100
AcDbDictionaryWithDefault
340
F
  0
ACDBPLACEHOLDER
  5
F
  0
DICTIONARY
  5
17
100
AcDbDictionary
280
0
281
1
  3
Standard
350
18
  0
MLINESTYLE
  5
18
100
AcDbMlineStyle
  2
STANDARD
 70
0
  3

 62
256
 51
90.0
 52
90.0
 71
2
 49
0.5
 62
256
  6
BYLAYER
 49
-0.5
 62
256
  6
BYLAYER
  0
DICTIONARY
  5
19
100
AcDbDictionary
280
0
281
1
  0
DICTIONARY
  5
1A
100
AcDbDictionary
281
1
  3
Layout1
350
1E
  3
Layout2
350
26
  3
Model
350
22
  0
LAYOUT
  5
1E
100
AcDbPlotSettings
  1

  2
C:\Program Files\AutoCAD 2002\plotters\DWF ePlot (optimized for plotting).pc3
  4

  6

 40
0.0
 41
0.0
 42
0.0
 43
0.0
 44
0.0
 45
0.0
 46
0.0
 47
0.0
 48
0.0
 49
0.0
140
0.0
141
0.0
142
1.0
143
1.0
 70
688
 72
0
 73
0
 74
5
  7

 75
16
147
1.0
148
0.0
149
0.0
100
AcDbLayout
  1
Layout1
 70
1
 71
1
 10
0.0
 20
0.0
 11
420.0
 21
297.0
 12
0.0
 22
0.0
 32
0.0
 14
100000000000000000000.0
 24
100000000000000000000.0
 34
100000000000000000000.0
 15
-100000000000000000000.0
 25
-100000000000000000000.0
 35
-100000000000000000000.0
146
0.0
 13
0.0
 23
0.0
 33
0.0
 16
1.0
 26
0.0
 36
0.0
 17
0.0
 27
1.0
 37
0.0
 76
0
330
1B
  0
LAYOUT
  5
22
100
AcDbPlotSettings
  1

  2
C:\Program Files\AutoCAD 2002\plotters\DWF ePlot (optimized for plotting).pc3
  4

  6

 40
0.0
 41
0.0
 42
0.0
 43
0.0
 44
0.0
 45
0.0
 46
0.0
 47
0.0
 48
0.0
 49
0.0
140
0.0
141
0.0
142
1.0
143
1.0
 70
1712
 72
0
 73
0
 74
0
  7

 75
0
147
1.0
148
0.0
149
0.0
100
AcDbLayout
  1
Model
 70
1
 71
0
 10
0.0
 20
0.0
 11
12.0
 21
9.0
 12
0.0
 22
0.0
 32
0.0
 14
0.0
 24
0.0
 34
0.0
 15
0.0
 25
0.0
 35
0.0
146
0.0
 13
0.0
 23
0.0
 33
0.0
 16
1.0
 26
0.0
 36
0.0
 17
0.0
 27
1.0
 37
0.0
 76
0
330
1F
  0
LAYOUT
  5
26
100
AcDbPlotSettings
  1

  2
C:\Program Files\AutoCAD 2002\plotters\DWF ePlot (optimized for plotting).pc3
  4

  6

 40
0.0
 41
0.0
 42
0.0
 43
0.0
 44
0.0
 45
0.0
 46
0.0
 47
0.0
 48
0.0
 49
0.0
140
0.0
141
0.0
142
1.0
143
1.0
 70
688
 72
0
 73
0
 74
5
  7

 75
16
147
1.0
148
0.0
149
0.0
100
AcDbLayout
  1
Layout2
 70
1
 71
2
 10
0.0
 20
0.0
 11
12.0
 21
9.0
 12
0.0
 22
0.0
 32
0.0
 14
0.0
 24
0.0
 34
0.0
 15
0.0
 25
0.0
 35
0.0
146
0.0
 13
0.0
 23
0.0
 33
0.0
 16
1.0
 26
0.0
 36
0.0
 17
0.0
 27
1.0
 37
0.0
 76
0
330
23
  0
DICTIONARY
  5
16E
100
AcDbDictionary
281
1
  3
DIMASSOC
350
170
  3
HIDETEXT
350
16F
  0
DICTIONARYVAR
  5
16F
100
DictionaryVariables
280
0
  1
2
  0
DICTIONARYVAR
  5
170
100
DictionaryVariables
280
0
  1
1
  0
ENDSEC
  0
EOF
