G04 (created by PCBNEW (2013-05-18 BZR 4017)-stable) date Wed 14 Jan 2015 22:46:58 GMT*
%MOIN*%
G04 Gerber Fmt 3.4, Leading zero omitted, Abs format*
%FSLAX34Y34*%
G01*
G70*
G90*
G04 APERTURE LIST*
%ADD10C,0.00590551*%
%ADD11C,0.00984252*%
%ADD12C,0.012*%
%ADD13C,0.011811*%
%ADD14C,0.005*%
%ADD15C,0.0079*%
%ADD16C,0.006*%
%ADD17C,0.0059*%
%ADD18C,0.01*%
%ADD19C,0.015*%
%ADD20C,0.0039*%
%ADD21C,0.008*%
%ADD22C,0.001975*%
%ADD23C,0.002*%
%ADD24C,0.0047*%
%ADD25C,0.0024*%
%ADD26C,0.0016*%
G04 APERTURE END LIST*
G54D10*
G54D11*
X51031Y-20565D02*
X51275Y-20565D01*
X51143Y-20715D01*
X51200Y-20715D01*
X51237Y-20734D01*
X51256Y-20753D01*
X51275Y-20790D01*
X51275Y-20884D01*
X51256Y-20921D01*
X51237Y-20940D01*
X51200Y-20959D01*
X51087Y-20959D01*
X51050Y-20940D01*
X51031Y-20921D01*
X51406Y-20696D02*
X51500Y-20959D01*
X51593Y-20696D01*
X51706Y-20565D02*
X51949Y-20565D01*
X51818Y-20715D01*
X51874Y-20715D01*
X51912Y-20734D01*
X51931Y-20753D01*
X51949Y-20790D01*
X51949Y-20884D01*
X51931Y-20921D01*
X51912Y-20940D01*
X51874Y-20959D01*
X51762Y-20959D01*
X51724Y-20940D01*
X51706Y-20921D01*
X50543Y-20565D02*
X50356Y-20565D01*
X50337Y-20753D01*
X50356Y-20734D01*
X50393Y-20715D01*
X50487Y-20715D01*
X50525Y-20734D01*
X50543Y-20753D01*
X50562Y-20790D01*
X50562Y-20884D01*
X50543Y-20921D01*
X50525Y-20940D01*
X50487Y-20959D01*
X50393Y-20959D01*
X50356Y-20940D01*
X50337Y-20921D01*
X50693Y-20696D02*
X50787Y-20959D01*
X50881Y-20696D01*
X49550Y-20809D02*
X49850Y-20809D01*
X49700Y-20959D02*
X49700Y-20659D01*
X49999Y-20696D02*
X50093Y-20959D01*
X50187Y-20696D01*
G54D12*
X50014Y-57228D02*
X50014Y-56771D01*
X42728Y-59392D02*
X42728Y-59592D01*
X43042Y-59592D02*
X42442Y-59592D01*
X42442Y-59307D01*
X43042Y-58821D02*
X42728Y-58821D01*
X42671Y-58849D01*
X42642Y-58907D01*
X42642Y-59021D01*
X42671Y-59078D01*
X43014Y-58821D02*
X43042Y-58878D01*
X43042Y-59021D01*
X43014Y-59078D01*
X42957Y-59107D01*
X42900Y-59107D01*
X42842Y-59078D01*
X42814Y-59021D01*
X42814Y-58878D01*
X42785Y-58821D01*
X42642Y-58535D02*
X43042Y-58535D01*
X42700Y-58535D02*
X42671Y-58507D01*
X42642Y-58450D01*
X42642Y-58364D01*
X42671Y-58307D01*
X42728Y-58278D01*
X43042Y-58278D01*
X42442Y-57878D02*
X42442Y-57821D01*
X42471Y-57764D01*
X42500Y-57735D01*
X42557Y-57707D01*
X42671Y-57678D01*
X42814Y-57678D01*
X42928Y-57707D01*
X42985Y-57735D01*
X43014Y-57764D01*
X43042Y-57821D01*
X43042Y-57878D01*
X43014Y-57935D01*
X42985Y-57964D01*
X42928Y-57992D01*
X42814Y-58021D01*
X42671Y-58021D01*
X42557Y-57992D01*
X42500Y-57964D01*
X42471Y-57935D01*
X42442Y-57878D01*
X50928Y-58442D02*
X50928Y-58642D01*
X51242Y-58642D02*
X50642Y-58642D01*
X50642Y-58357D01*
X51242Y-57871D02*
X50928Y-57871D01*
X50871Y-57899D01*
X50842Y-57957D01*
X50842Y-58071D01*
X50871Y-58128D01*
X51214Y-57871D02*
X51242Y-57928D01*
X51242Y-58071D01*
X51214Y-58128D01*
X51157Y-58157D01*
X51100Y-58157D01*
X51042Y-58128D01*
X51014Y-58071D01*
X51014Y-57928D01*
X50985Y-57871D01*
X50842Y-57585D02*
X51242Y-57585D01*
X50900Y-57585D02*
X50871Y-57557D01*
X50842Y-57500D01*
X50842Y-57414D01*
X50871Y-57357D01*
X50928Y-57328D01*
X51242Y-57328D01*
X50642Y-56928D02*
X50642Y-56871D01*
X50671Y-56814D01*
X50700Y-56785D01*
X50757Y-56757D01*
X50871Y-56728D01*
X51014Y-56728D01*
X51128Y-56757D01*
X51185Y-56785D01*
X51214Y-56814D01*
X51242Y-56871D01*
X51242Y-56928D01*
X51214Y-56985D01*
X51185Y-57014D01*
X51128Y-57042D01*
X51014Y-57071D01*
X50871Y-57071D01*
X50757Y-57042D01*
X50700Y-57014D01*
X50671Y-56985D01*
X50642Y-56928D01*
G54D11*
X67071Y-42383D02*
X67090Y-42402D01*
X67109Y-42458D01*
X67109Y-42496D01*
X67090Y-42552D01*
X67053Y-42590D01*
X67015Y-42608D01*
X66940Y-42627D01*
X66884Y-42627D01*
X66809Y-42608D01*
X66771Y-42590D01*
X66734Y-42552D01*
X66715Y-42496D01*
X66715Y-42458D01*
X66734Y-42402D01*
X66753Y-42383D01*
X66903Y-42215D02*
X66903Y-42084D01*
X67109Y-42027D02*
X67109Y-42215D01*
X66715Y-42215D01*
X66715Y-42027D01*
X67109Y-41634D02*
X66921Y-41765D01*
X67109Y-41859D02*
X66715Y-41859D01*
X66715Y-41709D01*
X66734Y-41671D01*
X66753Y-41652D01*
X66790Y-41634D01*
X66846Y-41634D01*
X66884Y-41652D01*
X66903Y-41671D01*
X66921Y-41709D01*
X66921Y-41859D01*
X67109Y-41465D02*
X66715Y-41465D01*
X67109Y-41240D01*
X66715Y-41240D01*
X66715Y-40677D02*
X66715Y-40602D01*
X66734Y-40565D01*
X66771Y-40527D01*
X66846Y-40509D01*
X66978Y-40509D01*
X67053Y-40527D01*
X67090Y-40565D01*
X67109Y-40602D01*
X67109Y-40677D01*
X67090Y-40715D01*
X67053Y-40752D01*
X66978Y-40771D01*
X66846Y-40771D01*
X66771Y-40752D01*
X66734Y-40715D01*
X66715Y-40677D01*
X67090Y-40359D02*
X67109Y-40302D01*
X67109Y-40209D01*
X67090Y-40171D01*
X67071Y-40153D01*
X67034Y-40134D01*
X66996Y-40134D01*
X66959Y-40153D01*
X66940Y-40171D01*
X66921Y-40209D01*
X66903Y-40284D01*
X66884Y-40321D01*
X66865Y-40340D01*
X66828Y-40359D01*
X66790Y-40359D01*
X66753Y-40340D01*
X66734Y-40321D01*
X66715Y-40284D01*
X66715Y-40190D01*
X66734Y-40134D01*
X67109Y-39965D02*
X66715Y-39965D01*
X66903Y-39965D02*
X66903Y-39740D01*
X67109Y-39740D02*
X66715Y-39740D01*
X67109Y-39065D02*
X67109Y-39253D01*
X66715Y-39253D01*
X67109Y-38934D02*
X66846Y-38934D01*
X66715Y-38934D02*
X66734Y-38953D01*
X66753Y-38934D01*
X66734Y-38915D01*
X66715Y-38934D01*
X66753Y-38934D01*
X67090Y-38578D02*
X67109Y-38615D01*
X67109Y-38690D01*
X67090Y-38728D01*
X67071Y-38746D01*
X67034Y-38765D01*
X66921Y-38765D01*
X66884Y-38746D01*
X66865Y-38728D01*
X66846Y-38690D01*
X66846Y-38615D01*
X66865Y-38578D01*
X67090Y-38259D02*
X67109Y-38297D01*
X67109Y-38371D01*
X67090Y-38409D01*
X67053Y-38428D01*
X66903Y-38428D01*
X66865Y-38409D01*
X66846Y-38371D01*
X66846Y-38297D01*
X66865Y-38259D01*
X66903Y-38240D01*
X66940Y-38240D01*
X66978Y-38428D01*
X66846Y-38072D02*
X67109Y-38072D01*
X66884Y-38072D02*
X66865Y-38053D01*
X66846Y-38015D01*
X66846Y-37959D01*
X66865Y-37922D01*
X66903Y-37903D01*
X67109Y-37903D01*
X67090Y-37547D02*
X67109Y-37584D01*
X67109Y-37659D01*
X67090Y-37697D01*
X67071Y-37715D01*
X67034Y-37734D01*
X66921Y-37734D01*
X66884Y-37715D01*
X66865Y-37697D01*
X66846Y-37659D01*
X66846Y-37584D01*
X66865Y-37547D01*
X67090Y-37228D02*
X67109Y-37265D01*
X67109Y-37340D01*
X67090Y-37378D01*
X67053Y-37397D01*
X66903Y-37397D01*
X66865Y-37378D01*
X66846Y-37340D01*
X66846Y-37265D01*
X66865Y-37228D01*
X66903Y-37209D01*
X66940Y-37209D01*
X66978Y-37397D01*
X67109Y-36534D02*
X67109Y-36759D01*
X67109Y-36647D02*
X66715Y-36647D01*
X66771Y-36684D01*
X66809Y-36722D01*
X66828Y-36759D01*
X67071Y-36365D02*
X67090Y-36347D01*
X67109Y-36365D01*
X67090Y-36384D01*
X67071Y-36365D01*
X67109Y-36365D01*
X66753Y-36197D02*
X66734Y-36178D01*
X66715Y-36141D01*
X66715Y-36047D01*
X66734Y-36009D01*
X66753Y-35991D01*
X66790Y-35972D01*
X66828Y-35972D01*
X66884Y-35991D01*
X67109Y-36216D01*
X67109Y-35972D01*
X66746Y-51934D02*
X67009Y-51859D01*
X66821Y-51784D01*
X67009Y-51709D01*
X66746Y-51634D01*
X66746Y-51521D02*
X67009Y-51446D01*
X66821Y-51371D01*
X67009Y-51296D01*
X66746Y-51221D01*
X66746Y-51109D02*
X67009Y-51034D01*
X66821Y-50959D01*
X67009Y-50884D01*
X66746Y-50809D01*
X66971Y-50659D02*
X66990Y-50640D01*
X67009Y-50659D01*
X66990Y-50677D01*
X66971Y-50659D01*
X67009Y-50659D01*
X67009Y-50471D02*
X66746Y-50471D01*
X66821Y-50471D02*
X66784Y-50452D01*
X66765Y-50434D01*
X66746Y-50396D01*
X66746Y-50359D01*
X66990Y-50078D02*
X67009Y-50115D01*
X67009Y-50190D01*
X66990Y-50227D01*
X66953Y-50246D01*
X66803Y-50246D01*
X66765Y-50227D01*
X66746Y-50190D01*
X66746Y-50115D01*
X66765Y-50078D01*
X66803Y-50059D01*
X66840Y-50059D01*
X66878Y-50246D01*
X66746Y-49890D02*
X67140Y-49890D01*
X66765Y-49890D02*
X66746Y-49853D01*
X66746Y-49778D01*
X66765Y-49740D01*
X66784Y-49721D01*
X66821Y-49703D01*
X66934Y-49703D01*
X66971Y-49721D01*
X66990Y-49740D01*
X67009Y-49778D01*
X67009Y-49853D01*
X66990Y-49890D01*
X67009Y-49534D02*
X66746Y-49534D01*
X66821Y-49534D02*
X66784Y-49515D01*
X66765Y-49496D01*
X66746Y-49459D01*
X66746Y-49421D01*
X67009Y-49121D02*
X66803Y-49121D01*
X66765Y-49140D01*
X66746Y-49178D01*
X66746Y-49253D01*
X66765Y-49290D01*
X66990Y-49121D02*
X67009Y-49159D01*
X67009Y-49253D01*
X66990Y-49290D01*
X66953Y-49309D01*
X66915Y-49309D01*
X66878Y-49290D01*
X66859Y-49253D01*
X66859Y-49159D01*
X66840Y-49121D01*
X66746Y-48934D02*
X67140Y-48934D01*
X66765Y-48934D02*
X66746Y-48896D01*
X66746Y-48821D01*
X66765Y-48784D01*
X66784Y-48765D01*
X66821Y-48746D01*
X66934Y-48746D01*
X66971Y-48765D01*
X66990Y-48784D01*
X67009Y-48821D01*
X67009Y-48896D01*
X66990Y-48934D01*
X66746Y-48578D02*
X67140Y-48578D01*
X66765Y-48578D02*
X66746Y-48540D01*
X66746Y-48465D01*
X66765Y-48428D01*
X66784Y-48409D01*
X66821Y-48390D01*
X66934Y-48390D01*
X66971Y-48409D01*
X66990Y-48428D01*
X67009Y-48465D01*
X67009Y-48540D01*
X66990Y-48578D01*
X67009Y-48221D02*
X66746Y-48221D01*
X66821Y-48221D02*
X66784Y-48203D01*
X66765Y-48184D01*
X66746Y-48147D01*
X66746Y-48109D01*
X67009Y-47922D02*
X66990Y-47959D01*
X66971Y-47978D01*
X66934Y-47997D01*
X66821Y-47997D01*
X66784Y-47978D01*
X66765Y-47959D01*
X66746Y-47922D01*
X66746Y-47865D01*
X66765Y-47828D01*
X66784Y-47809D01*
X66821Y-47790D01*
X66934Y-47790D01*
X66971Y-47809D01*
X66990Y-47828D01*
X67009Y-47865D01*
X67009Y-47922D01*
X66971Y-47622D02*
X66990Y-47603D01*
X67009Y-47622D01*
X66990Y-47640D01*
X66971Y-47622D01*
X67009Y-47622D01*
X66990Y-47265D02*
X67009Y-47303D01*
X67009Y-47378D01*
X66990Y-47415D01*
X66971Y-47434D01*
X66934Y-47453D01*
X66821Y-47453D01*
X66784Y-47434D01*
X66765Y-47415D01*
X66746Y-47378D01*
X66746Y-47303D01*
X66765Y-47265D01*
X67009Y-47040D02*
X66990Y-47078D01*
X66971Y-47097D01*
X66934Y-47115D01*
X66821Y-47115D01*
X66784Y-47097D01*
X66765Y-47078D01*
X66746Y-47040D01*
X66746Y-46984D01*
X66765Y-46947D01*
X66784Y-46928D01*
X66821Y-46909D01*
X66934Y-46909D01*
X66971Y-46928D01*
X66990Y-46947D01*
X67009Y-46984D01*
X67009Y-47040D01*
X67009Y-46740D02*
X66746Y-46740D01*
X66784Y-46740D02*
X66765Y-46722D01*
X66746Y-46684D01*
X66746Y-46628D01*
X66765Y-46590D01*
X66803Y-46572D01*
X67009Y-46572D01*
X66803Y-46572D02*
X66765Y-46553D01*
X66746Y-46515D01*
X66746Y-46459D01*
X66765Y-46422D01*
X66803Y-46403D01*
X67009Y-46403D01*
X65865Y-51899D02*
X66259Y-51767D01*
X65865Y-51636D01*
X65865Y-51430D02*
X65865Y-51392D01*
X65884Y-51355D01*
X65903Y-51336D01*
X65940Y-51317D01*
X66015Y-51299D01*
X66109Y-51299D01*
X66184Y-51317D01*
X66221Y-51336D01*
X66240Y-51355D01*
X66259Y-51392D01*
X66259Y-51430D01*
X66240Y-51467D01*
X66221Y-51486D01*
X66184Y-51505D01*
X66109Y-51524D01*
X66015Y-51524D01*
X65940Y-51505D01*
X65903Y-51486D01*
X65884Y-51467D01*
X65865Y-51430D01*
X66221Y-51130D02*
X66240Y-51111D01*
X66259Y-51130D01*
X66240Y-51149D01*
X66221Y-51130D01*
X66259Y-51130D01*
X65865Y-50980D02*
X65865Y-50736D01*
X66015Y-50867D01*
X66015Y-50811D01*
X66034Y-50774D01*
X66053Y-50755D01*
X66090Y-50736D01*
X66184Y-50736D01*
X66221Y-50755D01*
X66240Y-50774D01*
X66259Y-50811D01*
X66259Y-50924D01*
X66240Y-50961D01*
X66221Y-50980D01*
X66259Y-50267D02*
X65865Y-50267D01*
X65865Y-50174D01*
X65884Y-50117D01*
X65921Y-50080D01*
X65959Y-50061D01*
X66034Y-50042D01*
X66090Y-50042D01*
X66165Y-50061D01*
X66203Y-50080D01*
X66240Y-50117D01*
X66259Y-50174D01*
X66259Y-50267D01*
X66240Y-49724D02*
X66259Y-49761D01*
X66259Y-49836D01*
X66240Y-49874D01*
X66203Y-49893D01*
X66053Y-49893D01*
X66015Y-49874D01*
X65996Y-49836D01*
X65996Y-49761D01*
X66015Y-49724D01*
X66053Y-49705D01*
X66090Y-49705D01*
X66128Y-49893D01*
X66240Y-49555D02*
X66259Y-49518D01*
X66259Y-49443D01*
X66240Y-49405D01*
X66203Y-49386D01*
X66184Y-49386D01*
X66146Y-49405D01*
X66128Y-49443D01*
X66128Y-49499D01*
X66109Y-49536D01*
X66071Y-49555D01*
X66053Y-49555D01*
X66015Y-49536D01*
X65996Y-49499D01*
X65996Y-49443D01*
X66015Y-49405D01*
X66259Y-49218D02*
X65996Y-49218D01*
X65865Y-49218D02*
X65884Y-49236D01*
X65903Y-49218D01*
X65884Y-49199D01*
X65865Y-49218D01*
X65903Y-49218D01*
X65996Y-48861D02*
X66315Y-48861D01*
X66353Y-48880D01*
X66371Y-48899D01*
X66390Y-48936D01*
X66390Y-48993D01*
X66371Y-49030D01*
X66240Y-48861D02*
X66259Y-48899D01*
X66259Y-48974D01*
X66240Y-49011D01*
X66221Y-49030D01*
X66184Y-49049D01*
X66071Y-49049D01*
X66034Y-49030D01*
X66015Y-49011D01*
X65996Y-48974D01*
X65996Y-48899D01*
X66015Y-48861D01*
X65996Y-48674D02*
X66259Y-48674D01*
X66034Y-48674D02*
X66015Y-48655D01*
X65996Y-48618D01*
X65996Y-48561D01*
X66015Y-48524D01*
X66053Y-48505D01*
X66259Y-48505D01*
X66221Y-48318D02*
X66240Y-48299D01*
X66259Y-48318D01*
X66240Y-48336D01*
X66221Y-48318D01*
X66259Y-48318D01*
X66015Y-48318D02*
X66034Y-48299D01*
X66053Y-48318D01*
X66034Y-48336D01*
X66015Y-48318D01*
X66053Y-48318D01*
X66146Y-47849D02*
X66146Y-47662D01*
X66259Y-47887D02*
X65865Y-47755D01*
X66259Y-47624D01*
X66259Y-47324D02*
X65865Y-47324D01*
X66240Y-47324D02*
X66259Y-47362D01*
X66259Y-47437D01*
X66240Y-47474D01*
X66221Y-47493D01*
X66184Y-47512D01*
X66071Y-47512D01*
X66034Y-47493D01*
X66015Y-47474D01*
X65996Y-47437D01*
X65996Y-47362D01*
X66015Y-47324D01*
X66259Y-47137D02*
X65996Y-47137D01*
X66071Y-47137D02*
X66034Y-47118D01*
X66015Y-47099D01*
X65996Y-47062D01*
X65996Y-47024D01*
X66259Y-46893D02*
X65996Y-46893D01*
X65865Y-46893D02*
X65884Y-46912D01*
X65903Y-46893D01*
X65884Y-46874D01*
X65865Y-46893D01*
X65903Y-46893D01*
X66259Y-46537D02*
X66053Y-46537D01*
X66015Y-46555D01*
X65996Y-46593D01*
X65996Y-46668D01*
X66015Y-46705D01*
X66240Y-46537D02*
X66259Y-46574D01*
X66259Y-46668D01*
X66240Y-46705D01*
X66203Y-46724D01*
X66165Y-46724D01*
X66128Y-46705D01*
X66109Y-46668D01*
X66109Y-46574D01*
X66090Y-46537D01*
X65996Y-46349D02*
X66259Y-46349D01*
X66034Y-46349D02*
X66015Y-46330D01*
X65996Y-46293D01*
X65996Y-46237D01*
X66015Y-46199D01*
X66053Y-46180D01*
X66259Y-46180D01*
X66053Y-45562D02*
X66071Y-45506D01*
X66090Y-45487D01*
X66128Y-45468D01*
X66184Y-45468D01*
X66221Y-45487D01*
X66240Y-45506D01*
X66259Y-45543D01*
X66259Y-45693D01*
X65865Y-45693D01*
X65865Y-45562D01*
X65884Y-45524D01*
X65903Y-45506D01*
X65940Y-45487D01*
X65978Y-45487D01*
X66015Y-45506D01*
X66034Y-45524D01*
X66053Y-45562D01*
X66053Y-45693D01*
X66259Y-45243D02*
X66240Y-45281D01*
X66221Y-45299D01*
X66184Y-45318D01*
X66071Y-45318D01*
X66034Y-45299D01*
X66015Y-45281D01*
X65996Y-45243D01*
X65996Y-45187D01*
X66015Y-45149D01*
X66034Y-45131D01*
X66071Y-45112D01*
X66184Y-45112D01*
X66221Y-45131D01*
X66240Y-45149D01*
X66259Y-45187D01*
X66259Y-45243D01*
X65996Y-44981D02*
X66259Y-44906D01*
X66071Y-44831D01*
X66259Y-44756D01*
X65996Y-44681D01*
X65996Y-44568D02*
X66259Y-44474D01*
X65996Y-44381D02*
X66259Y-44474D01*
X66353Y-44512D01*
X66371Y-44531D01*
X66390Y-44568D01*
X66240Y-44081D02*
X66259Y-44118D01*
X66259Y-44193D01*
X66240Y-44231D01*
X66203Y-44249D01*
X66053Y-44249D01*
X66015Y-44231D01*
X65996Y-44193D01*
X65996Y-44118D01*
X66015Y-44081D01*
X66053Y-44062D01*
X66090Y-44062D01*
X66128Y-44249D01*
X66259Y-43893D02*
X65996Y-43893D01*
X66071Y-43893D02*
X66034Y-43875D01*
X66015Y-43856D01*
X65996Y-43818D01*
X65996Y-43781D01*
X66240Y-43631D02*
X66259Y-43631D01*
X66296Y-43650D01*
X66315Y-43668D01*
X66146Y-43181D02*
X66146Y-42993D01*
X66259Y-43218D02*
X65865Y-43087D01*
X66259Y-42956D01*
X65996Y-42825D02*
X66259Y-42825D01*
X66034Y-42825D02*
X66015Y-42806D01*
X65996Y-42768D01*
X65996Y-42712D01*
X66015Y-42675D01*
X66053Y-42656D01*
X66259Y-42656D01*
X66259Y-42300D02*
X65865Y-42300D01*
X66240Y-42300D02*
X66259Y-42337D01*
X66259Y-42412D01*
X66240Y-42450D01*
X66221Y-42468D01*
X66184Y-42487D01*
X66071Y-42487D01*
X66034Y-42468D01*
X66015Y-42450D01*
X65996Y-42412D01*
X65996Y-42337D01*
X66015Y-42300D01*
X65996Y-42150D02*
X66259Y-42056D01*
X65996Y-41962D02*
X66259Y-42056D01*
X66353Y-42093D01*
X66371Y-42112D01*
X66390Y-42150D01*
X66259Y-41512D02*
X65865Y-41512D01*
X66053Y-41512D02*
X66053Y-41287D01*
X66259Y-41287D02*
X65865Y-41287D01*
X66259Y-41100D02*
X65996Y-41100D01*
X65865Y-41100D02*
X65884Y-41119D01*
X65903Y-41100D01*
X65884Y-41081D01*
X65865Y-41100D01*
X65903Y-41100D01*
X65996Y-40744D02*
X66315Y-40744D01*
X66353Y-40762D01*
X66371Y-40781D01*
X66390Y-40819D01*
X66390Y-40875D01*
X66371Y-40912D01*
X66240Y-40744D02*
X66259Y-40781D01*
X66259Y-40856D01*
X66240Y-40894D01*
X66221Y-40912D01*
X66184Y-40931D01*
X66071Y-40931D01*
X66034Y-40912D01*
X66015Y-40894D01*
X65996Y-40856D01*
X65996Y-40781D01*
X66015Y-40744D01*
X66240Y-40575D02*
X66259Y-40537D01*
X66259Y-40462D01*
X66240Y-40425D01*
X66203Y-40406D01*
X66184Y-40406D01*
X66146Y-40425D01*
X66128Y-40462D01*
X66128Y-40519D01*
X66109Y-40556D01*
X66071Y-40575D01*
X66053Y-40575D01*
X66015Y-40556D01*
X65996Y-40519D01*
X65996Y-40462D01*
X66015Y-40425D01*
X65996Y-40294D02*
X65996Y-40144D01*
X65865Y-40237D02*
X66203Y-40237D01*
X66240Y-40219D01*
X66259Y-40181D01*
X66259Y-40144D01*
X66259Y-39956D02*
X66240Y-39994D01*
X66221Y-40012D01*
X66184Y-40031D01*
X66071Y-40031D01*
X66034Y-40012D01*
X66015Y-39994D01*
X65996Y-39956D01*
X65996Y-39900D01*
X66015Y-39863D01*
X66034Y-39844D01*
X66071Y-39825D01*
X66184Y-39825D01*
X66221Y-39844D01*
X66240Y-39863D01*
X66259Y-39900D01*
X66259Y-39956D01*
X65996Y-39656D02*
X66259Y-39656D01*
X66034Y-39656D02*
X66015Y-39638D01*
X65996Y-39600D01*
X65996Y-39544D01*
X66015Y-39506D01*
X66053Y-39488D01*
X66259Y-39488D01*
X66240Y-39281D02*
X66259Y-39281D01*
X66296Y-39300D01*
X66315Y-39319D01*
X65865Y-38869D02*
X65865Y-38644D01*
X66259Y-38756D02*
X65865Y-38756D01*
X66259Y-38456D02*
X66240Y-38494D01*
X66221Y-38513D01*
X66184Y-38531D01*
X66071Y-38531D01*
X66034Y-38513D01*
X66015Y-38494D01*
X65996Y-38456D01*
X65996Y-38400D01*
X66015Y-38363D01*
X66034Y-38344D01*
X66071Y-38325D01*
X66184Y-38325D01*
X66221Y-38344D01*
X66240Y-38363D01*
X66259Y-38400D01*
X66259Y-38456D01*
X65996Y-38156D02*
X66259Y-38156D01*
X66034Y-38156D02*
X66015Y-38138D01*
X65996Y-38100D01*
X65996Y-38044D01*
X66015Y-38006D01*
X66053Y-37988D01*
X66259Y-37988D01*
X65996Y-37838D02*
X66259Y-37744D01*
X65996Y-37650D02*
X66259Y-37744D01*
X66353Y-37782D01*
X66371Y-37800D01*
X66390Y-37838D01*
X66259Y-37013D02*
X66259Y-37200D01*
X65865Y-37200D01*
X66259Y-36825D02*
X66240Y-36863D01*
X66221Y-36882D01*
X66184Y-36900D01*
X66071Y-36900D01*
X66034Y-36882D01*
X66015Y-36863D01*
X65996Y-36825D01*
X65996Y-36769D01*
X66015Y-36732D01*
X66034Y-36713D01*
X66071Y-36694D01*
X66184Y-36694D01*
X66221Y-36713D01*
X66240Y-36732D01*
X66259Y-36769D01*
X66259Y-36825D01*
X66240Y-36357D02*
X66259Y-36394D01*
X66259Y-36469D01*
X66240Y-36507D01*
X66221Y-36525D01*
X66184Y-36544D01*
X66071Y-36544D01*
X66034Y-36525D01*
X66015Y-36507D01*
X65996Y-36469D01*
X65996Y-36394D01*
X66015Y-36357D01*
X66259Y-36188D02*
X65865Y-36188D01*
X66109Y-36150D02*
X66259Y-36038D01*
X65996Y-36038D02*
X66146Y-36188D01*
G54D12*
X65378Y-52115D02*
X64196Y-52115D01*
X64196Y-51833D01*
X64253Y-51665D01*
X64365Y-51552D01*
X64478Y-51496D01*
X64703Y-51440D01*
X64871Y-51440D01*
X65096Y-51496D01*
X65209Y-51552D01*
X65321Y-51665D01*
X65378Y-51833D01*
X65378Y-52115D01*
X64590Y-50427D02*
X65378Y-50427D01*
X64590Y-50933D02*
X65209Y-50933D01*
X65321Y-50877D01*
X65378Y-50765D01*
X65378Y-50596D01*
X65321Y-50483D01*
X65265Y-50427D01*
X65321Y-49415D02*
X65378Y-49527D01*
X65378Y-49752D01*
X65321Y-49865D01*
X65209Y-49921D01*
X64759Y-49921D01*
X64646Y-49865D01*
X64590Y-49752D01*
X64590Y-49527D01*
X64646Y-49415D01*
X64759Y-49359D01*
X64871Y-49359D01*
X64984Y-49921D01*
X64590Y-49021D02*
X64590Y-48571D01*
X64196Y-48852D02*
X65209Y-48852D01*
X65321Y-48796D01*
X65378Y-48684D01*
X65378Y-48571D01*
X65321Y-47334D02*
X65378Y-47165D01*
X65378Y-46884D01*
X65321Y-46771D01*
X65265Y-46715D01*
X65153Y-46659D01*
X65040Y-46659D01*
X64928Y-46715D01*
X64871Y-46771D01*
X64815Y-46884D01*
X64759Y-47109D01*
X64703Y-47221D01*
X64646Y-47278D01*
X64534Y-47334D01*
X64421Y-47334D01*
X64309Y-47278D01*
X64253Y-47221D01*
X64196Y-47109D01*
X64196Y-46828D01*
X64253Y-46659D01*
X65378Y-46153D02*
X64196Y-46153D01*
X65378Y-45647D02*
X64759Y-45647D01*
X64646Y-45703D01*
X64590Y-45815D01*
X64590Y-45984D01*
X64646Y-46097D01*
X64703Y-46153D01*
X65378Y-45084D02*
X64590Y-45084D01*
X64196Y-45084D02*
X64253Y-45140D01*
X64309Y-45084D01*
X64253Y-45028D01*
X64196Y-45084D01*
X64309Y-45084D01*
X65321Y-44072D02*
X65378Y-44184D01*
X65378Y-44409D01*
X65321Y-44522D01*
X65209Y-44578D01*
X64759Y-44578D01*
X64646Y-44522D01*
X64590Y-44409D01*
X64590Y-44184D01*
X64646Y-44072D01*
X64759Y-44016D01*
X64871Y-44016D01*
X64984Y-44578D01*
X65378Y-43341D02*
X65321Y-43453D01*
X65209Y-43509D01*
X64196Y-43509D01*
X65378Y-42384D02*
X64196Y-42384D01*
X65321Y-42384D02*
X65378Y-42497D01*
X65378Y-42722D01*
X65321Y-42834D01*
X65265Y-42891D01*
X65153Y-42947D01*
X64815Y-42947D01*
X64703Y-42891D01*
X64646Y-42834D01*
X64590Y-42722D01*
X64590Y-42497D01*
X64646Y-42384D01*
X62685Y-34292D02*
X62485Y-34007D01*
X62342Y-34292D02*
X62342Y-33692D01*
X62571Y-33692D01*
X62628Y-33721D01*
X62657Y-33750D01*
X62685Y-33807D01*
X62685Y-33892D01*
X62657Y-33950D01*
X62628Y-33978D01*
X62571Y-34007D01*
X62342Y-34007D01*
X61385Y-33978D02*
X61471Y-34007D01*
X61500Y-34035D01*
X61528Y-34092D01*
X61528Y-34178D01*
X61500Y-34235D01*
X61471Y-34264D01*
X61414Y-34292D01*
X61185Y-34292D01*
X61185Y-33692D01*
X61385Y-33692D01*
X61442Y-33721D01*
X61471Y-33750D01*
X61500Y-33807D01*
X61500Y-33864D01*
X61471Y-33921D01*
X61442Y-33950D01*
X61385Y-33978D01*
X61185Y-33978D01*
X61871Y-34292D02*
X61814Y-34264D01*
X61785Y-34207D01*
X61785Y-33692D01*
X60707Y-33771D02*
X60650Y-33742D01*
X60564Y-33742D01*
X60478Y-33771D01*
X60421Y-33828D01*
X60392Y-33885D01*
X60364Y-34000D01*
X60364Y-34085D01*
X60392Y-34200D01*
X60421Y-34257D01*
X60478Y-34314D01*
X60564Y-34342D01*
X60621Y-34342D01*
X60707Y-34314D01*
X60735Y-34285D01*
X60735Y-34085D01*
X60621Y-34085D01*
X59500Y-34028D02*
X59585Y-34057D01*
X59614Y-34085D01*
X59642Y-34142D01*
X59642Y-34228D01*
X59614Y-34285D01*
X59585Y-34314D01*
X59528Y-34342D01*
X59300Y-34342D01*
X59300Y-33742D01*
X59500Y-33742D01*
X59557Y-33771D01*
X59585Y-33800D01*
X59614Y-33857D01*
X59614Y-33914D01*
X59585Y-33971D01*
X59557Y-34000D01*
X59500Y-34028D01*
X59300Y-34028D01*
X59900Y-34342D02*
X59900Y-33742D01*
X59957Y-34114D02*
X60128Y-34342D01*
X60128Y-33942D02*
X59900Y-34171D01*
X51435Y-34292D02*
X51235Y-34007D01*
X51092Y-34292D02*
X51092Y-33692D01*
X51321Y-33692D01*
X51378Y-33721D01*
X51407Y-33750D01*
X51435Y-33807D01*
X51435Y-33892D01*
X51407Y-33950D01*
X51378Y-33978D01*
X51321Y-34007D01*
X51092Y-34007D01*
X50185Y-33978D02*
X50271Y-34007D01*
X50300Y-34035D01*
X50328Y-34092D01*
X50328Y-34178D01*
X50300Y-34235D01*
X50271Y-34264D01*
X50214Y-34292D01*
X49985Y-34292D01*
X49985Y-33692D01*
X50185Y-33692D01*
X50242Y-33721D01*
X50271Y-33750D01*
X50300Y-33807D01*
X50300Y-33864D01*
X50271Y-33921D01*
X50242Y-33950D01*
X50185Y-33978D01*
X49985Y-33978D01*
X50671Y-34292D02*
X50614Y-34264D01*
X50585Y-34207D01*
X50585Y-33692D01*
X49557Y-33721D02*
X49500Y-33692D01*
X49414Y-33692D01*
X49328Y-33721D01*
X49271Y-33778D01*
X49242Y-33835D01*
X49214Y-33950D01*
X49214Y-34035D01*
X49242Y-34150D01*
X49271Y-34207D01*
X49328Y-34264D01*
X49414Y-34292D01*
X49471Y-34292D01*
X49557Y-34264D01*
X49585Y-34235D01*
X49585Y-34035D01*
X49471Y-34035D01*
X48200Y-33978D02*
X48285Y-34007D01*
X48314Y-34035D01*
X48342Y-34092D01*
X48342Y-34178D01*
X48314Y-34235D01*
X48285Y-34264D01*
X48228Y-34292D01*
X48000Y-34292D01*
X48000Y-33692D01*
X48200Y-33692D01*
X48257Y-33721D01*
X48285Y-33750D01*
X48314Y-33807D01*
X48314Y-33864D01*
X48285Y-33921D01*
X48257Y-33950D01*
X48200Y-33978D01*
X48000Y-33978D01*
X48600Y-34292D02*
X48600Y-33692D01*
X48657Y-34064D02*
X48828Y-34292D01*
X48828Y-33892D02*
X48600Y-34121D01*
X41792Y-43064D02*
X41507Y-43264D01*
X41792Y-43407D02*
X41192Y-43407D01*
X41192Y-43178D01*
X41221Y-43121D01*
X41250Y-43092D01*
X41307Y-43064D01*
X41392Y-43064D01*
X41450Y-43092D01*
X41478Y-43121D01*
X41507Y-43178D01*
X41507Y-43407D01*
X41428Y-44464D02*
X41457Y-44378D01*
X41485Y-44350D01*
X41542Y-44321D01*
X41628Y-44321D01*
X41685Y-44350D01*
X41714Y-44378D01*
X41742Y-44435D01*
X41742Y-44664D01*
X41142Y-44664D01*
X41142Y-44464D01*
X41171Y-44407D01*
X41200Y-44378D01*
X41257Y-44350D01*
X41314Y-44350D01*
X41371Y-44378D01*
X41400Y-44407D01*
X41428Y-44464D01*
X41428Y-44664D01*
X41742Y-43978D02*
X41714Y-44035D01*
X41657Y-44064D01*
X41142Y-44064D01*
X41171Y-45092D02*
X41142Y-45150D01*
X41142Y-45235D01*
X41171Y-45321D01*
X41228Y-45378D01*
X41285Y-45407D01*
X41400Y-45435D01*
X41485Y-45435D01*
X41600Y-45407D01*
X41657Y-45378D01*
X41714Y-45321D01*
X41742Y-45235D01*
X41742Y-45178D01*
X41714Y-45092D01*
X41685Y-45064D01*
X41485Y-45064D01*
X41485Y-45178D01*
X41428Y-46300D02*
X41457Y-46214D01*
X41485Y-46185D01*
X41542Y-46157D01*
X41628Y-46157D01*
X41685Y-46185D01*
X41714Y-46214D01*
X41742Y-46271D01*
X41742Y-46500D01*
X41142Y-46500D01*
X41142Y-46300D01*
X41171Y-46242D01*
X41200Y-46214D01*
X41257Y-46185D01*
X41314Y-46185D01*
X41371Y-46214D01*
X41400Y-46242D01*
X41428Y-46300D01*
X41428Y-46500D01*
X41742Y-45900D02*
X41142Y-45900D01*
X41514Y-45842D02*
X41742Y-45671D01*
X41342Y-45671D02*
X41571Y-45900D01*
X57671Y-55914D02*
X58128Y-55914D01*
X57900Y-56142D02*
X57900Y-55685D01*
X57621Y-53614D02*
X58078Y-53614D01*
X57850Y-53842D02*
X57850Y-53385D01*
X57621Y-54642D02*
X57592Y-54700D01*
X57592Y-54785D01*
X57621Y-54871D01*
X57678Y-54928D01*
X57735Y-54957D01*
X57850Y-54985D01*
X57935Y-54985D01*
X58050Y-54957D01*
X58107Y-54928D01*
X58164Y-54871D01*
X58192Y-54785D01*
X58192Y-54728D01*
X58164Y-54642D01*
X58135Y-54614D01*
X57935Y-54614D01*
X57935Y-54728D01*
X57621Y-52492D02*
X57592Y-52550D01*
X57592Y-52635D01*
X57621Y-52721D01*
X57678Y-52778D01*
X57735Y-52807D01*
X57850Y-52835D01*
X57935Y-52835D01*
X58050Y-52807D01*
X58107Y-52778D01*
X58164Y-52721D01*
X58192Y-52635D01*
X58192Y-52578D01*
X58164Y-52492D01*
X58135Y-52464D01*
X57935Y-52464D01*
X57935Y-52578D01*
X45312Y-23368D02*
X45912Y-23368D01*
X45612Y-23668D02*
X45612Y-23068D01*
X46174Y-22881D02*
X46437Y-23668D01*
X46699Y-22881D01*
X57350Y-23018D02*
X57275Y-22981D01*
X57162Y-22981D01*
X57050Y-23018D01*
X56975Y-23093D01*
X56937Y-23168D01*
X56900Y-23318D01*
X56900Y-23431D01*
X56937Y-23581D01*
X56975Y-23656D01*
X57050Y-23731D01*
X57162Y-23768D01*
X57237Y-23768D01*
X57350Y-23731D01*
X57387Y-23693D01*
X57387Y-23431D01*
X57237Y-23431D01*
X57725Y-23768D02*
X57725Y-22981D01*
X58174Y-23768D01*
X58174Y-22981D01*
X58549Y-23768D02*
X58549Y-22981D01*
X58737Y-22981D01*
X58849Y-23018D01*
X58924Y-23093D01*
X58962Y-23168D01*
X58999Y-23318D01*
X58999Y-23431D01*
X58962Y-23581D01*
X58924Y-23656D01*
X58849Y-23731D01*
X58737Y-23768D01*
X58549Y-23768D01*
G54D13*
X70193Y-52176D02*
X70193Y-52018D01*
X70441Y-51951D02*
X70441Y-52176D01*
X69968Y-52176D01*
X69968Y-51951D01*
X70126Y-51546D02*
X70441Y-51546D01*
X69946Y-51658D02*
X70283Y-51771D01*
X70283Y-51478D01*
X70193Y-51276D02*
X70193Y-51118D01*
X70441Y-51051D02*
X70441Y-51276D01*
X69968Y-51276D01*
X69968Y-51051D01*
X69968Y-50893D02*
X69968Y-50601D01*
X70148Y-50758D01*
X70148Y-50691D01*
X70171Y-50646D01*
X70193Y-50623D01*
X70238Y-50601D01*
X70351Y-50601D01*
X70396Y-50623D01*
X70418Y-50646D01*
X70441Y-50691D01*
X70441Y-50826D01*
X70418Y-50871D01*
X70396Y-50893D01*
X70193Y-50226D02*
X70193Y-50068D01*
X70441Y-50001D02*
X70441Y-50226D01*
X69968Y-50226D01*
X69968Y-50001D01*
X70013Y-49821D02*
X69991Y-49798D01*
X69968Y-49753D01*
X69968Y-49641D01*
X69991Y-49596D01*
X70013Y-49573D01*
X70058Y-49551D01*
X70103Y-49551D01*
X70171Y-49573D01*
X70441Y-49843D01*
X70441Y-49551D01*
X70143Y-49226D02*
X70143Y-49068D01*
X70391Y-49001D02*
X70391Y-49226D01*
X69918Y-49226D01*
X69918Y-49001D01*
X70391Y-48551D02*
X70391Y-48821D01*
X70391Y-48686D02*
X69918Y-48686D01*
X69986Y-48731D01*
X70031Y-48776D01*
X70053Y-48821D01*
G54D12*
X50364Y-52071D02*
X50392Y-51985D01*
X50392Y-51842D01*
X50364Y-51785D01*
X50335Y-51757D01*
X50278Y-51728D01*
X50221Y-51728D01*
X50164Y-51757D01*
X50135Y-51785D01*
X50107Y-51842D01*
X50078Y-51957D01*
X50050Y-52014D01*
X50021Y-52042D01*
X49964Y-52071D01*
X49907Y-52071D01*
X49850Y-52042D01*
X49821Y-52014D01*
X49792Y-51957D01*
X49792Y-51814D01*
X49821Y-51728D01*
X49842Y-54121D02*
X49842Y-53778D01*
X50442Y-53950D02*
X49842Y-53950D01*
X49871Y-54914D02*
X50328Y-54914D01*
X50100Y-55142D02*
X50100Y-54685D01*
X49821Y-52792D02*
X49792Y-52850D01*
X49792Y-52935D01*
X49821Y-53021D01*
X49878Y-53078D01*
X49935Y-53107D01*
X50050Y-53135D01*
X50135Y-53135D01*
X50250Y-53107D01*
X50307Y-53078D01*
X50364Y-53021D01*
X50392Y-52935D01*
X50392Y-52878D01*
X50364Y-52792D01*
X50335Y-52764D01*
X50135Y-52764D01*
X50135Y-52878D01*
X57621Y-58164D02*
X58078Y-58164D01*
X57850Y-58392D02*
X57850Y-57935D01*
X57621Y-57042D02*
X57592Y-57100D01*
X57592Y-57185D01*
X57621Y-57271D01*
X57678Y-57328D01*
X57735Y-57357D01*
X57850Y-57385D01*
X57935Y-57385D01*
X58050Y-57357D01*
X58107Y-57328D01*
X58164Y-57271D01*
X58192Y-57185D01*
X58192Y-57128D01*
X58164Y-57042D01*
X58135Y-57014D01*
X57935Y-57014D01*
X57935Y-57128D01*
X49871Y-58214D02*
X50328Y-58214D01*
X50100Y-58442D02*
X50100Y-57985D01*
X41414Y-58578D02*
X41414Y-58121D01*
X41221Y-59314D02*
X41678Y-59314D01*
X41450Y-59542D02*
X41450Y-59085D01*
X41814Y-47421D02*
X41842Y-47335D01*
X41842Y-47192D01*
X41814Y-47135D01*
X41785Y-47107D01*
X41728Y-47078D01*
X41671Y-47078D01*
X41614Y-47107D01*
X41585Y-47135D01*
X41557Y-47192D01*
X41528Y-47307D01*
X41500Y-47364D01*
X41471Y-47392D01*
X41414Y-47421D01*
X41357Y-47421D01*
X41300Y-47392D01*
X41271Y-47364D01*
X41242Y-47307D01*
X41242Y-47164D01*
X41271Y-47078D01*
X41221Y-48164D02*
X41678Y-48164D01*
X41450Y-48392D02*
X41450Y-47935D01*
X41271Y-49042D02*
X41242Y-49100D01*
X41242Y-49185D01*
X41271Y-49271D01*
X41328Y-49328D01*
X41385Y-49357D01*
X41500Y-49385D01*
X41585Y-49385D01*
X41700Y-49357D01*
X41757Y-49328D01*
X41814Y-49271D01*
X41842Y-49185D01*
X41842Y-49128D01*
X41814Y-49042D01*
X41785Y-49014D01*
X41585Y-49014D01*
X41585Y-49128D01*
X41292Y-55621D02*
X41292Y-55278D01*
X41892Y-55450D02*
X41292Y-55450D01*
X41292Y-56521D02*
X41292Y-56178D01*
X41892Y-56350D02*
X41292Y-56350D01*
X41292Y-52421D02*
X41892Y-52221D01*
X41292Y-52021D01*
X41664Y-51821D02*
X41664Y-51364D01*
X41242Y-54521D02*
X41842Y-54321D01*
X41242Y-54121D01*
X41614Y-53921D02*
X41614Y-53464D01*
X41842Y-53692D02*
X41385Y-53692D01*
X41900Y-52900D02*
X41900Y-53000D01*
X41150Y-52900D02*
X41900Y-52900D01*
X41900Y-54900D02*
X41900Y-55000D01*
X41050Y-54900D02*
X41900Y-54900D01*
X41850Y-46700D02*
X41850Y-46650D01*
X41100Y-46700D02*
X41850Y-46700D01*
X39150Y-33700D02*
X39150Y-34400D01*
X37100Y-33700D02*
X37100Y-34450D01*
X59000Y-32750D02*
X59050Y-32750D01*
X59100Y-33700D02*
X59100Y-34450D01*
X47800Y-33650D02*
X47800Y-34400D01*
X39100Y-22350D02*
X39100Y-23000D01*
X37150Y-22300D02*
X37150Y-23050D01*
X58328Y-34314D02*
X58414Y-34342D01*
X58557Y-34342D01*
X58614Y-34314D01*
X58642Y-34285D01*
X58671Y-34228D01*
X58671Y-34171D01*
X58642Y-34114D01*
X58614Y-34085D01*
X58557Y-34057D01*
X58442Y-34028D01*
X58385Y-34000D01*
X58357Y-33971D01*
X58328Y-33914D01*
X58328Y-33857D01*
X58357Y-33800D01*
X58385Y-33771D01*
X58442Y-33742D01*
X58585Y-33742D01*
X58671Y-33771D01*
X57271Y-34014D02*
X57728Y-34014D01*
X57500Y-34242D02*
X57500Y-33785D01*
X56657Y-33771D02*
X56600Y-33742D01*
X56514Y-33742D01*
X56428Y-33771D01*
X56371Y-33828D01*
X56342Y-33885D01*
X56314Y-34000D01*
X56314Y-34085D01*
X56342Y-34200D01*
X56371Y-34257D01*
X56428Y-34314D01*
X56514Y-34342D01*
X56571Y-34342D01*
X56657Y-34314D01*
X56685Y-34285D01*
X56685Y-34085D01*
X56571Y-34085D01*
X47178Y-34264D02*
X47264Y-34292D01*
X47407Y-34292D01*
X47464Y-34264D01*
X47492Y-34235D01*
X47521Y-34178D01*
X47521Y-34121D01*
X47492Y-34064D01*
X47464Y-34035D01*
X47407Y-34007D01*
X47292Y-33978D01*
X47235Y-33950D01*
X47207Y-33921D01*
X47178Y-33864D01*
X47178Y-33807D01*
X47207Y-33750D01*
X47235Y-33721D01*
X47292Y-33692D01*
X47435Y-33692D01*
X47521Y-33721D01*
X45507Y-33721D02*
X45450Y-33692D01*
X45364Y-33692D01*
X45278Y-33721D01*
X45221Y-33778D01*
X45192Y-33835D01*
X45164Y-33950D01*
X45164Y-34035D01*
X45192Y-34150D01*
X45221Y-34207D01*
X45278Y-34264D01*
X45364Y-34292D01*
X45421Y-34292D01*
X45507Y-34264D01*
X45535Y-34235D01*
X45535Y-34035D01*
X45421Y-34035D01*
X46071Y-33964D02*
X46528Y-33964D01*
X46300Y-34192D02*
X46300Y-33735D01*
X36428Y-33742D02*
X36771Y-33742D01*
X36600Y-34342D02*
X36600Y-33742D01*
X35428Y-33742D02*
X35771Y-33742D01*
X35600Y-34342D02*
X35600Y-33742D01*
X36428Y-22392D02*
X36771Y-22392D01*
X36600Y-22992D02*
X36600Y-22392D01*
X35428Y-22392D02*
X35771Y-22392D01*
X35600Y-22992D02*
X35600Y-22392D01*
X39628Y-33792D02*
X39828Y-34392D01*
X40028Y-33792D01*
X40228Y-34164D02*
X40685Y-34164D01*
X37478Y-33742D02*
X37678Y-34342D01*
X37878Y-33742D01*
X38078Y-34114D02*
X38535Y-34114D01*
X38307Y-34342D02*
X38307Y-33885D01*
X39628Y-22342D02*
X39828Y-22942D01*
X40028Y-22342D01*
X40228Y-22714D02*
X40685Y-22714D01*
X37628Y-22342D02*
X37828Y-22942D01*
X38028Y-22342D01*
X38228Y-22714D02*
X38685Y-22714D01*
X38457Y-22942D02*
X38457Y-22485D01*
X69907Y-44442D02*
X69621Y-44442D01*
X69592Y-44728D01*
X69621Y-44700D01*
X69678Y-44671D01*
X69821Y-44671D01*
X69878Y-44700D01*
X69907Y-44728D01*
X69935Y-44785D01*
X69935Y-44928D01*
X69907Y-44985D01*
X69878Y-45014D01*
X69821Y-45042D01*
X69678Y-45042D01*
X69621Y-45014D01*
X69592Y-44985D01*
X70307Y-44442D02*
X70364Y-44442D01*
X70421Y-44471D01*
X70450Y-44500D01*
X70478Y-44557D01*
X70507Y-44671D01*
X70507Y-44814D01*
X70478Y-44928D01*
X70450Y-44985D01*
X70421Y-45014D01*
X70364Y-45042D01*
X70307Y-45042D01*
X70250Y-45014D01*
X70221Y-44985D01*
X70192Y-44928D01*
X70164Y-44814D01*
X70164Y-44671D01*
X70192Y-44557D01*
X70221Y-44500D01*
X70250Y-44471D01*
X70307Y-44442D01*
X68171Y-19292D02*
X67828Y-19292D01*
X68000Y-19292D02*
X68000Y-18692D01*
X67942Y-18778D01*
X67885Y-18835D01*
X67828Y-18864D01*
G54D14*
X40900Y-24950D02*
X42150Y-24950D01*
X42150Y-24950D02*
X42150Y-24250D01*
X42150Y-24250D02*
X40900Y-24250D01*
X40900Y-26750D02*
X42150Y-26750D01*
X42150Y-26750D02*
X42150Y-26050D01*
X42150Y-26050D02*
X40900Y-26050D01*
X38500Y-24150D02*
X40900Y-24150D01*
X40900Y-24150D02*
X40900Y-26850D01*
X40900Y-26850D02*
X37800Y-26850D01*
X37750Y-26850D02*
X37750Y-24150D01*
X37800Y-24150D02*
X38500Y-24150D01*
X65950Y-22550D02*
X63350Y-22550D01*
X63350Y-22550D02*
X63350Y-24350D01*
X63350Y-24350D02*
X65950Y-24350D01*
X65950Y-24350D02*
X65950Y-22550D01*
X63811Y-24050D02*
G75*
G03X63811Y-24050I-111J0D01*
G74*
G01*
X43212Y-36420D02*
X44208Y-36420D01*
X43212Y-37424D02*
X44196Y-37424D01*
X43212Y-37423D02*
X43212Y-36423D01*
X44208Y-36424D02*
X44208Y-37424D01*
X40375Y-40025D02*
X40635Y-40025D01*
X40375Y-40775D02*
X40635Y-40775D01*
X39825Y-40400D02*
X39565Y-40400D01*
X39825Y-40990D02*
X39825Y-39810D01*
X39825Y-39810D02*
X40375Y-39810D01*
X40375Y-39810D02*
X40375Y-40990D01*
X40375Y-40990D02*
X39825Y-40990D01*
X43925Y-25375D02*
X44185Y-25375D01*
X43925Y-26125D02*
X44185Y-26125D01*
X43375Y-25750D02*
X43115Y-25750D01*
X43375Y-26340D02*
X43375Y-25160D01*
X43375Y-25160D02*
X43925Y-25160D01*
X43925Y-25160D02*
X43925Y-26340D01*
X43925Y-26340D02*
X43375Y-26340D01*
X50550Y-49900D02*
X51550Y-49900D01*
X51550Y-49200D02*
X50550Y-49200D01*
X51550Y-49200D02*
X51550Y-49900D01*
X50550Y-49900D02*
X50550Y-49200D01*
X62500Y-48400D02*
X61500Y-48400D01*
X61500Y-49100D02*
X62500Y-49100D01*
X61500Y-49100D02*
X61500Y-48400D01*
X62500Y-48400D02*
X62500Y-49100D01*
X62500Y-49400D02*
X61500Y-49400D01*
X61500Y-50100D02*
X62500Y-50100D01*
X61500Y-50100D02*
X61500Y-49400D01*
X62500Y-49400D02*
X62500Y-50100D01*
X50550Y-50800D02*
X51550Y-50800D01*
X51550Y-50100D02*
X50550Y-50100D01*
X51550Y-50100D02*
X51550Y-50800D01*
X50550Y-50800D02*
X50550Y-50100D01*
G54D15*
X53104Y-42481D02*
X53104Y-43819D01*
X53104Y-43819D02*
X52396Y-43819D01*
X52396Y-43819D02*
X52396Y-42481D01*
X52396Y-42481D02*
X53104Y-42481D01*
X47404Y-42481D02*
X47404Y-43819D01*
X47404Y-43819D02*
X46696Y-43819D01*
X46696Y-43819D02*
X46696Y-42481D01*
X46696Y-42481D02*
X47404Y-42481D01*
X63954Y-42881D02*
X63954Y-44219D01*
X63954Y-44219D02*
X63246Y-44219D01*
X63246Y-44219D02*
X63246Y-42881D01*
X63246Y-42881D02*
X63954Y-42881D01*
X58754Y-42531D02*
X58754Y-43869D01*
X58754Y-43869D02*
X58046Y-43869D01*
X58046Y-43869D02*
X58046Y-42531D01*
X58046Y-42531D02*
X58754Y-42531D01*
X54656Y-32113D02*
X55344Y-32113D01*
X55344Y-32113D02*
X55344Y-32487D01*
X55344Y-32487D02*
X54656Y-32487D01*
X54656Y-32487D02*
X54656Y-32113D01*
X47594Y-48837D02*
X46906Y-48837D01*
X46906Y-48837D02*
X46906Y-48463D01*
X46906Y-48463D02*
X47594Y-48463D01*
X47594Y-48463D02*
X47594Y-48837D01*
X43456Y-32213D02*
X44144Y-32213D01*
X44144Y-32213D02*
X44144Y-32587D01*
X44144Y-32587D02*
X43456Y-32587D01*
X43456Y-32587D02*
X43456Y-32213D01*
X64256Y-21163D02*
X64944Y-21163D01*
X64944Y-21163D02*
X64944Y-21537D01*
X64944Y-21537D02*
X64256Y-21537D01*
X64256Y-21537D02*
X64256Y-21163D01*
X41994Y-27537D02*
X41306Y-27537D01*
X41306Y-27537D02*
X41306Y-27163D01*
X41306Y-27163D02*
X41994Y-27163D01*
X41994Y-27163D02*
X41994Y-27537D01*
X35413Y-25644D02*
X35413Y-24956D01*
X35413Y-24956D02*
X35787Y-24956D01*
X35787Y-24956D02*
X35787Y-25644D01*
X35787Y-25644D02*
X35413Y-25644D01*
X35413Y-37044D02*
X35413Y-36356D01*
X35413Y-36356D02*
X35787Y-36356D01*
X35787Y-36356D02*
X35787Y-37044D01*
X35787Y-37044D02*
X35413Y-37044D01*
X37337Y-25856D02*
X37337Y-26544D01*
X37337Y-26544D02*
X36963Y-26544D01*
X36963Y-26544D02*
X36963Y-25856D01*
X36963Y-25856D02*
X37337Y-25856D01*
X38187Y-36356D02*
X38187Y-37044D01*
X38187Y-37044D02*
X37813Y-37044D01*
X37813Y-37044D02*
X37813Y-36356D01*
X37813Y-36356D02*
X38187Y-36356D01*
X38713Y-41844D02*
X38713Y-41156D01*
X38713Y-41156D02*
X39087Y-41156D01*
X39087Y-41156D02*
X39087Y-41844D01*
X39087Y-41844D02*
X38713Y-41844D01*
X44387Y-26906D02*
X44387Y-27594D01*
X44387Y-27594D02*
X44013Y-27594D01*
X44013Y-27594D02*
X44013Y-26906D01*
X44013Y-26906D02*
X44387Y-26906D01*
X41256Y-40513D02*
X41944Y-40513D01*
X41944Y-40513D02*
X41944Y-40887D01*
X41944Y-40887D02*
X41256Y-40887D01*
X41256Y-40887D02*
X41256Y-40513D01*
X38713Y-40344D02*
X38713Y-39656D01*
X38713Y-39656D02*
X39087Y-39656D01*
X39087Y-39656D02*
X39087Y-40344D01*
X39087Y-40344D02*
X38713Y-40344D01*
X58944Y-48737D02*
X58256Y-48737D01*
X58256Y-48737D02*
X58256Y-48363D01*
X58256Y-48363D02*
X58944Y-48363D01*
X58944Y-48363D02*
X58944Y-48737D01*
X58256Y-49013D02*
X58944Y-49013D01*
X58944Y-49013D02*
X58944Y-49387D01*
X58944Y-49387D02*
X58256Y-49387D01*
X58256Y-49387D02*
X58256Y-49013D01*
X56906Y-45713D02*
X57594Y-45713D01*
X57594Y-45713D02*
X57594Y-46087D01*
X57594Y-46087D02*
X56906Y-46087D01*
X56906Y-46087D02*
X56906Y-45713D01*
X45013Y-47444D02*
X45013Y-46756D01*
X45013Y-46756D02*
X45387Y-46756D01*
X45387Y-46756D02*
X45387Y-47444D01*
X45387Y-47444D02*
X45013Y-47444D01*
X46906Y-49213D02*
X47594Y-49213D01*
X47594Y-49213D02*
X47594Y-49587D01*
X47594Y-49587D02*
X46906Y-49587D01*
X46906Y-49587D02*
X46906Y-49213D01*
X43294Y-27537D02*
X42606Y-27537D01*
X42606Y-27537D02*
X42606Y-27163D01*
X42606Y-27163D02*
X43294Y-27163D01*
X43294Y-27163D02*
X43294Y-27537D01*
X44387Y-34556D02*
X44387Y-35244D01*
X44387Y-35244D02*
X44013Y-35244D01*
X44013Y-35244D02*
X44013Y-34556D01*
X44013Y-34556D02*
X44387Y-34556D01*
X55687Y-34356D02*
X55687Y-35044D01*
X55687Y-35044D02*
X55313Y-35044D01*
X55313Y-35044D02*
X55313Y-34356D01*
X55313Y-34356D02*
X55687Y-34356D01*
X63163Y-26544D02*
X63163Y-25856D01*
X63163Y-25856D02*
X63537Y-25856D01*
X63537Y-25856D02*
X63537Y-26544D01*
X63537Y-26544D02*
X63163Y-26544D01*
G54D16*
X41820Y-42609D02*
X41820Y-49791D01*
X41820Y-49791D02*
X39380Y-49791D01*
G54D17*
X39380Y-49791D02*
X39380Y-42609D01*
X39380Y-42609D02*
X41820Y-42609D01*
G54D16*
X41100Y-43700D02*
X40100Y-43700D01*
X41100Y-42700D02*
X41100Y-49700D01*
X41100Y-49700D02*
X40100Y-49700D01*
X40100Y-49700D02*
X40100Y-42700D01*
X40100Y-42700D02*
X41100Y-42700D01*
X34049Y-42722D02*
X34049Y-49904D01*
X34049Y-49904D02*
X31609Y-49904D01*
G54D17*
X31609Y-49904D02*
X31609Y-42722D01*
X31609Y-42722D02*
X34049Y-42722D01*
G54D16*
X33329Y-43813D02*
X32329Y-43813D01*
X33329Y-42813D02*
X33329Y-49813D01*
X33329Y-49813D02*
X32329Y-49813D01*
X32329Y-49813D02*
X32329Y-42813D01*
X32329Y-42813D02*
X33329Y-42813D01*
X63091Y-34420D02*
X55909Y-34420D01*
X55909Y-34420D02*
X55909Y-31980D01*
G54D17*
X55909Y-31980D02*
X63091Y-31980D01*
X63091Y-31980D02*
X63091Y-34420D01*
G54D16*
X62000Y-33700D02*
X62000Y-32700D01*
X63000Y-33700D02*
X56000Y-33700D01*
X56000Y-33700D02*
X56000Y-32700D01*
X56000Y-32700D02*
X63000Y-32700D01*
X63000Y-32700D02*
X63000Y-33700D01*
X51891Y-34420D02*
X44709Y-34420D01*
X44709Y-34420D02*
X44709Y-31980D01*
G54D17*
X44709Y-31980D02*
X51891Y-31980D01*
X51891Y-31980D02*
X51891Y-34420D01*
G54D16*
X50800Y-33700D02*
X50800Y-32700D01*
X51800Y-33700D02*
X44800Y-33700D01*
X44800Y-33700D02*
X44800Y-32700D01*
X44800Y-32700D02*
X51800Y-32700D01*
X51800Y-32700D02*
X51800Y-33700D01*
G54D14*
X41100Y-20550D02*
X35100Y-20550D01*
X41100Y-21300D02*
X35100Y-21300D01*
X41100Y-22300D02*
X35100Y-22300D01*
X41100Y-23050D02*
X35100Y-23050D01*
G54D16*
X35009Y-23020D02*
X35009Y-20580D01*
G54D17*
X41191Y-20580D02*
X41191Y-23020D01*
G54D16*
X40100Y-22300D02*
X40100Y-21300D01*
X35100Y-22300D02*
X35100Y-21300D01*
X41100Y-21300D02*
X41100Y-22300D01*
G54D17*
X68080Y-52491D02*
X68080Y-48309D01*
X68080Y-48309D02*
X70520Y-48309D01*
X70520Y-48309D02*
X70520Y-52491D01*
X70520Y-52491D02*
X68080Y-52491D01*
G54D18*
X69800Y-48400D02*
X69800Y-52400D01*
X68800Y-48400D02*
X68800Y-52400D01*
X68800Y-52400D02*
X69800Y-52400D01*
X69800Y-48400D02*
X68800Y-48400D01*
G54D17*
X50420Y-51309D02*
X50420Y-55491D01*
X50420Y-55491D02*
X47980Y-55491D01*
X47980Y-55491D02*
X47980Y-51309D01*
X47980Y-51309D02*
X50420Y-51309D01*
G54D18*
X48700Y-55400D02*
X48700Y-51400D01*
X49700Y-55400D02*
X49700Y-51400D01*
X49700Y-51400D02*
X48700Y-51400D01*
X48700Y-55400D02*
X49700Y-55400D01*
G54D17*
X34049Y-57722D02*
X34049Y-59904D01*
X34049Y-59904D02*
X31609Y-59904D01*
X31609Y-59904D02*
X31609Y-57722D01*
X31609Y-57722D02*
X34049Y-57722D01*
G54D16*
X32329Y-57813D02*
X33329Y-57813D01*
X33329Y-57813D02*
X33329Y-59813D01*
X33329Y-59813D02*
X32329Y-59813D01*
X32329Y-59813D02*
X32329Y-57813D01*
G54D17*
X58220Y-56609D02*
X58220Y-58791D01*
X58220Y-58791D02*
X55780Y-58791D01*
X55780Y-58791D02*
X55780Y-56609D01*
X55780Y-56609D02*
X58220Y-56609D01*
G54D16*
X56500Y-56700D02*
X57500Y-56700D01*
X57500Y-56700D02*
X57500Y-58700D01*
X57500Y-58700D02*
X56500Y-58700D01*
X56500Y-58700D02*
X56500Y-56700D01*
G54D17*
X58220Y-54259D02*
X58220Y-56441D01*
X58220Y-56441D02*
X55780Y-56441D01*
X55780Y-56441D02*
X55780Y-54259D01*
X55780Y-54259D02*
X58220Y-54259D01*
G54D16*
X56500Y-54350D02*
X57500Y-54350D01*
X57500Y-54350D02*
X57500Y-56350D01*
X57500Y-56350D02*
X56500Y-56350D01*
X56500Y-56350D02*
X56500Y-54350D01*
G54D17*
X58220Y-51909D02*
X58220Y-54091D01*
X58220Y-54091D02*
X55780Y-54091D01*
X55780Y-54091D02*
X55780Y-51909D01*
X55780Y-51909D02*
X58220Y-51909D01*
G54D16*
X56500Y-52000D02*
X57500Y-52000D01*
X57500Y-52000D02*
X57500Y-54000D01*
X57500Y-54000D02*
X56500Y-54000D01*
X56500Y-54000D02*
X56500Y-52000D01*
G54D19*
X68374Y-19139D02*
X70374Y-19139D01*
X70374Y-19139D02*
X70374Y-44139D01*
X70374Y-44139D02*
X68374Y-44139D01*
X68374Y-44139D02*
X68374Y-19139D01*
G54D20*
X38236Y-35103D02*
X37764Y-35103D01*
G54D14*
X38250Y-34850D02*
X38250Y-35750D01*
X38250Y-35750D02*
X37750Y-35750D01*
X37750Y-35750D02*
X37750Y-34850D01*
X37750Y-34850D02*
X38250Y-34850D01*
G54D20*
X37386Y-24603D02*
X36914Y-24603D01*
G54D14*
X37400Y-24350D02*
X37400Y-25250D01*
X37400Y-25250D02*
X36900Y-25250D01*
X36900Y-25250D02*
X36900Y-24350D01*
X36900Y-24350D02*
X37400Y-24350D01*
G54D20*
X44436Y-33403D02*
X43964Y-33403D01*
G54D14*
X44450Y-33150D02*
X44450Y-34050D01*
X44450Y-34050D02*
X43950Y-34050D01*
X43950Y-34050D02*
X43950Y-33150D01*
X43950Y-33150D02*
X44450Y-33150D01*
G54D20*
X55736Y-33203D02*
X55264Y-33203D01*
G54D14*
X55750Y-32950D02*
X55750Y-33850D01*
X55750Y-33850D02*
X55250Y-33850D01*
X55250Y-33850D02*
X55250Y-32950D01*
X55250Y-32950D02*
X55750Y-32950D01*
X40350Y-37900D02*
X40350Y-39150D01*
X40350Y-39150D02*
X41050Y-39150D01*
X41050Y-39150D02*
X41050Y-37900D01*
X38550Y-37900D02*
X38550Y-39150D01*
X38550Y-39150D02*
X39250Y-39150D01*
X39250Y-39150D02*
X39250Y-37900D01*
X41150Y-35500D02*
X41150Y-37900D01*
X41150Y-37900D02*
X38450Y-37900D01*
X38450Y-37900D02*
X38450Y-34800D01*
X38450Y-34750D02*
X41150Y-34750D01*
X41150Y-34800D02*
X41150Y-35500D01*
X54950Y-26850D02*
X54950Y-26250D01*
X54900Y-26100D02*
X54900Y-27000D01*
X54850Y-27100D02*
X54850Y-26000D01*
X54800Y-25900D02*
X54800Y-27200D01*
X54750Y-27250D02*
X54750Y-25850D01*
X55000Y-26550D02*
G75*
G03X55000Y-26550I-1200J0D01*
G74*
G01*
X55100Y-27850D02*
X55100Y-25250D01*
X55100Y-25250D02*
X52800Y-25250D01*
X52800Y-25250D02*
X52500Y-25550D01*
X52500Y-25550D02*
X52500Y-27550D01*
X52500Y-27550D02*
X52800Y-27850D01*
X52800Y-27850D02*
X55100Y-27850D01*
X52950Y-26550D02*
X53250Y-26550D01*
X53100Y-26700D02*
X53100Y-26400D01*
X44200Y-42200D02*
X43600Y-42200D01*
X43450Y-42250D02*
X44350Y-42250D01*
X44450Y-42300D02*
X43350Y-42300D01*
X43250Y-42350D02*
X44550Y-42350D01*
X44600Y-42400D02*
X43200Y-42400D01*
X45100Y-43350D02*
G75*
G03X45100Y-43350I-1200J0D01*
G74*
G01*
X45200Y-42050D02*
X42600Y-42050D01*
X42600Y-42050D02*
X42600Y-44350D01*
X42600Y-44350D02*
X42900Y-44650D01*
X42900Y-44650D02*
X44900Y-44650D01*
X44900Y-44650D02*
X45200Y-44350D01*
X45200Y-44350D02*
X45200Y-42050D01*
X43900Y-44200D02*
X43900Y-43900D01*
X44050Y-44050D02*
X43750Y-44050D01*
X55650Y-42150D02*
X55050Y-42150D01*
X54900Y-42200D02*
X55800Y-42200D01*
X55900Y-42250D02*
X54800Y-42250D01*
X54700Y-42300D02*
X56000Y-42300D01*
X56050Y-42350D02*
X54650Y-42350D01*
X56550Y-43300D02*
G75*
G03X56550Y-43300I-1200J0D01*
G74*
G01*
X56650Y-42000D02*
X54050Y-42000D01*
X54050Y-42000D02*
X54050Y-44300D01*
X54050Y-44300D02*
X54350Y-44600D01*
X54350Y-44600D02*
X56350Y-44600D01*
X56350Y-44600D02*
X56650Y-44300D01*
X56650Y-44300D02*
X56650Y-42000D01*
X55350Y-44150D02*
X55350Y-43850D01*
X55500Y-44000D02*
X55200Y-44000D01*
X35300Y-41050D02*
X35900Y-41050D01*
X36050Y-41000D02*
X35150Y-41000D01*
X35050Y-40950D02*
X36150Y-40950D01*
X36250Y-40900D02*
X34950Y-40900D01*
X34900Y-40850D02*
X36300Y-40850D01*
X36800Y-39900D02*
G75*
G03X36800Y-39900I-1200J0D01*
G74*
G01*
X34300Y-41200D02*
X36900Y-41200D01*
X36900Y-41200D02*
X36900Y-38900D01*
X36900Y-38900D02*
X36600Y-38600D01*
X36600Y-38600D02*
X34600Y-38600D01*
X34600Y-38600D02*
X34300Y-38900D01*
X34300Y-38900D02*
X34300Y-41200D01*
X35600Y-39050D02*
X35600Y-39350D01*
X35450Y-39200D02*
X35750Y-39200D01*
X35850Y-24150D02*
X35350Y-24150D01*
X35850Y-23650D02*
X35360Y-23650D01*
X35850Y-23500D02*
X35850Y-24300D01*
X35850Y-24300D02*
X35350Y-24300D01*
X35350Y-24300D02*
X35350Y-23500D01*
X35350Y-23500D02*
X35850Y-23500D01*
X35850Y-35550D02*
X35350Y-35550D01*
X35850Y-35050D02*
X35360Y-35050D01*
X35850Y-34900D02*
X35850Y-35700D01*
X35850Y-35700D02*
X35350Y-35700D01*
X35350Y-35700D02*
X35350Y-34900D01*
X35350Y-34900D02*
X35850Y-34900D01*
X45960Y-43830D02*
X45640Y-43830D01*
X45650Y-44270D02*
X45960Y-44270D01*
X45640Y-44370D02*
X45640Y-43730D01*
X45640Y-43730D02*
X45960Y-43730D01*
X45960Y-43730D02*
X45960Y-44370D01*
X45960Y-44370D02*
X45640Y-44370D01*
X57410Y-43880D02*
X57090Y-43880D01*
X57100Y-44320D02*
X57410Y-44320D01*
X57090Y-44420D02*
X57090Y-43780D01*
X57090Y-43780D02*
X57410Y-43780D01*
X57410Y-43780D02*
X57410Y-44420D01*
X57410Y-44420D02*
X57090Y-44420D01*
X52310Y-47530D02*
X51990Y-47530D01*
X52000Y-47970D02*
X52310Y-47970D01*
X51990Y-48070D02*
X51990Y-47430D01*
X51990Y-47430D02*
X52310Y-47430D01*
X52310Y-47430D02*
X52310Y-48070D01*
X52310Y-48070D02*
X51990Y-48070D01*
X62960Y-47330D02*
X62640Y-47330D01*
X62650Y-47770D02*
X62960Y-47770D01*
X62640Y-47870D02*
X62640Y-47230D01*
X62640Y-47230D02*
X62960Y-47230D01*
X62960Y-47230D02*
X62960Y-47870D01*
X62960Y-47870D02*
X62640Y-47870D01*
X54860Y-33180D02*
X54540Y-33180D01*
X54550Y-33620D02*
X54860Y-33620D01*
X54540Y-33720D02*
X54540Y-33080D01*
X54540Y-33080D02*
X54860Y-33080D01*
X54860Y-33080D02*
X54860Y-33720D01*
X54860Y-33720D02*
X54540Y-33720D01*
X43560Y-33380D02*
X43240Y-33380D01*
X43250Y-33820D02*
X43560Y-33820D01*
X43240Y-33920D02*
X43240Y-33280D01*
X43240Y-33280D02*
X43560Y-33280D01*
X43560Y-33280D02*
X43560Y-33920D01*
X43560Y-33920D02*
X43240Y-33920D01*
X65890Y-26420D02*
X66210Y-26420D01*
X66200Y-25980D02*
X65890Y-25980D01*
X66210Y-25880D02*
X66210Y-26520D01*
X66210Y-26520D02*
X65890Y-26520D01*
X65890Y-26520D02*
X65890Y-25880D01*
X65890Y-25880D02*
X66210Y-25880D01*
X52890Y-48620D02*
X53210Y-48620D01*
X53200Y-48180D02*
X52890Y-48180D01*
X53210Y-48080D02*
X53210Y-48720D01*
X53210Y-48720D02*
X52890Y-48720D01*
X52890Y-48720D02*
X52890Y-48080D01*
X52890Y-48080D02*
X53210Y-48080D01*
X58820Y-48010D02*
X58820Y-47690D01*
X58380Y-47700D02*
X58380Y-48010D01*
X58280Y-47690D02*
X58920Y-47690D01*
X58920Y-47690D02*
X58920Y-48010D01*
X58920Y-48010D02*
X58280Y-48010D01*
X58280Y-48010D02*
X58280Y-47690D01*
X58820Y-47310D02*
X58820Y-46990D01*
X58380Y-47000D02*
X58380Y-47310D01*
X58280Y-46990D02*
X58920Y-46990D01*
X58920Y-46990D02*
X58920Y-47310D01*
X58920Y-47310D02*
X58280Y-47310D01*
X58280Y-47310D02*
X58280Y-46990D01*
X63440Y-48370D02*
X63760Y-48370D01*
X63750Y-47930D02*
X63440Y-47930D01*
X63760Y-47830D02*
X63760Y-48470D01*
X63760Y-48470D02*
X63440Y-48470D01*
X63440Y-48470D02*
X63440Y-47830D01*
X63440Y-47830D02*
X63760Y-47830D01*
X47470Y-47210D02*
X47470Y-46890D01*
X47030Y-46900D02*
X47030Y-47210D01*
X46930Y-46890D02*
X47570Y-46890D01*
X47570Y-46890D02*
X47570Y-47210D01*
X47570Y-47210D02*
X46930Y-47210D01*
X46930Y-47210D02*
X46930Y-46890D01*
X47470Y-48010D02*
X47470Y-47690D01*
X47030Y-47700D02*
X47030Y-48010D01*
X46930Y-47690D02*
X47570Y-47690D01*
X47570Y-47690D02*
X47570Y-48010D01*
X47570Y-48010D02*
X46930Y-48010D01*
X46930Y-48010D02*
X46930Y-47690D01*
G54D17*
X34049Y-50722D02*
X34049Y-54904D01*
X34049Y-54904D02*
X31609Y-54904D01*
X31609Y-54904D02*
X31609Y-50722D01*
X31609Y-50722D02*
X34049Y-50722D01*
G54D18*
X32329Y-54813D02*
X32329Y-50813D01*
X33329Y-54813D02*
X33329Y-50813D01*
X33329Y-50813D02*
X32329Y-50813D01*
X32329Y-54813D02*
X33329Y-54813D01*
G54D17*
X31609Y-56904D02*
X31609Y-54722D01*
X31609Y-54722D02*
X34049Y-54722D01*
X34049Y-54722D02*
X34049Y-56904D01*
X34049Y-56904D02*
X31609Y-56904D01*
G54D16*
X33329Y-56813D02*
X32329Y-56813D01*
X32329Y-56813D02*
X32329Y-54813D01*
X32329Y-54813D02*
X33329Y-54813D01*
X33329Y-54813D02*
X33329Y-56813D01*
G54D14*
X41100Y-31950D02*
X35100Y-31950D01*
X41100Y-32700D02*
X35100Y-32700D01*
X41100Y-33700D02*
X35100Y-33700D01*
X41100Y-34450D02*
X35100Y-34450D01*
G54D16*
X35009Y-34420D02*
X35009Y-31980D01*
G54D17*
X41191Y-31980D02*
X41191Y-34420D01*
G54D16*
X40100Y-33700D02*
X40100Y-32700D01*
X35100Y-33700D02*
X35100Y-32700D01*
X41100Y-32700D02*
X41100Y-33700D01*
G54D14*
X39350Y-50900D02*
X39350Y-56900D01*
X40100Y-50900D02*
X40100Y-56900D01*
X41100Y-50900D02*
X41100Y-56900D01*
X41850Y-50900D02*
X41850Y-56900D01*
G54D16*
X41820Y-56991D02*
X39380Y-56991D01*
G54D17*
X39380Y-50809D02*
X41820Y-50809D01*
G54D16*
X41100Y-51900D02*
X40100Y-51900D01*
X41100Y-56900D02*
X40100Y-56900D01*
X40100Y-50900D02*
X41100Y-50900D01*
G54D17*
X41820Y-57709D02*
X41820Y-59891D01*
X41820Y-59891D02*
X39380Y-59891D01*
X39380Y-59891D02*
X39380Y-57709D01*
X39380Y-57709D02*
X41820Y-57709D01*
G54D16*
X40100Y-57800D02*
X41100Y-57800D01*
X41100Y-57800D02*
X41100Y-59800D01*
X41100Y-59800D02*
X40100Y-59800D01*
X40100Y-59800D02*
X40100Y-57800D01*
G54D12*
X44950Y-16400D02*
X41950Y-16400D01*
X41950Y-16400D02*
X41950Y-23800D01*
X41950Y-23800D02*
X44950Y-23800D01*
X44950Y-23800D02*
X44950Y-16400D01*
X56500Y-16350D02*
X53500Y-16350D01*
X53500Y-16350D02*
X53500Y-23750D01*
X53500Y-23750D02*
X56500Y-23750D01*
X56500Y-23750D02*
X56500Y-16350D01*
G54D14*
X57410Y-35530D02*
X57090Y-35530D01*
X57100Y-35970D02*
X57410Y-35970D01*
X57090Y-36070D02*
X57090Y-35430D01*
X57090Y-35430D02*
X57410Y-35430D01*
X57410Y-35430D02*
X57410Y-36070D01*
X57410Y-36070D02*
X57090Y-36070D01*
X60540Y-35970D02*
X60860Y-35970D01*
X60850Y-35530D02*
X60540Y-35530D01*
X60860Y-35430D02*
X60860Y-36070D01*
X60860Y-36070D02*
X60540Y-36070D01*
X60540Y-36070D02*
X60540Y-35430D01*
X60540Y-35430D02*
X60860Y-35430D01*
X62410Y-35530D02*
X62090Y-35530D01*
X62100Y-35970D02*
X62410Y-35970D01*
X62090Y-36070D02*
X62090Y-35430D01*
X62090Y-35430D02*
X62410Y-35430D01*
X62410Y-35430D02*
X62410Y-36070D01*
X62410Y-36070D02*
X62090Y-36070D01*
X64090Y-35970D02*
X64410Y-35970D01*
X64400Y-35530D02*
X64090Y-35530D01*
X64410Y-35430D02*
X64410Y-36070D01*
X64410Y-36070D02*
X64090Y-36070D01*
X64090Y-36070D02*
X64090Y-35430D01*
X64090Y-35430D02*
X64410Y-35430D01*
X46760Y-35530D02*
X46440Y-35530D01*
X46450Y-35970D02*
X46760Y-35970D01*
X46440Y-36070D02*
X46440Y-35430D01*
X46440Y-35430D02*
X46760Y-35430D01*
X46760Y-35430D02*
X46760Y-36070D01*
X46760Y-36070D02*
X46440Y-36070D01*
X49290Y-35970D02*
X49610Y-35970D01*
X49600Y-35530D02*
X49290Y-35530D01*
X49610Y-35430D02*
X49610Y-36070D01*
X49610Y-36070D02*
X49290Y-36070D01*
X49290Y-36070D02*
X49290Y-35430D01*
X49290Y-35430D02*
X49610Y-35430D01*
X51310Y-35530D02*
X50990Y-35530D01*
X51000Y-35970D02*
X51310Y-35970D01*
X50990Y-36070D02*
X50990Y-35430D01*
X50990Y-35430D02*
X51310Y-35430D01*
X51310Y-35430D02*
X51310Y-36070D01*
X51310Y-36070D02*
X50990Y-36070D01*
X53040Y-35970D02*
X53360Y-35970D01*
X53350Y-35530D02*
X53040Y-35530D01*
X53360Y-35430D02*
X53360Y-36070D01*
X53360Y-36070D02*
X53040Y-36070D01*
X53040Y-36070D02*
X53040Y-35430D01*
X53040Y-35430D02*
X53360Y-35430D01*
X47030Y-46090D02*
X47030Y-46410D01*
X47470Y-46400D02*
X47470Y-46090D01*
X47570Y-46410D02*
X46930Y-46410D01*
X46930Y-46410D02*
X46930Y-46090D01*
X46930Y-46090D02*
X47570Y-46090D01*
X47570Y-46090D02*
X47570Y-46410D01*
X58380Y-46290D02*
X58380Y-46610D01*
X58820Y-46600D02*
X58820Y-46290D01*
X58920Y-46610D02*
X58280Y-46610D01*
X58280Y-46610D02*
X58280Y-46290D01*
X58280Y-46290D02*
X58920Y-46290D01*
X58920Y-46290D02*
X58920Y-46610D01*
X37760Y-39780D02*
X37440Y-39780D01*
X37450Y-40220D02*
X37760Y-40220D01*
X37440Y-40320D02*
X37440Y-39680D01*
X37440Y-39680D02*
X37760Y-39680D01*
X37760Y-39680D02*
X37760Y-40320D01*
X37760Y-40320D02*
X37440Y-40320D01*
X44620Y-24660D02*
X44620Y-24340D01*
X44180Y-24350D02*
X44180Y-24660D01*
X44080Y-24340D02*
X44720Y-24340D01*
X44720Y-24340D02*
X44720Y-24660D01*
X44720Y-24660D02*
X44080Y-24660D01*
X44080Y-24660D02*
X44080Y-24340D01*
X51300Y-43350D02*
X48200Y-43350D01*
X48200Y-43350D02*
X48200Y-45150D01*
X48200Y-45150D02*
X51300Y-45150D01*
X51300Y-45150D02*
X51300Y-43350D01*
X48611Y-44850D02*
G75*
G03X48611Y-44850I-111J0D01*
G74*
G01*
X62450Y-43300D02*
X59350Y-43300D01*
X59350Y-43300D02*
X59350Y-45100D01*
X59350Y-45100D02*
X62450Y-45100D01*
X62450Y-45100D02*
X62450Y-43300D01*
X59761Y-44800D02*
G75*
G03X59761Y-44800I-111J0D01*
G74*
G01*
G54D17*
X50420Y-56609D02*
X50420Y-58791D01*
X50420Y-58791D02*
X47980Y-58791D01*
X47980Y-58791D02*
X47980Y-56609D01*
X47980Y-56609D02*
X50420Y-56609D01*
G54D16*
X48700Y-56700D02*
X49700Y-56700D01*
X49700Y-56700D02*
X49700Y-58700D01*
X49700Y-58700D02*
X48700Y-58700D01*
X48700Y-58700D02*
X48700Y-56700D01*
G54D20*
X50136Y-21453D02*
X49664Y-21453D01*
G54D14*
X50150Y-21200D02*
X50150Y-22100D01*
X50150Y-22100D02*
X49650Y-22100D01*
X49650Y-22100D02*
X49650Y-21200D01*
X49650Y-21200D02*
X50150Y-21200D01*
G54D20*
X50836Y-21453D02*
X50364Y-21453D01*
G54D14*
X50850Y-21200D02*
X50850Y-22100D01*
X50850Y-22100D02*
X50350Y-22100D01*
X50350Y-22100D02*
X50350Y-21200D01*
X50350Y-21200D02*
X50850Y-21200D01*
G54D20*
X51536Y-21453D02*
X51064Y-21453D01*
G54D14*
X51550Y-21200D02*
X51550Y-22100D01*
X51550Y-22100D02*
X51050Y-22100D01*
X51050Y-22100D02*
X51050Y-21200D01*
X51050Y-21200D02*
X51550Y-21200D01*
G54D20*
X52536Y-21453D02*
X52064Y-21453D01*
G54D14*
X52550Y-21200D02*
X52550Y-22100D01*
X52550Y-22100D02*
X52050Y-22100D01*
X52050Y-22100D02*
X52050Y-21200D01*
X52050Y-21200D02*
X52550Y-21200D01*
G54D15*
X50087Y-22606D02*
X50087Y-23294D01*
X50087Y-23294D02*
X49713Y-23294D01*
X49713Y-23294D02*
X49713Y-22606D01*
X49713Y-22606D02*
X50087Y-22606D01*
X50787Y-22606D02*
X50787Y-23294D01*
X50787Y-23294D02*
X50413Y-23294D01*
X50413Y-23294D02*
X50413Y-22606D01*
X50413Y-22606D02*
X50787Y-22606D01*
X51487Y-22606D02*
X51487Y-23294D01*
X51487Y-23294D02*
X51113Y-23294D01*
X51113Y-23294D02*
X51113Y-22606D01*
X51113Y-22606D02*
X51487Y-22606D01*
X52487Y-22606D02*
X52487Y-23294D01*
X52487Y-23294D02*
X52113Y-23294D01*
X52113Y-23294D02*
X52113Y-22606D01*
X52113Y-22606D02*
X52487Y-22606D01*
X39144Y-28987D02*
X38456Y-28987D01*
X38456Y-28987D02*
X38456Y-28613D01*
X38456Y-28613D02*
X39144Y-28613D01*
X39144Y-28613D02*
X39144Y-28987D01*
X39144Y-30587D02*
X38456Y-30587D01*
X38456Y-30587D02*
X38456Y-30213D01*
X38456Y-30213D02*
X39144Y-30213D01*
X39144Y-30213D02*
X39144Y-30587D01*
G54D21*
X37993Y-26004D02*
X37993Y-25776D01*
X38493Y-25890D02*
X37993Y-25890D01*
X38493Y-25414D02*
X38255Y-25547D01*
X38493Y-25642D02*
X37993Y-25642D01*
X37993Y-25490D01*
X38017Y-25452D01*
X38041Y-25433D01*
X38088Y-25414D01*
X38160Y-25414D01*
X38207Y-25433D01*
X38231Y-25452D01*
X38255Y-25490D01*
X38255Y-25642D01*
X38041Y-25261D02*
X38017Y-25242D01*
X37993Y-25204D01*
X37993Y-25109D01*
X38017Y-25071D01*
X38041Y-25052D01*
X38088Y-25033D01*
X38136Y-25033D01*
X38207Y-25052D01*
X38493Y-25280D01*
X38493Y-25033D01*
X39870Y-27223D02*
X39470Y-27223D01*
X39870Y-27033D02*
X39470Y-27033D01*
X39470Y-26880D01*
X39489Y-26842D01*
X39509Y-26823D01*
X39547Y-26804D01*
X39604Y-26804D01*
X39642Y-26823D01*
X39661Y-26842D01*
X39680Y-26880D01*
X39680Y-27033D01*
X39870Y-26633D02*
X39470Y-26633D01*
X39470Y-26538D01*
X39489Y-26480D01*
X39528Y-26442D01*
X39566Y-26423D01*
X39642Y-26404D01*
X39699Y-26404D01*
X39775Y-26423D01*
X39813Y-26442D01*
X39851Y-26480D01*
X39870Y-26538D01*
X39870Y-26633D01*
X39470Y-26157D02*
X39470Y-26119D01*
X39489Y-26080D01*
X39509Y-26061D01*
X39547Y-26042D01*
X39623Y-26023D01*
X39718Y-26023D01*
X39794Y-26042D01*
X39832Y-26061D01*
X39851Y-26080D01*
X39870Y-26119D01*
X39870Y-26157D01*
X39851Y-26195D01*
X39832Y-26214D01*
X39794Y-26233D01*
X39718Y-26252D01*
X39623Y-26252D01*
X39547Y-26233D01*
X39509Y-26214D01*
X39489Y-26195D01*
X39470Y-26157D01*
X39470Y-25890D02*
X39470Y-25642D01*
X39623Y-25776D01*
X39623Y-25719D01*
X39642Y-25680D01*
X39661Y-25661D01*
X39699Y-25642D01*
X39794Y-25642D01*
X39832Y-25661D01*
X39851Y-25680D01*
X39870Y-25719D01*
X39870Y-25833D01*
X39851Y-25871D01*
X39832Y-25890D01*
X39470Y-25300D02*
X39470Y-25376D01*
X39489Y-25414D01*
X39509Y-25433D01*
X39566Y-25471D01*
X39642Y-25490D01*
X39794Y-25490D01*
X39832Y-25471D01*
X39851Y-25452D01*
X39870Y-25414D01*
X39870Y-25338D01*
X39851Y-25300D01*
X39832Y-25280D01*
X39794Y-25261D01*
X39699Y-25261D01*
X39661Y-25280D01*
X39642Y-25300D01*
X39623Y-25338D01*
X39623Y-25414D01*
X39642Y-25452D01*
X39661Y-25471D01*
X39699Y-25490D01*
X39870Y-25090D02*
X39470Y-25090D01*
X39870Y-24861D01*
X39470Y-24861D01*
X39470Y-24595D02*
X39470Y-24557D01*
X39489Y-24519D01*
X39509Y-24500D01*
X39547Y-24480D01*
X39623Y-24461D01*
X39718Y-24461D01*
X39794Y-24480D01*
X39832Y-24500D01*
X39851Y-24519D01*
X39870Y-24557D01*
X39870Y-24595D01*
X39851Y-24633D01*
X39832Y-24652D01*
X39794Y-24671D01*
X39718Y-24690D01*
X39623Y-24690D01*
X39547Y-24671D01*
X39509Y-24652D01*
X39489Y-24633D01*
X39470Y-24595D01*
X39604Y-24119D02*
X39870Y-24119D01*
X39451Y-24214D02*
X39737Y-24309D01*
X39737Y-24061D01*
X39870Y-23719D02*
X39870Y-23909D01*
X39470Y-23909D01*
G54D17*
X51958Y-46009D02*
X51958Y-46178D01*
X51947Y-46211D01*
X51925Y-46234D01*
X51891Y-46245D01*
X51869Y-46245D01*
X52194Y-46245D02*
X52060Y-46245D01*
X52127Y-46245D02*
X52127Y-46009D01*
X52105Y-46043D01*
X52082Y-46065D01*
X52060Y-46076D01*
X52273Y-46009D02*
X52430Y-46009D01*
X52329Y-46245D01*
X62721Y-45965D02*
X62721Y-46134D01*
X62710Y-46167D01*
X62687Y-46190D01*
X62653Y-46201D01*
X62631Y-46201D01*
X62811Y-45965D02*
X62957Y-45965D01*
X62878Y-46055D01*
X62912Y-46055D01*
X62934Y-46066D01*
X62946Y-46077D01*
X62957Y-46100D01*
X62957Y-46156D01*
X62946Y-46179D01*
X62934Y-46190D01*
X62912Y-46201D01*
X62844Y-46201D01*
X62822Y-46190D01*
X62811Y-46179D01*
G54D20*
X64499Y-23532D02*
X64499Y-23692D01*
X64509Y-23710D01*
X64518Y-23720D01*
X64537Y-23729D01*
X64574Y-23729D01*
X64593Y-23720D01*
X64603Y-23710D01*
X64612Y-23692D01*
X64612Y-23532D01*
X64715Y-23729D02*
X64753Y-23729D01*
X64771Y-23720D01*
X64781Y-23710D01*
X64800Y-23682D01*
X64809Y-23645D01*
X64809Y-23570D01*
X64800Y-23551D01*
X64790Y-23542D01*
X64771Y-23532D01*
X64734Y-23532D01*
X64715Y-23542D01*
X64706Y-23551D01*
X64696Y-23570D01*
X64696Y-23617D01*
X64706Y-23635D01*
X64715Y-23645D01*
X64734Y-23654D01*
X64771Y-23654D01*
X64790Y-23645D01*
X64800Y-23635D01*
X64809Y-23617D01*
X64012Y-23079D02*
X64012Y-22882D01*
X64077Y-23023D01*
X64143Y-22882D01*
X64143Y-23079D01*
X64349Y-23060D02*
X64340Y-23070D01*
X64312Y-23079D01*
X64293Y-23079D01*
X64265Y-23070D01*
X64246Y-23051D01*
X64237Y-23032D01*
X64227Y-22995D01*
X64227Y-22967D01*
X64237Y-22929D01*
X64246Y-22910D01*
X64265Y-22892D01*
X64293Y-22882D01*
X64312Y-22882D01*
X64340Y-22892D01*
X64349Y-22901D01*
X64434Y-23079D02*
X64434Y-22882D01*
X64509Y-22882D01*
X64528Y-22892D01*
X64537Y-22901D01*
X64546Y-22920D01*
X64546Y-22948D01*
X64537Y-22967D01*
X64528Y-22976D01*
X64509Y-22985D01*
X64434Y-22985D01*
X64715Y-22948D02*
X64715Y-23079D01*
X64668Y-22873D02*
X64621Y-23014D01*
X64743Y-23014D01*
X64903Y-22948D02*
X64903Y-23079D01*
X64856Y-22873D02*
X64809Y-23014D01*
X64931Y-23014D01*
X64987Y-22882D02*
X65119Y-23079D01*
X65119Y-22882D02*
X64987Y-23079D01*
X65297Y-23079D02*
X65184Y-23079D01*
X65241Y-23079D02*
X65241Y-22882D01*
X65222Y-22910D01*
X65203Y-22929D01*
X65184Y-22939D01*
X44006Y-37327D02*
X44118Y-37327D01*
X44141Y-37334D01*
X44156Y-37349D01*
X44163Y-37371D01*
X44163Y-37386D01*
X44021Y-37259D02*
X44014Y-37252D01*
X44006Y-37237D01*
X44006Y-37200D01*
X44014Y-37185D01*
X44021Y-37177D01*
X44036Y-37170D01*
X44051Y-37170D01*
X44073Y-37177D01*
X44163Y-37267D01*
X44163Y-37170D01*
X44006Y-37117D02*
X44006Y-37013D01*
X44163Y-37080D01*
G54D16*
X43468Y-35973D02*
X43639Y-35973D01*
X43554Y-36273D02*
X43554Y-35973D01*
X43739Y-36273D02*
X43739Y-35973D01*
X43854Y-35973D01*
X43882Y-35987D01*
X43896Y-36002D01*
X43911Y-36030D01*
X43911Y-36073D01*
X43896Y-36102D01*
X43882Y-36116D01*
X43854Y-36130D01*
X43739Y-36130D01*
G54D20*
X39852Y-40638D02*
X39852Y-40526D01*
X40049Y-40582D02*
X39852Y-40582D01*
X40049Y-40347D02*
X39955Y-40413D01*
X40049Y-40460D02*
X39852Y-40460D01*
X39852Y-40385D01*
X39862Y-40366D01*
X39871Y-40357D01*
X39890Y-40347D01*
X39918Y-40347D01*
X39937Y-40357D01*
X39946Y-40366D01*
X39955Y-40385D01*
X39955Y-40460D01*
X39852Y-40282D02*
X39852Y-40160D01*
X39927Y-40225D01*
X39927Y-40197D01*
X39937Y-40178D01*
X39946Y-40169D01*
X39965Y-40160D01*
X40012Y-40160D01*
X40030Y-40169D01*
X40040Y-40178D01*
X40049Y-40197D01*
X40049Y-40253D01*
X40040Y-40272D01*
X40030Y-40282D01*
X43402Y-25988D02*
X43402Y-25876D01*
X43599Y-25932D02*
X43402Y-25932D01*
X43599Y-25697D02*
X43505Y-25763D01*
X43599Y-25810D02*
X43402Y-25810D01*
X43402Y-25735D01*
X43412Y-25716D01*
X43421Y-25707D01*
X43440Y-25697D01*
X43468Y-25697D01*
X43487Y-25707D01*
X43496Y-25716D01*
X43505Y-25735D01*
X43505Y-25810D01*
X43599Y-25510D02*
X43599Y-25622D01*
X43599Y-25566D02*
X43402Y-25566D01*
X43430Y-25585D01*
X43449Y-25603D01*
X43459Y-25622D01*
G54D14*
X50764Y-49471D02*
X50764Y-49171D01*
X50864Y-49385D01*
X50964Y-49171D01*
X50964Y-49471D01*
X51092Y-49457D02*
X51135Y-49471D01*
X51207Y-49471D01*
X51235Y-49457D01*
X51250Y-49442D01*
X51264Y-49414D01*
X51264Y-49385D01*
X51250Y-49357D01*
X51235Y-49342D01*
X51207Y-49328D01*
X51150Y-49314D01*
X51121Y-49300D01*
X51107Y-49285D01*
X51092Y-49257D01*
X51092Y-49228D01*
X51107Y-49200D01*
X51121Y-49185D01*
X51150Y-49171D01*
X51221Y-49171D01*
X51264Y-49185D01*
X51378Y-49200D02*
X51392Y-49185D01*
X51421Y-49171D01*
X51492Y-49171D01*
X51521Y-49185D01*
X51535Y-49200D01*
X51550Y-49228D01*
X51550Y-49257D01*
X51535Y-49300D01*
X51364Y-49471D01*
X51550Y-49471D01*
X61614Y-48871D02*
X61614Y-48571D01*
X61714Y-48785D01*
X61814Y-48571D01*
X61814Y-48871D01*
X61942Y-48857D02*
X61985Y-48871D01*
X62057Y-48871D01*
X62085Y-48857D01*
X62100Y-48842D01*
X62114Y-48814D01*
X62114Y-48785D01*
X62100Y-48757D01*
X62085Y-48742D01*
X62057Y-48728D01*
X62000Y-48714D01*
X61971Y-48700D01*
X61957Y-48685D01*
X61942Y-48657D01*
X61942Y-48628D01*
X61957Y-48600D01*
X61971Y-48585D01*
X62000Y-48571D01*
X62071Y-48571D01*
X62114Y-48585D01*
X62228Y-48600D02*
X62242Y-48585D01*
X62271Y-48571D01*
X62342Y-48571D01*
X62371Y-48585D01*
X62385Y-48600D01*
X62400Y-48628D01*
X62400Y-48657D01*
X62385Y-48700D01*
X62214Y-48871D01*
X62400Y-48871D01*
X61614Y-50071D02*
X61614Y-49771D01*
X61714Y-49985D01*
X61814Y-49771D01*
X61814Y-50071D01*
X61942Y-50057D02*
X61985Y-50071D01*
X62057Y-50071D01*
X62085Y-50057D01*
X62100Y-50042D01*
X62114Y-50014D01*
X62114Y-49985D01*
X62100Y-49957D01*
X62085Y-49942D01*
X62057Y-49928D01*
X62000Y-49914D01*
X61971Y-49900D01*
X61957Y-49885D01*
X61942Y-49857D01*
X61942Y-49828D01*
X61957Y-49800D01*
X61971Y-49785D01*
X62000Y-49771D01*
X62071Y-49771D01*
X62114Y-49785D01*
X62400Y-50071D02*
X62228Y-50071D01*
X62314Y-50071D02*
X62314Y-49771D01*
X62285Y-49814D01*
X62257Y-49842D01*
X62228Y-49857D01*
X50664Y-50571D02*
X50664Y-50271D01*
X50764Y-50485D01*
X50864Y-50271D01*
X50864Y-50571D01*
X50992Y-50557D02*
X51035Y-50571D01*
X51107Y-50571D01*
X51135Y-50557D01*
X51150Y-50542D01*
X51164Y-50514D01*
X51164Y-50485D01*
X51150Y-50457D01*
X51135Y-50442D01*
X51107Y-50428D01*
X51050Y-50414D01*
X51021Y-50400D01*
X51007Y-50385D01*
X50992Y-50357D01*
X50992Y-50328D01*
X51007Y-50300D01*
X51021Y-50285D01*
X51050Y-50271D01*
X51121Y-50271D01*
X51164Y-50285D01*
X51450Y-50571D02*
X51278Y-50571D01*
X51364Y-50571D02*
X51364Y-50271D01*
X51335Y-50314D01*
X51307Y-50342D01*
X51278Y-50357D01*
G54D20*
X53010Y-43250D02*
X52935Y-43303D01*
X53010Y-43340D02*
X52853Y-43340D01*
X52853Y-43280D01*
X52861Y-43265D01*
X52868Y-43258D01*
X52883Y-43250D01*
X52905Y-43250D01*
X52920Y-43258D01*
X52928Y-43265D01*
X52935Y-43280D01*
X52935Y-43340D01*
X52905Y-43116D02*
X53010Y-43116D01*
X52846Y-43153D02*
X52958Y-43191D01*
X52958Y-43093D01*
X52853Y-42966D02*
X52853Y-42996D01*
X52861Y-43011D01*
X52868Y-43019D01*
X52890Y-43034D01*
X52920Y-43041D01*
X52980Y-43041D01*
X52995Y-43034D01*
X53003Y-43026D01*
X53010Y-43011D01*
X53010Y-42981D01*
X53003Y-42966D01*
X52995Y-42959D01*
X52980Y-42951D01*
X52943Y-42951D01*
X52928Y-42959D01*
X52920Y-42966D01*
X52913Y-42981D01*
X52913Y-43011D01*
X52920Y-43026D01*
X52928Y-43034D01*
X52943Y-43041D01*
X47310Y-43250D02*
X47235Y-43303D01*
X47310Y-43340D02*
X47153Y-43340D01*
X47153Y-43280D01*
X47161Y-43265D01*
X47168Y-43258D01*
X47183Y-43250D01*
X47205Y-43250D01*
X47220Y-43258D01*
X47228Y-43265D01*
X47235Y-43280D01*
X47235Y-43340D01*
X47205Y-43116D02*
X47310Y-43116D01*
X47146Y-43153D02*
X47258Y-43191D01*
X47258Y-43093D01*
X47205Y-42966D02*
X47310Y-42966D01*
X47146Y-43004D02*
X47258Y-43041D01*
X47258Y-42944D01*
X63860Y-43650D02*
X63785Y-43703D01*
X63860Y-43740D02*
X63703Y-43740D01*
X63703Y-43680D01*
X63711Y-43665D01*
X63718Y-43658D01*
X63733Y-43650D01*
X63755Y-43650D01*
X63770Y-43658D01*
X63778Y-43665D01*
X63785Y-43680D01*
X63785Y-43740D01*
X63703Y-43598D02*
X63703Y-43501D01*
X63763Y-43553D01*
X63763Y-43531D01*
X63770Y-43516D01*
X63778Y-43508D01*
X63793Y-43501D01*
X63830Y-43501D01*
X63845Y-43508D01*
X63853Y-43516D01*
X63860Y-43531D01*
X63860Y-43576D01*
X63853Y-43591D01*
X63845Y-43598D01*
X63755Y-43366D02*
X63860Y-43366D01*
X63696Y-43404D02*
X63808Y-43441D01*
X63808Y-43344D01*
X58660Y-43300D02*
X58585Y-43353D01*
X58660Y-43390D02*
X58503Y-43390D01*
X58503Y-43330D01*
X58511Y-43315D01*
X58518Y-43308D01*
X58533Y-43300D01*
X58555Y-43300D01*
X58570Y-43308D01*
X58578Y-43315D01*
X58585Y-43330D01*
X58585Y-43390D01*
X58503Y-43248D02*
X58503Y-43151D01*
X58563Y-43203D01*
X58563Y-43181D01*
X58570Y-43166D01*
X58578Y-43158D01*
X58593Y-43151D01*
X58630Y-43151D01*
X58645Y-43158D01*
X58653Y-43166D01*
X58660Y-43181D01*
X58660Y-43226D01*
X58653Y-43241D01*
X58645Y-43248D01*
X58518Y-43091D02*
X58511Y-43084D01*
X58503Y-43069D01*
X58503Y-43031D01*
X58511Y-43016D01*
X58518Y-43009D01*
X58533Y-43001D01*
X58548Y-43001D01*
X58570Y-43009D01*
X58660Y-43099D01*
X58660Y-43001D01*
G54D22*
X54949Y-32233D02*
X54922Y-32196D01*
X54904Y-32233D02*
X54904Y-32154D01*
X54934Y-32154D01*
X54941Y-32158D01*
X54945Y-32162D01*
X54949Y-32170D01*
X54949Y-32181D01*
X54945Y-32188D01*
X54941Y-32192D01*
X54934Y-32196D01*
X54904Y-32196D01*
X55020Y-32154D02*
X54983Y-32154D01*
X54979Y-32192D01*
X54983Y-32188D01*
X54990Y-32185D01*
X55009Y-32185D01*
X55016Y-32188D01*
X55020Y-32192D01*
X55024Y-32200D01*
X55024Y-32218D01*
X55020Y-32226D01*
X55016Y-32230D01*
X55009Y-32233D01*
X54990Y-32233D01*
X54983Y-32230D01*
X54979Y-32226D01*
X55092Y-32154D02*
X55077Y-32154D01*
X55069Y-32158D01*
X55065Y-32162D01*
X55058Y-32173D01*
X55054Y-32188D01*
X55054Y-32218D01*
X55058Y-32226D01*
X55062Y-32230D01*
X55069Y-32233D01*
X55084Y-32233D01*
X55092Y-32230D01*
X55095Y-32226D01*
X55099Y-32218D01*
X55099Y-32200D01*
X55095Y-32192D01*
X55092Y-32188D01*
X55084Y-32185D01*
X55069Y-32185D01*
X55062Y-32188D01*
X55058Y-32192D01*
X55054Y-32200D01*
G54D23*
G54D22*
X47199Y-48779D02*
X47172Y-48742D01*
X47154Y-48779D02*
X47154Y-48700D01*
X47184Y-48700D01*
X47191Y-48704D01*
X47195Y-48708D01*
X47199Y-48716D01*
X47199Y-48727D01*
X47195Y-48734D01*
X47191Y-48738D01*
X47184Y-48742D01*
X47154Y-48742D01*
X47266Y-48727D02*
X47266Y-48779D01*
X47248Y-48697D02*
X47229Y-48753D01*
X47278Y-48753D01*
X47304Y-48708D02*
X47308Y-48704D01*
X47315Y-48700D01*
X47334Y-48700D01*
X47342Y-48704D01*
X47345Y-48708D01*
X47349Y-48716D01*
X47349Y-48723D01*
X47345Y-48734D01*
X47300Y-48779D01*
X47349Y-48779D01*
G54D23*
G54D22*
X43749Y-32333D02*
X43722Y-32296D01*
X43704Y-32333D02*
X43704Y-32254D01*
X43734Y-32254D01*
X43741Y-32258D01*
X43745Y-32262D01*
X43749Y-32270D01*
X43749Y-32281D01*
X43745Y-32288D01*
X43741Y-32292D01*
X43734Y-32296D01*
X43704Y-32296D01*
X43820Y-32254D02*
X43783Y-32254D01*
X43779Y-32292D01*
X43783Y-32288D01*
X43790Y-32285D01*
X43809Y-32285D01*
X43816Y-32288D01*
X43820Y-32292D01*
X43824Y-32300D01*
X43824Y-32318D01*
X43820Y-32326D01*
X43816Y-32330D01*
X43809Y-32333D01*
X43790Y-32333D01*
X43783Y-32330D01*
X43779Y-32326D01*
X43850Y-32254D02*
X43903Y-32254D01*
X43869Y-32333D01*
G54D23*
G54D22*
X64549Y-21283D02*
X64522Y-21246D01*
X64504Y-21283D02*
X64504Y-21204D01*
X64534Y-21204D01*
X64541Y-21208D01*
X64545Y-21212D01*
X64549Y-21220D01*
X64549Y-21231D01*
X64545Y-21238D01*
X64541Y-21242D01*
X64534Y-21246D01*
X64504Y-21246D01*
X64616Y-21204D02*
X64601Y-21204D01*
X64594Y-21208D01*
X64590Y-21212D01*
X64583Y-21223D01*
X64579Y-21238D01*
X64579Y-21268D01*
X64583Y-21276D01*
X64586Y-21280D01*
X64594Y-21283D01*
X64609Y-21283D01*
X64616Y-21280D01*
X64620Y-21276D01*
X64624Y-21268D01*
X64624Y-21250D01*
X64620Y-21242D01*
X64616Y-21238D01*
X64609Y-21235D01*
X64594Y-21235D01*
X64586Y-21238D01*
X64583Y-21242D01*
X64579Y-21250D01*
X64692Y-21204D02*
X64677Y-21204D01*
X64669Y-21208D01*
X64665Y-21212D01*
X64658Y-21223D01*
X64654Y-21238D01*
X64654Y-21268D01*
X64658Y-21276D01*
X64662Y-21280D01*
X64669Y-21283D01*
X64684Y-21283D01*
X64692Y-21280D01*
X64695Y-21276D01*
X64699Y-21268D01*
X64699Y-21250D01*
X64695Y-21242D01*
X64692Y-21238D01*
X64684Y-21235D01*
X64669Y-21235D01*
X64662Y-21238D01*
X64658Y-21242D01*
X64654Y-21250D01*
G54D23*
G54D22*
X41599Y-27479D02*
X41572Y-27442D01*
X41554Y-27479D02*
X41554Y-27400D01*
X41584Y-27400D01*
X41591Y-27404D01*
X41595Y-27408D01*
X41599Y-27416D01*
X41599Y-27427D01*
X41595Y-27434D01*
X41591Y-27438D01*
X41584Y-27442D01*
X41554Y-27442D01*
X41629Y-27408D02*
X41633Y-27404D01*
X41640Y-27400D01*
X41659Y-27400D01*
X41666Y-27404D01*
X41670Y-27408D01*
X41674Y-27416D01*
X41674Y-27423D01*
X41670Y-27434D01*
X41625Y-27479D01*
X41674Y-27479D01*
X41723Y-27400D02*
X41730Y-27400D01*
X41738Y-27404D01*
X41742Y-27408D01*
X41745Y-27416D01*
X41749Y-27431D01*
X41749Y-27449D01*
X41745Y-27464D01*
X41742Y-27472D01*
X41738Y-27476D01*
X41730Y-27479D01*
X41723Y-27479D01*
X41715Y-27476D01*
X41712Y-27472D01*
X41708Y-27464D01*
X41704Y-27449D01*
X41704Y-27431D01*
X41708Y-27416D01*
X41712Y-27408D01*
X41715Y-27404D01*
X41723Y-27400D01*
G54D23*
G54D22*
X35533Y-25350D02*
X35496Y-25377D01*
X35533Y-25395D02*
X35454Y-25395D01*
X35454Y-25365D01*
X35458Y-25358D01*
X35462Y-25354D01*
X35470Y-25350D01*
X35481Y-25350D01*
X35488Y-25354D01*
X35492Y-25358D01*
X35496Y-25365D01*
X35496Y-25395D01*
X35533Y-25275D02*
X35533Y-25320D01*
X35533Y-25298D02*
X35454Y-25298D01*
X35466Y-25305D01*
X35473Y-25313D01*
X35477Y-25320D01*
X35533Y-25237D02*
X35533Y-25222D01*
X35530Y-25215D01*
X35526Y-25211D01*
X35515Y-25204D01*
X35500Y-25200D01*
X35470Y-25200D01*
X35462Y-25204D01*
X35458Y-25207D01*
X35454Y-25215D01*
X35454Y-25230D01*
X35458Y-25237D01*
X35462Y-25241D01*
X35470Y-25245D01*
X35488Y-25245D01*
X35496Y-25241D01*
X35500Y-25237D01*
X35503Y-25230D01*
X35503Y-25215D01*
X35500Y-25207D01*
X35496Y-25204D01*
X35488Y-25200D01*
G54D23*
G54D22*
X35533Y-36750D02*
X35496Y-36777D01*
X35533Y-36795D02*
X35454Y-36795D01*
X35454Y-36765D01*
X35458Y-36758D01*
X35462Y-36754D01*
X35470Y-36750D01*
X35481Y-36750D01*
X35488Y-36754D01*
X35492Y-36758D01*
X35496Y-36765D01*
X35496Y-36795D01*
X35462Y-36720D02*
X35458Y-36716D01*
X35454Y-36709D01*
X35454Y-36690D01*
X35458Y-36683D01*
X35462Y-36679D01*
X35470Y-36675D01*
X35477Y-36675D01*
X35488Y-36679D01*
X35533Y-36724D01*
X35533Y-36675D01*
X35533Y-36600D02*
X35533Y-36645D01*
X35533Y-36622D02*
X35454Y-36622D01*
X35466Y-36630D01*
X35473Y-36637D01*
X35477Y-36645D01*
G54D23*
G54D22*
X37279Y-26250D02*
X37242Y-26277D01*
X37279Y-26295D02*
X37200Y-26295D01*
X37200Y-26265D01*
X37204Y-26258D01*
X37208Y-26254D01*
X37216Y-26250D01*
X37227Y-26250D01*
X37234Y-26254D01*
X37238Y-26258D01*
X37242Y-26265D01*
X37242Y-26295D01*
X37200Y-26183D02*
X37200Y-26198D01*
X37204Y-26205D01*
X37208Y-26209D01*
X37219Y-26216D01*
X37234Y-26220D01*
X37264Y-26220D01*
X37272Y-26216D01*
X37276Y-26213D01*
X37279Y-26205D01*
X37279Y-26190D01*
X37276Y-26183D01*
X37272Y-26179D01*
X37264Y-26175D01*
X37246Y-26175D01*
X37238Y-26179D01*
X37234Y-26183D01*
X37231Y-26190D01*
X37231Y-26205D01*
X37234Y-26213D01*
X37238Y-26216D01*
X37246Y-26220D01*
X37200Y-26104D02*
X37200Y-26141D01*
X37238Y-26145D01*
X37234Y-26141D01*
X37231Y-26134D01*
X37231Y-26115D01*
X37234Y-26107D01*
X37238Y-26104D01*
X37246Y-26100D01*
X37264Y-26100D01*
X37272Y-26104D01*
X37276Y-26107D01*
X37279Y-26115D01*
X37279Y-26134D01*
X37276Y-26141D01*
X37272Y-26145D01*
G54D23*
G54D22*
X38129Y-36750D02*
X38092Y-36777D01*
X38129Y-36795D02*
X38050Y-36795D01*
X38050Y-36765D01*
X38054Y-36758D01*
X38058Y-36754D01*
X38066Y-36750D01*
X38077Y-36750D01*
X38084Y-36754D01*
X38088Y-36758D01*
X38092Y-36765D01*
X38092Y-36795D01*
X38050Y-36683D02*
X38050Y-36698D01*
X38054Y-36705D01*
X38058Y-36709D01*
X38069Y-36716D01*
X38084Y-36720D01*
X38114Y-36720D01*
X38122Y-36716D01*
X38126Y-36713D01*
X38129Y-36705D01*
X38129Y-36690D01*
X38126Y-36683D01*
X38122Y-36679D01*
X38114Y-36675D01*
X38096Y-36675D01*
X38088Y-36679D01*
X38084Y-36683D01*
X38081Y-36690D01*
X38081Y-36705D01*
X38084Y-36713D01*
X38088Y-36716D01*
X38096Y-36720D01*
X38050Y-36649D02*
X38050Y-36596D01*
X38129Y-36630D01*
G54D23*
G54D22*
X38833Y-41550D02*
X38796Y-41577D01*
X38833Y-41595D02*
X38754Y-41595D01*
X38754Y-41565D01*
X38758Y-41558D01*
X38762Y-41554D01*
X38770Y-41550D01*
X38781Y-41550D01*
X38788Y-41554D01*
X38792Y-41558D01*
X38796Y-41565D01*
X38796Y-41595D01*
X38762Y-41520D02*
X38758Y-41516D01*
X38754Y-41509D01*
X38754Y-41490D01*
X38758Y-41483D01*
X38762Y-41479D01*
X38770Y-41475D01*
X38777Y-41475D01*
X38788Y-41479D01*
X38833Y-41524D01*
X38833Y-41475D01*
X38762Y-41445D02*
X38758Y-41441D01*
X38754Y-41434D01*
X38754Y-41415D01*
X38758Y-41407D01*
X38762Y-41404D01*
X38770Y-41400D01*
X38777Y-41400D01*
X38788Y-41404D01*
X38833Y-41449D01*
X38833Y-41400D01*
G54D23*
G54D22*
X44329Y-27300D02*
X44292Y-27327D01*
X44329Y-27345D02*
X44250Y-27345D01*
X44250Y-27315D01*
X44254Y-27308D01*
X44258Y-27304D01*
X44266Y-27300D01*
X44277Y-27300D01*
X44284Y-27304D01*
X44288Y-27308D01*
X44292Y-27315D01*
X44292Y-27345D01*
X44250Y-27274D02*
X44250Y-27221D01*
X44329Y-27255D01*
X44250Y-27199D02*
X44250Y-27146D01*
X44329Y-27180D01*
G54D23*
G54D22*
X41549Y-40633D02*
X41522Y-40596D01*
X41504Y-40633D02*
X41504Y-40554D01*
X41534Y-40554D01*
X41541Y-40558D01*
X41545Y-40562D01*
X41549Y-40570D01*
X41549Y-40581D01*
X41545Y-40588D01*
X41541Y-40592D01*
X41534Y-40596D01*
X41504Y-40596D01*
X41575Y-40554D02*
X41628Y-40554D01*
X41594Y-40633D01*
X41669Y-40588D02*
X41662Y-40585D01*
X41658Y-40581D01*
X41654Y-40573D01*
X41654Y-40570D01*
X41658Y-40562D01*
X41662Y-40558D01*
X41669Y-40554D01*
X41684Y-40554D01*
X41692Y-40558D01*
X41695Y-40562D01*
X41699Y-40570D01*
X41699Y-40573D01*
X41695Y-40581D01*
X41692Y-40585D01*
X41684Y-40588D01*
X41669Y-40588D01*
X41662Y-40592D01*
X41658Y-40596D01*
X41654Y-40603D01*
X41654Y-40618D01*
X41658Y-40626D01*
X41662Y-40630D01*
X41669Y-40633D01*
X41684Y-40633D01*
X41692Y-40630D01*
X41695Y-40626D01*
X41699Y-40618D01*
X41699Y-40603D01*
X41695Y-40596D01*
X41692Y-40592D01*
X41684Y-40588D01*
G54D23*
G54D22*
X38833Y-40050D02*
X38796Y-40077D01*
X38833Y-40095D02*
X38754Y-40095D01*
X38754Y-40065D01*
X38758Y-40058D01*
X38762Y-40054D01*
X38770Y-40050D01*
X38781Y-40050D01*
X38788Y-40054D01*
X38792Y-40058D01*
X38796Y-40065D01*
X38796Y-40095D01*
X38762Y-40020D02*
X38758Y-40016D01*
X38754Y-40009D01*
X38754Y-39990D01*
X38758Y-39983D01*
X38762Y-39979D01*
X38770Y-39975D01*
X38777Y-39975D01*
X38788Y-39979D01*
X38833Y-40024D01*
X38833Y-39975D01*
X38754Y-39949D02*
X38754Y-39900D01*
X38785Y-39926D01*
X38785Y-39915D01*
X38788Y-39907D01*
X38792Y-39904D01*
X38800Y-39900D01*
X38818Y-39900D01*
X38826Y-39904D01*
X38830Y-39907D01*
X38833Y-39915D01*
X38833Y-39937D01*
X38830Y-39945D01*
X38826Y-39949D01*
G54D23*
G54D22*
X58549Y-48679D02*
X58522Y-48642D01*
X58504Y-48679D02*
X58504Y-48600D01*
X58534Y-48600D01*
X58541Y-48604D01*
X58545Y-48608D01*
X58549Y-48616D01*
X58549Y-48627D01*
X58545Y-48634D01*
X58541Y-48638D01*
X58534Y-48642D01*
X58504Y-48642D01*
X58575Y-48600D02*
X58624Y-48600D01*
X58598Y-48631D01*
X58609Y-48631D01*
X58616Y-48634D01*
X58620Y-48638D01*
X58624Y-48646D01*
X58624Y-48664D01*
X58620Y-48672D01*
X58616Y-48676D01*
X58609Y-48679D01*
X58586Y-48679D01*
X58579Y-48676D01*
X58575Y-48672D01*
X58673Y-48600D02*
X58680Y-48600D01*
X58688Y-48604D01*
X58692Y-48608D01*
X58695Y-48616D01*
X58699Y-48631D01*
X58699Y-48649D01*
X58695Y-48664D01*
X58692Y-48672D01*
X58688Y-48676D01*
X58680Y-48679D01*
X58673Y-48679D01*
X58665Y-48676D01*
X58662Y-48672D01*
X58658Y-48664D01*
X58654Y-48649D01*
X58654Y-48631D01*
X58658Y-48616D01*
X58662Y-48608D01*
X58665Y-48604D01*
X58673Y-48600D01*
G54D23*
G54D22*
X58549Y-49133D02*
X58522Y-49096D01*
X58504Y-49133D02*
X58504Y-49054D01*
X58534Y-49054D01*
X58541Y-49058D01*
X58545Y-49062D01*
X58549Y-49070D01*
X58549Y-49081D01*
X58545Y-49088D01*
X58541Y-49092D01*
X58534Y-49096D01*
X58504Y-49096D01*
X58579Y-49062D02*
X58583Y-49058D01*
X58590Y-49054D01*
X58609Y-49054D01*
X58616Y-49058D01*
X58620Y-49062D01*
X58624Y-49070D01*
X58624Y-49077D01*
X58620Y-49088D01*
X58575Y-49133D01*
X58624Y-49133D01*
X58650Y-49054D02*
X58703Y-49054D01*
X58669Y-49133D01*
G54D23*
G54D22*
X57199Y-45833D02*
X57172Y-45796D01*
X57154Y-45833D02*
X57154Y-45754D01*
X57184Y-45754D01*
X57191Y-45758D01*
X57195Y-45762D01*
X57199Y-45770D01*
X57199Y-45781D01*
X57195Y-45788D01*
X57191Y-45792D01*
X57184Y-45796D01*
X57154Y-45796D01*
X57229Y-45762D02*
X57233Y-45758D01*
X57240Y-45754D01*
X57259Y-45754D01*
X57266Y-45758D01*
X57270Y-45762D01*
X57274Y-45770D01*
X57274Y-45777D01*
X57270Y-45788D01*
X57225Y-45833D01*
X57274Y-45833D01*
X57342Y-45754D02*
X57327Y-45754D01*
X57319Y-45758D01*
X57315Y-45762D01*
X57308Y-45773D01*
X57304Y-45788D01*
X57304Y-45818D01*
X57308Y-45826D01*
X57312Y-45830D01*
X57319Y-45833D01*
X57334Y-45833D01*
X57342Y-45830D01*
X57345Y-45826D01*
X57349Y-45818D01*
X57349Y-45800D01*
X57345Y-45792D01*
X57342Y-45788D01*
X57334Y-45785D01*
X57319Y-45785D01*
X57312Y-45788D01*
X57308Y-45792D01*
X57304Y-45800D01*
G54D23*
G54D22*
X45133Y-47150D02*
X45096Y-47177D01*
X45133Y-47195D02*
X45054Y-47195D01*
X45054Y-47165D01*
X45058Y-47158D01*
X45062Y-47154D01*
X45070Y-47150D01*
X45081Y-47150D01*
X45088Y-47154D01*
X45092Y-47158D01*
X45096Y-47165D01*
X45096Y-47195D01*
X45054Y-47124D02*
X45054Y-47075D01*
X45085Y-47101D01*
X45085Y-47090D01*
X45088Y-47083D01*
X45092Y-47079D01*
X45100Y-47075D01*
X45118Y-47075D01*
X45126Y-47079D01*
X45130Y-47083D01*
X45133Y-47090D01*
X45133Y-47113D01*
X45130Y-47120D01*
X45126Y-47124D01*
X45088Y-47030D02*
X45085Y-47037D01*
X45081Y-47041D01*
X45073Y-47045D01*
X45070Y-47045D01*
X45062Y-47041D01*
X45058Y-47037D01*
X45054Y-47030D01*
X45054Y-47015D01*
X45058Y-47007D01*
X45062Y-47004D01*
X45070Y-47000D01*
X45073Y-47000D01*
X45081Y-47004D01*
X45085Y-47007D01*
X45088Y-47015D01*
X45088Y-47030D01*
X45092Y-47037D01*
X45096Y-47041D01*
X45103Y-47045D01*
X45118Y-47045D01*
X45126Y-47041D01*
X45130Y-47037D01*
X45133Y-47030D01*
X45133Y-47015D01*
X45130Y-47007D01*
X45126Y-47004D01*
X45118Y-47000D01*
X45103Y-47000D01*
X45096Y-47004D01*
X45092Y-47007D01*
X45088Y-47015D01*
G54D23*
G54D22*
X47199Y-49333D02*
X47172Y-49296D01*
X47154Y-49333D02*
X47154Y-49254D01*
X47184Y-49254D01*
X47191Y-49258D01*
X47195Y-49262D01*
X47199Y-49270D01*
X47199Y-49281D01*
X47195Y-49288D01*
X47191Y-49292D01*
X47184Y-49296D01*
X47154Y-49296D01*
X47225Y-49254D02*
X47274Y-49254D01*
X47248Y-49285D01*
X47259Y-49285D01*
X47266Y-49288D01*
X47270Y-49292D01*
X47274Y-49300D01*
X47274Y-49318D01*
X47270Y-49326D01*
X47266Y-49330D01*
X47259Y-49333D01*
X47236Y-49333D01*
X47229Y-49330D01*
X47225Y-49326D01*
X47312Y-49333D02*
X47327Y-49333D01*
X47334Y-49330D01*
X47338Y-49326D01*
X47345Y-49315D01*
X47349Y-49300D01*
X47349Y-49270D01*
X47345Y-49262D01*
X47342Y-49258D01*
X47334Y-49254D01*
X47319Y-49254D01*
X47312Y-49258D01*
X47308Y-49262D01*
X47304Y-49270D01*
X47304Y-49288D01*
X47308Y-49296D01*
X47312Y-49300D01*
X47319Y-49303D01*
X47334Y-49303D01*
X47342Y-49300D01*
X47345Y-49296D01*
X47349Y-49288D01*
G54D23*
G54D22*
X42899Y-27479D02*
X42872Y-27442D01*
X42854Y-27479D02*
X42854Y-27400D01*
X42884Y-27400D01*
X42891Y-27404D01*
X42895Y-27408D01*
X42899Y-27416D01*
X42899Y-27427D01*
X42895Y-27434D01*
X42891Y-27438D01*
X42884Y-27442D01*
X42854Y-27442D01*
X42974Y-27479D02*
X42929Y-27479D01*
X42951Y-27479D02*
X42951Y-27400D01*
X42944Y-27412D01*
X42936Y-27419D01*
X42929Y-27423D01*
X43019Y-27434D02*
X43012Y-27431D01*
X43008Y-27427D01*
X43004Y-27419D01*
X43004Y-27416D01*
X43008Y-27408D01*
X43012Y-27404D01*
X43019Y-27400D01*
X43034Y-27400D01*
X43042Y-27404D01*
X43045Y-27408D01*
X43049Y-27416D01*
X43049Y-27419D01*
X43045Y-27427D01*
X43042Y-27431D01*
X43034Y-27434D01*
X43019Y-27434D01*
X43012Y-27438D01*
X43008Y-27442D01*
X43004Y-27449D01*
X43004Y-27464D01*
X43008Y-27472D01*
X43012Y-27476D01*
X43019Y-27479D01*
X43034Y-27479D01*
X43042Y-27476D01*
X43045Y-27472D01*
X43049Y-27464D01*
X43049Y-27449D01*
X43045Y-27442D01*
X43042Y-27438D01*
X43034Y-27434D01*
G54D23*
G54D22*
X44329Y-34950D02*
X44292Y-34977D01*
X44329Y-34995D02*
X44250Y-34995D01*
X44250Y-34965D01*
X44254Y-34958D01*
X44258Y-34954D01*
X44266Y-34950D01*
X44277Y-34950D01*
X44284Y-34954D01*
X44288Y-34958D01*
X44292Y-34965D01*
X44292Y-34995D01*
X44250Y-34883D02*
X44250Y-34898D01*
X44254Y-34905D01*
X44258Y-34909D01*
X44269Y-34916D01*
X44284Y-34920D01*
X44314Y-34920D01*
X44322Y-34916D01*
X44326Y-34913D01*
X44329Y-34905D01*
X44329Y-34890D01*
X44326Y-34883D01*
X44322Y-34879D01*
X44314Y-34875D01*
X44296Y-34875D01*
X44288Y-34879D01*
X44284Y-34883D01*
X44281Y-34890D01*
X44281Y-34905D01*
X44284Y-34913D01*
X44288Y-34916D01*
X44296Y-34920D01*
X44329Y-34837D02*
X44329Y-34822D01*
X44326Y-34815D01*
X44322Y-34811D01*
X44311Y-34804D01*
X44296Y-34800D01*
X44266Y-34800D01*
X44258Y-34804D01*
X44254Y-34807D01*
X44250Y-34815D01*
X44250Y-34830D01*
X44254Y-34837D01*
X44258Y-34841D01*
X44266Y-34845D01*
X44284Y-34845D01*
X44292Y-34841D01*
X44296Y-34837D01*
X44299Y-34830D01*
X44299Y-34815D01*
X44296Y-34807D01*
X44292Y-34804D01*
X44284Y-34800D01*
G54D23*
G54D22*
X55629Y-34750D02*
X55592Y-34777D01*
X55629Y-34795D02*
X55550Y-34795D01*
X55550Y-34765D01*
X55554Y-34758D01*
X55558Y-34754D01*
X55566Y-34750D01*
X55577Y-34750D01*
X55584Y-34754D01*
X55588Y-34758D01*
X55592Y-34765D01*
X55592Y-34795D01*
X55550Y-34724D02*
X55550Y-34671D01*
X55629Y-34705D01*
X55558Y-34645D02*
X55554Y-34641D01*
X55550Y-34634D01*
X55550Y-34615D01*
X55554Y-34607D01*
X55558Y-34604D01*
X55566Y-34600D01*
X55573Y-34600D01*
X55584Y-34604D01*
X55629Y-34649D01*
X55629Y-34600D01*
G54D23*
G54D22*
X63283Y-26250D02*
X63246Y-26277D01*
X63283Y-26295D02*
X63204Y-26295D01*
X63204Y-26265D01*
X63208Y-26258D01*
X63212Y-26254D01*
X63220Y-26250D01*
X63231Y-26250D01*
X63238Y-26254D01*
X63242Y-26258D01*
X63246Y-26265D01*
X63246Y-26295D01*
X63204Y-26224D02*
X63204Y-26175D01*
X63235Y-26201D01*
X63235Y-26190D01*
X63238Y-26183D01*
X63242Y-26179D01*
X63250Y-26175D01*
X63268Y-26175D01*
X63276Y-26179D01*
X63280Y-26183D01*
X63283Y-26190D01*
X63283Y-26213D01*
X63280Y-26220D01*
X63276Y-26224D01*
X63204Y-26149D02*
X63204Y-26096D01*
X63283Y-26130D01*
G54D23*
G54D16*
X39475Y-48886D02*
X39761Y-48886D01*
X39818Y-48905D01*
X39856Y-48943D01*
X39875Y-49001D01*
X39875Y-49039D01*
X39875Y-48486D02*
X39875Y-48715D01*
X39875Y-48601D02*
X39475Y-48601D01*
X39533Y-48639D01*
X39571Y-48677D01*
X39590Y-48715D01*
X39475Y-48124D02*
X39475Y-48315D01*
X39666Y-48334D01*
X39647Y-48315D01*
X39628Y-48277D01*
X39628Y-48182D01*
X39647Y-48143D01*
X39666Y-48124D01*
X39704Y-48105D01*
X39799Y-48105D01*
X39837Y-48124D01*
X39856Y-48143D01*
X39875Y-48182D01*
X39875Y-48277D01*
X39856Y-48315D01*
X39837Y-48334D01*
X39764Y-47196D02*
X39764Y-47063D01*
X39973Y-47006D02*
X39973Y-47196D01*
X39573Y-47196D01*
X39573Y-47006D01*
X39573Y-46758D02*
X39573Y-46720D01*
X39592Y-46682D01*
X39612Y-46663D01*
X39650Y-46644D01*
X39726Y-46625D01*
X39821Y-46625D01*
X39897Y-46644D01*
X39935Y-46663D01*
X39954Y-46682D01*
X39973Y-46720D01*
X39973Y-46758D01*
X39954Y-46796D01*
X39935Y-46815D01*
X39897Y-46835D01*
X39821Y-46854D01*
X39726Y-46854D01*
X39650Y-46835D01*
X39612Y-46815D01*
X39592Y-46796D01*
X39573Y-46758D01*
X39973Y-46149D02*
X39573Y-46149D01*
X39859Y-46016D01*
X39573Y-45882D01*
X39973Y-45882D01*
X39573Y-45615D02*
X39573Y-45539D01*
X39592Y-45501D01*
X39631Y-45463D01*
X39707Y-45444D01*
X39840Y-45444D01*
X39916Y-45463D01*
X39954Y-45501D01*
X39973Y-45539D01*
X39973Y-45615D01*
X39954Y-45654D01*
X39916Y-45692D01*
X39840Y-45711D01*
X39707Y-45711D01*
X39631Y-45692D01*
X39592Y-45654D01*
X39573Y-45615D01*
X39573Y-45330D02*
X39573Y-45101D01*
X39973Y-45215D02*
X39573Y-45215D01*
X39554Y-44682D02*
X40069Y-45025D01*
X39954Y-44568D02*
X39973Y-44511D01*
X39973Y-44416D01*
X39954Y-44377D01*
X39935Y-44358D01*
X39897Y-44339D01*
X39859Y-44339D01*
X39821Y-44358D01*
X39802Y-44377D01*
X39783Y-44416D01*
X39764Y-44492D01*
X39745Y-44530D01*
X39726Y-44549D01*
X39688Y-44568D01*
X39650Y-44568D01*
X39612Y-44549D01*
X39592Y-44530D01*
X39573Y-44492D01*
X39573Y-44396D01*
X39592Y-44339D01*
X39573Y-44225D02*
X39573Y-43996D01*
X39973Y-44111D02*
X39573Y-44111D01*
X39573Y-43787D02*
X39573Y-43711D01*
X39592Y-43673D01*
X39631Y-43635D01*
X39707Y-43616D01*
X39840Y-43616D01*
X39916Y-43635D01*
X39954Y-43673D01*
X39973Y-43711D01*
X39973Y-43787D01*
X39954Y-43825D01*
X39916Y-43863D01*
X39840Y-43882D01*
X39707Y-43882D01*
X39631Y-43863D01*
X39592Y-43825D01*
X39573Y-43787D01*
X39973Y-43444D02*
X39573Y-43444D01*
X39573Y-43292D01*
X39592Y-43254D01*
X39612Y-43235D01*
X39650Y-43216D01*
X39707Y-43216D01*
X39745Y-43235D01*
X39764Y-43254D01*
X39783Y-43292D01*
X39783Y-43444D01*
X31761Y-46473D02*
X32047Y-46473D01*
X32104Y-46492D01*
X32142Y-46530D01*
X32161Y-46588D01*
X32161Y-46626D01*
X32161Y-46073D02*
X32161Y-46302D01*
X32161Y-46188D02*
X31761Y-46188D01*
X31819Y-46226D01*
X31857Y-46264D01*
X31876Y-46302D01*
X31895Y-45730D02*
X32161Y-45730D01*
X31742Y-45826D02*
X32028Y-45921D01*
X32028Y-45673D01*
X33702Y-48330D02*
X33702Y-48197D01*
X33911Y-48140D02*
X33911Y-48330D01*
X33511Y-48330D01*
X33511Y-48140D01*
X33511Y-47892D02*
X33511Y-47854D01*
X33530Y-47816D01*
X33550Y-47797D01*
X33588Y-47778D01*
X33664Y-47759D01*
X33759Y-47759D01*
X33835Y-47778D01*
X33873Y-47797D01*
X33892Y-47816D01*
X33911Y-47854D01*
X33911Y-47892D01*
X33892Y-47930D01*
X33873Y-47949D01*
X33835Y-47969D01*
X33759Y-47988D01*
X33664Y-47988D01*
X33588Y-47969D01*
X33550Y-47949D01*
X33530Y-47930D01*
X33511Y-47892D01*
X33911Y-47283D02*
X33511Y-47283D01*
X33797Y-47150D01*
X33511Y-47016D01*
X33911Y-47016D01*
X33511Y-46749D02*
X33511Y-46673D01*
X33530Y-46635D01*
X33569Y-46597D01*
X33645Y-46578D01*
X33778Y-46578D01*
X33854Y-46597D01*
X33892Y-46635D01*
X33911Y-46673D01*
X33911Y-46749D01*
X33892Y-46788D01*
X33854Y-46826D01*
X33778Y-46845D01*
X33645Y-46845D01*
X33569Y-46826D01*
X33530Y-46788D01*
X33511Y-46749D01*
X33511Y-46464D02*
X33511Y-46235D01*
X33911Y-46349D02*
X33511Y-46349D01*
X33492Y-45816D02*
X34007Y-46159D01*
X33892Y-45702D02*
X33911Y-45645D01*
X33911Y-45550D01*
X33892Y-45511D01*
X33873Y-45492D01*
X33835Y-45473D01*
X33797Y-45473D01*
X33759Y-45492D01*
X33740Y-45511D01*
X33721Y-45550D01*
X33702Y-45626D01*
X33683Y-45664D01*
X33664Y-45683D01*
X33626Y-45702D01*
X33588Y-45702D01*
X33550Y-45683D01*
X33530Y-45664D01*
X33511Y-45626D01*
X33511Y-45530D01*
X33530Y-45473D01*
X33511Y-45359D02*
X33511Y-45130D01*
X33911Y-45245D02*
X33511Y-45245D01*
X33511Y-44921D02*
X33511Y-44845D01*
X33530Y-44807D01*
X33569Y-44769D01*
X33645Y-44750D01*
X33778Y-44750D01*
X33854Y-44769D01*
X33892Y-44807D01*
X33911Y-44845D01*
X33911Y-44921D01*
X33892Y-44959D01*
X33854Y-44997D01*
X33778Y-45016D01*
X33645Y-45016D01*
X33569Y-44997D01*
X33530Y-44959D01*
X33511Y-44921D01*
X33911Y-44578D02*
X33511Y-44578D01*
X33511Y-44426D01*
X33530Y-44388D01*
X33550Y-44369D01*
X33588Y-44350D01*
X33645Y-44350D01*
X33683Y-44369D01*
X33702Y-44388D01*
X33721Y-44426D01*
X33721Y-44578D01*
X56266Y-31361D02*
X56266Y-31647D01*
X56247Y-31704D01*
X56209Y-31742D01*
X56152Y-31761D01*
X56114Y-31761D01*
X56476Y-31761D02*
X56552Y-31761D01*
X56590Y-31742D01*
X56609Y-31723D01*
X56647Y-31666D01*
X56666Y-31590D01*
X56666Y-31438D01*
X56647Y-31400D01*
X56628Y-31380D01*
X56590Y-31361D01*
X56514Y-31361D01*
X56476Y-31380D01*
X56457Y-31400D01*
X56438Y-31438D01*
X56438Y-31533D01*
X56457Y-31571D01*
X56476Y-31590D01*
X56514Y-31609D01*
X56590Y-31609D01*
X56628Y-31590D01*
X56647Y-31571D01*
X56666Y-31533D01*
X59069Y-31652D02*
X59202Y-31652D01*
X59259Y-31861D02*
X59069Y-31861D01*
X59069Y-31461D01*
X59259Y-31461D01*
X59640Y-31861D02*
X59411Y-31861D01*
X59526Y-31861D02*
X59526Y-31461D01*
X59488Y-31519D01*
X59450Y-31557D01*
X59411Y-31576D01*
X60116Y-31861D02*
X60116Y-31461D01*
X60250Y-31747D01*
X60383Y-31461D01*
X60383Y-31861D01*
X60650Y-31461D02*
X60726Y-31461D01*
X60764Y-31480D01*
X60802Y-31519D01*
X60821Y-31595D01*
X60821Y-31728D01*
X60802Y-31804D01*
X60764Y-31842D01*
X60726Y-31861D01*
X60650Y-31861D01*
X60611Y-31842D01*
X60573Y-31804D01*
X60554Y-31728D01*
X60554Y-31595D01*
X60573Y-31519D01*
X60611Y-31480D01*
X60650Y-31461D01*
X60935Y-31461D02*
X61164Y-31461D01*
X61050Y-31861D02*
X61050Y-31461D01*
X61583Y-31442D02*
X61240Y-31957D01*
X61697Y-31842D02*
X61754Y-31861D01*
X61850Y-31861D01*
X61888Y-31842D01*
X61907Y-31823D01*
X61926Y-31785D01*
X61926Y-31747D01*
X61907Y-31709D01*
X61888Y-31690D01*
X61850Y-31671D01*
X61773Y-31652D01*
X61735Y-31633D01*
X61716Y-31614D01*
X61697Y-31576D01*
X61697Y-31538D01*
X61716Y-31500D01*
X61735Y-31480D01*
X61773Y-31461D01*
X61869Y-31461D01*
X61926Y-31480D01*
X62040Y-31461D02*
X62269Y-31461D01*
X62154Y-31861D02*
X62154Y-31461D01*
X62478Y-31461D02*
X62554Y-31461D01*
X62592Y-31480D01*
X62630Y-31519D01*
X62650Y-31595D01*
X62650Y-31728D01*
X62630Y-31804D01*
X62592Y-31842D01*
X62554Y-31861D01*
X62478Y-31861D01*
X62440Y-31842D01*
X62402Y-31804D01*
X62383Y-31728D01*
X62383Y-31595D01*
X62402Y-31519D01*
X62440Y-31480D01*
X62478Y-31461D01*
X62821Y-31861D02*
X62821Y-31461D01*
X62973Y-31461D01*
X63011Y-31480D01*
X63030Y-31500D01*
X63050Y-31538D01*
X63050Y-31595D01*
X63030Y-31633D01*
X63011Y-31652D01*
X62973Y-31671D01*
X62821Y-31671D01*
X44966Y-31361D02*
X44966Y-31647D01*
X44947Y-31704D01*
X44909Y-31742D01*
X44852Y-31761D01*
X44814Y-31761D01*
X45214Y-31533D02*
X45176Y-31514D01*
X45157Y-31495D01*
X45138Y-31457D01*
X45138Y-31438D01*
X45157Y-31400D01*
X45176Y-31380D01*
X45214Y-31361D01*
X45290Y-31361D01*
X45328Y-31380D01*
X45347Y-31400D01*
X45366Y-31438D01*
X45366Y-31457D01*
X45347Y-31495D01*
X45328Y-31514D01*
X45290Y-31533D01*
X45214Y-31533D01*
X45176Y-31552D01*
X45157Y-31571D01*
X45138Y-31609D01*
X45138Y-31685D01*
X45157Y-31723D01*
X45176Y-31742D01*
X45214Y-31761D01*
X45290Y-31761D01*
X45328Y-31742D01*
X45347Y-31723D01*
X45366Y-31685D01*
X45366Y-31609D01*
X45347Y-31571D01*
X45328Y-31552D01*
X45290Y-31533D01*
X47669Y-31552D02*
X47802Y-31552D01*
X47859Y-31761D02*
X47669Y-31761D01*
X47669Y-31361D01*
X47859Y-31361D01*
X48011Y-31400D02*
X48030Y-31380D01*
X48069Y-31361D01*
X48164Y-31361D01*
X48202Y-31380D01*
X48221Y-31400D01*
X48240Y-31438D01*
X48240Y-31476D01*
X48221Y-31533D01*
X47992Y-31761D01*
X48240Y-31761D01*
X48716Y-31761D02*
X48716Y-31361D01*
X48850Y-31647D01*
X48983Y-31361D01*
X48983Y-31761D01*
X49250Y-31361D02*
X49326Y-31361D01*
X49364Y-31380D01*
X49402Y-31419D01*
X49421Y-31495D01*
X49421Y-31628D01*
X49402Y-31704D01*
X49364Y-31742D01*
X49326Y-31761D01*
X49250Y-31761D01*
X49211Y-31742D01*
X49173Y-31704D01*
X49154Y-31628D01*
X49154Y-31495D01*
X49173Y-31419D01*
X49211Y-31380D01*
X49250Y-31361D01*
X49535Y-31361D02*
X49764Y-31361D01*
X49650Y-31761D02*
X49650Y-31361D01*
X50183Y-31342D02*
X49840Y-31857D01*
X50297Y-31742D02*
X50354Y-31761D01*
X50450Y-31761D01*
X50488Y-31742D01*
X50507Y-31723D01*
X50526Y-31685D01*
X50526Y-31647D01*
X50507Y-31609D01*
X50488Y-31590D01*
X50450Y-31571D01*
X50373Y-31552D01*
X50335Y-31533D01*
X50316Y-31514D01*
X50297Y-31476D01*
X50297Y-31438D01*
X50316Y-31400D01*
X50335Y-31380D01*
X50373Y-31361D01*
X50469Y-31361D01*
X50526Y-31380D01*
X50640Y-31361D02*
X50869Y-31361D01*
X50754Y-31761D02*
X50754Y-31361D01*
X51078Y-31361D02*
X51154Y-31361D01*
X51192Y-31380D01*
X51230Y-31419D01*
X51250Y-31495D01*
X51250Y-31628D01*
X51230Y-31704D01*
X51192Y-31742D01*
X51154Y-31761D01*
X51078Y-31761D01*
X51040Y-31742D01*
X51002Y-31704D01*
X50983Y-31628D01*
X50983Y-31495D01*
X51002Y-31419D01*
X51040Y-31380D01*
X51078Y-31361D01*
X51421Y-31761D02*
X51421Y-31361D01*
X51573Y-31361D01*
X51611Y-31380D01*
X51630Y-31400D01*
X51650Y-31438D01*
X51650Y-31495D01*
X51630Y-31533D01*
X51611Y-31552D01*
X51573Y-31571D01*
X51421Y-31571D01*
X40176Y-20711D02*
X40176Y-20997D01*
X40157Y-21054D01*
X40119Y-21092D01*
X40061Y-21111D01*
X40023Y-21111D01*
X40576Y-21111D02*
X40347Y-21111D01*
X40461Y-21111D02*
X40461Y-20711D01*
X40423Y-20769D01*
X40385Y-20807D01*
X40347Y-20826D01*
X40728Y-20750D02*
X40747Y-20730D01*
X40785Y-20711D01*
X40880Y-20711D01*
X40919Y-20730D01*
X40938Y-20750D01*
X40957Y-20788D01*
X40957Y-20826D01*
X40938Y-20883D01*
X40709Y-21111D01*
X40957Y-21111D01*
X35411Y-20902D02*
X35545Y-20902D01*
X35602Y-21111D02*
X35411Y-21111D01*
X35411Y-20711D01*
X35602Y-20711D01*
X35983Y-21111D02*
X35754Y-21111D01*
X35869Y-21111D02*
X35869Y-20711D01*
X35830Y-20769D01*
X35792Y-20807D01*
X35754Y-20826D01*
X36459Y-21111D02*
X36459Y-20711D01*
X36459Y-20902D02*
X36688Y-20902D01*
X36688Y-21111D02*
X36688Y-20711D01*
X37202Y-21111D02*
X37183Y-21111D01*
X37145Y-21092D01*
X37088Y-21035D01*
X36992Y-20921D01*
X36954Y-20864D01*
X36935Y-20807D01*
X36935Y-20769D01*
X36954Y-20730D01*
X36992Y-20711D01*
X37011Y-20711D01*
X37050Y-20730D01*
X37069Y-20769D01*
X37069Y-20788D01*
X37050Y-20826D01*
X37030Y-20845D01*
X36916Y-20921D01*
X36897Y-20940D01*
X36878Y-20978D01*
X36878Y-21035D01*
X36897Y-21073D01*
X36916Y-21092D01*
X36954Y-21111D01*
X37011Y-21111D01*
X37050Y-21092D01*
X37069Y-21073D01*
X37126Y-20997D01*
X37145Y-20940D01*
X37145Y-20902D01*
X37316Y-20711D02*
X37545Y-20711D01*
X37430Y-21111D02*
X37430Y-20711D01*
G54D21*
X68661Y-52245D02*
X68261Y-52245D01*
X68261Y-52092D01*
X68280Y-52054D01*
X68300Y-52035D01*
X68338Y-52016D01*
X68395Y-52016D01*
X68433Y-52035D01*
X68452Y-52054D01*
X68471Y-52092D01*
X68471Y-52245D01*
X68661Y-51635D02*
X68661Y-51864D01*
X68661Y-51749D02*
X68261Y-51749D01*
X68319Y-51788D01*
X68357Y-51826D01*
X68376Y-51864D01*
X48116Y-54584D02*
X48402Y-54584D01*
X48459Y-54603D01*
X48497Y-54641D01*
X48516Y-54699D01*
X48516Y-54737D01*
X48155Y-54413D02*
X48135Y-54394D01*
X48116Y-54356D01*
X48116Y-54261D01*
X48135Y-54222D01*
X48155Y-54203D01*
X48193Y-54184D01*
X48231Y-54184D01*
X48288Y-54203D01*
X48516Y-54432D01*
X48516Y-54184D01*
X48288Y-53956D02*
X48269Y-53994D01*
X48250Y-54013D01*
X48212Y-54032D01*
X48193Y-54032D01*
X48155Y-54013D01*
X48135Y-53994D01*
X48116Y-53956D01*
X48116Y-53880D01*
X48135Y-53841D01*
X48155Y-53822D01*
X48193Y-53803D01*
X48212Y-53803D01*
X48250Y-53822D01*
X48269Y-53841D01*
X48288Y-53880D01*
X48288Y-53956D01*
X48307Y-53994D01*
X48326Y-54013D01*
X48364Y-54032D01*
X48440Y-54032D01*
X48478Y-54013D01*
X48497Y-53994D01*
X48516Y-53956D01*
X48516Y-53880D01*
X48497Y-53841D01*
X48478Y-53822D01*
X48440Y-53803D01*
X48364Y-53803D01*
X48326Y-53822D01*
X48307Y-53841D01*
X48288Y-53880D01*
G54D16*
X33571Y-58992D02*
X33785Y-58992D01*
X33828Y-59007D01*
X33857Y-59035D01*
X33871Y-59078D01*
X33871Y-59107D01*
X33871Y-58692D02*
X33871Y-58864D01*
X33871Y-58778D02*
X33571Y-58778D01*
X33614Y-58807D01*
X33642Y-58835D01*
X33657Y-58864D01*
X33571Y-58592D02*
X33571Y-58407D01*
X33685Y-58507D01*
X33685Y-58464D01*
X33700Y-58435D01*
X33714Y-58421D01*
X33742Y-58407D01*
X33814Y-58407D01*
X33842Y-58421D01*
X33857Y-58435D01*
X33871Y-58464D01*
X33871Y-58550D01*
X33857Y-58578D01*
X33842Y-58592D01*
X55321Y-57892D02*
X55535Y-57892D01*
X55578Y-57907D01*
X55607Y-57935D01*
X55621Y-57978D01*
X55621Y-58007D01*
X55350Y-57764D02*
X55335Y-57749D01*
X55321Y-57721D01*
X55321Y-57649D01*
X55335Y-57621D01*
X55350Y-57607D01*
X55378Y-57592D01*
X55407Y-57592D01*
X55450Y-57607D01*
X55621Y-57778D01*
X55621Y-57592D01*
X55421Y-57335D02*
X55621Y-57335D01*
X55307Y-57407D02*
X55521Y-57478D01*
X55521Y-57292D01*
X55971Y-55999D02*
X56185Y-55999D01*
X56228Y-56014D01*
X56257Y-56042D01*
X56271Y-56085D01*
X56271Y-56114D01*
X56000Y-55871D02*
X55985Y-55857D01*
X55971Y-55828D01*
X55971Y-55757D01*
X55985Y-55728D01*
X56000Y-55714D01*
X56028Y-55700D01*
X56057Y-55700D01*
X56100Y-55714D01*
X56271Y-55885D01*
X56271Y-55700D01*
X55971Y-53699D02*
X56185Y-53699D01*
X56228Y-53714D01*
X56257Y-53742D01*
X56271Y-53785D01*
X56271Y-53814D01*
X56071Y-53428D02*
X56271Y-53428D01*
X55957Y-53500D02*
X56171Y-53571D01*
X56171Y-53385D01*
G54D18*
X67674Y-31629D02*
X67960Y-31629D01*
X68017Y-31648D01*
X68055Y-31686D01*
X68074Y-31743D01*
X68074Y-31781D01*
X68074Y-31229D02*
X68074Y-31457D01*
X68074Y-31343D02*
X67674Y-31343D01*
X67732Y-31381D01*
X67770Y-31419D01*
X67789Y-31457D01*
G54D21*
X67964Y-35616D02*
X67964Y-35483D01*
X68173Y-35426D02*
X68173Y-35616D01*
X67773Y-35616D01*
X67773Y-35426D01*
X67773Y-35293D02*
X68173Y-35026D01*
X67773Y-35026D02*
X68173Y-35293D01*
X68173Y-34874D02*
X67773Y-34874D01*
X67773Y-34721D01*
X67792Y-34683D01*
X67812Y-34664D01*
X67850Y-34645D01*
X67907Y-34645D01*
X67945Y-34664D01*
X67964Y-34683D01*
X67983Y-34721D01*
X67983Y-34874D01*
X68059Y-34493D02*
X68059Y-34302D01*
X68173Y-34531D02*
X67773Y-34397D01*
X68173Y-34264D01*
X68173Y-34131D02*
X67773Y-34131D01*
X68173Y-33902D01*
X67773Y-33902D01*
X68154Y-33731D02*
X68173Y-33674D01*
X68173Y-33578D01*
X68154Y-33540D01*
X68135Y-33521D01*
X68097Y-33502D01*
X68059Y-33502D01*
X68021Y-33521D01*
X68002Y-33540D01*
X67983Y-33578D01*
X67964Y-33655D01*
X67945Y-33693D01*
X67926Y-33712D01*
X67888Y-33731D01*
X67850Y-33731D01*
X67812Y-33712D01*
X67792Y-33693D01*
X67773Y-33655D01*
X67773Y-33559D01*
X67792Y-33502D01*
X68173Y-33331D02*
X67773Y-33331D01*
X67773Y-33064D02*
X67773Y-32988D01*
X67792Y-32950D01*
X67831Y-32912D01*
X67907Y-32893D01*
X68040Y-32893D01*
X68116Y-32912D01*
X68154Y-32950D01*
X68173Y-32988D01*
X68173Y-33064D01*
X68154Y-33102D01*
X68116Y-33140D01*
X68040Y-33159D01*
X67907Y-33159D01*
X67831Y-33140D01*
X67792Y-33102D01*
X67773Y-33064D01*
X68173Y-32721D02*
X67773Y-32721D01*
X68173Y-32493D01*
X67773Y-32493D01*
G54D20*
X38161Y-35415D02*
X38004Y-35415D01*
X38004Y-35378D01*
X38012Y-35356D01*
X38026Y-35341D01*
X38041Y-35333D01*
X38071Y-35326D01*
X38094Y-35326D01*
X38124Y-35333D01*
X38139Y-35341D01*
X38154Y-35356D01*
X38161Y-35378D01*
X38161Y-35415D01*
X38004Y-35273D02*
X38004Y-35169D01*
X38161Y-35236D01*
X37311Y-24915D02*
X37154Y-24915D01*
X37154Y-24878D01*
X37162Y-24856D01*
X37176Y-24841D01*
X37191Y-24833D01*
X37221Y-24826D01*
X37244Y-24826D01*
X37274Y-24833D01*
X37289Y-24841D01*
X37304Y-24856D01*
X37311Y-24878D01*
X37311Y-24915D01*
X37154Y-24691D02*
X37154Y-24721D01*
X37162Y-24736D01*
X37169Y-24743D01*
X37191Y-24758D01*
X37221Y-24766D01*
X37281Y-24766D01*
X37296Y-24758D01*
X37304Y-24751D01*
X37311Y-24736D01*
X37311Y-24706D01*
X37304Y-24691D01*
X37296Y-24684D01*
X37281Y-24676D01*
X37244Y-24676D01*
X37229Y-24684D01*
X37221Y-24691D01*
X37214Y-24706D01*
X37214Y-24736D01*
X37221Y-24751D01*
X37229Y-24758D01*
X37244Y-24766D01*
X44361Y-33715D02*
X44204Y-33715D01*
X44204Y-33678D01*
X44212Y-33656D01*
X44226Y-33641D01*
X44241Y-33633D01*
X44271Y-33626D01*
X44294Y-33626D01*
X44324Y-33633D01*
X44339Y-33641D01*
X44354Y-33656D01*
X44361Y-33678D01*
X44361Y-33715D01*
X44361Y-33551D02*
X44361Y-33521D01*
X44354Y-33506D01*
X44346Y-33499D01*
X44324Y-33484D01*
X44294Y-33476D01*
X44234Y-33476D01*
X44219Y-33484D01*
X44212Y-33491D01*
X44204Y-33506D01*
X44204Y-33536D01*
X44212Y-33551D01*
X44219Y-33558D01*
X44234Y-33566D01*
X44271Y-33566D01*
X44286Y-33558D01*
X44294Y-33551D01*
X44301Y-33536D01*
X44301Y-33506D01*
X44294Y-33491D01*
X44286Y-33484D01*
X44271Y-33476D01*
X55661Y-33590D02*
X55504Y-33590D01*
X55504Y-33553D01*
X55512Y-33530D01*
X55526Y-33515D01*
X55541Y-33508D01*
X55571Y-33500D01*
X55594Y-33500D01*
X55624Y-33508D01*
X55639Y-33515D01*
X55654Y-33530D01*
X55661Y-33553D01*
X55661Y-33590D01*
X55661Y-33351D02*
X55661Y-33441D01*
X55661Y-33396D02*
X55504Y-33396D01*
X55526Y-33411D01*
X55541Y-33426D01*
X55549Y-33441D01*
X55519Y-33291D02*
X55512Y-33284D01*
X55504Y-33269D01*
X55504Y-33231D01*
X55512Y-33216D01*
X55519Y-33209D01*
X55534Y-33201D01*
X55549Y-33201D01*
X55571Y-33209D01*
X55661Y-33299D01*
X55661Y-33201D01*
G54D21*
X39295Y-34993D02*
X39523Y-34993D01*
X39409Y-35493D02*
X39409Y-34993D01*
X39885Y-35493D02*
X39752Y-35255D01*
X39657Y-35493D02*
X39657Y-34993D01*
X39809Y-34993D01*
X39847Y-35017D01*
X39866Y-35041D01*
X39885Y-35088D01*
X39885Y-35160D01*
X39866Y-35207D01*
X39847Y-35231D01*
X39809Y-35255D01*
X39657Y-35255D01*
X40228Y-35160D02*
X40228Y-35493D01*
X40133Y-34969D02*
X40038Y-35326D01*
X40285Y-35326D01*
X38076Y-36870D02*
X38076Y-36470D01*
X38266Y-36870D02*
X38266Y-36470D01*
X38419Y-36470D01*
X38457Y-36489D01*
X38476Y-36509D01*
X38495Y-36547D01*
X38495Y-36604D01*
X38476Y-36642D01*
X38457Y-36661D01*
X38419Y-36680D01*
X38266Y-36680D01*
X38666Y-36870D02*
X38666Y-36470D01*
X38761Y-36470D01*
X38819Y-36489D01*
X38857Y-36528D01*
X38876Y-36566D01*
X38895Y-36642D01*
X38895Y-36699D01*
X38876Y-36775D01*
X38857Y-36813D01*
X38819Y-36851D01*
X38761Y-36870D01*
X38666Y-36870D01*
X39142Y-36470D02*
X39180Y-36470D01*
X39219Y-36489D01*
X39238Y-36509D01*
X39257Y-36547D01*
X39276Y-36623D01*
X39276Y-36718D01*
X39257Y-36794D01*
X39238Y-36832D01*
X39219Y-36851D01*
X39180Y-36870D01*
X39142Y-36870D01*
X39104Y-36851D01*
X39085Y-36832D01*
X39066Y-36794D01*
X39047Y-36718D01*
X39047Y-36623D01*
X39066Y-36547D01*
X39085Y-36509D01*
X39104Y-36489D01*
X39142Y-36470D01*
X39409Y-36470D02*
X39657Y-36470D01*
X39523Y-36623D01*
X39580Y-36623D01*
X39619Y-36642D01*
X39638Y-36661D01*
X39657Y-36699D01*
X39657Y-36794D01*
X39638Y-36832D01*
X39619Y-36851D01*
X39580Y-36870D01*
X39466Y-36870D01*
X39428Y-36851D01*
X39409Y-36832D01*
X40000Y-36470D02*
X39923Y-36470D01*
X39885Y-36489D01*
X39866Y-36509D01*
X39828Y-36566D01*
X39809Y-36642D01*
X39809Y-36794D01*
X39828Y-36832D01*
X39847Y-36851D01*
X39885Y-36870D01*
X39961Y-36870D01*
X40000Y-36851D01*
X40019Y-36832D01*
X40038Y-36794D01*
X40038Y-36699D01*
X40019Y-36661D01*
X40000Y-36642D01*
X39961Y-36623D01*
X39885Y-36623D01*
X39847Y-36642D01*
X39828Y-36661D01*
X39809Y-36699D01*
X40209Y-36870D02*
X40209Y-36470D01*
X40438Y-36870D01*
X40438Y-36470D01*
X40704Y-36470D02*
X40742Y-36470D01*
X40780Y-36489D01*
X40800Y-36509D01*
X40819Y-36547D01*
X40838Y-36623D01*
X40838Y-36718D01*
X40819Y-36794D01*
X40800Y-36832D01*
X40780Y-36851D01*
X40742Y-36870D01*
X40704Y-36870D01*
X40666Y-36851D01*
X40647Y-36832D01*
X40628Y-36794D01*
X40609Y-36718D01*
X40609Y-36623D01*
X40628Y-36547D01*
X40647Y-36509D01*
X40666Y-36489D01*
X40704Y-36470D01*
X41180Y-36604D02*
X41180Y-36870D01*
X41085Y-36451D02*
X40990Y-36737D01*
X41238Y-36737D01*
X41580Y-36870D02*
X41390Y-36870D01*
X41390Y-36470D01*
G54D24*
X53673Y-28160D02*
X53663Y-28170D01*
X53635Y-28179D01*
X53617Y-28179D01*
X53588Y-28170D01*
X53570Y-28151D01*
X53560Y-28132D01*
X53551Y-28095D01*
X53551Y-28067D01*
X53560Y-28029D01*
X53570Y-28010D01*
X53588Y-27992D01*
X53617Y-27982D01*
X53635Y-27982D01*
X53663Y-27992D01*
X53673Y-28001D01*
X53767Y-28179D02*
X53804Y-28179D01*
X53823Y-28170D01*
X53832Y-28160D01*
X53851Y-28132D01*
X53860Y-28095D01*
X53860Y-28020D01*
X53851Y-28001D01*
X53842Y-27992D01*
X53823Y-27982D01*
X53785Y-27982D01*
X53767Y-27992D01*
X53757Y-28001D01*
X53748Y-28020D01*
X53748Y-28067D01*
X53757Y-28085D01*
X53767Y-28095D01*
X53785Y-28104D01*
X53823Y-28104D01*
X53842Y-28095D01*
X53851Y-28085D01*
X53860Y-28067D01*
X53936Y-28001D02*
X53945Y-27992D01*
X53964Y-27982D01*
X54011Y-27982D01*
X54029Y-27992D01*
X54039Y-28001D01*
X54048Y-28020D01*
X54048Y-28039D01*
X54039Y-28067D01*
X53926Y-28179D01*
X54048Y-28179D01*
X45510Y-43476D02*
X45520Y-43486D01*
X45529Y-43514D01*
X45529Y-43532D01*
X45520Y-43561D01*
X45501Y-43579D01*
X45482Y-43589D01*
X45445Y-43598D01*
X45417Y-43598D01*
X45379Y-43589D01*
X45360Y-43579D01*
X45342Y-43561D01*
X45332Y-43532D01*
X45332Y-43514D01*
X45342Y-43486D01*
X45351Y-43476D01*
X45332Y-43410D02*
X45332Y-43289D01*
X45407Y-43354D01*
X45407Y-43326D01*
X45417Y-43307D01*
X45426Y-43298D01*
X45445Y-43289D01*
X45492Y-43289D01*
X45510Y-43298D01*
X45520Y-43307D01*
X45529Y-43326D01*
X45529Y-43382D01*
X45520Y-43401D01*
X45510Y-43410D01*
X45351Y-43213D02*
X45342Y-43204D01*
X45332Y-43185D01*
X45332Y-43138D01*
X45342Y-43120D01*
X45351Y-43110D01*
X45370Y-43101D01*
X45389Y-43101D01*
X45417Y-43110D01*
X45529Y-43223D01*
X45529Y-43101D01*
X56960Y-43426D02*
X56970Y-43436D01*
X56979Y-43464D01*
X56979Y-43482D01*
X56970Y-43511D01*
X56951Y-43529D01*
X56932Y-43539D01*
X56895Y-43548D01*
X56867Y-43548D01*
X56829Y-43539D01*
X56810Y-43529D01*
X56792Y-43511D01*
X56782Y-43482D01*
X56782Y-43464D01*
X56792Y-43436D01*
X56801Y-43426D01*
X56801Y-43351D02*
X56792Y-43342D01*
X56782Y-43323D01*
X56782Y-43276D01*
X56792Y-43257D01*
X56801Y-43248D01*
X56820Y-43239D01*
X56839Y-43239D01*
X56867Y-43248D01*
X56979Y-43360D01*
X56979Y-43239D01*
X56801Y-43163D02*
X56792Y-43154D01*
X56782Y-43135D01*
X56782Y-43088D01*
X56792Y-43070D01*
X56801Y-43060D01*
X56820Y-43051D01*
X56839Y-43051D01*
X56867Y-43060D01*
X56979Y-43173D01*
X56979Y-43051D01*
X34110Y-40026D02*
X34120Y-40036D01*
X34129Y-40064D01*
X34129Y-40082D01*
X34120Y-40111D01*
X34101Y-40129D01*
X34082Y-40139D01*
X34045Y-40148D01*
X34017Y-40148D01*
X33979Y-40139D01*
X33960Y-40129D01*
X33942Y-40111D01*
X33932Y-40082D01*
X33932Y-40064D01*
X33942Y-40036D01*
X33951Y-40026D01*
X34129Y-39932D02*
X34129Y-39895D01*
X34120Y-39876D01*
X34110Y-39867D01*
X34082Y-39848D01*
X34045Y-39839D01*
X33970Y-39839D01*
X33951Y-39848D01*
X33942Y-39857D01*
X33932Y-39876D01*
X33932Y-39914D01*
X33942Y-39932D01*
X33951Y-39942D01*
X33970Y-39951D01*
X34017Y-39951D01*
X34035Y-39942D01*
X34045Y-39932D01*
X34054Y-39914D01*
X34054Y-39876D01*
X34045Y-39857D01*
X34035Y-39848D01*
X34017Y-39839D01*
X33998Y-39670D02*
X34129Y-39670D01*
X33923Y-39717D02*
X34064Y-39763D01*
X34064Y-39642D01*
G54D25*
X36026Y-23975D02*
X36032Y-23981D01*
X36037Y-23998D01*
X36037Y-24009D01*
X36032Y-24026D01*
X36020Y-24037D01*
X36009Y-24043D01*
X35987Y-24048D01*
X35970Y-24048D01*
X35947Y-24043D01*
X35936Y-24037D01*
X35925Y-24026D01*
X35919Y-24009D01*
X35919Y-23998D01*
X35925Y-23981D01*
X35931Y-23975D01*
X36037Y-23863D02*
X36037Y-23930D01*
X36037Y-23897D02*
X35919Y-23897D01*
X35936Y-23908D01*
X35947Y-23919D01*
X35953Y-23930D01*
X35970Y-23796D02*
X35964Y-23807D01*
X35959Y-23812D01*
X35947Y-23818D01*
X35942Y-23818D01*
X35931Y-23812D01*
X35925Y-23807D01*
X35919Y-23796D01*
X35919Y-23773D01*
X35925Y-23762D01*
X35931Y-23756D01*
X35942Y-23751D01*
X35947Y-23751D01*
X35959Y-23756D01*
X35964Y-23762D01*
X35970Y-23773D01*
X35970Y-23796D01*
X35975Y-23807D01*
X35981Y-23812D01*
X35992Y-23818D01*
X36015Y-23818D01*
X36026Y-23812D01*
X36032Y-23807D01*
X36037Y-23796D01*
X36037Y-23773D01*
X36032Y-23762D01*
X36026Y-23756D01*
X36015Y-23751D01*
X35992Y-23751D01*
X35981Y-23756D01*
X35975Y-23762D01*
X35970Y-23773D01*
X36026Y-35375D02*
X36032Y-35381D01*
X36037Y-35398D01*
X36037Y-35409D01*
X36032Y-35426D01*
X36020Y-35437D01*
X36009Y-35443D01*
X35987Y-35448D01*
X35970Y-35448D01*
X35947Y-35443D01*
X35936Y-35437D01*
X35925Y-35426D01*
X35919Y-35409D01*
X35919Y-35398D01*
X35925Y-35381D01*
X35931Y-35375D01*
X36037Y-35263D02*
X36037Y-35330D01*
X36037Y-35297D02*
X35919Y-35297D01*
X35936Y-35308D01*
X35947Y-35319D01*
X35953Y-35330D01*
X36037Y-35207D02*
X36037Y-35184D01*
X36032Y-35173D01*
X36026Y-35167D01*
X36009Y-35156D01*
X35987Y-35151D01*
X35942Y-35151D01*
X35931Y-35156D01*
X35925Y-35162D01*
X35919Y-35173D01*
X35919Y-35196D01*
X35925Y-35207D01*
X35931Y-35212D01*
X35942Y-35218D01*
X35970Y-35218D01*
X35981Y-35212D01*
X35987Y-35207D01*
X35992Y-35196D01*
X35992Y-35173D01*
X35987Y-35162D01*
X35981Y-35156D01*
X35970Y-35151D01*
G54D26*
X45574Y-44100D02*
X45578Y-44104D01*
X45581Y-44115D01*
X45581Y-44123D01*
X45578Y-44134D01*
X45570Y-44142D01*
X45563Y-44145D01*
X45548Y-44149D01*
X45536Y-44149D01*
X45521Y-44145D01*
X45514Y-44142D01*
X45506Y-44134D01*
X45502Y-44123D01*
X45502Y-44115D01*
X45506Y-44104D01*
X45510Y-44100D01*
X45502Y-44074D02*
X45502Y-44021D01*
X45581Y-44055D01*
X45502Y-43999D02*
X45502Y-43946D01*
X45581Y-43980D01*
X57024Y-44150D02*
X57028Y-44154D01*
X57031Y-44165D01*
X57031Y-44173D01*
X57028Y-44184D01*
X57020Y-44192D01*
X57013Y-44195D01*
X56998Y-44199D01*
X56986Y-44199D01*
X56971Y-44195D01*
X56964Y-44192D01*
X56956Y-44184D01*
X56952Y-44173D01*
X56952Y-44165D01*
X56956Y-44154D01*
X56960Y-44150D01*
X56952Y-44124D02*
X56952Y-44071D01*
X57031Y-44105D01*
X56952Y-44004D02*
X56952Y-44041D01*
X56990Y-44045D01*
X56986Y-44041D01*
X56983Y-44034D01*
X56983Y-44015D01*
X56986Y-44007D01*
X56990Y-44004D01*
X56998Y-44000D01*
X57016Y-44000D01*
X57024Y-44004D01*
X57028Y-44007D01*
X57031Y-44015D01*
X57031Y-44034D01*
X57028Y-44041D01*
X57024Y-44045D01*
X51924Y-47800D02*
X51928Y-47804D01*
X51931Y-47815D01*
X51931Y-47823D01*
X51928Y-47834D01*
X51920Y-47842D01*
X51913Y-47845D01*
X51898Y-47849D01*
X51886Y-47849D01*
X51871Y-47845D01*
X51864Y-47842D01*
X51856Y-47834D01*
X51852Y-47823D01*
X51852Y-47815D01*
X51856Y-47804D01*
X51860Y-47800D01*
X51852Y-47729D02*
X51852Y-47766D01*
X51890Y-47770D01*
X51886Y-47766D01*
X51883Y-47759D01*
X51883Y-47740D01*
X51886Y-47733D01*
X51890Y-47729D01*
X51898Y-47725D01*
X51916Y-47725D01*
X51924Y-47729D01*
X51928Y-47733D01*
X51931Y-47740D01*
X51931Y-47759D01*
X51928Y-47766D01*
X51924Y-47770D01*
X51852Y-47657D02*
X51852Y-47672D01*
X51856Y-47680D01*
X51860Y-47684D01*
X51871Y-47691D01*
X51886Y-47695D01*
X51916Y-47695D01*
X51924Y-47691D01*
X51928Y-47687D01*
X51931Y-47680D01*
X51931Y-47665D01*
X51928Y-47657D01*
X51924Y-47654D01*
X51916Y-47650D01*
X51898Y-47650D01*
X51890Y-47654D01*
X51886Y-47657D01*
X51883Y-47665D01*
X51883Y-47680D01*
X51886Y-47687D01*
X51890Y-47691D01*
X51898Y-47695D01*
X62574Y-47600D02*
X62578Y-47604D01*
X62581Y-47615D01*
X62581Y-47623D01*
X62578Y-47634D01*
X62570Y-47642D01*
X62563Y-47645D01*
X62548Y-47649D01*
X62536Y-47649D01*
X62521Y-47645D01*
X62514Y-47642D01*
X62506Y-47634D01*
X62502Y-47623D01*
X62502Y-47615D01*
X62506Y-47604D01*
X62510Y-47600D01*
X62581Y-47525D02*
X62581Y-47570D01*
X62581Y-47548D02*
X62502Y-47548D01*
X62514Y-47555D01*
X62521Y-47563D01*
X62525Y-47570D01*
X62529Y-47457D02*
X62581Y-47457D01*
X62499Y-47476D02*
X62555Y-47495D01*
X62555Y-47446D01*
X54474Y-33450D02*
X54478Y-33454D01*
X54481Y-33465D01*
X54481Y-33473D01*
X54478Y-33484D01*
X54470Y-33492D01*
X54463Y-33495D01*
X54448Y-33499D01*
X54436Y-33499D01*
X54421Y-33495D01*
X54414Y-33492D01*
X54406Y-33484D01*
X54402Y-33473D01*
X54402Y-33465D01*
X54406Y-33454D01*
X54410Y-33450D01*
X54429Y-33383D02*
X54481Y-33383D01*
X54399Y-33401D02*
X54455Y-33420D01*
X54455Y-33371D01*
X54402Y-33326D02*
X54402Y-33319D01*
X54406Y-33311D01*
X54410Y-33307D01*
X54418Y-33304D01*
X54433Y-33300D01*
X54451Y-33300D01*
X54466Y-33304D01*
X54474Y-33307D01*
X54478Y-33311D01*
X54481Y-33319D01*
X54481Y-33326D01*
X54478Y-33334D01*
X54474Y-33337D01*
X54466Y-33341D01*
X54451Y-33345D01*
X54433Y-33345D01*
X54418Y-33341D01*
X54410Y-33337D01*
X54406Y-33334D01*
X54402Y-33326D01*
X43174Y-33650D02*
X43178Y-33654D01*
X43181Y-33665D01*
X43181Y-33673D01*
X43178Y-33684D01*
X43170Y-33692D01*
X43163Y-33695D01*
X43148Y-33699D01*
X43136Y-33699D01*
X43121Y-33695D01*
X43114Y-33692D01*
X43106Y-33684D01*
X43102Y-33673D01*
X43102Y-33665D01*
X43106Y-33654D01*
X43110Y-33650D01*
X43129Y-33583D02*
X43181Y-33583D01*
X43099Y-33601D02*
X43155Y-33620D01*
X43155Y-33571D01*
X43181Y-33500D02*
X43181Y-33545D01*
X43181Y-33522D02*
X43102Y-33522D01*
X43114Y-33530D01*
X43121Y-33537D01*
X43125Y-33545D01*
X66324Y-26250D02*
X66328Y-26254D01*
X66331Y-26265D01*
X66331Y-26273D01*
X66328Y-26284D01*
X66320Y-26292D01*
X66313Y-26295D01*
X66298Y-26299D01*
X66286Y-26299D01*
X66271Y-26295D01*
X66264Y-26292D01*
X66256Y-26284D01*
X66252Y-26273D01*
X66252Y-26265D01*
X66256Y-26254D01*
X66260Y-26250D01*
X66252Y-26179D02*
X66252Y-26216D01*
X66290Y-26220D01*
X66286Y-26216D01*
X66283Y-26209D01*
X66283Y-26190D01*
X66286Y-26183D01*
X66290Y-26179D01*
X66298Y-26175D01*
X66316Y-26175D01*
X66324Y-26179D01*
X66328Y-26183D01*
X66331Y-26190D01*
X66331Y-26209D01*
X66328Y-26216D01*
X66324Y-26220D01*
X66252Y-26104D02*
X66252Y-26141D01*
X66290Y-26145D01*
X66286Y-26141D01*
X66283Y-26134D01*
X66283Y-26115D01*
X66286Y-26107D01*
X66290Y-26104D01*
X66298Y-26100D01*
X66316Y-26100D01*
X66324Y-26104D01*
X66328Y-26107D01*
X66331Y-26115D01*
X66331Y-26134D01*
X66328Y-26141D01*
X66324Y-26145D01*
X53324Y-48450D02*
X53328Y-48454D01*
X53331Y-48465D01*
X53331Y-48473D01*
X53328Y-48484D01*
X53320Y-48492D01*
X53313Y-48495D01*
X53298Y-48499D01*
X53286Y-48499D01*
X53271Y-48495D01*
X53264Y-48492D01*
X53256Y-48484D01*
X53252Y-48473D01*
X53252Y-48465D01*
X53256Y-48454D01*
X53260Y-48450D01*
X53252Y-48424D02*
X53252Y-48375D01*
X53283Y-48401D01*
X53283Y-48390D01*
X53286Y-48383D01*
X53290Y-48379D01*
X53298Y-48375D01*
X53316Y-48375D01*
X53324Y-48379D01*
X53328Y-48383D01*
X53331Y-48390D01*
X53331Y-48413D01*
X53328Y-48420D01*
X53324Y-48424D01*
X53252Y-48307D02*
X53252Y-48322D01*
X53256Y-48330D01*
X53260Y-48334D01*
X53271Y-48341D01*
X53286Y-48345D01*
X53316Y-48345D01*
X53324Y-48341D01*
X53328Y-48337D01*
X53331Y-48330D01*
X53331Y-48315D01*
X53328Y-48307D01*
X53324Y-48304D01*
X53316Y-48300D01*
X53298Y-48300D01*
X53290Y-48304D01*
X53286Y-48307D01*
X53283Y-48315D01*
X53283Y-48330D01*
X53286Y-48337D01*
X53290Y-48341D01*
X53298Y-48345D01*
X58549Y-47624D02*
X58545Y-47628D01*
X58534Y-47631D01*
X58526Y-47631D01*
X58515Y-47628D01*
X58507Y-47620D01*
X58504Y-47613D01*
X58500Y-47598D01*
X58500Y-47586D01*
X58504Y-47571D01*
X58507Y-47564D01*
X58515Y-47556D01*
X58526Y-47552D01*
X58534Y-47552D01*
X58545Y-47556D01*
X58549Y-47560D01*
X58579Y-47560D02*
X58583Y-47556D01*
X58590Y-47552D01*
X58609Y-47552D01*
X58616Y-47556D01*
X58620Y-47560D01*
X58624Y-47568D01*
X58624Y-47575D01*
X58620Y-47586D01*
X58575Y-47631D01*
X58624Y-47631D01*
X58673Y-47552D02*
X58680Y-47552D01*
X58688Y-47556D01*
X58692Y-47560D01*
X58695Y-47568D01*
X58699Y-47583D01*
X58699Y-47601D01*
X58695Y-47616D01*
X58692Y-47624D01*
X58688Y-47628D01*
X58680Y-47631D01*
X58673Y-47631D01*
X58665Y-47628D01*
X58662Y-47624D01*
X58658Y-47616D01*
X58654Y-47601D01*
X58654Y-47583D01*
X58658Y-47568D01*
X58662Y-47560D01*
X58665Y-47556D01*
X58673Y-47552D01*
X58549Y-46924D02*
X58545Y-46928D01*
X58534Y-46931D01*
X58526Y-46931D01*
X58515Y-46928D01*
X58507Y-46920D01*
X58504Y-46913D01*
X58500Y-46898D01*
X58500Y-46886D01*
X58504Y-46871D01*
X58507Y-46864D01*
X58515Y-46856D01*
X58526Y-46852D01*
X58534Y-46852D01*
X58545Y-46856D01*
X58549Y-46860D01*
X58579Y-46860D02*
X58583Y-46856D01*
X58590Y-46852D01*
X58609Y-46852D01*
X58616Y-46856D01*
X58620Y-46860D01*
X58624Y-46868D01*
X58624Y-46875D01*
X58620Y-46886D01*
X58575Y-46931D01*
X58624Y-46931D01*
X58692Y-46879D02*
X58692Y-46931D01*
X58673Y-46849D02*
X58654Y-46905D01*
X58703Y-46905D01*
X63874Y-48200D02*
X63878Y-48204D01*
X63881Y-48215D01*
X63881Y-48223D01*
X63878Y-48234D01*
X63870Y-48242D01*
X63863Y-48245D01*
X63848Y-48249D01*
X63836Y-48249D01*
X63821Y-48245D01*
X63814Y-48242D01*
X63806Y-48234D01*
X63802Y-48223D01*
X63802Y-48215D01*
X63806Y-48204D01*
X63810Y-48200D01*
X63810Y-48170D02*
X63806Y-48166D01*
X63802Y-48159D01*
X63802Y-48140D01*
X63806Y-48133D01*
X63810Y-48129D01*
X63818Y-48125D01*
X63825Y-48125D01*
X63836Y-48129D01*
X63881Y-48174D01*
X63881Y-48125D01*
X63802Y-48057D02*
X63802Y-48072D01*
X63806Y-48080D01*
X63810Y-48084D01*
X63821Y-48091D01*
X63836Y-48095D01*
X63866Y-48095D01*
X63874Y-48091D01*
X63878Y-48087D01*
X63881Y-48080D01*
X63881Y-48065D01*
X63878Y-48057D01*
X63874Y-48054D01*
X63866Y-48050D01*
X63848Y-48050D01*
X63840Y-48054D01*
X63836Y-48057D01*
X63833Y-48065D01*
X63833Y-48080D01*
X63836Y-48087D01*
X63840Y-48091D01*
X63848Y-48095D01*
X47199Y-46824D02*
X47195Y-46828D01*
X47184Y-46831D01*
X47176Y-46831D01*
X47165Y-46828D01*
X47157Y-46820D01*
X47154Y-46813D01*
X47150Y-46798D01*
X47150Y-46786D01*
X47154Y-46771D01*
X47157Y-46764D01*
X47165Y-46756D01*
X47176Y-46752D01*
X47184Y-46752D01*
X47195Y-46756D01*
X47199Y-46760D01*
X47225Y-46752D02*
X47274Y-46752D01*
X47248Y-46783D01*
X47259Y-46783D01*
X47266Y-46786D01*
X47270Y-46790D01*
X47274Y-46798D01*
X47274Y-46816D01*
X47270Y-46824D01*
X47266Y-46828D01*
X47259Y-46831D01*
X47236Y-46831D01*
X47229Y-46828D01*
X47225Y-46824D01*
X47342Y-46779D02*
X47342Y-46831D01*
X47323Y-46749D02*
X47304Y-46805D01*
X47353Y-46805D01*
X47199Y-47624D02*
X47195Y-47628D01*
X47184Y-47631D01*
X47176Y-47631D01*
X47165Y-47628D01*
X47157Y-47620D01*
X47154Y-47613D01*
X47150Y-47598D01*
X47150Y-47586D01*
X47154Y-47571D01*
X47157Y-47564D01*
X47165Y-47556D01*
X47176Y-47552D01*
X47184Y-47552D01*
X47195Y-47556D01*
X47199Y-47560D01*
X47225Y-47552D02*
X47274Y-47552D01*
X47248Y-47583D01*
X47259Y-47583D01*
X47266Y-47586D01*
X47270Y-47590D01*
X47274Y-47598D01*
X47274Y-47616D01*
X47270Y-47624D01*
X47266Y-47628D01*
X47259Y-47631D01*
X47236Y-47631D01*
X47229Y-47628D01*
X47225Y-47624D01*
X47323Y-47552D02*
X47330Y-47552D01*
X47338Y-47556D01*
X47342Y-47560D01*
X47345Y-47568D01*
X47349Y-47583D01*
X47349Y-47601D01*
X47345Y-47616D01*
X47342Y-47624D01*
X47338Y-47628D01*
X47330Y-47631D01*
X47323Y-47631D01*
X47315Y-47628D01*
X47312Y-47624D01*
X47308Y-47616D01*
X47304Y-47601D01*
X47304Y-47583D01*
X47308Y-47568D01*
X47312Y-47560D01*
X47315Y-47556D01*
X47323Y-47552D01*
G54D21*
X33461Y-53223D02*
X33747Y-53223D01*
X33804Y-53242D01*
X33842Y-53280D01*
X33861Y-53338D01*
X33861Y-53376D01*
X33861Y-52823D02*
X33861Y-53052D01*
X33861Y-52938D02*
X33461Y-52938D01*
X33519Y-52976D01*
X33557Y-53014D01*
X33576Y-53052D01*
X33861Y-52633D02*
X33861Y-52557D01*
X33842Y-52519D01*
X33823Y-52500D01*
X33766Y-52461D01*
X33690Y-52442D01*
X33538Y-52442D01*
X33500Y-52461D01*
X33480Y-52480D01*
X33461Y-52519D01*
X33461Y-52595D01*
X33480Y-52633D01*
X33500Y-52652D01*
X33538Y-52671D01*
X33633Y-52671D01*
X33671Y-52652D01*
X33690Y-52633D01*
X33709Y-52595D01*
X33709Y-52519D01*
X33690Y-52480D01*
X33671Y-52461D01*
X33633Y-52442D01*
G54D16*
X31863Y-56055D02*
X32077Y-56055D01*
X32120Y-56070D01*
X32149Y-56098D01*
X32163Y-56141D01*
X32163Y-56170D01*
X32163Y-55755D02*
X32163Y-55927D01*
X32163Y-55841D02*
X31863Y-55841D01*
X31906Y-55870D01*
X31934Y-55898D01*
X31949Y-55927D01*
X32163Y-55470D02*
X32163Y-55641D01*
X32163Y-55555D02*
X31863Y-55555D01*
X31906Y-55584D01*
X31934Y-55613D01*
X31949Y-55641D01*
X35416Y-31361D02*
X35416Y-31647D01*
X35397Y-31704D01*
X35359Y-31742D01*
X35302Y-31761D01*
X35264Y-31761D01*
X35797Y-31361D02*
X35607Y-31361D01*
X35588Y-31552D01*
X35607Y-31533D01*
X35645Y-31514D01*
X35740Y-31514D01*
X35778Y-31533D01*
X35797Y-31552D01*
X35816Y-31590D01*
X35816Y-31685D01*
X35797Y-31723D01*
X35778Y-31742D01*
X35740Y-31761D01*
X35645Y-31761D01*
X35607Y-31742D01*
X35588Y-31723D01*
X39011Y-31652D02*
X39145Y-31652D01*
X39202Y-31861D02*
X39011Y-31861D01*
X39011Y-31461D01*
X39202Y-31461D01*
X39354Y-31500D02*
X39373Y-31480D01*
X39411Y-31461D01*
X39507Y-31461D01*
X39545Y-31480D01*
X39564Y-31500D01*
X39583Y-31538D01*
X39583Y-31576D01*
X39564Y-31633D01*
X39335Y-31861D01*
X39583Y-31861D01*
X40059Y-31861D02*
X40059Y-31461D01*
X40059Y-31652D02*
X40288Y-31652D01*
X40288Y-31861D02*
X40288Y-31461D01*
X40802Y-31861D02*
X40783Y-31861D01*
X40745Y-31842D01*
X40688Y-31785D01*
X40592Y-31671D01*
X40554Y-31614D01*
X40535Y-31557D01*
X40535Y-31519D01*
X40554Y-31480D01*
X40592Y-31461D01*
X40611Y-31461D01*
X40650Y-31480D01*
X40669Y-31519D01*
X40669Y-31538D01*
X40650Y-31576D01*
X40630Y-31595D01*
X40516Y-31671D01*
X40497Y-31690D01*
X40478Y-31728D01*
X40478Y-31785D01*
X40497Y-31823D01*
X40516Y-31842D01*
X40554Y-31861D01*
X40611Y-31861D01*
X40650Y-31842D01*
X40669Y-31823D01*
X40726Y-31747D01*
X40745Y-31690D01*
X40745Y-31652D01*
X40916Y-31461D02*
X41145Y-31461D01*
X41030Y-31861D02*
X41030Y-31461D01*
X39861Y-52045D02*
X39461Y-52045D01*
X39461Y-51892D01*
X39480Y-51854D01*
X39500Y-51835D01*
X39538Y-51816D01*
X39595Y-51816D01*
X39633Y-51835D01*
X39652Y-51854D01*
X39671Y-51892D01*
X39671Y-52045D01*
X39500Y-51664D02*
X39480Y-51645D01*
X39461Y-51607D01*
X39461Y-51511D01*
X39480Y-51473D01*
X39500Y-51454D01*
X39538Y-51435D01*
X39576Y-51435D01*
X39633Y-51454D01*
X39861Y-51683D01*
X39861Y-51435D01*
X39666Y-55142D02*
X39666Y-55008D01*
X39875Y-54951D02*
X39875Y-55142D01*
X39475Y-55142D01*
X39475Y-54951D01*
X39475Y-54703D02*
X39475Y-54665D01*
X39494Y-54627D01*
X39514Y-54608D01*
X39552Y-54589D01*
X39628Y-54570D01*
X39723Y-54570D01*
X39799Y-54589D01*
X39837Y-54608D01*
X39856Y-54627D01*
X39875Y-54665D01*
X39875Y-54703D01*
X39856Y-54742D01*
X39837Y-54761D01*
X39799Y-54780D01*
X39723Y-54799D01*
X39628Y-54799D01*
X39552Y-54780D01*
X39514Y-54761D01*
X39494Y-54742D01*
X39475Y-54703D01*
X39875Y-54094D02*
X39475Y-54094D01*
X39666Y-54094D02*
X39666Y-53865D01*
X39875Y-53865D02*
X39475Y-53865D01*
X39875Y-53351D02*
X39875Y-53370D01*
X39856Y-53408D01*
X39799Y-53465D01*
X39685Y-53561D01*
X39628Y-53599D01*
X39571Y-53618D01*
X39533Y-53618D01*
X39494Y-53599D01*
X39475Y-53561D01*
X39475Y-53542D01*
X39494Y-53504D01*
X39533Y-53484D01*
X39552Y-53484D01*
X39590Y-53504D01*
X39609Y-53523D01*
X39685Y-53637D01*
X39704Y-53656D01*
X39742Y-53675D01*
X39799Y-53675D01*
X39837Y-53656D01*
X39856Y-53637D01*
X39875Y-53599D01*
X39875Y-53542D01*
X39856Y-53504D01*
X39837Y-53484D01*
X39761Y-53427D01*
X39704Y-53408D01*
X39666Y-53408D01*
X39475Y-53237D02*
X39475Y-53008D01*
X39875Y-53123D02*
X39475Y-53123D01*
X41921Y-59042D02*
X42135Y-59042D01*
X42178Y-59057D01*
X42207Y-59085D01*
X42221Y-59128D01*
X42221Y-59157D01*
X42221Y-58742D02*
X42221Y-58914D01*
X42221Y-58828D02*
X41921Y-58828D01*
X41964Y-58857D01*
X41992Y-58885D01*
X42007Y-58914D01*
X41921Y-58557D02*
X41921Y-58528D01*
X41935Y-58500D01*
X41950Y-58485D01*
X41978Y-58471D01*
X42035Y-58457D01*
X42107Y-58457D01*
X42164Y-58471D01*
X42192Y-58485D01*
X42207Y-58500D01*
X42221Y-58528D01*
X42221Y-58557D01*
X42207Y-58585D01*
X42192Y-58600D01*
X42164Y-58614D01*
X42107Y-58628D01*
X42035Y-58628D01*
X41978Y-58614D01*
X41950Y-58600D01*
X41935Y-58585D01*
X41921Y-58557D01*
G54D18*
X42252Y-23066D02*
X42609Y-23066D01*
X42680Y-23090D01*
X42728Y-23138D01*
X42752Y-23209D01*
X42752Y-23257D01*
X42252Y-22614D02*
X42252Y-22709D01*
X42276Y-22757D01*
X42300Y-22780D01*
X42371Y-22828D01*
X42466Y-22852D01*
X42657Y-22852D01*
X42704Y-22828D01*
X42728Y-22804D01*
X42752Y-22757D01*
X42752Y-22661D01*
X42728Y-22614D01*
X42704Y-22590D01*
X42657Y-22566D01*
X42538Y-22566D01*
X42490Y-22590D01*
X42466Y-22614D01*
X42442Y-22661D01*
X42442Y-22757D01*
X42466Y-22804D01*
X42490Y-22828D01*
X42538Y-22852D01*
X43678Y-22821D02*
X43702Y-22750D01*
X43702Y-22630D01*
X43678Y-22583D01*
X43654Y-22559D01*
X43607Y-22535D01*
X43559Y-22535D01*
X43511Y-22559D01*
X43488Y-22583D01*
X43464Y-22630D01*
X43440Y-22726D01*
X43416Y-22773D01*
X43392Y-22797D01*
X43345Y-22821D01*
X43297Y-22821D01*
X43250Y-22797D01*
X43226Y-22773D01*
X43202Y-22726D01*
X43202Y-22607D01*
X43226Y-22535D01*
X43702Y-22321D02*
X43202Y-22321D01*
X43202Y-22130D01*
X43226Y-22083D01*
X43250Y-22059D01*
X43297Y-22035D01*
X43369Y-22035D01*
X43416Y-22059D01*
X43440Y-22083D01*
X43464Y-22130D01*
X43464Y-22321D01*
X43559Y-21845D02*
X43559Y-21607D01*
X43702Y-21892D02*
X43202Y-21726D01*
X43702Y-21559D01*
X43702Y-21392D02*
X43202Y-21392D01*
X43202Y-21273D01*
X43226Y-21202D01*
X43273Y-21154D01*
X43321Y-21130D01*
X43416Y-21107D01*
X43488Y-21107D01*
X43583Y-21130D01*
X43630Y-21154D01*
X43678Y-21202D01*
X43702Y-21273D01*
X43702Y-21392D01*
X43440Y-20892D02*
X43440Y-20726D01*
X43702Y-20654D02*
X43702Y-20892D01*
X43202Y-20892D01*
X43202Y-20654D01*
X43702Y-20178D02*
X43702Y-20464D01*
X43702Y-20321D02*
X43202Y-20321D01*
X43273Y-20369D01*
X43321Y-20416D01*
X43345Y-20464D01*
X53752Y-23116D02*
X54109Y-23116D01*
X54180Y-23140D01*
X54228Y-23188D01*
X54252Y-23259D01*
X54252Y-23307D01*
X53752Y-22926D02*
X53752Y-22592D01*
X54252Y-22807D01*
X55278Y-22721D02*
X55302Y-22650D01*
X55302Y-22530D01*
X55278Y-22483D01*
X55254Y-22459D01*
X55207Y-22435D01*
X55159Y-22435D01*
X55111Y-22459D01*
X55088Y-22483D01*
X55064Y-22530D01*
X55040Y-22626D01*
X55016Y-22673D01*
X54992Y-22697D01*
X54945Y-22721D01*
X54897Y-22721D01*
X54850Y-22697D01*
X54826Y-22673D01*
X54802Y-22626D01*
X54802Y-22507D01*
X54826Y-22435D01*
X55302Y-22221D02*
X54802Y-22221D01*
X54802Y-22030D01*
X54826Y-21983D01*
X54850Y-21959D01*
X54897Y-21935D01*
X54969Y-21935D01*
X55016Y-21959D01*
X55040Y-21983D01*
X55064Y-22030D01*
X55064Y-22221D01*
X55159Y-21745D02*
X55159Y-21507D01*
X55302Y-21792D02*
X54802Y-21626D01*
X55302Y-21459D01*
X55302Y-21292D02*
X54802Y-21292D01*
X54802Y-21173D01*
X54826Y-21102D01*
X54873Y-21054D01*
X54921Y-21030D01*
X55016Y-21007D01*
X55088Y-21007D01*
X55183Y-21030D01*
X55230Y-21054D01*
X55278Y-21102D01*
X55302Y-21173D01*
X55302Y-21292D01*
X55040Y-20792D02*
X55040Y-20626D01*
X55302Y-20554D02*
X55302Y-20792D01*
X54802Y-20792D01*
X54802Y-20554D01*
X55302Y-20078D02*
X55302Y-20364D01*
X55302Y-20221D02*
X54802Y-20221D01*
X54873Y-20269D01*
X54921Y-20316D01*
X54945Y-20364D01*
G54D26*
X57024Y-35763D02*
X57028Y-35766D01*
X57031Y-35778D01*
X57031Y-35785D01*
X57028Y-35797D01*
X57020Y-35804D01*
X57013Y-35808D01*
X56998Y-35812D01*
X56986Y-35812D01*
X56971Y-35808D01*
X56964Y-35804D01*
X56956Y-35797D01*
X56952Y-35785D01*
X56952Y-35778D01*
X56956Y-35766D01*
X56960Y-35763D01*
X56952Y-35691D02*
X56952Y-35729D01*
X56990Y-35733D01*
X56986Y-35729D01*
X56983Y-35721D01*
X56983Y-35702D01*
X56986Y-35695D01*
X56990Y-35691D01*
X56998Y-35687D01*
X57016Y-35687D01*
X57024Y-35691D01*
X57028Y-35695D01*
X57031Y-35702D01*
X57031Y-35721D01*
X57028Y-35729D01*
X57024Y-35733D01*
X60974Y-35763D02*
X60978Y-35766D01*
X60981Y-35778D01*
X60981Y-35785D01*
X60978Y-35797D01*
X60970Y-35804D01*
X60963Y-35808D01*
X60948Y-35812D01*
X60936Y-35812D01*
X60921Y-35808D01*
X60914Y-35804D01*
X60906Y-35797D01*
X60902Y-35785D01*
X60902Y-35778D01*
X60906Y-35766D01*
X60910Y-35763D01*
X60929Y-35695D02*
X60981Y-35695D01*
X60899Y-35714D02*
X60955Y-35733D01*
X60955Y-35684D01*
X62024Y-35763D02*
X62028Y-35766D01*
X62031Y-35778D01*
X62031Y-35785D01*
X62028Y-35797D01*
X62020Y-35804D01*
X62013Y-35808D01*
X61998Y-35812D01*
X61986Y-35812D01*
X61971Y-35808D01*
X61964Y-35804D01*
X61956Y-35797D01*
X61952Y-35785D01*
X61952Y-35778D01*
X61956Y-35766D01*
X61960Y-35763D01*
X61952Y-35736D02*
X61952Y-35687D01*
X61983Y-35714D01*
X61983Y-35702D01*
X61986Y-35695D01*
X61990Y-35691D01*
X61998Y-35687D01*
X62016Y-35687D01*
X62024Y-35691D01*
X62028Y-35695D01*
X62031Y-35702D01*
X62031Y-35725D01*
X62028Y-35733D01*
X62024Y-35736D01*
X64524Y-35763D02*
X64528Y-35766D01*
X64531Y-35778D01*
X64531Y-35785D01*
X64528Y-35797D01*
X64520Y-35804D01*
X64513Y-35808D01*
X64498Y-35812D01*
X64486Y-35812D01*
X64471Y-35808D01*
X64464Y-35804D01*
X64456Y-35797D01*
X64452Y-35785D01*
X64452Y-35778D01*
X64456Y-35766D01*
X64460Y-35763D01*
X64460Y-35733D02*
X64456Y-35729D01*
X64452Y-35721D01*
X64452Y-35702D01*
X64456Y-35695D01*
X64460Y-35691D01*
X64468Y-35687D01*
X64475Y-35687D01*
X64486Y-35691D01*
X64531Y-35736D01*
X64531Y-35687D01*
X46374Y-35800D02*
X46378Y-35804D01*
X46381Y-35815D01*
X46381Y-35823D01*
X46378Y-35834D01*
X46370Y-35842D01*
X46363Y-35845D01*
X46348Y-35849D01*
X46336Y-35849D01*
X46321Y-35845D01*
X46314Y-35842D01*
X46306Y-35834D01*
X46302Y-35823D01*
X46302Y-35815D01*
X46306Y-35804D01*
X46310Y-35800D01*
X46381Y-35725D02*
X46381Y-35770D01*
X46381Y-35748D02*
X46302Y-35748D01*
X46314Y-35755D01*
X46321Y-35763D01*
X46325Y-35770D01*
X46302Y-35676D02*
X46302Y-35669D01*
X46306Y-35661D01*
X46310Y-35657D01*
X46318Y-35654D01*
X46333Y-35650D01*
X46351Y-35650D01*
X46366Y-35654D01*
X46374Y-35657D01*
X46378Y-35661D01*
X46381Y-35669D01*
X46381Y-35676D01*
X46378Y-35684D01*
X46374Y-35687D01*
X46366Y-35691D01*
X46351Y-35695D01*
X46333Y-35695D01*
X46318Y-35691D01*
X46310Y-35687D01*
X46306Y-35684D01*
X46302Y-35676D01*
X49724Y-35763D02*
X49728Y-35766D01*
X49731Y-35778D01*
X49731Y-35785D01*
X49728Y-35797D01*
X49720Y-35804D01*
X49713Y-35808D01*
X49698Y-35812D01*
X49686Y-35812D01*
X49671Y-35808D01*
X49664Y-35804D01*
X49656Y-35797D01*
X49652Y-35785D01*
X49652Y-35778D01*
X49656Y-35766D01*
X49660Y-35763D01*
X49731Y-35725D02*
X49731Y-35710D01*
X49728Y-35702D01*
X49724Y-35699D01*
X49713Y-35691D01*
X49698Y-35687D01*
X49668Y-35687D01*
X49660Y-35691D01*
X49656Y-35695D01*
X49652Y-35702D01*
X49652Y-35718D01*
X49656Y-35725D01*
X49660Y-35729D01*
X49668Y-35733D01*
X49686Y-35733D01*
X49694Y-35729D01*
X49698Y-35725D01*
X49701Y-35718D01*
X49701Y-35702D01*
X49698Y-35695D01*
X49694Y-35691D01*
X49686Y-35687D01*
X50924Y-35763D02*
X50928Y-35766D01*
X50931Y-35778D01*
X50931Y-35785D01*
X50928Y-35797D01*
X50920Y-35804D01*
X50913Y-35808D01*
X50898Y-35812D01*
X50886Y-35812D01*
X50871Y-35808D01*
X50864Y-35804D01*
X50856Y-35797D01*
X50852Y-35785D01*
X50852Y-35778D01*
X50856Y-35766D01*
X50860Y-35763D01*
X50886Y-35718D02*
X50883Y-35725D01*
X50879Y-35729D01*
X50871Y-35733D01*
X50868Y-35733D01*
X50860Y-35729D01*
X50856Y-35725D01*
X50852Y-35718D01*
X50852Y-35702D01*
X50856Y-35695D01*
X50860Y-35691D01*
X50868Y-35687D01*
X50871Y-35687D01*
X50879Y-35691D01*
X50883Y-35695D01*
X50886Y-35702D01*
X50886Y-35718D01*
X50890Y-35725D01*
X50894Y-35729D01*
X50901Y-35733D01*
X50916Y-35733D01*
X50924Y-35729D01*
X50928Y-35725D01*
X50931Y-35718D01*
X50931Y-35702D01*
X50928Y-35695D01*
X50924Y-35691D01*
X50916Y-35687D01*
X50901Y-35687D01*
X50894Y-35691D01*
X50890Y-35695D01*
X50886Y-35702D01*
X53474Y-35763D02*
X53478Y-35766D01*
X53481Y-35778D01*
X53481Y-35785D01*
X53478Y-35797D01*
X53470Y-35804D01*
X53463Y-35808D01*
X53448Y-35812D01*
X53436Y-35812D01*
X53421Y-35808D01*
X53414Y-35804D01*
X53406Y-35797D01*
X53402Y-35785D01*
X53402Y-35778D01*
X53406Y-35766D01*
X53410Y-35763D01*
X53402Y-35736D02*
X53402Y-35684D01*
X53481Y-35718D01*
X47236Y-46524D02*
X47233Y-46528D01*
X47221Y-46531D01*
X47214Y-46531D01*
X47202Y-46528D01*
X47195Y-46520D01*
X47191Y-46513D01*
X47187Y-46498D01*
X47187Y-46486D01*
X47191Y-46471D01*
X47195Y-46464D01*
X47202Y-46456D01*
X47214Y-46452D01*
X47221Y-46452D01*
X47233Y-46456D01*
X47236Y-46460D01*
X47304Y-46452D02*
X47289Y-46452D01*
X47281Y-46456D01*
X47278Y-46460D01*
X47270Y-46471D01*
X47266Y-46486D01*
X47266Y-46516D01*
X47270Y-46524D01*
X47274Y-46528D01*
X47281Y-46531D01*
X47297Y-46531D01*
X47304Y-46528D01*
X47308Y-46524D01*
X47312Y-46516D01*
X47312Y-46498D01*
X47308Y-46490D01*
X47304Y-46486D01*
X47297Y-46483D01*
X47281Y-46483D01*
X47274Y-46486D01*
X47270Y-46490D01*
X47266Y-46498D01*
X58586Y-46724D02*
X58583Y-46728D01*
X58571Y-46731D01*
X58564Y-46731D01*
X58552Y-46728D01*
X58545Y-46720D01*
X58541Y-46713D01*
X58537Y-46698D01*
X58537Y-46686D01*
X58541Y-46671D01*
X58545Y-46664D01*
X58552Y-46656D01*
X58564Y-46652D01*
X58571Y-46652D01*
X58583Y-46656D01*
X58586Y-46660D01*
X58662Y-46731D02*
X58616Y-46731D01*
X58639Y-46731D02*
X58639Y-46652D01*
X58631Y-46664D01*
X58624Y-46671D01*
X58616Y-46675D01*
X37374Y-40050D02*
X37378Y-40054D01*
X37381Y-40065D01*
X37381Y-40073D01*
X37378Y-40084D01*
X37370Y-40092D01*
X37363Y-40095D01*
X37348Y-40099D01*
X37336Y-40099D01*
X37321Y-40095D01*
X37314Y-40092D01*
X37306Y-40084D01*
X37302Y-40073D01*
X37302Y-40065D01*
X37306Y-40054D01*
X37310Y-40050D01*
X37381Y-39975D02*
X37381Y-40020D01*
X37381Y-39998D02*
X37302Y-39998D01*
X37314Y-40005D01*
X37321Y-40013D01*
X37325Y-40020D01*
X37310Y-39945D02*
X37306Y-39941D01*
X37302Y-39934D01*
X37302Y-39915D01*
X37306Y-39907D01*
X37310Y-39904D01*
X37318Y-39900D01*
X37325Y-39900D01*
X37336Y-39904D01*
X37381Y-39949D01*
X37381Y-39900D01*
X44349Y-24274D02*
X44345Y-24278D01*
X44334Y-24281D01*
X44326Y-24281D01*
X44315Y-24278D01*
X44307Y-24270D01*
X44304Y-24263D01*
X44300Y-24248D01*
X44300Y-24236D01*
X44304Y-24221D01*
X44307Y-24214D01*
X44315Y-24206D01*
X44326Y-24202D01*
X44334Y-24202D01*
X44345Y-24206D01*
X44349Y-24210D01*
X44424Y-24281D02*
X44379Y-24281D01*
X44401Y-24281D02*
X44401Y-24202D01*
X44394Y-24214D01*
X44386Y-24221D01*
X44379Y-24225D01*
X44499Y-24281D02*
X44454Y-24281D01*
X44477Y-24281D02*
X44477Y-24202D01*
X44469Y-24214D01*
X44462Y-24221D01*
X44454Y-24225D01*
G54D20*
X49599Y-44332D02*
X49599Y-44492D01*
X49609Y-44510D01*
X49618Y-44520D01*
X49637Y-44529D01*
X49674Y-44529D01*
X49693Y-44520D01*
X49703Y-44510D01*
X49712Y-44492D01*
X49712Y-44332D01*
X49787Y-44332D02*
X49918Y-44332D01*
X49834Y-44529D01*
X48882Y-43823D02*
X48976Y-43823D01*
X48863Y-43879D02*
X48929Y-43682D01*
X48994Y-43879D01*
X49144Y-43748D02*
X49144Y-43879D01*
X49098Y-43673D02*
X49051Y-43814D01*
X49173Y-43814D01*
X49257Y-43879D02*
X49295Y-43879D01*
X49313Y-43870D01*
X49323Y-43860D01*
X49341Y-43832D01*
X49351Y-43795D01*
X49351Y-43720D01*
X49341Y-43701D01*
X49332Y-43692D01*
X49313Y-43682D01*
X49276Y-43682D01*
X49257Y-43692D01*
X49248Y-43701D01*
X49238Y-43720D01*
X49238Y-43767D01*
X49248Y-43785D01*
X49257Y-43795D01*
X49276Y-43804D01*
X49313Y-43804D01*
X49332Y-43795D01*
X49341Y-43785D01*
X49351Y-43767D01*
X49463Y-43767D02*
X49445Y-43757D01*
X49435Y-43748D01*
X49426Y-43729D01*
X49426Y-43720D01*
X49435Y-43701D01*
X49445Y-43692D01*
X49463Y-43682D01*
X49501Y-43682D01*
X49520Y-43692D01*
X49529Y-43701D01*
X49538Y-43720D01*
X49538Y-43729D01*
X49529Y-43748D01*
X49520Y-43757D01*
X49501Y-43767D01*
X49463Y-43767D01*
X49445Y-43776D01*
X49435Y-43785D01*
X49426Y-43804D01*
X49426Y-43842D01*
X49435Y-43860D01*
X49445Y-43870D01*
X49463Y-43879D01*
X49501Y-43879D01*
X49520Y-43870D01*
X49529Y-43860D01*
X49538Y-43842D01*
X49538Y-43804D01*
X49529Y-43785D01*
X49520Y-43776D01*
X49501Y-43767D01*
X49613Y-43701D02*
X49623Y-43692D01*
X49642Y-43682D01*
X49689Y-43682D01*
X49707Y-43692D01*
X49717Y-43701D01*
X49726Y-43720D01*
X49726Y-43739D01*
X49717Y-43767D01*
X49604Y-43879D01*
X49726Y-43879D01*
X49801Y-43870D02*
X49829Y-43879D01*
X49876Y-43879D01*
X49895Y-43870D01*
X49904Y-43860D01*
X49914Y-43842D01*
X49914Y-43823D01*
X49904Y-43804D01*
X49895Y-43795D01*
X49876Y-43785D01*
X49839Y-43776D01*
X49820Y-43767D01*
X49810Y-43757D01*
X49801Y-43739D01*
X49801Y-43720D01*
X49810Y-43701D01*
X49820Y-43692D01*
X49839Y-43682D01*
X49886Y-43682D01*
X49914Y-43692D01*
X50092Y-43879D02*
X49998Y-43879D01*
X49998Y-43682D01*
X50158Y-43879D02*
X50158Y-43682D01*
X50233Y-43682D01*
X50251Y-43692D01*
X50261Y-43701D01*
X50270Y-43720D01*
X50270Y-43748D01*
X50261Y-43767D01*
X50251Y-43776D01*
X50233Y-43785D01*
X50158Y-43785D01*
X50326Y-43682D02*
X50439Y-43682D01*
X50383Y-43879D02*
X50383Y-43682D01*
X50617Y-43879D02*
X50552Y-43785D01*
X50505Y-43879D02*
X50505Y-43682D01*
X50580Y-43682D01*
X50598Y-43692D01*
X50608Y-43701D01*
X50617Y-43720D01*
X50617Y-43748D01*
X50608Y-43767D01*
X50598Y-43776D01*
X50580Y-43785D01*
X50505Y-43785D01*
X60749Y-44282D02*
X60749Y-44442D01*
X60759Y-44460D01*
X60768Y-44470D01*
X60787Y-44479D01*
X60824Y-44479D01*
X60843Y-44470D01*
X60853Y-44460D01*
X60862Y-44442D01*
X60862Y-44282D01*
X61050Y-44282D02*
X60956Y-44282D01*
X60946Y-44376D01*
X60956Y-44367D01*
X60975Y-44357D01*
X61021Y-44357D01*
X61040Y-44367D01*
X61050Y-44376D01*
X61059Y-44395D01*
X61059Y-44442D01*
X61050Y-44460D01*
X61040Y-44470D01*
X61021Y-44479D01*
X60975Y-44479D01*
X60956Y-44470D01*
X60946Y-44460D01*
X60032Y-43773D02*
X60126Y-43773D01*
X60013Y-43829D02*
X60079Y-43632D01*
X60144Y-43829D01*
X60294Y-43698D02*
X60294Y-43829D01*
X60248Y-43623D02*
X60201Y-43764D01*
X60323Y-43764D01*
X60407Y-43829D02*
X60445Y-43829D01*
X60463Y-43820D01*
X60473Y-43810D01*
X60491Y-43782D01*
X60501Y-43745D01*
X60501Y-43670D01*
X60491Y-43651D01*
X60482Y-43642D01*
X60463Y-43632D01*
X60426Y-43632D01*
X60407Y-43642D01*
X60398Y-43651D01*
X60388Y-43670D01*
X60388Y-43717D01*
X60398Y-43735D01*
X60407Y-43745D01*
X60426Y-43754D01*
X60463Y-43754D01*
X60482Y-43745D01*
X60491Y-43735D01*
X60501Y-43717D01*
X60613Y-43717D02*
X60595Y-43707D01*
X60585Y-43698D01*
X60576Y-43679D01*
X60576Y-43670D01*
X60585Y-43651D01*
X60595Y-43642D01*
X60613Y-43632D01*
X60651Y-43632D01*
X60670Y-43642D01*
X60679Y-43651D01*
X60688Y-43670D01*
X60688Y-43679D01*
X60679Y-43698D01*
X60670Y-43707D01*
X60651Y-43717D01*
X60613Y-43717D01*
X60595Y-43726D01*
X60585Y-43735D01*
X60576Y-43754D01*
X60576Y-43792D01*
X60585Y-43810D01*
X60595Y-43820D01*
X60613Y-43829D01*
X60651Y-43829D01*
X60670Y-43820D01*
X60679Y-43810D01*
X60688Y-43792D01*
X60688Y-43754D01*
X60679Y-43735D01*
X60670Y-43726D01*
X60651Y-43717D01*
X60763Y-43651D02*
X60773Y-43642D01*
X60792Y-43632D01*
X60839Y-43632D01*
X60857Y-43642D01*
X60867Y-43651D01*
X60876Y-43670D01*
X60876Y-43689D01*
X60867Y-43717D01*
X60754Y-43829D01*
X60876Y-43829D01*
X60951Y-43820D02*
X60979Y-43829D01*
X61026Y-43829D01*
X61045Y-43820D01*
X61054Y-43810D01*
X61064Y-43792D01*
X61064Y-43773D01*
X61054Y-43754D01*
X61045Y-43745D01*
X61026Y-43735D01*
X60989Y-43726D01*
X60970Y-43717D01*
X60960Y-43707D01*
X60951Y-43689D01*
X60951Y-43670D01*
X60960Y-43651D01*
X60970Y-43642D01*
X60989Y-43632D01*
X61036Y-43632D01*
X61064Y-43642D01*
X61242Y-43829D02*
X61148Y-43829D01*
X61148Y-43632D01*
X61308Y-43829D02*
X61308Y-43632D01*
X61383Y-43632D01*
X61401Y-43642D01*
X61411Y-43651D01*
X61420Y-43670D01*
X61420Y-43698D01*
X61411Y-43717D01*
X61401Y-43726D01*
X61383Y-43735D01*
X61308Y-43735D01*
X61476Y-43632D02*
X61589Y-43632D01*
X61533Y-43829D02*
X61533Y-43632D01*
X61767Y-43829D02*
X61702Y-43735D01*
X61655Y-43829D02*
X61655Y-43632D01*
X61730Y-43632D01*
X61748Y-43642D01*
X61758Y-43651D01*
X61767Y-43670D01*
X61767Y-43698D01*
X61758Y-43717D01*
X61748Y-43726D01*
X61730Y-43735D01*
X61655Y-43735D01*
G54D16*
X49808Y-57942D02*
X50022Y-57942D01*
X50065Y-57957D01*
X50094Y-57985D01*
X50108Y-58028D01*
X50108Y-58057D01*
X50108Y-57642D02*
X50108Y-57814D01*
X50108Y-57728D02*
X49808Y-57728D01*
X49851Y-57757D01*
X49879Y-57785D01*
X49894Y-57814D01*
X49808Y-57385D02*
X49808Y-57442D01*
X49822Y-57471D01*
X49837Y-57485D01*
X49879Y-57514D01*
X49937Y-57528D01*
X50051Y-57528D01*
X50079Y-57514D01*
X50094Y-57500D01*
X50108Y-57471D01*
X50108Y-57414D01*
X50094Y-57385D01*
X50079Y-57371D01*
X50051Y-57357D01*
X49979Y-57357D01*
X49951Y-57371D01*
X49937Y-57385D01*
X49922Y-57414D01*
X49922Y-57471D01*
X49937Y-57500D01*
X49951Y-57514D01*
X49979Y-57528D01*
G54D20*
X50061Y-21765D02*
X49904Y-21765D01*
X49904Y-21728D01*
X49912Y-21706D01*
X49926Y-21691D01*
X49941Y-21683D01*
X49971Y-21676D01*
X49994Y-21676D01*
X50024Y-21683D01*
X50039Y-21691D01*
X50054Y-21706D01*
X50061Y-21728D01*
X50061Y-21765D01*
X50061Y-21526D02*
X50061Y-21616D01*
X50061Y-21571D02*
X49904Y-21571D01*
X49926Y-21586D01*
X49941Y-21601D01*
X49949Y-21616D01*
X50761Y-21765D02*
X50604Y-21765D01*
X50604Y-21728D01*
X50612Y-21706D01*
X50626Y-21691D01*
X50641Y-21683D01*
X50671Y-21676D01*
X50694Y-21676D01*
X50724Y-21683D01*
X50739Y-21691D01*
X50754Y-21706D01*
X50761Y-21728D01*
X50761Y-21765D01*
X50619Y-21616D02*
X50612Y-21608D01*
X50604Y-21593D01*
X50604Y-21556D01*
X50612Y-21541D01*
X50619Y-21534D01*
X50634Y-21526D01*
X50649Y-21526D01*
X50671Y-21534D01*
X50761Y-21623D01*
X50761Y-21526D01*
X51461Y-21765D02*
X51304Y-21765D01*
X51304Y-21728D01*
X51312Y-21706D01*
X51326Y-21691D01*
X51341Y-21683D01*
X51371Y-21676D01*
X51394Y-21676D01*
X51424Y-21683D01*
X51439Y-21691D01*
X51454Y-21706D01*
X51461Y-21728D01*
X51461Y-21765D01*
X51304Y-21623D02*
X51304Y-21526D01*
X51364Y-21578D01*
X51364Y-21556D01*
X51371Y-21541D01*
X51379Y-21534D01*
X51394Y-21526D01*
X51431Y-21526D01*
X51446Y-21534D01*
X51454Y-21541D01*
X51461Y-21556D01*
X51461Y-21601D01*
X51454Y-21616D01*
X51446Y-21623D01*
X52461Y-21765D02*
X52304Y-21765D01*
X52304Y-21728D01*
X52312Y-21706D01*
X52326Y-21691D01*
X52341Y-21683D01*
X52371Y-21676D01*
X52394Y-21676D01*
X52424Y-21683D01*
X52439Y-21691D01*
X52454Y-21706D01*
X52461Y-21728D01*
X52461Y-21765D01*
X52356Y-21541D02*
X52461Y-21541D01*
X52297Y-21578D02*
X52409Y-21616D01*
X52409Y-21519D01*
G54D22*
X50029Y-22963D02*
X49992Y-22989D01*
X50029Y-23008D02*
X49950Y-23008D01*
X49950Y-22978D01*
X49954Y-22970D01*
X49958Y-22966D01*
X49966Y-22963D01*
X49977Y-22963D01*
X49984Y-22966D01*
X49988Y-22970D01*
X49992Y-22978D01*
X49992Y-23008D01*
X50029Y-22887D02*
X50029Y-22933D01*
X50029Y-22910D02*
X49950Y-22910D01*
X49962Y-22918D01*
X49969Y-22925D01*
X49973Y-22933D01*
G54D23*
G54D22*
X50729Y-22963D02*
X50692Y-22989D01*
X50729Y-23008D02*
X50650Y-23008D01*
X50650Y-22978D01*
X50654Y-22970D01*
X50658Y-22966D01*
X50666Y-22963D01*
X50677Y-22963D01*
X50684Y-22966D01*
X50688Y-22970D01*
X50692Y-22978D01*
X50692Y-23008D01*
X50658Y-22933D02*
X50654Y-22929D01*
X50650Y-22921D01*
X50650Y-22902D01*
X50654Y-22895D01*
X50658Y-22891D01*
X50666Y-22887D01*
X50673Y-22887D01*
X50684Y-22891D01*
X50729Y-22936D01*
X50729Y-22887D01*
G54D23*
G54D22*
X51429Y-22963D02*
X51392Y-22989D01*
X51429Y-23008D02*
X51350Y-23008D01*
X51350Y-22978D01*
X51354Y-22970D01*
X51358Y-22966D01*
X51366Y-22963D01*
X51377Y-22963D01*
X51384Y-22966D01*
X51388Y-22970D01*
X51392Y-22978D01*
X51392Y-23008D01*
X51350Y-22936D02*
X51350Y-22887D01*
X51381Y-22914D01*
X51381Y-22902D01*
X51384Y-22895D01*
X51388Y-22891D01*
X51396Y-22887D01*
X51414Y-22887D01*
X51422Y-22891D01*
X51426Y-22895D01*
X51429Y-22902D01*
X51429Y-22925D01*
X51426Y-22933D01*
X51422Y-22936D01*
G54D23*
G54D22*
X52429Y-22963D02*
X52392Y-22989D01*
X52429Y-23008D02*
X52350Y-23008D01*
X52350Y-22978D01*
X52354Y-22970D01*
X52358Y-22966D01*
X52366Y-22963D01*
X52377Y-22963D01*
X52384Y-22966D01*
X52388Y-22970D01*
X52392Y-22978D01*
X52392Y-23008D01*
X52377Y-22895D02*
X52429Y-22895D01*
X52347Y-22914D02*
X52403Y-22933D01*
X52403Y-22884D01*
G54D23*
G54D22*
X38786Y-28929D02*
X38760Y-28892D01*
X38741Y-28929D02*
X38741Y-28850D01*
X38771Y-28850D01*
X38779Y-28854D01*
X38783Y-28858D01*
X38786Y-28866D01*
X38786Y-28877D01*
X38783Y-28884D01*
X38779Y-28888D01*
X38771Y-28892D01*
X38741Y-28892D01*
X38858Y-28850D02*
X38820Y-28850D01*
X38816Y-28888D01*
X38820Y-28884D01*
X38828Y-28881D01*
X38847Y-28881D01*
X38854Y-28884D01*
X38858Y-28888D01*
X38862Y-28896D01*
X38862Y-28914D01*
X38858Y-28922D01*
X38854Y-28926D01*
X38847Y-28929D01*
X38828Y-28929D01*
X38820Y-28926D01*
X38816Y-28922D01*
G54D23*
G54D22*
X38786Y-30529D02*
X38760Y-30492D01*
X38741Y-30529D02*
X38741Y-30450D01*
X38771Y-30450D01*
X38779Y-30454D01*
X38783Y-30458D01*
X38786Y-30466D01*
X38786Y-30477D01*
X38783Y-30484D01*
X38779Y-30488D01*
X38771Y-30492D01*
X38741Y-30492D01*
X38854Y-30450D02*
X38839Y-30450D01*
X38831Y-30454D01*
X38828Y-30458D01*
X38820Y-30469D01*
X38816Y-30484D01*
X38816Y-30514D01*
X38820Y-30522D01*
X38824Y-30526D01*
X38831Y-30529D01*
X38847Y-30529D01*
X38854Y-30526D01*
X38858Y-30522D01*
X38862Y-30514D01*
X38862Y-30496D01*
X38858Y-30488D01*
X38854Y-30484D01*
X38847Y-30481D01*
X38831Y-30481D01*
X38824Y-30484D01*
X38820Y-30488D01*
X38816Y-30496D01*
G54D23*
M02*
