M48
;DRILL file {Pcbnew (2013-mar-13)-testing} date Wed 17 Dec 2014 16:58:49 GMT
;FORMAT={-:-/ absolute / inch / decimal}
FMAT,2
INCH,TZ
T1C0.016
T2C0.028
T3C0.034
T4C0.039
T5C0.047
T6C0.051
T7C0.059
T8C0.069
T9C0.130
T10C0.165
%
G90
G05
M72
T1
X3.249Y-1.7685
X3.48Y-5.7
X3.591Y-5.034
X3.591Y-5.1127
X3.591Y-5.2308
X3.591Y-5.3095
X3.625Y-1.95
X3.625Y-2.08
X3.625Y-2.3
X3.63Y-2.54
X3.63Y-2.72
X3.63Y-2.86
X3.63Y-3.795
X3.63Y-4.175
X3.63Y-4.315
X3.63Y-4.47
X3.63Y-4.7
X3.6303Y-5.0733
X3.6303Y-5.2702
X3.635Y-3.085
X3.635Y-3.375
X3.635Y-3.52
X3.635Y-3.665
X3.6697Y-5.034
X3.6697Y-5.1127
X3.6697Y-5.2308
X3.6697Y-5.3883
X3.6698Y-5.3095
X3.6894Y-3.3312
X3.691Y-1.7194
X3.7091Y-2.534
X3.7091Y-5.0733
X3.7091Y-5.2702
X3.7091Y-5.3489
X3.7485Y-5.034
X3.7485Y-5.1127
X3.7485Y-5.2308
X3.7485Y-5.3095
X3.7485Y-5.3883
X3.778Y-2.5832
X3.778Y-3.3804
X3.778Y-4.0792
X3.778Y-4.1777
X3.7827Y-1.7658
X3.7878Y-5.0733
X3.79Y-5.955
X3.792Y-5.775
X3.792Y-5.859
X3.8075Y-1.9336
X3.8075Y-1.9631
X3.8075Y-2.1501
X3.8075Y-2.1796
X3.8075Y-2.721
X3.8075Y-2.7505
X3.8075Y-2.9375
X3.8075Y-2.967
X3.8075Y-3.4887
X3.8075Y-3.5182
X3.8075Y-3.7347
X3.8075Y-3.7643
X3.8075Y-4.2859
X3.8075Y-4.3155
X3.8075Y-4.5025
X3.8075Y-4.532
X3.8272Y-5.034
X3.8272Y-5.1127
X3.8272Y-5.1914
X3.8272Y-5.3489
X3.848Y-5.812
X3.8567Y-2.534
X3.862Y-5.909
X3.8666Y-3.3312
X3.8666Y-5.0733
X3.8666Y-5.2308
X3.8666Y-5.3095
X3.8697Y-1.7151
X3.894Y-5.767
X3.8961Y-4.0694
X3.8961Y-5.2702
X3.8963Y-5.8607
X3.904Y-5.956
X3.9059Y-5.034
X3.9059Y-5.1127
X3.9059Y-5.1914
X3.9059Y-5.3489
X3.9453Y-5.0733
X3.9453Y-5.2308
X3.9453Y-5.3095
X3.949Y-5.812
X3.959Y-5.902
X3.9847Y-5.034
X3.9847Y-5.1127
X3.9847Y-5.1914
X3.9847Y-5.3489
X3.997Y-5.765
X4.Y-5.856
X4.0044Y-2.2584
X4.006Y-5.955
X4.0142Y-3.9218
X4.024Y-2.3371
X4.024Y-3.0261
X4.024Y-4.7288
X4.024Y-5.0733
X4.0339Y-3.0753
X4.0339Y-3.1147
X4.0339Y-4.6107
X4.0339Y-4.6599
X4.0437Y-2.2584
X4.0437Y-3.784
X4.0437Y-3.8627
X4.0634Y-2.4355
X4.0634Y-3.2328
X4.0634Y-4.03
X4.0634Y-5.034
X4.0634Y-5.1127
X4.0733Y-1.7521
X4.0733Y-1.9729
X4.0733Y-2.534
X4.0733Y-2.7603
X4.0733Y-2.8981
X4.0733Y-3.3312
X4.0733Y-3.5576
X4.0733Y-3.6954
X4.0733Y-4.1284
X4.0733Y-4.3548
X4.0733Y-4.4926
X4.0733Y-4.8371
X4.0734Y-2.1109
X4.0979Y-2.972
X4.1028Y-2.1895
X4.1225Y-1.8647
X4.1225Y-2.6521
X4.1225Y-3.4493
X4.1225Y-4.2466
X4.1372Y-3.7987
X4.1372Y-4.596
X4.1422Y-1.8253
X4.1422Y-2.6029
X4.1422Y-3.4001
X4.1422Y-4.1973
X4.1717Y-2.2584
X4.1717Y-3.0458
X4.1815Y-1.845
X4.1815Y-2.6225
X4.1815Y-3.843
X4.1815Y-4.217
X4.1815Y-4.6403
X4.1818Y-3.4201
X4.1906Y-3.1147
X4.1929Y-3.9218
X4.1969Y-4.7288
X4.2005Y-2.3371
X4.2209Y-1.8253
X4.2209Y-1.904
X4.2209Y-1.9434
X4.2209Y-2.0123
X4.2209Y-2.0812
X4.2209Y-2.1403
X4.2209Y-2.1796
X4.2209Y-2.219
X4.2209Y-2.6029
X4.2209Y-2.6914
X4.2209Y-2.7308
X4.2209Y-2.7997
X4.2209Y-2.8686
X4.2209Y-2.9277
X4.2209Y-2.967
X4.2209Y-3.0064
X4.2209Y-3.4001
X4.2209Y-3.4887
X4.2209Y-3.5281
X4.2209Y-3.5969
X4.2209Y-3.656
X4.2209Y-3.7249
X4.2209Y-3.7643
X4.2209Y-3.8036
X4.2209Y-4.1973
X4.2209Y-4.2859
X4.2209Y-4.3253
X4.2209Y-4.3942
X4.2209Y-4.4532
X4.2209Y-4.5221
X4.2209Y-4.5615
X4.2209Y-4.6009
X4.26Y-3.4201
X4.26Y-3.5087
X4.26Y-3.7446
X4.26Y-3.784
X4.26Y-3.823
X4.26Y-4.5418
X4.26Y-4.5812
X4.26Y-4.6203
X4.2601Y-2.6227
X4.2601Y-2.7113
X4.2601Y-2.9473
X4.2601Y-2.9867
X4.2601Y-3.0259
X4.2602Y-1.8451
X4.2602Y-1.9238
X4.2602Y-2.1599
X4.2602Y-2.1993
X4.2602Y-2.2386
X4.2603Y-1.9828
X4.2603Y-2.0418
X4.2603Y-2.1107
X4.2603Y-2.7702
X4.2603Y-2.8391
X4.2603Y-2.8981
X4.2603Y-3.5674
X4.2603Y-3.6265
X4.2603Y-3.6855
X4.2603Y-4.217
X4.2603Y-4.3056
X4.2603Y-4.3647
X4.2603Y-4.4237
X4.2603Y-4.4828
X4.2996Y-1.8253
X4.2996Y-1.904
X4.2996Y-1.9434
X4.2996Y-2.0123
X4.2996Y-2.0812
X4.2996Y-2.1403
X4.2996Y-2.1796
X4.2996Y-2.219
X4.2996Y-2.6029
X4.2996Y-2.6914
X4.2996Y-2.7308
X4.2996Y-2.7997
X4.2996Y-2.8686
X4.2996Y-2.9277
X4.2996Y-2.967
X4.2996Y-3.0064
X4.2996Y-3.4001
X4.2996Y-3.4887
X4.2996Y-3.5281
X4.2996Y-3.5969
X4.2996Y-3.656
X4.2996Y-3.7249
X4.2996Y-3.7643
X4.2996Y-3.8036
X4.2996Y-4.1973
X4.2996Y-4.2859
X4.2996Y-4.3253
X4.2996Y-4.3942
X4.2996Y-4.4532
X4.2996Y-4.5221
X4.2996Y-4.5615
X4.2996Y-4.6009
X4.339Y-1.845
X4.339Y-2.6225
X4.339Y-3.4198
X4.339Y-4.217
X4.3784Y-1.8253
X4.3784Y-2.6029
X4.3784Y-3.4001
X4.3784Y-4.1973
X4.4177Y-1.845
X4.4177Y-2.6225
X4.4177Y-3.4198
X4.4177Y-4.217
X4.4374Y-2.0812
X4.4374Y-2.3076
X4.4374Y-2.8686
X4.4374Y-3.095
X4.4374Y-3.6658
X4.4374Y-3.8922
X4.4374Y-4.4631
X4.4374Y-4.6796
X4.4453Y-2.03
X4.4453Y-2.8174
X4.4453Y-3.6147
X4.4453Y-4.4119
X4.4571Y-1.8253
X4.4571Y-1.8844
X4.4571Y-1.9631
X4.4571Y-2.6029
X4.4571Y-2.6718
X4.4571Y-2.7505
X4.4571Y-3.4001
X4.4571Y-3.469
X4.4571Y-3.5477
X4.4571Y-4.1973
X4.4571Y-4.2662
X4.4571Y-4.345
X4.4768Y-2.0517
X4.4768Y-2.3076
X4.4768Y-2.8391
X4.4768Y-3.095
X4.4768Y-3.6363
X4.4768Y-3.8922
X4.4768Y-4.4336
X4.4768Y-4.6796
X4.4866Y-1.8548
X4.4866Y-2.6324
X4.4866Y-3.4985
X4.4866Y-4.2367
X4.4965Y-1.9139
X4.4965Y-2.6914
X4.4965Y-4.2958
X4.4965Y-5.1127
X4.5555Y-5.0536
X4.5555Y-5.093
X4.5555Y-5.5655
X4.5555Y-6.2151
X4.5575Y-5.5137
X4.5654Y-5.6836
X4.5697Y-5.8186
X4.5752Y-4.5123
X4.5851Y-2.1304
X4.5851Y-2.908
X4.5851Y-3.7151
X4.5851Y-5.0241
X4.5949Y-4.2072
X4.6146Y-4.532
X4.6146Y-5.2603
X4.6146Y-5.2997
X4.6244Y-1.8844
X4.6244Y-3.469
X4.6343Y-2.6619
X4.6933Y-2.091
X4.7022Y-5.685
X4.713Y-2.8686
X4.713Y-3.6757
X4.713Y-5.8312
X4.7465Y-3.4001
X4.7524Y-5.2997
X4.7604Y-5.6992
X4.7721Y-6.0576
X4.7819Y-4.2466
X4.8016Y-4.158
X4.8016Y-4.7288
X4.8114Y-4.3942
X4.8213Y-5.5851
X4.8607Y-4.6304
X4.8705Y-4.1284
X4.8705Y-4.404
X4.8803Y-4.4729
X4.8803Y-5.8706
X4.8894Y-2.2768
X4.8999Y-2.6728
X4.9099Y-4.0891
X4.9197Y-2.3273
X4.9296Y-3.0851
X4.9296Y-3.3509
X4.9296Y-3.4001
X4.9296Y-4.8765
X4.9296Y-4.9552
X4.9394Y-6.0182
X4.9459Y-2.6743
X4.9492Y-2.3863
X4.9492Y-3.8529
X4.9591Y-3.9119
X4.9591Y-5.8706
X4.9689Y-2.3568
X4.9689Y-2.4158
X4.9689Y-3.0851
X4.9689Y-3.7249
X4.9689Y-3.784
X4.9689Y-3.9611
X4.9689Y-4.0202
X4.9689Y-4.1875
X4.9689Y-4.2466
X4.9788Y-5.6639
X4.9886Y-3.7544
X4.9886Y-3.9907
X4.9886Y-4.217
X4.9886Y-6.0182
X4.9973Y-5.2899
X5.0181Y-6.2151
X5.0187Y-5.2125
X5.028Y-4.4532
X5.028Y-4.6403
X5.034Y-1.9644
X5.0378Y-4.8371
X5.0378Y-5.0635
X5.0575Y-2.5241
X5.0576Y-3.0458
X5.0655Y-5.2566
X5.0673Y-3.154
X5.0673Y-3.2032
X5.0673Y-3.3115
X5.0772Y-3.2426
X5.0772Y-4.3056
X5.0772Y-5.0635
X5.0772Y-5.3194
X5.0774Y-2.6655
X5.0774Y-4.1623
X5.0969Y-4.8174
X5.1166Y-3.4493
X5.1166Y-5.6639
X5.1166Y-5.9395
X5.1264Y-5.8804
X5.1362Y-4.8174
X5.1461Y-3.4198
X5.1559Y-4.3942
X5.1756Y-4.5615
X5.1756Y-5.782
X5.1855Y-3.282
X5.1856Y-3.1639
X5.1856Y-3.2131
X5.1973Y-4.6993
X5.2133Y-5.6945
X5.215Y-4.906
X5.215Y-5.0733
X5.215Y-5.3194
X5.215Y-5.4375
X5.22Y-5.2272
X5.2347Y-4.6993
X5.2362Y-5.6653
X5.2445Y-4.9158
X5.2445Y-5.0438
X5.2539Y-2.9468
X5.2544Y-2.9867
X5.2544Y-5.3194
X5.2607Y-2.1005
X5.2642Y-4.6895
X5.274Y-5.6836
X5.2831Y-1.9816
X5.2937Y-4.6993
X5.2937Y-4.9651
X5.2937Y-5.8804
X5.3132Y-5.2934
X5.3233Y-3.971
X5.3233Y-4.6895
X5.3233Y-4.8174
X5.3233Y-5.0241
X5.3244Y-3.0658
X5.3429Y-4.1166
X5.3429Y-5.0832
X5.3429Y-5.6639
X5.3508Y-5.7958
X5.3528Y-4.6993
X5.3529Y-3.2131
X5.3626Y-5.034
X5.3705Y-4.8765
X5.3721Y-5.2731
X5.3725Y-3.9316
X5.3725Y-5.2111
X5.3725Y-5.7623
X5.3775Y-5.3213
X5.3823Y-5.4769
X5.3941Y-4.1245
X5.3981Y-1.8863
X5.402Y-4.906
X5.402Y-5.0832
X5.4217Y-3.971
X5.4217Y-4.3253
X5.4217Y-5.4473
X5.4512Y-5.5162
X5.4532Y-4.2859
X5.4536Y-2.1025
X5.4548Y-2.7458
X5.4559Y-2.7092
X5.4571Y-4.908
X5.4886Y-4.908
X5.5103Y-4.2466
X5.5142Y-1.6796
X5.5182Y-5.6442
X5.5201Y-4.908
X5.5398Y-3.841
X5.5398Y-4.2564
X5.5457Y-3.0725
X5.5496Y-5.0438
X5.5516Y-4.908
X5.5595Y-5.5359
X5.5595Y-5.654
X5.567Y-3.2056
X5.5689Y-3.1308
X5.5693Y-4.2662
X5.5693Y-5.3588
X5.587Y-4.9908
X5.589Y-3.0281
X5.5898Y-3.1706
X5.5922Y-3.2359
X5.5931Y-4.9572
X5.5988Y-4.2564
X5.6048Y-5.6442
X5.606Y-2.156
X5.6142Y-3.2048
X5.6146Y-3.1312
X5.617Y-2.008
X5.6185Y-4.1284
X5.6185Y-4.1777
X5.6185Y-5.4178
X5.6264Y-3.0706
X5.6284Y-5.2407
X5.6284Y-5.3588
X5.629Y-2.592
X5.631Y-2.378
X5.637Y-2.823
X5.6481Y-4.7092
X5.6637Y-4.5824
X5.6709Y-3.0253
X5.6733Y-3.1221
X5.676Y-3.2084
X5.6776Y-4.6403
X5.679Y-2.2125
X5.6835Y-3.3111
X5.6874Y-5.3588
X5.6898Y-1.6304
X5.691Y-2.071
X5.6916Y-1.8189
X5.697Y-1.7604
X5.7015Y-1.6929
X5.7071Y-4.5418
X5.7083Y-3.071
X5.715Y-1.914
X5.7173Y-3.1702
X5.7268Y-5.5359
X5.7303Y-3.2639
X5.7317Y-1.7942
X5.733Y-1.6619
X5.7335Y-1.7235
X5.734Y-2.482
X5.7366Y-5.2111
X5.738Y-2.702
X5.7465Y-5.3588
X5.7524Y-1.6317
X5.7559Y-3.0277
X5.7595Y-3.1229
X5.7595Y-3.2076
X5.7605Y-1.7582
X5.763Y-2.16
X5.7641Y-1.6929
X5.7659Y-1.8207
X5.7662Y-5.4178
X5.7662Y-5.4867
X5.7859Y-4.0792
X5.7918Y-1.7229
X5.793Y-1.995
X5.7942Y-1.661
X5.7957Y-4.2859
X5.796Y-1.7928
X5.7992Y-3.3686
X5.8055Y-5.3588
X5.8055Y-5.654
X5.8154Y-4.3647
X5.8154Y-4.6501
X5.8198Y-4.564
X5.8221Y-1.6299
X5.8252Y-4.3942
X5.8253Y-1.6925
X5.8284Y-1.7591
X5.8284Y-1.8225
X5.8351Y-4.4532
X5.8351Y-4.5123
X5.8351Y-5.6639
X5.837Y-1.904
X5.839Y-2.374
X5.84Y-3.595
X5.844Y-2.595
X5.8449Y-4.6403
X5.853Y-2.82
X5.8541Y-1.7222
X5.8548Y-4.4237
X5.8548Y-4.4828
X5.8572Y-1.6637
X5.8572Y-1.7937
X5.86Y-2.066
X5.8744Y-4.6501
X5.8919Y-1.692
X5.8923Y-1.629
X5.8925Y-3.9985
X5.8941Y-1.7564
X5.8981Y-4.8253
X5.8982Y-1.8198
X5.904Y-4.6501
X5.904Y-6.0891
X5.9118Y-3.2281
X5.9177Y-5.7643
X5.918Y-1.975
X5.9217Y-4.8017
X5.9236Y-3.9316
X5.9236Y-3.971
X5.928Y-2.751
X5.9335Y-4.6403
X5.9335Y-5.4572
X5.938Y-2.163
X5.9414Y-5.0261
X5.9453Y-4.7781
X5.949Y-2.559
X5.949Y-4.4015
X5.95Y-2.664
X5.953Y-2.466
X5.963Y-4.2564
X5.963Y-4.6501
X5.9664Y-4.4277
X5.973Y-1.681
X5.9827Y-4.7781
X5.991Y-2.622
X5.9925Y-4.6462
X5.996Y-2.518
X6.0122Y-4.1383
X6.019Y-2.854
X6.0221Y-4.654
X6.0221Y-4.9257
X6.025Y-2.072
X6.03Y-3.04
X6.034Y-2.469
X6.037Y-2.665
X6.039Y-1.896
X6.039Y-2.562
X6.0418Y-4.1186
X6.049Y-1.614
X6.0518Y-3.8674
X6.0575Y-4.9218
X6.067Y-2.518
X6.0713Y-4.0891
X6.078Y-2.624
X6.0811Y-4.8981
X6.0811Y-5.8312
X6.087Y-2.162
X6.091Y-5.2505
X6.1067Y-5.0399
X6.1107Y-4.9355
X6.112Y-2.763
X6.1126Y-4.9847
X6.114Y-2.468
X6.12Y-1.676
X6.122Y-2.562
X6.126Y-2.665
X6.1402Y-4.9257
X6.141Y-1.971
X6.15Y-4.8076
X6.1559Y-5.2288
X6.1697Y-4.9355
X6.1796Y-4.7781
X6.1796Y-5.2584
X6.18Y-1.605
X6.189Y-2.05
X6.191Y-1.777
X6.1992Y-4.9257
X6.209Y-1.891
X6.2091Y-4.7485
X6.21Y-2.5
X6.21Y-2.687
X6.215Y-2.848
X6.227Y-1.676
X6.2386Y-4.719
X6.2386Y-4.9257
X6.265Y-3.05
X6.312Y-2.595
X6.3168Y-4.8956
X6.3272Y-4.8371
X6.3311Y-5.2347
X6.366Y-2.698
X6.3823Y-5.0871
X6.3862Y-4.9355
X6.3862Y-5.1324
X6.395Y-2.5
X6.3961Y-4.404
X6.3961Y-4.5025
X6.3961Y-4.7092
X6.3961Y-4.8469
X6.4256Y-4.4237
X6.4256Y-4.5221
X6.4355Y-4.7485
X6.4551Y-4.4434
X6.4551Y-4.5025
X6.4869Y-2.3695
X6.4869Y-2.4808
X6.5044Y-4.3844
X6.51Y-1.95
X6.5339Y-4.4434
X6.5437Y-4.8568
X6.5536Y-4.8863
X6.5831Y-5.1029
X6.6618Y-5.1619
X6.6815Y-5.3194
X6.6914Y-4.5123
X6.6914Y-4.6304
X6.6914Y-4.8174
X6.6914Y-5.0143
X6.7307Y-4.9552
X6.7307Y-5.0143
X6.7504Y-4.5221
X6.7603Y-4.9749
X6.7603Y-5.2407
X6.7799Y-4.5615
X6.8Y-3.5124
X6.8229Y-2.3765
X6.8488Y-4.6599
X6.8488Y-4.8371
X6.8567Y-5.5123
X6.8685Y-4.9158
X6.8685Y-5.2702
X6.8784Y-5.3489
X6.9965Y-4.5615
X7.0063Y-4.7387
X7.0063Y-4.7977
X7.0063Y-4.8568
X7.0063Y-4.9158
X7.0063Y-4.9749
X7.0063Y-5.034
X7.0457Y-5.1127
T2
X5.1051Y-5.5109
X5.1051Y-5.5609
X5.1551Y-5.5109
X5.1551Y-5.5609
X5.2051Y-5.5109
X5.2051Y-5.5609
X5.2551Y-5.5109
X5.2551Y-5.5609
X5.3051Y-5.5109
X5.3051Y-5.5609
T3
X4.9246Y-6.2222
X4.9305Y-6.097
X5.1057Y-6.097
X5.1116Y-6.2222
T4
X5.454Y-6.1068
X5.7682Y-6.1068
X6.3Y-5.591
X6.3498Y-5.491
X6.4Y-5.591
X6.4498Y-5.491
X6.5Y-5.591
X6.5498Y-5.491
X6.6Y-5.591
X6.6498Y-5.491
T5
X3.2829Y-1.9313
X3.2829Y-2.0313
X3.2829Y-2.1313
X3.2829Y-2.2313
X3.2829Y-2.3313
X3.2829Y-2.4313
X3.2829Y-2.5313
X3.2829Y-2.7313
X3.2829Y-2.8313
X3.2829Y-2.9313
X3.2829Y-3.0313
X3.2829Y-3.1313
X3.2829Y-3.2313
X3.2829Y-3.3313
X3.2829Y-3.5313
X3.2829Y-3.6313
X3.2829Y-3.7313
X3.2829Y-3.8313
X3.2829Y-3.9313
X3.2829Y-4.0313
X3.2829Y-4.1313
X3.2829Y-4.3313
X3.2829Y-4.4313
X3.2829Y-4.5313
X3.2829Y-4.6313
X3.2829Y-4.7313
X3.2829Y-4.8313
X3.2829Y-4.9313
X3.2829Y-5.1313
X3.2829Y-5.2313
X3.2829Y-5.3313
X3.2829Y-5.4313
X3.2829Y-5.5313
X3.2829Y-5.6313
X3.2829Y-5.8313
X3.2829Y-5.9313
X3.5288Y-6.161
X3.6288Y-6.161
X3.7288Y-6.161
X3.8288Y-6.161
X4.2514Y-1.6508
X4.3514Y-1.6508
X4.4514Y-1.6508
X5.0489Y-2.7888
X5.0489Y-2.8888
X5.1548Y-2.1308
X5.268Y-2.238
X5.368Y-2.238
X6.214Y-6.0339
X6.3038Y-4.9834
X6.3096Y-2.0994
X6.3096Y-2.1994
X6.314Y-6.0339
X6.5311Y-1.6009
X6.6311Y-1.6009
X6.6356Y-6.0339
X6.7356Y-6.0339
X6.8874Y-1.9639
X6.8874Y-2.0639
X6.8874Y-2.1639
X6.8874Y-2.2639
X6.8874Y-2.3639
X6.8874Y-2.4639
X6.8874Y-2.5639
X6.8874Y-2.6639
X6.8874Y-2.7639
X6.8874Y-2.8639
X6.8874Y-2.9639
X6.8874Y-3.0639
X6.8874Y-3.1639
X6.8874Y-3.2639
X6.8874Y-3.3639
X6.8874Y-3.4639
X6.8874Y-3.5639
X6.8874Y-3.6639
X6.8874Y-3.7639
X6.8874Y-3.8639
X6.8874Y-3.9639
X6.8874Y-4.0639
X6.8874Y-4.1639
X6.8874Y-4.2639
X6.8874Y-4.3639
X6.9874Y-1.9639
X6.9874Y-2.0639
X6.9874Y-2.1639
X6.9874Y-2.2639
X6.9874Y-2.3639
X6.9874Y-2.4639
X6.9874Y-2.5639
X6.9874Y-2.6639
X6.9874Y-2.7639
X6.9874Y-2.8639
X6.9874Y-2.9639
X6.9874Y-3.0639
X6.9874Y-3.1639
X6.9874Y-3.2639
X6.9874Y-3.3639
X6.9874Y-3.4639
X6.9874Y-3.5639
X6.9874Y-3.6639
X6.9874Y-3.7639
X6.9874Y-3.8639
X6.9874Y-3.9639
X6.9874Y-4.0639
X6.9874Y-4.1639
X6.9874Y-4.2639
X6.9874Y-4.3639
T6
X4.779Y-1.7702
X5.029Y-1.7702
X6.0605Y-1.7702
X6.3105Y-1.7702
T7
X4.8567Y-6.2222
X5.1795Y-6.2222
T8
X6.1698Y-5.7209
X6.7798Y-5.721
T9
X6.2498Y-5.841
X6.6998Y-5.841
T10
X3.3154Y-1.6088
X3.3154Y-6.1363
X6.9374Y-1.6088
X6.9374Y-6.1363
T0
M30
