M48
;DRILL file {Pcbnew (2013-05-18 BZR 4017)-stable} date Wed 14 Jan 2015 22:50:42 GMT
;FORMAT={-:-/ absolute / metric / decimal}
FMAT,2
METRIC,TZ
T1C0.399
T2C0.711
T3C0.851
T4C1.001
T5C1.199
T6C1.300
T7C1.501
T8C1.750
T9C3.299
T10C4.201
%
G90
G05
M71
T1
X82.525Y-44.92
X88.392Y-144.78
X91.211Y-127.864
X91.211Y-129.863
X91.211Y-132.862
X91.211Y-134.861
X92.075Y-49.53
X92.075Y-52.832
X92.075Y-58.42
X92.202Y-64.516
X92.202Y-69.088
X92.202Y-72.644
X92.202Y-96.393
X92.202Y-106.045
X92.202Y-109.601
X92.202Y-113.538
X92.202Y-119.38
X92.21Y-128.862
X92.21Y-133.863
X92.329Y-78.359
X92.329Y-85.725
X92.329Y-89.408
X92.329Y-93.091
X93.21Y-127.864
X93.21Y-129.863
X93.21Y-132.862
X93.21Y-136.863
X93.213Y-134.861
X93.711Y-84.612
X93.751Y-43.673
X94.211Y-64.364
X94.211Y-128.862
X94.211Y-133.863
X94.211Y-135.862
X95.212Y-127.864
X95.212Y-129.863
X95.212Y-132.862
X95.212Y-134.861
X95.212Y-136.863
X95.961Y-65.613
X95.961Y-85.862
X95.961Y-103.612
X95.961Y-106.114
X96.081Y-44.851
X96.21Y-128.862
X96.266Y-151.257
X96.317Y-146.685
X96.317Y-148.819
X96.71Y-49.113
X96.71Y-49.863
X96.71Y-54.613
X96.71Y-55.362
X96.71Y-69.113
X96.71Y-69.863
X96.71Y-74.612
X96.71Y-75.362
X96.71Y-88.613
X96.71Y-89.362
X96.71Y-94.861
X96.71Y-95.613
X96.71Y-108.862
X96.71Y-109.614
X96.71Y-114.363
X96.71Y-115.113
X97.211Y-127.864
X97.211Y-129.863
X97.211Y-131.862
X97.211Y-135.862
X97.739Y-147.625
X97.96Y-64.364
X98.095Y-150.089
X98.212Y-84.612
X98.212Y-128.862
X98.212Y-132.862
X98.212Y-134.861
X98.29Y-43.564
X98.908Y-146.482
X98.961Y-103.363
X98.961Y-133.863
X98.966Y-148.862
X99.162Y-151.282
X99.21Y-127.864
X99.21Y-129.863
X99.21Y-131.862
X99.21Y-135.862
X100.211Y-128.862
X100.211Y-132.862
X100.211Y-134.861
X100.305Y-147.625
X100.559Y-149.911
X101.211Y-127.864
X101.211Y-129.863
X101.211Y-131.862
X101.211Y-135.862
X101.524Y-146.431
X101.6Y-148.742
X101.712Y-57.363
X101.752Y-151.257
X101.961Y-99.614
X102.21Y-59.362
X102.21Y-76.863
X102.21Y-120.112
X102.21Y-128.862
X102.461Y-78.113
X102.461Y-79.113
X102.461Y-117.112
X102.461Y-118.361
X102.71Y-57.363
X102.71Y-96.114
X102.71Y-98.113
X103.21Y-61.862
X103.21Y-82.113
X103.21Y-102.362
X103.21Y-127.864
X103.21Y-129.863
X103.462Y-44.503
X103.462Y-50.112
X103.462Y-64.364
X103.462Y-70.112
X103.462Y-73.612
X103.462Y-84.612
X103.462Y-90.363
X103.462Y-93.863
X103.462Y-104.861
X103.462Y-110.612
X103.462Y-114.112
X103.462Y-122.862
X103.464Y-53.617
X104.087Y-75.489
X104.211Y-55.613
X104.712Y-47.363
X104.712Y-67.363
X104.712Y-87.612
X104.712Y-107.864
X105.085Y-96.487
X105.085Y-116.738
X105.212Y-46.363
X105.212Y-66.114
X105.212Y-86.363
X105.212Y-106.611
X105.961Y-57.363
X105.961Y-77.363
X106.21Y-46.863
X106.21Y-66.611
X106.21Y-97.612
X106.21Y-107.112
X106.21Y-117.864
X106.218Y-86.871
X106.441Y-79.113
X106.5Y-99.614
X106.601Y-120.112
X106.693Y-59.362
X107.211Y-46.363
X107.211Y-48.362
X107.211Y-49.362
X107.211Y-51.112
X107.211Y-52.862
X107.211Y-54.364
X107.211Y-55.362
X107.211Y-56.363
X107.211Y-66.114
X107.211Y-68.362
X107.211Y-69.362
X107.211Y-71.112
X107.211Y-72.862
X107.211Y-74.364
X107.211Y-75.362
X107.211Y-76.363
X107.211Y-86.363
X107.211Y-88.613
X107.211Y-89.614
X107.211Y-91.361
X107.211Y-92.862
X107.211Y-94.612
X107.211Y-95.613
X107.211Y-96.611
X107.211Y-106.611
X107.211Y-108.862
X107.211Y-109.863
X107.211Y-111.613
X107.211Y-113.111
X107.211Y-114.861
X107.211Y-115.862
X107.211Y-116.863
X108.204Y-86.871
X108.204Y-89.121
X108.204Y-95.113
X108.204Y-96.114
X108.204Y-97.104
X108.204Y-115.362
X108.204Y-116.362
X108.204Y-117.356
X108.207Y-66.617
X108.207Y-68.867
X108.207Y-74.861
X108.207Y-75.862
X108.207Y-76.858
X108.209Y-46.866
X108.209Y-48.865
X108.209Y-54.861
X108.209Y-55.862
X108.209Y-56.86
X108.212Y-50.363
X108.212Y-51.862
X108.212Y-53.612
X108.212Y-70.363
X108.212Y-72.113
X108.212Y-73.612
X108.212Y-90.612
X108.212Y-92.113
X108.212Y-93.612
X108.212Y-107.112
X108.212Y-109.362
X108.212Y-110.863
X108.212Y-112.362
X108.212Y-113.863
X109.21Y-46.363
X109.21Y-48.362
X109.21Y-49.362
X109.21Y-51.112
X109.21Y-52.862
X109.21Y-54.364
X109.21Y-55.362
X109.21Y-56.363
X109.21Y-66.114
X109.21Y-68.362
X109.21Y-69.362
X109.21Y-71.112
X109.21Y-72.862
X109.21Y-74.364
X109.21Y-75.362
X109.21Y-76.363
X109.21Y-86.363
X109.21Y-88.613
X109.21Y-89.614
X109.21Y-91.361
X109.21Y-92.862
X109.21Y-94.612
X109.21Y-95.613
X109.21Y-96.611
X109.21Y-106.611
X109.21Y-108.862
X109.21Y-109.863
X109.21Y-111.613
X109.21Y-113.111
X109.21Y-114.861
X109.21Y-115.862
X109.21Y-116.863
X110.211Y-46.863
X110.211Y-66.611
X110.211Y-86.863
X110.211Y-107.112
X111.211Y-46.363
X111.211Y-66.114
X111.211Y-86.363
X111.211Y-106.611
X112.21Y-46.863
X112.21Y-66.611
X112.21Y-86.863
X112.21Y-107.112
X112.71Y-52.862
X112.71Y-58.613
X112.71Y-72.862
X112.71Y-78.613
X112.71Y-93.111
X112.71Y-98.862
X112.71Y-113.363
X112.71Y-118.862
X112.911Y-51.562
X112.911Y-71.562
X112.911Y-91.813
X112.911Y-112.062
X113.21Y-46.363
X113.21Y-47.864
X113.21Y-49.863
X113.21Y-66.114
X113.21Y-67.864
X113.21Y-69.863
X113.21Y-86.363
X113.21Y-88.113
X113.21Y-90.112
X113.21Y-106.611
X113.21Y-108.361
X113.21Y-110.363
X113.711Y-52.113
X113.711Y-58.613
X113.711Y-72.113
X113.711Y-78.613
X113.711Y-92.362
X113.711Y-98.862
X113.711Y-112.613
X113.711Y-118.862
X113.96Y-47.112
X113.96Y-66.863
X113.96Y-88.862
X113.96Y-107.612
X114.211Y-48.613
X114.211Y-68.362
X114.211Y-109.113
X114.211Y-129.863
X115.71Y-128.361
X115.71Y-129.362
X115.71Y-141.364
X115.71Y-157.864
X115.76Y-140.048
X115.961Y-144.363
X116.07Y-147.792
X116.21Y-114.612
X116.462Y-54.112
X116.462Y-73.863
X116.462Y-94.364
X116.462Y-127.612
X116.71Y-106.863
X117.211Y-115.113
X117.211Y-133.612
X117.211Y-134.612
X117.46Y-47.864
X117.46Y-88.113
X117.711Y-67.612
X119.21Y-53.111
X119.436Y-144.399
X119.71Y-72.862
X119.71Y-93.363
X119.71Y-148.112
X120.561Y-86.363
X120.711Y-134.612
X120.914Y-144.76
X121.211Y-153.863
X121.46Y-107.864
X121.961Y-105.613
X121.961Y-120.112
X122.21Y-111.613
X122.461Y-141.862
X123.462Y-117.612
X123.711Y-104.861
X123.711Y-111.862
X123.96Y-113.612
X123.96Y-149.113
X124.191Y-57.831
X124.457Y-67.889
X124.711Y-103.863
X124.96Y-59.113
X125.212Y-78.362
X125.212Y-85.113
X125.212Y-86.363
X125.212Y-123.863
X125.212Y-125.862
X125.461Y-152.862
X125.626Y-67.927
X125.71Y-60.612
X125.71Y-97.864
X125.961Y-99.362
X125.961Y-149.113
X126.21Y-59.863
X126.21Y-61.361
X126.21Y-78.362
X126.21Y-94.612
X126.21Y-96.114
X126.21Y-100.612
X126.21Y-102.113
X126.21Y-106.362
X126.21Y-107.864
X126.462Y-143.863
X126.71Y-95.362
X126.71Y-101.364
X126.71Y-107.112
X126.71Y-152.862
X126.931Y-134.363
X127.46Y-157.864
X127.475Y-132.398
X127.711Y-113.111
X127.711Y-117.864
X127.864Y-49.896
X127.96Y-122.862
X127.96Y-128.613
X128.46Y-64.112
X128.463Y-77.363
X128.664Y-133.518
X128.709Y-80.112
X128.709Y-81.361
X128.709Y-84.112
X128.961Y-82.362
X128.961Y-109.362
X128.961Y-128.613
X128.961Y-135.113
X128.966Y-67.704
X128.966Y-105.722
X129.461Y-122.362
X129.962Y-87.612
X129.962Y-143.863
X129.962Y-150.863
X130.211Y-149.362
X130.459Y-122.362
X130.711Y-86.863
X130.96Y-111.613
X131.46Y-115.862
X131.46Y-146.863
X131.712Y-83.363
X131.714Y-80.363
X131.714Y-81.613
X132.011Y-119.362
X132.418Y-144.64
X132.461Y-124.612
X132.461Y-128.862
X132.461Y-135.113
X132.461Y-138.112
X132.588Y-132.771
X132.961Y-119.362
X132.999Y-143.899
X133.21Y-124.861
X133.21Y-128.113
X133.449Y-74.849
X133.462Y-75.862
X133.462Y-135.113
X133.622Y-53.353
X133.711Y-119.113
X133.96Y-144.363
X134.191Y-50.333
X134.46Y-119.362
X134.46Y-126.114
X134.46Y-149.362
X134.955Y-134.452
X135.212Y-100.863
X135.212Y-119.113
X135.212Y-122.362
X135.212Y-127.612
X135.24Y-77.871
X135.71Y-104.562
X135.71Y-129.113
X135.71Y-143.863
X135.91Y-147.213
X135.961Y-119.362
X135.964Y-81.613
X136.21Y-127.864
X136.411Y-123.863
X136.451Y-133.937
X136.462Y-99.863
X136.462Y-132.362
X136.462Y-146.362
X136.588Y-135.161
X136.71Y-139.113
X137.01Y-104.762
X137.112Y-47.912
X137.211Y-124.612
X137.211Y-129.113
X137.711Y-100.863
X137.711Y-109.863
X137.711Y-138.361
X138.46Y-140.111
X138.511Y-108.862
X138.521Y-53.404
X138.552Y-69.743
X138.58Y-68.814
X138.61Y-124.663
X139.41Y-124.663
X139.962Y-107.864
X140.061Y-42.662
X140.162Y-143.363
X140.211Y-124.663
X140.711Y-97.561
X140.711Y-108.113
X140.861Y-78.041
X140.96Y-128.113
X141.011Y-124.663
X141.211Y-140.612
X141.211Y-143.612
X141.402Y-81.422
X141.45Y-79.522
X141.46Y-108.361
X141.46Y-136.114
X141.91Y-126.766
X141.961Y-76.914
X141.981Y-80.533
X142.042Y-82.192
X142.065Y-125.913
X142.21Y-108.113
X142.362Y-143.363
X142.392Y-54.762
X142.601Y-81.402
X142.611Y-79.532
X142.672Y-51.003
X142.71Y-104.861
X142.71Y-106.114
X142.71Y-137.612
X142.911Y-77.993
X142.961Y-133.114
X142.961Y-136.114
X142.977Y-65.837
X143.027Y-60.401
X143.18Y-71.704
X143.462Y-119.614
X143.858Y-116.393
X144.041Y-76.843
X144.102Y-79.301
X144.17Y-81.493
X144.211Y-117.864
X144.247Y-56.197
X144.361Y-84.102
X144.46Y-136.114
X144.521Y-41.412
X144.551Y-52.603
X144.567Y-46.2
X144.704Y-44.714
X144.818Y-43.
X144.96Y-115.362
X144.991Y-78.003
X145.161Y-48.616
X145.219Y-80.523
X145.461Y-140.612
X145.55Y-82.903
X145.585Y-45.573
X145.618Y-42.212
X145.631Y-43.777
X145.644Y-63.043
X145.71Y-132.362
X145.745Y-68.631
X145.961Y-136.114
X146.111Y-41.445
X146.2Y-76.904
X146.291Y-79.322
X146.291Y-81.473
X146.317Y-44.658
X146.38Y-54.864
X146.408Y-43.
X146.454Y-46.246
X146.461Y-137.612
X146.461Y-139.362
X146.962Y-103.612
X147.112Y-43.762
X147.142Y-50.673
X147.173Y-42.189
X147.211Y-108.862
X147.218Y-45.537
X147.3Y-85.562
X147.46Y-136.114
X147.46Y-143.612
X147.711Y-110.863
X147.711Y-118.113
X147.823Y-115.926
X147.881Y-41.399
X147.96Y-111.613
X147.963Y-42.989
X148.041Y-44.681
X148.041Y-46.291
X148.212Y-113.111
X148.212Y-114.612
X148.212Y-143.863
X148.26Y-48.362
X148.311Y-60.3
X148.336Y-91.313
X148.438Y-65.913
X148.46Y-117.864
X148.666Y-71.628
X148.694Y-43.744
X148.712Y-112.362
X148.712Y-113.863
X148.773Y-42.258
X148.773Y-45.56
X148.844Y-52.476
X149.21Y-118.113
X149.654Y-42.977
X149.664Y-41.377
X149.669Y-101.562
X149.71Y-44.613
X149.812Y-122.563
X149.814Y-46.223
X149.962Y-118.113
X149.962Y-154.663
X150.16Y-81.994
X150.31Y-146.413
X150.317Y-50.165
X150.411Y-121.963
X150.459Y-99.863
X150.459Y-100.863
X150.571Y-69.875
X150.711Y-117.864
X150.711Y-138.613
X150.825Y-54.94
X150.912Y-127.663
X151.011Y-121.364
X151.105Y-64.999
X151.105Y-111.798
X151.13Y-67.666
X151.206Y-62.636
X151.46Y-108.113
X151.46Y-118.113
X151.547Y-112.464
X151.714Y-42.697
X151.961Y-121.364
X152.171Y-66.599
X152.209Y-118.013
X152.298Y-63.957
X152.71Y-105.113
X152.883Y-72.492
X152.961Y-118.212
X152.961Y-125.113
X153.035Y-52.629
X153.162Y-77.216
X153.264Y-62.713
X153.34Y-67.691
X153.391Y-48.158
X153.391Y-65.075
X153.462Y-104.612
X153.645Y-40.996
X153.716Y-98.232
X153.861Y-125.014
X154.102Y-63.957
X154.211Y-103.863
X154.381Y-66.65
X154.46Y-124.412
X154.46Y-148.112
X154.61Y-54.915
X154.711Y-133.363
X155.11Y-128.013
X155.212Y-125.362
X155.245Y-70.18
X155.26Y-126.611
X155.296Y-62.687
X155.448Y-42.57
X155.499Y-65.075
X155.6Y-67.691
X155.961Y-125.113
X155.981Y-50.063
X156.21Y-122.113
X156.36Y-132.812
X156.71Y-125.362
X156.962Y-121.364
X156.962Y-133.563
X156.972Y-40.767
X157.201Y-52.07
X157.251Y-45.136
X157.46Y-125.113
X157.709Y-48.031
X157.711Y-120.612
X157.734Y-63.5
X157.734Y-68.25
X157.861Y-72.339
X158.166Y-42.57
X158.46Y-119.863
X158.46Y-125.113
X159.131Y-77.47
X160.325Y-65.913
X160.447Y-124.348
X160.711Y-122.862
X160.81Y-132.961
X161.696Y-68.529
X162.11Y-129.212
X162.209Y-125.362
X162.209Y-130.363
X162.433Y-63.5
X162.461Y-111.862
X162.461Y-114.363
X162.461Y-119.614
X162.461Y-123.111
X163.21Y-112.362
X163.21Y-114.861
X163.462Y-120.612
X163.96Y-112.862
X163.96Y-114.363
X164.767Y-60.185
X164.767Y-63.012
X165.212Y-111.364
X165.354Y-49.53
X165.961Y-112.862
X166.21Y-123.363
X166.461Y-124.112
X167.211Y-129.614
X169.21Y-131.112
X169.71Y-135.113
X169.962Y-114.612
X169.962Y-117.612
X169.962Y-122.362
X169.962Y-127.363
X170.96Y-125.862
X170.96Y-127.363
X171.46Y-114.861
X171.712Y-126.362
X171.712Y-133.114
X172.209Y-115.862
X172.72Y-89.215
X173.302Y-60.363
X173.96Y-118.361
X173.96Y-122.862
X174.16Y-140.012
X174.46Y-124.861
X174.46Y-133.863
X174.711Y-135.862
X177.711Y-115.862
X177.96Y-120.363
X177.96Y-121.862
X177.96Y-123.363
X177.96Y-124.861
X177.96Y-126.362
X177.96Y-127.864
X178.961Y-129.863
T2
X129.67Y-139.977
X129.67Y-141.247
X130.94Y-139.977
X130.94Y-141.247
X132.21Y-139.977
X132.21Y-141.247
X133.48Y-139.977
X133.48Y-141.247
X134.75Y-139.977
X134.75Y-141.247
T3
X125.085Y-158.044
X125.235Y-154.864
X129.685Y-154.864
X129.835Y-158.044
T4
X138.532Y-155.113
X146.512Y-155.113
X160.02Y-142.011
X161.285Y-139.471
X162.56Y-142.011
X163.825Y-139.471
X165.1Y-142.011
X166.365Y-139.471
X167.64Y-142.011
X168.905Y-139.471
T5
X83.386Y-49.055
X83.386Y-51.595
X83.386Y-54.135
X83.386Y-56.675
X83.386Y-59.215
X83.386Y-61.755
X83.386Y-64.295
X83.386Y-69.375
X83.386Y-71.915
X83.386Y-74.455
X83.386Y-76.995
X83.386Y-79.535
X83.386Y-82.075
X83.386Y-84.615
X83.386Y-89.695
X83.386Y-92.235
X83.386Y-94.775
X83.386Y-97.315
X83.386Y-99.855
X83.386Y-102.395
X83.386Y-104.935
X83.386Y-110.015
X83.386Y-112.555
X83.386Y-115.095
X83.386Y-117.635
X83.386Y-120.175
X83.386Y-122.715
X83.386Y-125.255
X83.386Y-130.335
X83.386Y-132.875
X83.386Y-135.415
X83.386Y-137.955
X83.386Y-140.495
X83.386Y-143.035
X83.386Y-148.115
X83.386Y-150.655
X89.632Y-156.489
X92.172Y-156.489
X94.712Y-156.489
X97.252Y-156.489
X107.986Y-41.93
X110.526Y-41.93
X113.066Y-41.93
X128.242Y-70.836
X128.242Y-73.376
X130.932Y-54.122
X133.807Y-56.845
X136.347Y-56.845
X157.836Y-153.261
X160.117Y-126.578
X160.264Y-53.325
X160.264Y-55.865
X160.376Y-153.261
X165.89Y-40.663
X168.43Y-40.663
X168.544Y-153.261
X171.084Y-153.261
X174.94Y-49.883
X174.94Y-52.423
X174.94Y-54.963
X174.94Y-57.503
X174.94Y-60.043
X174.94Y-62.583
X174.94Y-65.123
X174.94Y-67.663
X174.94Y-70.203
X174.94Y-72.743
X174.94Y-75.283
X174.94Y-77.823
X174.94Y-80.363
X174.94Y-82.903
X174.94Y-85.443
X174.94Y-87.983
X174.94Y-90.523
X174.94Y-93.063
X174.94Y-95.603
X174.94Y-98.143
X174.94Y-100.683
X174.94Y-103.223
X174.94Y-105.763
X174.94Y-108.303
X174.94Y-110.843
X177.48Y-49.883
X177.48Y-52.423
X177.48Y-54.963
X177.48Y-57.503
X177.48Y-60.043
X177.48Y-62.583
X177.48Y-65.123
X177.48Y-67.663
X177.48Y-70.203
X177.48Y-72.743
X177.48Y-75.283
X177.48Y-77.823
X177.48Y-80.363
X177.48Y-82.903
X177.48Y-85.443
X177.48Y-87.983
X177.48Y-90.523
X177.48Y-93.063
X177.48Y-95.603
X177.48Y-98.143
X177.48Y-100.683
X177.48Y-103.223
X177.48Y-105.763
X177.48Y-108.303
X177.48Y-110.843
T6
X121.387Y-44.963
X127.737Y-44.963
X153.937Y-44.963
X160.287Y-44.963
T7
X123.36Y-158.044
X131.559Y-158.044
T8
X156.713Y-145.311
X172.207Y-145.313
T9
X158.745Y-148.361
X170.175Y-148.361
T10
X84.211Y-40.864
X84.211Y-155.862
X176.21Y-40.864
X176.21Y-155.862
T0
M30
