G04 (created by PCBNEW (2013-05-18 BZR 4017)-stable) date Fri 12 Dec 2014 16:28:56 GMT*
%MOIN*%
G04 Gerber Fmt 3.4, Leading zero omitted, Abs format*
%FSLAX34Y34*%
G01*
G70*
G90*
G04 APERTURE LIST*
%ADD10C,0.00590551*%
%ADD11R,0.0579X0.0165*%
%ADD12R,0.1181X0.1701*%
%ADD13R,0.0394X0.126*%
%ADD14R,0.126X0.0394*%
%ADD15R,0.0394X0.0236*%
%ADD16R,0.0236X0.0394*%
%ADD17R,0.08X0.144*%
%ADD18R,0.08X0.04*%
%ADD19R,0.1417X0.063*%
%ADD20R,0.0374X0.0394*%
%ADD21R,0.0394X0.0374*%
%ADD22R,0.0453X0.0709*%
%ADD23R,0.0453X0.0571*%
%ADD24R,0.0571X0.0453*%
%ADD25R,0.0906X0.0512*%
%ADD26R,0.2559X0.2323*%
%ADD27R,0.1142X0.0591*%
%ADD28R,0.0591X0.1142*%
%ADD29R,0.0433X0.0787*%
%ADD30R,0.0433X0.0315*%
%ADD31R,0.0472X0.0866*%
%ADD32R,0.0472X0.0551*%
%ADD33R,0.063X0.0551*%
%ADD34R,0.0276X0.063*%
%ADD35R,0.05X0.025*%
%ADD36R,0.0098X0.0236*%
%ADD37R,0.0236X0.0098*%
%ADD38R,0.1299X0.1299*%
%ADD39R,0.1063X0.1063*%
%ADD40R,0.0138X0.0374*%
%ADD41R,0.0374X0.0138*%
%ADD42R,0.1X0.1051*%
%ADD43R,0.05X0.03*%
%ADD44R,0.1051X0.1*%
%ADD45R,0.03X0.05*%
%ADD46R,0.315X0.0866*%
%ADD47R,0.1142X0.0748*%
%ADD48R,0.0157X0.0531*%
%ADD49R,0.0472X0.0709*%
G04 APERTURE END LIST*
G54D10*
G54D11*
X12124Y34515D03*
X12124Y34771D03*
X12124Y35027D03*
X12124Y35283D03*
X9922Y33751D03*
X12124Y33747D03*
X12124Y34003D03*
X12124Y34259D03*
X9920Y35539D03*
X9920Y35283D03*
X9920Y35027D03*
X9920Y34771D03*
X9920Y34515D03*
X9920Y34259D03*
X12124Y35539D03*
X9922Y34003D03*
X12124Y33491D03*
X12124Y35795D03*
X9920Y35795D03*
X9920Y33491D03*
X12124Y33236D03*
X12124Y36050D03*
X9920Y36050D03*
X9920Y33236D03*
G54D12*
X11022Y34643D03*
G54D11*
X12123Y26542D03*
X12123Y26798D03*
X12123Y27054D03*
X12123Y27310D03*
X9921Y25778D03*
X12123Y25774D03*
X12123Y26030D03*
X12123Y26286D03*
X9919Y27566D03*
X9919Y27310D03*
X9919Y27054D03*
X9919Y26798D03*
X9919Y26542D03*
X9919Y26286D03*
X12123Y27566D03*
X9921Y26030D03*
X12123Y25518D03*
X12123Y27822D03*
X9919Y27822D03*
X9919Y25518D03*
X12123Y25263D03*
X12123Y28077D03*
X9919Y28077D03*
X9919Y25263D03*
G54D12*
X11021Y26670D03*
G54D11*
X12123Y18571D03*
X12123Y18827D03*
X12123Y19083D03*
X12123Y19339D03*
X9921Y17807D03*
X12123Y17803D03*
X12123Y18059D03*
X12123Y18315D03*
X9919Y19595D03*
X9919Y19339D03*
X9919Y19083D03*
X9919Y18827D03*
X9919Y18571D03*
X9919Y18315D03*
X12123Y19595D03*
X9921Y18059D03*
X12123Y17547D03*
X12123Y19851D03*
X9919Y19851D03*
X9919Y17547D03*
X12123Y17292D03*
X12123Y20106D03*
X9919Y20106D03*
X9919Y17292D03*
G54D12*
X11021Y18699D03*
G54D11*
X12125Y42391D03*
X12125Y42647D03*
X12125Y42903D03*
X12125Y43159D03*
X9923Y41627D03*
X12125Y41623D03*
X12125Y41879D03*
X12125Y42135D03*
X9921Y43415D03*
X9921Y43159D03*
X9921Y42903D03*
X9921Y42647D03*
X9921Y42391D03*
X9921Y42135D03*
X12125Y43415D03*
X9923Y41879D03*
X12125Y41367D03*
X12125Y43671D03*
X9921Y43671D03*
X9921Y41367D03*
X12125Y41112D03*
X12125Y43926D03*
X9921Y43926D03*
X9921Y41112D03*
G54D12*
X11023Y42519D03*
G54D11*
X18583Y30837D03*
X18583Y30581D03*
X18583Y30325D03*
X18583Y30069D03*
X20785Y31601D03*
X18583Y31605D03*
X18583Y31349D03*
X18583Y31093D03*
X20787Y29813D03*
X20787Y30069D03*
X20787Y30325D03*
X20787Y30581D03*
X20787Y30837D03*
X20787Y31093D03*
X18583Y29813D03*
X20785Y31349D03*
X18583Y31861D03*
X18583Y29557D03*
X20787Y29557D03*
X20787Y31861D03*
G54D13*
X29330Y7027D03*
X29330Y9705D03*
X27756Y9705D03*
X27756Y7027D03*
G54D14*
X12637Y591D03*
X15315Y591D03*
X15315Y2165D03*
X12637Y2165D03*
G54D15*
X12621Y5334D03*
X11789Y5709D03*
X12621Y6084D03*
X12621Y10649D03*
X11789Y11024D03*
X12621Y11399D03*
G54D16*
X21771Y37281D03*
X22146Y38113D03*
X22521Y37281D03*
G54D17*
X25276Y31300D03*
G54D18*
X27876Y31300D03*
X27876Y32200D03*
X27876Y30400D03*
G54D19*
X25492Y28347D03*
X27658Y28347D03*
X8367Y45472D03*
X6201Y45472D03*
X8367Y21654D03*
X6201Y21654D03*
X8367Y37598D03*
X6201Y37598D03*
X8367Y29626D03*
X6201Y29626D03*
X32283Y40650D03*
X34449Y40650D03*
G54D20*
X34232Y18307D03*
X34862Y18307D03*
X38109Y16142D03*
X37479Y16142D03*
X38109Y15551D03*
X37479Y15551D03*
X34232Y17717D03*
X34862Y17717D03*
X34232Y17126D03*
X34862Y17126D03*
X38109Y14370D03*
X37479Y14370D03*
X38109Y14961D03*
X37479Y14961D03*
X32755Y14469D03*
X33385Y14469D03*
X32755Y15059D03*
X33385Y15059D03*
X37479Y13189D03*
X38109Y13189D03*
G54D21*
X23228Y37283D03*
X23228Y37913D03*
X21358Y45984D03*
X21358Y45354D03*
X11023Y9921D03*
X11023Y10551D03*
X17717Y29803D03*
X17717Y30433D03*
X19193Y9370D03*
X19193Y8740D03*
G54D20*
X18917Y23819D03*
X18287Y23819D03*
G54D21*
X15552Y3524D03*
X15552Y4154D03*
G54D20*
X16811Y14173D03*
X17441Y14173D03*
X16811Y13386D03*
X17441Y13386D03*
X38110Y13780D03*
X37480Y13780D03*
X32755Y13878D03*
X33385Y13878D03*
G54D21*
X28543Y4154D03*
X28543Y3524D03*
X29232Y3524D03*
X29232Y4154D03*
G54D20*
X12422Y9942D03*
X11792Y9942D03*
X12421Y4626D03*
X11791Y4626D03*
G54D21*
X11026Y4017D03*
X11026Y4647D03*
X17717Y31713D03*
X17717Y31083D03*
G54D20*
X18524Y21555D03*
X17894Y21555D03*
G54D21*
X29429Y12480D03*
X29429Y13110D03*
G54D20*
X17244Y19980D03*
X16614Y19980D03*
X37677Y9449D03*
X38307Y9449D03*
X38110Y12598D03*
X37480Y12598D03*
X34134Y10138D03*
X34764Y10138D03*
X34134Y9449D03*
X34764Y9449D03*
X18524Y22146D03*
X17894Y22146D03*
X18917Y24409D03*
X18287Y24409D03*
G54D21*
X30118Y12480D03*
X30118Y13110D03*
G54D20*
X17244Y20571D03*
X16614Y20571D03*
G54D21*
X8268Y31575D03*
X8268Y32205D03*
G54D20*
X14291Y35433D03*
X13661Y35433D03*
X13662Y34839D03*
X14292Y34839D03*
X17441Y15650D03*
X16811Y15650D03*
X13661Y34252D03*
X14291Y34252D03*
G54D21*
X13583Y33382D03*
X13583Y32752D03*
G54D20*
X13661Y36024D03*
X14291Y36024D03*
G54D21*
X12894Y32752D03*
X12894Y33382D03*
X8268Y15630D03*
X8268Y16260D03*
G54D20*
X14291Y19390D03*
X13661Y19390D03*
X13660Y18796D03*
X14290Y18796D03*
G54D21*
X19980Y9370D03*
X19980Y8740D03*
G54D20*
X13661Y18209D03*
X14291Y18209D03*
G54D21*
X13581Y17438D03*
X13581Y16808D03*
G54D20*
X13661Y19980D03*
X14291Y19980D03*
G54D21*
X12892Y16808D03*
X12892Y17438D03*
X8169Y39449D03*
X8169Y40079D03*
G54D20*
X14291Y43209D03*
X13661Y43209D03*
X13663Y42617D03*
X14293Y42617D03*
X13661Y42028D03*
X14291Y42028D03*
G54D21*
X13584Y41258D03*
X13584Y40628D03*
G54D20*
X13661Y43799D03*
X14291Y43799D03*
G54D21*
X12895Y40628D03*
X12895Y41258D03*
X8268Y23898D03*
X8268Y24528D03*
G54D20*
X14291Y27362D03*
X13661Y27362D03*
X13661Y26768D03*
X14291Y26768D03*
X13661Y26181D03*
X14291Y26181D03*
G54D21*
X13582Y25410D03*
X13582Y24780D03*
G54D20*
X13661Y27953D03*
X14291Y27953D03*
G54D21*
X12893Y24780D03*
X12893Y25410D03*
X20965Y9370D03*
X20965Y8740D03*
G54D22*
X8071Y41437D03*
X6889Y41437D03*
G54D23*
X32716Y12402D03*
X33424Y12402D03*
X32716Y13189D03*
X33424Y13189D03*
G54D20*
X16221Y3445D03*
X16836Y3445D03*
G54D24*
X34252Y13052D03*
X34252Y12344D03*
G54D23*
X26221Y26575D03*
X26929Y26575D03*
G54D22*
X8071Y25591D03*
X6889Y25591D03*
X8071Y27756D03*
X6889Y27756D03*
X8071Y43602D03*
X6889Y43602D03*
X8071Y33563D03*
X6889Y33563D03*
X8071Y17618D03*
X6889Y17618D03*
X8071Y35728D03*
X6889Y35728D03*
X8071Y19783D03*
X6889Y19783D03*
G54D21*
X21753Y31279D03*
X21753Y31909D03*
G54D25*
X9884Y3431D03*
G54D26*
X7384Y4331D03*
G54D25*
X9884Y5231D03*
X9882Y9336D03*
G54D26*
X7382Y10236D03*
G54D25*
X9882Y11136D03*
X22303Y46569D03*
G54D26*
X24803Y45669D03*
G54D25*
X22303Y44769D03*
G54D20*
X7008Y8268D03*
X6378Y8268D03*
X7008Y2461D03*
X6378Y2461D03*
X23642Y43898D03*
X23012Y43898D03*
X8485Y2461D03*
X7870Y2461D03*
X8484Y8268D03*
X7869Y8268D03*
X24921Y43898D03*
X24306Y43898D03*
G54D21*
X21753Y30432D03*
X21753Y29802D03*
X35039Y12323D03*
X35039Y11693D03*
G54D27*
X36024Y12205D03*
X36024Y11023D03*
G54D28*
X36712Y17323D03*
X37894Y17323D03*
G54D23*
X33425Y11614D03*
X32717Y11614D03*
G54D20*
X9665Y31791D03*
X9035Y31791D03*
X9665Y39567D03*
X9035Y39567D03*
X9665Y15748D03*
X9035Y15748D03*
X9665Y23720D03*
X9035Y23720D03*
X9035Y31102D03*
X9650Y31102D03*
X9035Y38878D03*
X9650Y38878D03*
X9035Y15157D03*
X9650Y15157D03*
X9035Y23031D03*
X9650Y23031D03*
X13661Y28543D03*
X14291Y28543D03*
X13661Y44390D03*
X14291Y44390D03*
X13661Y36614D03*
X14291Y36614D03*
X13661Y20571D03*
X14291Y20571D03*
G54D23*
X24370Y6988D03*
X23662Y6988D03*
G54D29*
X16634Y5807D03*
G54D30*
X16634Y5059D03*
G54D31*
X21851Y2027D03*
X27953Y2027D03*
G54D32*
X21851Y5807D03*
G54D33*
X27599Y5807D03*
G54D34*
X25768Y6004D03*
X25335Y6004D03*
X24902Y6004D03*
X24469Y6004D03*
X24036Y6004D03*
X23603Y6004D03*
X23170Y6004D03*
X22737Y6004D03*
X22304Y6004D03*
G54D21*
X30217Y11102D03*
X30217Y11732D03*
X28642Y11102D03*
X28642Y11732D03*
G54D20*
X17008Y19193D03*
X17638Y19193D03*
G54D21*
X26476Y10256D03*
X26476Y9626D03*
G54D20*
X25079Y8071D03*
X25709Y8071D03*
G54D21*
X19587Y13406D03*
X19587Y12776D03*
G54D10*
G36*
X24374Y21954D02*
X23956Y22372D01*
X24034Y22450D01*
X24452Y22032D01*
X24374Y21954D01*
X24374Y21954D01*
G37*
G36*
X24235Y21815D02*
X23817Y22232D01*
X23895Y22310D01*
X24313Y21892D01*
X24235Y21815D01*
X24235Y21815D01*
G37*
G36*
X24096Y21675D02*
X23678Y22093D01*
X23756Y22171D01*
X24174Y21753D01*
X24096Y21675D01*
X24096Y21675D01*
G37*
G36*
X23956Y21536D02*
X23539Y21954D01*
X23616Y22032D01*
X24034Y21614D01*
X23956Y21536D01*
X23956Y21536D01*
G37*
G36*
X23817Y21397D02*
X23399Y21815D01*
X23477Y21892D01*
X23895Y21474D01*
X23817Y21397D01*
X23817Y21397D01*
G37*
G36*
X23679Y21258D02*
X23261Y21676D01*
X23338Y21754D01*
X23756Y21336D01*
X23679Y21258D01*
X23679Y21258D01*
G37*
G36*
X23539Y21119D02*
X23121Y21537D01*
X23199Y21614D01*
X23617Y21197D01*
X23539Y21119D01*
X23539Y21119D01*
G37*
G36*
X23400Y20979D02*
X22982Y21397D01*
X23060Y21475D01*
X23478Y21057D01*
X23400Y20979D01*
X23400Y20979D01*
G37*
G36*
X23261Y20840D02*
X22843Y21258D01*
X22921Y21336D01*
X23338Y20918D01*
X23261Y20840D01*
X23261Y20840D01*
G37*
G36*
X23121Y20701D02*
X22703Y21119D01*
X22781Y21197D01*
X23199Y20779D01*
X23121Y20701D01*
X23121Y20701D01*
G37*
G36*
X22982Y20562D02*
X22564Y20979D01*
X22642Y21057D01*
X23060Y20639D01*
X22982Y20562D01*
X22982Y20562D01*
G37*
G36*
X22843Y20423D02*
X22426Y20841D01*
X22503Y20919D01*
X22921Y20501D01*
X22843Y20423D01*
X22843Y20423D01*
G37*
G36*
X22704Y20284D02*
X22286Y20702D01*
X22364Y20779D01*
X22782Y20361D01*
X22704Y20284D01*
X22704Y20284D01*
G37*
G36*
X22565Y20144D02*
X22147Y20562D01*
X22225Y20640D01*
X22643Y20222D01*
X22565Y20144D01*
X22565Y20144D01*
G37*
G36*
X22426Y20005D02*
X22008Y20423D01*
X22085Y20501D01*
X22503Y20083D01*
X22426Y20005D01*
X22426Y20005D01*
G37*
G36*
X22286Y19866D02*
X21868Y20284D01*
X21946Y20361D01*
X22364Y19944D01*
X22286Y19866D01*
X22286Y19866D01*
G37*
G36*
X22147Y19726D02*
X21729Y20144D01*
X21807Y20222D01*
X22225Y19804D01*
X22147Y19726D01*
X22147Y19726D01*
G37*
G36*
X22008Y19587D02*
X21590Y20005D01*
X21668Y20083D01*
X22085Y19665D01*
X22008Y19587D01*
X22008Y19587D01*
G37*
G36*
X21869Y19449D02*
X21451Y19866D01*
X21529Y19944D01*
X21947Y19526D01*
X21869Y19449D01*
X21869Y19449D01*
G37*
G36*
X21730Y19309D02*
X21312Y19727D01*
X21390Y19805D01*
X21808Y19387D01*
X21730Y19309D01*
X21730Y19309D01*
G37*
G36*
X21590Y19170D02*
X21173Y19588D01*
X21250Y19666D01*
X21668Y19248D01*
X21590Y19170D01*
X21590Y19170D01*
G37*
G36*
X21451Y19031D02*
X21033Y19449D01*
X21111Y19526D01*
X21529Y19108D01*
X21451Y19031D01*
X21451Y19031D01*
G37*
G36*
X21312Y18891D02*
X20894Y19309D01*
X20972Y19387D01*
X21390Y18969D01*
X21312Y18891D01*
X21312Y18891D01*
G37*
G36*
X21173Y18752D02*
X20755Y19170D01*
X20832Y19248D01*
X21250Y18830D01*
X21173Y18752D01*
X21173Y18752D01*
G37*
G36*
X21033Y18613D02*
X20615Y19031D01*
X20693Y19108D01*
X21111Y18691D01*
X21033Y18613D01*
X21033Y18613D01*
G37*
G36*
X20895Y18474D02*
X20477Y18892D01*
X20555Y18970D01*
X20972Y18552D01*
X20895Y18474D01*
X20895Y18474D01*
G37*
G36*
X20755Y18335D02*
X20337Y18753D01*
X20415Y18831D01*
X20833Y18413D01*
X20755Y18335D01*
X20755Y18335D01*
G37*
G36*
X20616Y18196D02*
X20198Y18613D01*
X20276Y18691D01*
X20694Y18273D01*
X20616Y18196D01*
X20616Y18196D01*
G37*
G36*
X20477Y18056D02*
X20059Y18474D01*
X20137Y18552D01*
X20555Y18134D01*
X20477Y18056D01*
X20477Y18056D01*
G37*
G36*
X20337Y17917D02*
X19920Y18335D01*
X19997Y18413D01*
X20415Y17995D01*
X20337Y17917D01*
X20337Y17917D01*
G37*
G36*
X20198Y17778D02*
X19780Y18196D01*
X19858Y18273D01*
X20276Y17855D01*
X20198Y17778D01*
X20198Y17778D01*
G37*
G36*
X20060Y17639D02*
X19642Y18057D01*
X19719Y18135D01*
X20137Y17717D01*
X20060Y17639D01*
X20060Y17639D01*
G37*
G36*
X19920Y17500D02*
X19502Y17918D01*
X19580Y17995D01*
X19998Y17578D01*
X19920Y17500D01*
X19920Y17500D01*
G37*
G36*
X19781Y17360D02*
X19363Y17778D01*
X19441Y17856D01*
X19859Y17438D01*
X19781Y17360D01*
X19781Y17360D01*
G37*
G36*
X19642Y17221D02*
X19224Y17639D01*
X19302Y17717D01*
X19719Y17299D01*
X19642Y17221D01*
X19642Y17221D01*
G37*
G36*
X19502Y17082D02*
X19084Y17500D01*
X19162Y17578D01*
X19580Y17160D01*
X19502Y17082D01*
X19502Y17082D01*
G37*
G36*
X25571Y11013D02*
X25153Y11431D01*
X25231Y11509D01*
X25649Y11091D01*
X25571Y11013D01*
X25571Y11013D01*
G37*
G36*
X25710Y11153D02*
X25292Y11571D01*
X25370Y11648D01*
X25788Y11231D01*
X25710Y11153D01*
X25710Y11153D01*
G37*
G36*
X25849Y11292D02*
X25431Y11710D01*
X25509Y11788D01*
X25927Y11370D01*
X25849Y11292D01*
X25849Y11292D01*
G37*
G36*
X25989Y11431D02*
X25571Y11849D01*
X25649Y11927D01*
X26066Y11509D01*
X25989Y11431D01*
X25989Y11431D01*
G37*
G36*
X26128Y11571D02*
X25710Y11989D01*
X25788Y12066D01*
X26206Y11648D01*
X26128Y11571D01*
X26128Y11571D01*
G37*
G36*
X26267Y11709D02*
X25849Y12127D01*
X25926Y12205D01*
X26344Y11787D01*
X26267Y11709D01*
X26267Y11709D01*
G37*
G36*
X26406Y11849D02*
X25988Y12266D01*
X26066Y12344D01*
X26484Y11926D01*
X26406Y11849D01*
X26406Y11849D01*
G37*
G36*
X26545Y11988D02*
X26127Y12406D01*
X26205Y12484D01*
X26623Y12066D01*
X26545Y11988D01*
X26545Y11988D01*
G37*
G36*
X26684Y12127D02*
X26267Y12545D01*
X26344Y12623D01*
X26762Y12205D01*
X26684Y12127D01*
X26684Y12127D01*
G37*
G36*
X26824Y12266D02*
X26406Y12684D01*
X26484Y12762D01*
X26902Y12344D01*
X26824Y12266D01*
X26824Y12266D01*
G37*
G36*
X26963Y12406D02*
X26545Y12824D01*
X26623Y12901D01*
X27041Y12484D01*
X26963Y12406D01*
X26963Y12406D01*
G37*
G36*
X27102Y12544D02*
X26684Y12962D01*
X26762Y13040D01*
X27179Y12622D01*
X27102Y12544D01*
X27102Y12544D01*
G37*
G36*
X27241Y12684D02*
X26823Y13102D01*
X26901Y13179D01*
X27319Y12761D01*
X27241Y12684D01*
X27241Y12684D01*
G37*
G36*
X27380Y12823D02*
X26962Y13241D01*
X27040Y13319D01*
X27458Y12901D01*
X27380Y12823D01*
X27380Y12823D01*
G37*
G36*
X27520Y12962D02*
X27102Y13380D01*
X27179Y13458D01*
X27597Y13040D01*
X27520Y12962D01*
X27520Y12962D01*
G37*
G36*
X27659Y13102D02*
X27241Y13519D01*
X27319Y13597D01*
X27737Y13179D01*
X27659Y13102D01*
X27659Y13102D01*
G37*
G36*
X27798Y13241D02*
X27380Y13659D01*
X27458Y13737D01*
X27876Y13319D01*
X27798Y13241D01*
X27798Y13241D01*
G37*
G36*
X27937Y13380D02*
X27520Y13798D01*
X27597Y13876D01*
X28015Y13458D01*
X27937Y13380D01*
X27937Y13380D01*
G37*
G36*
X28076Y13519D02*
X27658Y13937D01*
X27736Y14014D01*
X28154Y13597D01*
X28076Y13519D01*
X28076Y13519D01*
G37*
G36*
X28215Y13658D02*
X27797Y14076D01*
X27875Y14154D01*
X28293Y13736D01*
X28215Y13658D01*
X28215Y13658D01*
G37*
G36*
X28355Y13797D02*
X27937Y14215D01*
X28015Y14293D01*
X28432Y13875D01*
X28355Y13797D01*
X28355Y13797D01*
G37*
G36*
X28494Y13937D02*
X28076Y14355D01*
X28154Y14432D01*
X28572Y14014D01*
X28494Y13937D01*
X28494Y13937D01*
G37*
G36*
X28633Y14076D02*
X28215Y14494D01*
X28293Y14572D01*
X28711Y14154D01*
X28633Y14076D01*
X28633Y14076D01*
G37*
G36*
X28773Y14215D02*
X28355Y14633D01*
X28432Y14711D01*
X28850Y14293D01*
X28773Y14215D01*
X28773Y14215D01*
G37*
G36*
X28912Y14355D02*
X28494Y14772D01*
X28572Y14850D01*
X28990Y14432D01*
X28912Y14355D01*
X28912Y14355D01*
G37*
G36*
X29050Y14493D02*
X28633Y14911D01*
X28710Y14989D01*
X29128Y14571D01*
X29050Y14493D01*
X29050Y14493D01*
G37*
G36*
X29190Y14632D02*
X28772Y15050D01*
X28850Y15128D01*
X29268Y14710D01*
X29190Y14632D01*
X29190Y14632D01*
G37*
G36*
X29329Y14772D02*
X28911Y15190D01*
X28989Y15267D01*
X29407Y14850D01*
X29329Y14772D01*
X29329Y14772D01*
G37*
G36*
X29468Y14911D02*
X29050Y15329D01*
X29128Y15407D01*
X29546Y14989D01*
X29468Y14911D01*
X29468Y14911D01*
G37*
G36*
X29608Y15050D02*
X29190Y15468D01*
X29268Y15546D01*
X29685Y15128D01*
X29608Y15050D01*
X29608Y15050D01*
G37*
G36*
X29747Y15190D02*
X29329Y15608D01*
X29407Y15685D01*
X29825Y15267D01*
X29747Y15190D01*
X29747Y15190D01*
G37*
G36*
X29886Y15328D02*
X29468Y15746D01*
X29545Y15824D01*
X29963Y15406D01*
X29886Y15328D01*
X29886Y15328D01*
G37*
G36*
X30025Y15468D02*
X29607Y15885D01*
X29685Y15963D01*
X30103Y15545D01*
X30025Y15468D01*
X30025Y15468D01*
G37*
G36*
X30164Y15607D02*
X29746Y16025D01*
X29824Y16103D01*
X30242Y15685D01*
X30164Y15607D01*
X30164Y15607D01*
G37*
G36*
X30303Y15746D02*
X29886Y16164D01*
X29963Y16242D01*
X30381Y15824D01*
X30303Y15746D01*
X30303Y15746D01*
G37*
G36*
X30443Y15885D02*
X30025Y16303D01*
X30103Y16381D01*
X30521Y15963D01*
X30443Y15885D01*
X30443Y15885D01*
G37*
G36*
X19162Y15885D02*
X19084Y15963D01*
X19502Y16381D01*
X19580Y16303D01*
X19162Y15885D01*
X19162Y15885D01*
G37*
G36*
X19302Y15746D02*
X19224Y15824D01*
X19642Y16242D01*
X19719Y16164D01*
X19302Y15746D01*
X19302Y15746D01*
G37*
G36*
X19441Y15607D02*
X19363Y15685D01*
X19781Y16103D01*
X19859Y16025D01*
X19441Y15607D01*
X19441Y15607D01*
G37*
G36*
X19580Y15468D02*
X19502Y15545D01*
X19920Y15963D01*
X19998Y15885D01*
X19580Y15468D01*
X19580Y15468D01*
G37*
G36*
X19719Y15328D02*
X19642Y15406D01*
X20060Y15824D01*
X20137Y15746D01*
X19719Y15328D01*
X19719Y15328D01*
G37*
G36*
X19858Y15190D02*
X19780Y15267D01*
X20198Y15685D01*
X20276Y15608D01*
X19858Y15190D01*
X19858Y15190D01*
G37*
G36*
X19997Y15050D02*
X19920Y15128D01*
X20337Y15546D01*
X20415Y15468D01*
X19997Y15050D01*
X19997Y15050D01*
G37*
G36*
X20137Y14911D02*
X20059Y14989D01*
X20477Y15407D01*
X20555Y15329D01*
X20137Y14911D01*
X20137Y14911D01*
G37*
G36*
X20276Y14772D02*
X20198Y14850D01*
X20616Y15267D01*
X20694Y15190D01*
X20276Y14772D01*
X20276Y14772D01*
G37*
G36*
X20415Y14632D02*
X20337Y14710D01*
X20755Y15128D01*
X20833Y15050D01*
X20415Y14632D01*
X20415Y14632D01*
G37*
G36*
X20555Y14493D02*
X20477Y14571D01*
X20895Y14989D01*
X20972Y14911D01*
X20555Y14493D01*
X20555Y14493D01*
G37*
G36*
X20693Y14355D02*
X20615Y14432D01*
X21033Y14850D01*
X21111Y14772D01*
X20693Y14355D01*
X20693Y14355D01*
G37*
G36*
X20832Y14215D02*
X20755Y14293D01*
X21173Y14711D01*
X21250Y14633D01*
X20832Y14215D01*
X20832Y14215D01*
G37*
G36*
X20972Y14076D02*
X20894Y14154D01*
X21312Y14572D01*
X21390Y14494D01*
X20972Y14076D01*
X20972Y14076D01*
G37*
G36*
X21111Y13937D02*
X21033Y14014D01*
X21451Y14432D01*
X21529Y14355D01*
X21111Y13937D01*
X21111Y13937D01*
G37*
G36*
X21250Y13797D02*
X21173Y13875D01*
X21590Y14293D01*
X21668Y14215D01*
X21250Y13797D01*
X21250Y13797D01*
G37*
G36*
X21390Y13658D02*
X21312Y13736D01*
X21730Y14154D01*
X21808Y14076D01*
X21390Y13658D01*
X21390Y13658D01*
G37*
G36*
X21529Y13519D02*
X21451Y13597D01*
X21869Y14014D01*
X21947Y13937D01*
X21529Y13519D01*
X21529Y13519D01*
G37*
G36*
X21668Y13380D02*
X21590Y13458D01*
X22008Y13876D01*
X22085Y13798D01*
X21668Y13380D01*
X21668Y13380D01*
G37*
G36*
X21807Y13241D02*
X21729Y13319D01*
X22147Y13737D01*
X22225Y13659D01*
X21807Y13241D01*
X21807Y13241D01*
G37*
G36*
X21946Y13102D02*
X21868Y13179D01*
X22286Y13597D01*
X22364Y13519D01*
X21946Y13102D01*
X21946Y13102D01*
G37*
G36*
X22085Y12962D02*
X22008Y13040D01*
X22426Y13458D01*
X22503Y13380D01*
X22085Y12962D01*
X22085Y12962D01*
G37*
G36*
X22225Y12823D02*
X22147Y12901D01*
X22565Y13319D01*
X22643Y13241D01*
X22225Y12823D01*
X22225Y12823D01*
G37*
G36*
X22364Y12684D02*
X22286Y12761D01*
X22704Y13179D01*
X22782Y13102D01*
X22364Y12684D01*
X22364Y12684D01*
G37*
G36*
X22503Y12544D02*
X22426Y12622D01*
X22843Y13040D01*
X22921Y12962D01*
X22503Y12544D01*
X22503Y12544D01*
G37*
G36*
X22642Y12406D02*
X22564Y12484D01*
X22982Y12901D01*
X23060Y12824D01*
X22642Y12406D01*
X22642Y12406D01*
G37*
G36*
X22781Y12266D02*
X22703Y12344D01*
X23121Y12762D01*
X23199Y12684D01*
X22781Y12266D01*
X22781Y12266D01*
G37*
G36*
X22921Y12127D02*
X22843Y12205D01*
X23261Y12623D01*
X23338Y12545D01*
X22921Y12127D01*
X22921Y12127D01*
G37*
G36*
X23060Y11988D02*
X22982Y12066D01*
X23400Y12484D01*
X23478Y12406D01*
X23060Y11988D01*
X23060Y11988D01*
G37*
G36*
X23199Y11849D02*
X23121Y11926D01*
X23539Y12344D01*
X23617Y12266D01*
X23199Y11849D01*
X23199Y11849D01*
G37*
G36*
X23338Y11709D02*
X23261Y11787D01*
X23679Y12205D01*
X23756Y12127D01*
X23338Y11709D01*
X23338Y11709D01*
G37*
G36*
X23477Y11571D02*
X23399Y11648D01*
X23817Y12066D01*
X23895Y11989D01*
X23477Y11571D01*
X23477Y11571D01*
G37*
G36*
X23616Y11431D02*
X23539Y11509D01*
X23956Y11927D01*
X24034Y11849D01*
X23616Y11431D01*
X23616Y11431D01*
G37*
G36*
X23756Y11292D02*
X23678Y11370D01*
X24096Y11788D01*
X24174Y11710D01*
X23756Y11292D01*
X23756Y11292D01*
G37*
G36*
X23895Y11153D02*
X23817Y11231D01*
X24235Y11648D01*
X24313Y11571D01*
X23895Y11153D01*
X23895Y11153D01*
G37*
G36*
X24034Y11013D02*
X23956Y11091D01*
X24374Y11509D01*
X24452Y11431D01*
X24034Y11013D01*
X24034Y11013D01*
G37*
G36*
X30103Y17082D02*
X30025Y17160D01*
X30443Y17578D01*
X30521Y17500D01*
X30103Y17082D01*
X30103Y17082D01*
G37*
G36*
X29963Y17221D02*
X29886Y17299D01*
X30303Y17717D01*
X30381Y17639D01*
X29963Y17221D01*
X29963Y17221D01*
G37*
G36*
X29824Y17360D02*
X29746Y17438D01*
X30164Y17856D01*
X30242Y17778D01*
X29824Y17360D01*
X29824Y17360D01*
G37*
G36*
X29685Y17500D02*
X29607Y17578D01*
X30025Y17995D01*
X30103Y17918D01*
X29685Y17500D01*
X29685Y17500D01*
G37*
G36*
X29545Y17639D02*
X29468Y17717D01*
X29886Y18135D01*
X29963Y18057D01*
X29545Y17639D01*
X29545Y17639D01*
G37*
G36*
X29407Y17778D02*
X29329Y17855D01*
X29747Y18273D01*
X29825Y18196D01*
X29407Y17778D01*
X29407Y17778D01*
G37*
G36*
X29268Y17917D02*
X29190Y17995D01*
X29608Y18413D01*
X29685Y18335D01*
X29268Y17917D01*
X29268Y17917D01*
G37*
G36*
X29128Y18056D02*
X29050Y18134D01*
X29468Y18552D01*
X29546Y18474D01*
X29128Y18056D01*
X29128Y18056D01*
G37*
G36*
X28989Y18196D02*
X28911Y18273D01*
X29329Y18691D01*
X29407Y18613D01*
X28989Y18196D01*
X28989Y18196D01*
G37*
G36*
X28850Y18335D02*
X28772Y18413D01*
X29190Y18831D01*
X29268Y18753D01*
X28850Y18335D01*
X28850Y18335D01*
G37*
G36*
X28710Y18474D02*
X28633Y18552D01*
X29050Y18970D01*
X29128Y18892D01*
X28710Y18474D01*
X28710Y18474D01*
G37*
G36*
X28572Y18613D02*
X28494Y18691D01*
X28912Y19108D01*
X28990Y19031D01*
X28572Y18613D01*
X28572Y18613D01*
G37*
G36*
X28432Y18752D02*
X28355Y18830D01*
X28773Y19248D01*
X28850Y19170D01*
X28432Y18752D01*
X28432Y18752D01*
G37*
G36*
X28293Y18891D02*
X28215Y18969D01*
X28633Y19387D01*
X28711Y19309D01*
X28293Y18891D01*
X28293Y18891D01*
G37*
G36*
X28154Y19031D02*
X28076Y19108D01*
X28494Y19526D01*
X28572Y19449D01*
X28154Y19031D01*
X28154Y19031D01*
G37*
G36*
X28015Y19170D02*
X27937Y19248D01*
X28355Y19666D01*
X28432Y19588D01*
X28015Y19170D01*
X28015Y19170D01*
G37*
G36*
X27875Y19309D02*
X27797Y19387D01*
X28215Y19805D01*
X28293Y19727D01*
X27875Y19309D01*
X27875Y19309D01*
G37*
G36*
X27736Y19449D02*
X27658Y19526D01*
X28076Y19944D01*
X28154Y19866D01*
X27736Y19449D01*
X27736Y19449D01*
G37*
G36*
X27597Y19587D02*
X27520Y19665D01*
X27937Y20083D01*
X28015Y20005D01*
X27597Y19587D01*
X27597Y19587D01*
G37*
G36*
X27458Y19726D02*
X27380Y19804D01*
X27798Y20222D01*
X27876Y20144D01*
X27458Y19726D01*
X27458Y19726D01*
G37*
G36*
X27319Y19866D02*
X27241Y19944D01*
X27659Y20361D01*
X27737Y20284D01*
X27319Y19866D01*
X27319Y19866D01*
G37*
G36*
X27179Y20005D02*
X27102Y20083D01*
X27520Y20501D01*
X27597Y20423D01*
X27179Y20005D01*
X27179Y20005D01*
G37*
G36*
X27040Y20144D02*
X26962Y20222D01*
X27380Y20640D01*
X27458Y20562D01*
X27040Y20144D01*
X27040Y20144D01*
G37*
G36*
X26901Y20284D02*
X26823Y20361D01*
X27241Y20779D01*
X27319Y20702D01*
X26901Y20284D01*
X26901Y20284D01*
G37*
G36*
X26762Y20423D02*
X26684Y20501D01*
X27102Y20919D01*
X27179Y20841D01*
X26762Y20423D01*
X26762Y20423D01*
G37*
G36*
X26623Y20562D02*
X26545Y20639D01*
X26963Y21057D01*
X27041Y20979D01*
X26623Y20562D01*
X26623Y20562D01*
G37*
G36*
X26484Y20701D02*
X26406Y20779D01*
X26824Y21197D01*
X26902Y21119D01*
X26484Y20701D01*
X26484Y20701D01*
G37*
G36*
X26344Y20840D02*
X26267Y20918D01*
X26684Y21336D01*
X26762Y21258D01*
X26344Y20840D01*
X26344Y20840D01*
G37*
G36*
X26205Y20979D02*
X26127Y21057D01*
X26545Y21475D01*
X26623Y21397D01*
X26205Y20979D01*
X26205Y20979D01*
G37*
G36*
X26066Y21119D02*
X25988Y21197D01*
X26406Y21614D01*
X26484Y21537D01*
X26066Y21119D01*
X26066Y21119D01*
G37*
G36*
X25926Y21258D02*
X25849Y21336D01*
X26267Y21754D01*
X26344Y21676D01*
X25926Y21258D01*
X25926Y21258D01*
G37*
G36*
X25788Y21397D02*
X25710Y21474D01*
X26128Y21892D01*
X26206Y21815D01*
X25788Y21397D01*
X25788Y21397D01*
G37*
G36*
X25649Y21536D02*
X25571Y21614D01*
X25989Y22032D01*
X26066Y21954D01*
X25649Y21536D01*
X25649Y21536D01*
G37*
G36*
X25509Y21675D02*
X25431Y21753D01*
X25849Y22171D01*
X25927Y22093D01*
X25509Y21675D01*
X25509Y21675D01*
G37*
G36*
X25370Y21815D02*
X25292Y21892D01*
X25710Y22310D01*
X25788Y22232D01*
X25370Y21815D01*
X25370Y21815D01*
G37*
G36*
X25231Y21954D02*
X25153Y22032D01*
X25571Y22450D01*
X25649Y22372D01*
X25231Y21954D01*
X25231Y21954D01*
G37*
G54D24*
X20177Y11771D03*
X20177Y11063D03*
X18406Y19036D03*
X18406Y19744D03*
G54D23*
X25040Y8760D03*
X25748Y8760D03*
G54D24*
X18799Y13445D03*
X18799Y12737D03*
X27854Y11771D03*
X27854Y11063D03*
X29429Y11771D03*
X29429Y11063D03*
G54D20*
X30689Y14567D03*
X31319Y14567D03*
X16851Y4232D03*
X16221Y4232D03*
G54D21*
X18406Y17795D03*
X18406Y18425D03*
X18406Y17146D03*
X18406Y16516D03*
X22441Y11732D03*
X22441Y11102D03*
G54D20*
X30984Y15157D03*
X31614Y15157D03*
G54D21*
X28642Y20453D03*
X28642Y21083D03*
X29232Y20453D03*
X29232Y21083D03*
X20276Y13406D03*
X20276Y12776D03*
X21850Y11732D03*
X21850Y11102D03*
X20866Y13406D03*
X20866Y12776D03*
X19193Y18878D03*
X19193Y19508D03*
X21850Y22126D03*
X21850Y22756D03*
G54D20*
X17441Y15059D03*
X16811Y15059D03*
G54D21*
X25886Y10256D03*
X25886Y9626D03*
X21850Y9370D03*
X21850Y8740D03*
X24705Y10256D03*
X24705Y9626D03*
X22539Y22126D03*
X22539Y22756D03*
G54D20*
X19409Y14173D03*
X18779Y14173D03*
G54D21*
X25295Y9626D03*
X25295Y10256D03*
G54D24*
X21063Y11771D03*
X21063Y11063D03*
G54D20*
X19371Y32480D03*
X20001Y32480D03*
G54D35*
X20687Y4073D03*
X20687Y4573D03*
X20687Y5073D03*
X20687Y5573D03*
X18487Y5573D03*
X18487Y5073D03*
X18487Y4573D03*
X18487Y4073D03*
G54D20*
X20059Y3346D03*
X20689Y3346D03*
X18583Y6299D03*
X19213Y6299D03*
G54D22*
X32874Y36122D03*
X31692Y36122D03*
X32874Y37205D03*
X31692Y37205D03*
G54D20*
X27973Y39174D03*
X27343Y39174D03*
G54D21*
X25394Y38111D03*
X25394Y37481D03*
X25985Y37481D03*
X25985Y38111D03*
G54D36*
X34647Y13820D03*
X34844Y13820D03*
X35041Y13820D03*
X35238Y13820D03*
X35434Y13820D03*
X35631Y13820D03*
X35828Y13820D03*
X36025Y13820D03*
G54D37*
X36281Y14862D03*
X36281Y15058D03*
X36281Y15255D03*
X36281Y15452D03*
G54D38*
X35335Y14764D03*
G54D37*
X36281Y14075D03*
X36281Y14272D03*
X36281Y14469D03*
X36281Y14665D03*
G54D36*
X36023Y15708D03*
X35826Y15709D03*
X35630Y15709D03*
X35433Y15709D03*
X35236Y15709D03*
X35039Y15709D03*
X34842Y15709D03*
X34645Y15709D03*
G54D37*
X34390Y15453D03*
X34390Y15256D03*
X34390Y15059D03*
X34390Y14863D03*
X34390Y14666D03*
X34390Y14469D03*
X34390Y14272D03*
X34390Y14075D03*
G54D39*
X27461Y37695D03*
G54D40*
X27845Y38502D03*
X27589Y38502D03*
X27333Y38502D03*
X27077Y38502D03*
X27077Y36888D03*
X27333Y36888D03*
X27589Y36888D03*
X27845Y36888D03*
G54D41*
X26654Y38079D03*
X26654Y37823D03*
X26654Y37567D03*
X26654Y37311D03*
X28268Y37311D03*
X28268Y37567D03*
X28268Y37823D03*
X28268Y38079D03*
G54D19*
X29724Y31004D03*
X31890Y31004D03*
G54D23*
X31929Y35138D03*
X32637Y35138D03*
X31929Y34154D03*
X32637Y34154D03*
G54D20*
X26005Y38780D03*
X25375Y38780D03*
X27080Y35870D03*
X27710Y35870D03*
G54D42*
X32579Y42717D03*
G54D43*
X32579Y43643D03*
G54D44*
X30020Y37106D03*
G54D45*
X30946Y37106D03*
G54D23*
X29370Y38583D03*
X30078Y38583D03*
G54D46*
X29626Y35374D03*
X29626Y33130D03*
G54D21*
X9055Y32362D03*
X9055Y32992D03*
X9252Y40138D03*
X9252Y40768D03*
X9154Y16319D03*
X9154Y16949D03*
X9252Y24291D03*
X9252Y24921D03*
G54D47*
X18602Y787D03*
G54D48*
X18602Y1840D03*
X18346Y1840D03*
X18090Y1840D03*
X18858Y1840D03*
X19114Y1840D03*
G54D49*
X37520Y11811D03*
X37520Y10237D03*
X38464Y10237D03*
X38464Y11811D03*
X17598Y16634D03*
X17598Y18208D03*
X16654Y18208D03*
X16654Y16634D03*
G54D21*
X24114Y10256D03*
X24114Y9626D03*
X22638Y9370D03*
X22638Y8740D03*
G54D20*
X26063Y6890D03*
X26693Y6890D03*
G54D21*
X25295Y6870D03*
X25295Y7500D03*
G54D20*
X31279Y15846D03*
X31909Y15846D03*
G54D21*
X22933Y6870D03*
X22933Y7500D03*
G54D15*
X17464Y37415D03*
X18296Y37040D03*
X17464Y36665D03*
G54D29*
X19900Y34830D03*
G54D30*
X19900Y35578D03*
G54D20*
X21831Y36614D03*
X22461Y36614D03*
G54D21*
X13386Y10709D03*
X13386Y11339D03*
X13287Y5787D03*
X13287Y6417D03*
M02*
