G04 (created by PCBNEW (2013-05-18 BZR 4017)-stable) date Fri 12 Dec 2014 16:28:56 GMT*
%MOIN*%
G04 Gerber Fmt 3.4, Leading zero omitted, Abs format*
%FSLAX34Y34*%
G01*
G70*
G90*
G04 APERTURE LIST*
%ADD10C,0.00590551*%
%ADD11C,0.2169*%
%ADD12R,0.08X0.08*%
%ADD13C,0.08*%
%ADD14R,0.0987X0.0987*%
%ADD15C,0.1184*%
%ADD16R,0.0594X0.0594*%
%ADD17C,0.0594*%
%ADD18O,0.0594X0.0692*%
%ADD19O,0.0948X0.1027*%
%ADD20C,0.0535*%
%ADD21C,0.1499*%
%ADD22C,0.12*%
%ADD23C,0.0515*%
G04 APERTURE END LIST*
G54D10*
G54D11*
X37795Y46850D03*
G54D12*
X10935Y46430D03*
G54D13*
X11935Y46430D03*
X12935Y46430D03*
G54D14*
X16536Y45472D03*
G54D15*
X19488Y45472D03*
G54D14*
X29330Y45866D03*
G54D15*
X27362Y45866D03*
G54D12*
X1250Y43625D03*
G54D13*
X1250Y42625D03*
X1250Y41625D03*
X1250Y40625D03*
X1250Y39625D03*
X1250Y38625D03*
X1250Y37625D03*
G54D12*
X1250Y35625D03*
G54D13*
X1250Y34625D03*
X1250Y33625D03*
X1250Y32625D03*
X1250Y31625D03*
X1250Y30625D03*
X1250Y29625D03*
G54D12*
X1250Y27625D03*
G54D13*
X1250Y26625D03*
X1250Y25625D03*
X1250Y24625D03*
X1250Y23625D03*
X1250Y22625D03*
X1250Y21625D03*
G54D12*
X1250Y19625D03*
G54D13*
X1250Y18625D03*
X1250Y17625D03*
X1250Y16625D03*
X1250Y15625D03*
X1250Y14625D03*
X1250Y13625D03*
G54D12*
X1250Y11625D03*
G54D13*
X1250Y10625D03*
X1250Y9625D03*
X1250Y8625D03*
G54D12*
X32587Y46161D03*
G54D13*
X31587Y46161D03*
G54D12*
X1250Y7625D03*
G54D13*
X1250Y6625D03*
G54D12*
X1250Y4625D03*
G54D13*
X1250Y3625D03*
G54D16*
X19472Y7329D03*
G54D17*
X19472Y7829D03*
X19972Y7329D03*
X19972Y7829D03*
X20472Y7329D03*
X20472Y7829D03*
X20972Y7329D03*
X20972Y7829D03*
X21472Y7329D03*
X21472Y7829D03*
G54D12*
X21760Y38976D03*
G54D13*
X20760Y38976D03*
G54D17*
X22961Y1870D03*
X26103Y1870D03*
G54D12*
X37295Y43299D03*
G54D13*
X38295Y43299D03*
X37295Y38299D03*
X38295Y42299D03*
X37295Y37299D03*
X38295Y41299D03*
X37295Y36299D03*
X38295Y40299D03*
X37295Y35299D03*
X38295Y39299D03*
X37295Y34299D03*
X38295Y38299D03*
X37295Y33299D03*
X38295Y37299D03*
X37295Y32299D03*
X38295Y36299D03*
X37295Y31299D03*
X38295Y35299D03*
X37295Y30299D03*
X38295Y34299D03*
X37295Y29299D03*
X38295Y33299D03*
X37295Y28299D03*
X38295Y32299D03*
X38295Y31299D03*
X37295Y27299D03*
X38295Y30299D03*
X38295Y28299D03*
X38295Y27299D03*
X38295Y26299D03*
X38295Y25299D03*
X37295Y26299D03*
X37295Y25299D03*
X37295Y42299D03*
X37295Y41299D03*
X37295Y40299D03*
X37295Y39299D03*
X37295Y24299D03*
X38295Y24299D03*
X38295Y29299D03*
X37295Y23299D03*
X38295Y23299D03*
X37295Y22299D03*
X38295Y22299D03*
X37295Y21299D03*
X38295Y21299D03*
X37295Y20299D03*
X38295Y20299D03*
X37295Y19299D03*
X38295Y19299D03*
G54D18*
X17726Y1968D03*
X19478Y1968D03*
G54D19*
X20216Y716D03*
X16988Y716D03*
G54D20*
X19537Y716D03*
X17667Y716D03*
G54D21*
X30919Y4528D03*
X35419Y4528D03*
G54D13*
X34919Y8028D03*
X34421Y7028D03*
X33919Y8028D03*
X33421Y7028D03*
X32919Y8028D03*
X32421Y7028D03*
X31919Y8028D03*
G54D22*
X30119Y5729D03*
X36219Y5728D03*
G54D13*
X34777Y2599D03*
X31561Y2599D03*
X35777Y2599D03*
X30561Y2599D03*
G54D12*
X31421Y7028D03*
G54D23*
X15551Y26181D03*
X15354Y42028D03*
X15551Y34252D03*
X14567Y17618D03*
G54D12*
X17720Y40937D03*
G54D13*
X17720Y41937D03*
X18720Y40937D03*
X18720Y41937D03*
X19720Y40937D03*
X19720Y41937D03*
X20720Y40937D03*
X20720Y41937D03*
X21720Y40937D03*
X21720Y41937D03*
X22720Y40937D03*
X22720Y41937D03*
X23720Y40937D03*
X23720Y41937D03*
X24720Y40937D03*
X24720Y41937D03*
X25720Y40937D03*
X25720Y41937D03*
X26720Y40937D03*
X26720Y41937D03*
X27720Y40937D03*
X27720Y41937D03*
X28720Y40937D03*
X28720Y41937D03*
X29720Y40937D03*
X29720Y41937D03*
G54D12*
X3250Y35625D03*
G54D13*
X4250Y35625D03*
X3250Y30625D03*
X4250Y34625D03*
X3250Y29625D03*
X4250Y33625D03*
X3250Y28625D03*
X4250Y32625D03*
X3250Y27625D03*
X4250Y31625D03*
X3250Y26625D03*
X4250Y30625D03*
X3250Y25625D03*
X4250Y29625D03*
X3250Y24625D03*
X4250Y28625D03*
X3250Y23625D03*
X4250Y27625D03*
X3250Y22625D03*
X4250Y26625D03*
X3250Y21625D03*
X4250Y25625D03*
X3250Y20625D03*
X4250Y24625D03*
X4250Y23625D03*
X3250Y19625D03*
X4250Y22625D03*
X4250Y20625D03*
X4250Y19625D03*
X4250Y18625D03*
X4250Y17625D03*
X3250Y18625D03*
X3250Y17625D03*
X3250Y34625D03*
X3250Y33625D03*
X3250Y32625D03*
X3250Y31625D03*
X3250Y16625D03*
X4250Y16625D03*
X4250Y21625D03*
G54D12*
X25220Y36355D03*
G54D13*
X25220Y35355D03*
G54D12*
X18910Y34050D03*
G54D13*
X18910Y35050D03*
G54D11*
X1575Y46850D03*
X37795Y1575D03*
X1575Y1575D03*
M02*
