G04 (created by PCBNEW-RS274X (2012-01-19 BZR 3256)-stable) date 19/07/2014 16:24:45*
G01*
G70*
G90*
%MOIN*%
G04 Gerber Fmt 3.4, Leading zero omitted, Abs format*
%FSLAX34Y34*%
G04 APERTURE LIST*
%ADD10C,0.006000*%
%ADD11C,0.216900*%
%ADD12R,0.098700X0.098700*%
%ADD13C,0.118400*%
%ADD14R,0.134200X0.094800*%
%ADD15O,0.059400X0.069200*%
%ADD16R,0.035700X0.073100*%
%ADD17O,0.094800X0.102700*%
%ADD18C,0.053500*%
%ADD19R,0.083000X0.138100*%
%ADD20R,0.248300X0.264100*%
%ADD21R,0.080000X0.080000*%
%ADD22C,0.080000*%
%ADD23R,0.077900X0.036500*%
%ADD24R,0.138100X0.190100*%
%ADD25R,0.059400X0.146000*%
%ADD26R,0.146000X0.059400*%
%ADD27R,0.059400X0.043600*%
%ADD28R,0.043600X0.059400*%
%ADD29R,0.100000X0.164000*%
%ADD30R,0.100000X0.060000*%
%ADD31R,0.161700X0.083000*%
%ADD32R,0.083000X0.161700*%
%ADD33R,0.057400X0.059400*%
%ADD34R,0.059400X0.057400*%
%ADD35R,0.065300X0.090900*%
%ADD36R,0.065300X0.077100*%
%ADD37R,0.077100X0.065300*%
%ADD38R,0.110600X0.071200*%
%ADD39R,0.275900X0.252300*%
%ADD40R,0.134200X0.079100*%
%ADD41R,0.079100X0.134200*%
%ADD42R,0.059400X0.059400*%
%ADD43C,0.059400*%
%ADD44R,0.063300X0.098700*%
%ADD45R,0.063300X0.051500*%
%ADD46R,0.067200X0.106600*%
%ADD47R,0.067200X0.075100*%
%ADD48R,0.083000X0.075100*%
%ADD49R,0.047600X0.083000*%
%ADD50R,0.070000X0.045000*%
%ADD51R,0.029800X0.043600*%
%ADD52R,0.043600X0.029800*%
%ADD53R,0.149900X0.149900*%
%ADD54R,0.120000X0.125100*%
%ADD55R,0.070000X0.050000*%
%ADD56R,0.125100X0.120000*%
%ADD57R,0.050000X0.070000*%
%ADD58C,0.149900*%
%ADD59C,0.120000*%
%ADD60R,0.067200X0.090900*%
%ADD61C,0.051500*%
%ADD62C,0.157600*%
%ADD63R,0.029000X0.054000*%
%ADD64R,0.173500X0.079800*%
G04 APERTURE END LIST*
G54D10*
G54D11*
X02754Y01575D03*
G54D12*
X17390Y45236D03*
G54D13*
X19890Y45236D03*
G54D14*
X19781Y00787D03*
G54D15*
X18905Y01968D03*
G54D16*
X19781Y01840D03*
X19525Y01840D03*
X19269Y01840D03*
X20037Y01840D03*
X20293Y01840D03*
G54D15*
X20657Y01968D03*
G54D17*
X21395Y00716D03*
X18167Y00716D03*
G54D18*
X20716Y00716D03*
X18846Y00716D03*
G54D19*
X30890Y40115D03*
G54D20*
X29990Y37288D03*
G54D19*
X29090Y40115D03*
G54D21*
X12114Y46430D03*
G54D22*
X13114Y46430D03*
X14114Y46430D03*
G54D23*
X13303Y34515D03*
X13303Y34771D03*
X13303Y35027D03*
X13303Y35283D03*
X11101Y33751D03*
X13303Y33747D03*
X13303Y34003D03*
X13303Y34259D03*
X11099Y35539D03*
X11099Y35283D03*
X11099Y35027D03*
X11099Y34771D03*
X11099Y34515D03*
X11099Y34259D03*
X13303Y35539D03*
X11101Y34003D03*
X13303Y33491D03*
X13303Y35795D03*
X11099Y35795D03*
X11099Y33491D03*
X13303Y33236D03*
X13303Y36050D03*
X11099Y36050D03*
X11099Y33236D03*
G54D24*
X12201Y34643D03*
G54D23*
X13302Y26542D03*
X13302Y26798D03*
X13302Y27054D03*
X13302Y27310D03*
X11100Y25778D03*
X13302Y25774D03*
X13302Y26030D03*
X13302Y26286D03*
X11098Y27566D03*
X11098Y27310D03*
X11098Y27054D03*
X11098Y26798D03*
X11098Y26542D03*
X11098Y26286D03*
X13302Y27566D03*
X11100Y26030D03*
X13302Y25518D03*
X13302Y27822D03*
X11098Y27822D03*
X11098Y25518D03*
X13302Y25263D03*
X13302Y28077D03*
X11098Y28077D03*
X11098Y25263D03*
G54D24*
X12200Y26670D03*
G54D23*
X13302Y18571D03*
X13302Y18827D03*
X13302Y19083D03*
X13302Y19339D03*
X11100Y17807D03*
X13302Y17803D03*
X13302Y18059D03*
X13302Y18315D03*
X11098Y19595D03*
X11098Y19339D03*
X11098Y19083D03*
X11098Y18827D03*
X11098Y18571D03*
X11098Y18315D03*
X13302Y19595D03*
X11100Y18059D03*
X13302Y17547D03*
X13302Y19851D03*
X11098Y19851D03*
X11098Y17547D03*
X13302Y17292D03*
X13302Y20106D03*
X11098Y20106D03*
X11098Y17292D03*
G54D24*
X12200Y18699D03*
G54D23*
X13304Y42391D03*
X13304Y42647D03*
X13304Y42903D03*
X13304Y43159D03*
X11102Y41627D03*
X13304Y41623D03*
X13304Y41879D03*
X13304Y42135D03*
X11100Y43415D03*
X11100Y43159D03*
X11100Y42903D03*
X11100Y42647D03*
X11100Y42391D03*
X11100Y42135D03*
X13304Y43415D03*
X11102Y41879D03*
X13304Y41367D03*
X13304Y43671D03*
X11100Y43671D03*
X11100Y41367D03*
X13304Y41112D03*
X13304Y43926D03*
X11100Y43926D03*
X11100Y41112D03*
G54D24*
X12202Y42519D03*
G54D23*
X19762Y30837D03*
X19762Y30581D03*
X19762Y30325D03*
X19762Y30069D03*
X21964Y31601D03*
X19762Y31605D03*
X19762Y31349D03*
X19762Y31093D03*
X21966Y29813D03*
X21966Y30069D03*
X21966Y30325D03*
X21966Y30581D03*
X21966Y30837D03*
X21966Y31093D03*
X19762Y29813D03*
X21964Y31349D03*
X19762Y31861D03*
X19762Y29557D03*
X21966Y29557D03*
X21966Y31861D03*
G54D25*
X30509Y07027D03*
X30509Y09705D03*
X28935Y09705D03*
X28935Y07027D03*
G54D26*
X13816Y00591D03*
X16494Y00591D03*
X16494Y02165D03*
X13816Y02165D03*
G54D27*
X13800Y04645D03*
X12968Y05020D03*
X13800Y05395D03*
X13800Y10649D03*
X12968Y11024D03*
X13800Y11399D03*
G54D28*
X23383Y42478D03*
X23758Y43310D03*
X24133Y42478D03*
G54D29*
X25509Y31106D03*
G54D30*
X28109Y31106D03*
X28109Y32006D03*
X28109Y30206D03*
G54D31*
X09577Y45748D03*
X07411Y45748D03*
X09546Y21654D03*
X07380Y21654D03*
X09546Y37598D03*
X07380Y37598D03*
X09546Y29626D03*
X07380Y29626D03*
G54D32*
X35029Y40855D03*
X35029Y38689D03*
G54D33*
X35411Y18307D03*
X36041Y18307D03*
X39288Y16142D03*
X38658Y16142D03*
X39288Y15551D03*
X38658Y15551D03*
X35411Y17717D03*
X36041Y17717D03*
X35411Y17126D03*
X36041Y17126D03*
X39288Y14370D03*
X38658Y14370D03*
X39288Y14961D03*
X38658Y14961D03*
X33934Y14469D03*
X34564Y14469D03*
X33934Y15059D03*
X34564Y15059D03*
X38658Y13189D03*
X39288Y13189D03*
G54D34*
X22045Y43445D03*
X22045Y44075D03*
X22990Y43445D03*
X22990Y44075D03*
X12202Y09921D03*
X12202Y10551D03*
X18896Y29803D03*
X18896Y30433D03*
X20372Y09370D03*
X20372Y08740D03*
G54D33*
X20096Y23819D03*
X19466Y23819D03*
G54D34*
X16731Y03524D03*
X16731Y04154D03*
G54D33*
X17990Y14173D03*
X18620Y14173D03*
X17990Y13386D03*
X18620Y13386D03*
X39289Y13780D03*
X38659Y13780D03*
X33934Y13878D03*
X34564Y13878D03*
G54D34*
X29722Y04154D03*
X29722Y03524D03*
X30411Y03524D03*
X30411Y04154D03*
G54D33*
X13601Y09942D03*
X12971Y09942D03*
X13640Y04016D03*
X13010Y04016D03*
G54D34*
X12222Y04154D03*
X12222Y03524D03*
X18896Y31713D03*
X18896Y31083D03*
G54D33*
X19703Y21555D03*
X19073Y21555D03*
G54D34*
X31159Y12441D03*
X31159Y13071D03*
G54D33*
X18423Y19980D03*
X17793Y19980D03*
X38856Y09449D03*
X39486Y09449D03*
X39289Y12598D03*
X38659Y12598D03*
X35313Y10138D03*
X35943Y10138D03*
X35313Y09449D03*
X35943Y09449D03*
X19703Y22146D03*
X19073Y22146D03*
X20096Y24409D03*
X19466Y24409D03*
G54D34*
X31789Y12441D03*
X31789Y13071D03*
G54D33*
X18423Y20571D03*
X17793Y20571D03*
G54D34*
X09447Y31575D03*
X09447Y32205D03*
G54D33*
X15470Y35433D03*
X14840Y35433D03*
X14841Y34839D03*
X15471Y34839D03*
X18620Y15650D03*
X17990Y15650D03*
X14840Y34252D03*
X15470Y34252D03*
G54D34*
X14762Y33382D03*
X14762Y32752D03*
G54D33*
X14840Y36024D03*
X15470Y36024D03*
G54D34*
X14073Y32752D03*
X14073Y33382D03*
X09447Y15630D03*
X09447Y16260D03*
G54D33*
X15470Y19390D03*
X14840Y19390D03*
X14839Y18796D03*
X15469Y18796D03*
G54D34*
X21159Y09370D03*
X21159Y08740D03*
G54D33*
X14840Y18209D03*
X15470Y18209D03*
G54D34*
X14760Y17438D03*
X14760Y16808D03*
G54D33*
X14840Y19980D03*
X15470Y19980D03*
G54D34*
X14071Y16808D03*
X14071Y17438D03*
X09348Y39449D03*
X09348Y40079D03*
G54D33*
X15470Y43209D03*
X14840Y43209D03*
X14842Y42617D03*
X15472Y42617D03*
X14840Y42028D03*
X15470Y42028D03*
G54D34*
X14763Y41258D03*
X14763Y40628D03*
G54D33*
X14840Y43799D03*
X15470Y43799D03*
G54D34*
X14074Y40628D03*
X14074Y41258D03*
X09447Y23898D03*
X09447Y24528D03*
G54D33*
X15470Y27362D03*
X14840Y27362D03*
X14840Y26768D03*
X15470Y26768D03*
X14840Y26181D03*
X15470Y26181D03*
G54D34*
X14761Y25410D03*
X14761Y24780D03*
G54D33*
X14840Y27953D03*
X15470Y27953D03*
G54D34*
X14072Y24780D03*
X14072Y25410D03*
X22144Y09370D03*
X22144Y08740D03*
G54D35*
X09250Y41437D03*
X08068Y41437D03*
G54D36*
X33895Y12402D03*
X34603Y12402D03*
X33895Y13189D03*
X34603Y13189D03*
G54D33*
X17400Y03445D03*
X18015Y03445D03*
G54D37*
X35431Y13052D03*
X35431Y12344D03*
G54D36*
X26435Y29248D03*
X27143Y29248D03*
G54D35*
X09250Y25591D03*
X08068Y25591D03*
X09250Y27756D03*
X08068Y27756D03*
X09250Y43602D03*
X08068Y43602D03*
X09250Y33563D03*
X08068Y33563D03*
X09250Y17618D03*
X08068Y17618D03*
X09250Y35728D03*
X08068Y35728D03*
X09250Y19783D03*
X08068Y19783D03*
G54D34*
X22932Y31279D03*
X22932Y31909D03*
G54D38*
X11063Y03431D03*
G54D39*
X08563Y04331D03*
G54D38*
X11063Y05231D03*
X11061Y09336D03*
G54D39*
X08561Y10236D03*
G54D38*
X11061Y11136D03*
X25018Y46609D03*
G54D39*
X27518Y45709D03*
G54D38*
X25018Y44809D03*
G54D33*
X08187Y08268D03*
X07557Y08268D03*
X10667Y02003D03*
X10037Y02003D03*
X24821Y43898D03*
X24191Y43898D03*
X10052Y02578D03*
X10667Y02578D03*
X09663Y08268D03*
X09048Y08268D03*
X26100Y43898D03*
X25485Y43898D03*
G54D21*
X01248Y44019D03*
G54D22*
X01248Y43019D03*
X01248Y42019D03*
X01248Y41019D03*
X01248Y40019D03*
X01248Y39019D03*
X01248Y38019D03*
G54D21*
X01248Y36143D03*
G54D22*
X01248Y35143D03*
X01248Y34143D03*
X01248Y33143D03*
X01248Y32143D03*
X01248Y31143D03*
X01248Y30143D03*
G54D21*
X01248Y28170D03*
G54D22*
X01248Y27170D03*
X01248Y26170D03*
X01248Y25170D03*
X01248Y24170D03*
X01248Y23170D03*
X01248Y22170D03*
G54D21*
X01248Y20199D03*
G54D22*
X01248Y19199D03*
X01248Y18199D03*
X01248Y17199D03*
X01248Y16199D03*
X01248Y15199D03*
X01248Y14199D03*
G54D21*
X35911Y46929D03*
G54D22*
X34911Y46929D03*
G54D34*
X22932Y30432D03*
X22932Y29802D03*
X36218Y12323D03*
X36218Y11693D03*
G54D40*
X37203Y12205D03*
X37203Y11023D03*
G54D41*
X37891Y17323D03*
X39073Y17323D03*
G54D36*
X34604Y11614D03*
X33896Y11614D03*
G54D33*
X10844Y31791D03*
X10214Y31791D03*
X10844Y39567D03*
X10214Y39567D03*
X10844Y15748D03*
X10214Y15748D03*
X10844Y23720D03*
X10214Y23720D03*
X10214Y31102D03*
X10829Y31102D03*
X10214Y38878D03*
X10829Y38878D03*
X10214Y15157D03*
X10829Y15157D03*
X10214Y23031D03*
X10829Y23031D03*
X14840Y28543D03*
X15470Y28543D03*
X14840Y44390D03*
X15470Y44390D03*
X14840Y36614D03*
X15470Y36614D03*
X14840Y20571D03*
X15470Y20571D03*
G54D36*
X25549Y06988D03*
X24841Y06988D03*
G54D42*
X20651Y07329D03*
G54D43*
X20651Y07829D03*
X21151Y07329D03*
X21151Y07829D03*
X21651Y07329D03*
X21651Y07829D03*
X22151Y07329D03*
X22151Y07829D03*
X22651Y07329D03*
X22651Y07829D03*
G54D44*
X17813Y05807D03*
G54D45*
X17813Y05059D03*
G54D43*
X24140Y01870D03*
X27282Y01870D03*
G54D46*
X23030Y02027D03*
X29132Y02027D03*
G54D47*
X23030Y05807D03*
G54D48*
X28778Y05807D03*
G54D49*
X26947Y06004D03*
X26514Y06004D03*
X26081Y06004D03*
X25648Y06004D03*
X25215Y06004D03*
X24782Y06004D03*
X24349Y06004D03*
X23916Y06004D03*
X23483Y06004D03*
G54D34*
X32911Y11024D03*
X32911Y11654D03*
X30864Y11024D03*
X30864Y11654D03*
G54D33*
X18187Y19193D03*
X18817Y19193D03*
G54D34*
X27655Y10256D03*
X27655Y09626D03*
G54D33*
X26258Y08071D03*
X26888Y08071D03*
G54D34*
X20766Y13406D03*
X20766Y12776D03*
G54D10*
G36*
X25554Y21813D02*
X24995Y22372D01*
X25214Y22591D01*
X25773Y22032D01*
X25554Y21813D01*
X25554Y21813D01*
G37*
G36*
X25414Y21674D02*
X24855Y22233D01*
X25074Y22452D01*
X25633Y21893D01*
X25414Y21674D01*
X25414Y21674D01*
G37*
G36*
X25275Y21535D02*
X24716Y22094D01*
X24935Y22313D01*
X25494Y21754D01*
X25275Y21535D01*
X25275Y21535D01*
G37*
G36*
X25136Y21395D02*
X24577Y21954D01*
X24796Y22173D01*
X25355Y21614D01*
X25136Y21395D01*
X25136Y21395D01*
G37*
G36*
X24997Y21256D02*
X24438Y21815D01*
X24657Y22034D01*
X25216Y21475D01*
X24997Y21256D01*
X24997Y21256D01*
G37*
G36*
X24858Y21117D02*
X24299Y21676D01*
X24518Y21895D01*
X25077Y21336D01*
X24858Y21117D01*
X24858Y21117D01*
G37*
G36*
X24719Y20978D02*
X24160Y21537D01*
X24379Y21756D01*
X24938Y21197D01*
X24719Y20978D01*
X24719Y20978D01*
G37*
G36*
X24579Y20839D02*
X24020Y21398D01*
X24239Y21617D01*
X24798Y21058D01*
X24579Y20839D01*
X24579Y20839D01*
G37*
G36*
X24440Y20699D02*
X23881Y21258D01*
X24100Y21477D01*
X24659Y20918D01*
X24440Y20699D01*
X24440Y20699D01*
G37*
G36*
X24301Y20560D02*
X23742Y21119D01*
X23961Y21338D01*
X24520Y20779D01*
X24301Y20560D01*
X24301Y20560D01*
G37*
G36*
X24161Y20421D02*
X23602Y20980D01*
X23821Y21199D01*
X24380Y20640D01*
X24161Y20421D01*
X24161Y20421D01*
G37*
G36*
X24023Y20282D02*
X23464Y20841D01*
X23683Y21060D01*
X24242Y20501D01*
X24023Y20282D01*
X24023Y20282D01*
G37*
G36*
X23884Y20143D02*
X23325Y20702D01*
X23544Y20921D01*
X24103Y20362D01*
X23884Y20143D01*
X23884Y20143D01*
G37*
G36*
X23744Y20004D02*
X23185Y20563D01*
X23404Y20782D01*
X23963Y20223D01*
X23744Y20004D01*
X23744Y20004D01*
G37*
G36*
X23605Y19864D02*
X23046Y20423D01*
X23265Y20642D01*
X23824Y20083D01*
X23605Y19864D01*
X23605Y19864D01*
G37*
G36*
X23466Y19725D02*
X22907Y20284D01*
X23126Y20503D01*
X23685Y19944D01*
X23466Y19725D01*
X23466Y19725D01*
G37*
G36*
X23326Y19586D02*
X22767Y20145D01*
X22986Y20364D01*
X23545Y19805D01*
X23326Y19586D01*
X23326Y19586D01*
G37*
G36*
X23187Y19446D02*
X22628Y20005D01*
X22847Y20224D01*
X23406Y19665D01*
X23187Y19446D01*
X23187Y19446D01*
G37*
G36*
X23049Y19308D02*
X22490Y19867D01*
X22709Y20086D01*
X23268Y19527D01*
X23049Y19308D01*
X23049Y19308D01*
G37*
G36*
X22909Y19169D02*
X22350Y19728D01*
X22569Y19947D01*
X23128Y19388D01*
X22909Y19169D01*
X22909Y19169D01*
G37*
G36*
X22770Y19029D02*
X22211Y19588D01*
X22430Y19807D01*
X22989Y19248D01*
X22770Y19029D01*
X22770Y19029D01*
G37*
G36*
X22631Y18890D02*
X22072Y19449D01*
X22291Y19668D01*
X22850Y19109D01*
X22631Y18890D01*
X22631Y18890D01*
G37*
G36*
X22491Y18751D02*
X21932Y19310D01*
X22151Y19529D01*
X22710Y18970D01*
X22491Y18751D01*
X22491Y18751D01*
G37*
G36*
X22352Y18611D02*
X21793Y19170D01*
X22012Y19389D01*
X22571Y18830D01*
X22352Y18611D01*
X22352Y18611D01*
G37*
G36*
X22213Y18472D02*
X21654Y19031D01*
X21873Y19250D01*
X22432Y18691D01*
X22213Y18472D01*
X22213Y18472D01*
G37*
G36*
X22074Y18334D02*
X21515Y18893D01*
X21734Y19112D01*
X22293Y18553D01*
X22074Y18334D01*
X22074Y18334D01*
G37*
G36*
X21935Y18194D02*
X21376Y18753D01*
X21595Y18972D01*
X22154Y18413D01*
X21935Y18194D01*
X21935Y18194D01*
G37*
G36*
X21796Y18055D02*
X21237Y18614D01*
X21456Y18833D01*
X22015Y18274D01*
X21796Y18055D01*
X21796Y18055D01*
G37*
G36*
X21656Y17916D02*
X21097Y18475D01*
X21316Y18694D01*
X21875Y18135D01*
X21656Y17916D01*
X21656Y17916D01*
G37*
G36*
X21517Y17776D02*
X20958Y18335D01*
X21177Y18554D01*
X21736Y17995D01*
X21517Y17776D01*
X21517Y17776D01*
G37*
G36*
X21378Y17637D02*
X20819Y18196D01*
X21038Y18415D01*
X21597Y17856D01*
X21378Y17637D01*
X21378Y17637D01*
G37*
G36*
X21239Y17498D02*
X20680Y18057D01*
X20899Y18276D01*
X21458Y17717D01*
X21239Y17498D01*
X21239Y17498D01*
G37*
G36*
X21100Y17359D02*
X20541Y17918D01*
X20760Y18137D01*
X21319Y17578D01*
X21100Y17359D01*
X21100Y17359D01*
G37*
G36*
X20960Y17220D02*
X20401Y17779D01*
X20620Y17998D01*
X21179Y17439D01*
X20960Y17220D01*
X20960Y17220D01*
G37*
G36*
X20821Y17081D02*
X20262Y17640D01*
X20481Y17859D01*
X21040Y17300D01*
X20821Y17081D01*
X20821Y17081D01*
G37*
G36*
X20682Y16941D02*
X20123Y17500D01*
X20342Y17719D01*
X20901Y17160D01*
X20682Y16941D01*
X20682Y16941D01*
G37*
G36*
X26750Y10873D02*
X26191Y11432D01*
X26410Y11651D01*
X26969Y11092D01*
X26750Y10873D01*
X26750Y10873D01*
G37*
G36*
X26890Y11012D02*
X26331Y11571D01*
X26550Y11790D01*
X27109Y11231D01*
X26890Y11012D01*
X26890Y11012D01*
G37*
G36*
X27029Y11151D02*
X26470Y11710D01*
X26689Y11929D01*
X27248Y11370D01*
X27029Y11151D01*
X27029Y11151D01*
G37*
G36*
X27168Y11291D02*
X26609Y11850D01*
X26828Y12069D01*
X27387Y11510D01*
X27168Y11291D01*
X27168Y11291D01*
G37*
G36*
X27307Y11430D02*
X26748Y11989D01*
X26967Y12208D01*
X27526Y11649D01*
X27307Y11430D01*
X27307Y11430D01*
G37*
G36*
X27446Y11569D02*
X26887Y12128D01*
X27106Y12347D01*
X27665Y11788D01*
X27446Y11569D01*
X27446Y11569D01*
G37*
G36*
X27585Y11708D02*
X27026Y12267D01*
X27245Y12486D01*
X27804Y11927D01*
X27585Y11708D01*
X27585Y11708D01*
G37*
G36*
X27725Y11847D02*
X27166Y12406D01*
X27385Y12625D01*
X27944Y12066D01*
X27725Y11847D01*
X27725Y11847D01*
G37*
G36*
X27864Y11987D02*
X27305Y12546D01*
X27524Y12765D01*
X28083Y12206D01*
X27864Y11987D01*
X27864Y11987D01*
G37*
G36*
X28003Y12126D02*
X27444Y12685D01*
X27663Y12904D01*
X28222Y12345D01*
X28003Y12126D01*
X28003Y12126D01*
G37*
G36*
X28143Y12265D02*
X27584Y12824D01*
X27803Y13043D01*
X28362Y12484D01*
X28143Y12265D01*
X28143Y12265D01*
G37*
G36*
X28281Y12404D02*
X27722Y12963D01*
X27941Y13182D01*
X28500Y12623D01*
X28281Y12404D01*
X28281Y12404D01*
G37*
G36*
X28420Y12543D02*
X27861Y13102D01*
X28080Y13321D01*
X28639Y12762D01*
X28420Y12543D01*
X28420Y12543D01*
G37*
G36*
X28560Y12682D02*
X28001Y13241D01*
X28220Y13460D01*
X28779Y12901D01*
X28560Y12682D01*
X28560Y12682D01*
G37*
G36*
X28699Y12822D02*
X28140Y13381D01*
X28359Y13600D01*
X28918Y13041D01*
X28699Y12822D01*
X28699Y12822D01*
G37*
G36*
X28838Y12961D02*
X28279Y13520D01*
X28498Y13739D01*
X29057Y13180D01*
X28838Y12961D01*
X28838Y12961D01*
G37*
G36*
X28978Y13100D02*
X28419Y13659D01*
X28638Y13878D01*
X29197Y13319D01*
X28978Y13100D01*
X28978Y13100D01*
G37*
G36*
X29117Y13240D02*
X28558Y13799D01*
X28777Y14018D01*
X29336Y13459D01*
X29117Y13240D01*
X29117Y13240D01*
G37*
G36*
X29255Y13378D02*
X28696Y13937D01*
X28915Y14156D01*
X29474Y13597D01*
X29255Y13378D01*
X29255Y13378D01*
G37*
G36*
X29395Y13517D02*
X28836Y14076D01*
X29055Y14295D01*
X29614Y13736D01*
X29395Y13517D01*
X29395Y13517D01*
G37*
G36*
X29534Y13657D02*
X28975Y14216D01*
X29194Y14435D01*
X29753Y13876D01*
X29534Y13657D01*
X29534Y13657D01*
G37*
G36*
X29673Y13796D02*
X29114Y14355D01*
X29333Y14574D01*
X29892Y14015D01*
X29673Y13796D01*
X29673Y13796D01*
G37*
G36*
X29813Y13935D02*
X29254Y14494D01*
X29473Y14713D01*
X30032Y14154D01*
X29813Y13935D01*
X29813Y13935D01*
G37*
G36*
X29952Y14075D02*
X29393Y14634D01*
X29612Y14853D01*
X30171Y14294D01*
X29952Y14075D01*
X29952Y14075D01*
G37*
G36*
X30091Y14214D02*
X29532Y14773D01*
X29751Y14992D01*
X30310Y14433D01*
X30091Y14214D01*
X30091Y14214D01*
G37*
G36*
X30230Y14352D02*
X29671Y14911D01*
X29890Y15130D01*
X30449Y14571D01*
X30230Y14352D01*
X30230Y14352D01*
G37*
G36*
X30369Y14492D02*
X29810Y15051D01*
X30029Y15270D01*
X30588Y14711D01*
X30369Y14492D01*
X30369Y14492D01*
G37*
G36*
X30508Y14631D02*
X29949Y15190D01*
X30168Y15409D01*
X30727Y14850D01*
X30508Y14631D01*
X30508Y14631D01*
G37*
G36*
X30648Y14770D02*
X30089Y15329D01*
X30308Y15548D01*
X30867Y14989D01*
X30648Y14770D01*
X30648Y14770D01*
G37*
G36*
X30787Y14910D02*
X30228Y15469D01*
X30447Y15688D01*
X31006Y15129D01*
X30787Y14910D01*
X30787Y14910D01*
G37*
G36*
X30926Y15049D02*
X30367Y15608D01*
X30586Y15827D01*
X31145Y15268D01*
X30926Y15049D01*
X30926Y15049D01*
G37*
G36*
X31065Y15188D02*
X30506Y15747D01*
X30725Y15966D01*
X31284Y15407D01*
X31065Y15188D01*
X31065Y15188D01*
G37*
G36*
X31204Y15327D02*
X30645Y15886D01*
X30864Y16105D01*
X31423Y15546D01*
X31204Y15327D01*
X31204Y15327D01*
G37*
G36*
X31344Y15466D02*
X30785Y16025D01*
X31004Y16244D01*
X31563Y15685D01*
X31344Y15466D01*
X31344Y15466D01*
G37*
G36*
X31483Y15605D02*
X30924Y16164D01*
X31143Y16383D01*
X31702Y15824D01*
X31483Y15605D01*
X31483Y15605D01*
G37*
G36*
X31622Y15745D02*
X31063Y16304D01*
X31282Y16523D01*
X31841Y15964D01*
X31622Y15745D01*
X31622Y15745D01*
G37*
G36*
X20342Y15745D02*
X20123Y15964D01*
X20682Y16523D01*
X20901Y16304D01*
X20342Y15745D01*
X20342Y15745D01*
G37*
G36*
X20481Y15605D02*
X20262Y15824D01*
X20821Y16383D01*
X21040Y16164D01*
X20481Y15605D01*
X20481Y15605D01*
G37*
G36*
X20620Y15466D02*
X20401Y15685D01*
X20960Y16244D01*
X21179Y16025D01*
X20620Y15466D01*
X20620Y15466D01*
G37*
G36*
X20760Y15327D02*
X20541Y15546D01*
X21100Y16105D01*
X21319Y15886D01*
X20760Y15327D01*
X20760Y15327D01*
G37*
G36*
X20899Y15188D02*
X20680Y15407D01*
X21239Y15966D01*
X21458Y15747D01*
X20899Y15188D01*
X20899Y15188D01*
G37*
G36*
X21038Y15049D02*
X20819Y15268D01*
X21378Y15827D01*
X21597Y15608D01*
X21038Y15049D01*
X21038Y15049D01*
G37*
G36*
X21177Y14910D02*
X20958Y15129D01*
X21517Y15688D01*
X21736Y15469D01*
X21177Y14910D01*
X21177Y14910D01*
G37*
G36*
X21316Y14770D02*
X21097Y14989D01*
X21656Y15548D01*
X21875Y15329D01*
X21316Y14770D01*
X21316Y14770D01*
G37*
G36*
X21456Y14631D02*
X21237Y14850D01*
X21796Y15409D01*
X22015Y15190D01*
X21456Y14631D01*
X21456Y14631D01*
G37*
G36*
X21595Y14492D02*
X21376Y14711D01*
X21935Y15270D01*
X22154Y15051D01*
X21595Y14492D01*
X21595Y14492D01*
G37*
G36*
X21734Y14352D02*
X21515Y14571D01*
X22074Y15130D01*
X22293Y14911D01*
X21734Y14352D01*
X21734Y14352D01*
G37*
G36*
X21873Y14214D02*
X21654Y14433D01*
X22213Y14992D01*
X22432Y14773D01*
X21873Y14214D01*
X21873Y14214D01*
G37*
G36*
X22012Y14075D02*
X21793Y14294D01*
X22352Y14853D01*
X22571Y14634D01*
X22012Y14075D01*
X22012Y14075D01*
G37*
G36*
X22151Y13935D02*
X21932Y14154D01*
X22491Y14713D01*
X22710Y14494D01*
X22151Y13935D01*
X22151Y13935D01*
G37*
G36*
X22291Y13796D02*
X22072Y14015D01*
X22631Y14574D01*
X22850Y14355D01*
X22291Y13796D01*
X22291Y13796D01*
G37*
G36*
X22430Y13657D02*
X22211Y13876D01*
X22770Y14435D01*
X22989Y14216D01*
X22430Y13657D01*
X22430Y13657D01*
G37*
G36*
X22569Y13517D02*
X22350Y13736D01*
X22909Y14295D01*
X23128Y14076D01*
X22569Y13517D01*
X22569Y13517D01*
G37*
G36*
X22709Y13378D02*
X22490Y13597D01*
X23049Y14156D01*
X23268Y13937D01*
X22709Y13378D01*
X22709Y13378D01*
G37*
G36*
X22847Y13240D02*
X22628Y13459D01*
X23187Y14018D01*
X23406Y13799D01*
X22847Y13240D01*
X22847Y13240D01*
G37*
G36*
X22986Y13100D02*
X22767Y13319D01*
X23326Y13878D01*
X23545Y13659D01*
X22986Y13100D01*
X22986Y13100D01*
G37*
G36*
X23126Y12961D02*
X22907Y13180D01*
X23466Y13739D01*
X23685Y13520D01*
X23126Y12961D01*
X23126Y12961D01*
G37*
G36*
X23265Y12822D02*
X23046Y13041D01*
X23605Y13600D01*
X23824Y13381D01*
X23265Y12822D01*
X23265Y12822D01*
G37*
G36*
X23404Y12682D02*
X23185Y12901D01*
X23744Y13460D01*
X23963Y13241D01*
X23404Y12682D01*
X23404Y12682D01*
G37*
G36*
X23544Y12543D02*
X23325Y12762D01*
X23884Y13321D01*
X24103Y13102D01*
X23544Y12543D01*
X23544Y12543D01*
G37*
G36*
X23683Y12404D02*
X23464Y12623D01*
X24023Y13182D01*
X24242Y12963D01*
X23683Y12404D01*
X23683Y12404D01*
G37*
G36*
X23821Y12265D02*
X23602Y12484D01*
X24161Y13043D01*
X24380Y12824D01*
X23821Y12265D01*
X23821Y12265D01*
G37*
G36*
X23961Y12126D02*
X23742Y12345D01*
X24301Y12904D01*
X24520Y12685D01*
X23961Y12126D01*
X23961Y12126D01*
G37*
G36*
X24100Y11987D02*
X23881Y12206D01*
X24440Y12765D01*
X24659Y12546D01*
X24100Y11987D01*
X24100Y11987D01*
G37*
G36*
X24239Y11847D02*
X24020Y12066D01*
X24579Y12625D01*
X24798Y12406D01*
X24239Y11847D01*
X24239Y11847D01*
G37*
G36*
X24379Y11708D02*
X24160Y11927D01*
X24719Y12486D01*
X24938Y12267D01*
X24379Y11708D01*
X24379Y11708D01*
G37*
G36*
X24518Y11569D02*
X24299Y11788D01*
X24858Y12347D01*
X25077Y12128D01*
X24518Y11569D01*
X24518Y11569D01*
G37*
G36*
X24657Y11430D02*
X24438Y11649D01*
X24997Y12208D01*
X25216Y11989D01*
X24657Y11430D01*
X24657Y11430D01*
G37*
G36*
X24796Y11291D02*
X24577Y11510D01*
X25136Y12069D01*
X25355Y11850D01*
X24796Y11291D01*
X24796Y11291D01*
G37*
G36*
X24935Y11151D02*
X24716Y11370D01*
X25275Y11929D01*
X25494Y11710D01*
X24935Y11151D01*
X24935Y11151D01*
G37*
G36*
X25074Y11012D02*
X24855Y11231D01*
X25414Y11790D01*
X25633Y11571D01*
X25074Y11012D01*
X25074Y11012D01*
G37*
G36*
X25214Y10873D02*
X24995Y11092D01*
X25554Y11651D01*
X25773Y11432D01*
X25214Y10873D01*
X25214Y10873D01*
G37*
G36*
X31282Y16941D02*
X31063Y17160D01*
X31622Y17719D01*
X31841Y17500D01*
X31282Y16941D01*
X31282Y16941D01*
G37*
G36*
X31143Y17081D02*
X30924Y17300D01*
X31483Y17859D01*
X31702Y17640D01*
X31143Y17081D01*
X31143Y17081D01*
G37*
G36*
X31004Y17220D02*
X30785Y17439D01*
X31344Y17998D01*
X31563Y17779D01*
X31004Y17220D01*
X31004Y17220D01*
G37*
G36*
X30864Y17359D02*
X30645Y17578D01*
X31204Y18137D01*
X31423Y17918D01*
X30864Y17359D01*
X30864Y17359D01*
G37*
G36*
X30725Y17498D02*
X30506Y17717D01*
X31065Y18276D01*
X31284Y18057D01*
X30725Y17498D01*
X30725Y17498D01*
G37*
G36*
X30586Y17637D02*
X30367Y17856D01*
X30926Y18415D01*
X31145Y18196D01*
X30586Y17637D01*
X30586Y17637D01*
G37*
G36*
X30447Y17776D02*
X30228Y17995D01*
X30787Y18554D01*
X31006Y18335D01*
X30447Y17776D01*
X30447Y17776D01*
G37*
G36*
X30308Y17916D02*
X30089Y18135D01*
X30648Y18694D01*
X30867Y18475D01*
X30308Y17916D01*
X30308Y17916D01*
G37*
G36*
X30168Y18055D02*
X29949Y18274D01*
X30508Y18833D01*
X30727Y18614D01*
X30168Y18055D01*
X30168Y18055D01*
G37*
G36*
X30029Y18194D02*
X29810Y18413D01*
X30369Y18972D01*
X30588Y18753D01*
X30029Y18194D01*
X30029Y18194D01*
G37*
G36*
X29890Y18334D02*
X29671Y18553D01*
X30230Y19112D01*
X30449Y18893D01*
X29890Y18334D01*
X29890Y18334D01*
G37*
G36*
X29751Y18472D02*
X29532Y18691D01*
X30091Y19250D01*
X30310Y19031D01*
X29751Y18472D01*
X29751Y18472D01*
G37*
G36*
X29612Y18611D02*
X29393Y18830D01*
X29952Y19389D01*
X30171Y19170D01*
X29612Y18611D01*
X29612Y18611D01*
G37*
G36*
X29473Y18751D02*
X29254Y18970D01*
X29813Y19529D01*
X30032Y19310D01*
X29473Y18751D01*
X29473Y18751D01*
G37*
G36*
X29333Y18890D02*
X29114Y19109D01*
X29673Y19668D01*
X29892Y19449D01*
X29333Y18890D01*
X29333Y18890D01*
G37*
G36*
X29194Y19029D02*
X28975Y19248D01*
X29534Y19807D01*
X29753Y19588D01*
X29194Y19029D01*
X29194Y19029D01*
G37*
G36*
X29055Y19169D02*
X28836Y19388D01*
X29395Y19947D01*
X29614Y19728D01*
X29055Y19169D01*
X29055Y19169D01*
G37*
G36*
X28915Y19308D02*
X28696Y19527D01*
X29255Y20086D01*
X29474Y19867D01*
X28915Y19308D01*
X28915Y19308D01*
G37*
G36*
X28777Y19446D02*
X28558Y19665D01*
X29117Y20224D01*
X29336Y20005D01*
X28777Y19446D01*
X28777Y19446D01*
G37*
G36*
X28638Y19586D02*
X28419Y19805D01*
X28978Y20364D01*
X29197Y20145D01*
X28638Y19586D01*
X28638Y19586D01*
G37*
G36*
X28498Y19725D02*
X28279Y19944D01*
X28838Y20503D01*
X29057Y20284D01*
X28498Y19725D01*
X28498Y19725D01*
G37*
G36*
X28359Y19864D02*
X28140Y20083D01*
X28699Y20642D01*
X28918Y20423D01*
X28359Y19864D01*
X28359Y19864D01*
G37*
G36*
X28220Y20004D02*
X28001Y20223D01*
X28560Y20782D01*
X28779Y20563D01*
X28220Y20004D01*
X28220Y20004D01*
G37*
G36*
X28080Y20143D02*
X27861Y20362D01*
X28420Y20921D01*
X28639Y20702D01*
X28080Y20143D01*
X28080Y20143D01*
G37*
G36*
X27941Y20282D02*
X27722Y20501D01*
X28281Y21060D01*
X28500Y20841D01*
X27941Y20282D01*
X27941Y20282D01*
G37*
G36*
X27803Y20421D02*
X27584Y20640D01*
X28143Y21199D01*
X28362Y20980D01*
X27803Y20421D01*
X27803Y20421D01*
G37*
G36*
X27663Y20560D02*
X27444Y20779D01*
X28003Y21338D01*
X28222Y21119D01*
X27663Y20560D01*
X27663Y20560D01*
G37*
G36*
X27524Y20699D02*
X27305Y20918D01*
X27864Y21477D01*
X28083Y21258D01*
X27524Y20699D01*
X27524Y20699D01*
G37*
G36*
X27385Y20839D02*
X27166Y21058D01*
X27725Y21617D01*
X27944Y21398D01*
X27385Y20839D01*
X27385Y20839D01*
G37*
G36*
X27245Y20978D02*
X27026Y21197D01*
X27585Y21756D01*
X27804Y21537D01*
X27245Y20978D01*
X27245Y20978D01*
G37*
G36*
X27106Y21117D02*
X26887Y21336D01*
X27446Y21895D01*
X27665Y21676D01*
X27106Y21117D01*
X27106Y21117D01*
G37*
G36*
X26967Y21256D02*
X26748Y21475D01*
X27307Y22034D01*
X27526Y21815D01*
X26967Y21256D01*
X26967Y21256D01*
G37*
G36*
X26828Y21395D02*
X26609Y21614D01*
X27168Y22173D01*
X27387Y21954D01*
X26828Y21395D01*
X26828Y21395D01*
G37*
G36*
X26689Y21535D02*
X26470Y21754D01*
X27029Y22313D01*
X27248Y22094D01*
X26689Y21535D01*
X26689Y21535D01*
G37*
G36*
X26550Y21674D02*
X26331Y21893D01*
X26890Y22452D01*
X27109Y22233D01*
X26550Y21674D01*
X26550Y21674D01*
G37*
G36*
X26410Y21813D02*
X26191Y22032D01*
X26750Y22591D01*
X26969Y22372D01*
X26410Y21813D01*
X26410Y21813D01*
G37*
G54D37*
X21356Y11771D03*
X21356Y11063D03*
X19585Y19036D03*
X19585Y19744D03*
G54D36*
X26219Y08760D03*
X26927Y08760D03*
G54D37*
X19978Y13445D03*
X19978Y12737D03*
X30116Y11634D03*
X30116Y10926D03*
X32222Y11614D03*
X32222Y10906D03*
G54D33*
X31868Y14567D03*
X32498Y14567D03*
X18030Y04232D03*
X17400Y04232D03*
G54D34*
X19585Y17795D03*
X19585Y18425D03*
X19585Y17146D03*
X19585Y16516D03*
X23620Y11732D03*
X23620Y11102D03*
G54D33*
X32163Y15157D03*
X32793Y15157D03*
G54D34*
X29821Y20453D03*
X29821Y21083D03*
X30411Y20453D03*
X30411Y21083D03*
X21455Y13406D03*
X21455Y12776D03*
X23029Y11732D03*
X23029Y11102D03*
X22045Y13406D03*
X22045Y12776D03*
X20372Y18878D03*
X20372Y19508D03*
X23029Y22126D03*
X23029Y22756D03*
G54D33*
X18620Y15059D03*
X17990Y15059D03*
G54D34*
X27065Y10256D03*
X27065Y09626D03*
X23029Y09370D03*
X23029Y08740D03*
X25884Y10256D03*
X25884Y09626D03*
X23718Y22126D03*
X23718Y22756D03*
G54D33*
X20588Y14173D03*
X19958Y14173D03*
G54D34*
X26474Y09626D03*
X26474Y10256D03*
G54D37*
X22242Y11771D03*
X22242Y11063D03*
G54D33*
X20550Y32480D03*
X21180Y32480D03*
G54D21*
X38474Y43299D03*
G54D22*
X39474Y43299D03*
X38474Y38299D03*
X39474Y42299D03*
X38474Y37299D03*
X39474Y41299D03*
X38474Y36299D03*
X39474Y40299D03*
X38474Y35299D03*
X39474Y39299D03*
X38474Y34299D03*
X39474Y38299D03*
X38474Y33299D03*
X39474Y37299D03*
X38474Y32299D03*
X39474Y36299D03*
X38474Y31299D03*
X39474Y35299D03*
X38474Y30299D03*
X39474Y34299D03*
X38474Y29299D03*
X39474Y33299D03*
X38474Y28299D03*
X39474Y32299D03*
X39474Y31299D03*
X38474Y27299D03*
X39474Y30299D03*
X39474Y28299D03*
X39474Y27299D03*
X39474Y26299D03*
X39474Y25299D03*
X38474Y26299D03*
X38474Y25299D03*
X38474Y42299D03*
X38474Y41299D03*
X38474Y40299D03*
X38474Y39299D03*
X38474Y24299D03*
X39474Y24299D03*
X39474Y29299D03*
X38474Y23299D03*
X39474Y23299D03*
X38474Y22299D03*
X39474Y22299D03*
X38474Y21299D03*
X39474Y21299D03*
X38474Y20299D03*
X39474Y20299D03*
X38474Y19299D03*
X39474Y19299D03*
G54D50*
X21866Y04073D03*
X21866Y04573D03*
X21866Y05073D03*
X21866Y05573D03*
X19666Y05573D03*
X19666Y05073D03*
X19666Y04573D03*
X19666Y04073D03*
G54D33*
X21238Y03346D03*
X21868Y03346D03*
X19762Y06299D03*
X20392Y06299D03*
G54D34*
X19781Y36535D03*
X19781Y35905D03*
X20155Y41319D03*
X20155Y40689D03*
X19348Y41319D03*
X19348Y40689D03*
G54D51*
X35826Y13820D03*
X36023Y13820D03*
X36220Y13820D03*
X36417Y13820D03*
X36613Y13820D03*
X36810Y13820D03*
X37007Y13820D03*
X37204Y13820D03*
G54D52*
X37460Y14862D03*
X37460Y15058D03*
X37460Y15255D03*
X37460Y15452D03*
G54D53*
X36514Y14764D03*
G54D52*
X37460Y14075D03*
X37460Y14272D03*
X37460Y14469D03*
X37460Y14665D03*
G54D51*
X37202Y15708D03*
X37005Y15709D03*
X36809Y15709D03*
X36612Y15709D03*
X36415Y15709D03*
X36218Y15709D03*
X36021Y15709D03*
X35824Y15709D03*
G54D52*
X35569Y15453D03*
X35569Y15256D03*
X35569Y15059D03*
X35569Y14863D03*
X35569Y14666D03*
X35569Y14469D03*
X35569Y14272D03*
X35569Y14075D03*
G54D33*
X03907Y29870D03*
X03277Y29870D03*
G54D54*
X33896Y41988D03*
G54D55*
X33896Y42914D03*
G54D56*
X27230Y40228D03*
G54D57*
X28156Y40228D03*
G54D34*
X10234Y32362D03*
X10234Y32992D03*
X10431Y40138D03*
X10431Y40768D03*
X10333Y16319D03*
X10333Y16949D03*
X10431Y24291D03*
X10431Y24921D03*
G54D58*
X32098Y04528D03*
X36598Y04528D03*
G54D22*
X36098Y08028D03*
X35600Y07028D03*
X35098Y08028D03*
X34600Y07028D03*
X34098Y08028D03*
X33600Y07028D03*
X33098Y08028D03*
G54D59*
X31298Y05729D03*
X37398Y05728D03*
G54D22*
X35956Y02599D03*
X32740Y02599D03*
X36956Y02599D03*
X31740Y02599D03*
G54D21*
X32600Y07028D03*
G54D60*
X38699Y11811D03*
X38699Y10237D03*
X39643Y10237D03*
X39643Y11811D03*
X18777Y16634D03*
X18777Y18208D03*
X17833Y18208D03*
X17833Y16634D03*
G54D61*
X16730Y26181D03*
X16533Y42028D03*
X16730Y34252D03*
X15746Y17618D03*
G54D34*
X25293Y10256D03*
X25293Y09626D03*
X23817Y09370D03*
X23817Y08740D03*
G54D33*
X27242Y06890D03*
X27872Y06890D03*
G54D34*
X26474Y06870D03*
X26474Y07500D03*
G54D33*
X32458Y15846D03*
X33088Y15846D03*
G54D34*
X24112Y06870D03*
X24112Y07500D03*
G54D27*
X18643Y37415D03*
X19475Y37040D03*
X18643Y36665D03*
G54D21*
X32696Y41944D03*
G54D22*
X32696Y40944D03*
G54D21*
X20089Y34050D03*
G54D22*
X20089Y35050D03*
G54D62*
X38581Y03937D03*
X05116Y46457D03*
X21469Y26225D03*
G54D44*
X21079Y34830D03*
G54D45*
X21079Y35578D03*
G54D33*
X22596Y42441D03*
X21966Y42441D03*
G54D34*
X14565Y10709D03*
X14565Y11339D03*
X14604Y04055D03*
X14604Y04685D03*
G54D63*
X12177Y22918D03*
X12677Y22918D03*
X12179Y23706D03*
X12679Y23706D03*
X12181Y31716D03*
X12681Y31716D03*
X12173Y39532D03*
X12673Y39532D03*
X12151Y15652D03*
X12651Y15652D03*
X12151Y14856D03*
X12651Y14856D03*
X12187Y30934D03*
X12687Y30934D03*
X12173Y38732D03*
X12673Y38732D03*
G54D22*
X32638Y13104D03*
X21148Y41630D03*
G54D34*
X38187Y06732D03*
X38187Y07362D03*
X21966Y01378D03*
X21966Y02008D03*
X31514Y11024D03*
X31514Y11654D03*
X29407Y11024D03*
X29407Y11654D03*
G54D21*
X22280Y40558D03*
G54D22*
X23280Y40558D03*
G54D34*
X20155Y41909D03*
X20155Y42524D03*
X19329Y41909D03*
X19329Y42524D03*
X18522Y41909D03*
X18522Y42524D03*
G54D32*
X22695Y47422D03*
X22695Y45256D03*
X14329Y08898D03*
X14329Y06732D03*
G54D33*
X04925Y34663D03*
X05555Y34663D03*
X04915Y42567D03*
X05545Y42567D03*
X03277Y39173D03*
X03907Y39173D03*
X03907Y37929D03*
X03277Y37929D03*
X03278Y34654D03*
X03908Y34654D03*
G54D34*
X21455Y43976D03*
X21455Y44606D03*
G54D33*
X03277Y31433D03*
X03907Y31433D03*
X03907Y22094D03*
X03277Y22094D03*
X03411Y18705D03*
X04041Y18705D03*
X04915Y18720D03*
X05545Y18720D03*
X03277Y15327D03*
X03907Y15327D03*
X03277Y42567D03*
X03907Y42567D03*
G54D34*
X30273Y12618D03*
X30273Y13248D03*
X29045Y31890D03*
X29045Y31260D03*
X11333Y12480D03*
X11333Y11850D03*
G54D37*
X31880Y40042D03*
X31880Y39334D03*
G54D33*
X03277Y26681D03*
X03907Y26681D03*
X04915Y26681D03*
X05545Y26681D03*
X03277Y23346D03*
X03907Y23346D03*
X01645Y45100D03*
X01015Y45100D03*
G54D34*
X18522Y41319D03*
X18522Y40689D03*
X29644Y13248D03*
X29644Y12618D03*
G54D12*
X30205Y45236D03*
G54D13*
X32705Y45236D03*
G54D64*
X06183Y21017D03*
X06183Y19765D03*
X03861Y21017D03*
X03861Y19765D03*
X06190Y17633D03*
X06190Y16381D03*
X03868Y17633D03*
X03868Y16381D03*
X06183Y33576D03*
X06183Y32324D03*
X03861Y33576D03*
X03861Y32324D03*
X06183Y36962D03*
X06183Y35710D03*
X03861Y36962D03*
X03861Y35710D03*
X06183Y41452D03*
X06183Y40200D03*
X03861Y41452D03*
X03861Y40200D03*
X06183Y44838D03*
X06183Y43586D03*
X03861Y44838D03*
X03861Y43586D03*
X06183Y25603D03*
X06183Y24351D03*
X03861Y25603D03*
X03861Y24351D03*
X06183Y28989D03*
X06183Y27737D03*
X03861Y28989D03*
X03861Y27737D03*
G54D21*
X04888Y01328D03*
G54D22*
X05888Y01328D03*
X06888Y01328D03*
X07888Y01328D03*
G54D21*
X01248Y12617D03*
G54D22*
X01248Y11617D03*
X01256Y10617D03*
X01248Y09617D03*
X01248Y08617D03*
X01248Y07617D03*
X01248Y06617D03*
X01248Y05617D03*
X01248Y04617D03*
X01248Y03617D03*
G54D11*
X38974Y46850D03*
X38974Y01575D03*
X02754Y46850D03*
M02*
