G04 (created by PCBNEW-RS274X (2012-01-19 BZR 3256)-stable) date 19/07/2014 16:24:45*
G01*
G70*
G90*
%MOIN*%
G04 Gerber Fmt 3.4, Leading zero omitted, Abs format*
%FSLAX34Y34*%
G04 APERTURE LIST*
%ADD10C,0.006000*%
%ADD11R,0.114200X0.074800*%
%ADD12R,0.015700X0.053100*%
%ADD13R,0.063000X0.118100*%
%ADD14R,0.228300X0.244100*%
%ADD15R,0.057900X0.016500*%
%ADD16R,0.118100X0.170100*%
%ADD17R,0.039400X0.126000*%
%ADD18R,0.126000X0.039400*%
%ADD19R,0.039400X0.023600*%
%ADD20R,0.023600X0.039400*%
%ADD21R,0.080000X0.144000*%
%ADD22R,0.080000X0.040000*%
%ADD23R,0.141700X0.063000*%
%ADD24R,0.063000X0.141700*%
%ADD25R,0.037400X0.039400*%
%ADD26R,0.039400X0.037400*%
%ADD27R,0.045300X0.070900*%
%ADD28R,0.045300X0.057100*%
%ADD29R,0.057100X0.045300*%
%ADD30R,0.090600X0.051200*%
%ADD31R,0.255900X0.232300*%
%ADD32R,0.114200X0.059100*%
%ADD33R,0.059100X0.114200*%
%ADD34R,0.043300X0.078700*%
%ADD35R,0.043300X0.031500*%
%ADD36R,0.047200X0.086600*%
%ADD37R,0.047200X0.055100*%
%ADD38R,0.063000X0.055100*%
%ADD39R,0.027600X0.063000*%
%ADD40R,0.050000X0.025000*%
%ADD41R,0.009800X0.023600*%
%ADD42R,0.023600X0.009800*%
%ADD43R,0.129900X0.129900*%
%ADD44R,0.100000X0.105100*%
%ADD45R,0.050000X0.030000*%
%ADD46R,0.105100X0.100000*%
%ADD47R,0.030000X0.050000*%
%ADD48R,0.047200X0.070900*%
%ADD49R,0.153500X0.059800*%
G04 APERTURE END LIST*
G54D10*
G54D11*
X19781Y00787D03*
G54D12*
X19781Y01840D03*
X19525Y01840D03*
X19269Y01840D03*
X20037Y01840D03*
X20293Y01840D03*
G54D13*
X30890Y40115D03*
G54D14*
X29990Y37288D03*
G54D13*
X29090Y40115D03*
G54D15*
X13303Y34515D03*
X13303Y34771D03*
X13303Y35027D03*
X13303Y35283D03*
X11101Y33751D03*
X13303Y33747D03*
X13303Y34003D03*
X13303Y34259D03*
X11099Y35539D03*
X11099Y35283D03*
X11099Y35027D03*
X11099Y34771D03*
X11099Y34515D03*
X11099Y34259D03*
X13303Y35539D03*
X11101Y34003D03*
X13303Y33491D03*
X13303Y35795D03*
X11099Y35795D03*
X11099Y33491D03*
X13303Y33236D03*
X13303Y36050D03*
X11099Y36050D03*
X11099Y33236D03*
G54D16*
X12201Y34643D03*
G54D15*
X13302Y26542D03*
X13302Y26798D03*
X13302Y27054D03*
X13302Y27310D03*
X11100Y25778D03*
X13302Y25774D03*
X13302Y26030D03*
X13302Y26286D03*
X11098Y27566D03*
X11098Y27310D03*
X11098Y27054D03*
X11098Y26798D03*
X11098Y26542D03*
X11098Y26286D03*
X13302Y27566D03*
X11100Y26030D03*
X13302Y25518D03*
X13302Y27822D03*
X11098Y27822D03*
X11098Y25518D03*
X13302Y25263D03*
X13302Y28077D03*
X11098Y28077D03*
X11098Y25263D03*
G54D16*
X12200Y26670D03*
G54D15*
X13302Y18571D03*
X13302Y18827D03*
X13302Y19083D03*
X13302Y19339D03*
X11100Y17807D03*
X13302Y17803D03*
X13302Y18059D03*
X13302Y18315D03*
X11098Y19595D03*
X11098Y19339D03*
X11098Y19083D03*
X11098Y18827D03*
X11098Y18571D03*
X11098Y18315D03*
X13302Y19595D03*
X11100Y18059D03*
X13302Y17547D03*
X13302Y19851D03*
X11098Y19851D03*
X11098Y17547D03*
X13302Y17292D03*
X13302Y20106D03*
X11098Y20106D03*
X11098Y17292D03*
G54D16*
X12200Y18699D03*
G54D15*
X13304Y42391D03*
X13304Y42647D03*
X13304Y42903D03*
X13304Y43159D03*
X11102Y41627D03*
X13304Y41623D03*
X13304Y41879D03*
X13304Y42135D03*
X11100Y43415D03*
X11100Y43159D03*
X11100Y42903D03*
X11100Y42647D03*
X11100Y42391D03*
X11100Y42135D03*
X13304Y43415D03*
X11102Y41879D03*
X13304Y41367D03*
X13304Y43671D03*
X11100Y43671D03*
X11100Y41367D03*
X13304Y41112D03*
X13304Y43926D03*
X11100Y43926D03*
X11100Y41112D03*
G54D16*
X12202Y42519D03*
G54D15*
X19762Y30837D03*
X19762Y30581D03*
X19762Y30325D03*
X19762Y30069D03*
X21964Y31601D03*
X19762Y31605D03*
X19762Y31349D03*
X19762Y31093D03*
X21966Y29813D03*
X21966Y30069D03*
X21966Y30325D03*
X21966Y30581D03*
X21966Y30837D03*
X21966Y31093D03*
X19762Y29813D03*
X21964Y31349D03*
X19762Y31861D03*
X19762Y29557D03*
X21966Y29557D03*
X21966Y31861D03*
G54D17*
X30509Y07027D03*
X30509Y09705D03*
X28935Y09705D03*
X28935Y07027D03*
G54D18*
X13816Y00591D03*
X16494Y00591D03*
X16494Y02165D03*
X13816Y02165D03*
G54D19*
X13800Y04645D03*
X12968Y05020D03*
X13800Y05395D03*
X13800Y10649D03*
X12968Y11024D03*
X13800Y11399D03*
G54D20*
X23383Y42478D03*
X23758Y43310D03*
X24133Y42478D03*
G54D21*
X25509Y31106D03*
G54D22*
X28109Y31106D03*
X28109Y32006D03*
X28109Y30206D03*
G54D23*
X09577Y45748D03*
X07411Y45748D03*
X09546Y21654D03*
X07380Y21654D03*
X09546Y37598D03*
X07380Y37598D03*
X09546Y29626D03*
X07380Y29626D03*
G54D24*
X35029Y40855D03*
X35029Y38689D03*
G54D25*
X35411Y18307D03*
X36041Y18307D03*
X39288Y16142D03*
X38658Y16142D03*
X39288Y15551D03*
X38658Y15551D03*
X35411Y17717D03*
X36041Y17717D03*
X35411Y17126D03*
X36041Y17126D03*
X39288Y14370D03*
X38658Y14370D03*
X39288Y14961D03*
X38658Y14961D03*
X33934Y14469D03*
X34564Y14469D03*
X33934Y15059D03*
X34564Y15059D03*
X38658Y13189D03*
X39288Y13189D03*
G54D26*
X22045Y43445D03*
X22045Y44075D03*
X22990Y43445D03*
X22990Y44075D03*
X12202Y09921D03*
X12202Y10551D03*
X18896Y29803D03*
X18896Y30433D03*
X20372Y09370D03*
X20372Y08740D03*
G54D25*
X20096Y23819D03*
X19466Y23819D03*
G54D26*
X16731Y03524D03*
X16731Y04154D03*
G54D25*
X17990Y14173D03*
X18620Y14173D03*
X17990Y13386D03*
X18620Y13386D03*
X39289Y13780D03*
X38659Y13780D03*
X33934Y13878D03*
X34564Y13878D03*
G54D26*
X29722Y04154D03*
X29722Y03524D03*
X30411Y03524D03*
X30411Y04154D03*
G54D25*
X13601Y09942D03*
X12971Y09942D03*
X13640Y04016D03*
X13010Y04016D03*
G54D26*
X12222Y04154D03*
X12222Y03524D03*
X18896Y31713D03*
X18896Y31083D03*
G54D25*
X19703Y21555D03*
X19073Y21555D03*
G54D26*
X31159Y12441D03*
X31159Y13071D03*
G54D25*
X18423Y19980D03*
X17793Y19980D03*
X38856Y09449D03*
X39486Y09449D03*
X39289Y12598D03*
X38659Y12598D03*
X35313Y10138D03*
X35943Y10138D03*
X35313Y09449D03*
X35943Y09449D03*
X19703Y22146D03*
X19073Y22146D03*
X20096Y24409D03*
X19466Y24409D03*
G54D26*
X31789Y12441D03*
X31789Y13071D03*
G54D25*
X18423Y20571D03*
X17793Y20571D03*
G54D26*
X09447Y31575D03*
X09447Y32205D03*
G54D25*
X15470Y35433D03*
X14840Y35433D03*
X14841Y34839D03*
X15471Y34839D03*
X18620Y15650D03*
X17990Y15650D03*
X14840Y34252D03*
X15470Y34252D03*
G54D26*
X14762Y33382D03*
X14762Y32752D03*
G54D25*
X14840Y36024D03*
X15470Y36024D03*
G54D26*
X14073Y32752D03*
X14073Y33382D03*
X09447Y15630D03*
X09447Y16260D03*
G54D25*
X15470Y19390D03*
X14840Y19390D03*
X14839Y18796D03*
X15469Y18796D03*
G54D26*
X21159Y09370D03*
X21159Y08740D03*
G54D25*
X14840Y18209D03*
X15470Y18209D03*
G54D26*
X14760Y17438D03*
X14760Y16808D03*
G54D25*
X14840Y19980D03*
X15470Y19980D03*
G54D26*
X14071Y16808D03*
X14071Y17438D03*
X09348Y39449D03*
X09348Y40079D03*
G54D25*
X15470Y43209D03*
X14840Y43209D03*
X14842Y42617D03*
X15472Y42617D03*
X14840Y42028D03*
X15470Y42028D03*
G54D26*
X14763Y41258D03*
X14763Y40628D03*
G54D25*
X14840Y43799D03*
X15470Y43799D03*
G54D26*
X14074Y40628D03*
X14074Y41258D03*
X09447Y23898D03*
X09447Y24528D03*
G54D25*
X15470Y27362D03*
X14840Y27362D03*
X14840Y26768D03*
X15470Y26768D03*
X14840Y26181D03*
X15470Y26181D03*
G54D26*
X14761Y25410D03*
X14761Y24780D03*
G54D25*
X14840Y27953D03*
X15470Y27953D03*
G54D26*
X14072Y24780D03*
X14072Y25410D03*
X22144Y09370D03*
X22144Y08740D03*
G54D27*
X09250Y41437D03*
X08068Y41437D03*
G54D28*
X33895Y12402D03*
X34603Y12402D03*
X33895Y13189D03*
X34603Y13189D03*
G54D25*
X17400Y03445D03*
X18015Y03445D03*
G54D29*
X35431Y13052D03*
X35431Y12344D03*
G54D28*
X26435Y29248D03*
X27143Y29248D03*
G54D27*
X09250Y25591D03*
X08068Y25591D03*
X09250Y27756D03*
X08068Y27756D03*
X09250Y43602D03*
X08068Y43602D03*
X09250Y33563D03*
X08068Y33563D03*
X09250Y17618D03*
X08068Y17618D03*
X09250Y35728D03*
X08068Y35728D03*
X09250Y19783D03*
X08068Y19783D03*
G54D26*
X22932Y31279D03*
X22932Y31909D03*
G54D30*
X11063Y03431D03*
G54D31*
X08563Y04331D03*
G54D30*
X11063Y05231D03*
X11061Y09336D03*
G54D31*
X08561Y10236D03*
G54D30*
X11061Y11136D03*
X25018Y46609D03*
G54D31*
X27518Y45709D03*
G54D30*
X25018Y44809D03*
G54D25*
X08187Y08268D03*
X07557Y08268D03*
X10667Y02003D03*
X10037Y02003D03*
X24821Y43898D03*
X24191Y43898D03*
X10052Y02578D03*
X10667Y02578D03*
X09663Y08268D03*
X09048Y08268D03*
X26100Y43898D03*
X25485Y43898D03*
G54D26*
X22932Y30432D03*
X22932Y29802D03*
X36218Y12323D03*
X36218Y11693D03*
G54D32*
X37203Y12205D03*
X37203Y11023D03*
G54D33*
X37891Y17323D03*
X39073Y17323D03*
G54D28*
X34604Y11614D03*
X33896Y11614D03*
G54D25*
X10844Y31791D03*
X10214Y31791D03*
X10844Y39567D03*
X10214Y39567D03*
X10844Y15748D03*
X10214Y15748D03*
X10844Y23720D03*
X10214Y23720D03*
X10214Y31102D03*
X10829Y31102D03*
X10214Y38878D03*
X10829Y38878D03*
X10214Y15157D03*
X10829Y15157D03*
X10214Y23031D03*
X10829Y23031D03*
X14840Y28543D03*
X15470Y28543D03*
X14840Y44390D03*
X15470Y44390D03*
X14840Y36614D03*
X15470Y36614D03*
X14840Y20571D03*
X15470Y20571D03*
G54D28*
X25549Y06988D03*
X24841Y06988D03*
G54D34*
X17813Y05807D03*
G54D35*
X17813Y05059D03*
G54D36*
X23030Y02027D03*
X29132Y02027D03*
G54D37*
X23030Y05807D03*
G54D38*
X28778Y05807D03*
G54D39*
X26947Y06004D03*
X26514Y06004D03*
X26081Y06004D03*
X25648Y06004D03*
X25215Y06004D03*
X24782Y06004D03*
X24349Y06004D03*
X23916Y06004D03*
X23483Y06004D03*
G54D26*
X32911Y11024D03*
X32911Y11654D03*
X30864Y11024D03*
X30864Y11654D03*
G54D25*
X18187Y19193D03*
X18817Y19193D03*
G54D26*
X27655Y10256D03*
X27655Y09626D03*
G54D25*
X26258Y08071D03*
X26888Y08071D03*
G54D26*
X20766Y13406D03*
X20766Y12776D03*
G54D10*
G36*
X25554Y21955D02*
X25137Y22372D01*
X25214Y22449D01*
X25631Y22032D01*
X25554Y21955D01*
X25554Y21955D01*
G37*
G36*
X25414Y21816D02*
X24997Y22233D01*
X25074Y22310D01*
X25491Y21893D01*
X25414Y21816D01*
X25414Y21816D01*
G37*
G36*
X25275Y21677D02*
X24858Y22094D01*
X24935Y22171D01*
X25352Y21754D01*
X25275Y21677D01*
X25275Y21677D01*
G37*
G36*
X25136Y21537D02*
X24719Y21954D01*
X24796Y22031D01*
X25213Y21614D01*
X25136Y21537D01*
X25136Y21537D01*
G37*
G36*
X24997Y21398D02*
X24580Y21815D01*
X24657Y21892D01*
X25074Y21475D01*
X24997Y21398D01*
X24997Y21398D01*
G37*
G36*
X24858Y21259D02*
X24441Y21676D01*
X24518Y21753D01*
X24935Y21336D01*
X24858Y21259D01*
X24858Y21259D01*
G37*
G36*
X24719Y21120D02*
X24302Y21537D01*
X24379Y21614D01*
X24796Y21197D01*
X24719Y21120D01*
X24719Y21120D01*
G37*
G36*
X24579Y20981D02*
X24162Y21398D01*
X24239Y21475D01*
X24656Y21058D01*
X24579Y20981D01*
X24579Y20981D01*
G37*
G36*
X24440Y20841D02*
X24023Y21258D01*
X24100Y21335D01*
X24517Y20918D01*
X24440Y20841D01*
X24440Y20841D01*
G37*
G36*
X24301Y20702D02*
X23884Y21119D01*
X23961Y21196D01*
X24378Y20779D01*
X24301Y20702D01*
X24301Y20702D01*
G37*
G36*
X24161Y20563D02*
X23744Y20980D01*
X23821Y21057D01*
X24238Y20640D01*
X24161Y20563D01*
X24161Y20563D01*
G37*
G36*
X24023Y20424D02*
X23606Y20841D01*
X23683Y20918D01*
X24100Y20501D01*
X24023Y20424D01*
X24023Y20424D01*
G37*
G36*
X23884Y20285D02*
X23467Y20702D01*
X23544Y20779D01*
X23961Y20362D01*
X23884Y20285D01*
X23884Y20285D01*
G37*
G36*
X23744Y20146D02*
X23327Y20563D01*
X23404Y20640D01*
X23821Y20223D01*
X23744Y20146D01*
X23744Y20146D01*
G37*
G36*
X23605Y20006D02*
X23188Y20423D01*
X23265Y20500D01*
X23682Y20083D01*
X23605Y20006D01*
X23605Y20006D01*
G37*
G36*
X23466Y19867D02*
X23049Y20284D01*
X23126Y20361D01*
X23543Y19944D01*
X23466Y19867D01*
X23466Y19867D01*
G37*
G36*
X23326Y19728D02*
X22909Y20145D01*
X22986Y20222D01*
X23403Y19805D01*
X23326Y19728D01*
X23326Y19728D01*
G37*
G36*
X23187Y19588D02*
X22770Y20005D01*
X22847Y20082D01*
X23264Y19665D01*
X23187Y19588D01*
X23187Y19588D01*
G37*
G36*
X23049Y19450D02*
X22632Y19867D01*
X22709Y19944D01*
X23126Y19527D01*
X23049Y19450D01*
X23049Y19450D01*
G37*
G36*
X22909Y19311D02*
X22492Y19728D01*
X22569Y19805D01*
X22986Y19388D01*
X22909Y19311D01*
X22909Y19311D01*
G37*
G36*
X22770Y19171D02*
X22353Y19588D01*
X22430Y19665D01*
X22847Y19248D01*
X22770Y19171D01*
X22770Y19171D01*
G37*
G36*
X22631Y19032D02*
X22214Y19449D01*
X22291Y19526D01*
X22708Y19109D01*
X22631Y19032D01*
X22631Y19032D01*
G37*
G36*
X22491Y18893D02*
X22074Y19310D01*
X22151Y19387D01*
X22568Y18970D01*
X22491Y18893D01*
X22491Y18893D01*
G37*
G36*
X22352Y18753D02*
X21935Y19170D01*
X22012Y19247D01*
X22429Y18830D01*
X22352Y18753D01*
X22352Y18753D01*
G37*
G36*
X22213Y18614D02*
X21796Y19031D01*
X21873Y19108D01*
X22290Y18691D01*
X22213Y18614D01*
X22213Y18614D01*
G37*
G36*
X22074Y18476D02*
X21657Y18893D01*
X21734Y18970D01*
X22151Y18553D01*
X22074Y18476D01*
X22074Y18476D01*
G37*
G36*
X21935Y18336D02*
X21518Y18753D01*
X21595Y18830D01*
X22012Y18413D01*
X21935Y18336D01*
X21935Y18336D01*
G37*
G36*
X21796Y18197D02*
X21379Y18614D01*
X21456Y18691D01*
X21873Y18274D01*
X21796Y18197D01*
X21796Y18197D01*
G37*
G36*
X21656Y18058D02*
X21239Y18475D01*
X21316Y18552D01*
X21733Y18135D01*
X21656Y18058D01*
X21656Y18058D01*
G37*
G36*
X21517Y17918D02*
X21100Y18335D01*
X21177Y18412D01*
X21594Y17995D01*
X21517Y17918D01*
X21517Y17918D01*
G37*
G36*
X21378Y17779D02*
X20961Y18196D01*
X21038Y18273D01*
X21455Y17856D01*
X21378Y17779D01*
X21378Y17779D01*
G37*
G36*
X21239Y17640D02*
X20822Y18057D01*
X20899Y18134D01*
X21316Y17717D01*
X21239Y17640D01*
X21239Y17640D01*
G37*
G36*
X21100Y17501D02*
X20683Y17918D01*
X20760Y17995D01*
X21177Y17578D01*
X21100Y17501D01*
X21100Y17501D01*
G37*
G36*
X20960Y17362D02*
X20543Y17779D01*
X20620Y17856D01*
X21037Y17439D01*
X20960Y17362D01*
X20960Y17362D01*
G37*
G36*
X20821Y17223D02*
X20404Y17640D01*
X20481Y17717D01*
X20898Y17300D01*
X20821Y17223D01*
X20821Y17223D01*
G37*
G36*
X20682Y17083D02*
X20265Y17500D01*
X20342Y17577D01*
X20759Y17160D01*
X20682Y17083D01*
X20682Y17083D01*
G37*
G36*
X26750Y11015D02*
X26333Y11432D01*
X26410Y11509D01*
X26827Y11092D01*
X26750Y11015D01*
X26750Y11015D01*
G37*
G36*
X26890Y11154D02*
X26473Y11571D01*
X26550Y11648D01*
X26967Y11231D01*
X26890Y11154D01*
X26890Y11154D01*
G37*
G36*
X27029Y11293D02*
X26612Y11710D01*
X26689Y11787D01*
X27106Y11370D01*
X27029Y11293D01*
X27029Y11293D01*
G37*
G36*
X27168Y11433D02*
X26751Y11850D01*
X26828Y11927D01*
X27245Y11510D01*
X27168Y11433D01*
X27168Y11433D01*
G37*
G36*
X27307Y11572D02*
X26890Y11989D01*
X26967Y12066D01*
X27384Y11649D01*
X27307Y11572D01*
X27307Y11572D01*
G37*
G36*
X27446Y11711D02*
X27029Y12128D01*
X27106Y12205D01*
X27523Y11788D01*
X27446Y11711D01*
X27446Y11711D01*
G37*
G36*
X27585Y11850D02*
X27168Y12267D01*
X27245Y12344D01*
X27662Y11927D01*
X27585Y11850D01*
X27585Y11850D01*
G37*
G36*
X27725Y11989D02*
X27308Y12406D01*
X27385Y12483D01*
X27802Y12066D01*
X27725Y11989D01*
X27725Y11989D01*
G37*
G36*
X27864Y12129D02*
X27447Y12546D01*
X27524Y12623D01*
X27941Y12206D01*
X27864Y12129D01*
X27864Y12129D01*
G37*
G36*
X28003Y12268D02*
X27586Y12685D01*
X27663Y12762D01*
X28080Y12345D01*
X28003Y12268D01*
X28003Y12268D01*
G37*
G36*
X28143Y12407D02*
X27726Y12824D01*
X27803Y12901D01*
X28220Y12484D01*
X28143Y12407D01*
X28143Y12407D01*
G37*
G36*
X28281Y12546D02*
X27864Y12963D01*
X27941Y13040D01*
X28358Y12623D01*
X28281Y12546D01*
X28281Y12546D01*
G37*
G36*
X28420Y12685D02*
X28003Y13102D01*
X28080Y13179D01*
X28497Y12762D01*
X28420Y12685D01*
X28420Y12685D01*
G37*
G36*
X28560Y12824D02*
X28143Y13241D01*
X28220Y13318D01*
X28637Y12901D01*
X28560Y12824D01*
X28560Y12824D01*
G37*
G36*
X28699Y12964D02*
X28282Y13381D01*
X28359Y13458D01*
X28776Y13041D01*
X28699Y12964D01*
X28699Y12964D01*
G37*
G36*
X28838Y13103D02*
X28421Y13520D01*
X28498Y13597D01*
X28915Y13180D01*
X28838Y13103D01*
X28838Y13103D01*
G37*
G36*
X28978Y13242D02*
X28561Y13659D01*
X28638Y13736D01*
X29055Y13319D01*
X28978Y13242D01*
X28978Y13242D01*
G37*
G36*
X29117Y13382D02*
X28700Y13799D01*
X28777Y13876D01*
X29194Y13459D01*
X29117Y13382D01*
X29117Y13382D01*
G37*
G36*
X29255Y13520D02*
X28838Y13937D01*
X28915Y14014D01*
X29332Y13597D01*
X29255Y13520D01*
X29255Y13520D01*
G37*
G36*
X29395Y13659D02*
X28978Y14076D01*
X29055Y14153D01*
X29472Y13736D01*
X29395Y13659D01*
X29395Y13659D01*
G37*
G36*
X29534Y13799D02*
X29117Y14216D01*
X29194Y14293D01*
X29611Y13876D01*
X29534Y13799D01*
X29534Y13799D01*
G37*
G36*
X29673Y13938D02*
X29256Y14355D01*
X29333Y14432D01*
X29750Y14015D01*
X29673Y13938D01*
X29673Y13938D01*
G37*
G36*
X29813Y14077D02*
X29396Y14494D01*
X29473Y14571D01*
X29890Y14154D01*
X29813Y14077D01*
X29813Y14077D01*
G37*
G36*
X29952Y14217D02*
X29535Y14634D01*
X29612Y14711D01*
X30029Y14294D01*
X29952Y14217D01*
X29952Y14217D01*
G37*
G36*
X30091Y14356D02*
X29674Y14773D01*
X29751Y14850D01*
X30168Y14433D01*
X30091Y14356D01*
X30091Y14356D01*
G37*
G36*
X30230Y14494D02*
X29813Y14911D01*
X29890Y14988D01*
X30307Y14571D01*
X30230Y14494D01*
X30230Y14494D01*
G37*
G36*
X30369Y14634D02*
X29952Y15051D01*
X30029Y15128D01*
X30446Y14711D01*
X30369Y14634D01*
X30369Y14634D01*
G37*
G36*
X30508Y14773D02*
X30091Y15190D01*
X30168Y15267D01*
X30585Y14850D01*
X30508Y14773D01*
X30508Y14773D01*
G37*
G36*
X30648Y14912D02*
X30231Y15329D01*
X30308Y15406D01*
X30725Y14989D01*
X30648Y14912D01*
X30648Y14912D01*
G37*
G36*
X30787Y15052D02*
X30370Y15469D01*
X30447Y15546D01*
X30864Y15129D01*
X30787Y15052D01*
X30787Y15052D01*
G37*
G36*
X30926Y15191D02*
X30509Y15608D01*
X30586Y15685D01*
X31003Y15268D01*
X30926Y15191D01*
X30926Y15191D01*
G37*
G36*
X31065Y15330D02*
X30648Y15747D01*
X30725Y15824D01*
X31142Y15407D01*
X31065Y15330D01*
X31065Y15330D01*
G37*
G36*
X31204Y15469D02*
X30787Y15886D01*
X30864Y15963D01*
X31281Y15546D01*
X31204Y15469D01*
X31204Y15469D01*
G37*
G36*
X31344Y15608D02*
X30927Y16025D01*
X31004Y16102D01*
X31421Y15685D01*
X31344Y15608D01*
X31344Y15608D01*
G37*
G36*
X31483Y15747D02*
X31066Y16164D01*
X31143Y16241D01*
X31560Y15824D01*
X31483Y15747D01*
X31483Y15747D01*
G37*
G36*
X31622Y15887D02*
X31205Y16304D01*
X31282Y16381D01*
X31699Y15964D01*
X31622Y15887D01*
X31622Y15887D01*
G37*
G36*
X20342Y15887D02*
X20265Y15964D01*
X20682Y16381D01*
X20759Y16304D01*
X20342Y15887D01*
X20342Y15887D01*
G37*
G36*
X20481Y15747D02*
X20404Y15824D01*
X20821Y16241D01*
X20898Y16164D01*
X20481Y15747D01*
X20481Y15747D01*
G37*
G36*
X20620Y15608D02*
X20543Y15685D01*
X20960Y16102D01*
X21037Y16025D01*
X20620Y15608D01*
X20620Y15608D01*
G37*
G36*
X20760Y15469D02*
X20683Y15546D01*
X21100Y15963D01*
X21177Y15886D01*
X20760Y15469D01*
X20760Y15469D01*
G37*
G36*
X20899Y15330D02*
X20822Y15407D01*
X21239Y15824D01*
X21316Y15747D01*
X20899Y15330D01*
X20899Y15330D01*
G37*
G36*
X21038Y15191D02*
X20961Y15268D01*
X21378Y15685D01*
X21455Y15608D01*
X21038Y15191D01*
X21038Y15191D01*
G37*
G36*
X21177Y15052D02*
X21100Y15129D01*
X21517Y15546D01*
X21594Y15469D01*
X21177Y15052D01*
X21177Y15052D01*
G37*
G36*
X21316Y14912D02*
X21239Y14989D01*
X21656Y15406D01*
X21733Y15329D01*
X21316Y14912D01*
X21316Y14912D01*
G37*
G36*
X21456Y14773D02*
X21379Y14850D01*
X21796Y15267D01*
X21873Y15190D01*
X21456Y14773D01*
X21456Y14773D01*
G37*
G36*
X21595Y14634D02*
X21518Y14711D01*
X21935Y15128D01*
X22012Y15051D01*
X21595Y14634D01*
X21595Y14634D01*
G37*
G36*
X21734Y14494D02*
X21657Y14571D01*
X22074Y14988D01*
X22151Y14911D01*
X21734Y14494D01*
X21734Y14494D01*
G37*
G36*
X21873Y14356D02*
X21796Y14433D01*
X22213Y14850D01*
X22290Y14773D01*
X21873Y14356D01*
X21873Y14356D01*
G37*
G36*
X22012Y14217D02*
X21935Y14294D01*
X22352Y14711D01*
X22429Y14634D01*
X22012Y14217D01*
X22012Y14217D01*
G37*
G36*
X22151Y14077D02*
X22074Y14154D01*
X22491Y14571D01*
X22568Y14494D01*
X22151Y14077D01*
X22151Y14077D01*
G37*
G36*
X22291Y13938D02*
X22214Y14015D01*
X22631Y14432D01*
X22708Y14355D01*
X22291Y13938D01*
X22291Y13938D01*
G37*
G36*
X22430Y13799D02*
X22353Y13876D01*
X22770Y14293D01*
X22847Y14216D01*
X22430Y13799D01*
X22430Y13799D01*
G37*
G36*
X22569Y13659D02*
X22492Y13736D01*
X22909Y14153D01*
X22986Y14076D01*
X22569Y13659D01*
X22569Y13659D01*
G37*
G36*
X22709Y13520D02*
X22632Y13597D01*
X23049Y14014D01*
X23126Y13937D01*
X22709Y13520D01*
X22709Y13520D01*
G37*
G36*
X22847Y13382D02*
X22770Y13459D01*
X23187Y13876D01*
X23264Y13799D01*
X22847Y13382D01*
X22847Y13382D01*
G37*
G36*
X22986Y13242D02*
X22909Y13319D01*
X23326Y13736D01*
X23403Y13659D01*
X22986Y13242D01*
X22986Y13242D01*
G37*
G36*
X23126Y13103D02*
X23049Y13180D01*
X23466Y13597D01*
X23543Y13520D01*
X23126Y13103D01*
X23126Y13103D01*
G37*
G36*
X23265Y12964D02*
X23188Y13041D01*
X23605Y13458D01*
X23682Y13381D01*
X23265Y12964D01*
X23265Y12964D01*
G37*
G36*
X23404Y12824D02*
X23327Y12901D01*
X23744Y13318D01*
X23821Y13241D01*
X23404Y12824D01*
X23404Y12824D01*
G37*
G36*
X23544Y12685D02*
X23467Y12762D01*
X23884Y13179D01*
X23961Y13102D01*
X23544Y12685D01*
X23544Y12685D01*
G37*
G36*
X23683Y12546D02*
X23606Y12623D01*
X24023Y13040D01*
X24100Y12963D01*
X23683Y12546D01*
X23683Y12546D01*
G37*
G36*
X23821Y12407D02*
X23744Y12484D01*
X24161Y12901D01*
X24238Y12824D01*
X23821Y12407D01*
X23821Y12407D01*
G37*
G36*
X23961Y12268D02*
X23884Y12345D01*
X24301Y12762D01*
X24378Y12685D01*
X23961Y12268D01*
X23961Y12268D01*
G37*
G36*
X24100Y12129D02*
X24023Y12206D01*
X24440Y12623D01*
X24517Y12546D01*
X24100Y12129D01*
X24100Y12129D01*
G37*
G36*
X24239Y11989D02*
X24162Y12066D01*
X24579Y12483D01*
X24656Y12406D01*
X24239Y11989D01*
X24239Y11989D01*
G37*
G36*
X24379Y11850D02*
X24302Y11927D01*
X24719Y12344D01*
X24796Y12267D01*
X24379Y11850D01*
X24379Y11850D01*
G37*
G36*
X24518Y11711D02*
X24441Y11788D01*
X24858Y12205D01*
X24935Y12128D01*
X24518Y11711D01*
X24518Y11711D01*
G37*
G36*
X24657Y11572D02*
X24580Y11649D01*
X24997Y12066D01*
X25074Y11989D01*
X24657Y11572D01*
X24657Y11572D01*
G37*
G36*
X24796Y11433D02*
X24719Y11510D01*
X25136Y11927D01*
X25213Y11850D01*
X24796Y11433D01*
X24796Y11433D01*
G37*
G36*
X24935Y11293D02*
X24858Y11370D01*
X25275Y11787D01*
X25352Y11710D01*
X24935Y11293D01*
X24935Y11293D01*
G37*
G36*
X25074Y11154D02*
X24997Y11231D01*
X25414Y11648D01*
X25491Y11571D01*
X25074Y11154D01*
X25074Y11154D01*
G37*
G36*
X25214Y11015D02*
X25137Y11092D01*
X25554Y11509D01*
X25631Y11432D01*
X25214Y11015D01*
X25214Y11015D01*
G37*
G36*
X31282Y17083D02*
X31205Y17160D01*
X31622Y17577D01*
X31699Y17500D01*
X31282Y17083D01*
X31282Y17083D01*
G37*
G36*
X31143Y17223D02*
X31066Y17300D01*
X31483Y17717D01*
X31560Y17640D01*
X31143Y17223D01*
X31143Y17223D01*
G37*
G36*
X31004Y17362D02*
X30927Y17439D01*
X31344Y17856D01*
X31421Y17779D01*
X31004Y17362D01*
X31004Y17362D01*
G37*
G36*
X30864Y17501D02*
X30787Y17578D01*
X31204Y17995D01*
X31281Y17918D01*
X30864Y17501D01*
X30864Y17501D01*
G37*
G36*
X30725Y17640D02*
X30648Y17717D01*
X31065Y18134D01*
X31142Y18057D01*
X30725Y17640D01*
X30725Y17640D01*
G37*
G36*
X30586Y17779D02*
X30509Y17856D01*
X30926Y18273D01*
X31003Y18196D01*
X30586Y17779D01*
X30586Y17779D01*
G37*
G36*
X30447Y17918D02*
X30370Y17995D01*
X30787Y18412D01*
X30864Y18335D01*
X30447Y17918D01*
X30447Y17918D01*
G37*
G36*
X30308Y18058D02*
X30231Y18135D01*
X30648Y18552D01*
X30725Y18475D01*
X30308Y18058D01*
X30308Y18058D01*
G37*
G36*
X30168Y18197D02*
X30091Y18274D01*
X30508Y18691D01*
X30585Y18614D01*
X30168Y18197D01*
X30168Y18197D01*
G37*
G36*
X30029Y18336D02*
X29952Y18413D01*
X30369Y18830D01*
X30446Y18753D01*
X30029Y18336D01*
X30029Y18336D01*
G37*
G36*
X29890Y18476D02*
X29813Y18553D01*
X30230Y18970D01*
X30307Y18893D01*
X29890Y18476D01*
X29890Y18476D01*
G37*
G36*
X29751Y18614D02*
X29674Y18691D01*
X30091Y19108D01*
X30168Y19031D01*
X29751Y18614D01*
X29751Y18614D01*
G37*
G36*
X29612Y18753D02*
X29535Y18830D01*
X29952Y19247D01*
X30029Y19170D01*
X29612Y18753D01*
X29612Y18753D01*
G37*
G36*
X29473Y18893D02*
X29396Y18970D01*
X29813Y19387D01*
X29890Y19310D01*
X29473Y18893D01*
X29473Y18893D01*
G37*
G36*
X29333Y19032D02*
X29256Y19109D01*
X29673Y19526D01*
X29750Y19449D01*
X29333Y19032D01*
X29333Y19032D01*
G37*
G36*
X29194Y19171D02*
X29117Y19248D01*
X29534Y19665D01*
X29611Y19588D01*
X29194Y19171D01*
X29194Y19171D01*
G37*
G36*
X29055Y19311D02*
X28978Y19388D01*
X29395Y19805D01*
X29472Y19728D01*
X29055Y19311D01*
X29055Y19311D01*
G37*
G36*
X28915Y19450D02*
X28838Y19527D01*
X29255Y19944D01*
X29332Y19867D01*
X28915Y19450D01*
X28915Y19450D01*
G37*
G36*
X28777Y19588D02*
X28700Y19665D01*
X29117Y20082D01*
X29194Y20005D01*
X28777Y19588D01*
X28777Y19588D01*
G37*
G36*
X28638Y19728D02*
X28561Y19805D01*
X28978Y20222D01*
X29055Y20145D01*
X28638Y19728D01*
X28638Y19728D01*
G37*
G36*
X28498Y19867D02*
X28421Y19944D01*
X28838Y20361D01*
X28915Y20284D01*
X28498Y19867D01*
X28498Y19867D01*
G37*
G36*
X28359Y20006D02*
X28282Y20083D01*
X28699Y20500D01*
X28776Y20423D01*
X28359Y20006D01*
X28359Y20006D01*
G37*
G36*
X28220Y20146D02*
X28143Y20223D01*
X28560Y20640D01*
X28637Y20563D01*
X28220Y20146D01*
X28220Y20146D01*
G37*
G36*
X28080Y20285D02*
X28003Y20362D01*
X28420Y20779D01*
X28497Y20702D01*
X28080Y20285D01*
X28080Y20285D01*
G37*
G36*
X27941Y20424D02*
X27864Y20501D01*
X28281Y20918D01*
X28358Y20841D01*
X27941Y20424D01*
X27941Y20424D01*
G37*
G36*
X27803Y20563D02*
X27726Y20640D01*
X28143Y21057D01*
X28220Y20980D01*
X27803Y20563D01*
X27803Y20563D01*
G37*
G36*
X27663Y20702D02*
X27586Y20779D01*
X28003Y21196D01*
X28080Y21119D01*
X27663Y20702D01*
X27663Y20702D01*
G37*
G36*
X27524Y20841D02*
X27447Y20918D01*
X27864Y21335D01*
X27941Y21258D01*
X27524Y20841D01*
X27524Y20841D01*
G37*
G36*
X27385Y20981D02*
X27308Y21058D01*
X27725Y21475D01*
X27802Y21398D01*
X27385Y20981D01*
X27385Y20981D01*
G37*
G36*
X27245Y21120D02*
X27168Y21197D01*
X27585Y21614D01*
X27662Y21537D01*
X27245Y21120D01*
X27245Y21120D01*
G37*
G36*
X27106Y21259D02*
X27029Y21336D01*
X27446Y21753D01*
X27523Y21676D01*
X27106Y21259D01*
X27106Y21259D01*
G37*
G36*
X26967Y21398D02*
X26890Y21475D01*
X27307Y21892D01*
X27384Y21815D01*
X26967Y21398D01*
X26967Y21398D01*
G37*
G36*
X26828Y21537D02*
X26751Y21614D01*
X27168Y22031D01*
X27245Y21954D01*
X26828Y21537D01*
X26828Y21537D01*
G37*
G36*
X26689Y21677D02*
X26612Y21754D01*
X27029Y22171D01*
X27106Y22094D01*
X26689Y21677D01*
X26689Y21677D01*
G37*
G36*
X26550Y21816D02*
X26473Y21893D01*
X26890Y22310D01*
X26967Y22233D01*
X26550Y21816D01*
X26550Y21816D01*
G37*
G36*
X26410Y21955D02*
X26333Y22032D01*
X26750Y22449D01*
X26827Y22372D01*
X26410Y21955D01*
X26410Y21955D01*
G37*
G54D29*
X21356Y11771D03*
X21356Y11063D03*
X19585Y19036D03*
X19585Y19744D03*
G54D28*
X26219Y08760D03*
X26927Y08760D03*
G54D29*
X19978Y13445D03*
X19978Y12737D03*
X30116Y11634D03*
X30116Y10926D03*
X32222Y11614D03*
X32222Y10906D03*
G54D25*
X31868Y14567D03*
X32498Y14567D03*
X18030Y04232D03*
X17400Y04232D03*
G54D26*
X19585Y17795D03*
X19585Y18425D03*
X19585Y17146D03*
X19585Y16516D03*
X23620Y11732D03*
X23620Y11102D03*
G54D25*
X32163Y15157D03*
X32793Y15157D03*
G54D26*
X29821Y20453D03*
X29821Y21083D03*
X30411Y20453D03*
X30411Y21083D03*
X21455Y13406D03*
X21455Y12776D03*
X23029Y11732D03*
X23029Y11102D03*
X22045Y13406D03*
X22045Y12776D03*
X20372Y18878D03*
X20372Y19508D03*
X23029Y22126D03*
X23029Y22756D03*
G54D25*
X18620Y15059D03*
X17990Y15059D03*
G54D26*
X27065Y10256D03*
X27065Y09626D03*
X23029Y09370D03*
X23029Y08740D03*
X25884Y10256D03*
X25884Y09626D03*
X23718Y22126D03*
X23718Y22756D03*
G54D25*
X20588Y14173D03*
X19958Y14173D03*
G54D26*
X26474Y09626D03*
X26474Y10256D03*
G54D29*
X22242Y11771D03*
X22242Y11063D03*
G54D25*
X20550Y32480D03*
X21180Y32480D03*
G54D40*
X21866Y04073D03*
X21866Y04573D03*
X21866Y05073D03*
X21866Y05573D03*
X19666Y05573D03*
X19666Y05073D03*
X19666Y04573D03*
X19666Y04073D03*
G54D25*
X21238Y03346D03*
X21868Y03346D03*
X19762Y06299D03*
X20392Y06299D03*
G54D26*
X19781Y36535D03*
X19781Y35905D03*
X20155Y41319D03*
X20155Y40689D03*
X19348Y41319D03*
X19348Y40689D03*
G54D41*
X35826Y13820D03*
X36023Y13820D03*
X36220Y13820D03*
X36417Y13820D03*
X36613Y13820D03*
X36810Y13820D03*
X37007Y13820D03*
X37204Y13820D03*
G54D42*
X37460Y14862D03*
X37460Y15058D03*
X37460Y15255D03*
X37460Y15452D03*
G54D43*
X36514Y14764D03*
G54D42*
X37460Y14075D03*
X37460Y14272D03*
X37460Y14469D03*
X37460Y14665D03*
G54D41*
X37202Y15708D03*
X37005Y15709D03*
X36809Y15709D03*
X36612Y15709D03*
X36415Y15709D03*
X36218Y15709D03*
X36021Y15709D03*
X35824Y15709D03*
G54D42*
X35569Y15453D03*
X35569Y15256D03*
X35569Y15059D03*
X35569Y14863D03*
X35569Y14666D03*
X35569Y14469D03*
X35569Y14272D03*
X35569Y14075D03*
G54D25*
X03907Y29870D03*
X03277Y29870D03*
G54D44*
X33896Y41988D03*
G54D45*
X33896Y42914D03*
G54D46*
X27230Y40228D03*
G54D47*
X28156Y40228D03*
G54D26*
X10234Y32362D03*
X10234Y32992D03*
X10431Y40138D03*
X10431Y40768D03*
X10333Y16319D03*
X10333Y16949D03*
X10431Y24291D03*
X10431Y24921D03*
G54D48*
X38699Y11811D03*
X38699Y10237D03*
X39643Y10237D03*
X39643Y11811D03*
X18777Y16634D03*
X18777Y18208D03*
X17833Y18208D03*
X17833Y16634D03*
G54D26*
X25293Y10256D03*
X25293Y09626D03*
X23817Y09370D03*
X23817Y08740D03*
G54D25*
X27242Y06890D03*
X27872Y06890D03*
G54D26*
X26474Y06870D03*
X26474Y07500D03*
G54D25*
X32458Y15846D03*
X33088Y15846D03*
G54D26*
X24112Y06870D03*
X24112Y07500D03*
G54D19*
X18643Y37415D03*
X19475Y37040D03*
X18643Y36665D03*
G54D34*
X21079Y34830D03*
G54D35*
X21079Y35578D03*
G54D25*
X22596Y42441D03*
X21966Y42441D03*
G54D26*
X14565Y10709D03*
X14565Y11339D03*
X14604Y04055D03*
X14604Y04685D03*
X38187Y06732D03*
X38187Y07362D03*
X21966Y01378D03*
X21966Y02008D03*
X31514Y11024D03*
X31514Y11654D03*
X29407Y11024D03*
X29407Y11654D03*
X20155Y41909D03*
X20155Y42524D03*
X19329Y41909D03*
X19329Y42524D03*
X18522Y41909D03*
X18522Y42524D03*
G54D24*
X22695Y47422D03*
X22695Y45256D03*
X14329Y08898D03*
X14329Y06732D03*
G54D25*
X04925Y34663D03*
X05555Y34663D03*
X04915Y42567D03*
X05545Y42567D03*
X03277Y39173D03*
X03907Y39173D03*
X03907Y37929D03*
X03277Y37929D03*
X03278Y34654D03*
X03908Y34654D03*
G54D26*
X21455Y43976D03*
X21455Y44606D03*
G54D25*
X03277Y31433D03*
X03907Y31433D03*
X03907Y22094D03*
X03277Y22094D03*
X03411Y18705D03*
X04041Y18705D03*
X04915Y18720D03*
X05545Y18720D03*
X03277Y15327D03*
X03907Y15327D03*
X03277Y42567D03*
X03907Y42567D03*
G54D26*
X30273Y12618D03*
X30273Y13248D03*
X29045Y31890D03*
X29045Y31260D03*
X11333Y12480D03*
X11333Y11850D03*
G54D29*
X31880Y40042D03*
X31880Y39334D03*
G54D25*
X03277Y26681D03*
X03907Y26681D03*
X04915Y26681D03*
X05545Y26681D03*
X03277Y23346D03*
X03907Y23346D03*
X01645Y45100D03*
X01015Y45100D03*
G54D26*
X18522Y41319D03*
X18522Y40689D03*
X29644Y13248D03*
X29644Y12618D03*
G54D49*
X06183Y21017D03*
X06183Y19765D03*
X03861Y21017D03*
X03861Y19765D03*
X06190Y17633D03*
X06190Y16381D03*
X03868Y17633D03*
X03868Y16381D03*
X06183Y33576D03*
X06183Y32324D03*
X03861Y33576D03*
X03861Y32324D03*
X06183Y36962D03*
X06183Y35710D03*
X03861Y36962D03*
X03861Y35710D03*
X06183Y41452D03*
X06183Y40200D03*
X03861Y41452D03*
X03861Y40200D03*
X06183Y44838D03*
X06183Y43586D03*
X03861Y44838D03*
X03861Y43586D03*
X06183Y25603D03*
X06183Y24351D03*
X03861Y25603D03*
X03861Y24351D03*
X06183Y28989D03*
X06183Y27737D03*
X03861Y28989D03*
X03861Y27737D03*
M02*
