G04 (created by PCBNEW-RS274X (2012-01-19 BZR 3256)-stable) date 19/07/2014 16:24:45*
G01*
G70*
G90*
%MOIN*%
G04 Gerber Fmt 3.4, Leading zero omitted, Abs format*
%FSLAX34Y34*%
G04 APERTURE LIST*
%ADD10C,0.006000*%
%ADD11C,0.196900*%
%ADD12R,0.078700X0.078700*%
%ADD13C,0.098400*%
%ADD14O,0.039400X0.049200*%
%ADD15O,0.074800X0.082700*%
%ADD16C,0.033500*%
%ADD17R,0.060000X0.060000*%
%ADD18C,0.060000*%
%ADD19R,0.039400X0.039400*%
%ADD20C,0.039400*%
%ADD21C,0.129900*%
%ADD22C,0.100000*%
%ADD23C,0.031500*%
%ADD24C,0.023600*%
%ADD25C,0.010000*%
%ADD26C,0.020000*%
%ADD27C,0.040000*%
%ADD28C,0.060000*%
%ADD29C,0.015000*%
G04 APERTURE END LIST*
G54D10*
G54D11*
X02754Y01575D03*
G54D12*
X17390Y45236D03*
G54D13*
X19890Y45236D03*
G54D14*
X18905Y01968D03*
X20657Y01968D03*
G54D15*
X21395Y00716D03*
X18167Y00716D03*
G54D16*
X20716Y00716D03*
X18846Y00716D03*
G54D17*
X12114Y46430D03*
G54D18*
X13114Y46430D03*
X14114Y46430D03*
G54D17*
X01248Y44019D03*
G54D18*
X01248Y43019D03*
X01248Y42019D03*
X01248Y41019D03*
X01248Y40019D03*
X01248Y39019D03*
X01248Y38019D03*
G54D17*
X01248Y36143D03*
G54D18*
X01248Y35143D03*
X01248Y34143D03*
X01248Y33143D03*
X01248Y32143D03*
X01248Y31143D03*
X01248Y30143D03*
G54D17*
X01248Y28170D03*
G54D18*
X01248Y27170D03*
X01248Y26170D03*
X01248Y25170D03*
X01248Y24170D03*
X01248Y23170D03*
X01248Y22170D03*
G54D17*
X01248Y20199D03*
G54D18*
X01248Y19199D03*
X01248Y18199D03*
X01248Y17199D03*
X01248Y16199D03*
X01248Y15199D03*
X01248Y14199D03*
G54D17*
X35911Y46929D03*
G54D18*
X34911Y46929D03*
G54D19*
X20651Y07329D03*
G54D20*
X20651Y07829D03*
X21151Y07329D03*
X21151Y07829D03*
X21651Y07329D03*
X21651Y07829D03*
X22151Y07329D03*
X22151Y07829D03*
X22651Y07329D03*
X22651Y07829D03*
X24140Y01870D03*
X27282Y01870D03*
G54D17*
X38474Y43299D03*
G54D18*
X39474Y43299D03*
X38474Y38299D03*
X39474Y42299D03*
X38474Y37299D03*
X39474Y41299D03*
X38474Y36299D03*
X39474Y40299D03*
X38474Y35299D03*
X39474Y39299D03*
X38474Y34299D03*
X39474Y38299D03*
X38474Y33299D03*
X39474Y37299D03*
X38474Y32299D03*
X39474Y36299D03*
X38474Y31299D03*
X39474Y35299D03*
X38474Y30299D03*
X39474Y34299D03*
X38474Y29299D03*
X39474Y33299D03*
X38474Y28299D03*
X39474Y32299D03*
X39474Y31299D03*
X38474Y27299D03*
X39474Y30299D03*
X39474Y28299D03*
X39474Y27299D03*
X39474Y26299D03*
X39474Y25299D03*
X38474Y26299D03*
X38474Y25299D03*
X38474Y42299D03*
X38474Y41299D03*
X38474Y40299D03*
X38474Y39299D03*
X38474Y24299D03*
X39474Y24299D03*
X39474Y29299D03*
X38474Y23299D03*
X39474Y23299D03*
X38474Y22299D03*
X39474Y22299D03*
X38474Y21299D03*
X39474Y21299D03*
X38474Y20299D03*
X39474Y20299D03*
X38474Y19299D03*
X39474Y19299D03*
G54D21*
X32098Y04528D03*
X36598Y04528D03*
G54D18*
X36098Y08028D03*
X35600Y07028D03*
X35098Y08028D03*
X34600Y07028D03*
X34098Y08028D03*
X33600Y07028D03*
X33098Y08028D03*
G54D22*
X31298Y05729D03*
X37398Y05728D03*
G54D18*
X35956Y02599D03*
X32740Y02599D03*
X36956Y02599D03*
X31740Y02599D03*
G54D17*
X32600Y07028D03*
G54D23*
X16730Y26181D03*
X16533Y42028D03*
X16730Y34252D03*
X15746Y17618D03*
G54D17*
X32696Y41944D03*
G54D18*
X32696Y40944D03*
G54D17*
X20089Y34050D03*
G54D18*
X20089Y35050D03*
X32638Y13104D03*
X21148Y41630D03*
G54D17*
X22280Y40558D03*
G54D18*
X23280Y40558D03*
G54D12*
X30205Y45236D03*
G54D13*
X32705Y45236D03*
G54D17*
X04888Y01328D03*
G54D18*
X05888Y01328D03*
X06888Y01328D03*
X07888Y01328D03*
G54D17*
X01248Y12617D03*
G54D18*
X01248Y11617D03*
X01256Y10617D03*
X01248Y09617D03*
X01248Y08617D03*
X01248Y07617D03*
X01248Y06617D03*
X01248Y05617D03*
X01248Y04617D03*
X01248Y03617D03*
G54D11*
X38974Y46850D03*
X38974Y01575D03*
X02754Y46850D03*
G54D24*
X25648Y06496D03*
X25864Y32232D03*
X37399Y17323D03*
X21750Y09744D03*
X14565Y19980D03*
X13974Y16142D03*
X14368Y26575D03*
X13974Y39862D03*
X11506Y31791D03*
X23029Y21772D03*
X13974Y31988D03*
X20372Y09744D03*
X14368Y34547D03*
X20766Y03543D03*
X25498Y31232D03*
X26868Y07579D03*
X23620Y12106D03*
X39663Y13780D03*
X14368Y42421D03*
X25742Y30890D03*
X14368Y24016D03*
X25746Y31626D03*
X27159Y32661D03*
X22045Y13780D03*
X09840Y39567D03*
X25057Y32213D03*
X39663Y14961D03*
X25289Y31630D03*
X14565Y36024D03*
X33462Y13583D03*
X14368Y39862D03*
X09939Y31791D03*
X26333Y31717D03*
X26435Y29827D03*
X24112Y07776D03*
X25270Y30882D03*
X23817Y08465D03*
X32911Y10591D03*
X22207Y41933D03*
X14368Y16142D03*
X18896Y29429D03*
X27655Y09350D03*
X33955Y15453D03*
X27195Y30862D03*
X09742Y23720D03*
X26903Y30299D03*
X25293Y09350D03*
X11605Y39567D03*
X14368Y18602D03*
X26773Y31236D03*
X25490Y32657D03*
X11529Y23720D03*
X13974Y34252D03*
X22144Y09744D03*
X14565Y11811D03*
X23129Y30807D03*
X09840Y15650D03*
X11569Y15650D03*
X36218Y11319D03*
X20176Y32480D03*
X13974Y18307D03*
X13974Y24016D03*
X31159Y10650D03*
X30411Y04626D03*
X20372Y12303D03*
X13974Y26280D03*
X29722Y21555D03*
X13974Y42126D03*
X15297Y04752D03*
X33561Y15846D03*
X27262Y08071D03*
X18896Y32087D03*
X28935Y08366D03*
X27195Y31709D03*
X26360Y30854D03*
X23375Y09725D03*
X14368Y31988D03*
X31396Y15157D03*
X26309Y32685D03*
X14565Y43799D03*
X26683Y32228D03*
X27655Y06398D03*
X14466Y27953D03*
X25522Y30579D03*
X22833Y12697D03*
X19388Y06299D03*
X26390Y40813D03*
X24148Y35480D03*
X17813Y07087D03*
X22431Y43122D03*
X15746Y09941D03*
X24159Y35846D03*
X19940Y43294D03*
X22144Y33071D03*
X17124Y09941D03*
X22139Y33470D03*
X21750Y12205D03*
X23029Y12106D03*
X30313Y22047D03*
X18305Y18898D03*
X21750Y13878D03*
X31100Y14862D03*
X23541Y21693D03*
X20374Y36283D03*
X28640Y16437D03*
X29525Y16476D03*
X29821Y16398D03*
X29014Y12677D03*
X17204Y05946D03*
X25531Y13366D03*
X28581Y14685D03*
X28817Y14921D03*
X28344Y16437D03*
X27205Y45356D03*
X31010Y43228D03*
X27821Y46639D03*
X28519Y46018D03*
X31490Y42438D03*
X29330Y46128D03*
X31400Y46888D03*
X28172Y46301D03*
X30470Y41318D03*
X26615Y46009D03*
X30800Y46178D03*
X26570Y45334D03*
X25770Y42858D03*
X31870Y46178D03*
X28523Y46648D03*
X27542Y46328D03*
X26750Y43798D03*
X27124Y46621D03*
X27884Y45347D03*
X26498Y46634D03*
X27853Y46013D03*
X29990Y43978D03*
X27518Y45709D03*
X25660Y41378D03*
X31690Y44028D03*
X26930Y46319D03*
X27560Y45010D03*
X28200Y42278D03*
X28582Y44740D03*
X27241Y46009D03*
X28541Y45374D03*
X26510Y42228D03*
X27970Y43898D03*
X29850Y42218D03*
X26917Y44996D03*
X31510Y45168D03*
X30090Y46798D03*
X27884Y44713D03*
X27259Y44731D03*
X28980Y41308D03*
X28141Y45716D03*
X26935Y45703D03*
X26516Y44749D03*
X28780Y43188D03*
X27230Y41338D03*
X28172Y45001D03*
X27530Y42988D03*
X32768Y13982D03*
X28525Y22953D03*
X18896Y13386D03*
X20962Y14764D03*
X20569Y14764D03*
X18896Y14173D03*
X05903Y10236D03*
X07085Y12598D03*
X06297Y12598D03*
X07085Y11811D03*
X09053Y10630D03*
X07872Y11024D03*
X06297Y10630D03*
X09447Y12598D03*
X08266Y09843D03*
X10234Y11811D03*
X09053Y12205D03*
X05510Y09843D03*
X05510Y11811D03*
X09447Y09449D03*
X07085Y09055D03*
X07872Y12598D03*
X08561Y10236D03*
X08659Y09449D03*
X06691Y12205D03*
X06297Y11811D03*
X09053Y09843D03*
X07872Y11811D03*
X09447Y11024D03*
X06691Y10236D03*
X05903Y12205D03*
X08266Y12205D03*
X08659Y11811D03*
X08659Y11024D03*
X10234Y12598D03*
X06691Y09449D03*
X09447Y11811D03*
X07085Y09843D03*
X08659Y12598D03*
X06298Y09843D03*
X05510Y12598D03*
X09840Y12205D03*
X07085Y10630D03*
X05510Y10630D03*
X08266Y10630D03*
X06297Y09055D03*
X07872Y09449D03*
X07478Y12205D03*
X19486Y20768D03*
X10825Y20472D03*
X09939Y16831D03*
X19289Y20472D03*
X19787Y10813D03*
X15746Y10335D03*
X14466Y20571D03*
X17616Y21358D03*
X19289Y21063D03*
X14171Y20276D03*
X10333Y14567D03*
X17714Y18996D03*
X23108Y04980D03*
X37104Y17717D03*
X38088Y14567D03*
X38285Y13780D03*
X29230Y20374D03*
X34939Y18504D03*
X38088Y16339D03*
X39663Y15551D03*
X34644Y19094D03*
X33856Y17717D03*
X33856Y18701D03*
X33561Y17913D03*
X33561Y18898D03*
X34151Y18504D03*
X34151Y17913D03*
X09090Y04818D03*
X09600Y04378D03*
X09190Y03918D03*
X07520Y05188D03*
X07500Y03388D03*
X09570Y05288D03*
X09660Y03388D03*
X08640Y03378D03*
X08563Y04331D03*
X07520Y04348D03*
X08080Y04818D03*
X08540Y05268D03*
X08220Y03848D03*
X23226Y12598D03*
X19573Y10039D03*
X15254Y06102D03*
X22732Y10004D03*
X12990Y36713D03*
X06494Y29626D03*
X04433Y34597D03*
X12596Y36024D03*
X11809Y36909D03*
X15451Y41634D03*
X14171Y28937D03*
X24782Y06496D03*
X11809Y25295D03*
X12203Y27264D03*
X14171Y44685D03*
X12596Y44685D03*
X11809Y26378D03*
X24132Y20079D03*
X23325Y05315D03*
X18994Y02756D03*
X11415Y44488D03*
X12596Y28937D03*
X09939Y16339D03*
X12202Y40552D03*
X12596Y34252D03*
X20273Y29823D03*
X20273Y31398D03*
X12596Y34941D03*
X04344Y31445D03*
X04356Y37909D03*
X33462Y11614D03*
X15175Y07801D03*
X15155Y00787D03*
X07675Y35728D03*
X12596Y32874D03*
X37203Y10531D03*
X12596Y35630D03*
X13384Y28937D03*
X07675Y33268D03*
X35431Y11909D03*
X04482Y18697D03*
X07675Y27756D03*
X11809Y28937D03*
X11809Y42815D03*
X12596Y17717D03*
X23305Y14173D03*
X12203Y41831D03*
X11415Y36713D03*
X04415Y26689D03*
X12596Y41142D03*
X12990Y28740D03*
X38384Y09449D03*
X11809Y16929D03*
X12596Y18406D03*
X20372Y19882D03*
X07380Y29134D03*
X11809Y35630D03*
X15549Y20866D03*
X06691Y37598D03*
X12200Y24708D03*
X34469Y38130D03*
X07675Y20079D03*
X12596Y24902D03*
X12203Y34547D03*
X16730Y04626D03*
X11809Y41142D03*
X12200Y25098D03*
X30018Y21752D03*
X18403Y18209D03*
X11809Y18406D03*
X26474Y09350D03*
X27262Y08760D03*
X08266Y29626D03*
X36415Y09744D03*
X39663Y12598D03*
X12200Y17126D03*
X19092Y24409D03*
X11809Y34941D03*
X27592Y29252D03*
X12201Y32679D03*
X15451Y12697D03*
X13777Y28740D03*
X06510Y45744D03*
X10037Y40354D03*
X12596Y19685D03*
X29560Y37758D03*
X07675Y17913D03*
X11809Y40748D03*
X11809Y17717D03*
X39663Y14370D03*
X12596Y25689D03*
X12202Y44487D03*
X07675Y25591D03*
X12203Y18110D03*
X18699Y22047D03*
X12203Y19882D03*
X12596Y43504D03*
X11809Y43504D03*
X04372Y23350D03*
X21800Y10666D03*
X12203Y33957D03*
X31691Y15453D03*
X11809Y20965D03*
X27065Y09350D03*
X12596Y36909D03*
X12596Y42815D03*
X09939Y32185D03*
X12203Y42520D03*
X07675Y43602D03*
X38167Y07815D03*
X13384Y44685D03*
X12203Y18701D03*
X19978Y12303D03*
X12203Y43110D03*
X22833Y23228D03*
X17616Y15650D03*
X15155Y12402D03*
X07427Y45280D03*
X12200Y28737D03*
X04336Y29870D03*
X11809Y32874D03*
X04348Y22098D03*
X23620Y13878D03*
X12203Y26083D03*
X07380Y22146D03*
X11809Y19685D03*
X11809Y17323D03*
X21456Y30807D03*
X11022Y20965D03*
X22833Y14764D03*
X15844Y44094D03*
X32872Y14567D03*
X11809Y28051D03*
X11809Y20079D03*
X13384Y20965D03*
X22844Y32280D03*
X07675Y28051D03*
X12596Y33268D03*
X07675Y17618D03*
X13777Y20768D03*
X12596Y42126D03*
X25970Y34708D03*
X12203Y19291D03*
X15155Y07283D03*
X12596Y41535D03*
X30380Y36698D03*
X12596Y17323D03*
X28130Y34738D03*
X15155Y12008D03*
X29970Y36288D03*
X34469Y39243D03*
X19880Y16535D03*
X08561Y22244D03*
X12202Y40945D03*
X33750Y37938D03*
X12201Y33071D03*
X29090Y37348D03*
X30270Y37758D03*
X07675Y19783D03*
X02090Y45253D03*
X12596Y20079D03*
X11415Y20768D03*
X13384Y36909D03*
X30820Y37318D03*
X28718Y30657D03*
X12203Y26673D03*
X26980Y35918D03*
X11809Y24902D03*
X23325Y10827D03*
X29940Y38248D03*
X21356Y17323D03*
X12596Y27657D03*
X28640Y02047D03*
X12200Y16735D03*
X25884Y09350D03*
X12596Y40748D03*
X07675Y41437D03*
X12201Y35825D03*
X30740Y38258D03*
X32720Y36988D03*
X39663Y13189D03*
X31700Y37938D03*
X27990Y39198D03*
X28040Y36988D03*
X29510Y36718D03*
X11809Y44685D03*
X18207Y16634D03*
X12596Y16929D03*
X11809Y34252D03*
X29130Y38278D03*
X12596Y28051D03*
X22045Y12500D03*
X21455Y30118D03*
X29100Y36298D03*
X28880Y35428D03*
X25890Y37018D03*
X20766Y06299D03*
X30860Y36288D03*
X33260Y35958D03*
X26940Y38118D03*
X15352Y17815D03*
X39565Y17323D03*
X33561Y14469D03*
X07675Y43307D03*
X14171Y20965D03*
X12596Y43898D03*
X12201Y33465D03*
X07380Y21161D03*
X08167Y37598D03*
X12596Y33661D03*
X29990Y37318D03*
X13777Y36713D03*
X12200Y25492D03*
X21573Y15945D03*
X21356Y05118D03*
X11809Y36024D03*
X15943Y36319D03*
X11809Y42126D03*
X07675Y25295D03*
X11022Y36909D03*
X12596Y26378D03*
X12596Y20965D03*
X12990Y44488D03*
X11022Y44685D03*
X07675Y33563D03*
X15844Y28248D03*
X12202Y43700D03*
X12201Y36711D03*
X31700Y36068D03*
X11809Y18996D03*
X12200Y27851D03*
X18599Y36210D03*
X11809Y25689D03*
X28777Y05295D03*
X12596Y26969D03*
X19880Y18406D03*
X29090Y18923D03*
X21456Y31299D03*
X07380Y37106D03*
X38285Y10236D03*
X12596Y25295D03*
X19978Y14567D03*
X13777Y44488D03*
X12200Y17520D03*
X04364Y39161D03*
X12202Y41339D03*
X08297Y45787D03*
X14171Y36909D03*
X11418Y28737D03*
X31750Y34458D03*
X15451Y25787D03*
X12990Y20768D03*
X23325Y23622D03*
X11022Y28937D03*
X40057Y11811D03*
X11809Y26969D03*
X29790Y34398D03*
X04470Y15717D03*
X25910Y39158D03*
X11809Y33661D03*
X12203Y20768D03*
X11809Y41535D03*
X24136Y41913D03*
X04399Y42583D03*
X11809Y27657D03*
X12596Y18996D03*
X11809Y33268D03*
X07675Y35433D03*
X10037Y24311D03*
X11809Y43898D03*
X12203Y35236D03*
X15451Y33858D03*
X36514Y14764D03*
X07675Y41142D03*
X30720Y35308D03*
X17419Y20472D03*
X25195Y07579D03*
X25195Y06398D03*
X27951Y06299D03*
X31986Y13681D03*
X31986Y15748D03*
X21947Y15945D03*
X30510Y10433D03*
X27557Y20079D03*
X22537Y15945D03*
X22833Y16043D03*
X21750Y08563D03*
X22242Y16043D03*
X14053Y18819D03*
X14171Y19488D03*
X14053Y42638D03*
X14171Y43307D03*
X14053Y34764D03*
X14171Y35433D03*
X14171Y27461D03*
X14053Y26791D03*
X23581Y44075D03*
X24742Y46142D03*
X37203Y13189D03*
X36907Y12795D03*
X35037Y14370D03*
X36514Y12795D03*
X35136Y14075D03*
X36514Y17815D03*
X36514Y16634D03*
X36907Y13386D03*
X19781Y00787D03*
X33423Y12067D03*
X25470Y13030D03*
X24998Y20374D03*
X24703Y20472D03*
X27459Y22146D03*
X28836Y23622D03*
X27754Y16437D03*
X28049Y16535D03*
X29264Y18661D03*
X20255Y10372D03*
X26237Y17114D03*
X16622Y06088D03*
X27798Y17298D03*
X23321Y10207D03*
X29053Y15157D03*
X29427Y15157D03*
X29821Y13681D03*
X30175Y13720D03*
X30411Y13957D03*
X30707Y13583D03*
X31002Y13681D03*
X31297Y13583D03*
X31592Y13681D03*
X24171Y13858D03*
X27754Y19291D03*
X24486Y13858D03*
X24801Y13858D03*
X25116Y13858D03*
X25096Y12500D03*
X20374Y21315D03*
X19059Y36195D03*
X18494Y40170D03*
X37829Y39173D03*
X17321Y02362D03*
X23128Y15945D03*
X22537Y04134D03*
X25785Y21654D03*
X25588Y20374D03*
X27951Y17815D03*
X28148Y18110D03*
X28148Y18701D03*
X27852Y18996D03*
X27951Y18406D03*
X23817Y23228D03*
X20273Y30906D03*
X20766Y28445D03*
X23817Y19685D03*
X29230Y16437D03*
X20372Y30512D03*
X21061Y28740D03*
X28935Y16535D03*
X25785Y21161D03*
X25293Y20276D03*
X22537Y13287D03*
X23029Y06299D03*
X22340Y06102D03*
X23423Y08169D03*
X20864Y04134D03*
X21962Y06285D03*
X19486Y02756D03*
X26376Y16535D03*
X26081Y15846D03*
X21733Y05993D03*
X21159Y18996D03*
X24998Y24528D03*
X19191Y04232D03*
X18403Y04232D03*
X25785Y08760D03*
X25884Y10531D03*
X29033Y10630D03*
X31396Y10354D03*
X26966Y10827D03*
X30118Y24264D03*
X28836Y23228D03*
X30667Y12539D03*
X10333Y33957D03*
X10972Y16978D03*
X11415Y24508D03*
X10333Y43209D03*
X10333Y29626D03*
X10972Y24951D03*
X10333Y21654D03*
X10628Y41043D03*
X11317Y40354D03*
X11415Y16535D03*
X10333Y37598D03*
X10579Y33218D03*
X10333Y25984D03*
X11317Y32480D03*
X10334Y41829D03*
X10333Y18012D03*
X10333Y19390D03*
X10333Y27362D03*
X10333Y45417D03*
X10333Y35335D03*
X19486Y23031D03*
X10825Y28445D03*
X10037Y25098D03*
X19289Y22736D03*
X17065Y28937D03*
X18896Y28937D03*
X19289Y23327D03*
X14171Y28248D03*
X10234Y22638D03*
X18305Y21654D03*
X10825Y36417D03*
X19486Y25394D03*
X09840Y32677D03*
X19289Y25098D03*
X14466Y36614D03*
X19289Y32087D03*
X14171Y36220D03*
X19289Y25689D03*
X19191Y23819D03*
X10234Y30610D03*
X19092Y39075D03*
X10825Y44291D03*
X19289Y38780D03*
X09644Y40354D03*
X18797Y39665D03*
X14466Y44390D03*
X14171Y44094D03*
X19289Y39370D03*
X20175Y37697D03*
X26671Y17520D03*
X30726Y13091D03*
X10234Y38583D03*
G54D25*
X25057Y32224D02*
X25057Y32213D01*
G54D26*
X22207Y41933D02*
X21787Y41513D01*
X38474Y42299D02*
X37396Y41221D01*
G54D25*
X25498Y31232D02*
X25742Y30988D01*
X26726Y32228D02*
X26683Y32228D01*
G54D26*
X22490Y35308D02*
X22490Y33869D01*
X33790Y34008D02*
X30485Y30703D01*
X22490Y33869D02*
X24711Y31648D01*
G54D25*
X27159Y32661D02*
X26726Y32228D01*
X25490Y32657D02*
X25057Y32224D01*
X25270Y30882D02*
X25522Y30630D01*
G54D26*
X33790Y35820D02*
X33790Y34008D01*
G54D25*
X25293Y31626D02*
X25746Y31626D01*
G54D26*
X21050Y36748D02*
X22490Y35308D01*
X35840Y38984D02*
X37396Y40540D01*
G54D25*
X26333Y31717D02*
X26341Y31709D01*
G54D26*
X21787Y41513D02*
X21787Y41127D01*
X21787Y41127D02*
X21050Y40390D01*
G54D25*
X25289Y31630D02*
X25293Y31626D01*
X25742Y30988D02*
X25742Y30890D01*
G54D26*
X21050Y40390D02*
X21050Y36748D01*
X37396Y40540D02*
X37396Y41221D01*
G54D25*
X26821Y31236D02*
X26773Y31236D01*
X26341Y31709D02*
X27195Y31709D01*
G54D26*
X35840Y37870D02*
X33790Y35820D01*
G54D25*
X27195Y30862D02*
X26821Y31236D01*
G54D26*
X35840Y37870D02*
X35840Y38984D01*
G54D25*
X25522Y30630D02*
X25522Y30579D01*
X32911Y10591D02*
X32911Y10571D01*
X26903Y30299D02*
X26360Y30842D01*
X26360Y30842D02*
X26360Y30854D01*
X25864Y32240D02*
X25864Y32232D01*
X26309Y32685D02*
X25864Y32240D01*
G54D26*
X31310Y40813D02*
X26390Y40813D01*
X36612Y41437D02*
X35583Y40408D01*
X38474Y43299D02*
X36612Y41437D01*
X17813Y07087D02*
X18600Y07087D01*
X17124Y09941D02*
X15746Y09941D01*
X31715Y40408D02*
X31310Y40813D01*
X18600Y07087D02*
X19388Y06299D01*
X35583Y40408D02*
X31715Y40408D01*
X36612Y41437D02*
X36553Y41378D01*
G54D25*
X39474Y27299D02*
X39474Y27272D01*
X30116Y18110D02*
X28640Y16634D01*
X30116Y20571D02*
X30116Y18110D01*
X38974Y26772D02*
X36317Y26772D01*
X39474Y27272D02*
X38974Y26772D01*
X28640Y16634D02*
X28640Y16437D01*
X36317Y26772D02*
X30116Y20571D01*
X35729Y25299D02*
X30707Y20277D01*
X30707Y17815D02*
X29525Y16633D01*
X29525Y16633D02*
X29525Y16476D01*
X30707Y20277D02*
X30707Y17815D01*
X38474Y25299D02*
X35729Y25299D01*
X29821Y16634D02*
X29821Y16398D01*
X30903Y20179D02*
X30903Y17716D01*
X39474Y25299D02*
X39371Y25299D01*
X39371Y25299D02*
X38875Y24803D01*
X30903Y17716D02*
X29821Y16634D01*
X38875Y24803D02*
X35527Y24803D01*
X35527Y24803D02*
X30903Y20179D01*
X24380Y08848D02*
X24380Y07512D01*
X25783Y13114D02*
X25531Y13366D01*
X17564Y05848D02*
X17562Y05846D01*
X25783Y12547D02*
X24380Y11144D01*
X17651Y05848D02*
X17564Y05848D01*
X25783Y12907D02*
X25783Y13114D01*
X24380Y07512D02*
X23799Y06931D01*
X23799Y06931D02*
X21845Y06931D01*
X20762Y05848D02*
X17651Y05848D01*
X21845Y06931D02*
X20762Y05848D01*
X17651Y05848D02*
X17302Y05848D01*
X24380Y11144D02*
X24380Y08848D01*
X17302Y05848D02*
X17204Y05946D01*
X25783Y12907D02*
X25783Y12547D01*
X28581Y15396D02*
X29031Y15846D01*
X31297Y17223D02*
X30313Y16239D01*
X38974Y23819D02*
X35136Y23819D01*
X30313Y16239D02*
X30313Y16240D01*
X39474Y24299D02*
X39454Y24299D01*
X28581Y14685D02*
X28581Y15396D01*
X29031Y15846D02*
X29919Y15846D01*
X35136Y23819D02*
X31297Y19980D01*
X39454Y24299D02*
X38974Y23819D01*
X30313Y16240D02*
X29919Y15846D01*
X31297Y19980D02*
X31297Y17223D01*
X30510Y16142D02*
X30510Y16142D01*
X29132Y15650D02*
X30018Y15650D01*
X31494Y17126D02*
X30510Y16142D01*
X28817Y15335D02*
X29132Y15650D01*
X34912Y23299D02*
X31494Y19881D01*
X30510Y16142D02*
X30018Y15650D01*
X31494Y19881D02*
X31494Y17126D01*
X28817Y14921D02*
X28817Y15335D01*
X38474Y23299D02*
X34912Y23299D01*
X38474Y27299D02*
X36549Y27299D01*
X36549Y27299D02*
X29919Y20669D01*
X29919Y20669D02*
X29919Y18209D01*
X28344Y16634D02*
X28344Y16437D01*
X29919Y18209D02*
X28344Y16634D01*
X27259Y44731D02*
X27277Y44713D01*
X28680Y43188D02*
X28780Y43188D01*
X29990Y43858D02*
X29990Y43978D01*
X28236Y46301D02*
X28172Y46301D01*
X26592Y45356D02*
X27205Y45356D01*
X31490Y42338D02*
X31490Y42438D01*
X27527Y45718D02*
X28141Y45716D01*
X31690Y44028D02*
X31510Y44208D01*
X27565Y44713D02*
X27540Y44688D01*
X30470Y41318D02*
X31490Y42338D01*
X27518Y45709D02*
X27527Y45718D01*
X26511Y46621D02*
X27124Y46621D01*
X27533Y46319D02*
X26930Y46319D01*
X27542Y46328D02*
X27533Y46319D01*
X28163Y45010D02*
X27560Y45010D01*
X31510Y44208D02*
X31510Y45168D01*
X26917Y44996D02*
X26670Y44749D01*
X31400Y46648D02*
X31400Y46888D01*
X27245Y46013D02*
X27853Y46013D01*
X26921Y45703D02*
X26615Y46009D01*
X28172Y45001D02*
X28163Y45010D01*
X27821Y46639D02*
X27830Y46648D01*
X27830Y46648D02*
X28523Y46648D01*
X27884Y45347D02*
X27911Y45374D01*
X26498Y46634D02*
X26511Y46621D01*
X27540Y44308D02*
X27030Y43798D01*
X29850Y42218D02*
X28980Y41348D01*
X27241Y46009D02*
X27245Y46013D01*
X27540Y44688D02*
X27540Y44308D01*
X28519Y46018D02*
X28236Y46301D01*
X27884Y44713D02*
X27565Y44713D01*
X31010Y43228D02*
X29990Y43858D01*
X27911Y45374D02*
X28541Y45374D01*
X26570Y45334D02*
X26592Y45356D01*
X31870Y46178D02*
X31400Y46648D01*
X26670Y44749D02*
X26516Y44749D01*
X30800Y46178D02*
X30180Y46798D01*
X25660Y41378D02*
X25700Y41338D01*
X27530Y42948D02*
X27530Y42988D01*
X26400Y42228D02*
X26510Y42228D01*
X26935Y45703D02*
X26921Y45703D01*
X25770Y42858D02*
X26400Y42228D01*
X28200Y42278D02*
X27530Y42948D01*
X27970Y43898D02*
X28680Y43188D01*
X27030Y43798D02*
X26750Y43798D01*
X28980Y41348D02*
X28980Y41308D01*
X27277Y44713D02*
X27884Y44713D01*
X25700Y41338D02*
X27230Y41338D01*
X30180Y46798D02*
X30090Y46798D01*
X20175Y13976D02*
X20962Y14764D01*
X18896Y13386D02*
X19486Y13976D01*
X19486Y13976D02*
X20175Y13976D01*
X20569Y14764D02*
X19978Y14173D01*
X18896Y14173D02*
X19978Y14173D01*
X06298Y09843D02*
X06297Y09843D01*
X15746Y10335D02*
X18639Y10335D01*
X19117Y10813D02*
X19787Y10813D01*
X18639Y10335D02*
X19117Y10813D01*
X00911Y07120D02*
X00700Y07331D01*
X00700Y07331D02*
X00700Y08069D01*
X21888Y05393D02*
X21887Y05394D01*
X02874Y06358D02*
X02112Y07120D01*
X13464Y05393D02*
X12515Y06342D01*
X02112Y07120D02*
X00911Y07120D01*
X21888Y05393D02*
X13464Y05393D01*
X12515Y06342D02*
X12499Y06358D01*
X00700Y08069D02*
X01248Y08617D01*
X12499Y06358D02*
X02874Y06358D01*
X22301Y04980D02*
X21888Y05393D01*
X23108Y04980D02*
X22301Y04980D01*
X34939Y17717D02*
X34939Y18504D01*
X37989Y16240D02*
X36416Y16240D01*
X38088Y16339D02*
X37989Y16240D01*
X36416Y16240D02*
X34939Y17717D01*
X39663Y15551D02*
X39171Y16043D01*
X34644Y17716D02*
X34644Y19094D01*
X39171Y16043D02*
X36317Y16043D01*
X36317Y16043D02*
X34644Y17716D01*
X33856Y18701D02*
X33856Y17717D01*
X33561Y18898D02*
X33561Y17913D01*
X34151Y18504D02*
X34151Y17913D01*
X07600Y05268D02*
X08540Y05268D01*
X08220Y03848D02*
X07720Y04348D01*
X08563Y04331D02*
X08610Y04378D01*
X09090Y04818D02*
X08080Y04818D01*
X07520Y05188D02*
X07600Y05268D01*
X07720Y04348D02*
X07520Y04348D01*
G54D27*
X01248Y04617D02*
X05601Y04617D01*
G54D25*
X07510Y03378D02*
X08640Y03378D01*
X09190Y03858D02*
X09190Y03918D01*
X09660Y03388D02*
X09190Y03858D01*
X08610Y04378D02*
X09600Y04378D01*
X07500Y03388D02*
X07510Y03378D01*
G54D27*
X05601Y04617D02*
X05640Y04578D01*
G54D25*
X15254Y06102D02*
X19191Y10039D01*
X22732Y10004D02*
X22734Y12205D01*
X19191Y10039D02*
X19573Y10039D01*
X22734Y12205D02*
X23127Y12598D01*
X23127Y12598D02*
X23226Y12598D01*
G54D28*
X15844Y44094D02*
X15844Y43800D01*
X16779Y14026D02*
X16779Y21801D01*
X15549Y20866D02*
X15844Y20866D01*
X17911Y36210D02*
X17911Y37894D01*
X15844Y20866D02*
X16779Y21801D01*
X15155Y07283D02*
X15155Y07835D01*
X16927Y37894D02*
X17911Y37894D01*
X15451Y12697D02*
X15450Y12697D01*
X16927Y30118D02*
X17911Y30118D01*
X16779Y21801D02*
X17911Y22933D01*
X15155Y12008D02*
X15155Y07835D01*
X15844Y28248D02*
X15844Y29035D01*
G54D27*
X14112Y46428D02*
X14112Y45610D01*
G54D25*
X15451Y44094D02*
X15844Y44094D01*
G54D28*
X15155Y12402D02*
X15155Y12008D01*
X17911Y37894D02*
X17911Y42815D01*
X17911Y22933D02*
X17911Y30118D01*
X15844Y29035D02*
X16927Y30118D01*
G54D25*
X27990Y39198D02*
X26940Y38148D01*
G54D28*
X15451Y12697D02*
X15450Y12697D01*
G54D25*
X30360Y36718D02*
X29510Y36718D01*
X29560Y37758D02*
X29150Y37348D01*
G54D28*
X15155Y07821D02*
X15155Y07835D01*
G54D25*
X26980Y35928D02*
X26980Y35918D01*
X30380Y36698D02*
X30360Y36718D01*
X29130Y38278D02*
X29160Y38248D01*
X29790Y34518D02*
X29790Y34398D01*
X29990Y37318D02*
X30820Y37318D01*
G54D28*
X16829Y42815D02*
X17911Y42815D01*
X15943Y36319D02*
X15943Y36910D01*
G54D25*
X29160Y38248D02*
X29940Y38248D01*
X32720Y36988D02*
X33670Y37938D01*
X28880Y35428D02*
X29790Y34518D01*
G54D28*
X17912Y42815D02*
X17911Y42815D01*
G54D25*
X29110Y36288D02*
X29970Y36288D01*
X25910Y39158D02*
X25890Y39138D01*
X29100Y36298D02*
X29110Y36288D01*
X33670Y37938D02*
X33750Y37938D01*
X31570Y34458D02*
X31750Y34458D01*
X33150Y36068D02*
X31700Y36068D01*
X30270Y37788D02*
X30270Y37758D01*
G54D28*
X15175Y07801D02*
X15155Y07821D01*
G54D25*
X26000Y34738D02*
X28130Y34738D01*
X25970Y34708D02*
X26000Y34738D01*
G54D28*
X15943Y36910D02*
X16927Y37894D01*
G54D25*
X30720Y35308D02*
X31570Y34458D01*
G54D28*
X15451Y12698D02*
X15451Y12697D01*
X15450Y12697D02*
X15155Y12402D01*
G54D25*
X25890Y39138D02*
X25890Y37018D01*
G54D28*
X17912Y42963D02*
X17912Y42815D01*
G54D25*
X33260Y35958D02*
X33150Y36068D01*
X28040Y36988D02*
X26980Y35928D01*
X26940Y38148D02*
X26940Y38118D01*
G54D27*
X14114Y46430D02*
X14112Y46428D01*
G54D25*
X30740Y38258D02*
X30270Y37788D01*
G54D28*
X15844Y43800D02*
X16829Y42815D01*
X15155Y12008D02*
X15155Y12402D01*
G54D25*
X29150Y37348D02*
X29090Y37348D01*
G54D28*
X17911Y30709D02*
X17911Y36210D01*
G54D25*
X18599Y36210D02*
X17911Y36210D01*
G54D28*
X15451Y12698D02*
X16779Y14026D01*
X17911Y30118D02*
X17911Y30709D01*
G54D25*
X25195Y06398D02*
X25195Y07579D01*
X31691Y10236D02*
X31691Y11320D01*
X31986Y11615D02*
X31986Y13681D01*
X31691Y11320D02*
X31986Y11615D01*
X27951Y06496D02*
X28148Y06693D01*
X27951Y06299D02*
X27951Y06496D01*
X28148Y06693D02*
X31691Y10236D01*
X20651Y14059D02*
X21947Y15355D01*
X20651Y07829D02*
X20651Y14059D01*
X21947Y15355D02*
X21947Y15945D01*
X27459Y19390D02*
X27459Y19981D01*
X30510Y10788D02*
X27459Y13839D01*
X27459Y13839D02*
X27459Y19390D01*
X30510Y10433D02*
X30510Y10788D01*
X27459Y19981D02*
X27557Y20079D01*
X21061Y08859D02*
X21061Y13386D01*
X21061Y13386D02*
X21061Y13878D01*
X21061Y13878D02*
X22537Y15354D01*
X22151Y07769D02*
X21061Y08859D01*
X22151Y07829D02*
X22151Y07769D01*
X22537Y15354D02*
X22537Y15945D01*
X21258Y09055D02*
X21258Y13386D01*
X22833Y15355D02*
X22833Y16043D01*
X21750Y08563D02*
X21258Y09055D01*
X21258Y13386D02*
X21258Y13780D01*
X21258Y13780D02*
X22833Y15355D01*
X21651Y07829D02*
X21651Y07973D01*
X20864Y08760D02*
X20864Y13386D01*
X20864Y13977D02*
X22242Y15355D01*
X20864Y13386D02*
X20864Y13977D01*
X21651Y07973D02*
X20864Y08760D01*
X22242Y15355D02*
X22242Y16043D01*
X37202Y13189D02*
X37104Y13091D01*
X32971Y07186D02*
X33561Y07776D01*
X37104Y13091D02*
X36101Y13091D01*
X33561Y07776D02*
X33561Y10551D01*
X37203Y13189D02*
X37202Y13189D01*
X32600Y07028D02*
X32758Y07186D01*
X32971Y07186D02*
X32758Y07186D01*
X36101Y13091D02*
X33561Y10551D01*
X36848Y12539D02*
X35628Y11319D01*
X36907Y12598D02*
X36907Y12795D01*
X33600Y07028D02*
X33601Y07028D01*
X35628Y07796D02*
X35628Y11319D01*
X33601Y07028D02*
X34093Y07520D01*
X36848Y12539D02*
X36907Y12598D01*
X34093Y07520D02*
X35352Y07520D01*
X35352Y07520D02*
X35628Y07796D01*
X35037Y14370D02*
X31888Y11221D01*
X33069Y05119D02*
X33069Y02928D01*
X31888Y11221D02*
X31888Y06300D01*
X31888Y06300D02*
X33069Y05119D01*
X33069Y02928D02*
X32740Y02599D01*
X35431Y11418D02*
X35431Y08361D01*
X36474Y12461D02*
X35431Y11418D01*
X36474Y12461D02*
X36475Y12461D01*
X36475Y12461D02*
X36514Y12500D01*
X35431Y08361D02*
X35098Y08028D01*
X36514Y12500D02*
X36514Y12795D01*
X32085Y06470D02*
X35956Y02599D01*
X34938Y13976D02*
X32085Y11123D01*
X32085Y11123D02*
X32085Y06470D01*
X35136Y14075D02*
X35037Y13976D01*
X35037Y13976D02*
X34938Y13976D01*
X36514Y16634D02*
X36514Y17815D01*
X33364Y10630D02*
X33364Y08294D01*
X36120Y13386D02*
X33364Y10630D01*
X36907Y13386D02*
X36120Y13386D01*
X33364Y08294D02*
X33098Y08028D01*
X19790Y00785D02*
X19779Y00785D01*
X19779Y00785D02*
X19781Y00787D01*
X39474Y39279D02*
X38975Y38780D01*
X37892Y37992D02*
X37498Y37598D01*
X24998Y20571D02*
X24998Y20374D01*
X35411Y33247D02*
X24999Y22835D01*
X24899Y22736D02*
X24899Y20670D01*
X37498Y37598D02*
X37498Y37205D01*
X24999Y22835D02*
X24998Y22834D01*
X36976Y36683D02*
X36976Y36289D01*
X24999Y22835D02*
X24998Y22835D01*
X24899Y20670D02*
X24998Y20571D01*
X35411Y34724D02*
X35411Y33247D01*
X24998Y22835D02*
X24899Y22736D01*
X38187Y38780D02*
X37892Y38485D01*
X36976Y36289D02*
X35411Y34724D01*
X38975Y38780D02*
X38187Y38780D01*
X39474Y39299D02*
X39474Y39279D01*
X37892Y38485D02*
X37892Y37992D01*
X37498Y37205D02*
X36976Y36683D01*
X38411Y39299D02*
X37695Y38583D01*
X36750Y36359D02*
X35195Y34804D01*
X37695Y38583D02*
X37695Y38091D01*
X36750Y36752D02*
X36750Y36359D01*
X24801Y22933D02*
X24703Y22835D01*
X37301Y37303D02*
X36750Y36752D01*
X24703Y22835D02*
X24703Y20472D01*
X37301Y37697D02*
X37301Y37303D01*
X35195Y33327D02*
X24801Y22933D01*
X37695Y38091D02*
X37301Y37697D01*
X38474Y39299D02*
X38411Y39299D01*
X35195Y34804D02*
X35195Y33327D01*
X27459Y22343D02*
X27459Y22146D01*
X28738Y23622D02*
X27459Y22343D01*
X28836Y23622D02*
X28738Y23622D01*
X27754Y16634D02*
X27754Y16437D01*
X29525Y20866D02*
X29525Y18405D01*
X36958Y28299D02*
X29525Y20866D01*
X29525Y18405D02*
X27754Y16634D01*
X38474Y28299D02*
X36958Y28299D01*
X39419Y28299D02*
X38934Y27814D01*
X38934Y27814D02*
X36769Y27814D01*
X28049Y16634D02*
X28049Y16535D01*
X36769Y27814D02*
X29722Y20767D01*
X29722Y18307D02*
X28049Y16634D01*
X39474Y28299D02*
X39419Y28299D01*
X29722Y20767D02*
X29722Y18307D01*
X25397Y13666D02*
X25166Y13435D01*
X24962Y12082D02*
X23650Y10770D01*
X20255Y10372D02*
X20255Y10156D01*
X25090Y12082D02*
X24962Y12082D01*
X29264Y18661D02*
X29264Y18422D01*
X20255Y10156D02*
X16622Y06523D01*
X26237Y17114D02*
X26102Y17114D01*
X29264Y18422D02*
X28140Y17298D01*
X16622Y06523D02*
X16622Y06088D01*
X23650Y10536D02*
X23321Y10207D01*
X26102Y17114D02*
X25397Y16409D01*
X25421Y12592D02*
X25421Y12413D01*
X25166Y13435D02*
X25166Y12847D01*
X25166Y12847D02*
X25421Y12592D01*
X25397Y16409D02*
X25397Y13666D01*
X23650Y10770D02*
X23650Y10536D01*
X28140Y17298D02*
X27798Y17298D01*
X25421Y12413D02*
X25090Y12082D01*
X30707Y16044D02*
X30116Y15453D01*
X30707Y16043D02*
X30707Y16044D01*
X31691Y19782D02*
X31691Y17027D01*
X29230Y15453D02*
X30116Y15453D01*
X31691Y17027D02*
X30707Y16043D01*
X29053Y15276D02*
X29230Y15453D01*
X34744Y22835D02*
X31691Y19782D01*
X38974Y22835D02*
X34744Y22835D01*
X39438Y23299D02*
X38974Y22835D01*
X29053Y15157D02*
X29053Y15276D01*
X39474Y23299D02*
X39438Y23299D01*
X34502Y22299D02*
X31888Y19685D01*
X29526Y15256D02*
X29427Y15157D01*
X30215Y15256D02*
X29526Y15256D01*
X31888Y16929D02*
X30903Y15944D01*
X38474Y22299D02*
X34502Y22299D01*
X30903Y15944D02*
X30903Y15944D01*
X31888Y19685D02*
X31888Y16929D01*
X30903Y15944D02*
X30215Y15256D01*
X32085Y16831D02*
X29821Y14567D01*
X29821Y14567D02*
X29821Y13681D01*
X39474Y22299D02*
X39423Y22299D01*
X34310Y21811D02*
X32085Y19586D01*
X32085Y19586D02*
X32085Y16831D01*
X39423Y22299D02*
X38935Y21811D01*
X38935Y21811D02*
X34310Y21811D01*
X34094Y21299D02*
X32281Y19486D01*
X34094Y21299D02*
X38474Y21299D01*
X30126Y13769D02*
X30126Y14577D01*
X32281Y19486D02*
X32281Y16732D01*
X30126Y14577D02*
X32281Y16732D01*
X30126Y13769D02*
X30175Y13720D01*
X32478Y19390D02*
X32478Y15827D01*
X38895Y20787D02*
X33875Y20787D01*
X33875Y20787D02*
X32478Y19390D01*
X39407Y21299D02*
X38895Y20787D01*
X30608Y13957D02*
X32478Y15827D01*
X30411Y13957D02*
X30608Y13957D01*
X39407Y21299D02*
X39474Y21299D01*
X30707Y13780D02*
X30707Y13583D01*
X30707Y13781D02*
X30707Y13583D01*
X32675Y19291D02*
X32675Y15748D01*
X33684Y20299D02*
X33683Y20299D01*
X32675Y15748D02*
X30707Y13780D01*
X33683Y20299D02*
X32675Y19291D01*
X38474Y20299D02*
X33684Y20299D01*
X32872Y15650D02*
X31002Y13780D01*
X37892Y19980D02*
X33659Y19980D01*
X38089Y19783D02*
X37892Y19980D01*
X32872Y19193D02*
X32872Y15650D01*
X38875Y19783D02*
X38089Y19783D01*
X33659Y19980D02*
X32872Y19193D01*
X31002Y13780D02*
X31002Y13681D01*
X39391Y20299D02*
X38875Y19783D01*
X39391Y20299D02*
X39474Y20299D01*
X33659Y19685D02*
X33069Y19095D01*
X33069Y15550D02*
X31297Y13778D01*
X37695Y19685D02*
X33659Y19685D01*
X38474Y19299D02*
X38081Y19299D01*
X33069Y19095D02*
X33069Y15550D01*
X31297Y13778D02*
X31297Y13583D01*
X38081Y19299D02*
X37695Y19685D01*
X33266Y15453D02*
X31592Y13779D01*
X39474Y19299D02*
X38955Y18780D01*
X33266Y18997D02*
X33266Y15453D01*
X37498Y19390D02*
X33659Y19390D01*
X38955Y18780D02*
X38108Y18780D01*
X33659Y19390D02*
X33266Y18997D01*
X31592Y13779D02*
X31592Y13681D01*
X38108Y18780D02*
X37498Y19390D01*
X36612Y34154D02*
X38245Y35787D01*
X24171Y16397D02*
X26277Y18503D01*
X26277Y22342D02*
X36612Y32677D01*
X26277Y18503D02*
X26277Y22342D01*
X36612Y32677D02*
X36612Y34154D01*
X38245Y35787D02*
X38962Y35787D01*
X24171Y14016D02*
X24171Y14016D01*
X24171Y14016D02*
X24171Y13858D01*
X24171Y14016D02*
X24171Y16397D01*
X38962Y35787D02*
X39474Y36299D01*
X37596Y31299D02*
X27852Y21555D01*
X27852Y21555D02*
X27852Y19389D01*
X38474Y31299D02*
X37596Y31299D01*
X27852Y19389D02*
X27754Y19291D01*
X24486Y13996D02*
X24486Y16417D01*
X24486Y13996D02*
X24486Y13996D01*
X36809Y33268D02*
X36809Y34057D01*
X36809Y34057D02*
X38051Y35299D01*
X24486Y16417D02*
X26474Y18405D01*
X24486Y13996D02*
X24486Y13858D01*
X26474Y18405D02*
X26474Y22243D01*
X36809Y32578D02*
X36809Y33268D01*
X26474Y22243D02*
X36809Y32578D01*
X38051Y35299D02*
X38474Y35299D01*
X37006Y33957D02*
X37852Y34803D01*
X24801Y13976D02*
X24801Y16437D01*
X37006Y32480D02*
X37006Y33957D01*
X24801Y16437D02*
X26671Y18307D01*
X37852Y34803D02*
X38978Y34803D01*
X26671Y22145D02*
X37006Y32480D01*
X24801Y13976D02*
X24801Y13976D01*
X24801Y13976D02*
X24801Y13858D01*
X26671Y18307D02*
X26671Y22145D01*
X38978Y34803D02*
X39474Y35299D01*
X37643Y34299D02*
X38474Y34299D01*
X37203Y33859D02*
X37643Y34299D01*
X25116Y13957D02*
X25116Y16457D01*
X26868Y18209D02*
X26868Y22047D01*
X25116Y16457D02*
X26868Y18209D01*
X25116Y13957D02*
X25116Y13957D01*
X25116Y13957D02*
X25116Y13858D01*
X37203Y32382D02*
X37203Y33859D01*
X26868Y22047D02*
X37203Y32382D01*
X23915Y13681D02*
X23915Y16437D01*
X23915Y16437D02*
X26081Y18603D01*
X36415Y32775D02*
X36415Y34252D01*
X26081Y22441D02*
X36415Y32775D01*
X36415Y34252D02*
X38462Y36299D01*
X38474Y36299D02*
X38462Y36299D01*
X26081Y18603D02*
X26081Y22441D01*
X25096Y12500D02*
X23915Y13681D01*
X20374Y29195D02*
X19669Y29900D01*
X19059Y32980D02*
X19059Y36195D01*
X19669Y32370D02*
X19059Y32980D01*
X20374Y21315D02*
X20374Y29195D01*
X19669Y32320D02*
X19669Y32370D01*
X19669Y29900D02*
X19669Y32320D01*
X24407Y17421D02*
X24394Y17408D01*
X37482Y38212D02*
X37482Y38681D01*
X23128Y15945D02*
X23128Y16142D01*
X24394Y17408D02*
X23128Y16142D01*
X34970Y33370D02*
X34970Y34870D01*
X21455Y12402D02*
X21455Y12816D01*
X37482Y38681D02*
X37829Y39028D01*
X23128Y15945D02*
X23128Y14489D01*
X24394Y17408D02*
X24394Y22794D01*
X37482Y38681D02*
X37482Y38669D01*
X21455Y12816D02*
X23128Y14489D01*
X37829Y39028D02*
X37829Y39173D01*
X24394Y22794D02*
X34970Y33370D01*
X36506Y36406D02*
X36506Y36768D01*
X36506Y36768D02*
X37057Y37319D01*
X20864Y02461D02*
X22537Y04134D01*
X34970Y34870D02*
X36506Y36406D01*
X17420Y02461D02*
X20864Y02461D01*
X22651Y08056D02*
X21455Y09252D01*
X22651Y08056D02*
X22651Y07829D01*
X17321Y02362D02*
X17420Y02461D01*
X37057Y37787D02*
X37482Y38212D01*
X37057Y37319D02*
X37057Y37787D01*
X21455Y09252D02*
X21455Y12402D01*
X37793Y36319D02*
X38285Y36811D01*
X36218Y32874D02*
X36218Y34350D01*
X25825Y22482D02*
X29603Y26260D01*
X29604Y26260D02*
X36218Y32874D01*
X25825Y21694D02*
X25785Y21654D01*
X25825Y22482D02*
X25825Y21694D01*
X29603Y26260D02*
X29604Y26260D01*
X38285Y36811D02*
X38986Y36811D01*
X37793Y35925D02*
X36218Y34350D01*
X39474Y37299D02*
X38986Y36811D01*
X37793Y36319D02*
X37793Y35925D01*
X25588Y20571D02*
X25588Y20374D01*
X37892Y37008D02*
X37399Y36515D01*
X39474Y38299D02*
X39474Y38295D01*
X37399Y36121D02*
X35825Y34547D01*
X38974Y37795D02*
X38285Y37795D01*
X37399Y36515D02*
X37399Y36121D01*
X38285Y37795D02*
X37892Y37402D01*
X39474Y38295D02*
X38974Y37795D01*
X25293Y22539D02*
X25293Y20866D01*
X35825Y33071D02*
X25293Y22539D01*
X25293Y20866D02*
X25588Y20571D01*
X37892Y37402D02*
X37892Y37008D01*
X35825Y34547D02*
X35825Y33071D01*
X38935Y28800D02*
X36574Y28800D01*
X28836Y18306D02*
X28345Y17815D01*
X36574Y28800D02*
X28836Y21062D01*
X28345Y17815D02*
X27951Y17815D01*
X28836Y21062D02*
X28836Y18306D01*
X39434Y29299D02*
X38935Y28800D01*
X39474Y29299D02*
X39434Y29299D01*
X28640Y21162D02*
X28640Y18406D01*
X38474Y29299D02*
X36777Y29299D01*
X36777Y29299D02*
X28640Y21162D01*
X28640Y18406D02*
X28344Y18110D01*
X28344Y18110D02*
X28148Y18110D01*
X28245Y18701D02*
X28148Y18701D01*
X28246Y18702D02*
X28245Y18701D01*
X38474Y30299D02*
X37187Y30299D01*
X28246Y21358D02*
X28246Y18799D01*
X37187Y30299D02*
X28246Y21358D01*
X28246Y18799D02*
X28246Y18702D01*
X38974Y30807D02*
X37400Y30807D01*
X28049Y19094D02*
X28049Y21456D01*
X37400Y30807D02*
X28049Y21456D01*
X27951Y18996D02*
X28049Y19094D01*
X39466Y31299D02*
X38974Y30807D01*
X39474Y31299D02*
X39466Y31299D01*
X27852Y18996D02*
X27951Y18996D01*
X28443Y18505D02*
X28344Y18406D01*
X28344Y18406D02*
X27951Y18406D01*
X37006Y29823D02*
X28443Y21260D01*
X39352Y30299D02*
X38876Y29823D01*
X38876Y29823D02*
X37006Y29823D01*
X39474Y30299D02*
X39352Y30299D01*
X28443Y21260D02*
X28443Y18505D01*
X34308Y33640D02*
X28818Y28150D01*
X35825Y37059D02*
X35825Y36634D01*
X28818Y28150D02*
X21060Y28150D01*
X39474Y41299D02*
X39427Y41299D01*
X37892Y40454D02*
X37892Y40211D01*
X37892Y40211D02*
X37144Y39463D01*
X38915Y40787D02*
X38225Y40787D01*
X37144Y39463D02*
X37144Y39229D01*
X20077Y30710D02*
X20077Y30413D01*
X34308Y35117D02*
X34308Y33640D01*
X21060Y28150D02*
X20766Y28444D01*
X37144Y39229D02*
X36710Y38795D01*
X20273Y30906D02*
X20077Y30710D01*
X20077Y30413D02*
X20766Y29724D01*
X38225Y40787D02*
X37892Y40454D01*
X20766Y29724D02*
X20766Y28445D01*
X20766Y28444D02*
X20766Y28445D01*
X36710Y38795D02*
X36710Y38440D01*
X23817Y23228D02*
X23817Y19685D01*
X36396Y37630D02*
X35825Y37059D01*
X35825Y36634D02*
X34308Y35117D01*
X36396Y38126D02*
X36396Y37630D01*
X36710Y38440D02*
X36396Y38126D01*
X39427Y41299D02*
X38915Y40787D01*
X35922Y25787D02*
X30510Y20375D01*
X38974Y25787D02*
X35922Y25787D01*
X29230Y16634D02*
X29230Y16437D01*
X30510Y20375D02*
X30510Y17914D01*
X39474Y26299D02*
X39474Y26287D01*
X30510Y17914D02*
X29230Y16634D01*
X39474Y26287D02*
X38974Y25787D01*
X37695Y40470D02*
X37695Y40325D01*
X35588Y37152D02*
X35588Y36685D01*
X35588Y36685D02*
X34073Y35170D01*
X37695Y40325D02*
X36907Y39537D01*
X34073Y33760D02*
X28659Y28346D01*
X36907Y39537D02*
X36907Y39338D01*
X38443Y41299D02*
X37695Y40551D01*
X36183Y37747D02*
X35588Y37152D01*
X34073Y35170D02*
X34073Y33760D01*
X36183Y38268D02*
X36183Y37747D01*
X28659Y28346D02*
X21455Y28346D01*
X36486Y38917D02*
X36486Y38571D01*
X21061Y29823D02*
X21061Y28740D01*
X21455Y28346D02*
X21061Y28740D01*
X20372Y30512D02*
X21061Y29823D01*
X36907Y39338D02*
X36486Y38917D01*
X38474Y41299D02*
X38443Y41299D01*
X36486Y38571D02*
X36183Y38268D01*
X37695Y40551D02*
X37695Y40470D01*
X30313Y18012D02*
X28935Y16634D01*
X36140Y26299D02*
X30313Y20472D01*
X30313Y20472D02*
X30313Y18012D01*
X38474Y26299D02*
X36140Y26299D01*
X28935Y16634D02*
X28935Y16535D01*
X37596Y36023D02*
X36022Y34449D01*
X38474Y37299D02*
X38474Y37295D01*
X37596Y36417D02*
X37596Y36023D01*
X36022Y32973D02*
X25490Y22441D01*
X36022Y34449D02*
X36022Y32973D01*
X38474Y37295D02*
X37596Y36417D01*
X25490Y22441D02*
X25490Y21456D01*
X25490Y21456D02*
X25785Y21161D01*
X37203Y36614D02*
X37203Y36221D01*
X25096Y20768D02*
X25293Y20571D01*
X35628Y33169D02*
X25195Y22736D01*
X25096Y22638D02*
X25096Y20768D01*
X37203Y36221D02*
X35628Y34646D01*
X37695Y37500D02*
X37695Y37106D01*
X35628Y34646D02*
X35628Y33169D01*
X25195Y22736D02*
X25194Y22736D01*
X38474Y38299D02*
X38474Y38279D01*
X25194Y22736D02*
X25096Y22638D01*
X25293Y20571D02*
X25293Y20276D01*
X37695Y37106D02*
X37203Y36614D01*
X38474Y38279D02*
X37695Y37500D01*
X22439Y09504D02*
X22439Y13189D01*
X23029Y06299D02*
X23029Y06299D01*
X22439Y13189D02*
X22537Y13287D01*
X23423Y08169D02*
X23423Y08520D01*
X22537Y06299D02*
X23029Y06299D01*
X23423Y08520D02*
X22439Y09504D01*
X22340Y06102D02*
X22537Y06299D01*
X24241Y06539D02*
X24243Y06541D01*
X22218Y06541D02*
X22216Y06539D01*
X26376Y12487D02*
X26376Y16535D01*
X22216Y06539D02*
X24241Y06539D01*
X19486Y02756D02*
X20864Y04134D01*
X24243Y06541D02*
X24785Y07083D01*
X22216Y06539D02*
X21962Y06285D01*
X24785Y07083D02*
X24785Y10896D01*
X24785Y10896D02*
X26376Y12487D01*
X21990Y06736D02*
X23907Y06736D01*
X24604Y07433D02*
X24604Y11088D01*
X21726Y06472D02*
X21990Y06736D01*
X21726Y05986D02*
X21726Y06472D01*
X24604Y11088D02*
X26081Y12565D01*
X26081Y12565D02*
X26081Y15846D01*
X23907Y06736D02*
X24604Y07433D01*
X21726Y05986D02*
X21733Y05993D01*
X36624Y38033D02*
X36624Y37508D01*
X38275Y40299D02*
X37352Y39376D01*
X36624Y37508D02*
X36061Y36945D01*
X38474Y40299D02*
X38275Y40299D01*
X28916Y27913D02*
X34546Y33543D01*
X36061Y36564D02*
X34546Y35049D01*
X27951Y27913D02*
X28916Y27913D01*
X36911Y38320D02*
X36624Y38033D01*
X34546Y33543D02*
X34546Y35049D01*
X21159Y18996D02*
X21159Y21121D01*
X37352Y39129D02*
X36911Y38688D01*
X36061Y36945D02*
X36061Y36564D01*
X21159Y21121D02*
X27951Y27913D01*
X36911Y38688D02*
X36911Y38320D01*
X21159Y18996D02*
X21159Y18996D01*
X37352Y39376D02*
X37352Y39129D01*
X34762Y34949D02*
X36297Y36484D01*
X24998Y24528D02*
X24998Y24606D01*
X37545Y39291D02*
X37545Y39029D01*
X24998Y24606D02*
X28059Y27667D01*
X38978Y39803D02*
X39474Y40299D01*
X37151Y38215D02*
X36821Y37885D01*
X37545Y39029D02*
X37151Y38635D01*
X28984Y27667D02*
X28994Y27677D01*
X34762Y33445D02*
X34762Y34949D01*
X38978Y39803D02*
X38057Y39803D01*
X38057Y39803D02*
X37545Y39291D01*
X36297Y36835D02*
X36821Y37359D01*
X28059Y27667D02*
X28984Y27667D01*
X36821Y37885D02*
X36821Y37359D01*
X28994Y27677D02*
X34762Y33445D01*
X37151Y38635D02*
X37151Y38215D01*
X36297Y36484D02*
X36297Y36835D01*
G54D26*
X19191Y04232D02*
X18403Y04232D01*
G54D25*
X25588Y10235D02*
X25884Y10531D01*
X25588Y08957D02*
X25588Y10235D01*
X25785Y08760D02*
X25588Y08957D01*
X28600Y10197D02*
X28600Y07815D01*
X12637Y06594D02*
X13621Y05610D01*
X03796Y06594D02*
X02773Y07617D01*
X12637Y06594D02*
X03796Y06594D01*
X02773Y07617D02*
X01248Y07617D01*
X29033Y10630D02*
X28600Y10197D01*
X28600Y07815D02*
X26395Y05610D01*
X26395Y05610D02*
X26081Y05610D01*
X26081Y05610D02*
X16533Y05610D01*
X13621Y05610D02*
X16533Y05610D01*
X31396Y10354D02*
X31396Y11810D01*
X29033Y10630D02*
X29486Y10177D01*
X27262Y21261D02*
X27262Y21260D01*
X31396Y11810D02*
X30667Y12539D01*
X27163Y10630D02*
X26966Y10827D01*
X29033Y10630D02*
X27163Y10630D01*
X27262Y21260D02*
X27262Y13681D01*
X27262Y13681D02*
X29033Y11910D01*
X29033Y11910D02*
X29033Y10630D01*
X28836Y23228D02*
X28836Y22834D01*
X29486Y10177D02*
X31219Y10177D01*
X27262Y21260D02*
X28836Y22834D01*
X31219Y10177D02*
X31396Y10354D01*
G54D27*
X10332Y27359D02*
X10332Y29625D01*
X10628Y33169D02*
X11317Y32480D01*
X10333Y33953D02*
X10333Y33464D01*
X10333Y21654D02*
X10333Y19389D01*
G54D29*
X10333Y27362D02*
X10332Y27361D01*
X10331Y18012D02*
X10331Y18009D01*
X10333Y43209D02*
X10333Y43208D01*
G54D27*
X10334Y43207D02*
X10334Y41829D01*
G54D29*
X10332Y27361D02*
X10332Y27359D01*
X10333Y35335D02*
X10333Y35331D01*
G54D27*
X10628Y17322D02*
X10972Y16978D01*
X10331Y19387D02*
X10331Y18009D01*
X10529Y33268D02*
X10579Y33218D01*
X10628Y41043D02*
X10529Y41142D01*
X10334Y41337D02*
X10628Y41043D01*
G54D29*
X10333Y25984D02*
X10332Y25984D01*
G54D27*
X10332Y29625D02*
X10333Y29626D01*
X10333Y33953D02*
X10333Y35331D01*
G54D29*
X10333Y33957D02*
X10333Y33953D01*
G54D27*
X10332Y25591D02*
X10972Y24951D01*
X10332Y25981D02*
X10332Y27359D01*
G54D29*
X10333Y19390D02*
X10331Y19388D01*
G54D25*
X10529Y41142D02*
X10628Y41043D01*
G54D27*
X10331Y17619D02*
X10628Y17322D01*
X10579Y41092D02*
X11317Y40354D01*
X10333Y19389D02*
X10331Y19387D01*
G54D29*
X10333Y18012D02*
X10331Y18012D01*
G54D27*
X10333Y37598D02*
X10333Y35331D01*
X10972Y16978D02*
X11415Y16535D01*
X10579Y33218D02*
X10628Y33169D01*
G54D25*
X10628Y41043D02*
X10529Y41142D01*
G54D29*
X10332Y25984D02*
X10332Y25981D01*
X10331Y19388D02*
X10331Y19387D01*
G54D27*
X10334Y41829D02*
X10334Y41337D01*
X10333Y45417D02*
X10333Y43208D01*
X10972Y24951D02*
X11415Y24508D01*
X10333Y33464D02*
X10529Y33268D01*
X10331Y18009D02*
X10331Y17619D01*
X10529Y41142D02*
X10579Y41092D01*
X10332Y25981D02*
X10332Y25591D01*
X10333Y43208D02*
X10334Y43207D01*
G54D25*
X10828Y45816D02*
X16924Y45816D01*
X10696Y45736D02*
X16893Y45736D01*
X10678Y45656D02*
X16850Y45656D01*
X10678Y45576D02*
X16848Y45576D01*
X10678Y45496D02*
X16848Y45496D01*
X10683Y45416D02*
X16848Y45416D01*
X10683Y45336D02*
X16848Y45336D01*
X10683Y45256D02*
X16848Y45256D01*
X10683Y45176D02*
X16848Y45176D01*
X10683Y45096D02*
X16848Y45096D01*
X10683Y45016D02*
X16848Y45016D01*
X10683Y44936D02*
X16848Y44936D01*
X10683Y44856D02*
X16848Y44856D01*
X10683Y44776D02*
X16864Y44776D01*
X10683Y44696D02*
X16973Y44696D01*
X10683Y44616D02*
X14321Y44616D01*
X14610Y44616D02*
X17074Y44616D01*
X10683Y44536D02*
X10715Y44536D01*
X10933Y44536D02*
X14241Y44536D01*
X14690Y44536D02*
X17074Y44536D01*
X11037Y44456D02*
X14205Y44456D01*
X14726Y44456D02*
X17074Y44456D01*
X11080Y44376D02*
X14198Y44376D01*
X14734Y44376D02*
X17074Y44376D01*
X11093Y44296D02*
X13994Y44296D01*
X14718Y44296D02*
X17074Y44296D01*
X11083Y44216D02*
X13931Y44216D01*
X14672Y44216D02*
X17074Y44216D01*
X11044Y44136D02*
X13905Y44136D01*
X14551Y44136D02*
X17074Y44136D01*
X10683Y44056D02*
X10693Y44056D01*
X10955Y44056D02*
X13906Y44056D01*
X14437Y44056D02*
X14486Y44056D01*
X14645Y44056D02*
X17074Y44056D01*
X10683Y43976D02*
X13930Y43976D01*
X14767Y43976D02*
X17074Y43976D01*
X10683Y43896D02*
X13990Y43896D01*
X14815Y43896D02*
X17074Y43896D01*
X10683Y43816D02*
X14297Y43816D01*
X14833Y43816D02*
X14833Y43816D01*
X14833Y43816D02*
X17074Y43816D01*
X10683Y43736D02*
X14305Y43736D01*
X14826Y43736D02*
X14833Y43736D01*
X14833Y43736D02*
X17074Y43736D01*
X10683Y43656D02*
X14339Y43656D01*
X14793Y43656D02*
X14833Y43656D01*
X14833Y43656D02*
X17074Y43656D01*
X10683Y43576D02*
X14416Y43576D01*
X14714Y43576D02*
X14833Y43576D01*
X14833Y43576D02*
X17074Y43576D01*
X10683Y43496D02*
X13981Y43496D01*
X14361Y43496D02*
X14833Y43496D01*
X14833Y43496D02*
X17074Y43496D01*
X10683Y43416D02*
X13925Y43416D01*
X14416Y43416D02*
X14833Y43416D01*
X14833Y43416D02*
X17074Y43416D01*
X10683Y43336D02*
X13903Y43336D01*
X14438Y43336D02*
X14833Y43336D01*
X14833Y43336D02*
X17074Y43336D01*
X10683Y43256D02*
X13909Y43256D01*
X14434Y43256D02*
X14439Y43256D01*
X14439Y43256D02*
X14833Y43256D01*
X14833Y43256D02*
X17074Y43256D01*
X10684Y43176D02*
X13937Y43176D01*
X14406Y43176D02*
X14439Y43176D01*
X14439Y43176D02*
X14833Y43176D01*
X14833Y43176D02*
X17074Y43176D01*
X10684Y43096D02*
X14005Y43096D01*
X14339Y43096D02*
X14439Y43096D01*
X14439Y43096D02*
X14833Y43096D01*
X14833Y43096D02*
X17074Y43096D01*
X10684Y43016D02*
X14439Y43016D01*
X14439Y43016D02*
X14833Y43016D01*
X14833Y43016D02*
X17074Y43016D01*
X10684Y42936D02*
X14439Y42936D01*
X14439Y42936D02*
X14833Y42936D01*
X14833Y42936D02*
X17074Y42936D01*
X10684Y42856D02*
X13896Y42856D01*
X14208Y42856D02*
X14439Y42856D01*
X14439Y42856D02*
X14833Y42856D01*
X14833Y42856D02*
X17074Y42856D01*
X10684Y42776D02*
X13822Y42776D01*
X14283Y42776D02*
X14439Y42776D01*
X14439Y42776D02*
X14833Y42776D01*
X14833Y42776D02*
X17074Y42776D01*
X10684Y42696D02*
X13790Y42696D01*
X14314Y42696D02*
X14439Y42696D01*
X14439Y42696D02*
X14833Y42696D01*
X14833Y42696D02*
X17074Y42696D01*
X10684Y42616D02*
X13785Y42616D01*
X14552Y42616D02*
X14833Y42616D01*
X14833Y42616D02*
X17074Y42616D01*
X10684Y42536D02*
X13805Y42536D01*
X14610Y42536D02*
X14833Y42536D01*
X14833Y42536D02*
X17074Y42536D01*
X10684Y42456D02*
X13857Y42456D01*
X14634Y42456D02*
X14833Y42456D01*
X14833Y42456D02*
X17074Y42456D01*
X10684Y42376D02*
X13877Y42376D01*
X14633Y42376D02*
X14636Y42376D01*
X14636Y42376D02*
X14833Y42376D01*
X14833Y42376D02*
X17074Y42376D01*
X10684Y42296D02*
X13765Y42296D01*
X14606Y42296D02*
X14636Y42296D01*
X14636Y42296D02*
X14833Y42296D01*
X14833Y42296D02*
X16382Y42296D01*
X16684Y42296D02*
X17074Y42296D01*
X10684Y42216D02*
X13720Y42216D01*
X14542Y42216D02*
X14636Y42216D01*
X14636Y42216D02*
X14833Y42216D01*
X14833Y42216D02*
X16290Y42216D01*
X16776Y42216D02*
X17074Y42216D01*
X10684Y42136D02*
X13706Y42136D01*
X14242Y42136D02*
X14636Y42136D01*
X14636Y42136D02*
X14833Y42136D01*
X14833Y42136D02*
X16245Y42136D01*
X16820Y42136D02*
X17074Y42136D01*
X10684Y42056D02*
X13715Y42056D01*
X14233Y42056D02*
X14636Y42056D01*
X14636Y42056D02*
X14833Y42056D01*
X14833Y42056D02*
X16226Y42056D01*
X16840Y42056D02*
X16840Y42056D01*
X16840Y42056D02*
X17074Y42056D01*
X10684Y41976D02*
X13752Y41976D01*
X14197Y41976D02*
X14636Y41976D01*
X14636Y41976D02*
X14833Y41976D01*
X14833Y41976D02*
X16231Y41976D01*
X16837Y41976D02*
X16840Y41976D01*
X16840Y41976D02*
X17074Y41976D01*
X10684Y41896D02*
X13835Y41896D01*
X14112Y41896D02*
X14636Y41896D01*
X14636Y41896D02*
X14833Y41896D01*
X14833Y41896D02*
X16256Y41896D01*
X16811Y41896D02*
X16840Y41896D01*
X16840Y41896D02*
X17074Y41896D01*
X10684Y41816D02*
X14636Y41816D01*
X14636Y41816D02*
X14833Y41816D01*
X14833Y41816D02*
X16311Y41816D01*
X16756Y41816D02*
X16840Y41816D01*
X16840Y41816D02*
X17074Y41816D01*
X10684Y41736D02*
X14636Y41736D01*
X14636Y41736D02*
X14833Y41736D01*
X14833Y41736D02*
X16436Y41736D01*
X16629Y41736D02*
X16840Y41736D01*
X16840Y41736D02*
X17074Y41736D01*
X10684Y41656D02*
X14636Y41656D01*
X14636Y41656D02*
X14833Y41656D01*
X14833Y41656D02*
X16840Y41656D01*
X16840Y41656D02*
X17074Y41656D01*
X10684Y41576D02*
X14636Y41576D01*
X14636Y41576D02*
X14833Y41576D01*
X14833Y41576D02*
X16840Y41576D01*
X16840Y41576D02*
X17074Y41576D01*
X10684Y41496D02*
X14636Y41496D01*
X14636Y41496D02*
X14833Y41496D01*
X14833Y41496D02*
X16840Y41496D01*
X16840Y41496D02*
X17074Y41496D01*
X10749Y41416D02*
X14636Y41416D01*
X14636Y41416D02*
X14833Y41416D01*
X14833Y41416D02*
X16840Y41416D01*
X16840Y41416D02*
X17074Y41416D01*
X10830Y41336D02*
X14636Y41336D01*
X14636Y41336D02*
X14833Y41336D01*
X14833Y41336D02*
X16840Y41336D01*
X16840Y41336D02*
X17074Y41336D01*
X10909Y41256D02*
X14636Y41256D01*
X14636Y41256D02*
X14833Y41256D01*
X14833Y41256D02*
X16840Y41256D01*
X16840Y41256D02*
X17074Y41256D01*
X10989Y41176D02*
X14636Y41176D01*
X14636Y41176D02*
X14833Y41176D01*
X14833Y41176D02*
X16840Y41176D01*
X16840Y41176D02*
X17074Y41176D01*
X11069Y41096D02*
X14636Y41096D01*
X14636Y41096D02*
X14833Y41096D01*
X14833Y41096D02*
X16840Y41096D01*
X16840Y41096D02*
X17074Y41096D01*
X11149Y41016D02*
X14636Y41016D01*
X14636Y41016D02*
X14833Y41016D01*
X14833Y41016D02*
X16840Y41016D01*
X16840Y41016D02*
X17074Y41016D01*
X11229Y40936D02*
X14636Y40936D01*
X14636Y40936D02*
X14833Y40936D01*
X14833Y40936D02*
X16840Y40936D01*
X16840Y40936D02*
X17074Y40936D01*
X11309Y40856D02*
X14636Y40856D01*
X14636Y40856D02*
X14833Y40856D01*
X14833Y40856D02*
X16840Y40856D01*
X16840Y40856D02*
X17074Y40856D01*
X11389Y40776D02*
X14636Y40776D01*
X14636Y40776D02*
X14833Y40776D01*
X14833Y40776D02*
X16840Y40776D01*
X16840Y40776D02*
X17074Y40776D01*
X11469Y40696D02*
X14636Y40696D01*
X14636Y40696D02*
X14833Y40696D01*
X14833Y40696D02*
X16840Y40696D01*
X16840Y40696D02*
X17074Y40696D01*
X11549Y40616D02*
X14636Y40616D01*
X14636Y40616D02*
X14833Y40616D01*
X14833Y40616D02*
X16840Y40616D01*
X16840Y40616D02*
X17074Y40616D01*
X11614Y40536D02*
X14636Y40536D01*
X14636Y40536D02*
X14833Y40536D01*
X14833Y40536D02*
X16840Y40536D01*
X16840Y40536D02*
X17074Y40536D01*
X10678Y40456D02*
X10721Y40456D01*
X11650Y40456D02*
X14636Y40456D01*
X14636Y40456D02*
X14833Y40456D01*
X14833Y40456D02*
X16840Y40456D01*
X16840Y40456D02*
X17074Y40456D01*
X10678Y40376D02*
X10801Y40376D01*
X11664Y40376D02*
X14636Y40376D01*
X14636Y40376D02*
X14833Y40376D01*
X14833Y40376D02*
X16840Y40376D01*
X16840Y40376D02*
X17074Y40376D01*
X10678Y40296D02*
X10881Y40296D01*
X11661Y40296D02*
X14636Y40296D01*
X14636Y40296D02*
X14833Y40296D01*
X14833Y40296D02*
X16840Y40296D01*
X16840Y40296D02*
X17074Y40296D01*
X10678Y40216D02*
X10961Y40216D01*
X11639Y40216D02*
X14636Y40216D01*
X14636Y40216D02*
X14833Y40216D01*
X14833Y40216D02*
X16840Y40216D01*
X16840Y40216D02*
X17074Y40216D01*
X10678Y40136D02*
X11041Y40136D01*
X11588Y40136D02*
X14636Y40136D01*
X14636Y40136D02*
X14833Y40136D01*
X14833Y40136D02*
X16840Y40136D01*
X16840Y40136D02*
X17074Y40136D01*
X10678Y40056D02*
X11137Y40056D01*
X11499Y40056D02*
X13789Y40056D01*
X14159Y40056D02*
X14183Y40056D01*
X14553Y40056D02*
X14636Y40056D01*
X14636Y40056D02*
X14833Y40056D01*
X14833Y40056D02*
X16840Y40056D01*
X16840Y40056D02*
X17074Y40056D01*
X10678Y39976D02*
X13731Y39976D01*
X14611Y39976D02*
X14636Y39976D01*
X14636Y39976D02*
X14833Y39976D01*
X14833Y39976D02*
X16840Y39976D01*
X16840Y39976D02*
X17074Y39976D01*
X10678Y39896D02*
X13706Y39896D01*
X14634Y39896D02*
X14636Y39896D01*
X14636Y39896D02*
X14833Y39896D01*
X14833Y39896D02*
X16840Y39896D01*
X16840Y39896D02*
X17074Y39896D01*
X10678Y39816D02*
X11505Y39816D01*
X11704Y39816D02*
X13711Y39816D01*
X14633Y39816D02*
X14636Y39816D01*
X14636Y39816D02*
X14833Y39816D01*
X14833Y39816D02*
X16840Y39816D01*
X16840Y39816D02*
X17074Y39816D01*
X10678Y39736D02*
X11396Y39736D01*
X11814Y39736D02*
X13736Y39736D01*
X14606Y39736D02*
X14636Y39736D01*
X14636Y39736D02*
X14833Y39736D01*
X14833Y39736D02*
X16840Y39736D01*
X16840Y39736D02*
X17074Y39736D01*
X10678Y39656D02*
X11351Y39656D01*
X11858Y39656D02*
X13801Y39656D01*
X14147Y39656D02*
X14195Y39656D01*
X14541Y39656D02*
X14636Y39656D01*
X14636Y39656D02*
X14833Y39656D01*
X14833Y39656D02*
X16840Y39656D01*
X16840Y39656D02*
X17074Y39656D01*
X10678Y39576D02*
X11337Y39576D01*
X11873Y39576D02*
X11873Y39576D01*
X11873Y39576D02*
X14636Y39576D01*
X14636Y39576D02*
X14833Y39576D01*
X14833Y39576D02*
X16840Y39576D01*
X16840Y39576D02*
X17074Y39576D01*
X10678Y39496D02*
X11346Y39496D01*
X11864Y39496D02*
X11873Y39496D01*
X11873Y39496D02*
X14636Y39496D01*
X14636Y39496D02*
X14833Y39496D01*
X14833Y39496D02*
X16840Y39496D01*
X16840Y39496D02*
X17074Y39496D01*
X10678Y39416D02*
X11384Y39416D01*
X11827Y39416D02*
X11873Y39416D01*
X11873Y39416D02*
X14636Y39416D01*
X14636Y39416D02*
X14833Y39416D01*
X14833Y39416D02*
X16840Y39416D01*
X16840Y39416D02*
X17074Y39416D01*
X10678Y39336D02*
X11468Y39336D01*
X11741Y39336D02*
X11873Y39336D01*
X11873Y39336D02*
X14636Y39336D01*
X14636Y39336D02*
X14833Y39336D01*
X14833Y39336D02*
X16840Y39336D01*
X16840Y39336D02*
X17074Y39336D01*
X10678Y39256D02*
X11873Y39256D01*
X11873Y39256D02*
X14636Y39256D01*
X14636Y39256D02*
X14833Y39256D01*
X14833Y39256D02*
X16840Y39256D01*
X16840Y39256D02*
X17074Y39256D01*
X10678Y39176D02*
X11873Y39176D01*
X11873Y39176D02*
X14636Y39176D01*
X14636Y39176D02*
X14833Y39176D01*
X14833Y39176D02*
X16840Y39176D01*
X16840Y39176D02*
X17074Y39176D01*
X10700Y39096D02*
X11873Y39096D01*
X11873Y39096D02*
X14636Y39096D01*
X14636Y39096D02*
X14833Y39096D01*
X14833Y39096D02*
X16840Y39096D01*
X16840Y39096D02*
X17051Y39096D01*
X17074Y39176D02*
X17071Y39145D01*
X17062Y39117D01*
X17049Y39092D01*
X17030Y39070D01*
X17008Y39051D01*
X16983Y39038D01*
X16955Y39029D01*
X16924Y39026D01*
X16840Y39026D01*
X16840Y42058D01*
X16828Y42117D01*
X16805Y42173D01*
X16772Y42223D01*
X16730Y42266D01*
X16680Y42299D01*
X16624Y42323D01*
X16565Y42335D01*
X16505Y42335D01*
X16446Y42324D01*
X16390Y42301D01*
X16340Y42268D01*
X16297Y42226D01*
X16263Y42177D01*
X16239Y42121D01*
X16226Y42062D01*
X16226Y42002D01*
X16236Y41943D01*
X16259Y41887D01*
X16291Y41836D01*
X16333Y41793D01*
X16382Y41759D01*
X16438Y41735D01*
X16496Y41722D01*
X16557Y41720D01*
X16616Y41731D01*
X16672Y41753D01*
X16723Y41785D01*
X16766Y41826D01*
X16801Y41876D01*
X16826Y41931D01*
X16839Y41989D01*
X16840Y42058D01*
X16840Y39026D01*
X14833Y39026D01*
X14833Y43825D01*
X14823Y43877D01*
X14803Y43925D01*
X14774Y43969D01*
X14737Y44006D01*
X14693Y44036D01*
X14645Y44056D01*
X14593Y44067D01*
X14541Y44067D01*
X14489Y44057D01*
X14440Y44038D01*
X14431Y44033D01*
X14438Y44060D01*
X14439Y44120D01*
X14438Y44123D01*
X14486Y44122D01*
X14538Y44131D01*
X14587Y44150D01*
X14632Y44178D01*
X14670Y44214D01*
X14700Y44257D01*
X14721Y44305D01*
X14733Y44356D01*
X14734Y44416D01*
X14724Y44468D01*
X14704Y44516D01*
X14675Y44560D01*
X14638Y44597D01*
X14594Y44627D01*
X14546Y44647D01*
X14494Y44658D01*
X14442Y44658D01*
X14390Y44648D01*
X14341Y44629D01*
X14297Y44600D01*
X14260Y44563D01*
X14230Y44520D01*
X14209Y44472D01*
X14198Y44420D01*
X14198Y44368D01*
X14199Y44362D01*
X14147Y44362D01*
X14095Y44352D01*
X14046Y44333D01*
X14002Y44304D01*
X13965Y44267D01*
X13935Y44224D01*
X13914Y44176D01*
X13903Y44124D01*
X13903Y44072D01*
X13912Y44020D01*
X13931Y43971D01*
X13960Y43927D01*
X13996Y43889D01*
X14039Y43859D01*
X14088Y43838D01*
X14139Y43827D01*
X14191Y43826D01*
X14243Y43835D01*
X14292Y43854D01*
X14303Y43862D01*
X14297Y43829D01*
X14297Y43777D01*
X14306Y43725D01*
X14325Y43676D01*
X14354Y43632D01*
X14390Y43594D01*
X14433Y43564D01*
X14482Y43543D01*
X14533Y43532D01*
X14585Y43531D01*
X14637Y43540D01*
X14686Y43559D01*
X14731Y43587D01*
X14769Y43623D01*
X14799Y43666D01*
X14820Y43714D01*
X14832Y43765D01*
X14833Y43825D01*
X14833Y39026D01*
X14636Y39026D01*
X14636Y39888D01*
X14636Y42447D01*
X14626Y42499D01*
X14606Y42547D01*
X14577Y42591D01*
X14540Y42628D01*
X14496Y42658D01*
X14448Y42678D01*
X14439Y42680D01*
X14439Y43333D01*
X14429Y43385D01*
X14409Y43433D01*
X14380Y43477D01*
X14343Y43514D01*
X14299Y43544D01*
X14251Y43564D01*
X14199Y43575D01*
X14147Y43575D01*
X14095Y43565D01*
X14046Y43546D01*
X14002Y43517D01*
X13965Y43480D01*
X13935Y43437D01*
X13914Y43389D01*
X13903Y43337D01*
X13903Y43285D01*
X13912Y43233D01*
X13931Y43184D01*
X13960Y43140D01*
X13996Y43102D01*
X14039Y43072D01*
X14088Y43051D01*
X14139Y43040D01*
X14191Y43039D01*
X14243Y43048D01*
X14292Y43067D01*
X14337Y43095D01*
X14375Y43131D01*
X14405Y43174D01*
X14426Y43222D01*
X14438Y43273D01*
X14439Y43333D01*
X14439Y42680D01*
X14396Y42689D01*
X14344Y42689D01*
X14317Y42684D01*
X14311Y42716D01*
X14291Y42764D01*
X14262Y42808D01*
X14225Y42845D01*
X14181Y42875D01*
X14133Y42895D01*
X14081Y42906D01*
X14029Y42906D01*
X13977Y42896D01*
X13928Y42877D01*
X13884Y42848D01*
X13847Y42811D01*
X13817Y42768D01*
X13796Y42720D01*
X13785Y42668D01*
X13785Y42616D01*
X13794Y42564D01*
X13813Y42515D01*
X13842Y42471D01*
X13878Y42433D01*
X13921Y42403D01*
X13944Y42393D01*
X13898Y42384D01*
X13849Y42365D01*
X13805Y42336D01*
X13768Y42299D01*
X13738Y42256D01*
X13717Y42208D01*
X13706Y42156D01*
X13706Y42104D01*
X13715Y42052D01*
X13734Y42003D01*
X13763Y41959D01*
X13799Y41921D01*
X13842Y41891D01*
X13891Y41870D01*
X13942Y41859D01*
X13994Y41858D01*
X14046Y41867D01*
X14095Y41886D01*
X14140Y41914D01*
X14178Y41950D01*
X14208Y41993D01*
X14229Y42041D01*
X14241Y42092D01*
X14242Y42152D01*
X14235Y42187D01*
X14236Y42186D01*
X14285Y42165D01*
X14336Y42154D01*
X14388Y42153D01*
X14440Y42162D01*
X14489Y42181D01*
X14534Y42209D01*
X14572Y42245D01*
X14602Y42288D01*
X14623Y42336D01*
X14635Y42387D01*
X14636Y42447D01*
X14636Y39888D01*
X14626Y39940D01*
X14606Y39988D01*
X14577Y40032D01*
X14540Y40069D01*
X14496Y40099D01*
X14448Y40119D01*
X14396Y40130D01*
X14344Y40130D01*
X14292Y40120D01*
X14243Y40101D01*
X14199Y40072D01*
X14171Y40044D01*
X14146Y40069D01*
X14102Y40099D01*
X14054Y40119D01*
X14002Y40130D01*
X13950Y40130D01*
X13898Y40120D01*
X13849Y40101D01*
X13805Y40072D01*
X13768Y40035D01*
X13738Y39992D01*
X13717Y39944D01*
X13706Y39892D01*
X13706Y39840D01*
X13715Y39788D01*
X13734Y39739D01*
X13763Y39695D01*
X13799Y39657D01*
X13842Y39627D01*
X13891Y39606D01*
X13942Y39595D01*
X13994Y39594D01*
X14046Y39603D01*
X14095Y39622D01*
X14140Y39650D01*
X14171Y39680D01*
X14193Y39657D01*
X14236Y39627D01*
X14285Y39606D01*
X14336Y39595D01*
X14388Y39594D01*
X14440Y39603D01*
X14489Y39622D01*
X14534Y39650D01*
X14572Y39686D01*
X14602Y39729D01*
X14623Y39777D01*
X14635Y39828D01*
X14636Y39888D01*
X14636Y39026D01*
X11873Y39026D01*
X11873Y39593D01*
X11863Y39645D01*
X11843Y39693D01*
X11814Y39737D01*
X11777Y39774D01*
X11733Y39804D01*
X11685Y39824D01*
X11633Y39835D01*
X11581Y39835D01*
X11529Y39825D01*
X11480Y39806D01*
X11436Y39777D01*
X11399Y39740D01*
X11369Y39697D01*
X11348Y39649D01*
X11337Y39597D01*
X11337Y39545D01*
X11346Y39493D01*
X11365Y39444D01*
X11394Y39400D01*
X11430Y39362D01*
X11473Y39332D01*
X11522Y39311D01*
X11573Y39300D01*
X11625Y39299D01*
X11677Y39308D01*
X11726Y39327D01*
X11771Y39355D01*
X11809Y39391D01*
X11839Y39434D01*
X11860Y39482D01*
X11872Y39533D01*
X11873Y39593D01*
X11873Y39026D01*
X10828Y39026D01*
X10797Y39029D01*
X10769Y39038D01*
X10744Y39051D01*
X10722Y39070D01*
X10703Y39092D01*
X10690Y39117D01*
X10681Y39145D01*
X10678Y39176D01*
X10678Y40499D01*
X11069Y40107D01*
X11122Y40064D01*
X11181Y40031D01*
X11247Y40011D01*
X11316Y40004D01*
X11383Y40011D01*
X11449Y40030D01*
X11510Y40062D01*
X11563Y40106D01*
X11606Y40158D01*
X11639Y40217D01*
X11659Y40283D01*
X11667Y40351D01*
X11661Y40419D01*
X11642Y40485D01*
X11610Y40545D01*
X11568Y40598D01*
X11564Y40602D01*
X10882Y41283D01*
X10881Y41284D01*
X10879Y41287D01*
X10878Y41288D01*
X10875Y41291D01*
X10833Y41332D01*
X10830Y41336D01*
X10826Y41340D01*
X10815Y41350D01*
X10776Y41389D01*
X10684Y41482D01*
X10684Y41824D01*
X10684Y41829D01*
X10684Y43204D01*
X10684Y43207D01*
X10683Y43208D01*
X10683Y43216D01*
X10683Y43217D01*
X10683Y44063D01*
X10693Y44056D01*
X10742Y44035D01*
X10793Y44024D01*
X10845Y44023D01*
X10897Y44032D01*
X10946Y44051D01*
X10991Y44079D01*
X11029Y44115D01*
X11059Y44158D01*
X11080Y44206D01*
X11092Y44257D01*
X11093Y44317D01*
X11083Y44369D01*
X11063Y44417D01*
X11034Y44461D01*
X10997Y44498D01*
X10953Y44528D01*
X10905Y44548D01*
X10853Y44559D01*
X10801Y44559D01*
X10749Y44549D01*
X10700Y44530D01*
X10683Y44519D01*
X10683Y45417D01*
X10678Y45466D01*
X10678Y45666D01*
X10681Y45697D01*
X10690Y45725D01*
X10703Y45750D01*
X10722Y45772D01*
X10744Y45791D01*
X10769Y45804D01*
X10797Y45813D01*
X10828Y45816D01*
X16924Y45816D01*
X16955Y45813D01*
X16983Y45804D01*
X17008Y45791D01*
X17023Y45778D01*
X16982Y45778D01*
X16953Y45772D01*
X16926Y45761D01*
X16902Y45745D01*
X16881Y45724D01*
X16865Y45700D01*
X16854Y45673D01*
X16848Y45644D01*
X16848Y45615D01*
X16848Y44828D01*
X16854Y44799D01*
X16865Y44772D01*
X16881Y44748D01*
X16902Y44727D01*
X16926Y44711D01*
X16953Y44700D01*
X16982Y44694D01*
X17011Y44694D01*
X17074Y44694D01*
X17074Y39176D01*
X10828Y38139D02*
X17121Y38139D01*
X10696Y38059D02*
X17254Y38059D01*
X10678Y37979D02*
X17271Y37979D01*
X10678Y37899D02*
X17271Y37899D01*
X10678Y37819D02*
X17271Y37819D01*
X10678Y37739D02*
X17271Y37739D01*
X10678Y37659D02*
X17271Y37659D01*
X10683Y37579D02*
X17271Y37579D01*
X10683Y37499D02*
X17271Y37499D01*
X10683Y37419D02*
X17271Y37419D01*
X10683Y37339D02*
X17271Y37339D01*
X10683Y37259D02*
X17271Y37259D01*
X10683Y37179D02*
X17271Y37179D01*
X10683Y37099D02*
X17271Y37099D01*
X10683Y37019D02*
X17271Y37019D01*
X10683Y36939D02*
X17271Y36939D01*
X10683Y36859D02*
X14356Y36859D01*
X14574Y36859D02*
X17271Y36859D01*
X10683Y36779D02*
X14254Y36779D01*
X14678Y36779D02*
X17271Y36779D01*
X10683Y36699D02*
X14210Y36699D01*
X14721Y36699D02*
X17271Y36699D01*
X11002Y36619D02*
X14198Y36619D01*
X14734Y36619D02*
X17271Y36619D01*
X11064Y36539D02*
X14208Y36539D01*
X14724Y36539D02*
X17271Y36539D01*
X11089Y36459D02*
X14046Y36459D01*
X14685Y36459D02*
X17271Y36459D01*
X11092Y36379D02*
X13955Y36379D01*
X14596Y36379D02*
X17271Y36379D01*
X11066Y36299D02*
X13913Y36299D01*
X14428Y36299D02*
X17271Y36299D01*
X11006Y36219D02*
X13903Y36219D01*
X14749Y36219D02*
X17271Y36219D01*
X10683Y36139D02*
X13915Y36139D01*
X14807Y36139D02*
X17271Y36139D01*
X10683Y36059D02*
X13957Y36059D01*
X14831Y36059D02*
X17271Y36059D01*
X10683Y35979D02*
X14053Y35979D01*
X14290Y35979D02*
X14301Y35979D01*
X14830Y35979D02*
X14833Y35979D01*
X14833Y35979D02*
X17271Y35979D01*
X10683Y35899D02*
X14327Y35899D01*
X14803Y35899D02*
X14833Y35899D01*
X14833Y35899D02*
X17271Y35899D01*
X10683Y35819D02*
X14390Y35819D01*
X14739Y35819D02*
X14833Y35819D01*
X14833Y35819D02*
X17271Y35819D01*
X10683Y35739D02*
X14833Y35739D01*
X14833Y35739D02*
X17271Y35739D01*
X10683Y35659D02*
X14026Y35659D01*
X14315Y35659D02*
X14833Y35659D01*
X14833Y35659D02*
X17271Y35659D01*
X10683Y35579D02*
X13946Y35579D01*
X14395Y35579D02*
X14833Y35579D01*
X14833Y35579D02*
X17271Y35579D01*
X10683Y35499D02*
X13910Y35499D01*
X14431Y35499D02*
X14833Y35499D01*
X14833Y35499D02*
X17271Y35499D01*
X10683Y35419D02*
X13903Y35419D01*
X14439Y35419D02*
X14439Y35419D01*
X14439Y35419D02*
X14833Y35419D01*
X14833Y35419D02*
X17271Y35419D01*
X10683Y35339D02*
X13920Y35339D01*
X14423Y35339D02*
X14439Y35339D01*
X14439Y35339D02*
X14833Y35339D01*
X14833Y35339D02*
X17271Y35339D01*
X10683Y35259D02*
X13967Y35259D01*
X14377Y35259D02*
X14439Y35259D01*
X14439Y35259D02*
X14833Y35259D01*
X14833Y35259D02*
X17271Y35259D01*
X10683Y35179D02*
X14084Y35179D01*
X14256Y35179D02*
X14439Y35179D01*
X14439Y35179D02*
X14833Y35179D01*
X14833Y35179D02*
X17271Y35179D01*
X10683Y35099D02*
X14439Y35099D01*
X14439Y35099D02*
X14833Y35099D01*
X14833Y35099D02*
X17271Y35099D01*
X10683Y35019D02*
X13969Y35019D01*
X14137Y35019D02*
X14439Y35019D01*
X14439Y35019D02*
X14833Y35019D01*
X14833Y35019D02*
X17271Y35019D01*
X10683Y34939D02*
X13849Y34939D01*
X14257Y34939D02*
X14439Y34939D01*
X14439Y34939D02*
X14833Y34939D01*
X14833Y34939D02*
X17271Y34939D01*
X10683Y34859D02*
X13801Y34859D01*
X14303Y34859D02*
X14439Y34859D01*
X14439Y34859D02*
X14833Y34859D01*
X14833Y34859D02*
X17271Y34859D01*
X10683Y34779D02*
X13785Y34779D01*
X14503Y34779D02*
X14833Y34779D01*
X14833Y34779D02*
X17271Y34779D01*
X10683Y34699D02*
X13793Y34699D01*
X14588Y34699D02*
X14833Y34699D01*
X14833Y34699D02*
X17271Y34699D01*
X10683Y34619D02*
X13828Y34619D01*
X14627Y34619D02*
X14833Y34619D01*
X14833Y34619D02*
X17271Y34619D01*
X10683Y34539D02*
X13907Y34539D01*
X14636Y34539D02*
X14636Y34539D01*
X14636Y34539D02*
X14833Y34539D01*
X14833Y34539D02*
X16621Y34539D01*
X16839Y34539D02*
X17271Y34539D01*
X10683Y34459D02*
X13802Y34459D01*
X14622Y34459D02*
X14636Y34459D01*
X14636Y34459D02*
X14833Y34459D01*
X14833Y34459D02*
X16503Y34459D01*
X16957Y34459D02*
X17271Y34459D01*
X10683Y34379D02*
X13736Y34379D01*
X14578Y34379D02*
X14636Y34379D01*
X14636Y34379D02*
X14833Y34379D01*
X14833Y34379D02*
X16450Y34379D01*
X17009Y34379D02*
X17271Y34379D01*
X10683Y34299D02*
X13709Y34299D01*
X14237Y34299D02*
X14267Y34299D01*
X14469Y34299D02*
X14636Y34299D01*
X14636Y34299D02*
X14833Y34299D01*
X14833Y34299D02*
X16425Y34299D01*
X17033Y34299D02*
X17271Y34299D01*
X10683Y34219D02*
X13708Y34219D01*
X14242Y34219D02*
X14636Y34219D01*
X14636Y34219D02*
X14833Y34219D01*
X14833Y34219D02*
X16425Y34219D01*
X17037Y34219D02*
X17037Y34219D01*
X17037Y34219D02*
X17271Y34219D01*
X10683Y34139D02*
X13731Y34139D01*
X14217Y34139D02*
X14636Y34139D01*
X14636Y34139D02*
X14833Y34139D01*
X14833Y34139D02*
X16445Y34139D01*
X17016Y34139D02*
X17037Y34139D01*
X17037Y34139D02*
X17271Y34139D01*
X10683Y34059D02*
X13788Y34059D01*
X14161Y34059D02*
X14636Y34059D01*
X14636Y34059D02*
X14833Y34059D01*
X14833Y34059D02*
X16489Y34059D01*
X16970Y34059D02*
X17037Y34059D01*
X17037Y34059D02*
X17271Y34059D01*
X10683Y33979D02*
X14636Y33979D01*
X14636Y33979D02*
X14833Y33979D01*
X14833Y33979D02*
X16589Y33979D01*
X16873Y33979D02*
X17037Y33979D01*
X17037Y33979D02*
X17271Y33979D01*
X10683Y33899D02*
X14636Y33899D01*
X14636Y33899D02*
X14833Y33899D01*
X14833Y33899D02*
X17037Y33899D01*
X17037Y33899D02*
X17271Y33899D01*
X10683Y33819D02*
X14636Y33819D01*
X14636Y33819D02*
X14833Y33819D01*
X14833Y33819D02*
X17037Y33819D01*
X17037Y33819D02*
X17271Y33819D01*
X10683Y33739D02*
X14636Y33739D01*
X14636Y33739D02*
X14833Y33739D01*
X14833Y33739D02*
X17037Y33739D01*
X17037Y33739D02*
X17271Y33739D01*
X10683Y33659D02*
X14636Y33659D01*
X14636Y33659D02*
X14833Y33659D01*
X14833Y33659D02*
X17037Y33659D01*
X17037Y33659D02*
X17271Y33659D01*
X10713Y33579D02*
X14636Y33579D01*
X14636Y33579D02*
X14833Y33579D01*
X14833Y33579D02*
X17037Y33579D01*
X17037Y33579D02*
X17271Y33579D01*
X10793Y33499D02*
X14636Y33499D01*
X14636Y33499D02*
X14833Y33499D01*
X14833Y33499D02*
X17037Y33499D01*
X17037Y33499D02*
X17271Y33499D01*
X10872Y33419D02*
X14636Y33419D01*
X14636Y33419D02*
X14833Y33419D01*
X14833Y33419D02*
X17037Y33419D01*
X17037Y33419D02*
X17271Y33419D01*
X10952Y33339D02*
X14636Y33339D01*
X14636Y33339D02*
X14833Y33339D01*
X14833Y33339D02*
X17037Y33339D01*
X17037Y33339D02*
X17271Y33339D01*
X11032Y33259D02*
X14636Y33259D01*
X14636Y33259D02*
X14833Y33259D01*
X14833Y33259D02*
X17037Y33259D01*
X17037Y33259D02*
X17271Y33259D01*
X11112Y33179D02*
X14636Y33179D01*
X14636Y33179D02*
X14833Y33179D01*
X14833Y33179D02*
X17037Y33179D01*
X17037Y33179D02*
X17271Y33179D01*
X11192Y33099D02*
X14636Y33099D01*
X14636Y33099D02*
X14833Y33099D01*
X14833Y33099D02*
X17037Y33099D01*
X17037Y33099D02*
X17271Y33099D01*
X11272Y33019D02*
X14636Y33019D01*
X14636Y33019D02*
X14833Y33019D01*
X14833Y33019D02*
X17037Y33019D01*
X17037Y33019D02*
X17271Y33019D01*
X11352Y32939D02*
X14636Y32939D01*
X14636Y32939D02*
X14833Y32939D01*
X14833Y32939D02*
X17037Y32939D01*
X17037Y32939D02*
X17271Y32939D01*
X11432Y32859D02*
X14636Y32859D01*
X14636Y32859D02*
X14833Y32859D01*
X14833Y32859D02*
X17037Y32859D01*
X17037Y32859D02*
X17271Y32859D01*
X11512Y32779D02*
X14636Y32779D01*
X14636Y32779D02*
X14833Y32779D01*
X14833Y32779D02*
X17037Y32779D01*
X17037Y32779D02*
X17271Y32779D01*
X11587Y32699D02*
X14636Y32699D01*
X14636Y32699D02*
X14833Y32699D01*
X14833Y32699D02*
X17037Y32699D01*
X17037Y32699D02*
X17271Y32699D01*
X10678Y32619D02*
X10684Y32619D01*
X11637Y32619D02*
X14636Y32619D01*
X14636Y32619D02*
X14833Y32619D01*
X14833Y32619D02*
X17037Y32619D01*
X17037Y32619D02*
X17271Y32619D01*
X10678Y32539D02*
X10764Y32539D01*
X11661Y32539D02*
X14636Y32539D01*
X14636Y32539D02*
X14833Y32539D01*
X14833Y32539D02*
X17037Y32539D01*
X17037Y32539D02*
X17271Y32539D01*
X10678Y32459D02*
X10844Y32459D01*
X11666Y32459D02*
X14636Y32459D01*
X14636Y32459D02*
X14833Y32459D01*
X14833Y32459D02*
X17037Y32459D01*
X17037Y32459D02*
X17271Y32459D01*
X10678Y32379D02*
X10924Y32379D01*
X11651Y32379D02*
X14636Y32379D01*
X14636Y32379D02*
X14833Y32379D01*
X14833Y32379D02*
X17037Y32379D01*
X17037Y32379D02*
X17271Y32379D01*
X10678Y32299D02*
X11004Y32299D01*
X11616Y32299D02*
X14636Y32299D01*
X14636Y32299D02*
X14833Y32299D01*
X14833Y32299D02*
X17037Y32299D01*
X17037Y32299D02*
X17271Y32299D01*
X10678Y32219D02*
X11087Y32219D01*
X11549Y32219D02*
X13836Y32219D01*
X14110Y32219D02*
X14230Y32219D01*
X14504Y32219D02*
X14636Y32219D01*
X14636Y32219D02*
X14833Y32219D01*
X14833Y32219D02*
X17037Y32219D01*
X17037Y32219D02*
X17271Y32219D01*
X10678Y32139D02*
X11241Y32139D01*
X11390Y32139D02*
X13752Y32139D01*
X14589Y32139D02*
X14636Y32139D01*
X14636Y32139D02*
X14833Y32139D01*
X14833Y32139D02*
X17037Y32139D01*
X17037Y32139D02*
X17271Y32139D01*
X10678Y32059D02*
X11482Y32059D01*
X11534Y32059D02*
X13714Y32059D01*
X14627Y32059D02*
X14636Y32059D01*
X14636Y32059D02*
X14833Y32059D01*
X14833Y32059D02*
X17037Y32059D01*
X17037Y32059D02*
X17271Y32059D01*
X10678Y31979D02*
X11315Y31979D01*
X11697Y31979D02*
X13706Y31979D01*
X14636Y31979D02*
X14636Y31979D01*
X14636Y31979D02*
X14833Y31979D01*
X14833Y31979D02*
X17037Y31979D01*
X17037Y31979D02*
X17271Y31979D01*
X10678Y31899D02*
X11260Y31899D01*
X11751Y31899D02*
X13721Y31899D01*
X14622Y31899D02*
X14636Y31899D01*
X14636Y31899D02*
X14833Y31899D01*
X14833Y31899D02*
X17037Y31899D01*
X17037Y31899D02*
X17271Y31899D01*
X10678Y31819D02*
X11238Y31819D01*
X11773Y31819D02*
X13765Y31819D01*
X14577Y31819D02*
X14636Y31819D01*
X14636Y31819D02*
X14833Y31819D01*
X14833Y31819D02*
X17037Y31819D01*
X17037Y31819D02*
X17271Y31819D01*
X10678Y31739D02*
X11244Y31739D01*
X11769Y31739D02*
X11774Y31739D01*
X11774Y31739D02*
X13875Y31739D01*
X14072Y31739D02*
X14269Y31739D01*
X14466Y31739D02*
X14636Y31739D01*
X14636Y31739D02*
X14833Y31739D01*
X14833Y31739D02*
X17037Y31739D01*
X17037Y31739D02*
X17271Y31739D01*
X10678Y31659D02*
X11272Y31659D01*
X11741Y31659D02*
X11774Y31659D01*
X11774Y31659D02*
X14636Y31659D01*
X14636Y31659D02*
X14833Y31659D01*
X14833Y31659D02*
X17037Y31659D01*
X17037Y31659D02*
X17271Y31659D01*
X10678Y31579D02*
X11342Y31579D01*
X11672Y31579D02*
X11774Y31579D01*
X11774Y31579D02*
X14636Y31579D01*
X14636Y31579D02*
X14833Y31579D01*
X14833Y31579D02*
X17037Y31579D01*
X17037Y31579D02*
X17271Y31579D01*
X10678Y31499D02*
X11774Y31499D01*
X11774Y31499D02*
X14636Y31499D01*
X14636Y31499D02*
X14833Y31499D01*
X14833Y31499D02*
X17037Y31499D01*
X17037Y31499D02*
X17271Y31499D01*
X10678Y31419D02*
X11774Y31419D01*
X11774Y31419D02*
X14636Y31419D01*
X14636Y31419D02*
X14833Y31419D01*
X14833Y31419D02*
X17037Y31419D01*
X17037Y31419D02*
X17271Y31419D01*
X10678Y31339D02*
X11774Y31339D01*
X11774Y31339D02*
X14636Y31339D01*
X14636Y31339D02*
X14833Y31339D01*
X14833Y31339D02*
X17037Y31339D01*
X17037Y31339D02*
X17271Y31339D01*
X10684Y31259D02*
X11774Y31259D01*
X11774Y31259D02*
X14636Y31259D01*
X14636Y31259D02*
X14833Y31259D01*
X14833Y31259D02*
X17037Y31259D01*
X17037Y31259D02*
X17264Y31259D01*
X10741Y31179D02*
X11774Y31179D01*
X11774Y31179D02*
X14636Y31179D01*
X14636Y31179D02*
X14833Y31179D01*
X14833Y31179D02*
X17037Y31179D01*
X17037Y31179D02*
X17207Y31179D01*
X17271Y31302D02*
X17268Y31271D01*
X17259Y31243D01*
X17246Y31218D01*
X17227Y31196D01*
X17205Y31177D01*
X17180Y31164D01*
X17152Y31155D01*
X17121Y31152D01*
X17037Y31152D01*
X17037Y34282D01*
X17025Y34341D01*
X17002Y34397D01*
X16969Y34447D01*
X16927Y34490D01*
X16877Y34523D01*
X16821Y34547D01*
X16762Y34559D01*
X16702Y34559D01*
X16643Y34548D01*
X16587Y34525D01*
X16537Y34492D01*
X16494Y34450D01*
X16460Y34401D01*
X16436Y34345D01*
X16423Y34286D01*
X16423Y34226D01*
X16433Y34167D01*
X16456Y34111D01*
X16488Y34060D01*
X16530Y34017D01*
X16579Y33983D01*
X16635Y33959D01*
X16693Y33946D01*
X16754Y33944D01*
X16813Y33955D01*
X16869Y33977D01*
X16920Y34009D01*
X16963Y34050D01*
X16998Y34100D01*
X17023Y34155D01*
X17036Y34213D01*
X17037Y34282D01*
X17037Y31152D01*
X14833Y31152D01*
X14833Y36050D01*
X14823Y36102D01*
X14803Y36150D01*
X14774Y36194D01*
X14737Y36231D01*
X14693Y36261D01*
X14645Y36281D01*
X14593Y36292D01*
X14541Y36292D01*
X14489Y36282D01*
X14440Y36263D01*
X14436Y36261D01*
X14429Y36298D01*
X14409Y36346D01*
X14404Y36354D01*
X14434Y36347D01*
X14486Y36346D01*
X14538Y36355D01*
X14587Y36374D01*
X14632Y36402D01*
X14670Y36438D01*
X14700Y36481D01*
X14721Y36529D01*
X14733Y36580D01*
X14734Y36640D01*
X14724Y36692D01*
X14704Y36740D01*
X14675Y36784D01*
X14638Y36821D01*
X14594Y36851D01*
X14546Y36871D01*
X14494Y36882D01*
X14442Y36882D01*
X14390Y36872D01*
X14341Y36853D01*
X14297Y36824D01*
X14260Y36787D01*
X14230Y36744D01*
X14209Y36696D01*
X14198Y36644D01*
X14198Y36592D01*
X14207Y36540D01*
X14226Y36491D01*
X14232Y36481D01*
X14199Y36488D01*
X14147Y36488D01*
X14095Y36478D01*
X14046Y36459D01*
X14002Y36430D01*
X13965Y36393D01*
X13935Y36350D01*
X13914Y36302D01*
X13903Y36250D01*
X13903Y36198D01*
X13912Y36146D01*
X13931Y36097D01*
X13960Y36053D01*
X13996Y36015D01*
X14039Y35985D01*
X14088Y35964D01*
X14139Y35953D01*
X14191Y35952D01*
X14243Y35961D01*
X14292Y35980D01*
X14299Y35985D01*
X14306Y35950D01*
X14325Y35901D01*
X14354Y35857D01*
X14390Y35819D01*
X14433Y35789D01*
X14482Y35768D01*
X14533Y35757D01*
X14585Y35756D01*
X14637Y35765D01*
X14686Y35784D01*
X14731Y35812D01*
X14769Y35848D01*
X14799Y35891D01*
X14820Y35939D01*
X14832Y35990D01*
X14833Y36050D01*
X14833Y31152D01*
X14636Y31152D01*
X14636Y32014D01*
X14636Y34573D01*
X14626Y34625D01*
X14606Y34673D01*
X14577Y34717D01*
X14540Y34754D01*
X14496Y34784D01*
X14448Y34804D01*
X14439Y34806D01*
X14439Y35459D01*
X14429Y35511D01*
X14409Y35559D01*
X14380Y35603D01*
X14343Y35640D01*
X14299Y35670D01*
X14251Y35690D01*
X14199Y35701D01*
X14147Y35701D01*
X14095Y35691D01*
X14046Y35672D01*
X14002Y35643D01*
X13965Y35606D01*
X13935Y35563D01*
X13914Y35515D01*
X13903Y35463D01*
X13903Y35411D01*
X13912Y35359D01*
X13931Y35310D01*
X13960Y35266D01*
X13996Y35228D01*
X14039Y35198D01*
X14088Y35177D01*
X14139Y35166D01*
X14191Y35165D01*
X14243Y35174D01*
X14292Y35193D01*
X14337Y35221D01*
X14375Y35257D01*
X14405Y35300D01*
X14426Y35348D01*
X14438Y35399D01*
X14439Y35459D01*
X14439Y34806D01*
X14396Y34815D01*
X14344Y34815D01*
X14317Y34810D01*
X14311Y34842D01*
X14291Y34890D01*
X14262Y34934D01*
X14225Y34971D01*
X14181Y35001D01*
X14133Y35021D01*
X14081Y35032D01*
X14029Y35032D01*
X13977Y35022D01*
X13928Y35003D01*
X13884Y34974D01*
X13847Y34937D01*
X13817Y34894D01*
X13796Y34846D01*
X13785Y34794D01*
X13785Y34742D01*
X13794Y34690D01*
X13813Y34641D01*
X13842Y34597D01*
X13878Y34559D01*
X13921Y34529D01*
X13944Y34519D01*
X13898Y34510D01*
X13849Y34491D01*
X13805Y34462D01*
X13768Y34425D01*
X13738Y34382D01*
X13717Y34334D01*
X13706Y34282D01*
X13706Y34230D01*
X13715Y34178D01*
X13734Y34129D01*
X13763Y34085D01*
X13799Y34047D01*
X13842Y34017D01*
X13891Y33996D01*
X13942Y33985D01*
X13994Y33984D01*
X14046Y33993D01*
X14095Y34012D01*
X14140Y34040D01*
X14178Y34076D01*
X14208Y34119D01*
X14229Y34167D01*
X14241Y34218D01*
X14242Y34278D01*
X14235Y34313D01*
X14236Y34312D01*
X14285Y34291D01*
X14336Y34280D01*
X14388Y34279D01*
X14440Y34288D01*
X14489Y34307D01*
X14534Y34335D01*
X14572Y34371D01*
X14602Y34414D01*
X14623Y34462D01*
X14635Y34513D01*
X14636Y34573D01*
X14636Y32014D01*
X14626Y32066D01*
X14606Y32114D01*
X14577Y32158D01*
X14540Y32195D01*
X14496Y32225D01*
X14448Y32245D01*
X14396Y32256D01*
X14344Y32256D01*
X14292Y32246D01*
X14243Y32227D01*
X14199Y32198D01*
X14171Y32170D01*
X14146Y32195D01*
X14102Y32225D01*
X14054Y32245D01*
X14002Y32256D01*
X13950Y32256D01*
X13898Y32246D01*
X13849Y32227D01*
X13805Y32198D01*
X13768Y32161D01*
X13738Y32118D01*
X13717Y32070D01*
X13706Y32018D01*
X13706Y31966D01*
X13715Y31914D01*
X13734Y31865D01*
X13763Y31821D01*
X13799Y31783D01*
X13842Y31753D01*
X13891Y31732D01*
X13942Y31721D01*
X13994Y31720D01*
X14046Y31729D01*
X14095Y31748D01*
X14140Y31776D01*
X14171Y31806D01*
X14193Y31783D01*
X14236Y31753D01*
X14285Y31732D01*
X14336Y31721D01*
X14388Y31720D01*
X14440Y31729D01*
X14489Y31748D01*
X14534Y31776D01*
X14572Y31812D01*
X14602Y31855D01*
X14623Y31903D01*
X14635Y31954D01*
X14636Y32014D01*
X14636Y31152D01*
X11774Y31152D01*
X11774Y31817D01*
X11764Y31869D01*
X11744Y31917D01*
X11715Y31961D01*
X11678Y31998D01*
X11634Y32028D01*
X11586Y32048D01*
X11534Y32059D01*
X11482Y32059D01*
X11430Y32049D01*
X11381Y32030D01*
X11337Y32001D01*
X11300Y31964D01*
X11270Y31921D01*
X11249Y31873D01*
X11238Y31821D01*
X11238Y31769D01*
X11247Y31717D01*
X11266Y31668D01*
X11295Y31624D01*
X11331Y31586D01*
X11374Y31556D01*
X11423Y31535D01*
X11474Y31524D01*
X11526Y31523D01*
X11578Y31532D01*
X11627Y31551D01*
X11672Y31579D01*
X11710Y31615D01*
X11740Y31658D01*
X11761Y31706D01*
X11773Y31757D01*
X11774Y31817D01*
X11774Y31152D01*
X10828Y31152D01*
X10797Y31155D01*
X10769Y31164D01*
X10744Y31177D01*
X10722Y31196D01*
X10703Y31218D01*
X10690Y31243D01*
X10681Y31271D01*
X10678Y31302D01*
X10678Y32625D01*
X11069Y32233D01*
X11122Y32190D01*
X11182Y32157D01*
X11247Y32137D01*
X11316Y32130D01*
X11383Y32137D01*
X11449Y32156D01*
X11510Y32188D01*
X11563Y32231D01*
X11607Y32284D01*
X11639Y32343D01*
X11660Y32409D01*
X11667Y32477D01*
X11661Y32545D01*
X11642Y32610D01*
X11610Y32670D01*
X11568Y32724D01*
X11564Y32728D01*
X10882Y33409D01*
X10879Y33413D01*
X10875Y33417D01*
X10833Y33458D01*
X10830Y33462D01*
X10826Y33466D01*
X10783Y33509D01*
X10780Y33512D01*
X10776Y33516D01*
X10683Y33609D01*
X10683Y33948D01*
X10683Y33953D01*
X10683Y35326D01*
X10683Y35331D01*
X10683Y36189D01*
X10693Y36182D01*
X10742Y36161D01*
X10793Y36150D01*
X10845Y36149D01*
X10897Y36158D01*
X10946Y36177D01*
X10991Y36205D01*
X11029Y36241D01*
X11059Y36284D01*
X11080Y36332D01*
X11092Y36383D01*
X11093Y36443D01*
X11083Y36495D01*
X11063Y36543D01*
X11034Y36587D01*
X10997Y36624D01*
X10953Y36654D01*
X10905Y36674D01*
X10853Y36685D01*
X10801Y36685D01*
X10749Y36675D01*
X10700Y36656D01*
X10683Y36645D01*
X10683Y37598D01*
X10678Y37647D01*
X10678Y37989D01*
X10681Y38020D01*
X10690Y38048D01*
X10703Y38073D01*
X10722Y38095D01*
X10744Y38114D01*
X10769Y38127D01*
X10797Y38136D01*
X10828Y38139D01*
X17121Y38139D01*
X17152Y38136D01*
X17180Y38127D01*
X17205Y38114D01*
X17227Y38095D01*
X17246Y38073D01*
X17259Y38048D01*
X17268Y38020D01*
X17271Y37989D01*
X17271Y31302D01*
X10828Y30265D02*
X17121Y30265D01*
X10696Y30185D02*
X17254Y30185D01*
X10678Y30105D02*
X17271Y30105D01*
X10678Y30025D02*
X17271Y30025D01*
X10678Y29945D02*
X17271Y29945D01*
X10678Y29865D02*
X17271Y29865D01*
X10678Y29785D02*
X17271Y29785D01*
X10678Y29705D02*
X17271Y29705D01*
X10682Y29625D02*
X17271Y29625D01*
X10682Y29545D02*
X17271Y29545D01*
X10682Y29465D02*
X17271Y29465D01*
X10682Y29385D02*
X17271Y29385D01*
X10682Y29305D02*
X17271Y29305D01*
X10682Y29225D02*
X17271Y29225D01*
X10682Y29145D02*
X16894Y29145D01*
X17235Y29145D02*
X17271Y29145D01*
X10682Y29065D02*
X16828Y29065D01*
X10682Y28985D02*
X16800Y28985D01*
X10682Y28905D02*
X16799Y28905D01*
X10682Y28825D02*
X16821Y28825D01*
X10682Y28745D02*
X16878Y28745D01*
X17253Y28745D02*
X17271Y28745D01*
X10977Y28665D02*
X17271Y28665D01*
X11053Y28585D02*
X17271Y28585D01*
X11086Y28505D02*
X14092Y28505D01*
X14251Y28505D02*
X17271Y28505D01*
X11093Y28425D02*
X13969Y28425D01*
X14373Y28425D02*
X17271Y28425D01*
X11074Y28345D02*
X13920Y28345D01*
X14421Y28345D02*
X17271Y28345D01*
X11025Y28265D02*
X13903Y28265D01*
X14439Y28265D02*
X17271Y28265D01*
X10682Y28185D02*
X10761Y28185D01*
X10892Y28185D02*
X13911Y28185D01*
X14601Y28185D02*
X17271Y28185D01*
X10682Y28105D02*
X13945Y28105D01*
X14686Y28105D02*
X17271Y28105D01*
X10682Y28025D02*
X14022Y28025D01*
X14725Y28025D02*
X17271Y28025D01*
X10682Y27945D02*
X14198Y27945D01*
X14734Y27945D02*
X14734Y27945D01*
X14734Y27945D02*
X17271Y27945D01*
X10682Y27865D02*
X14213Y27865D01*
X14720Y27865D02*
X14734Y27865D01*
X14734Y27865D02*
X17271Y27865D01*
X10682Y27785D02*
X14256Y27785D01*
X14676Y27785D02*
X14734Y27785D01*
X14734Y27785D02*
X17271Y27785D01*
X10682Y27705D02*
X14058Y27705D01*
X14282Y27705D02*
X14365Y27705D01*
X14567Y27705D02*
X14734Y27705D01*
X14734Y27705D02*
X17271Y27705D01*
X10682Y27625D02*
X13958Y27625D01*
X14383Y27625D02*
X14734Y27625D01*
X14734Y27625D02*
X17271Y27625D01*
X10682Y27545D02*
X13914Y27545D01*
X14426Y27545D02*
X14734Y27545D01*
X14734Y27545D02*
X17271Y27545D01*
X10682Y27465D02*
X13903Y27465D01*
X14439Y27465D02*
X14439Y27465D01*
X14439Y27465D02*
X14734Y27465D01*
X14734Y27465D02*
X17271Y27465D01*
X10682Y27385D02*
X13913Y27385D01*
X14429Y27385D02*
X14439Y27385D01*
X14439Y27385D02*
X14734Y27385D01*
X14734Y27385D02*
X17271Y27385D01*
X10682Y27305D02*
X13953Y27305D01*
X14389Y27305D02*
X14439Y27305D01*
X14439Y27305D02*
X14734Y27305D01*
X14734Y27305D02*
X17271Y27305D01*
X10682Y27225D02*
X14042Y27225D01*
X14299Y27225D02*
X14439Y27225D01*
X14439Y27225D02*
X14734Y27225D01*
X14734Y27225D02*
X17271Y27225D01*
X10682Y27145D02*
X14439Y27145D01*
X14439Y27145D02*
X14734Y27145D01*
X14734Y27145D02*
X17271Y27145D01*
X10682Y27065D02*
X14439Y27065D01*
X14439Y27065D02*
X14734Y27065D01*
X14734Y27065D02*
X17271Y27065D01*
X10682Y26985D02*
X13868Y26985D01*
X14238Y26985D02*
X14439Y26985D01*
X14439Y26985D02*
X14734Y26985D01*
X14734Y26985D02*
X17271Y26985D01*
X10682Y26905D02*
X13810Y26905D01*
X14296Y26905D02*
X14439Y26905D01*
X14439Y26905D02*
X14734Y26905D01*
X14734Y26905D02*
X17271Y26905D01*
X10682Y26825D02*
X13785Y26825D01*
X14464Y26825D02*
X14734Y26825D01*
X14734Y26825D02*
X17271Y26825D01*
X10682Y26745D02*
X13790Y26745D01*
X14577Y26745D02*
X14734Y26745D01*
X14734Y26745D02*
X17271Y26745D01*
X10682Y26665D02*
X13815Y26665D01*
X14621Y26665D02*
X14734Y26665D01*
X14734Y26665D02*
X17271Y26665D01*
X10682Y26585D02*
X13880Y26585D01*
X14636Y26585D02*
X14636Y26585D01*
X14636Y26585D02*
X14734Y26585D01*
X14734Y26585D02*
X17271Y26585D01*
X10682Y26505D02*
X13827Y26505D01*
X14627Y26505D02*
X14636Y26505D01*
X14636Y26505D02*
X14734Y26505D01*
X14734Y26505D02*
X17271Y26505D01*
X10682Y26425D02*
X13748Y26425D01*
X14591Y26425D02*
X14636Y26425D01*
X14636Y26425D02*
X14734Y26425D01*
X14734Y26425D02*
X16543Y26425D01*
X16917Y26425D02*
X17271Y26425D01*
X10682Y26345D02*
X13713Y26345D01*
X14506Y26345D02*
X14636Y26345D01*
X14636Y26345D02*
X14734Y26345D01*
X14734Y26345D02*
X16470Y26345D01*
X16989Y26345D02*
X17271Y26345D01*
X10682Y26265D02*
X13706Y26265D01*
X14242Y26265D02*
X14636Y26265D01*
X14636Y26265D02*
X14734Y26265D01*
X14734Y26265D02*
X16434Y26265D01*
X17026Y26265D02*
X17271Y26265D01*
X10682Y26185D02*
X13724Y26185D01*
X14225Y26185D02*
X14636Y26185D01*
X14636Y26185D02*
X14734Y26185D01*
X14734Y26185D02*
X16423Y26185D01*
X17037Y26185D02*
X17037Y26185D01*
X17037Y26185D02*
X17271Y26185D01*
X10682Y26105D02*
X13771Y26105D01*
X14179Y26105D02*
X14636Y26105D01*
X14636Y26105D02*
X14734Y26105D01*
X14734Y26105D02*
X16432Y26105D01*
X17028Y26105D02*
X17037Y26105D01*
X17037Y26105D02*
X17271Y26105D01*
X10682Y26025D02*
X13889Y26025D01*
X14057Y26025D02*
X14636Y26025D01*
X14636Y26025D02*
X14734Y26025D01*
X14734Y26025D02*
X16466Y26025D01*
X16996Y26025D02*
X17037Y26025D01*
X17037Y26025D02*
X17271Y26025D01*
X10682Y25945D02*
X14636Y25945D01*
X14636Y25945D02*
X14734Y25945D01*
X14734Y25945D02*
X16532Y25945D01*
X16928Y25945D02*
X17037Y25945D01*
X17037Y25945D02*
X17271Y25945D01*
X10682Y25865D02*
X14636Y25865D01*
X14636Y25865D02*
X14734Y25865D01*
X14734Y25865D02*
X17037Y25865D01*
X17037Y25865D02*
X17271Y25865D01*
X10682Y25785D02*
X14636Y25785D01*
X14636Y25785D02*
X14734Y25785D01*
X14734Y25785D02*
X17037Y25785D01*
X17037Y25785D02*
X17271Y25785D01*
X10713Y25705D02*
X14636Y25705D01*
X14636Y25705D02*
X14734Y25705D01*
X14734Y25705D02*
X17037Y25705D01*
X17037Y25705D02*
X17271Y25705D01*
X10793Y25625D02*
X14636Y25625D01*
X14636Y25625D02*
X14734Y25625D01*
X14734Y25625D02*
X17037Y25625D01*
X17037Y25625D02*
X17271Y25625D01*
X10873Y25545D02*
X14636Y25545D01*
X14636Y25545D02*
X14734Y25545D01*
X14734Y25545D02*
X17037Y25545D01*
X17037Y25545D02*
X17271Y25545D01*
X10953Y25465D02*
X14636Y25465D01*
X14636Y25465D02*
X14734Y25465D01*
X14734Y25465D02*
X17037Y25465D01*
X17037Y25465D02*
X17271Y25465D01*
X11033Y25385D02*
X14636Y25385D01*
X14636Y25385D02*
X14734Y25385D01*
X14734Y25385D02*
X17037Y25385D01*
X17037Y25385D02*
X17271Y25385D01*
X11113Y25305D02*
X14636Y25305D01*
X14636Y25305D02*
X14734Y25305D01*
X14734Y25305D02*
X17037Y25305D01*
X17037Y25305D02*
X17271Y25305D01*
X11193Y25225D02*
X14636Y25225D01*
X14636Y25225D02*
X14734Y25225D01*
X14734Y25225D02*
X17037Y25225D01*
X17037Y25225D02*
X17271Y25225D01*
X11272Y25145D02*
X14636Y25145D01*
X14636Y25145D02*
X14734Y25145D01*
X14734Y25145D02*
X17037Y25145D01*
X17037Y25145D02*
X17271Y25145D01*
X11352Y25065D02*
X14636Y25065D01*
X14636Y25065D02*
X14734Y25065D01*
X14734Y25065D02*
X17037Y25065D01*
X17037Y25065D02*
X17271Y25065D01*
X11432Y24985D02*
X14636Y24985D01*
X14636Y24985D02*
X14734Y24985D01*
X14734Y24985D02*
X17037Y24985D01*
X17037Y24985D02*
X17271Y24985D01*
X11512Y24905D02*
X14636Y24905D01*
X14636Y24905D02*
X14734Y24905D01*
X14734Y24905D02*
X17037Y24905D01*
X17037Y24905D02*
X17271Y24905D01*
X11592Y24825D02*
X14636Y24825D01*
X14636Y24825D02*
X14734Y24825D01*
X14734Y24825D02*
X17037Y24825D01*
X17037Y24825D02*
X17271Y24825D01*
X10678Y24745D02*
X10684Y24745D01*
X11671Y24745D02*
X14636Y24745D01*
X14636Y24745D02*
X14734Y24745D01*
X14734Y24745D02*
X17037Y24745D01*
X17037Y24745D02*
X17271Y24745D01*
X10678Y24665D02*
X10764Y24665D01*
X11725Y24665D02*
X14636Y24665D01*
X14636Y24665D02*
X14734Y24665D01*
X14734Y24665D02*
X17037Y24665D01*
X17037Y24665D02*
X17271Y24665D01*
X10678Y24585D02*
X10844Y24585D01*
X11755Y24585D02*
X14636Y24585D01*
X14636Y24585D02*
X14734Y24585D01*
X14734Y24585D02*
X17037Y24585D01*
X17037Y24585D02*
X17271Y24585D01*
X10678Y24505D02*
X10924Y24505D01*
X11765Y24505D02*
X14636Y24505D01*
X14636Y24505D02*
X14734Y24505D01*
X14734Y24505D02*
X17037Y24505D01*
X17037Y24505D02*
X17271Y24505D01*
X10678Y24425D02*
X11004Y24425D01*
X11755Y24425D02*
X14636Y24425D01*
X14636Y24425D02*
X14734Y24425D01*
X14734Y24425D02*
X17037Y24425D01*
X17037Y24425D02*
X17271Y24425D01*
X10678Y24345D02*
X11084Y24345D01*
X11723Y24345D02*
X14636Y24345D01*
X14636Y24345D02*
X14734Y24345D01*
X14734Y24345D02*
X17037Y24345D01*
X17037Y24345D02*
X17271Y24345D01*
X10678Y24265D02*
X11164Y24265D01*
X11666Y24265D02*
X13874Y24265D01*
X14073Y24265D02*
X14268Y24265D01*
X14467Y24265D02*
X14636Y24265D01*
X14636Y24265D02*
X14734Y24265D01*
X14734Y24265D02*
X17037Y24265D01*
X17037Y24265D02*
X17271Y24265D01*
X10678Y24185D02*
X11280Y24185D01*
X11549Y24185D02*
X13765Y24185D01*
X14577Y24185D02*
X14636Y24185D01*
X14636Y24185D02*
X14734Y24185D01*
X14734Y24185D02*
X17037Y24185D01*
X17037Y24185D02*
X17271Y24185D01*
X10678Y24105D02*
X13720Y24105D01*
X14621Y24105D02*
X14636Y24105D01*
X14636Y24105D02*
X14734Y24105D01*
X14734Y24105D02*
X17037Y24105D01*
X17037Y24105D02*
X17271Y24105D01*
X10678Y24025D02*
X13706Y24025D01*
X14636Y24025D02*
X14636Y24025D01*
X14636Y24025D02*
X14734Y24025D01*
X14734Y24025D02*
X17037Y24025D01*
X17037Y24025D02*
X17271Y24025D01*
X10678Y23945D02*
X11382Y23945D01*
X11674Y23945D02*
X13715Y23945D01*
X14627Y23945D02*
X14636Y23945D01*
X14636Y23945D02*
X14734Y23945D01*
X14734Y23945D02*
X17037Y23945D01*
X17037Y23945D02*
X17271Y23945D01*
X10678Y23865D02*
X11303Y23865D01*
X11754Y23865D02*
X13753Y23865D01*
X14590Y23865D02*
X14636Y23865D01*
X14636Y23865D02*
X14734Y23865D01*
X14734Y23865D02*
X17037Y23865D01*
X17037Y23865D02*
X17271Y23865D01*
X10678Y23785D02*
X11268Y23785D01*
X11789Y23785D02*
X13837Y23785D01*
X14110Y23785D02*
X14231Y23785D01*
X14504Y23785D02*
X14636Y23785D01*
X14636Y23785D02*
X14734Y23785D01*
X14734Y23785D02*
X17037Y23785D01*
X17037Y23785D02*
X17271Y23785D01*
X10678Y23705D02*
X11261Y23705D01*
X11797Y23705D02*
X11797Y23705D01*
X11797Y23705D02*
X14636Y23705D01*
X14636Y23705D02*
X14734Y23705D01*
X14734Y23705D02*
X17037Y23705D01*
X17037Y23705D02*
X17271Y23705D01*
X10678Y23625D02*
X11279Y23625D01*
X11780Y23625D02*
X11797Y23625D01*
X11797Y23625D02*
X14636Y23625D01*
X14636Y23625D02*
X14734Y23625D01*
X14734Y23625D02*
X17037Y23625D01*
X17037Y23625D02*
X17271Y23625D01*
X10678Y23545D02*
X11326Y23545D01*
X11734Y23545D02*
X11797Y23545D01*
X11797Y23545D02*
X14636Y23545D01*
X14636Y23545D02*
X14734Y23545D01*
X14734Y23545D02*
X17037Y23545D01*
X17037Y23545D02*
X17271Y23545D01*
X10678Y23465D02*
X11444Y23465D01*
X11612Y23465D02*
X11797Y23465D01*
X11797Y23465D02*
X14636Y23465D01*
X14636Y23465D02*
X14734Y23465D01*
X14734Y23465D02*
X17037Y23465D01*
X17037Y23465D02*
X17271Y23465D01*
X10684Y23385D02*
X11797Y23385D01*
X11797Y23385D02*
X14636Y23385D01*
X14636Y23385D02*
X14734Y23385D01*
X14734Y23385D02*
X17037Y23385D01*
X17037Y23385D02*
X17264Y23385D01*
X10741Y23305D02*
X11797Y23305D01*
X11797Y23305D02*
X14636Y23305D01*
X14636Y23305D02*
X14734Y23305D01*
X14734Y23305D02*
X17037Y23305D01*
X17037Y23305D02*
X17207Y23305D01*
X17271Y23428D02*
X17268Y23397D01*
X17259Y23369D01*
X17246Y23344D01*
X17227Y23322D01*
X17205Y23303D01*
X17180Y23290D01*
X17152Y23281D01*
X17121Y23278D01*
X17037Y23278D01*
X17037Y26211D01*
X17025Y26270D01*
X17002Y26326D01*
X16969Y26376D01*
X16927Y26419D01*
X16877Y26452D01*
X16821Y26476D01*
X16762Y26488D01*
X16702Y26488D01*
X16643Y26477D01*
X16587Y26454D01*
X16537Y26421D01*
X16494Y26379D01*
X16460Y26330D01*
X16436Y26274D01*
X16423Y26215D01*
X16423Y26155D01*
X16433Y26096D01*
X16456Y26040D01*
X16488Y25989D01*
X16530Y25946D01*
X16579Y25912D01*
X16635Y25888D01*
X16693Y25875D01*
X16754Y25873D01*
X16813Y25884D01*
X16869Y25906D01*
X16920Y25938D01*
X16963Y25979D01*
X16998Y26029D01*
X17023Y26084D01*
X17036Y26142D01*
X17037Y26211D01*
X17037Y23278D01*
X14734Y23278D01*
X14734Y27979D01*
X14724Y28031D01*
X14704Y28079D01*
X14675Y28123D01*
X14638Y28160D01*
X14594Y28190D01*
X14546Y28210D01*
X14494Y28221D01*
X14442Y28221D01*
X14438Y28221D01*
X14439Y28274D01*
X14429Y28326D01*
X14409Y28374D01*
X14380Y28418D01*
X14343Y28455D01*
X14299Y28485D01*
X14251Y28505D01*
X14199Y28516D01*
X14147Y28516D01*
X14095Y28506D01*
X14046Y28487D01*
X14002Y28458D01*
X13965Y28421D01*
X13935Y28378D01*
X13914Y28330D01*
X13903Y28278D01*
X13903Y28226D01*
X13912Y28174D01*
X13931Y28125D01*
X13960Y28081D01*
X13996Y28043D01*
X14039Y28013D01*
X14088Y27992D01*
X14139Y27981D01*
X14191Y27980D01*
X14198Y27982D01*
X14198Y27931D01*
X14207Y27879D01*
X14226Y27830D01*
X14255Y27786D01*
X14291Y27748D01*
X14334Y27718D01*
X14383Y27697D01*
X14434Y27686D01*
X14486Y27685D01*
X14538Y27694D01*
X14587Y27713D01*
X14632Y27741D01*
X14670Y27777D01*
X14700Y27820D01*
X14721Y27868D01*
X14733Y27919D01*
X14734Y27979D01*
X14734Y23278D01*
X14636Y23278D01*
X14636Y24042D01*
X14636Y26601D01*
X14626Y26653D01*
X14606Y26701D01*
X14577Y26745D01*
X14540Y26782D01*
X14496Y26812D01*
X14448Y26832D01*
X14439Y26834D01*
X14439Y27487D01*
X14429Y27539D01*
X14409Y27587D01*
X14380Y27631D01*
X14343Y27668D01*
X14299Y27698D01*
X14251Y27718D01*
X14199Y27729D01*
X14147Y27729D01*
X14095Y27719D01*
X14046Y27700D01*
X14002Y27671D01*
X13965Y27634D01*
X13935Y27591D01*
X13914Y27543D01*
X13903Y27491D01*
X13903Y27439D01*
X13912Y27387D01*
X13931Y27338D01*
X13960Y27294D01*
X13996Y27256D01*
X14039Y27226D01*
X14088Y27205D01*
X14139Y27194D01*
X14191Y27193D01*
X14243Y27202D01*
X14292Y27221D01*
X14337Y27249D01*
X14375Y27285D01*
X14405Y27328D01*
X14426Y27376D01*
X14438Y27427D01*
X14439Y27487D01*
X14439Y26834D01*
X14396Y26843D01*
X14344Y26843D01*
X14316Y26838D01*
X14311Y26869D01*
X14291Y26917D01*
X14262Y26961D01*
X14225Y26998D01*
X14181Y27028D01*
X14133Y27048D01*
X14081Y27059D01*
X14029Y27059D01*
X13977Y27049D01*
X13928Y27030D01*
X13884Y27001D01*
X13847Y26964D01*
X13817Y26921D01*
X13796Y26873D01*
X13785Y26821D01*
X13785Y26769D01*
X13794Y26717D01*
X13813Y26668D01*
X13842Y26624D01*
X13878Y26586D01*
X13921Y26556D01*
X13942Y26547D01*
X13898Y26538D01*
X13849Y26519D01*
X13805Y26490D01*
X13768Y26453D01*
X13738Y26410D01*
X13717Y26362D01*
X13706Y26310D01*
X13706Y26258D01*
X13715Y26206D01*
X13734Y26157D01*
X13763Y26113D01*
X13799Y26075D01*
X13842Y26045D01*
X13891Y26024D01*
X13942Y26013D01*
X13994Y26012D01*
X14046Y26021D01*
X14095Y26040D01*
X14140Y26068D01*
X14178Y26104D01*
X14208Y26147D01*
X14229Y26195D01*
X14241Y26246D01*
X14242Y26306D01*
X14235Y26341D01*
X14236Y26340D01*
X14285Y26319D01*
X14336Y26308D01*
X14388Y26307D01*
X14440Y26316D01*
X14489Y26335D01*
X14534Y26363D01*
X14572Y26399D01*
X14602Y26442D01*
X14623Y26490D01*
X14635Y26541D01*
X14636Y26601D01*
X14636Y24042D01*
X14626Y24094D01*
X14606Y24142D01*
X14577Y24186D01*
X14540Y24223D01*
X14496Y24253D01*
X14448Y24273D01*
X14396Y24284D01*
X14344Y24284D01*
X14292Y24274D01*
X14243Y24255D01*
X14199Y24226D01*
X14171Y24198D01*
X14146Y24223D01*
X14102Y24253D01*
X14054Y24273D01*
X14002Y24284D01*
X13950Y24284D01*
X13898Y24274D01*
X13849Y24255D01*
X13805Y24226D01*
X13768Y24189D01*
X13738Y24146D01*
X13717Y24098D01*
X13706Y24046D01*
X13706Y23994D01*
X13715Y23942D01*
X13734Y23893D01*
X13763Y23849D01*
X13799Y23811D01*
X13842Y23781D01*
X13891Y23760D01*
X13942Y23749D01*
X13994Y23748D01*
X14046Y23757D01*
X14095Y23776D01*
X14140Y23804D01*
X14171Y23834D01*
X14193Y23811D01*
X14236Y23781D01*
X14285Y23760D01*
X14336Y23749D01*
X14388Y23748D01*
X14440Y23757D01*
X14489Y23776D01*
X14534Y23804D01*
X14572Y23840D01*
X14602Y23883D01*
X14623Y23931D01*
X14635Y23982D01*
X14636Y24042D01*
X14636Y23278D01*
X11797Y23278D01*
X11797Y23746D01*
X11787Y23798D01*
X11767Y23846D01*
X11738Y23890D01*
X11701Y23927D01*
X11657Y23957D01*
X11609Y23977D01*
X11557Y23988D01*
X11505Y23988D01*
X11453Y23978D01*
X11404Y23959D01*
X11360Y23930D01*
X11323Y23893D01*
X11293Y23850D01*
X11272Y23802D01*
X11261Y23750D01*
X11261Y23698D01*
X11270Y23646D01*
X11289Y23597D01*
X11318Y23553D01*
X11354Y23515D01*
X11397Y23485D01*
X11446Y23464D01*
X11497Y23453D01*
X11549Y23452D01*
X11601Y23461D01*
X11650Y23480D01*
X11695Y23508D01*
X11733Y23544D01*
X11763Y23587D01*
X11784Y23635D01*
X11796Y23686D01*
X11797Y23746D01*
X11797Y23278D01*
X10828Y23278D01*
X10797Y23281D01*
X10769Y23290D01*
X10744Y23303D01*
X10722Y23322D01*
X10703Y23344D01*
X10690Y23369D01*
X10681Y23397D01*
X10678Y23428D01*
X10678Y24751D01*
X10720Y24708D01*
X10721Y24707D01*
X10724Y24704D01*
X10725Y24704D01*
X10729Y24700D01*
X11167Y24261D01*
X11220Y24218D01*
X11280Y24185D01*
X11345Y24165D01*
X11414Y24158D01*
X11481Y24165D01*
X11547Y24184D01*
X11608Y24216D01*
X11661Y24259D01*
X11705Y24312D01*
X11737Y24371D01*
X11758Y24437D01*
X11765Y24505D01*
X11759Y24573D01*
X11740Y24638D01*
X11708Y24699D01*
X11666Y24752D01*
X11662Y24756D01*
X11226Y25191D01*
X11223Y25195D01*
X11219Y25199D01*
X10682Y25736D01*
X10682Y25976D01*
X10682Y25981D01*
X10682Y27354D01*
X10682Y27359D01*
X10682Y28218D01*
X10693Y28210D01*
X10742Y28189D01*
X10793Y28178D01*
X10845Y28177D01*
X10897Y28186D01*
X10946Y28205D01*
X10991Y28233D01*
X11029Y28269D01*
X11059Y28312D01*
X11080Y28360D01*
X11092Y28411D01*
X11093Y28471D01*
X11083Y28523D01*
X11063Y28571D01*
X11034Y28615D01*
X10997Y28652D01*
X10953Y28682D01*
X10905Y28702D01*
X10853Y28713D01*
X10801Y28713D01*
X10749Y28703D01*
X10700Y28684D01*
X10682Y28673D01*
X10682Y29616D01*
X10682Y29625D01*
X10683Y29625D01*
X10678Y29664D01*
X10678Y29673D01*
X10678Y30115D01*
X10681Y30146D01*
X10690Y30174D01*
X10703Y30199D01*
X10722Y30221D01*
X10744Y30240D01*
X10769Y30253D01*
X10797Y30262D01*
X10828Y30265D01*
X17121Y30265D01*
X17152Y30262D01*
X17180Y30253D01*
X17205Y30240D01*
X17227Y30221D01*
X17246Y30199D01*
X17259Y30174D01*
X17268Y30146D01*
X17271Y30115D01*
X17271Y29110D01*
X17237Y29144D01*
X17193Y29174D01*
X17145Y29194D01*
X17093Y29205D01*
X17041Y29205D01*
X16989Y29195D01*
X16940Y29176D01*
X16896Y29147D01*
X16859Y29110D01*
X16829Y29067D01*
X16808Y29019D01*
X16797Y28967D01*
X16797Y28915D01*
X16806Y28863D01*
X16825Y28814D01*
X16854Y28770D01*
X16890Y28732D01*
X16933Y28702D01*
X16982Y28681D01*
X17033Y28670D01*
X17085Y28669D01*
X17137Y28678D01*
X17186Y28697D01*
X17231Y28725D01*
X17269Y28761D01*
X17271Y28764D01*
X17271Y23428D01*
X10828Y22391D02*
X16924Y22391D01*
X10696Y22311D02*
X17057Y22311D01*
X10678Y22231D02*
X17074Y22231D01*
X10678Y22151D02*
X17074Y22151D01*
X10678Y22071D02*
X17074Y22071D01*
X10678Y21991D02*
X17074Y21991D01*
X10678Y21911D02*
X17074Y21911D01*
X10678Y21831D02*
X17074Y21831D01*
X10678Y21751D02*
X17074Y21751D01*
X10681Y21671D02*
X17074Y21671D01*
X10683Y21591D02*
X17074Y21591D01*
X10683Y21511D02*
X17074Y21511D01*
X10683Y21431D02*
X17074Y21431D01*
X10683Y21351D02*
X17074Y21351D01*
X10683Y21271D02*
X17074Y21271D01*
X10683Y21191D02*
X17074Y21191D01*
X10683Y21111D02*
X17074Y21111D01*
X10683Y21031D02*
X17074Y21031D01*
X10683Y20951D02*
X17074Y20951D01*
X10683Y20871D02*
X17074Y20871D01*
X10683Y20791D02*
X14312Y20791D01*
X14618Y20791D02*
X17074Y20791D01*
X10683Y20711D02*
X10700Y20711D01*
X10948Y20711D02*
X14236Y20711D01*
X14694Y20711D02*
X17074Y20711D01*
X11041Y20631D02*
X14204Y20631D01*
X14727Y20631D02*
X17074Y20631D01*
X11082Y20551D02*
X14198Y20551D01*
X14734Y20551D02*
X17074Y20551D01*
X11093Y20471D02*
X13987Y20471D01*
X14715Y20471D02*
X17074Y20471D01*
X11081Y20391D02*
X13928Y20391D01*
X14666Y20391D02*
X17074Y20391D01*
X11040Y20311D02*
X13904Y20311D01*
X14533Y20311D02*
X17074Y20311D01*
X10683Y20231D02*
X10707Y20231D01*
X10944Y20231D02*
X13907Y20231D01*
X14436Y20231D02*
X14470Y20231D01*
X14659Y20231D02*
X17074Y20231D01*
X10683Y20151D02*
X13933Y20151D01*
X14773Y20151D02*
X17074Y20151D01*
X10683Y20071D02*
X13996Y20071D01*
X14817Y20071D02*
X17074Y20071D01*
X10683Y19991D02*
X14297Y19991D01*
X14833Y19991D02*
X14833Y19991D01*
X14833Y19991D02*
X17074Y19991D01*
X10683Y19911D02*
X14306Y19911D01*
X14824Y19911D02*
X14833Y19911D01*
X14833Y19911D02*
X17074Y19911D01*
X10683Y19831D02*
X14343Y19831D01*
X14788Y19831D02*
X14833Y19831D01*
X14833Y19831D02*
X17074Y19831D01*
X10683Y19751D02*
X14121Y19751D01*
X14222Y19751D02*
X14425Y19751D01*
X14704Y19751D02*
X14833Y19751D01*
X14833Y19751D02*
X17074Y19751D01*
X10683Y19671D02*
X13975Y19671D01*
X14367Y19671D02*
X14833Y19671D01*
X14833Y19671D02*
X17074Y19671D01*
X10683Y19591D02*
X13923Y19591D01*
X14418Y19591D02*
X14833Y19591D01*
X14833Y19591D02*
X17074Y19591D01*
X10683Y19511D02*
X13903Y19511D01*
X14439Y19511D02*
X14439Y19511D01*
X14439Y19511D02*
X14833Y19511D01*
X14833Y19511D02*
X17074Y19511D01*
X10683Y19431D02*
X13910Y19431D01*
X14433Y19431D02*
X14439Y19431D01*
X14439Y19431D02*
X14833Y19431D01*
X14833Y19431D02*
X17074Y19431D01*
X10681Y19351D02*
X13941Y19351D01*
X14403Y19351D02*
X14439Y19351D01*
X14439Y19351D02*
X14833Y19351D01*
X14833Y19351D02*
X17074Y19351D01*
X10681Y19271D02*
X14014Y19271D01*
X14329Y19271D02*
X14439Y19271D01*
X14439Y19271D02*
X14833Y19271D01*
X14833Y19271D02*
X17074Y19271D01*
X10681Y19191D02*
X14439Y19191D01*
X14439Y19191D02*
X14833Y19191D01*
X14833Y19191D02*
X17074Y19191D01*
X10681Y19111D02*
X14439Y19111D01*
X14439Y19111D02*
X14833Y19111D01*
X14833Y19111D02*
X17074Y19111D01*
X10681Y19031D02*
X13887Y19031D01*
X14217Y19031D02*
X14439Y19031D01*
X14439Y19031D02*
X14833Y19031D01*
X14833Y19031D02*
X17074Y19031D01*
X10681Y18951D02*
X13818Y18951D01*
X14287Y18951D02*
X14439Y18951D01*
X14439Y18951D02*
X14833Y18951D01*
X14833Y18951D02*
X17074Y18951D01*
X10681Y18871D02*
X13789Y18871D01*
X14315Y18871D02*
X14439Y18871D01*
X14439Y18871D02*
X14833Y18871D01*
X14833Y18871D02*
X17074Y18871D01*
X10681Y18791D02*
X13787Y18791D01*
X14558Y18791D02*
X14833Y18791D01*
X14833Y18791D02*
X17074Y18791D01*
X10681Y18711D02*
X13808Y18711D01*
X14613Y18711D02*
X14833Y18711D01*
X14833Y18711D02*
X17074Y18711D01*
X10681Y18631D02*
X13862Y18631D01*
X14635Y18631D02*
X14833Y18631D01*
X14833Y18631D02*
X17074Y18631D01*
X10681Y18551D02*
X13861Y18551D01*
X14631Y18551D02*
X14636Y18551D01*
X14636Y18551D02*
X14833Y18551D01*
X14833Y18551D02*
X17074Y18551D01*
X10681Y18471D02*
X13761Y18471D01*
X14603Y18471D02*
X14636Y18471D01*
X14636Y18471D02*
X14833Y18471D01*
X14833Y18471D02*
X17074Y18471D01*
X10681Y18391D02*
X13717Y18391D01*
X14536Y18391D02*
X14636Y18391D01*
X14636Y18391D02*
X14833Y18391D01*
X14833Y18391D02*
X17074Y18391D01*
X10681Y18311D02*
X13706Y18311D01*
X14242Y18311D02*
X14636Y18311D01*
X14636Y18311D02*
X14833Y18311D01*
X14833Y18311D02*
X17074Y18311D01*
X10681Y18231D02*
X13716Y18231D01*
X14232Y18231D02*
X14636Y18231D01*
X14636Y18231D02*
X14833Y18231D01*
X14833Y18231D02*
X17074Y18231D01*
X10681Y18151D02*
X13756Y18151D01*
X14192Y18151D02*
X14636Y18151D01*
X14636Y18151D02*
X14833Y18151D01*
X14833Y18151D02*
X17074Y18151D01*
X10681Y18071D02*
X13845Y18071D01*
X14102Y18071D02*
X14636Y18071D01*
X14636Y18071D02*
X14833Y18071D01*
X14833Y18071D02*
X17074Y18071D01*
X10681Y17991D02*
X14636Y17991D01*
X14636Y17991D02*
X14833Y17991D01*
X14833Y17991D02*
X17074Y17991D01*
X10681Y17911D02*
X14636Y17911D01*
X14636Y17911D02*
X14833Y17911D01*
X14833Y17911D02*
X15651Y17911D01*
X15841Y17911D02*
X17074Y17911D01*
X10681Y17831D02*
X14636Y17831D01*
X14636Y17831D02*
X14833Y17831D01*
X14833Y17831D02*
X15525Y17831D01*
X15967Y17831D02*
X17074Y17831D01*
X10694Y17751D02*
X14636Y17751D01*
X14636Y17751D02*
X14833Y17751D01*
X14833Y17751D02*
X15469Y17751D01*
X16022Y17751D02*
X17074Y17751D01*
X10774Y17671D02*
X14636Y17671D01*
X14636Y17671D02*
X14833Y17671D01*
X14833Y17671D02*
X15443Y17671D01*
X16048Y17671D02*
X17074Y17671D01*
X10854Y17591D02*
X14636Y17591D01*
X14636Y17591D02*
X14833Y17591D01*
X14833Y17591D02*
X15440Y17591D01*
X16053Y17591D02*
X16053Y17591D01*
X16053Y17591D02*
X17074Y17591D01*
X10933Y17511D02*
X14636Y17511D01*
X14636Y17511D02*
X14833Y17511D01*
X14833Y17511D02*
X15459Y17511D01*
X16035Y17511D02*
X16053Y17511D01*
X16053Y17511D02*
X17074Y17511D01*
X11013Y17431D02*
X14636Y17431D01*
X14636Y17431D02*
X14833Y17431D01*
X14833Y17431D02*
X15501Y17431D01*
X15990Y17431D02*
X16053Y17431D01*
X16053Y17431D02*
X17074Y17431D01*
X11093Y17351D02*
X14636Y17351D01*
X14636Y17351D02*
X14833Y17351D01*
X14833Y17351D02*
X15593Y17351D01*
X15898Y17351D02*
X16053Y17351D01*
X16053Y17351D02*
X17074Y17351D01*
X11173Y17271D02*
X14636Y17271D01*
X14636Y17271D02*
X14833Y17271D01*
X14833Y17271D02*
X16053Y17271D01*
X16053Y17271D02*
X17074Y17271D01*
X11253Y17191D02*
X14636Y17191D01*
X14636Y17191D02*
X14833Y17191D01*
X14833Y17191D02*
X16053Y17191D01*
X16053Y17191D02*
X17074Y17191D01*
X11333Y17111D02*
X14636Y17111D01*
X14636Y17111D02*
X14833Y17111D01*
X14833Y17111D02*
X16053Y17111D01*
X16053Y17111D02*
X17074Y17111D01*
X11413Y17031D02*
X14636Y17031D01*
X14636Y17031D02*
X14833Y17031D01*
X14833Y17031D02*
X16053Y17031D01*
X16053Y17031D02*
X17074Y17031D01*
X11493Y16951D02*
X14636Y16951D01*
X14636Y16951D02*
X14833Y16951D01*
X14833Y16951D02*
X16053Y16951D01*
X16053Y16951D02*
X17074Y16951D01*
X11573Y16871D02*
X14636Y16871D01*
X14636Y16871D02*
X14833Y16871D01*
X14833Y16871D02*
X16053Y16871D01*
X16053Y16871D02*
X17074Y16871D01*
X11653Y16791D02*
X14636Y16791D01*
X14636Y16791D02*
X14833Y16791D01*
X14833Y16791D02*
X16053Y16791D01*
X16053Y16791D02*
X17074Y16791D01*
X10678Y16711D02*
X10745Y16711D01*
X11715Y16711D02*
X14636Y16711D01*
X14636Y16711D02*
X14833Y16711D01*
X14833Y16711D02*
X16053Y16711D01*
X16053Y16711D02*
X17074Y16711D01*
X10678Y16631D02*
X10825Y16631D01*
X11749Y16631D02*
X14636Y16631D01*
X14636Y16631D02*
X14833Y16631D01*
X14833Y16631D02*
X16053Y16631D01*
X16053Y16631D02*
X17074Y16631D01*
X10678Y16551D02*
X10905Y16551D01*
X11763Y16551D02*
X14636Y16551D01*
X14636Y16551D02*
X14833Y16551D01*
X14833Y16551D02*
X16053Y16551D01*
X16053Y16551D02*
X17074Y16551D01*
X10678Y16471D02*
X10985Y16471D01*
X11759Y16471D02*
X14636Y16471D01*
X14636Y16471D02*
X14833Y16471D01*
X14833Y16471D02*
X16053Y16471D01*
X16053Y16471D02*
X17074Y16471D01*
X10678Y16391D02*
X11065Y16391D01*
X11734Y16391D02*
X13874Y16391D01*
X14073Y16391D02*
X14268Y16391D01*
X14467Y16391D02*
X14636Y16391D01*
X14636Y16391D02*
X14833Y16391D01*
X14833Y16391D02*
X16053Y16391D01*
X16053Y16391D02*
X17074Y16391D01*
X10678Y16311D02*
X11145Y16311D01*
X11682Y16311D02*
X13765Y16311D01*
X14577Y16311D02*
X14636Y16311D01*
X14636Y16311D02*
X14833Y16311D01*
X14833Y16311D02*
X16053Y16311D01*
X16053Y16311D02*
X17074Y16311D01*
X10678Y16231D02*
X11246Y16231D01*
X11586Y16231D02*
X13720Y16231D01*
X14621Y16231D02*
X14636Y16231D01*
X14636Y16231D02*
X14833Y16231D01*
X14833Y16231D02*
X16053Y16231D01*
X16053Y16231D02*
X17074Y16231D01*
X10678Y16151D02*
X13706Y16151D01*
X14636Y16151D02*
X14636Y16151D01*
X14636Y16151D02*
X14833Y16151D01*
X14833Y16151D02*
X16053Y16151D01*
X16053Y16151D02*
X17074Y16151D01*
X10678Y16071D02*
X13715Y16071D01*
X14627Y16071D02*
X14636Y16071D01*
X14636Y16071D02*
X14833Y16071D01*
X14833Y16071D02*
X16053Y16071D01*
X16053Y16071D02*
X17074Y16071D01*
X10678Y15991D02*
X13753Y15991D01*
X14590Y15991D02*
X14636Y15991D01*
X14636Y15991D02*
X14833Y15991D01*
X14833Y15991D02*
X16053Y15991D01*
X16053Y15991D02*
X17074Y15991D01*
X10678Y15911D02*
X11508Y15911D01*
X11630Y15911D02*
X13837Y15911D01*
X14110Y15911D02*
X14231Y15911D01*
X14504Y15911D02*
X14636Y15911D01*
X14636Y15911D02*
X14833Y15911D01*
X14833Y15911D02*
X16053Y15911D01*
X16053Y15911D02*
X17074Y15911D01*
X10678Y15831D02*
X11371Y15831D01*
X11767Y15831D02*
X14636Y15831D01*
X14636Y15831D02*
X14833Y15831D01*
X14833Y15831D02*
X16053Y15831D01*
X16053Y15831D02*
X17074Y15831D01*
X10678Y15751D02*
X11320Y15751D01*
X11817Y15751D02*
X14636Y15751D01*
X14636Y15751D02*
X14833Y15751D01*
X14833Y15751D02*
X16053Y15751D01*
X16053Y15751D02*
X17074Y15751D01*
X10678Y15671D02*
X11301Y15671D01*
X11837Y15671D02*
X11837Y15671D01*
X11837Y15671D02*
X14636Y15671D01*
X14636Y15671D02*
X14833Y15671D01*
X14833Y15671D02*
X16053Y15671D01*
X16053Y15671D02*
X17074Y15671D01*
X10678Y15591D02*
X11308Y15591D01*
X11831Y15591D02*
X11837Y15591D01*
X11837Y15591D02*
X14636Y15591D01*
X14636Y15591D02*
X14833Y15591D01*
X14833Y15591D02*
X16053Y15591D01*
X16053Y15591D02*
X17074Y15591D01*
X10678Y15511D02*
X11340Y15511D01*
X11799Y15511D02*
X11837Y15511D01*
X11837Y15511D02*
X14636Y15511D01*
X14636Y15511D02*
X14833Y15511D01*
X14833Y15511D02*
X16053Y15511D01*
X16053Y15511D02*
X17074Y15511D01*
X10678Y15431D02*
X11415Y15431D01*
X11724Y15431D02*
X11837Y15431D01*
X11837Y15431D02*
X14636Y15431D01*
X14636Y15431D02*
X14833Y15431D01*
X14833Y15431D02*
X16053Y15431D01*
X16053Y15431D02*
X17074Y15431D01*
X10678Y15351D02*
X11837Y15351D01*
X11837Y15351D02*
X14636Y15351D01*
X14636Y15351D02*
X14833Y15351D01*
X14833Y15351D02*
X16053Y15351D01*
X16053Y15351D02*
X17074Y15351D01*
X10678Y15271D02*
X11837Y15271D01*
X11837Y15271D02*
X14636Y15271D01*
X14636Y15271D02*
X14833Y15271D01*
X14833Y15271D02*
X16053Y15271D01*
X16053Y15271D02*
X17074Y15271D01*
X10678Y15191D02*
X11837Y15191D01*
X11837Y15191D02*
X14636Y15191D01*
X14636Y15191D02*
X14833Y15191D01*
X14833Y15191D02*
X16053Y15191D01*
X16053Y15191D02*
X17074Y15191D01*
X10687Y15111D02*
X11837Y15111D01*
X11837Y15111D02*
X14636Y15111D01*
X14636Y15111D02*
X14833Y15111D01*
X14833Y15111D02*
X16053Y15111D01*
X16053Y15111D02*
X17064Y15111D01*
X10753Y15031D02*
X11837Y15031D01*
X11837Y15031D02*
X14636Y15031D01*
X14636Y15031D02*
X14833Y15031D01*
X14833Y15031D02*
X16053Y15031D01*
X16053Y15031D02*
X16998Y15031D01*
X17074Y15161D02*
X17071Y15130D01*
X17062Y15102D01*
X17049Y15077D01*
X17030Y15055D01*
X17008Y15036D01*
X16983Y15023D01*
X16955Y15014D01*
X16924Y15011D01*
X16053Y15011D01*
X16053Y17648D01*
X16041Y17707D01*
X16018Y17763D01*
X15985Y17813D01*
X15943Y17856D01*
X15893Y17889D01*
X15837Y17913D01*
X15778Y17925D01*
X15718Y17925D01*
X15659Y17914D01*
X15603Y17891D01*
X15553Y17858D01*
X15510Y17816D01*
X15476Y17767D01*
X15452Y17711D01*
X15439Y17652D01*
X15439Y17592D01*
X15449Y17533D01*
X15472Y17477D01*
X15504Y17426D01*
X15546Y17383D01*
X15595Y17349D01*
X15651Y17325D01*
X15709Y17312D01*
X15770Y17310D01*
X15829Y17321D01*
X15885Y17343D01*
X15936Y17375D01*
X15979Y17416D01*
X16014Y17466D01*
X16039Y17521D01*
X16052Y17579D01*
X16053Y17648D01*
X16053Y15011D01*
X14833Y15011D01*
X14833Y20006D01*
X14823Y20058D01*
X14803Y20106D01*
X14774Y20150D01*
X14737Y20187D01*
X14693Y20217D01*
X14645Y20237D01*
X14593Y20248D01*
X14541Y20248D01*
X14489Y20238D01*
X14440Y20219D01*
X14431Y20214D01*
X14438Y20242D01*
X14439Y20302D01*
X14438Y20304D01*
X14486Y20303D01*
X14538Y20312D01*
X14587Y20331D01*
X14632Y20359D01*
X14670Y20395D01*
X14700Y20438D01*
X14721Y20486D01*
X14733Y20537D01*
X14734Y20597D01*
X14724Y20649D01*
X14704Y20697D01*
X14675Y20741D01*
X14638Y20778D01*
X14594Y20808D01*
X14546Y20828D01*
X14494Y20839D01*
X14442Y20839D01*
X14390Y20829D01*
X14341Y20810D01*
X14297Y20781D01*
X14260Y20744D01*
X14230Y20701D01*
X14209Y20653D01*
X14198Y20601D01*
X14198Y20549D01*
X14198Y20544D01*
X14147Y20544D01*
X14095Y20534D01*
X14046Y20515D01*
X14002Y20486D01*
X13965Y20449D01*
X13935Y20406D01*
X13914Y20358D01*
X13903Y20306D01*
X13903Y20254D01*
X13912Y20202D01*
X13931Y20153D01*
X13960Y20109D01*
X13996Y20071D01*
X14039Y20041D01*
X14088Y20020D01*
X14139Y20009D01*
X14191Y20008D01*
X14243Y20017D01*
X14292Y20036D01*
X14304Y20044D01*
X14297Y20010D01*
X14297Y19958D01*
X14306Y19906D01*
X14325Y19857D01*
X14354Y19813D01*
X14390Y19775D01*
X14433Y19745D01*
X14482Y19724D01*
X14533Y19713D01*
X14585Y19712D01*
X14637Y19721D01*
X14686Y19740D01*
X14731Y19768D01*
X14769Y19804D01*
X14799Y19847D01*
X14820Y19895D01*
X14832Y19946D01*
X14833Y20006D01*
X14833Y15011D01*
X14636Y15011D01*
X14636Y16168D01*
X14636Y18628D01*
X14626Y18680D01*
X14606Y18728D01*
X14577Y18772D01*
X14540Y18809D01*
X14496Y18839D01*
X14448Y18859D01*
X14439Y18861D01*
X14439Y19514D01*
X14429Y19566D01*
X14409Y19614D01*
X14380Y19658D01*
X14343Y19695D01*
X14299Y19725D01*
X14251Y19745D01*
X14199Y19756D01*
X14147Y19756D01*
X14095Y19746D01*
X14046Y19727D01*
X14002Y19698D01*
X13965Y19661D01*
X13935Y19618D01*
X13914Y19570D01*
X13903Y19518D01*
X13903Y19466D01*
X13912Y19414D01*
X13931Y19365D01*
X13960Y19321D01*
X13996Y19283D01*
X14039Y19253D01*
X14088Y19232D01*
X14139Y19221D01*
X14191Y19220D01*
X14243Y19229D01*
X14292Y19248D01*
X14337Y19276D01*
X14375Y19312D01*
X14405Y19355D01*
X14426Y19403D01*
X14438Y19454D01*
X14439Y19514D01*
X14439Y18861D01*
X14396Y18870D01*
X14344Y18870D01*
X14317Y18865D01*
X14311Y18897D01*
X14291Y18945D01*
X14262Y18989D01*
X14225Y19026D01*
X14181Y19056D01*
X14133Y19076D01*
X14081Y19087D01*
X14029Y19087D01*
X13977Y19077D01*
X13928Y19058D01*
X13884Y19029D01*
X13847Y18992D01*
X13817Y18949D01*
X13796Y18901D01*
X13785Y18849D01*
X13785Y18797D01*
X13794Y18745D01*
X13813Y18696D01*
X13842Y18652D01*
X13878Y18614D01*
X13921Y18584D01*
X13944Y18574D01*
X13898Y18565D01*
X13849Y18546D01*
X13805Y18517D01*
X13768Y18480D01*
X13738Y18437D01*
X13717Y18389D01*
X13706Y18337D01*
X13706Y18285D01*
X13715Y18233D01*
X13734Y18184D01*
X13763Y18140D01*
X13799Y18102D01*
X13842Y18072D01*
X13891Y18051D01*
X13942Y18040D01*
X13994Y18039D01*
X14046Y18048D01*
X14095Y18067D01*
X14140Y18095D01*
X14178Y18131D01*
X14208Y18174D01*
X14229Y18222D01*
X14241Y18273D01*
X14242Y18333D01*
X14235Y18368D01*
X14236Y18367D01*
X14285Y18346D01*
X14336Y18335D01*
X14388Y18334D01*
X14440Y18343D01*
X14489Y18362D01*
X14534Y18390D01*
X14572Y18426D01*
X14602Y18469D01*
X14623Y18517D01*
X14635Y18568D01*
X14636Y18628D01*
X14636Y16168D01*
X14626Y16220D01*
X14606Y16268D01*
X14577Y16312D01*
X14540Y16349D01*
X14496Y16379D01*
X14448Y16399D01*
X14396Y16410D01*
X14344Y16410D01*
X14292Y16400D01*
X14243Y16381D01*
X14199Y16352D01*
X14171Y16324D01*
X14146Y16349D01*
X14102Y16379D01*
X14054Y16399D01*
X14002Y16410D01*
X13950Y16410D01*
X13898Y16400D01*
X13849Y16381D01*
X13805Y16352D01*
X13768Y16315D01*
X13738Y16272D01*
X13717Y16224D01*
X13706Y16172D01*
X13706Y16120D01*
X13715Y16068D01*
X13734Y16019D01*
X13763Y15975D01*
X13799Y15937D01*
X13842Y15907D01*
X13891Y15886D01*
X13942Y15875D01*
X13994Y15874D01*
X14046Y15883D01*
X14095Y15902D01*
X14140Y15930D01*
X14171Y15960D01*
X14193Y15937D01*
X14236Y15907D01*
X14285Y15886D01*
X14336Y15875D01*
X14388Y15874D01*
X14440Y15883D01*
X14489Y15902D01*
X14534Y15930D01*
X14572Y15966D01*
X14602Y16009D01*
X14623Y16057D01*
X14635Y16108D01*
X14636Y16168D01*
X14636Y15011D01*
X11837Y15011D01*
X11837Y15676D01*
X11827Y15728D01*
X11807Y15776D01*
X11778Y15820D01*
X11741Y15857D01*
X11697Y15887D01*
X11649Y15907D01*
X11597Y15918D01*
X11545Y15918D01*
X11493Y15908D01*
X11444Y15889D01*
X11400Y15860D01*
X11363Y15823D01*
X11333Y15780D01*
X11312Y15732D01*
X11301Y15680D01*
X11301Y15628D01*
X11310Y15576D01*
X11329Y15527D01*
X11358Y15483D01*
X11394Y15445D01*
X11437Y15415D01*
X11486Y15394D01*
X11537Y15383D01*
X11589Y15382D01*
X11641Y15391D01*
X11690Y15410D01*
X11735Y15438D01*
X11773Y15474D01*
X11803Y15517D01*
X11824Y15565D01*
X11836Y15616D01*
X11837Y15676D01*
X11837Y15011D01*
X10828Y15011D01*
X10797Y15014D01*
X10769Y15023D01*
X10744Y15036D01*
X10722Y15055D01*
X10703Y15077D01*
X10690Y15102D01*
X10681Y15130D01*
X10678Y15161D01*
X10678Y16778D01*
X10720Y16735D01*
X10721Y16734D01*
X10724Y16731D01*
X10725Y16731D01*
X10729Y16727D01*
X11167Y16288D01*
X11220Y16245D01*
X11280Y16212D01*
X11345Y16192D01*
X11414Y16185D01*
X11481Y16192D01*
X11547Y16211D01*
X11608Y16243D01*
X11661Y16286D01*
X11705Y16339D01*
X11737Y16398D01*
X11758Y16464D01*
X11765Y16532D01*
X11759Y16600D01*
X11740Y16665D01*
X11708Y16726D01*
X11666Y16779D01*
X11662Y16783D01*
X11226Y17218D01*
X11223Y17222D01*
X11219Y17226D01*
X10882Y17562D01*
X10879Y17566D01*
X10875Y17570D01*
X10681Y17764D01*
X10681Y18004D01*
X10681Y18009D01*
X10681Y19367D01*
X10683Y19384D01*
X10683Y19389D01*
X10683Y20244D01*
X10693Y20237D01*
X10742Y20216D01*
X10793Y20205D01*
X10845Y20204D01*
X10897Y20213D01*
X10946Y20232D01*
X10991Y20260D01*
X11029Y20296D01*
X11059Y20339D01*
X11080Y20387D01*
X11092Y20438D01*
X11093Y20498D01*
X11083Y20550D01*
X11063Y20598D01*
X11034Y20642D01*
X10997Y20679D01*
X10953Y20709D01*
X10905Y20729D01*
X10853Y20740D01*
X10801Y20740D01*
X10749Y20730D01*
X10700Y20711D01*
X10683Y20700D01*
X10683Y21654D01*
X10678Y21703D01*
X10678Y22241D01*
X10681Y22272D01*
X10690Y22300D01*
X10703Y22325D01*
X10722Y22347D01*
X10744Y22366D01*
X10769Y22379D01*
X10797Y22388D01*
X10828Y22391D01*
X16924Y22391D01*
X16955Y22388D01*
X16983Y22379D01*
X17008Y22366D01*
X17030Y22347D01*
X17049Y22325D01*
X17062Y22300D01*
X17071Y22272D01*
X17074Y22241D01*
X17074Y15161D01*
X05593Y14123D02*
X13085Y14123D01*
X05450Y14043D02*
X13218Y14043D01*
X05370Y13963D02*
X13235Y13963D01*
X05290Y13883D02*
X13235Y13883D01*
X05211Y13803D02*
X13235Y13803D01*
X05169Y13723D02*
X13235Y13723D01*
X05166Y13643D02*
X13235Y13643D01*
X05166Y13563D02*
X13235Y13563D01*
X05166Y13483D02*
X13235Y13483D01*
X05166Y13403D02*
X13235Y13403D01*
X05166Y13323D02*
X13235Y13323D01*
X05166Y13243D02*
X13235Y13243D01*
X05166Y13163D02*
X13235Y13163D01*
X05166Y13083D02*
X13235Y13083D01*
X05166Y13003D02*
X13235Y13003D01*
X05166Y12923D02*
X13235Y12923D01*
X05166Y12843D02*
X13235Y12843D01*
X05166Y12763D02*
X13235Y12763D01*
X05166Y12683D02*
X13235Y12683D01*
X05166Y12603D02*
X13235Y12603D01*
X05166Y12523D02*
X13235Y12523D01*
X05166Y12443D02*
X13235Y12443D01*
X05166Y12363D02*
X13235Y12363D01*
X05166Y12283D02*
X13235Y12283D01*
X05166Y12203D02*
X13235Y12203D01*
X05166Y12123D02*
X13235Y12123D01*
X05166Y12043D02*
X13235Y12043D01*
X05166Y11963D02*
X13235Y11963D01*
X05166Y11883D02*
X13235Y11883D01*
X05166Y11803D02*
X13235Y11803D01*
X05166Y11723D02*
X13235Y11723D01*
X05166Y11643D02*
X13235Y11643D01*
X05166Y11563D02*
X13235Y11563D01*
X05166Y11483D02*
X13235Y11483D01*
X05166Y11403D02*
X13235Y11403D01*
X05166Y11323D02*
X13235Y11323D01*
X05166Y11243D02*
X13235Y11243D01*
X05166Y11163D02*
X13235Y11163D01*
X05166Y11083D02*
X13235Y11083D01*
X05166Y11003D02*
X13235Y11003D01*
X05166Y10923D02*
X13235Y10923D01*
X05166Y10843D02*
X13235Y10843D01*
X05166Y10763D02*
X13235Y10763D01*
X05166Y10683D02*
X13235Y10683D01*
X05166Y10603D02*
X13235Y10603D01*
X05166Y10523D02*
X13235Y10523D01*
X05166Y10443D02*
X13235Y10443D01*
X05166Y10363D02*
X13235Y10363D01*
X05166Y10283D02*
X13235Y10283D01*
X05166Y10203D02*
X13235Y10203D01*
X05166Y10123D02*
X13235Y10123D01*
X05166Y10043D02*
X13235Y10043D01*
X05166Y09963D02*
X13235Y09963D01*
X05166Y09883D02*
X13235Y09883D01*
X05166Y09803D02*
X13235Y09803D01*
X05166Y09723D02*
X13235Y09723D01*
X05166Y09643D02*
X13235Y09643D01*
X05166Y09563D02*
X13235Y09563D01*
X05166Y09483D02*
X13235Y09483D01*
X05166Y09403D02*
X13235Y09403D01*
X05166Y09323D02*
X13235Y09323D01*
X05166Y09243D02*
X13235Y09243D01*
X05166Y09163D02*
X13235Y09163D01*
X05166Y09083D02*
X13235Y09083D01*
X05166Y09003D02*
X13235Y09003D01*
X05166Y08923D02*
X13235Y08923D01*
X05166Y08843D02*
X13235Y08843D01*
X05166Y08763D02*
X13235Y08763D01*
X05166Y08683D02*
X13235Y08683D01*
X05166Y08603D02*
X13235Y08603D01*
X05166Y08523D02*
X13235Y08523D01*
X05166Y08443D02*
X13235Y08443D01*
X05166Y08363D02*
X13235Y08363D01*
X05166Y08283D02*
X13235Y08283D01*
X05166Y08203D02*
X13235Y08203D01*
X05166Y08123D02*
X13235Y08123D01*
X05166Y08043D02*
X13235Y08043D01*
X05166Y07963D02*
X13235Y07963D01*
X05166Y07883D02*
X13235Y07883D01*
X05166Y07803D02*
X13235Y07803D01*
X05166Y07723D02*
X13235Y07723D01*
X05166Y07643D02*
X13235Y07643D01*
X05166Y07563D02*
X13235Y07563D01*
X05189Y07483D02*
X13235Y07483D01*
X05264Y07403D02*
X13235Y07403D01*
X05344Y07323D02*
X13235Y07323D01*
X05424Y07243D02*
X13235Y07243D01*
X05504Y07163D02*
X13235Y07163D01*
X05584Y07083D02*
X13235Y07083D01*
X05664Y07003D02*
X13235Y07003D01*
X05744Y06923D02*
X13235Y06923D01*
X05824Y06843D02*
X13225Y06843D01*
X12742Y06763D02*
X13159Y06763D01*
X13235Y06893D02*
X13232Y06862D01*
X13223Y06834D01*
X13210Y06809D01*
X13191Y06787D01*
X13169Y06768D01*
X13144Y06755D01*
X13116Y06746D01*
X13085Y06743D01*
X12769Y06743D01*
X12750Y06759D01*
X12748Y06760D01*
X12716Y06778D01*
X12715Y06779D01*
X12714Y06779D01*
X12677Y06791D01*
X12646Y06794D01*
X12640Y06794D01*
X12638Y06794D01*
X12637Y06794D01*
X05873Y06794D01*
X05211Y07456D01*
X05194Y07476D01*
X05182Y07495D01*
X05174Y07516D01*
X05168Y07539D01*
X05166Y07564D01*
X05166Y13696D01*
X05168Y13721D01*
X05174Y13744D01*
X05182Y13765D01*
X05194Y13784D01*
X05211Y13804D01*
X05485Y14078D01*
X05505Y14095D01*
X05524Y14107D01*
X05545Y14115D01*
X05568Y14121D01*
X05593Y14123D01*
X13085Y14123D01*
X13116Y14120D01*
X13144Y14111D01*
X13169Y14098D01*
X13191Y14079D01*
X13210Y14057D01*
X13223Y14032D01*
X13232Y14004D01*
X13235Y13973D01*
X13235Y06893D01*
X05316Y05856D02*
X10920Y05856D01*
X05184Y05776D02*
X11053Y05776D01*
X05166Y05696D02*
X11070Y05696D01*
X05166Y05616D02*
X11070Y05616D01*
X05166Y05536D02*
X11070Y05536D01*
X05166Y05456D02*
X11070Y05456D01*
X05166Y05376D02*
X11070Y05376D01*
X05166Y05296D02*
X11070Y05296D01*
X05166Y05216D02*
X11070Y05216D01*
X05166Y05136D02*
X11070Y05136D01*
X05166Y05056D02*
X11070Y05056D01*
X05166Y04976D02*
X11070Y04976D01*
X05166Y04896D02*
X11070Y04896D01*
X05166Y04816D02*
X11070Y04816D01*
X05166Y04736D02*
X11070Y04736D01*
X05166Y04656D02*
X11070Y04656D01*
X05166Y04576D02*
X11070Y04576D01*
X05166Y04496D02*
X11070Y04496D01*
X05166Y04416D02*
X11070Y04416D01*
X05166Y04336D02*
X11070Y04336D01*
X05166Y04256D02*
X11070Y04256D01*
X05166Y04176D02*
X11070Y04176D01*
X05166Y04096D02*
X11070Y04096D01*
X05166Y04016D02*
X11070Y04016D01*
X05166Y03936D02*
X11070Y03936D01*
X05166Y03856D02*
X11070Y03856D01*
X05166Y03776D02*
X11070Y03776D01*
X05166Y03696D02*
X11070Y03696D01*
X05166Y03616D02*
X11070Y03616D01*
X05166Y03536D02*
X11070Y03536D01*
X05166Y03456D02*
X11070Y03456D01*
X05166Y03376D02*
X11070Y03376D01*
X05166Y03296D02*
X11070Y03296D01*
X05166Y03216D02*
X11070Y03216D01*
X05166Y03136D02*
X11070Y03136D01*
X05166Y03056D02*
X11070Y03056D01*
X05166Y02976D02*
X11070Y02976D01*
X05166Y02896D02*
X11070Y02896D01*
X05166Y02816D02*
X11070Y02816D01*
X05166Y02736D02*
X11070Y02736D01*
X05166Y02656D02*
X11070Y02656D01*
X05166Y02576D02*
X11070Y02576D01*
X05166Y02496D02*
X11070Y02496D01*
X05166Y02416D02*
X11070Y02416D01*
X05166Y02336D02*
X11070Y02336D01*
X05166Y02256D02*
X11070Y02256D01*
X05166Y02176D02*
X11070Y02176D01*
X05166Y02096D02*
X11070Y02096D01*
X05166Y02016D02*
X11070Y02016D01*
X05166Y01936D02*
X11070Y01936D01*
X05166Y01856D02*
X11070Y01856D01*
X05207Y01776D02*
X05836Y01776D01*
X05944Y01776D02*
X06836Y01776D01*
X06944Y01776D02*
X07836Y01776D01*
X07944Y01776D02*
X11070Y01776D01*
X05321Y01696D02*
X05629Y01696D01*
X06146Y01696D02*
X06629Y01696D01*
X07146Y01696D02*
X07629Y01696D01*
X08146Y01696D02*
X11070Y01696D01*
X05337Y01616D02*
X05539Y01616D01*
X06236Y01616D02*
X06539Y01616D01*
X07236Y01616D02*
X07539Y01616D01*
X08236Y01616D02*
X11070Y01616D01*
X05337Y01536D02*
X05487Y01536D01*
X06288Y01536D02*
X06487Y01536D01*
X07288Y01536D02*
X07487Y01536D01*
X08288Y01536D02*
X11070Y01536D01*
X05337Y01456D02*
X05455Y01456D01*
X06321Y01456D02*
X06455Y01456D01*
X07321Y01456D02*
X07455Y01456D01*
X08321Y01456D02*
X11070Y01456D01*
X05337Y01376D02*
X05438Y01376D01*
X06337Y01376D02*
X06438Y01376D01*
X07337Y01376D02*
X07438Y01376D01*
X08337Y01376D02*
X11070Y01376D01*
X05337Y01296D02*
X05437Y01296D01*
X06338Y01296D02*
X06338Y01296D01*
X06338Y01296D02*
X06437Y01296D01*
X07338Y01296D02*
X07338Y01296D01*
X07338Y01296D02*
X07437Y01296D01*
X08338Y01296D02*
X08338Y01296D01*
X08338Y01296D02*
X11070Y01296D01*
X05337Y01216D02*
X05451Y01216D01*
X06325Y01216D02*
X06338Y01216D01*
X06338Y01216D02*
X06451Y01216D01*
X07325Y01216D02*
X07338Y01216D01*
X07338Y01216D02*
X07451Y01216D01*
X08325Y01216D02*
X08338Y01216D01*
X08338Y01216D02*
X11070Y01216D01*
X05337Y01136D02*
X05480Y01136D01*
X06295Y01136D02*
X06338Y01136D01*
X06338Y01136D02*
X06480Y01136D01*
X07295Y01136D02*
X07338Y01136D01*
X07338Y01136D02*
X07480Y01136D01*
X08295Y01136D02*
X08338Y01136D01*
X08338Y01136D02*
X11070Y01136D01*
X05337Y01056D02*
X05529Y01056D01*
X06247Y01056D02*
X06338Y01056D01*
X06338Y01056D02*
X06529Y01056D01*
X07247Y01056D02*
X07338Y01056D01*
X07338Y01056D02*
X07529Y01056D01*
X08247Y01056D02*
X08338Y01056D01*
X08338Y01056D02*
X11070Y01056D01*
X05328Y00976D02*
X05607Y00976D01*
X06171Y00976D02*
X06338Y00976D01*
X06338Y00976D02*
X06607Y00976D01*
X07171Y00976D02*
X07338Y00976D01*
X07338Y00976D02*
X07607Y00976D01*
X08171Y00976D02*
X08338Y00976D01*
X08338Y00976D02*
X11068Y00976D01*
X05259Y00896D02*
X05758Y00896D01*
X06020Y00896D02*
X06338Y00896D01*
X06338Y00896D02*
X06758Y00896D01*
X07020Y00896D02*
X07338Y00896D01*
X07338Y00896D02*
X07758Y00896D01*
X08020Y00896D02*
X08338Y00896D01*
X08338Y00896D02*
X11038Y00896D01*
X11070Y00987D02*
X11067Y00956D01*
X11058Y00928D01*
X11045Y00903D01*
X11026Y00881D01*
X11004Y00862D01*
X10979Y00849D01*
X10951Y00840D01*
X10920Y00837D01*
X08338Y00837D01*
X08338Y01372D01*
X08321Y01459D01*
X08287Y01540D01*
X08238Y01614D01*
X08176Y01676D01*
X08103Y01726D01*
X08022Y01760D01*
X07935Y01778D01*
X07847Y01778D01*
X07760Y01762D01*
X07679Y01729D01*
X07605Y01680D01*
X07542Y01619D01*
X07492Y01546D01*
X07457Y01465D01*
X07439Y01379D01*
X07437Y01290D01*
X07453Y01203D01*
X07486Y01121D01*
X07534Y01047D01*
X07595Y00984D01*
X07667Y00933D01*
X07748Y00898D01*
X07834Y00879D01*
X07923Y00877D01*
X08009Y00892D01*
X08092Y00924D01*
X08166Y00972D01*
X08230Y01032D01*
X08281Y01105D01*
X08317Y01185D01*
X08337Y01271D01*
X08338Y01372D01*
X08338Y00837D01*
X07338Y00837D01*
X07338Y01372D01*
X07321Y01459D01*
X07287Y01540D01*
X07238Y01614D01*
X07176Y01676D01*
X07103Y01726D01*
X07022Y01760D01*
X06935Y01778D01*
X06847Y01778D01*
X06760Y01762D01*
X06679Y01729D01*
X06605Y01680D01*
X06542Y01619D01*
X06492Y01546D01*
X06457Y01465D01*
X06439Y01379D01*
X06437Y01290D01*
X06453Y01203D01*
X06486Y01121D01*
X06534Y01047D01*
X06595Y00984D01*
X06667Y00933D01*
X06748Y00898D01*
X06834Y00879D01*
X06923Y00877D01*
X07009Y00892D01*
X07092Y00924D01*
X07166Y00972D01*
X07230Y01032D01*
X07281Y01105D01*
X07317Y01185D01*
X07337Y01271D01*
X07338Y01372D01*
X07338Y00837D01*
X06338Y00837D01*
X06338Y01372D01*
X06321Y01459D01*
X06287Y01540D01*
X06238Y01614D01*
X06176Y01676D01*
X06103Y01726D01*
X06022Y01760D01*
X05935Y01778D01*
X05847Y01778D01*
X05760Y01762D01*
X05679Y01729D01*
X05605Y01680D01*
X05542Y01619D01*
X05492Y01546D01*
X05457Y01465D01*
X05439Y01379D01*
X05437Y01290D01*
X05453Y01203D01*
X05486Y01121D01*
X05534Y01047D01*
X05595Y00984D01*
X05667Y00933D01*
X05748Y00898D01*
X05834Y00879D01*
X05923Y00877D01*
X06009Y00892D01*
X06092Y00924D01*
X06166Y00972D01*
X06230Y01032D01*
X06281Y01105D01*
X06317Y01185D01*
X06337Y01271D01*
X06338Y01372D01*
X06338Y00837D01*
X05316Y00837D01*
X05285Y00840D01*
X05257Y00849D01*
X05232Y00862D01*
X05210Y00881D01*
X05232Y00885D01*
X05259Y00896D01*
X05283Y00912D01*
X05304Y00933D01*
X05320Y00957D01*
X05331Y00984D01*
X05337Y01013D01*
X05337Y01042D01*
X05337Y01643D01*
X05331Y01672D01*
X05320Y01699D01*
X05304Y01723D01*
X05283Y01744D01*
X05259Y01760D01*
X05232Y01771D01*
X05203Y01777D01*
X05174Y01777D01*
X05166Y01777D01*
X05166Y05706D01*
X05169Y05737D01*
X05178Y05765D01*
X05191Y05790D01*
X05210Y05812D01*
X05232Y05831D01*
X05257Y05844D01*
X05285Y05853D01*
X05316Y05856D01*
X10920Y05856D01*
X10951Y05853D01*
X10979Y05844D01*
X11004Y05831D01*
X11026Y05812D01*
X11045Y05790D01*
X11058Y05765D01*
X11067Y05737D01*
X11070Y05706D01*
X11070Y00987D01*
X21123Y47785D02*
X31884Y47785D01*
X20991Y47705D02*
X32016Y47705D01*
X20973Y47625D02*
X32032Y47625D01*
X20973Y47545D02*
X32032Y47545D01*
X20973Y47465D02*
X32031Y47465D01*
X20973Y47385D02*
X32030Y47385D01*
X20973Y47305D02*
X32030Y47305D01*
X20973Y47225D02*
X32029Y47225D01*
X20973Y47145D02*
X32028Y47145D01*
X20973Y47065D02*
X32027Y47065D01*
X20973Y46985D02*
X32027Y46985D01*
X20973Y46905D02*
X32026Y46905D01*
X20973Y46825D02*
X32025Y46825D01*
X20973Y46745D02*
X32025Y46745D01*
X20973Y46665D02*
X32024Y46665D01*
X20973Y46585D02*
X32023Y46585D01*
X20973Y46505D02*
X32022Y46505D01*
X20973Y46425D02*
X32022Y46425D01*
X20973Y46345D02*
X24566Y46345D01*
X24918Y46345D02*
X32021Y46345D01*
X20973Y46265D02*
X24502Y46265D01*
X24981Y46265D02*
X32020Y46265D01*
X20973Y46185D02*
X24476Y46185D01*
X25006Y46185D02*
X32020Y46185D01*
X20973Y46105D02*
X24477Y46105D01*
X25009Y46105D02*
X25010Y46105D01*
X25010Y46105D02*
X32019Y46105D01*
X20973Y46025D02*
X24500Y46025D01*
X24983Y46025D02*
X25010Y46025D01*
X25010Y46025D02*
X32018Y46025D01*
X20973Y45945D02*
X24560Y45945D01*
X24924Y45945D02*
X25010Y45945D01*
X25010Y45945D02*
X32017Y45945D01*
X20973Y45865D02*
X25010Y45865D01*
X25010Y45865D02*
X32017Y45865D01*
X20973Y45785D02*
X25010Y45785D01*
X25010Y45785D02*
X32016Y45785D01*
X20973Y45705D02*
X25010Y45705D01*
X25010Y45705D02*
X29683Y45705D01*
X30155Y45705D02*
X30255Y45705D01*
X30726Y45705D02*
X32015Y45705D01*
X20973Y45625D02*
X25010Y45625D01*
X25010Y45625D02*
X29663Y45625D01*
X30155Y45625D02*
X30255Y45625D01*
X30747Y45625D02*
X32015Y45625D01*
X20973Y45545D02*
X25010Y45545D01*
X25010Y45545D02*
X29662Y45545D01*
X30155Y45545D02*
X30255Y45545D01*
X30747Y45545D02*
X32014Y45545D01*
X20973Y45465D02*
X25010Y45465D01*
X25010Y45465D02*
X29662Y45465D01*
X30155Y45465D02*
X30255Y45465D01*
X30747Y45465D02*
X32013Y45465D01*
X20973Y45385D02*
X25010Y45385D01*
X25010Y45385D02*
X29662Y45385D01*
X30155Y45385D02*
X30255Y45385D01*
X30747Y45385D02*
X32013Y45385D01*
X20973Y45305D02*
X25010Y45305D01*
X25010Y45305D02*
X29680Y45305D01*
X30155Y45305D02*
X30255Y45305D01*
X30730Y45305D02*
X30748Y45305D01*
X30748Y45305D02*
X32012Y45305D01*
X20973Y45225D02*
X25010Y45225D01*
X25010Y45225D02*
X30155Y45225D01*
X30155Y45225D02*
X30748Y45225D01*
X30748Y45225D02*
X32011Y45225D01*
X20973Y45145D02*
X25010Y45145D01*
X25010Y45145D02*
X29663Y45145D01*
X30155Y45145D02*
X30255Y45145D01*
X30748Y45145D02*
X30748Y45145D01*
X30748Y45145D02*
X32010Y45145D01*
X20973Y45065D02*
X25010Y45065D01*
X25010Y45065D02*
X29663Y45065D01*
X30155Y45065D02*
X30255Y45065D01*
X30748Y45065D02*
X30748Y45065D01*
X30748Y45065D02*
X32010Y45065D01*
X20973Y44985D02*
X25010Y44985D01*
X25010Y44985D02*
X29663Y44985D01*
X30155Y44985D02*
X30255Y44985D01*
X30748Y44985D02*
X30748Y44985D01*
X30748Y44985D02*
X32009Y44985D01*
X20973Y44905D02*
X25010Y44905D01*
X25010Y44905D02*
X29663Y44905D01*
X30155Y44905D02*
X30255Y44905D01*
X30748Y44905D02*
X30748Y44905D01*
X30748Y44905D02*
X32008Y44905D01*
X20973Y44825D02*
X25010Y44825D01*
X25010Y44825D02*
X29664Y44825D01*
X30155Y44825D02*
X30255Y44825D01*
X30747Y44825D02*
X30748Y44825D01*
X30748Y44825D02*
X32008Y44825D01*
X20973Y44745D02*
X25010Y44745D01*
X25010Y44745D02*
X29699Y44745D01*
X30155Y44745D02*
X30255Y44745D01*
X30711Y44745D02*
X30748Y44745D01*
X30748Y44745D02*
X32007Y44745D01*
X20973Y44665D02*
X25010Y44665D01*
X25010Y44665D02*
X30155Y44665D01*
X30155Y44665D02*
X30748Y44665D01*
X30748Y44665D02*
X32006Y44665D01*
X20973Y44585D02*
X25010Y44585D01*
X25010Y44585D02*
X30155Y44585D01*
X30155Y44585D02*
X30748Y44585D01*
X30748Y44585D02*
X32005Y44585D01*
X20973Y44505D02*
X25010Y44505D01*
X25010Y44505D02*
X30155Y44505D01*
X30155Y44505D02*
X30748Y44505D01*
X30748Y44505D02*
X32005Y44505D01*
X20973Y44425D02*
X25010Y44425D01*
X25010Y44425D02*
X30155Y44425D01*
X30155Y44425D02*
X30748Y44425D01*
X30748Y44425D02*
X32004Y44425D01*
X20973Y44345D02*
X25010Y44345D01*
X25010Y44345D02*
X30155Y44345D01*
X30155Y44345D02*
X30748Y44345D01*
X30748Y44345D02*
X32003Y44345D01*
X20973Y44265D02*
X23392Y44265D01*
X23770Y44265D02*
X25010Y44265D01*
X25010Y44265D02*
X30155Y44265D01*
X30155Y44265D02*
X30748Y44265D01*
X30748Y44265D02*
X32003Y44265D01*
X20973Y44185D02*
X23336Y44185D01*
X23825Y44185D02*
X25010Y44185D01*
X25010Y44185D02*
X30155Y44185D01*
X30155Y44185D02*
X30748Y44185D01*
X30748Y44185D02*
X32002Y44185D01*
X20973Y44105D02*
X23313Y44105D01*
X23848Y44105D02*
X25010Y44105D01*
X25010Y44105D02*
X30155Y44105D01*
X30155Y44105D02*
X30748Y44105D01*
X30748Y44105D02*
X32001Y44105D01*
X20973Y44025D02*
X23318Y44025D01*
X23845Y44025D02*
X23849Y44025D01*
X23849Y44025D02*
X25010Y44025D01*
X25010Y44025D02*
X30155Y44025D01*
X30155Y44025D02*
X30748Y44025D01*
X30748Y44025D02*
X32000Y44025D01*
X20973Y43945D02*
X23346Y43945D01*
X23817Y43945D02*
X23849Y43945D01*
X23849Y43945D02*
X25010Y43945D01*
X25010Y43945D02*
X30155Y43945D01*
X30155Y43945D02*
X30748Y43945D01*
X30748Y43945D02*
X32000Y43945D01*
X20973Y43865D02*
X23414Y43865D01*
X23750Y43865D02*
X23849Y43865D01*
X23849Y43865D02*
X25010Y43865D01*
X25010Y43865D02*
X30155Y43865D01*
X30155Y43865D02*
X30748Y43865D01*
X30748Y43865D02*
X31999Y43865D01*
X20973Y43785D02*
X23849Y43785D01*
X23849Y43785D02*
X25010Y43785D01*
X25010Y43785D02*
X30155Y43785D01*
X30155Y43785D02*
X30748Y43785D01*
X30748Y43785D02*
X31998Y43785D01*
X20973Y43705D02*
X23849Y43705D01*
X23849Y43705D02*
X25010Y43705D01*
X25010Y43705D02*
X30155Y43705D01*
X30155Y43705D02*
X30748Y43705D01*
X30748Y43705D02*
X31998Y43705D01*
X20973Y43625D02*
X23849Y43625D01*
X23849Y43625D02*
X25010Y43625D01*
X25010Y43625D02*
X30155Y43625D01*
X30155Y43625D02*
X30748Y43625D01*
X30748Y43625D02*
X31997Y43625D01*
X20973Y43545D02*
X23849Y43545D01*
X23849Y43545D02*
X25010Y43545D01*
X25010Y43545D02*
X30155Y43545D01*
X30155Y43545D02*
X30748Y43545D01*
X30748Y43545D02*
X31996Y43545D01*
X20973Y43465D02*
X23849Y43465D01*
X23849Y43465D02*
X25010Y43465D01*
X25010Y43465D02*
X30155Y43465D01*
X30155Y43465D02*
X30748Y43465D01*
X30748Y43465D02*
X31995Y43465D01*
X20973Y43385D02*
X22381Y43385D01*
X22482Y43385D02*
X23849Y43385D01*
X23849Y43385D02*
X25010Y43385D01*
X25010Y43385D02*
X30155Y43385D01*
X30155Y43385D02*
X30748Y43385D01*
X30748Y43385D02*
X31995Y43385D01*
X20973Y43305D02*
X22235Y43305D01*
X22627Y43305D02*
X23849Y43305D01*
X23849Y43305D02*
X25010Y43305D01*
X25010Y43305D02*
X30155Y43305D01*
X30155Y43305D02*
X30748Y43305D01*
X30748Y43305D02*
X31994Y43305D01*
X20973Y43225D02*
X22183Y43225D01*
X22678Y43225D02*
X23849Y43225D01*
X23849Y43225D02*
X25010Y43225D01*
X25010Y43225D02*
X30155Y43225D01*
X30155Y43225D02*
X30748Y43225D01*
X30748Y43225D02*
X31993Y43225D01*
X20973Y43145D02*
X22163Y43145D01*
X22699Y43145D02*
X22699Y43145D01*
X22699Y43145D02*
X23849Y43145D01*
X23849Y43145D02*
X25010Y43145D01*
X25010Y43145D02*
X30155Y43145D01*
X30155Y43145D02*
X30748Y43145D01*
X30748Y43145D02*
X31993Y43145D01*
X20973Y43065D02*
X22170Y43065D01*
X22693Y43065D02*
X22699Y43065D01*
X22699Y43065D02*
X23849Y43065D01*
X23849Y43065D02*
X25010Y43065D01*
X25010Y43065D02*
X30155Y43065D01*
X30155Y43065D02*
X30748Y43065D01*
X30748Y43065D02*
X31992Y43065D01*
X20973Y42985D02*
X22201Y42985D01*
X22663Y42985D02*
X22699Y42985D01*
X22699Y42985D02*
X23849Y42985D01*
X23849Y42985D02*
X25010Y42985D01*
X25010Y42985D02*
X30155Y42985D01*
X30155Y42985D02*
X30748Y42985D01*
X30748Y42985D02*
X31991Y42985D01*
X20973Y42905D02*
X22274Y42905D01*
X22589Y42905D02*
X22699Y42905D01*
X22699Y42905D02*
X23849Y42905D01*
X23849Y42905D02*
X25010Y42905D01*
X25010Y42905D02*
X30155Y42905D01*
X30155Y42905D02*
X30748Y42905D01*
X30748Y42905D02*
X31991Y42905D01*
X20973Y42825D02*
X22699Y42825D01*
X22699Y42825D02*
X23849Y42825D01*
X23849Y42825D02*
X25010Y42825D01*
X25010Y42825D02*
X30155Y42825D01*
X30155Y42825D02*
X30748Y42825D01*
X30748Y42825D02*
X31990Y42825D01*
X20973Y42745D02*
X22699Y42745D01*
X22699Y42745D02*
X23849Y42745D01*
X23849Y42745D02*
X25010Y42745D01*
X25010Y42745D02*
X30155Y42745D01*
X30155Y42745D02*
X30748Y42745D01*
X30748Y42745D02*
X31989Y42745D01*
X20973Y42665D02*
X22699Y42665D01*
X22699Y42665D02*
X23849Y42665D01*
X23849Y42665D02*
X25010Y42665D01*
X25010Y42665D02*
X30155Y42665D01*
X30155Y42665D02*
X30748Y42665D01*
X30748Y42665D02*
X31988Y42665D01*
X20973Y42585D02*
X22699Y42585D01*
X22699Y42585D02*
X23849Y42585D01*
X23849Y42585D02*
X25010Y42585D01*
X25010Y42585D02*
X30155Y42585D01*
X30155Y42585D02*
X30748Y42585D01*
X30748Y42585D02*
X31988Y42585D01*
X20973Y42505D02*
X22699Y42505D01*
X22699Y42505D02*
X23849Y42505D01*
X23849Y42505D02*
X25010Y42505D01*
X25010Y42505D02*
X30155Y42505D01*
X30155Y42505D02*
X30748Y42505D01*
X30748Y42505D02*
X31987Y42505D01*
X21005Y42425D02*
X22699Y42425D01*
X22699Y42425D02*
X23849Y42425D01*
X23849Y42425D02*
X25010Y42425D01*
X25010Y42425D02*
X30155Y42425D01*
X30155Y42425D02*
X30748Y42425D01*
X30748Y42425D02*
X31986Y42425D01*
X25291Y42345D02*
X30155Y42345D01*
X30155Y42345D02*
X30748Y42345D01*
X30748Y42345D02*
X31986Y42345D01*
X25385Y42265D02*
X30155Y42265D01*
X30155Y42265D02*
X30748Y42265D01*
X30748Y42265D02*
X31985Y42265D01*
X25422Y42185D02*
X30155Y42185D01*
X30155Y42185D02*
X30748Y42185D01*
X30748Y42185D02*
X31984Y42185D01*
X25431Y42105D02*
X30155Y42105D01*
X30155Y42105D02*
X30748Y42105D01*
X30748Y42105D02*
X31983Y42105D01*
X25427Y42025D02*
X30155Y42025D01*
X30155Y42025D02*
X30748Y42025D01*
X30748Y42025D02*
X31983Y42025D01*
X25423Y41945D02*
X30155Y41945D01*
X30155Y41945D02*
X30748Y41945D01*
X30748Y41945D02*
X31982Y41945D01*
X25419Y41865D02*
X30155Y41865D01*
X30155Y41865D02*
X30748Y41865D01*
X30748Y41865D02*
X31981Y41865D01*
X25415Y41785D02*
X30155Y41785D01*
X30155Y41785D02*
X30748Y41785D01*
X30748Y41785D02*
X31981Y41785D01*
X25411Y41705D02*
X30155Y41705D01*
X30155Y41705D02*
X30748Y41705D01*
X30748Y41705D02*
X31980Y41705D01*
X25407Y41625D02*
X30155Y41625D01*
X30155Y41625D02*
X30748Y41625D01*
X30748Y41625D02*
X31979Y41625D01*
X25403Y41545D02*
X30155Y41545D01*
X30155Y41545D02*
X30748Y41545D01*
X30748Y41545D02*
X31978Y41545D01*
X25399Y41465D02*
X30155Y41465D01*
X30155Y41465D02*
X30748Y41465D01*
X30748Y41465D02*
X31978Y41465D01*
X25395Y41385D02*
X30155Y41385D01*
X30155Y41385D02*
X30748Y41385D01*
X30748Y41385D02*
X31977Y41385D01*
X25394Y41305D02*
X30155Y41305D01*
X30155Y41305D02*
X30748Y41305D01*
X30748Y41305D02*
X31974Y41305D01*
X25433Y41225D02*
X30155Y41225D01*
X30155Y41225D02*
X30748Y41225D01*
X30748Y41225D02*
X31935Y41225D01*
X32033Y47635D02*
X31977Y41327D01*
X31974Y41296D01*
X31965Y41269D01*
X31951Y41244D01*
X31933Y41222D01*
X31911Y41204D01*
X31886Y41191D01*
X31858Y41182D01*
X31827Y41179D01*
X30748Y41179D01*
X30748Y45149D01*
X30748Y45323D01*
X30747Y45615D01*
X30747Y45644D01*
X30741Y45673D01*
X30730Y45700D01*
X30714Y45724D01*
X30693Y45745D01*
X30669Y45761D01*
X30642Y45772D01*
X30613Y45778D01*
X30292Y45779D01*
X30255Y45742D01*
X30255Y45286D01*
X30711Y45286D01*
X30748Y45323D01*
X30748Y45149D01*
X30711Y45186D01*
X30255Y45186D01*
X30255Y44730D01*
X30292Y44693D01*
X30613Y44694D01*
X30642Y44700D01*
X30669Y44711D01*
X30693Y44727D01*
X30714Y44748D01*
X30730Y44772D01*
X30741Y44799D01*
X30747Y44828D01*
X30747Y44857D01*
X30748Y45149D01*
X30748Y41179D01*
X30155Y41179D01*
X30155Y44730D01*
X30155Y45186D01*
X30155Y45286D01*
X30155Y45742D01*
X30118Y45779D01*
X29797Y45778D01*
X29768Y45772D01*
X29741Y45761D01*
X29717Y45745D01*
X29696Y45724D01*
X29680Y45700D01*
X29669Y45673D01*
X29663Y45644D01*
X29663Y45615D01*
X29662Y45323D01*
X29699Y45286D01*
X30155Y45286D01*
X30155Y45186D01*
X29699Y45186D01*
X29662Y45149D01*
X29663Y44857D01*
X29663Y44828D01*
X29669Y44799D01*
X29680Y44772D01*
X29696Y44748D01*
X29717Y44727D01*
X29741Y44711D01*
X29768Y44700D01*
X29797Y44694D01*
X30118Y44693D01*
X30155Y44730D01*
X30155Y41179D01*
X25541Y41179D01*
X25513Y41181D01*
X25488Y41189D01*
X25463Y41200D01*
X25442Y41216D01*
X25424Y41235D01*
X25409Y41257D01*
X25399Y41281D01*
X25394Y41306D01*
X25392Y41336D01*
X25431Y42114D01*
X25429Y42156D01*
X25420Y42199D01*
X25402Y42241D01*
X25377Y42277D01*
X25347Y42310D01*
X25310Y42336D01*
X25271Y42355D01*
X25228Y42367D01*
X25186Y42371D01*
X25010Y42371D01*
X25010Y46168D01*
X25000Y46220D01*
X24980Y46268D01*
X24951Y46312D01*
X24914Y46349D01*
X24870Y46379D01*
X24822Y46399D01*
X24770Y46410D01*
X24718Y46410D01*
X24666Y46400D01*
X24617Y46381D01*
X24573Y46352D01*
X24536Y46315D01*
X24506Y46272D01*
X24485Y46224D01*
X24474Y46172D01*
X24474Y46120D01*
X24483Y46068D01*
X24502Y46019D01*
X24531Y45975D01*
X24567Y45937D01*
X24610Y45907D01*
X24659Y45886D01*
X24710Y45875D01*
X24762Y45874D01*
X24814Y45883D01*
X24863Y45902D01*
X24908Y45930D01*
X24946Y45966D01*
X24976Y46009D01*
X24997Y46057D01*
X25009Y46108D01*
X25010Y46168D01*
X25010Y42371D01*
X23849Y42371D01*
X23849Y44101D01*
X23839Y44153D01*
X23819Y44201D01*
X23790Y44245D01*
X23753Y44282D01*
X23709Y44312D01*
X23661Y44332D01*
X23609Y44343D01*
X23557Y44343D01*
X23505Y44333D01*
X23456Y44314D01*
X23412Y44285D01*
X23375Y44248D01*
X23345Y44205D01*
X23324Y44157D01*
X23313Y44105D01*
X23313Y44053D01*
X23322Y44001D01*
X23341Y43952D01*
X23370Y43908D01*
X23406Y43870D01*
X23449Y43840D01*
X23498Y43819D01*
X23549Y43808D01*
X23601Y43807D01*
X23653Y43816D01*
X23702Y43835D01*
X23747Y43863D01*
X23785Y43899D01*
X23815Y43942D01*
X23836Y43990D01*
X23848Y44041D01*
X23849Y44101D01*
X23849Y42371D01*
X22699Y42371D01*
X22699Y43148D01*
X22689Y43200D01*
X22669Y43248D01*
X22640Y43292D01*
X22603Y43329D01*
X22559Y43359D01*
X22511Y43379D01*
X22459Y43390D01*
X22407Y43390D01*
X22355Y43380D01*
X22306Y43361D01*
X22262Y43332D01*
X22225Y43295D01*
X22195Y43252D01*
X22174Y43204D01*
X22163Y43152D01*
X22163Y43100D01*
X22172Y43048D01*
X22191Y42999D01*
X22220Y42955D01*
X22256Y42917D01*
X22299Y42887D01*
X22348Y42866D01*
X22399Y42855D01*
X22451Y42854D01*
X22503Y42863D01*
X22552Y42882D01*
X22597Y42910D01*
X22635Y42946D01*
X22665Y42989D01*
X22686Y43037D01*
X22698Y43088D01*
X22699Y43148D01*
X22699Y42371D01*
X21121Y42371D01*
X21094Y42373D01*
X21069Y42380D01*
X21046Y42391D01*
X21024Y42406D01*
X21007Y42423D01*
X20992Y42445D01*
X20981Y42468D01*
X20974Y42493D01*
X20972Y42520D01*
X20973Y47635D01*
X20976Y47666D01*
X20985Y47694D01*
X20998Y47719D01*
X21017Y47741D01*
X21039Y47760D01*
X21064Y47773D01*
X21092Y47782D01*
X21123Y47785D01*
X31884Y47785D01*
X31912Y47783D01*
X31936Y47776D01*
X31959Y47765D01*
X31981Y47749D01*
X31999Y47732D01*
X32013Y47710D01*
X32025Y47686D01*
X32031Y47663D01*
X32033Y47635D01*
X30452Y33832D02*
X30452Y33832D01*
X24320Y33752D02*
X30584Y33752D01*
X24300Y33672D02*
X30601Y33672D01*
X24300Y33592D02*
X30601Y33592D01*
X24300Y33512D02*
X30601Y33512D01*
X24300Y33432D02*
X30601Y33432D01*
X24300Y33352D02*
X30601Y33352D01*
X24300Y33272D02*
X30601Y33272D01*
X24300Y33192D02*
X30601Y33192D01*
X24300Y33112D02*
X30601Y33112D01*
X24300Y33032D02*
X30601Y33032D01*
X24300Y32952D02*
X30601Y32952D01*
X24300Y32872D02*
X30601Y32872D01*
X24300Y32792D02*
X30601Y32792D01*
X24300Y32712D02*
X30601Y32712D01*
X24300Y32632D02*
X30601Y32632D01*
X24300Y32552D02*
X30601Y32552D01*
X24301Y32472D02*
X30601Y32472D01*
X24301Y32392D02*
X30601Y32392D01*
X24301Y32312D02*
X30601Y32312D01*
X24301Y32232D02*
X30601Y32232D01*
X24301Y32152D02*
X30601Y32152D01*
X24301Y32072D02*
X30601Y32072D01*
X24301Y31992D02*
X30601Y31992D01*
X24301Y31912D02*
X30601Y31912D01*
X24301Y31832D02*
X30601Y31832D01*
X24301Y31752D02*
X30601Y31752D01*
X24301Y31672D02*
X30601Y31672D01*
X24301Y31592D02*
X30601Y31592D01*
X24301Y31512D02*
X30601Y31512D01*
X24301Y31432D02*
X30601Y31432D01*
X24301Y31352D02*
X30601Y31352D01*
X24302Y31272D02*
X30601Y31272D01*
X24302Y31192D02*
X30601Y31192D01*
X24302Y31112D02*
X30601Y31112D01*
X24302Y31032D02*
X30601Y31032D01*
X24302Y30952D02*
X30601Y30952D01*
X24302Y30872D02*
X28556Y30872D01*
X28878Y30872D02*
X30601Y30872D01*
X24302Y30792D02*
X28485Y30792D01*
X28950Y30792D02*
X30601Y30792D01*
X24302Y30712D02*
X28455Y30712D01*
X28980Y30712D02*
X30600Y30712D01*
X24302Y30632D02*
X28451Y30632D01*
X28986Y30632D02*
X28986Y30632D01*
X28986Y30632D02*
X30576Y30632D01*
X24302Y30552D02*
X28472Y30552D01*
X28965Y30552D02*
X28986Y30552D01*
X28986Y30552D02*
X30501Y30552D01*
X24302Y30472D02*
X28525Y30472D01*
X28913Y30472D02*
X28986Y30472D01*
X28986Y30472D02*
X30421Y30472D01*
X24302Y30392D02*
X28677Y30392D01*
X28756Y30392D02*
X28986Y30392D01*
X28986Y30392D02*
X30341Y30392D01*
X24302Y30312D02*
X28986Y30312D01*
X28986Y30312D02*
X30260Y30312D01*
X24302Y30232D02*
X28986Y30232D01*
X28986Y30232D02*
X30180Y30232D01*
X24303Y30152D02*
X28986Y30152D01*
X28986Y30152D02*
X30099Y30152D01*
X24303Y30072D02*
X28986Y30072D01*
X28986Y30072D02*
X30019Y30072D01*
X24303Y29992D02*
X28986Y29992D01*
X28986Y29992D02*
X29939Y29992D01*
X24303Y29912D02*
X28986Y29912D01*
X28986Y29912D02*
X29858Y29912D01*
X24303Y29832D02*
X28986Y29832D01*
X28986Y29832D02*
X29778Y29832D01*
X24303Y29752D02*
X28986Y29752D01*
X28986Y29752D02*
X29698Y29752D01*
X24303Y29672D02*
X28986Y29672D01*
X28986Y29672D02*
X29617Y29672D01*
X24303Y29592D02*
X28986Y29592D01*
X28986Y29592D02*
X29537Y29592D01*
X24303Y29512D02*
X27526Y29512D01*
X27657Y29512D02*
X28986Y29512D01*
X28986Y29512D02*
X29457Y29512D01*
X24303Y29432D02*
X27393Y29432D01*
X27791Y29432D02*
X28986Y29432D01*
X28986Y29432D02*
X29376Y29432D01*
X24303Y29352D02*
X27342Y29352D01*
X27840Y29352D02*
X28986Y29352D01*
X28986Y29352D02*
X29296Y29352D01*
X24303Y29272D02*
X27324Y29272D01*
X27860Y29272D02*
X27860Y29272D01*
X27860Y29272D02*
X28986Y29272D01*
X28986Y29272D02*
X29216Y29272D01*
X24303Y29192D02*
X27331Y29192D01*
X27853Y29192D02*
X27860Y29192D01*
X27860Y29192D02*
X28986Y29192D01*
X28986Y29192D02*
X29135Y29192D01*
X24303Y29112D02*
X27364Y29112D01*
X27822Y29112D02*
X27860Y29112D01*
X27860Y29112D02*
X28986Y29112D01*
X28986Y29112D02*
X29055Y29112D01*
X24303Y29032D02*
X27439Y29032D01*
X27746Y29032D02*
X27860Y29032D01*
X27860Y29032D02*
X28975Y29032D01*
X24321Y28952D02*
X27860Y28952D01*
X27860Y28952D02*
X28895Y28952D01*
X25589Y28872D02*
X27860Y28872D01*
X27860Y28872D02*
X28780Y28872D01*
X30601Y30714D02*
X30599Y30689D01*
X30594Y30667D01*
X30584Y30645D01*
X30572Y30625D01*
X30556Y30606D01*
X28986Y29043D01*
X28986Y30683D01*
X28976Y30735D01*
X28956Y30783D01*
X28927Y30827D01*
X28890Y30864D01*
X28846Y30894D01*
X28798Y30914D01*
X28746Y30925D01*
X28694Y30925D01*
X28642Y30915D01*
X28593Y30896D01*
X28549Y30867D01*
X28512Y30830D01*
X28482Y30787D01*
X28461Y30739D01*
X28450Y30687D01*
X28450Y30635D01*
X28459Y30583D01*
X28478Y30534D01*
X28507Y30490D01*
X28543Y30452D01*
X28586Y30422D01*
X28635Y30401D01*
X28686Y30390D01*
X28738Y30389D01*
X28790Y30398D01*
X28839Y30417D01*
X28884Y30445D01*
X28922Y30481D01*
X28952Y30524D01*
X28973Y30572D01*
X28985Y30623D01*
X28986Y30683D01*
X28986Y29043D01*
X28857Y28914D01*
X28833Y28894D01*
X28808Y28881D01*
X28780Y28872D01*
X28749Y28869D01*
X27860Y28870D01*
X27860Y29278D01*
X27850Y29330D01*
X27830Y29378D01*
X27801Y29422D01*
X27764Y29459D01*
X27720Y29489D01*
X27672Y29509D01*
X27620Y29520D01*
X27568Y29520D01*
X27516Y29510D01*
X27467Y29491D01*
X27423Y29462D01*
X27386Y29425D01*
X27356Y29382D01*
X27335Y29334D01*
X27324Y29282D01*
X27324Y29230D01*
X27333Y29178D01*
X27352Y29129D01*
X27381Y29085D01*
X27417Y29047D01*
X27460Y29017D01*
X27509Y28996D01*
X27560Y28985D01*
X27612Y28984D01*
X27664Y28993D01*
X27713Y29012D01*
X27758Y29040D01*
X27796Y29076D01*
X27826Y29119D01*
X27847Y29167D01*
X27859Y29218D01*
X27860Y29278D01*
X27860Y28870D01*
X24454Y28873D01*
X24422Y28876D01*
X24394Y28885D01*
X24369Y28898D01*
X24347Y28916D01*
X24329Y28938D01*
X24316Y28963D01*
X24307Y28991D01*
X24304Y29023D01*
X24300Y33679D01*
X24302Y33706D01*
X24309Y33731D01*
X24320Y33754D01*
X24335Y33776D01*
X24352Y33793D01*
X24374Y33808D01*
X24397Y33819D01*
X24422Y33826D01*
X24449Y33828D01*
X30452Y33832D01*
X30479Y33830D01*
X30504Y33823D01*
X30527Y33812D01*
X30549Y33797D01*
X30566Y33780D01*
X30581Y33758D01*
X30592Y33735D01*
X30599Y33710D01*
X30601Y33683D01*
X30601Y30714D01*
G54D10*
G36*
X36762Y40260D02*
X35663Y39161D01*
X35609Y39080D01*
X35590Y38984D01*
X35590Y37974D01*
X33613Y35997D01*
X33559Y35916D01*
X33540Y35820D01*
X33540Y34160D01*
X24427Y34164D01*
X24427Y35792D01*
X24427Y35899D01*
X24386Y35998D01*
X24311Y36073D01*
X24213Y36114D01*
X24106Y36114D01*
X24007Y36073D01*
X23932Y35998D01*
X23891Y35900D01*
X23891Y35793D01*
X23932Y35694D01*
X23957Y35669D01*
X23921Y35632D01*
X23880Y35534D01*
X23880Y35427D01*
X23921Y35328D01*
X23996Y35253D01*
X24094Y35212D01*
X24201Y35212D01*
X24300Y35253D01*
X24375Y35328D01*
X24416Y35426D01*
X24416Y35533D01*
X24375Y35632D01*
X24349Y35658D01*
X24386Y35694D01*
X24427Y35792D01*
X24427Y34164D01*
X22740Y34164D01*
X22740Y35308D01*
X22721Y35404D01*
X22667Y35485D01*
X22664Y35487D01*
X21700Y36452D01*
X21700Y40333D01*
X21830Y40333D01*
X21831Y40288D01*
X21831Y40229D01*
X21853Y40174D01*
X21895Y40132D01*
X21950Y40109D01*
X22193Y40108D01*
X22230Y40145D01*
X22230Y40332D01*
X22330Y40332D01*
X22330Y40145D01*
X22367Y40108D01*
X22610Y40109D01*
X22665Y40132D01*
X22707Y40174D01*
X22729Y40229D01*
X22729Y40288D01*
X22729Y40331D01*
X22888Y40331D01*
X22899Y40304D01*
X23025Y40178D01*
X23190Y40109D01*
X23369Y40109D01*
X23534Y40177D01*
X23660Y40303D01*
X23670Y40329D01*
X25304Y40325D01*
X31442Y40328D01*
X31536Y40234D01*
X31538Y40231D01*
X31619Y40177D01*
X31714Y40158D01*
X31714Y40159D01*
X31715Y40158D01*
X35583Y40158D01*
X35678Y40177D01*
X35679Y40177D01*
X35760Y40231D01*
X35857Y40329D01*
X36762Y40329D01*
X36762Y40260D01*
X36762Y40260D01*
G37*
G54D25*
X36762Y40260D02*
X35663Y39161D01*
X35609Y39080D01*
X35590Y38984D01*
X35590Y37974D01*
X33613Y35997D01*
X33559Y35916D01*
X33540Y35820D01*
X33540Y34160D01*
X24427Y34164D01*
X24427Y35792D01*
X24427Y35899D01*
X24386Y35998D01*
X24311Y36073D01*
X24213Y36114D01*
X24106Y36114D01*
X24007Y36073D01*
X23932Y35998D01*
X23891Y35900D01*
X23891Y35793D01*
X23932Y35694D01*
X23957Y35669D01*
X23921Y35632D01*
X23880Y35534D01*
X23880Y35427D01*
X23921Y35328D01*
X23996Y35253D01*
X24094Y35212D01*
X24201Y35212D01*
X24300Y35253D01*
X24375Y35328D01*
X24416Y35426D01*
X24416Y35533D01*
X24375Y35632D01*
X24349Y35658D01*
X24386Y35694D01*
X24427Y35792D01*
X24427Y34164D01*
X22740Y34164D01*
X22740Y35308D01*
X22721Y35404D01*
X22667Y35485D01*
X22664Y35487D01*
X21700Y36452D01*
X21700Y40333D01*
X21830Y40333D01*
X21831Y40288D01*
X21831Y40229D01*
X21853Y40174D01*
X21895Y40132D01*
X21950Y40109D01*
X22193Y40108D01*
X22230Y40145D01*
X22230Y40332D01*
X22330Y40332D01*
X22330Y40145D01*
X22367Y40108D01*
X22610Y40109D01*
X22665Y40132D01*
X22707Y40174D01*
X22729Y40229D01*
X22729Y40288D01*
X22729Y40331D01*
X22888Y40331D01*
X22899Y40304D01*
X23025Y40178D01*
X23190Y40109D01*
X23369Y40109D01*
X23534Y40177D01*
X23660Y40303D01*
X23670Y40329D01*
X25304Y40325D01*
X31442Y40328D01*
X31536Y40234D01*
X31538Y40231D01*
X31619Y40177D01*
X31714Y40158D01*
X31714Y40159D01*
X31715Y40158D01*
X35583Y40158D01*
X35678Y40177D01*
X35679Y40177D01*
X35760Y40231D01*
X35857Y40329D01*
X36762Y40329D01*
X36762Y40260D01*
M02*
