G04 (created by PCBNEW (2013-05-18 BZR 4017)-stable) date Mon 24 Nov 2014 14:27:27 GMT*
%MOIN*%
G04 Gerber Fmt 3.4, Leading zero omitted, Abs format*
%FSLAX34Y34*%
G01*
G70*
G90*
G04 APERTURE LIST*
%ADD10C,0.00590551*%
%ADD11C,0.0315*%
%ADD12C,0.06*%
%ADD13R,0.06X0.06*%
%ADD14C,0.0866*%
%ADD15C,0.0354*%
%ADD16C,0.035*%
%ADD17C,0.0198*%
%ADD18C,0.008*%
%ADD19C,0.01*%
G04 APERTURE END LIST*
G54D10*
G54D11*
X52150Y-46600D03*
X62800Y-46500D03*
G54D12*
X43708Y-36904D03*
G54D13*
X40600Y-43200D03*
G54D12*
X40600Y-44200D03*
X40600Y-45200D03*
X40600Y-46200D03*
X40600Y-47200D03*
X40600Y-48200D03*
X40600Y-49200D03*
G54D13*
X32829Y-43313D03*
G54D12*
X32829Y-44313D03*
X32829Y-45313D03*
X32829Y-46313D03*
X32829Y-47313D03*
X32829Y-48313D03*
X32829Y-49313D03*
G54D13*
X62500Y-33200D03*
G54D12*
X61500Y-33200D03*
X60500Y-33200D03*
X59500Y-33200D03*
X58500Y-33200D03*
X57500Y-33200D03*
X56500Y-33200D03*
G54D13*
X51300Y-33200D03*
G54D12*
X50300Y-33200D03*
X49300Y-33200D03*
X48300Y-33200D03*
X47300Y-33200D03*
X46300Y-33200D03*
X45300Y-33200D03*
G54D13*
X40600Y-21800D03*
G54D12*
X39600Y-21800D03*
X38600Y-21800D03*
X37600Y-21800D03*
X36600Y-21800D03*
X35600Y-21800D03*
G54D13*
X57000Y-52700D03*
G54D12*
X57000Y-53700D03*
X57000Y-54700D03*
X57000Y-55700D03*
G54D13*
X49200Y-51900D03*
G54D12*
X49200Y-52900D03*
X49200Y-53900D03*
X49200Y-54900D03*
G54D13*
X32829Y-58313D03*
G54D12*
X32829Y-59313D03*
G54D13*
X57000Y-57200D03*
G54D12*
X57000Y-58200D03*
G54D13*
X69200Y-51400D03*
G54D12*
X69200Y-52400D03*
G54D13*
X69200Y-49000D03*
G54D12*
X69200Y-50000D03*
G54D13*
X68874Y-19639D03*
G54D12*
X69874Y-19639D03*
X68874Y-24639D03*
X69874Y-20639D03*
X68874Y-25639D03*
X69874Y-21639D03*
X68874Y-26639D03*
X69874Y-22639D03*
X68874Y-27639D03*
X69874Y-23639D03*
X68874Y-28639D03*
X69874Y-24639D03*
X68874Y-29639D03*
X69874Y-25639D03*
X68874Y-30639D03*
X69874Y-26639D03*
X68874Y-31639D03*
X69874Y-27639D03*
X68874Y-32639D03*
X69874Y-28639D03*
X68874Y-33639D03*
X69874Y-29639D03*
X68874Y-34639D03*
X69874Y-30639D03*
X69874Y-31639D03*
X68874Y-35639D03*
X69874Y-32639D03*
X69874Y-34639D03*
X69874Y-35639D03*
X69874Y-36639D03*
X69874Y-37639D03*
X68874Y-36639D03*
X68874Y-37639D03*
X68874Y-20639D03*
X68874Y-21639D03*
X68874Y-22639D03*
X68874Y-23639D03*
X68874Y-38639D03*
X69874Y-38639D03*
X69874Y-33639D03*
X68874Y-39639D03*
X69874Y-39639D03*
X68874Y-40639D03*
X69874Y-40639D03*
X68874Y-41639D03*
X69874Y-41639D03*
X68874Y-42639D03*
X69874Y-42639D03*
X68874Y-43639D03*
X69874Y-43639D03*
G54D13*
X32829Y-51313D03*
G54D12*
X32829Y-52313D03*
X32829Y-53313D03*
X32829Y-54313D03*
G54D13*
X32829Y-56313D03*
G54D12*
X32829Y-55313D03*
G54D13*
X40600Y-33200D03*
G54D12*
X39600Y-33200D03*
X38600Y-33200D03*
X37600Y-33200D03*
X36600Y-33200D03*
X35600Y-33200D03*
G54D13*
X40600Y-51400D03*
G54D12*
X40600Y-52400D03*
X40600Y-53400D03*
X40600Y-54400D03*
X40600Y-55400D03*
X40600Y-56400D03*
G54D13*
X49200Y-58600D03*
G54D12*
X49200Y-57600D03*
X49200Y-56600D03*
G54D13*
X40600Y-59300D03*
G54D12*
X40600Y-58300D03*
G54D14*
X43450Y-23400D03*
X44450Y-21400D03*
X42450Y-21400D03*
X55000Y-23350D03*
X56000Y-21350D03*
X54000Y-21350D03*
G54D15*
X49050Y-43850D03*
X49550Y-43850D03*
X50050Y-43850D03*
X50550Y-43850D03*
X49300Y-44200D03*
X49800Y-44200D03*
X50300Y-44200D03*
X49050Y-44550D03*
X49550Y-44550D03*
X50050Y-44550D03*
X50550Y-44550D03*
X60200Y-43800D03*
X60700Y-43800D03*
X61200Y-43800D03*
X61700Y-43800D03*
X60450Y-44150D03*
X60950Y-44150D03*
X61450Y-44150D03*
X60200Y-44500D03*
X60700Y-44500D03*
X61200Y-44500D03*
X61700Y-44500D03*
G54D16*
X53000Y-50350D03*
X44800Y-48200D03*
X49550Y-49800D03*
X49550Y-48000D03*
X50800Y-48000D03*
X49800Y-47250D03*
X42750Y-40700D03*
X61050Y-48750D03*
X60900Y-46800D03*
X60650Y-49750D03*
X60600Y-47400D03*
X66750Y-26500D03*
X62400Y-26500D03*
X63600Y-20950D03*
X44100Y-35850D03*
X44200Y-28650D03*
X54450Y-37100D03*
X39750Y-41800D03*
X43250Y-26650D03*
X65300Y-31850D03*
X63850Y-29950D03*
X66150Y-47000D03*
X66250Y-49850D03*
X65550Y-42650D03*
X53650Y-51250D03*
X65950Y-31550D03*
X64450Y-29500D03*
X55600Y-31300D03*
X55200Y-29150D03*
X57750Y-28150D03*
X67150Y-24300D03*
X63800Y-31100D03*
X62900Y-44900D03*
X64300Y-44850D03*
X64800Y-32100D03*
X53600Y-40250D03*
X62950Y-31000D03*
X57000Y-30750D03*
X54150Y-50150D03*
X65850Y-41100D03*
X44150Y-50150D03*
X46750Y-41100D03*
X45200Y-45400D03*
X41650Y-39600D03*
X41700Y-30600D03*
X62900Y-30400D03*
X62900Y-25100D03*
X53300Y-29100D03*
X63750Y-25250D03*
X66350Y-32550D03*
X51450Y-46450D03*
X66850Y-46950D03*
X67450Y-46950D03*
X46300Y-48250D03*
X52750Y-44850D03*
X44850Y-42250D03*
X45300Y-35350D03*
X53550Y-35350D03*
X49900Y-34450D03*
X36950Y-41000D03*
X43350Y-38500D03*
X64300Y-45750D03*
X66600Y-25400D03*
X63100Y-21300D03*
X42900Y-24600D03*
X57250Y-47850D03*
X64900Y-35400D03*
X57200Y-35500D03*
X61050Y-34350D03*
X56450Y-42350D03*
X45100Y-25600D03*
X54700Y-34500D03*
X46750Y-41700D03*
X49050Y-41700D03*
X50500Y-41600D03*
X52750Y-41550D03*
X61450Y-48050D03*
X61000Y-46100D03*
X58400Y-41600D03*
X60250Y-41600D03*
X63600Y-41650D03*
X61450Y-41650D03*
X51050Y-47400D03*
X49800Y-46400D03*
X57300Y-47150D03*
X50500Y-42050D03*
X49000Y-42250D03*
X44250Y-46000D03*
X55350Y-46050D03*
X37050Y-38800D03*
X61700Y-42050D03*
X60100Y-42050D03*
G54D17*
X43250Y-48200D02*
X43250Y-50600D01*
X47550Y-54900D02*
X49200Y-54900D01*
X43250Y-50600D02*
X47550Y-54900D01*
X57097Y-29199D02*
X57097Y-29397D01*
X57500Y-29800D02*
X57200Y-29500D01*
X57500Y-33200D02*
X57500Y-29800D01*
X57100Y-26600D02*
X57200Y-26500D01*
X57100Y-26600D02*
X57097Y-29199D01*
X57097Y-29397D02*
X57200Y-29500D01*
X57200Y-26500D02*
X55300Y-26500D01*
X55250Y-26550D02*
X46300Y-26550D01*
X46300Y-26550D02*
X46300Y-28700D01*
X55300Y-26500D02*
X55250Y-26550D01*
X44800Y-48200D02*
X44800Y-50300D01*
X44850Y-50350D02*
X53000Y-50350D01*
X44800Y-50300D02*
X44850Y-50350D01*
X44800Y-48200D02*
X43250Y-48200D01*
X43250Y-48200D02*
X41450Y-48200D01*
G54D18*
X49550Y-48000D02*
X49550Y-49800D01*
X50800Y-48000D02*
X50050Y-47250D01*
X50050Y-47250D02*
X49800Y-47250D01*
G54D17*
X40600Y-48200D02*
X41450Y-48200D01*
X41450Y-48200D02*
X41550Y-48200D01*
X42750Y-47000D02*
X42750Y-40700D01*
X41550Y-48200D02*
X42750Y-47000D01*
X63600Y-20950D02*
X67100Y-20950D01*
X67100Y-20950D02*
X67150Y-20950D01*
X67150Y-20950D02*
X67100Y-20950D01*
X62400Y-23350D02*
X67100Y-23350D01*
X62400Y-26500D02*
X62400Y-23350D01*
X67100Y-23350D02*
X67100Y-20950D01*
X67100Y-20650D02*
X67100Y-20639D01*
X67100Y-20950D02*
X67100Y-20639D01*
X67100Y-20639D02*
X67189Y-20650D01*
X67189Y-20650D02*
X67100Y-20650D01*
X62400Y-26500D02*
X57200Y-26500D01*
X44100Y-35850D02*
X43300Y-35850D01*
X43300Y-35850D02*
X42750Y-36400D01*
X42750Y-36400D02*
X42750Y-40700D01*
G54D18*
X61050Y-46950D02*
X61050Y-48750D01*
X60900Y-46800D02*
X61050Y-46950D01*
X60650Y-47450D02*
X60650Y-49750D01*
X60600Y-47400D02*
X60650Y-47450D01*
G54D17*
X62400Y-26500D02*
X66750Y-26500D01*
X68874Y-20639D02*
X67100Y-20639D01*
X44100Y-35850D02*
X45250Y-34700D01*
X45250Y-34700D02*
X46300Y-34700D01*
X46300Y-34700D02*
X46300Y-33200D01*
X46300Y-33200D02*
X46300Y-28700D01*
X46300Y-28700D02*
X46300Y-28650D01*
X46350Y-28650D02*
X44200Y-28650D01*
X54400Y-37050D02*
X54400Y-37150D01*
X54450Y-37100D02*
X54400Y-37050D01*
X57500Y-33200D02*
X57500Y-34050D01*
X57500Y-34050D02*
X54400Y-37150D01*
X39750Y-41800D02*
X42200Y-41790D01*
X42200Y-41790D02*
X42266Y-41627D01*
G54D18*
X42266Y-41627D02*
X42350Y-41400D01*
X42350Y-41400D02*
X42266Y-41627D01*
G54D17*
X68874Y-19639D02*
X66311Y-19639D01*
X49400Y-20500D02*
X43250Y-26650D01*
X66150Y-20500D02*
X49400Y-20500D01*
X66200Y-20450D02*
X66150Y-20500D01*
X66200Y-19750D02*
X66200Y-20450D01*
X66311Y-19639D02*
X66200Y-19750D01*
X42250Y-30850D02*
X42250Y-27649D01*
X42250Y-27649D02*
X43250Y-26650D01*
X42266Y-41627D02*
X42266Y-41627D01*
X42266Y-41627D02*
X42250Y-30850D01*
X42250Y-30850D02*
X42250Y-30850D01*
G54D18*
X65300Y-31400D02*
X65300Y-31850D01*
X63850Y-29950D02*
X65300Y-31400D01*
X66150Y-49750D02*
X66150Y-47000D01*
X66250Y-49850D02*
X66150Y-49750D01*
X68561Y-39639D02*
X65550Y-42650D01*
X68874Y-39639D02*
X68561Y-39639D01*
X51350Y-53900D02*
X49200Y-53900D01*
X53500Y-51750D02*
X51350Y-53900D01*
X53500Y-51400D02*
X53500Y-51750D01*
X53650Y-51250D02*
X53500Y-51400D01*
X65950Y-31000D02*
X65950Y-31550D01*
X64450Y-29500D02*
X65950Y-31000D01*
X55600Y-29550D02*
X55600Y-31300D01*
X55200Y-29150D02*
X55600Y-29550D01*
X69874Y-27639D02*
X69839Y-27639D01*
X64550Y-27150D02*
X63550Y-28150D01*
X69350Y-27150D02*
X64550Y-27150D01*
X69839Y-27639D02*
X69350Y-27150D01*
X63550Y-28150D02*
X57750Y-28150D01*
X67150Y-24300D02*
X67300Y-24150D01*
X69150Y-46500D02*
X67148Y-46500D01*
X70600Y-45050D02*
X69150Y-46500D01*
X70600Y-24200D02*
X70600Y-45050D01*
X70550Y-24150D02*
X70600Y-24200D01*
X67300Y-24150D02*
X70550Y-24150D01*
X65450Y-46500D02*
X65550Y-46500D01*
X65450Y-46500D02*
X62800Y-46500D01*
X65550Y-46500D02*
X67148Y-46500D01*
X62150Y-52200D02*
X57500Y-52200D01*
X62900Y-45400D02*
X62150Y-46150D01*
X62150Y-46150D02*
X62150Y-52200D01*
X62900Y-44900D02*
X62900Y-45400D01*
X57500Y-52200D02*
X57000Y-52700D01*
X63800Y-31100D02*
X64800Y-32100D01*
X64250Y-44900D02*
X62900Y-44900D01*
X64300Y-44850D02*
X64250Y-44900D01*
X54150Y-35950D02*
X54150Y-32000D01*
X53600Y-40250D02*
X53800Y-40050D01*
X53800Y-40050D02*
X53800Y-36300D01*
X53800Y-36300D02*
X54150Y-35950D01*
X69400Y-29113D02*
X69874Y-28639D01*
X69400Y-30050D02*
X69400Y-29113D01*
X69300Y-30150D02*
X69400Y-30050D01*
X68000Y-30150D02*
X69300Y-30150D01*
X65400Y-32750D02*
X68000Y-30150D01*
X64350Y-32750D02*
X65400Y-32750D01*
X63500Y-31900D02*
X64350Y-32750D01*
X63500Y-31550D02*
X63500Y-31900D01*
X62950Y-31000D02*
X63500Y-31550D01*
X56050Y-31700D02*
X57000Y-30750D01*
X54450Y-31700D02*
X56050Y-31700D01*
X54150Y-32000D02*
X54450Y-31700D01*
X44500Y-50900D02*
X53550Y-50900D01*
X44150Y-50150D02*
X44150Y-50550D01*
X44150Y-50550D02*
X44500Y-50900D01*
X53650Y-50150D02*
X53550Y-50250D01*
X53550Y-50250D02*
X53550Y-50800D01*
X53550Y-50800D02*
X53550Y-50900D01*
X53650Y-50150D02*
X54150Y-50150D01*
X69874Y-30639D02*
X69761Y-30639D01*
X66150Y-40800D02*
X65850Y-41100D01*
X66150Y-33500D02*
X66150Y-40800D01*
X66850Y-32800D02*
X66150Y-33500D01*
X66850Y-31950D02*
X66850Y-32800D01*
X67650Y-31150D02*
X66850Y-31950D01*
X69250Y-31150D02*
X67650Y-31150D01*
X69761Y-30639D02*
X69250Y-31150D01*
X44150Y-50150D02*
X44100Y-50200D01*
X46050Y-41100D02*
X46750Y-41100D01*
X45600Y-41550D02*
X46050Y-41100D01*
X45600Y-45000D02*
X45600Y-41550D01*
X45200Y-45400D02*
X45600Y-45000D01*
X41650Y-39600D02*
X41700Y-39550D01*
X41700Y-39550D02*
X41700Y-30600D01*
X66389Y-29639D02*
X68874Y-29639D01*
X65450Y-28700D02*
X66389Y-29639D01*
X62900Y-28700D02*
X65450Y-28700D01*
X62900Y-30400D02*
X62900Y-28700D01*
X52700Y-37250D02*
X52700Y-34400D01*
X53300Y-33700D02*
X53300Y-29100D01*
X63050Y-25250D02*
X63750Y-25250D01*
X62900Y-25100D02*
X63050Y-25250D01*
X53300Y-33800D02*
X53300Y-33700D01*
X52700Y-34400D02*
X53300Y-33800D01*
X52700Y-37350D02*
X52700Y-37250D01*
X52700Y-37250D02*
X52700Y-37200D01*
X53800Y-41400D02*
X52700Y-40300D01*
X52700Y-40300D02*
X52700Y-37350D01*
X53650Y-46600D02*
X53800Y-46450D01*
X53650Y-46600D02*
X52150Y-46600D01*
X53800Y-46450D02*
X53800Y-41400D01*
X54250Y-41000D02*
X54250Y-48200D01*
X54250Y-40850D02*
X54250Y-41000D01*
X65250Y-40850D02*
X54250Y-40850D01*
X65500Y-40600D02*
X65250Y-40850D01*
X65500Y-33400D02*
X65500Y-40600D01*
X66350Y-32550D02*
X65500Y-33400D01*
X56400Y-53700D02*
X57000Y-53700D01*
X54800Y-52100D02*
X56400Y-53700D01*
X54800Y-48700D02*
X54800Y-52100D01*
X54300Y-48200D02*
X54800Y-48700D01*
X51950Y-48200D02*
X54300Y-48200D01*
X51550Y-47800D02*
X51950Y-48200D01*
X51550Y-46550D02*
X51550Y-47800D01*
X51450Y-46450D02*
X51550Y-46550D01*
X57000Y-54700D02*
X57600Y-54700D01*
X66850Y-52550D02*
X66850Y-46950D01*
X66850Y-52600D02*
X66850Y-52550D01*
X57900Y-52600D02*
X66850Y-52600D01*
X57800Y-52700D02*
X57900Y-52600D01*
X57800Y-54500D02*
X57800Y-52700D01*
X57600Y-54700D02*
X57800Y-54500D01*
X57000Y-55700D02*
X58000Y-55700D01*
X67450Y-52850D02*
X67450Y-46950D01*
X67450Y-52950D02*
X67450Y-52850D01*
X58200Y-52950D02*
X67450Y-52950D01*
X58150Y-53000D02*
X58200Y-52950D01*
X58150Y-55550D02*
X58150Y-53000D01*
X58000Y-55700D02*
X58150Y-55550D01*
X46750Y-41700D02*
X49050Y-41700D01*
X50500Y-41600D02*
X50550Y-41550D01*
X50550Y-41550D02*
X52750Y-41550D01*
X61450Y-46550D02*
X61450Y-48050D01*
X61000Y-46100D02*
X61450Y-46550D01*
X60250Y-41600D02*
X58400Y-41600D01*
X61450Y-41650D02*
X63600Y-41650D01*
X50800Y-47400D02*
X51050Y-47400D01*
X49800Y-46400D02*
X50800Y-47400D01*
X32829Y-56313D02*
X33787Y-56313D01*
X34650Y-34150D02*
X35600Y-33200D01*
X34650Y-55450D02*
X34650Y-34150D01*
X33787Y-56313D02*
X34650Y-55450D01*
G54D10*
G36*
X33147Y-48419D02*
X32935Y-48631D01*
X32829Y-48525D01*
X32722Y-48631D01*
X32510Y-48419D01*
X32616Y-48313D01*
X32510Y-48206D01*
X32722Y-47994D01*
X32829Y-48100D01*
X32935Y-47994D01*
X33147Y-48206D01*
X33041Y-48313D01*
X33147Y-48419D01*
X33147Y-48419D01*
G37*
G54D19*
X33147Y-48419D02*
X32935Y-48631D01*
X32829Y-48525D01*
X32722Y-48631D01*
X32510Y-48419D01*
X32616Y-48313D01*
X32510Y-48206D01*
X32722Y-47994D01*
X32829Y-48100D01*
X32935Y-47994D01*
X33147Y-48206D01*
X33041Y-48313D01*
X33147Y-48419D01*
G54D10*
G36*
X69192Y-20745D02*
X68980Y-20957D01*
X68874Y-20851D01*
X67652Y-22072D01*
X67589Y-22661D01*
X68453Y-22996D01*
X68562Y-23104D01*
X68643Y-23138D01*
X68562Y-23172D01*
X68408Y-23327D01*
X68324Y-23529D01*
X68323Y-23747D01*
X68370Y-23860D01*
X67300Y-23860D01*
X67224Y-23875D01*
X67065Y-23874D01*
X66909Y-23939D01*
X66789Y-24058D01*
X66725Y-24215D01*
X66724Y-24384D01*
X66789Y-24540D01*
X66908Y-24660D01*
X67065Y-24724D01*
X67234Y-24725D01*
X67390Y-24660D01*
X67510Y-24541D01*
X67552Y-24440D01*
X68361Y-24440D01*
X68324Y-24529D01*
X68323Y-24747D01*
X68407Y-24950D01*
X68562Y-25104D01*
X68643Y-25138D01*
X68562Y-25172D01*
X68408Y-25327D01*
X68324Y-25529D01*
X68323Y-25747D01*
X68407Y-25950D01*
X68562Y-26104D01*
X68643Y-26138D01*
X68562Y-26172D01*
X68408Y-26327D01*
X68324Y-26529D01*
X68323Y-26747D01*
X68370Y-26860D01*
X67025Y-26860D01*
X67025Y-25315D01*
X66960Y-25159D01*
X66841Y-25039D01*
X66684Y-24975D01*
X66515Y-24974D01*
X66359Y-25039D01*
X66239Y-25158D01*
X66175Y-25315D01*
X66174Y-25484D01*
X66239Y-25640D01*
X66358Y-25760D01*
X66515Y-25824D01*
X66684Y-25825D01*
X66840Y-25760D01*
X66960Y-25641D01*
X67024Y-25484D01*
X67025Y-25315D01*
X67025Y-26860D01*
X64550Y-26860D01*
X64439Y-26882D01*
X64344Y-26944D01*
X64175Y-27114D01*
X64175Y-25165D01*
X64110Y-25009D01*
X63991Y-24889D01*
X63834Y-24825D01*
X63665Y-24824D01*
X63525Y-24883D01*
X63525Y-21215D01*
X63460Y-21059D01*
X63341Y-20939D01*
X63184Y-20875D01*
X63015Y-20874D01*
X62859Y-20939D01*
X62739Y-21058D01*
X62675Y-21215D01*
X62674Y-21384D01*
X62739Y-21540D01*
X62858Y-21660D01*
X63015Y-21724D01*
X63184Y-21725D01*
X63340Y-21660D01*
X63460Y-21541D01*
X63524Y-21384D01*
X63525Y-21215D01*
X63525Y-24883D01*
X63509Y-24889D01*
X63438Y-24960D01*
X63302Y-24960D01*
X63260Y-24859D01*
X63141Y-24739D01*
X62984Y-24675D01*
X62815Y-24674D01*
X62659Y-24739D01*
X62539Y-24858D01*
X62475Y-25015D01*
X62474Y-25184D01*
X62539Y-25340D01*
X62658Y-25460D01*
X62815Y-25524D01*
X62974Y-25525D01*
X63050Y-25540D01*
X63438Y-25540D01*
X63508Y-25610D01*
X63665Y-25674D01*
X63834Y-25675D01*
X63990Y-25610D01*
X64110Y-25491D01*
X64174Y-25334D01*
X64175Y-25165D01*
X64175Y-27114D01*
X63429Y-27860D01*
X58061Y-27860D01*
X57991Y-27789D01*
X57834Y-27725D01*
X57665Y-27724D01*
X57509Y-27789D01*
X57389Y-27908D01*
X57325Y-28065D01*
X57324Y-28234D01*
X57389Y-28390D01*
X57508Y-28510D01*
X57665Y-28574D01*
X57834Y-28575D01*
X57990Y-28510D01*
X58061Y-28440D01*
X62777Y-28440D01*
X62694Y-28494D01*
X62632Y-28589D01*
X62610Y-28700D01*
X62610Y-30088D01*
X62539Y-30158D01*
X62475Y-30315D01*
X62474Y-30484D01*
X62539Y-30640D01*
X62623Y-30724D01*
X62589Y-30758D01*
X62525Y-30915D01*
X62524Y-31084D01*
X62589Y-31240D01*
X62708Y-31360D01*
X62865Y-31424D01*
X62964Y-31425D01*
X63210Y-31670D01*
X63210Y-31900D01*
X63232Y-32010D01*
X63294Y-32105D01*
X64144Y-32955D01*
X64239Y-33017D01*
X64350Y-33040D01*
X65400Y-33040D01*
X65462Y-33027D01*
X65294Y-33194D01*
X65232Y-33289D01*
X65210Y-33400D01*
X65210Y-35108D01*
X65141Y-35039D01*
X64984Y-34975D01*
X64815Y-34974D01*
X64659Y-35039D01*
X64539Y-35158D01*
X64475Y-35315D01*
X64474Y-35484D01*
X64539Y-35640D01*
X64658Y-35760D01*
X64815Y-35824D01*
X64984Y-35825D01*
X65140Y-35760D01*
X65210Y-35691D01*
X65210Y-40479D01*
X65129Y-40560D01*
X63050Y-40560D01*
X63050Y-33450D01*
X63050Y-32850D01*
X63012Y-32758D01*
X62941Y-32688D01*
X62849Y-32650D01*
X62750Y-32649D01*
X62150Y-32649D01*
X62058Y-32687D01*
X61988Y-32758D01*
X61950Y-32850D01*
X61950Y-32872D01*
X61811Y-32734D01*
X61609Y-32650D01*
X61391Y-32649D01*
X61188Y-32733D01*
X61034Y-32888D01*
X61000Y-32969D01*
X60966Y-32888D01*
X60811Y-32734D01*
X60609Y-32650D01*
X60391Y-32649D01*
X60188Y-32733D01*
X60034Y-32888D01*
X60000Y-32969D01*
X59966Y-32888D01*
X59840Y-32762D01*
X59838Y-32677D01*
X59522Y-31915D01*
X58933Y-31978D01*
X57712Y-33200D01*
X58933Y-34421D01*
X59522Y-34484D01*
X59857Y-33620D01*
X59965Y-33511D01*
X59999Y-33430D01*
X60033Y-33511D01*
X60188Y-33665D01*
X60390Y-33749D01*
X60608Y-33750D01*
X60811Y-33666D01*
X60965Y-33511D01*
X60999Y-33430D01*
X61033Y-33511D01*
X61188Y-33665D01*
X61390Y-33749D01*
X61608Y-33750D01*
X61811Y-33666D01*
X61949Y-33527D01*
X61949Y-33549D01*
X61987Y-33641D01*
X62058Y-33711D01*
X62150Y-33749D01*
X62249Y-33750D01*
X62849Y-33750D01*
X62941Y-33712D01*
X63011Y-33641D01*
X63049Y-33549D01*
X63050Y-33450D01*
X63050Y-40560D01*
X61475Y-40560D01*
X61475Y-34265D01*
X61410Y-34109D01*
X61291Y-33989D01*
X61134Y-33925D01*
X60965Y-33924D01*
X60809Y-33989D01*
X60689Y-34108D01*
X60625Y-34265D01*
X60624Y-34434D01*
X60689Y-34590D01*
X60808Y-34710D01*
X60965Y-34774D01*
X61134Y-34775D01*
X61290Y-34710D01*
X61410Y-34591D01*
X61474Y-34434D01*
X61475Y-34265D01*
X61475Y-40560D01*
X58784Y-40560D01*
X58784Y-35222D01*
X58721Y-34633D01*
X57500Y-33412D01*
X56278Y-34633D01*
X56215Y-35222D01*
X56775Y-35439D01*
X56774Y-35584D01*
X56839Y-35740D01*
X56958Y-35860D01*
X57115Y-35924D01*
X57284Y-35925D01*
X57440Y-35860D01*
X57560Y-35741D01*
X57624Y-35584D01*
X57624Y-35547D01*
X58022Y-35538D01*
X58784Y-35222D01*
X58784Y-40560D01*
X54250Y-40560D01*
X54139Y-40582D01*
X54044Y-40644D01*
X53982Y-40739D01*
X53960Y-40850D01*
X53960Y-41000D01*
X53960Y-41149D01*
X53463Y-40653D01*
X53515Y-40674D01*
X53684Y-40675D01*
X53840Y-40610D01*
X53960Y-40491D01*
X54024Y-40334D01*
X54025Y-40225D01*
X54067Y-40160D01*
X54090Y-40050D01*
X54090Y-36420D01*
X54355Y-36155D01*
X54355Y-36155D01*
X54355Y-36155D01*
X54417Y-36060D01*
X54440Y-35950D01*
X54439Y-35950D01*
X54440Y-35950D01*
X54440Y-34841D01*
X54458Y-34860D01*
X54615Y-34924D01*
X54784Y-34925D01*
X54940Y-34860D01*
X55060Y-34741D01*
X55124Y-34584D01*
X55125Y-34415D01*
X55060Y-34259D01*
X54941Y-34139D01*
X54784Y-34075D01*
X54615Y-34074D01*
X54459Y-34139D01*
X54440Y-34159D01*
X54440Y-32120D01*
X54570Y-31990D01*
X55322Y-31990D01*
X55134Y-32178D01*
X55308Y-32351D01*
X55139Y-32787D01*
X55161Y-33722D01*
X55477Y-34484D01*
X56066Y-34421D01*
X57287Y-33200D01*
X57181Y-33093D01*
X57393Y-32881D01*
X57500Y-32987D01*
X58721Y-31766D01*
X58784Y-31177D01*
X57912Y-30839D01*
X57418Y-30851D01*
X57424Y-30834D01*
X57425Y-30665D01*
X57360Y-30509D01*
X57241Y-30389D01*
X57084Y-30325D01*
X56915Y-30324D01*
X56759Y-30389D01*
X56639Y-30508D01*
X56575Y-30665D01*
X56574Y-30764D01*
X56491Y-30848D01*
X56478Y-30834D01*
X56025Y-31287D01*
X56025Y-31215D01*
X55960Y-31059D01*
X55890Y-30988D01*
X55890Y-29550D01*
X55889Y-29549D01*
X55890Y-29549D01*
X55886Y-29531D01*
X55867Y-29439D01*
X55805Y-29344D01*
X55805Y-29344D01*
X55683Y-29222D01*
X55683Y-23214D01*
X55579Y-22963D01*
X55387Y-22771D01*
X55136Y-22667D01*
X54864Y-22666D01*
X54613Y-22770D01*
X54421Y-22962D01*
X54317Y-23213D01*
X54316Y-23485D01*
X54420Y-23736D01*
X54612Y-23928D01*
X54863Y-24032D01*
X55135Y-24033D01*
X55386Y-23929D01*
X55578Y-23737D01*
X55682Y-23486D01*
X55683Y-23214D01*
X55683Y-29222D01*
X55624Y-29164D01*
X55625Y-29065D01*
X55560Y-28909D01*
X55441Y-28789D01*
X55284Y-28725D01*
X55115Y-28724D01*
X54959Y-28789D01*
X54839Y-28908D01*
X54775Y-29065D01*
X54774Y-29234D01*
X54839Y-29390D01*
X54958Y-29510D01*
X55115Y-29574D01*
X55214Y-29575D01*
X55310Y-29670D01*
X55310Y-30988D01*
X55239Y-31058D01*
X55175Y-31215D01*
X55174Y-31384D01*
X55185Y-31410D01*
X54450Y-31410D01*
X54449Y-31410D01*
X54339Y-31432D01*
X54244Y-31494D01*
X54244Y-31494D01*
X53944Y-31794D01*
X53882Y-31889D01*
X53860Y-32000D01*
X53860Y-35058D01*
X53791Y-34989D01*
X53634Y-34925D01*
X53465Y-34924D01*
X53309Y-34989D01*
X53189Y-35108D01*
X53125Y-35265D01*
X53124Y-35434D01*
X53189Y-35590D01*
X53308Y-35710D01*
X53465Y-35774D01*
X53634Y-35775D01*
X53790Y-35710D01*
X53860Y-35641D01*
X53860Y-35829D01*
X53594Y-36094D01*
X53532Y-36189D01*
X53510Y-36300D01*
X53510Y-39827D01*
X53359Y-39889D01*
X53239Y-40008D01*
X53175Y-40165D01*
X53174Y-40334D01*
X53196Y-40386D01*
X52990Y-40179D01*
X52990Y-37350D01*
X52990Y-37250D01*
X52990Y-37200D01*
X52990Y-34520D01*
X53505Y-34005D01*
X53567Y-33910D01*
X53590Y-33800D01*
X53590Y-33700D01*
X53590Y-29411D01*
X53660Y-29341D01*
X53724Y-29184D01*
X53725Y-29015D01*
X53660Y-28859D01*
X53541Y-28739D01*
X53384Y-28675D01*
X53215Y-28674D01*
X53059Y-28739D01*
X52939Y-28858D01*
X52875Y-29015D01*
X52874Y-29184D01*
X52939Y-29340D01*
X53010Y-29411D01*
X53010Y-33679D01*
X52494Y-34194D01*
X52432Y-34289D01*
X52410Y-34400D01*
X52410Y-37200D01*
X52410Y-37250D01*
X52410Y-37350D01*
X52410Y-40300D01*
X52432Y-40410D01*
X52494Y-40505D01*
X53510Y-41520D01*
X53510Y-46310D01*
X53175Y-46310D01*
X53175Y-44765D01*
X53175Y-41465D01*
X53110Y-41309D01*
X52991Y-41189D01*
X52834Y-41125D01*
X52665Y-41124D01*
X52509Y-41189D01*
X52438Y-41260D01*
X51850Y-41260D01*
X51850Y-33450D01*
X51850Y-32850D01*
X51812Y-32758D01*
X51741Y-32688D01*
X51649Y-32650D01*
X51550Y-32649D01*
X50950Y-32649D01*
X50858Y-32687D01*
X50788Y-32758D01*
X50750Y-32850D01*
X50750Y-32872D01*
X50611Y-32734D01*
X50409Y-32650D01*
X50191Y-32649D01*
X49988Y-32733D01*
X49834Y-32888D01*
X49800Y-32969D01*
X49766Y-32888D01*
X49611Y-32734D01*
X49409Y-32650D01*
X49191Y-32649D01*
X48988Y-32733D01*
X48834Y-32888D01*
X48800Y-32969D01*
X48766Y-32888D01*
X48640Y-32762D01*
X48638Y-32677D01*
X48322Y-31915D01*
X47733Y-31978D01*
X47584Y-32127D01*
X47584Y-31177D01*
X46712Y-30839D01*
X45777Y-30861D01*
X45015Y-31177D01*
X45078Y-31766D01*
X46300Y-32987D01*
X47521Y-31766D01*
X47584Y-31177D01*
X47584Y-32127D01*
X46512Y-33200D01*
X47733Y-34421D01*
X48322Y-34484D01*
X48657Y-33620D01*
X48765Y-33511D01*
X48799Y-33430D01*
X48833Y-33511D01*
X48988Y-33665D01*
X49190Y-33749D01*
X49408Y-33750D01*
X49611Y-33666D01*
X49765Y-33511D01*
X49799Y-33430D01*
X49833Y-33511D01*
X49988Y-33665D01*
X50190Y-33749D01*
X50408Y-33750D01*
X50611Y-33666D01*
X50749Y-33527D01*
X50749Y-33549D01*
X50787Y-33641D01*
X50858Y-33711D01*
X50950Y-33749D01*
X51049Y-33750D01*
X51649Y-33750D01*
X51741Y-33712D01*
X51811Y-33641D01*
X51849Y-33549D01*
X51850Y-33450D01*
X51850Y-41260D01*
X50761Y-41260D01*
X50741Y-41239D01*
X50584Y-41175D01*
X50415Y-41174D01*
X50325Y-41212D01*
X50325Y-34365D01*
X50260Y-34209D01*
X50141Y-34089D01*
X49984Y-34025D01*
X49815Y-34024D01*
X49659Y-34089D01*
X49539Y-34208D01*
X49475Y-34365D01*
X49474Y-34534D01*
X49539Y-34690D01*
X49658Y-34810D01*
X49815Y-34874D01*
X49984Y-34875D01*
X50140Y-34810D01*
X50260Y-34691D01*
X50324Y-34534D01*
X50325Y-34365D01*
X50325Y-41212D01*
X50259Y-41239D01*
X50139Y-41358D01*
X50075Y-41515D01*
X50074Y-41684D01*
X50133Y-41825D01*
X50075Y-41965D01*
X50074Y-42134D01*
X50139Y-42290D01*
X50258Y-42410D01*
X50415Y-42474D01*
X50584Y-42475D01*
X50740Y-42410D01*
X50860Y-42291D01*
X50924Y-42134D01*
X50925Y-41965D01*
X50873Y-41840D01*
X52438Y-41840D01*
X52508Y-41910D01*
X52665Y-41974D01*
X52834Y-41975D01*
X52990Y-41910D01*
X53110Y-41791D01*
X53174Y-41634D01*
X53175Y-41465D01*
X53175Y-44765D01*
X53110Y-44609D01*
X52991Y-44489D01*
X52834Y-44425D01*
X52665Y-44424D01*
X52509Y-44489D01*
X52389Y-44608D01*
X52325Y-44765D01*
X52324Y-44934D01*
X52389Y-45090D01*
X52508Y-45210D01*
X52665Y-45274D01*
X52834Y-45275D01*
X52990Y-45210D01*
X53110Y-45091D01*
X53174Y-44934D01*
X53175Y-44765D01*
X53175Y-46310D01*
X52436Y-46310D01*
X52381Y-46254D01*
X52231Y-46192D01*
X52069Y-46192D01*
X51919Y-46254D01*
X51855Y-46318D01*
X51810Y-46209D01*
X51691Y-46089D01*
X51534Y-46025D01*
X51365Y-46024D01*
X51209Y-46089D01*
X51089Y-46208D01*
X51025Y-46365D01*
X51024Y-46534D01*
X51089Y-46690D01*
X51208Y-46810D01*
X51260Y-46831D01*
X51260Y-47027D01*
X51134Y-46975D01*
X50977Y-46974D01*
X50977Y-44465D01*
X50912Y-44308D01*
X50803Y-44199D01*
X50911Y-44092D01*
X50976Y-43935D01*
X50977Y-43765D01*
X50912Y-43608D01*
X50792Y-43488D01*
X50635Y-43423D01*
X50465Y-43422D01*
X50308Y-43487D01*
X50300Y-43496D01*
X50292Y-43488D01*
X50135Y-43423D01*
X49965Y-43422D01*
X49808Y-43487D01*
X49800Y-43496D01*
X49792Y-43488D01*
X49635Y-43423D01*
X49475Y-43422D01*
X49475Y-41615D01*
X49410Y-41459D01*
X49291Y-41339D01*
X49134Y-41275D01*
X48965Y-41274D01*
X48809Y-41339D01*
X48738Y-41410D01*
X47584Y-41410D01*
X47584Y-35222D01*
X47521Y-34633D01*
X46300Y-33412D01*
X46087Y-33624D01*
X46087Y-33200D01*
X44866Y-31978D01*
X44277Y-31915D01*
X43939Y-32787D01*
X43961Y-33722D01*
X44277Y-34484D01*
X44866Y-34421D01*
X46087Y-33200D01*
X46087Y-33624D01*
X45078Y-34633D01*
X45038Y-35010D01*
X44939Y-35108D01*
X44875Y-35265D01*
X44874Y-35434D01*
X44939Y-35590D01*
X45058Y-35710D01*
X45215Y-35774D01*
X45384Y-35775D01*
X45540Y-35710D01*
X45660Y-35591D01*
X45702Y-35488D01*
X45887Y-35560D01*
X46822Y-35538D01*
X47584Y-35222D01*
X47584Y-41410D01*
X47061Y-41410D01*
X47051Y-41400D01*
X47110Y-41341D01*
X47174Y-41184D01*
X47175Y-41015D01*
X47110Y-40859D01*
X46991Y-40739D01*
X46834Y-40675D01*
X46665Y-40674D01*
X46509Y-40739D01*
X46438Y-40810D01*
X46050Y-40810D01*
X45939Y-40832D01*
X45844Y-40894D01*
X45394Y-41344D01*
X45332Y-41439D01*
X45310Y-41550D01*
X45310Y-44879D01*
X45275Y-44914D01*
X45275Y-42165D01*
X45210Y-42009D01*
X45091Y-41889D01*
X44934Y-41825D01*
X44765Y-41824D01*
X44609Y-41889D01*
X44489Y-42008D01*
X44425Y-42165D01*
X44424Y-42334D01*
X44489Y-42490D01*
X44608Y-42610D01*
X44765Y-42674D01*
X44934Y-42675D01*
X45090Y-42610D01*
X45210Y-42491D01*
X45274Y-42334D01*
X45275Y-42165D01*
X45275Y-44914D01*
X45214Y-44975D01*
X45115Y-44974D01*
X44959Y-45039D01*
X44839Y-45158D01*
X44775Y-45315D01*
X44774Y-45484D01*
X44839Y-45640D01*
X44958Y-45760D01*
X45115Y-45824D01*
X45284Y-45825D01*
X45440Y-45760D01*
X45560Y-45641D01*
X45624Y-45484D01*
X45625Y-45385D01*
X45805Y-45205D01*
X45805Y-45205D01*
X45805Y-45205D01*
X45867Y-45110D01*
X45867Y-45110D01*
X45886Y-45018D01*
X45890Y-45000D01*
X45889Y-45000D01*
X45890Y-45000D01*
X45890Y-41670D01*
X46170Y-41390D01*
X46438Y-41390D01*
X46448Y-41399D01*
X46389Y-41458D01*
X46325Y-41615D01*
X46324Y-41784D01*
X46389Y-41940D01*
X46508Y-42060D01*
X46665Y-42124D01*
X46834Y-42125D01*
X46990Y-42060D01*
X47061Y-41990D01*
X48658Y-41990D01*
X48639Y-42008D01*
X48575Y-42165D01*
X48574Y-42334D01*
X48639Y-42490D01*
X48758Y-42610D01*
X48915Y-42674D01*
X49084Y-42675D01*
X49240Y-42610D01*
X49360Y-42491D01*
X49424Y-42334D01*
X49425Y-42165D01*
X49360Y-42009D01*
X49350Y-42000D01*
X49410Y-41941D01*
X49474Y-41784D01*
X49475Y-41615D01*
X49475Y-43422D01*
X49465Y-43422D01*
X49308Y-43487D01*
X49300Y-43496D01*
X49292Y-43488D01*
X49135Y-43423D01*
X48965Y-43422D01*
X48808Y-43487D01*
X48688Y-43607D01*
X48623Y-43764D01*
X48622Y-43934D01*
X48687Y-44091D01*
X48796Y-44200D01*
X48688Y-44307D01*
X48623Y-44464D01*
X48622Y-44634D01*
X48687Y-44791D01*
X48807Y-44911D01*
X48964Y-44976D01*
X49134Y-44977D01*
X49291Y-44912D01*
X49299Y-44903D01*
X49307Y-44911D01*
X49464Y-44976D01*
X49634Y-44977D01*
X49791Y-44912D01*
X49799Y-44903D01*
X49807Y-44911D01*
X49964Y-44976D01*
X50134Y-44977D01*
X50291Y-44912D01*
X50299Y-44903D01*
X50307Y-44911D01*
X50464Y-44976D01*
X50634Y-44977D01*
X50791Y-44912D01*
X50911Y-44792D01*
X50976Y-44635D01*
X50977Y-44465D01*
X50977Y-46974D01*
X50965Y-46974D01*
X50837Y-47027D01*
X50224Y-46414D01*
X50225Y-46315D01*
X50160Y-46159D01*
X50041Y-46039D01*
X49884Y-45975D01*
X49715Y-45974D01*
X49559Y-46039D01*
X49439Y-46158D01*
X49375Y-46315D01*
X49374Y-46484D01*
X49439Y-46640D01*
X49558Y-46760D01*
X49715Y-46824D01*
X49814Y-46825D01*
X50594Y-47605D01*
X50689Y-47667D01*
X50723Y-47674D01*
X50808Y-47760D01*
X50965Y-47824D01*
X51134Y-47825D01*
X51260Y-47773D01*
X51260Y-47800D01*
X51282Y-47910D01*
X51344Y-48005D01*
X51744Y-48405D01*
X51744Y-48405D01*
X51839Y-48467D01*
X51931Y-48486D01*
X51949Y-48490D01*
X51949Y-48489D01*
X51950Y-48490D01*
X54179Y-48490D01*
X54510Y-48820D01*
X54510Y-49909D01*
X54391Y-49789D01*
X54234Y-49725D01*
X54065Y-49724D01*
X53909Y-49789D01*
X53838Y-49860D01*
X53650Y-49860D01*
X53539Y-49882D01*
X53444Y-49944D01*
X53344Y-50044D01*
X53282Y-50139D01*
X53260Y-50250D01*
X53260Y-50610D01*
X46725Y-50610D01*
X46725Y-48165D01*
X46660Y-48009D01*
X46541Y-47889D01*
X46384Y-47825D01*
X46215Y-47824D01*
X46059Y-47889D01*
X45939Y-48008D01*
X45875Y-48165D01*
X45874Y-48334D01*
X45939Y-48490D01*
X46058Y-48610D01*
X46215Y-48674D01*
X46384Y-48675D01*
X46540Y-48610D01*
X46660Y-48491D01*
X46724Y-48334D01*
X46725Y-48165D01*
X46725Y-50610D01*
X44675Y-50610D01*
X44675Y-45915D01*
X44610Y-45759D01*
X44491Y-45639D01*
X44334Y-45575D01*
X44258Y-45575D01*
X44258Y-36795D01*
X44174Y-36592D01*
X44019Y-36438D01*
X43817Y-36354D01*
X43599Y-36353D01*
X43396Y-36437D01*
X43242Y-36592D01*
X43158Y-36794D01*
X43157Y-37012D01*
X43241Y-37215D01*
X43396Y-37369D01*
X43598Y-37453D01*
X43816Y-37454D01*
X44019Y-37370D01*
X44173Y-37215D01*
X44257Y-37013D01*
X44258Y-36795D01*
X44258Y-45575D01*
X44165Y-45574D01*
X44009Y-45639D01*
X43889Y-45758D01*
X43825Y-45915D01*
X43824Y-46084D01*
X43889Y-46240D01*
X44008Y-46360D01*
X44165Y-46424D01*
X44334Y-46425D01*
X44490Y-46360D01*
X44610Y-46241D01*
X44674Y-46084D01*
X44675Y-45915D01*
X44675Y-50610D01*
X44620Y-50610D01*
X44455Y-50445D01*
X44510Y-50391D01*
X44574Y-50234D01*
X44575Y-50065D01*
X44510Y-49909D01*
X44391Y-49789D01*
X44234Y-49725D01*
X44065Y-49724D01*
X43909Y-49789D01*
X43789Y-49908D01*
X43775Y-49944D01*
X43775Y-38415D01*
X43710Y-38259D01*
X43591Y-38139D01*
X43434Y-38075D01*
X43265Y-38074D01*
X43109Y-38139D01*
X42989Y-38258D01*
X42925Y-38415D01*
X42924Y-38584D01*
X42989Y-38740D01*
X43108Y-38860D01*
X43265Y-38924D01*
X43434Y-38925D01*
X43590Y-38860D01*
X43710Y-38741D01*
X43774Y-38584D01*
X43775Y-38415D01*
X43775Y-49944D01*
X43725Y-50065D01*
X43724Y-50234D01*
X43789Y-50390D01*
X43860Y-50461D01*
X43860Y-50550D01*
X43882Y-50660D01*
X43944Y-50755D01*
X44294Y-51105D01*
X44294Y-51105D01*
X44389Y-51167D01*
X44499Y-51190D01*
X44499Y-51189D01*
X44500Y-51190D01*
X53225Y-51190D01*
X53224Y-51324D01*
X53210Y-51400D01*
X53210Y-51629D01*
X51229Y-53610D01*
X50277Y-53610D01*
X50421Y-53466D01*
X50484Y-52877D01*
X49620Y-52542D01*
X49527Y-52450D01*
X49549Y-52450D01*
X49641Y-52412D01*
X49711Y-52341D01*
X49749Y-52249D01*
X49750Y-52150D01*
X49750Y-51550D01*
X49712Y-51458D01*
X49641Y-51388D01*
X49549Y-51350D01*
X49450Y-51349D01*
X48850Y-51349D01*
X48758Y-51387D01*
X48688Y-51458D01*
X48650Y-51550D01*
X48649Y-51649D01*
X48649Y-52249D01*
X48687Y-52341D01*
X48758Y-52411D01*
X48850Y-52449D01*
X48872Y-52449D01*
X48762Y-52559D01*
X48677Y-52561D01*
X47915Y-52877D01*
X47978Y-53466D01*
X49200Y-54687D01*
X49697Y-54190D01*
X50122Y-54190D01*
X49412Y-54900D01*
X50633Y-56121D01*
X51222Y-56184D01*
X51560Y-55312D01*
X51538Y-54377D01*
X51452Y-54169D01*
X51460Y-54167D01*
X51555Y-54105D01*
X53705Y-51955D01*
X53767Y-51860D01*
X53790Y-51750D01*
X53790Y-51652D01*
X53890Y-51610D01*
X54010Y-51491D01*
X54074Y-51334D01*
X54075Y-51165D01*
X54010Y-51009D01*
X53891Y-50889D01*
X53840Y-50868D01*
X53840Y-50800D01*
X53840Y-50441D01*
X53908Y-50510D01*
X54065Y-50574D01*
X54234Y-50575D01*
X54390Y-50510D01*
X54510Y-50391D01*
X54510Y-52100D01*
X54532Y-52210D01*
X54594Y-52305D01*
X56194Y-53905D01*
X56194Y-53905D01*
X56289Y-53967D01*
X56399Y-53990D01*
X56399Y-53989D01*
X56400Y-53990D01*
X56524Y-53990D01*
X56533Y-54011D01*
X56688Y-54165D01*
X56769Y-54199D01*
X56688Y-54233D01*
X56534Y-54388D01*
X56450Y-54590D01*
X56449Y-54808D01*
X56533Y-55011D01*
X56688Y-55165D01*
X56769Y-55199D01*
X56688Y-55233D01*
X56534Y-55388D01*
X56450Y-55590D01*
X56449Y-55808D01*
X56533Y-56011D01*
X56688Y-56165D01*
X56890Y-56249D01*
X57108Y-56250D01*
X57311Y-56166D01*
X57465Y-56011D01*
X57475Y-55990D01*
X58000Y-55990D01*
X58110Y-55967D01*
X58205Y-55905D01*
X58355Y-55755D01*
X58375Y-55725D01*
X58375Y-59025D01*
X57550Y-59025D01*
X57550Y-58091D01*
X57466Y-57888D01*
X57327Y-57750D01*
X57349Y-57750D01*
X57441Y-57712D01*
X57511Y-57641D01*
X57549Y-57549D01*
X57550Y-57450D01*
X57550Y-56850D01*
X57512Y-56758D01*
X57441Y-56688D01*
X57349Y-56650D01*
X57250Y-56649D01*
X56650Y-56649D01*
X56558Y-56687D01*
X56488Y-56758D01*
X56450Y-56850D01*
X56449Y-56949D01*
X56449Y-57549D01*
X56487Y-57641D01*
X56558Y-57711D01*
X56650Y-57749D01*
X56672Y-57749D01*
X56534Y-57888D01*
X56450Y-58090D01*
X56449Y-58308D01*
X56533Y-58511D01*
X56688Y-58665D01*
X56890Y-58749D01*
X57108Y-58750D01*
X57311Y-58666D01*
X57465Y-58511D01*
X57549Y-58309D01*
X57550Y-58091D01*
X57550Y-59025D01*
X49718Y-59025D01*
X49749Y-58949D01*
X49750Y-58850D01*
X49750Y-58250D01*
X49712Y-58158D01*
X49641Y-58088D01*
X49549Y-58050D01*
X49527Y-58050D01*
X49665Y-57911D01*
X49749Y-57709D01*
X49750Y-57491D01*
X49666Y-57288D01*
X49618Y-57240D01*
X49722Y-57238D01*
X50484Y-56922D01*
X50421Y-56333D01*
X49200Y-55112D01*
X48987Y-55324D01*
X48987Y-54900D01*
X47766Y-53678D01*
X47177Y-53615D01*
X46839Y-54487D01*
X46861Y-55422D01*
X47177Y-56184D01*
X47766Y-56121D01*
X48987Y-54900D01*
X48987Y-55324D01*
X47978Y-56333D01*
X47915Y-56922D01*
X48769Y-57253D01*
X48734Y-57288D01*
X48650Y-57490D01*
X48649Y-57708D01*
X48733Y-57911D01*
X48872Y-58049D01*
X48850Y-58049D01*
X48758Y-58087D01*
X48688Y-58158D01*
X48650Y-58250D01*
X48649Y-58349D01*
X48649Y-58949D01*
X48681Y-59025D01*
X44193Y-59025D01*
X44068Y-59049D01*
X43963Y-59120D01*
X43892Y-59225D01*
X43868Y-59350D01*
X43868Y-59911D01*
X42960Y-59911D01*
X42960Y-48612D01*
X42938Y-47677D01*
X42622Y-46915D01*
X42033Y-46978D01*
X41884Y-47127D01*
X41884Y-46177D01*
X41020Y-45842D01*
X40911Y-45734D01*
X40830Y-45700D01*
X40911Y-45666D01*
X41065Y-45511D01*
X41149Y-45309D01*
X41150Y-45091D01*
X41066Y-44888D01*
X40911Y-44734D01*
X40830Y-44700D01*
X40911Y-44666D01*
X41065Y-44511D01*
X41149Y-44309D01*
X41150Y-44091D01*
X41066Y-43888D01*
X40927Y-43750D01*
X40949Y-43750D01*
X41041Y-43712D01*
X41111Y-43641D01*
X41149Y-43549D01*
X41150Y-43450D01*
X41150Y-42850D01*
X41112Y-42758D01*
X41041Y-42688D01*
X40949Y-42650D01*
X40850Y-42649D01*
X40250Y-42649D01*
X40158Y-42687D01*
X40088Y-42758D01*
X40050Y-42850D01*
X40049Y-42949D01*
X40049Y-43549D01*
X40087Y-43641D01*
X40158Y-43711D01*
X40250Y-43749D01*
X40272Y-43749D01*
X40134Y-43888D01*
X40050Y-44090D01*
X40049Y-44308D01*
X40133Y-44511D01*
X40288Y-44665D01*
X40369Y-44699D01*
X40288Y-44733D01*
X40134Y-44888D01*
X40050Y-45090D01*
X40049Y-45308D01*
X40133Y-45511D01*
X40288Y-45665D01*
X40369Y-45699D01*
X40288Y-45733D01*
X40162Y-45859D01*
X40077Y-45861D01*
X39315Y-46177D01*
X39378Y-46766D01*
X40600Y-47987D01*
X41821Y-46766D01*
X41884Y-46177D01*
X41884Y-47127D01*
X40812Y-48200D01*
X42033Y-49421D01*
X42622Y-49484D01*
X42960Y-48612D01*
X42960Y-59911D01*
X41884Y-59911D01*
X41884Y-50222D01*
X41821Y-49633D01*
X40600Y-48412D01*
X40387Y-48624D01*
X40387Y-48200D01*
X39166Y-46978D01*
X38577Y-46915D01*
X38239Y-47787D01*
X38261Y-48722D01*
X38577Y-49484D01*
X39166Y-49421D01*
X40387Y-48200D01*
X40387Y-48624D01*
X39378Y-49633D01*
X39315Y-50222D01*
X40187Y-50560D01*
X41122Y-50538D01*
X41884Y-50222D01*
X41884Y-59911D01*
X41150Y-59911D01*
X41150Y-58191D01*
X41150Y-56291D01*
X41066Y-56088D01*
X40911Y-55934D01*
X40830Y-55900D01*
X40911Y-55866D01*
X41065Y-55711D01*
X41149Y-55509D01*
X41150Y-55291D01*
X41066Y-55088D01*
X40911Y-54934D01*
X40830Y-54900D01*
X40911Y-54866D01*
X41065Y-54711D01*
X41149Y-54509D01*
X41150Y-54291D01*
X41066Y-54088D01*
X40911Y-53934D01*
X40830Y-53900D01*
X40911Y-53866D01*
X41065Y-53711D01*
X41149Y-53509D01*
X41150Y-53291D01*
X41066Y-53088D01*
X40911Y-52934D01*
X40830Y-52900D01*
X40911Y-52866D01*
X41065Y-52711D01*
X41149Y-52509D01*
X41150Y-52291D01*
X41066Y-52088D01*
X40927Y-51950D01*
X40949Y-51950D01*
X41041Y-51912D01*
X41111Y-51841D01*
X41149Y-51749D01*
X41150Y-51650D01*
X41150Y-51050D01*
X41112Y-50958D01*
X41041Y-50888D01*
X40949Y-50850D01*
X40850Y-50849D01*
X40250Y-50849D01*
X40158Y-50887D01*
X40088Y-50958D01*
X40050Y-51050D01*
X40049Y-51149D01*
X40049Y-51749D01*
X40087Y-51841D01*
X40158Y-51911D01*
X40250Y-51949D01*
X40272Y-51949D01*
X40134Y-52088D01*
X40050Y-52290D01*
X40049Y-52508D01*
X40133Y-52711D01*
X40288Y-52865D01*
X40369Y-52899D01*
X40288Y-52933D01*
X40134Y-53088D01*
X40050Y-53290D01*
X40049Y-53508D01*
X40133Y-53711D01*
X40288Y-53865D01*
X40369Y-53899D01*
X40288Y-53933D01*
X40134Y-54088D01*
X40050Y-54290D01*
X40049Y-54508D01*
X40133Y-54711D01*
X40288Y-54865D01*
X40369Y-54899D01*
X40288Y-54933D01*
X40134Y-55088D01*
X40050Y-55290D01*
X40049Y-55508D01*
X40133Y-55711D01*
X40288Y-55865D01*
X40369Y-55899D01*
X40288Y-55933D01*
X40134Y-56088D01*
X40050Y-56290D01*
X40049Y-56508D01*
X40133Y-56711D01*
X40288Y-56865D01*
X40490Y-56949D01*
X40708Y-56950D01*
X40911Y-56866D01*
X41065Y-56711D01*
X41149Y-56509D01*
X41150Y-56291D01*
X41150Y-58191D01*
X41066Y-57988D01*
X40911Y-57834D01*
X40709Y-57750D01*
X40491Y-57749D01*
X40288Y-57833D01*
X40134Y-57988D01*
X40050Y-58190D01*
X40049Y-58408D01*
X40133Y-58611D01*
X40272Y-58749D01*
X40250Y-58749D01*
X40158Y-58787D01*
X40088Y-58858D01*
X40050Y-58950D01*
X40049Y-59049D01*
X40049Y-59649D01*
X40087Y-59741D01*
X40158Y-59811D01*
X40250Y-59849D01*
X40349Y-59850D01*
X40949Y-59850D01*
X41041Y-59812D01*
X41111Y-59741D01*
X41149Y-59649D01*
X41150Y-59550D01*
X41150Y-58950D01*
X41112Y-58858D01*
X41041Y-58788D01*
X40949Y-58750D01*
X40927Y-58750D01*
X41065Y-58611D01*
X41149Y-58409D01*
X41150Y-58191D01*
X41150Y-59911D01*
X37475Y-59911D01*
X37475Y-38715D01*
X37410Y-38559D01*
X37291Y-38439D01*
X37134Y-38375D01*
X36965Y-38374D01*
X36809Y-38439D01*
X36689Y-38558D01*
X36625Y-38715D01*
X36624Y-38884D01*
X36689Y-39040D01*
X36808Y-39160D01*
X36965Y-39224D01*
X37134Y-39225D01*
X37290Y-39160D01*
X37410Y-39041D01*
X37474Y-38884D01*
X37475Y-38715D01*
X37475Y-59911D01*
X37375Y-59911D01*
X37375Y-40915D01*
X37310Y-40759D01*
X37191Y-40639D01*
X37034Y-40575D01*
X36865Y-40574D01*
X36709Y-40639D01*
X36589Y-40758D01*
X36525Y-40915D01*
X36524Y-41084D01*
X36589Y-41240D01*
X36708Y-41360D01*
X36865Y-41424D01*
X37034Y-41425D01*
X37190Y-41360D01*
X37310Y-41241D01*
X37374Y-41084D01*
X37375Y-40915D01*
X37375Y-59911D01*
X33379Y-59911D01*
X33379Y-59204D01*
X33295Y-59001D01*
X33156Y-58863D01*
X33178Y-58863D01*
X33270Y-58825D01*
X33340Y-58754D01*
X33378Y-58662D01*
X33379Y-58563D01*
X33379Y-57963D01*
X33341Y-57871D01*
X33270Y-57801D01*
X33178Y-57763D01*
X33079Y-57762D01*
X32479Y-57762D01*
X32387Y-57800D01*
X32317Y-57871D01*
X32279Y-57963D01*
X32278Y-58062D01*
X32278Y-58662D01*
X32316Y-58754D01*
X32387Y-58824D01*
X32479Y-58862D01*
X32501Y-58862D01*
X32363Y-59001D01*
X32279Y-59203D01*
X32278Y-59421D01*
X32362Y-59624D01*
X32517Y-59778D01*
X32719Y-59862D01*
X32937Y-59863D01*
X33140Y-59779D01*
X33294Y-59624D01*
X33378Y-59422D01*
X33379Y-59204D01*
X33379Y-59911D01*
X31427Y-59911D01*
X31427Y-50298D01*
X31807Y-50678D01*
X31980Y-50504D01*
X32416Y-50673D01*
X33351Y-50651D01*
X33685Y-50512D01*
X33850Y-50678D01*
X34113Y-50415D01*
X34360Y-50169D01*
X34360Y-55329D01*
X34113Y-55576D01*
X33666Y-56023D01*
X33379Y-56023D01*
X33379Y-55963D01*
X33341Y-55871D01*
X33270Y-55801D01*
X33178Y-55763D01*
X33156Y-55763D01*
X33294Y-55624D01*
X33378Y-55422D01*
X33379Y-55204D01*
X33295Y-55001D01*
X33140Y-54847D01*
X33059Y-54813D01*
X33140Y-54779D01*
X33294Y-54624D01*
X33378Y-54422D01*
X33379Y-54204D01*
X33295Y-54001D01*
X33140Y-53847D01*
X33059Y-53813D01*
X33140Y-53779D01*
X33294Y-53624D01*
X33378Y-53422D01*
X33379Y-53204D01*
X33295Y-53001D01*
X33140Y-52847D01*
X33059Y-52813D01*
X33140Y-52779D01*
X33294Y-52624D01*
X33378Y-52422D01*
X33379Y-52204D01*
X33295Y-52001D01*
X33156Y-51863D01*
X33178Y-51863D01*
X33270Y-51825D01*
X33340Y-51754D01*
X33378Y-51662D01*
X33379Y-51563D01*
X33379Y-50963D01*
X33341Y-50871D01*
X33270Y-50801D01*
X33178Y-50763D01*
X33079Y-50762D01*
X32479Y-50762D01*
X32387Y-50800D01*
X32317Y-50871D01*
X32279Y-50963D01*
X32278Y-51062D01*
X32278Y-51662D01*
X32316Y-51754D01*
X32387Y-51824D01*
X32479Y-51862D01*
X32501Y-51862D01*
X32363Y-52001D01*
X32279Y-52203D01*
X32278Y-52421D01*
X32362Y-52624D01*
X32517Y-52778D01*
X32598Y-52812D01*
X32517Y-52846D01*
X32363Y-53001D01*
X32279Y-53203D01*
X32278Y-53421D01*
X32362Y-53624D01*
X32517Y-53778D01*
X32598Y-53812D01*
X32517Y-53846D01*
X32363Y-54001D01*
X32279Y-54203D01*
X32278Y-54421D01*
X32362Y-54624D01*
X32517Y-54778D01*
X32598Y-54812D01*
X32517Y-54846D01*
X32363Y-55001D01*
X32279Y-55203D01*
X32278Y-55421D01*
X32362Y-55624D01*
X32501Y-55762D01*
X32479Y-55762D01*
X32387Y-55800D01*
X32317Y-55871D01*
X32279Y-55963D01*
X32278Y-56062D01*
X32278Y-56662D01*
X32316Y-56754D01*
X32387Y-56824D01*
X32479Y-56862D01*
X32578Y-56863D01*
X33178Y-56863D01*
X33270Y-56825D01*
X33340Y-56754D01*
X33378Y-56662D01*
X33379Y-56603D01*
X33787Y-56603D01*
X33897Y-56580D01*
X33992Y-56518D01*
X34855Y-55655D01*
X34917Y-55560D01*
X34940Y-55450D01*
X34940Y-49589D01*
X35194Y-49334D01*
X35020Y-49161D01*
X35189Y-48725D01*
X35167Y-47790D01*
X35028Y-47456D01*
X35194Y-47291D01*
X34940Y-47036D01*
X34940Y-34270D01*
X35468Y-33741D01*
X35490Y-33749D01*
X35708Y-33750D01*
X35911Y-33666D01*
X36065Y-33511D01*
X36099Y-33430D01*
X36133Y-33511D01*
X36288Y-33665D01*
X36490Y-33749D01*
X36708Y-33750D01*
X36911Y-33666D01*
X37065Y-33511D01*
X37099Y-33430D01*
X37133Y-33511D01*
X37288Y-33665D01*
X37490Y-33749D01*
X37708Y-33750D01*
X37911Y-33666D01*
X38065Y-33511D01*
X38099Y-33430D01*
X38133Y-33511D01*
X38288Y-33665D01*
X38490Y-33749D01*
X38708Y-33750D01*
X38911Y-33666D01*
X39065Y-33511D01*
X39099Y-33430D01*
X39133Y-33511D01*
X39288Y-33665D01*
X39490Y-33749D01*
X39708Y-33750D01*
X39911Y-33666D01*
X40049Y-33527D01*
X40049Y-33549D01*
X40087Y-33641D01*
X40158Y-33711D01*
X40250Y-33749D01*
X40349Y-33750D01*
X40949Y-33750D01*
X41041Y-33712D01*
X41111Y-33641D01*
X41149Y-33549D01*
X41150Y-33450D01*
X41150Y-32850D01*
X41150Y-22050D01*
X41150Y-21450D01*
X41112Y-21358D01*
X41041Y-21288D01*
X40949Y-21250D01*
X40850Y-21249D01*
X40250Y-21249D01*
X40158Y-21287D01*
X40088Y-21358D01*
X40050Y-21450D01*
X40050Y-21472D01*
X39911Y-21334D01*
X39709Y-21250D01*
X39491Y-21249D01*
X39288Y-21333D01*
X39134Y-21488D01*
X39100Y-21569D01*
X39066Y-21488D01*
X38911Y-21334D01*
X38709Y-21250D01*
X38491Y-21249D01*
X38288Y-21333D01*
X38134Y-21488D01*
X38100Y-21569D01*
X38066Y-21488D01*
X37911Y-21334D01*
X37709Y-21250D01*
X37491Y-21249D01*
X37288Y-21333D01*
X37134Y-21488D01*
X37100Y-21569D01*
X37066Y-21488D01*
X36911Y-21334D01*
X36709Y-21250D01*
X36491Y-21249D01*
X36288Y-21333D01*
X36134Y-21488D01*
X36100Y-21569D01*
X36066Y-21488D01*
X35911Y-21334D01*
X35709Y-21250D01*
X35491Y-21249D01*
X35288Y-21333D01*
X35134Y-21488D01*
X35050Y-21690D01*
X35049Y-21908D01*
X35133Y-22111D01*
X35288Y-22265D01*
X35490Y-22349D01*
X35708Y-22350D01*
X35911Y-22266D01*
X36065Y-22111D01*
X36099Y-22030D01*
X36133Y-22111D01*
X36288Y-22265D01*
X36490Y-22349D01*
X36708Y-22350D01*
X36911Y-22266D01*
X37065Y-22111D01*
X37099Y-22030D01*
X37133Y-22111D01*
X37288Y-22265D01*
X37490Y-22349D01*
X37708Y-22350D01*
X37911Y-22266D01*
X38065Y-22111D01*
X38099Y-22030D01*
X38133Y-22111D01*
X38288Y-22265D01*
X38490Y-22349D01*
X38708Y-22350D01*
X38911Y-22266D01*
X39065Y-22111D01*
X39099Y-22030D01*
X39133Y-22111D01*
X39288Y-22265D01*
X39490Y-22349D01*
X39708Y-22350D01*
X39911Y-22266D01*
X40049Y-22127D01*
X40049Y-22149D01*
X40087Y-22241D01*
X40158Y-22311D01*
X40250Y-22349D01*
X40349Y-22350D01*
X40949Y-22350D01*
X41041Y-22312D01*
X41111Y-22241D01*
X41149Y-22149D01*
X41150Y-22050D01*
X41150Y-32850D01*
X41112Y-32758D01*
X41041Y-32688D01*
X40949Y-32650D01*
X40850Y-32649D01*
X40250Y-32649D01*
X40158Y-32687D01*
X40088Y-32758D01*
X40050Y-32850D01*
X40050Y-32872D01*
X39911Y-32734D01*
X39709Y-32650D01*
X39491Y-32649D01*
X39288Y-32733D01*
X39134Y-32888D01*
X39100Y-32969D01*
X39066Y-32888D01*
X38911Y-32734D01*
X38709Y-32650D01*
X38491Y-32649D01*
X38288Y-32733D01*
X38134Y-32888D01*
X38100Y-32969D01*
X38066Y-32888D01*
X37911Y-32734D01*
X37709Y-32650D01*
X37491Y-32649D01*
X37288Y-32733D01*
X37134Y-32888D01*
X37100Y-32969D01*
X37066Y-32888D01*
X36911Y-32734D01*
X36709Y-32650D01*
X36491Y-32649D01*
X36288Y-32733D01*
X36134Y-32888D01*
X36100Y-32969D01*
X36066Y-32888D01*
X35911Y-32734D01*
X35709Y-32650D01*
X35491Y-32649D01*
X35288Y-32733D01*
X35134Y-32888D01*
X35050Y-33090D01*
X35049Y-33308D01*
X35058Y-33330D01*
X34479Y-33910D01*
X34479Y-20502D01*
X48904Y-20502D01*
X45133Y-24273D01*
X45133Y-21264D01*
X45029Y-21013D01*
X44837Y-20821D01*
X44586Y-20717D01*
X44314Y-20716D01*
X44063Y-20820D01*
X43871Y-21012D01*
X43767Y-21263D01*
X43766Y-21535D01*
X43870Y-21786D01*
X44062Y-21978D01*
X44313Y-22082D01*
X44585Y-22083D01*
X44836Y-21979D01*
X45028Y-21787D01*
X45132Y-21536D01*
X45133Y-21264D01*
X45133Y-24273D01*
X44133Y-25273D01*
X44133Y-23264D01*
X44029Y-23013D01*
X43837Y-22821D01*
X43586Y-22717D01*
X43314Y-22716D01*
X43133Y-22791D01*
X43133Y-21264D01*
X43029Y-21013D01*
X42837Y-20821D01*
X42586Y-20717D01*
X42314Y-20716D01*
X42063Y-20820D01*
X41871Y-21012D01*
X41767Y-21263D01*
X41766Y-21535D01*
X41870Y-21786D01*
X42062Y-21978D01*
X42313Y-22082D01*
X42585Y-22083D01*
X42836Y-21979D01*
X43028Y-21787D01*
X43132Y-21536D01*
X43133Y-21264D01*
X43133Y-22791D01*
X43063Y-22820D01*
X42871Y-23012D01*
X42767Y-23263D01*
X42766Y-23535D01*
X42870Y-23786D01*
X43062Y-23978D01*
X43313Y-24082D01*
X43585Y-24083D01*
X43836Y-23979D01*
X44028Y-23787D01*
X44132Y-23536D01*
X44133Y-23264D01*
X44133Y-25273D01*
X43325Y-26081D01*
X43325Y-24515D01*
X43260Y-24359D01*
X43141Y-24239D01*
X42984Y-24175D01*
X42815Y-24174D01*
X42659Y-24239D01*
X42539Y-24358D01*
X42475Y-24515D01*
X42474Y-24684D01*
X42539Y-24840D01*
X42658Y-24960D01*
X42815Y-25024D01*
X42984Y-25025D01*
X43140Y-24960D01*
X43260Y-24841D01*
X43324Y-24684D01*
X43325Y-24515D01*
X43325Y-26081D01*
X43181Y-26224D01*
X43165Y-26224D01*
X43009Y-26289D01*
X42889Y-26408D01*
X42825Y-26565D01*
X42825Y-26581D01*
X42003Y-27403D01*
X41927Y-27516D01*
X41901Y-27649D01*
X41901Y-30223D01*
X41784Y-30175D01*
X41615Y-30174D01*
X41459Y-30239D01*
X41339Y-30358D01*
X41275Y-30515D01*
X41274Y-30684D01*
X41339Y-30840D01*
X41410Y-30911D01*
X41410Y-39239D01*
X41409Y-39239D01*
X41289Y-39358D01*
X41225Y-39515D01*
X41224Y-39684D01*
X41289Y-39840D01*
X41408Y-39960D01*
X41565Y-40024D01*
X41734Y-40025D01*
X41890Y-39960D01*
X41916Y-39934D01*
X41919Y-41443D01*
X40001Y-41450D01*
X39991Y-41439D01*
X39834Y-41375D01*
X39665Y-41374D01*
X39509Y-41439D01*
X39389Y-41558D01*
X39325Y-41715D01*
X39324Y-41884D01*
X39389Y-42040D01*
X39508Y-42160D01*
X39665Y-42224D01*
X39834Y-42225D01*
X39990Y-42160D01*
X40002Y-42148D01*
X42201Y-42140D01*
X42334Y-42113D01*
X42447Y-42037D01*
X42523Y-41923D01*
X42523Y-41921D01*
X42586Y-41767D01*
X42591Y-41760D01*
X42617Y-41626D01*
X42617Y-41513D01*
X42622Y-41499D01*
X42639Y-41387D01*
X42617Y-41294D01*
X42599Y-30849D01*
X42599Y-27794D01*
X43318Y-27075D01*
X43334Y-27075D01*
X43490Y-27010D01*
X43610Y-26891D01*
X43674Y-26734D01*
X43674Y-26718D01*
X44685Y-25708D01*
X44739Y-25840D01*
X44858Y-25960D01*
X45015Y-26024D01*
X45184Y-26025D01*
X45340Y-25960D01*
X45460Y-25841D01*
X45524Y-25684D01*
X45525Y-25515D01*
X45460Y-25359D01*
X45341Y-25239D01*
X45208Y-25184D01*
X49544Y-20849D01*
X53535Y-20849D01*
X53421Y-20962D01*
X53317Y-21213D01*
X53316Y-21485D01*
X53420Y-21736D01*
X53612Y-21928D01*
X53863Y-22032D01*
X54135Y-22033D01*
X54386Y-21929D01*
X54578Y-21737D01*
X54682Y-21486D01*
X54683Y-21214D01*
X54579Y-20963D01*
X54464Y-20849D01*
X55535Y-20849D01*
X55421Y-20962D01*
X55317Y-21213D01*
X55316Y-21485D01*
X55420Y-21736D01*
X55612Y-21928D01*
X55863Y-22032D01*
X56135Y-22033D01*
X56386Y-21929D01*
X56578Y-21737D01*
X56682Y-21486D01*
X56683Y-21214D01*
X56579Y-20963D01*
X56464Y-20849D01*
X66150Y-20849D01*
X66283Y-20822D01*
X66283Y-20822D01*
X66396Y-20746D01*
X66446Y-20696D01*
X66522Y-20584D01*
X66535Y-21161D01*
X66851Y-21923D01*
X67440Y-21860D01*
X68661Y-20639D01*
X68555Y-20532D01*
X68767Y-20320D01*
X68874Y-20426D01*
X68980Y-20320D01*
X69192Y-20532D01*
X69086Y-20639D01*
X69192Y-20745D01*
X69192Y-20745D01*
G37*
G54D19*
X69192Y-20745D02*
X68980Y-20957D01*
X68874Y-20851D01*
X67652Y-22072D01*
X67589Y-22661D01*
X68453Y-22996D01*
X68562Y-23104D01*
X68643Y-23138D01*
X68562Y-23172D01*
X68408Y-23327D01*
X68324Y-23529D01*
X68323Y-23747D01*
X68370Y-23860D01*
X67300Y-23860D01*
X67224Y-23875D01*
X67065Y-23874D01*
X66909Y-23939D01*
X66789Y-24058D01*
X66725Y-24215D01*
X66724Y-24384D01*
X66789Y-24540D01*
X66908Y-24660D01*
X67065Y-24724D01*
X67234Y-24725D01*
X67390Y-24660D01*
X67510Y-24541D01*
X67552Y-24440D01*
X68361Y-24440D01*
X68324Y-24529D01*
X68323Y-24747D01*
X68407Y-24950D01*
X68562Y-25104D01*
X68643Y-25138D01*
X68562Y-25172D01*
X68408Y-25327D01*
X68324Y-25529D01*
X68323Y-25747D01*
X68407Y-25950D01*
X68562Y-26104D01*
X68643Y-26138D01*
X68562Y-26172D01*
X68408Y-26327D01*
X68324Y-26529D01*
X68323Y-26747D01*
X68370Y-26860D01*
X67025Y-26860D01*
X67025Y-25315D01*
X66960Y-25159D01*
X66841Y-25039D01*
X66684Y-24975D01*
X66515Y-24974D01*
X66359Y-25039D01*
X66239Y-25158D01*
X66175Y-25315D01*
X66174Y-25484D01*
X66239Y-25640D01*
X66358Y-25760D01*
X66515Y-25824D01*
X66684Y-25825D01*
X66840Y-25760D01*
X66960Y-25641D01*
X67024Y-25484D01*
X67025Y-25315D01*
X67025Y-26860D01*
X64550Y-26860D01*
X64439Y-26882D01*
X64344Y-26944D01*
X64175Y-27114D01*
X64175Y-25165D01*
X64110Y-25009D01*
X63991Y-24889D01*
X63834Y-24825D01*
X63665Y-24824D01*
X63525Y-24883D01*
X63525Y-21215D01*
X63460Y-21059D01*
X63341Y-20939D01*
X63184Y-20875D01*
X63015Y-20874D01*
X62859Y-20939D01*
X62739Y-21058D01*
X62675Y-21215D01*
X62674Y-21384D01*
X62739Y-21540D01*
X62858Y-21660D01*
X63015Y-21724D01*
X63184Y-21725D01*
X63340Y-21660D01*
X63460Y-21541D01*
X63524Y-21384D01*
X63525Y-21215D01*
X63525Y-24883D01*
X63509Y-24889D01*
X63438Y-24960D01*
X63302Y-24960D01*
X63260Y-24859D01*
X63141Y-24739D01*
X62984Y-24675D01*
X62815Y-24674D01*
X62659Y-24739D01*
X62539Y-24858D01*
X62475Y-25015D01*
X62474Y-25184D01*
X62539Y-25340D01*
X62658Y-25460D01*
X62815Y-25524D01*
X62974Y-25525D01*
X63050Y-25540D01*
X63438Y-25540D01*
X63508Y-25610D01*
X63665Y-25674D01*
X63834Y-25675D01*
X63990Y-25610D01*
X64110Y-25491D01*
X64174Y-25334D01*
X64175Y-25165D01*
X64175Y-27114D01*
X63429Y-27860D01*
X58061Y-27860D01*
X57991Y-27789D01*
X57834Y-27725D01*
X57665Y-27724D01*
X57509Y-27789D01*
X57389Y-27908D01*
X57325Y-28065D01*
X57324Y-28234D01*
X57389Y-28390D01*
X57508Y-28510D01*
X57665Y-28574D01*
X57834Y-28575D01*
X57990Y-28510D01*
X58061Y-28440D01*
X62777Y-28440D01*
X62694Y-28494D01*
X62632Y-28589D01*
X62610Y-28700D01*
X62610Y-30088D01*
X62539Y-30158D01*
X62475Y-30315D01*
X62474Y-30484D01*
X62539Y-30640D01*
X62623Y-30724D01*
X62589Y-30758D01*
X62525Y-30915D01*
X62524Y-31084D01*
X62589Y-31240D01*
X62708Y-31360D01*
X62865Y-31424D01*
X62964Y-31425D01*
X63210Y-31670D01*
X63210Y-31900D01*
X63232Y-32010D01*
X63294Y-32105D01*
X64144Y-32955D01*
X64239Y-33017D01*
X64350Y-33040D01*
X65400Y-33040D01*
X65462Y-33027D01*
X65294Y-33194D01*
X65232Y-33289D01*
X65210Y-33400D01*
X65210Y-35108D01*
X65141Y-35039D01*
X64984Y-34975D01*
X64815Y-34974D01*
X64659Y-35039D01*
X64539Y-35158D01*
X64475Y-35315D01*
X64474Y-35484D01*
X64539Y-35640D01*
X64658Y-35760D01*
X64815Y-35824D01*
X64984Y-35825D01*
X65140Y-35760D01*
X65210Y-35691D01*
X65210Y-40479D01*
X65129Y-40560D01*
X63050Y-40560D01*
X63050Y-33450D01*
X63050Y-32850D01*
X63012Y-32758D01*
X62941Y-32688D01*
X62849Y-32650D01*
X62750Y-32649D01*
X62150Y-32649D01*
X62058Y-32687D01*
X61988Y-32758D01*
X61950Y-32850D01*
X61950Y-32872D01*
X61811Y-32734D01*
X61609Y-32650D01*
X61391Y-32649D01*
X61188Y-32733D01*
X61034Y-32888D01*
X61000Y-32969D01*
X60966Y-32888D01*
X60811Y-32734D01*
X60609Y-32650D01*
X60391Y-32649D01*
X60188Y-32733D01*
X60034Y-32888D01*
X60000Y-32969D01*
X59966Y-32888D01*
X59840Y-32762D01*
X59838Y-32677D01*
X59522Y-31915D01*
X58933Y-31978D01*
X57712Y-33200D01*
X58933Y-34421D01*
X59522Y-34484D01*
X59857Y-33620D01*
X59965Y-33511D01*
X59999Y-33430D01*
X60033Y-33511D01*
X60188Y-33665D01*
X60390Y-33749D01*
X60608Y-33750D01*
X60811Y-33666D01*
X60965Y-33511D01*
X60999Y-33430D01*
X61033Y-33511D01*
X61188Y-33665D01*
X61390Y-33749D01*
X61608Y-33750D01*
X61811Y-33666D01*
X61949Y-33527D01*
X61949Y-33549D01*
X61987Y-33641D01*
X62058Y-33711D01*
X62150Y-33749D01*
X62249Y-33750D01*
X62849Y-33750D01*
X62941Y-33712D01*
X63011Y-33641D01*
X63049Y-33549D01*
X63050Y-33450D01*
X63050Y-40560D01*
X61475Y-40560D01*
X61475Y-34265D01*
X61410Y-34109D01*
X61291Y-33989D01*
X61134Y-33925D01*
X60965Y-33924D01*
X60809Y-33989D01*
X60689Y-34108D01*
X60625Y-34265D01*
X60624Y-34434D01*
X60689Y-34590D01*
X60808Y-34710D01*
X60965Y-34774D01*
X61134Y-34775D01*
X61290Y-34710D01*
X61410Y-34591D01*
X61474Y-34434D01*
X61475Y-34265D01*
X61475Y-40560D01*
X58784Y-40560D01*
X58784Y-35222D01*
X58721Y-34633D01*
X57500Y-33412D01*
X56278Y-34633D01*
X56215Y-35222D01*
X56775Y-35439D01*
X56774Y-35584D01*
X56839Y-35740D01*
X56958Y-35860D01*
X57115Y-35924D01*
X57284Y-35925D01*
X57440Y-35860D01*
X57560Y-35741D01*
X57624Y-35584D01*
X57624Y-35547D01*
X58022Y-35538D01*
X58784Y-35222D01*
X58784Y-40560D01*
X54250Y-40560D01*
X54139Y-40582D01*
X54044Y-40644D01*
X53982Y-40739D01*
X53960Y-40850D01*
X53960Y-41000D01*
X53960Y-41149D01*
X53463Y-40653D01*
X53515Y-40674D01*
X53684Y-40675D01*
X53840Y-40610D01*
X53960Y-40491D01*
X54024Y-40334D01*
X54025Y-40225D01*
X54067Y-40160D01*
X54090Y-40050D01*
X54090Y-36420D01*
X54355Y-36155D01*
X54355Y-36155D01*
X54355Y-36155D01*
X54417Y-36060D01*
X54440Y-35950D01*
X54439Y-35950D01*
X54440Y-35950D01*
X54440Y-34841D01*
X54458Y-34860D01*
X54615Y-34924D01*
X54784Y-34925D01*
X54940Y-34860D01*
X55060Y-34741D01*
X55124Y-34584D01*
X55125Y-34415D01*
X55060Y-34259D01*
X54941Y-34139D01*
X54784Y-34075D01*
X54615Y-34074D01*
X54459Y-34139D01*
X54440Y-34159D01*
X54440Y-32120D01*
X54570Y-31990D01*
X55322Y-31990D01*
X55134Y-32178D01*
X55308Y-32351D01*
X55139Y-32787D01*
X55161Y-33722D01*
X55477Y-34484D01*
X56066Y-34421D01*
X57287Y-33200D01*
X57181Y-33093D01*
X57393Y-32881D01*
X57500Y-32987D01*
X58721Y-31766D01*
X58784Y-31177D01*
X57912Y-30839D01*
X57418Y-30851D01*
X57424Y-30834D01*
X57425Y-30665D01*
X57360Y-30509D01*
X57241Y-30389D01*
X57084Y-30325D01*
X56915Y-30324D01*
X56759Y-30389D01*
X56639Y-30508D01*
X56575Y-30665D01*
X56574Y-30764D01*
X56491Y-30848D01*
X56478Y-30834D01*
X56025Y-31287D01*
X56025Y-31215D01*
X55960Y-31059D01*
X55890Y-30988D01*
X55890Y-29550D01*
X55889Y-29549D01*
X55890Y-29549D01*
X55886Y-29531D01*
X55867Y-29439D01*
X55805Y-29344D01*
X55805Y-29344D01*
X55683Y-29222D01*
X55683Y-23214D01*
X55579Y-22963D01*
X55387Y-22771D01*
X55136Y-22667D01*
X54864Y-22666D01*
X54613Y-22770D01*
X54421Y-22962D01*
X54317Y-23213D01*
X54316Y-23485D01*
X54420Y-23736D01*
X54612Y-23928D01*
X54863Y-24032D01*
X55135Y-24033D01*
X55386Y-23929D01*
X55578Y-23737D01*
X55682Y-23486D01*
X55683Y-23214D01*
X55683Y-29222D01*
X55624Y-29164D01*
X55625Y-29065D01*
X55560Y-28909D01*
X55441Y-28789D01*
X55284Y-28725D01*
X55115Y-28724D01*
X54959Y-28789D01*
X54839Y-28908D01*
X54775Y-29065D01*
X54774Y-29234D01*
X54839Y-29390D01*
X54958Y-29510D01*
X55115Y-29574D01*
X55214Y-29575D01*
X55310Y-29670D01*
X55310Y-30988D01*
X55239Y-31058D01*
X55175Y-31215D01*
X55174Y-31384D01*
X55185Y-31410D01*
X54450Y-31410D01*
X54449Y-31410D01*
X54339Y-31432D01*
X54244Y-31494D01*
X54244Y-31494D01*
X53944Y-31794D01*
X53882Y-31889D01*
X53860Y-32000D01*
X53860Y-35058D01*
X53791Y-34989D01*
X53634Y-34925D01*
X53465Y-34924D01*
X53309Y-34989D01*
X53189Y-35108D01*
X53125Y-35265D01*
X53124Y-35434D01*
X53189Y-35590D01*
X53308Y-35710D01*
X53465Y-35774D01*
X53634Y-35775D01*
X53790Y-35710D01*
X53860Y-35641D01*
X53860Y-35829D01*
X53594Y-36094D01*
X53532Y-36189D01*
X53510Y-36300D01*
X53510Y-39827D01*
X53359Y-39889D01*
X53239Y-40008D01*
X53175Y-40165D01*
X53174Y-40334D01*
X53196Y-40386D01*
X52990Y-40179D01*
X52990Y-37350D01*
X52990Y-37250D01*
X52990Y-37200D01*
X52990Y-34520D01*
X53505Y-34005D01*
X53567Y-33910D01*
X53590Y-33800D01*
X53590Y-33700D01*
X53590Y-29411D01*
X53660Y-29341D01*
X53724Y-29184D01*
X53725Y-29015D01*
X53660Y-28859D01*
X53541Y-28739D01*
X53384Y-28675D01*
X53215Y-28674D01*
X53059Y-28739D01*
X52939Y-28858D01*
X52875Y-29015D01*
X52874Y-29184D01*
X52939Y-29340D01*
X53010Y-29411D01*
X53010Y-33679D01*
X52494Y-34194D01*
X52432Y-34289D01*
X52410Y-34400D01*
X52410Y-37200D01*
X52410Y-37250D01*
X52410Y-37350D01*
X52410Y-40300D01*
X52432Y-40410D01*
X52494Y-40505D01*
X53510Y-41520D01*
X53510Y-46310D01*
X53175Y-46310D01*
X53175Y-44765D01*
X53175Y-41465D01*
X53110Y-41309D01*
X52991Y-41189D01*
X52834Y-41125D01*
X52665Y-41124D01*
X52509Y-41189D01*
X52438Y-41260D01*
X51850Y-41260D01*
X51850Y-33450D01*
X51850Y-32850D01*
X51812Y-32758D01*
X51741Y-32688D01*
X51649Y-32650D01*
X51550Y-32649D01*
X50950Y-32649D01*
X50858Y-32687D01*
X50788Y-32758D01*
X50750Y-32850D01*
X50750Y-32872D01*
X50611Y-32734D01*
X50409Y-32650D01*
X50191Y-32649D01*
X49988Y-32733D01*
X49834Y-32888D01*
X49800Y-32969D01*
X49766Y-32888D01*
X49611Y-32734D01*
X49409Y-32650D01*
X49191Y-32649D01*
X48988Y-32733D01*
X48834Y-32888D01*
X48800Y-32969D01*
X48766Y-32888D01*
X48640Y-32762D01*
X48638Y-32677D01*
X48322Y-31915D01*
X47733Y-31978D01*
X47584Y-32127D01*
X47584Y-31177D01*
X46712Y-30839D01*
X45777Y-30861D01*
X45015Y-31177D01*
X45078Y-31766D01*
X46300Y-32987D01*
X47521Y-31766D01*
X47584Y-31177D01*
X47584Y-32127D01*
X46512Y-33200D01*
X47733Y-34421D01*
X48322Y-34484D01*
X48657Y-33620D01*
X48765Y-33511D01*
X48799Y-33430D01*
X48833Y-33511D01*
X48988Y-33665D01*
X49190Y-33749D01*
X49408Y-33750D01*
X49611Y-33666D01*
X49765Y-33511D01*
X49799Y-33430D01*
X49833Y-33511D01*
X49988Y-33665D01*
X50190Y-33749D01*
X50408Y-33750D01*
X50611Y-33666D01*
X50749Y-33527D01*
X50749Y-33549D01*
X50787Y-33641D01*
X50858Y-33711D01*
X50950Y-33749D01*
X51049Y-33750D01*
X51649Y-33750D01*
X51741Y-33712D01*
X51811Y-33641D01*
X51849Y-33549D01*
X51850Y-33450D01*
X51850Y-41260D01*
X50761Y-41260D01*
X50741Y-41239D01*
X50584Y-41175D01*
X50415Y-41174D01*
X50325Y-41212D01*
X50325Y-34365D01*
X50260Y-34209D01*
X50141Y-34089D01*
X49984Y-34025D01*
X49815Y-34024D01*
X49659Y-34089D01*
X49539Y-34208D01*
X49475Y-34365D01*
X49474Y-34534D01*
X49539Y-34690D01*
X49658Y-34810D01*
X49815Y-34874D01*
X49984Y-34875D01*
X50140Y-34810D01*
X50260Y-34691D01*
X50324Y-34534D01*
X50325Y-34365D01*
X50325Y-41212D01*
X50259Y-41239D01*
X50139Y-41358D01*
X50075Y-41515D01*
X50074Y-41684D01*
X50133Y-41825D01*
X50075Y-41965D01*
X50074Y-42134D01*
X50139Y-42290D01*
X50258Y-42410D01*
X50415Y-42474D01*
X50584Y-42475D01*
X50740Y-42410D01*
X50860Y-42291D01*
X50924Y-42134D01*
X50925Y-41965D01*
X50873Y-41840D01*
X52438Y-41840D01*
X52508Y-41910D01*
X52665Y-41974D01*
X52834Y-41975D01*
X52990Y-41910D01*
X53110Y-41791D01*
X53174Y-41634D01*
X53175Y-41465D01*
X53175Y-44765D01*
X53110Y-44609D01*
X52991Y-44489D01*
X52834Y-44425D01*
X52665Y-44424D01*
X52509Y-44489D01*
X52389Y-44608D01*
X52325Y-44765D01*
X52324Y-44934D01*
X52389Y-45090D01*
X52508Y-45210D01*
X52665Y-45274D01*
X52834Y-45275D01*
X52990Y-45210D01*
X53110Y-45091D01*
X53174Y-44934D01*
X53175Y-44765D01*
X53175Y-46310D01*
X52436Y-46310D01*
X52381Y-46254D01*
X52231Y-46192D01*
X52069Y-46192D01*
X51919Y-46254D01*
X51855Y-46318D01*
X51810Y-46209D01*
X51691Y-46089D01*
X51534Y-46025D01*
X51365Y-46024D01*
X51209Y-46089D01*
X51089Y-46208D01*
X51025Y-46365D01*
X51024Y-46534D01*
X51089Y-46690D01*
X51208Y-46810D01*
X51260Y-46831D01*
X51260Y-47027D01*
X51134Y-46975D01*
X50977Y-46974D01*
X50977Y-44465D01*
X50912Y-44308D01*
X50803Y-44199D01*
X50911Y-44092D01*
X50976Y-43935D01*
X50977Y-43765D01*
X50912Y-43608D01*
X50792Y-43488D01*
X50635Y-43423D01*
X50465Y-43422D01*
X50308Y-43487D01*
X50300Y-43496D01*
X50292Y-43488D01*
X50135Y-43423D01*
X49965Y-43422D01*
X49808Y-43487D01*
X49800Y-43496D01*
X49792Y-43488D01*
X49635Y-43423D01*
X49475Y-43422D01*
X49475Y-41615D01*
X49410Y-41459D01*
X49291Y-41339D01*
X49134Y-41275D01*
X48965Y-41274D01*
X48809Y-41339D01*
X48738Y-41410D01*
X47584Y-41410D01*
X47584Y-35222D01*
X47521Y-34633D01*
X46300Y-33412D01*
X46087Y-33624D01*
X46087Y-33200D01*
X44866Y-31978D01*
X44277Y-31915D01*
X43939Y-32787D01*
X43961Y-33722D01*
X44277Y-34484D01*
X44866Y-34421D01*
X46087Y-33200D01*
X46087Y-33624D01*
X45078Y-34633D01*
X45038Y-35010D01*
X44939Y-35108D01*
X44875Y-35265D01*
X44874Y-35434D01*
X44939Y-35590D01*
X45058Y-35710D01*
X45215Y-35774D01*
X45384Y-35775D01*
X45540Y-35710D01*
X45660Y-35591D01*
X45702Y-35488D01*
X45887Y-35560D01*
X46822Y-35538D01*
X47584Y-35222D01*
X47584Y-41410D01*
X47061Y-41410D01*
X47051Y-41400D01*
X47110Y-41341D01*
X47174Y-41184D01*
X47175Y-41015D01*
X47110Y-40859D01*
X46991Y-40739D01*
X46834Y-40675D01*
X46665Y-40674D01*
X46509Y-40739D01*
X46438Y-40810D01*
X46050Y-40810D01*
X45939Y-40832D01*
X45844Y-40894D01*
X45394Y-41344D01*
X45332Y-41439D01*
X45310Y-41550D01*
X45310Y-44879D01*
X45275Y-44914D01*
X45275Y-42165D01*
X45210Y-42009D01*
X45091Y-41889D01*
X44934Y-41825D01*
X44765Y-41824D01*
X44609Y-41889D01*
X44489Y-42008D01*
X44425Y-42165D01*
X44424Y-42334D01*
X44489Y-42490D01*
X44608Y-42610D01*
X44765Y-42674D01*
X44934Y-42675D01*
X45090Y-42610D01*
X45210Y-42491D01*
X45274Y-42334D01*
X45275Y-42165D01*
X45275Y-44914D01*
X45214Y-44975D01*
X45115Y-44974D01*
X44959Y-45039D01*
X44839Y-45158D01*
X44775Y-45315D01*
X44774Y-45484D01*
X44839Y-45640D01*
X44958Y-45760D01*
X45115Y-45824D01*
X45284Y-45825D01*
X45440Y-45760D01*
X45560Y-45641D01*
X45624Y-45484D01*
X45625Y-45385D01*
X45805Y-45205D01*
X45805Y-45205D01*
X45805Y-45205D01*
X45867Y-45110D01*
X45867Y-45110D01*
X45886Y-45018D01*
X45890Y-45000D01*
X45889Y-45000D01*
X45890Y-45000D01*
X45890Y-41670D01*
X46170Y-41390D01*
X46438Y-41390D01*
X46448Y-41399D01*
X46389Y-41458D01*
X46325Y-41615D01*
X46324Y-41784D01*
X46389Y-41940D01*
X46508Y-42060D01*
X46665Y-42124D01*
X46834Y-42125D01*
X46990Y-42060D01*
X47061Y-41990D01*
X48658Y-41990D01*
X48639Y-42008D01*
X48575Y-42165D01*
X48574Y-42334D01*
X48639Y-42490D01*
X48758Y-42610D01*
X48915Y-42674D01*
X49084Y-42675D01*
X49240Y-42610D01*
X49360Y-42491D01*
X49424Y-42334D01*
X49425Y-42165D01*
X49360Y-42009D01*
X49350Y-42000D01*
X49410Y-41941D01*
X49474Y-41784D01*
X49475Y-41615D01*
X49475Y-43422D01*
X49465Y-43422D01*
X49308Y-43487D01*
X49300Y-43496D01*
X49292Y-43488D01*
X49135Y-43423D01*
X48965Y-43422D01*
X48808Y-43487D01*
X48688Y-43607D01*
X48623Y-43764D01*
X48622Y-43934D01*
X48687Y-44091D01*
X48796Y-44200D01*
X48688Y-44307D01*
X48623Y-44464D01*
X48622Y-44634D01*
X48687Y-44791D01*
X48807Y-44911D01*
X48964Y-44976D01*
X49134Y-44977D01*
X49291Y-44912D01*
X49299Y-44903D01*
X49307Y-44911D01*
X49464Y-44976D01*
X49634Y-44977D01*
X49791Y-44912D01*
X49799Y-44903D01*
X49807Y-44911D01*
X49964Y-44976D01*
X50134Y-44977D01*
X50291Y-44912D01*
X50299Y-44903D01*
X50307Y-44911D01*
X50464Y-44976D01*
X50634Y-44977D01*
X50791Y-44912D01*
X50911Y-44792D01*
X50976Y-44635D01*
X50977Y-44465D01*
X50977Y-46974D01*
X50965Y-46974D01*
X50837Y-47027D01*
X50224Y-46414D01*
X50225Y-46315D01*
X50160Y-46159D01*
X50041Y-46039D01*
X49884Y-45975D01*
X49715Y-45974D01*
X49559Y-46039D01*
X49439Y-46158D01*
X49375Y-46315D01*
X49374Y-46484D01*
X49439Y-46640D01*
X49558Y-46760D01*
X49715Y-46824D01*
X49814Y-46825D01*
X50594Y-47605D01*
X50689Y-47667D01*
X50723Y-47674D01*
X50808Y-47760D01*
X50965Y-47824D01*
X51134Y-47825D01*
X51260Y-47773D01*
X51260Y-47800D01*
X51282Y-47910D01*
X51344Y-48005D01*
X51744Y-48405D01*
X51744Y-48405D01*
X51839Y-48467D01*
X51931Y-48486D01*
X51949Y-48490D01*
X51949Y-48489D01*
X51950Y-48490D01*
X54179Y-48490D01*
X54510Y-48820D01*
X54510Y-49909D01*
X54391Y-49789D01*
X54234Y-49725D01*
X54065Y-49724D01*
X53909Y-49789D01*
X53838Y-49860D01*
X53650Y-49860D01*
X53539Y-49882D01*
X53444Y-49944D01*
X53344Y-50044D01*
X53282Y-50139D01*
X53260Y-50250D01*
X53260Y-50610D01*
X46725Y-50610D01*
X46725Y-48165D01*
X46660Y-48009D01*
X46541Y-47889D01*
X46384Y-47825D01*
X46215Y-47824D01*
X46059Y-47889D01*
X45939Y-48008D01*
X45875Y-48165D01*
X45874Y-48334D01*
X45939Y-48490D01*
X46058Y-48610D01*
X46215Y-48674D01*
X46384Y-48675D01*
X46540Y-48610D01*
X46660Y-48491D01*
X46724Y-48334D01*
X46725Y-48165D01*
X46725Y-50610D01*
X44675Y-50610D01*
X44675Y-45915D01*
X44610Y-45759D01*
X44491Y-45639D01*
X44334Y-45575D01*
X44258Y-45575D01*
X44258Y-36795D01*
X44174Y-36592D01*
X44019Y-36438D01*
X43817Y-36354D01*
X43599Y-36353D01*
X43396Y-36437D01*
X43242Y-36592D01*
X43158Y-36794D01*
X43157Y-37012D01*
X43241Y-37215D01*
X43396Y-37369D01*
X43598Y-37453D01*
X43816Y-37454D01*
X44019Y-37370D01*
X44173Y-37215D01*
X44257Y-37013D01*
X44258Y-36795D01*
X44258Y-45575D01*
X44165Y-45574D01*
X44009Y-45639D01*
X43889Y-45758D01*
X43825Y-45915D01*
X43824Y-46084D01*
X43889Y-46240D01*
X44008Y-46360D01*
X44165Y-46424D01*
X44334Y-46425D01*
X44490Y-46360D01*
X44610Y-46241D01*
X44674Y-46084D01*
X44675Y-45915D01*
X44675Y-50610D01*
X44620Y-50610D01*
X44455Y-50445D01*
X44510Y-50391D01*
X44574Y-50234D01*
X44575Y-50065D01*
X44510Y-49909D01*
X44391Y-49789D01*
X44234Y-49725D01*
X44065Y-49724D01*
X43909Y-49789D01*
X43789Y-49908D01*
X43775Y-49944D01*
X43775Y-38415D01*
X43710Y-38259D01*
X43591Y-38139D01*
X43434Y-38075D01*
X43265Y-38074D01*
X43109Y-38139D01*
X42989Y-38258D01*
X42925Y-38415D01*
X42924Y-38584D01*
X42989Y-38740D01*
X43108Y-38860D01*
X43265Y-38924D01*
X43434Y-38925D01*
X43590Y-38860D01*
X43710Y-38741D01*
X43774Y-38584D01*
X43775Y-38415D01*
X43775Y-49944D01*
X43725Y-50065D01*
X43724Y-50234D01*
X43789Y-50390D01*
X43860Y-50461D01*
X43860Y-50550D01*
X43882Y-50660D01*
X43944Y-50755D01*
X44294Y-51105D01*
X44294Y-51105D01*
X44389Y-51167D01*
X44499Y-51190D01*
X44499Y-51189D01*
X44500Y-51190D01*
X53225Y-51190D01*
X53224Y-51324D01*
X53210Y-51400D01*
X53210Y-51629D01*
X51229Y-53610D01*
X50277Y-53610D01*
X50421Y-53466D01*
X50484Y-52877D01*
X49620Y-52542D01*
X49527Y-52450D01*
X49549Y-52450D01*
X49641Y-52412D01*
X49711Y-52341D01*
X49749Y-52249D01*
X49750Y-52150D01*
X49750Y-51550D01*
X49712Y-51458D01*
X49641Y-51388D01*
X49549Y-51350D01*
X49450Y-51349D01*
X48850Y-51349D01*
X48758Y-51387D01*
X48688Y-51458D01*
X48650Y-51550D01*
X48649Y-51649D01*
X48649Y-52249D01*
X48687Y-52341D01*
X48758Y-52411D01*
X48850Y-52449D01*
X48872Y-52449D01*
X48762Y-52559D01*
X48677Y-52561D01*
X47915Y-52877D01*
X47978Y-53466D01*
X49200Y-54687D01*
X49697Y-54190D01*
X50122Y-54190D01*
X49412Y-54900D01*
X50633Y-56121D01*
X51222Y-56184D01*
X51560Y-55312D01*
X51538Y-54377D01*
X51452Y-54169D01*
X51460Y-54167D01*
X51555Y-54105D01*
X53705Y-51955D01*
X53767Y-51860D01*
X53790Y-51750D01*
X53790Y-51652D01*
X53890Y-51610D01*
X54010Y-51491D01*
X54074Y-51334D01*
X54075Y-51165D01*
X54010Y-51009D01*
X53891Y-50889D01*
X53840Y-50868D01*
X53840Y-50800D01*
X53840Y-50441D01*
X53908Y-50510D01*
X54065Y-50574D01*
X54234Y-50575D01*
X54390Y-50510D01*
X54510Y-50391D01*
X54510Y-52100D01*
X54532Y-52210D01*
X54594Y-52305D01*
X56194Y-53905D01*
X56194Y-53905D01*
X56289Y-53967D01*
X56399Y-53990D01*
X56399Y-53989D01*
X56400Y-53990D01*
X56524Y-53990D01*
X56533Y-54011D01*
X56688Y-54165D01*
X56769Y-54199D01*
X56688Y-54233D01*
X56534Y-54388D01*
X56450Y-54590D01*
X56449Y-54808D01*
X56533Y-55011D01*
X56688Y-55165D01*
X56769Y-55199D01*
X56688Y-55233D01*
X56534Y-55388D01*
X56450Y-55590D01*
X56449Y-55808D01*
X56533Y-56011D01*
X56688Y-56165D01*
X56890Y-56249D01*
X57108Y-56250D01*
X57311Y-56166D01*
X57465Y-56011D01*
X57475Y-55990D01*
X58000Y-55990D01*
X58110Y-55967D01*
X58205Y-55905D01*
X58355Y-55755D01*
X58375Y-55725D01*
X58375Y-59025D01*
X57550Y-59025D01*
X57550Y-58091D01*
X57466Y-57888D01*
X57327Y-57750D01*
X57349Y-57750D01*
X57441Y-57712D01*
X57511Y-57641D01*
X57549Y-57549D01*
X57550Y-57450D01*
X57550Y-56850D01*
X57512Y-56758D01*
X57441Y-56688D01*
X57349Y-56650D01*
X57250Y-56649D01*
X56650Y-56649D01*
X56558Y-56687D01*
X56488Y-56758D01*
X56450Y-56850D01*
X56449Y-56949D01*
X56449Y-57549D01*
X56487Y-57641D01*
X56558Y-57711D01*
X56650Y-57749D01*
X56672Y-57749D01*
X56534Y-57888D01*
X56450Y-58090D01*
X56449Y-58308D01*
X56533Y-58511D01*
X56688Y-58665D01*
X56890Y-58749D01*
X57108Y-58750D01*
X57311Y-58666D01*
X57465Y-58511D01*
X57549Y-58309D01*
X57550Y-58091D01*
X57550Y-59025D01*
X49718Y-59025D01*
X49749Y-58949D01*
X49750Y-58850D01*
X49750Y-58250D01*
X49712Y-58158D01*
X49641Y-58088D01*
X49549Y-58050D01*
X49527Y-58050D01*
X49665Y-57911D01*
X49749Y-57709D01*
X49750Y-57491D01*
X49666Y-57288D01*
X49618Y-57240D01*
X49722Y-57238D01*
X50484Y-56922D01*
X50421Y-56333D01*
X49200Y-55112D01*
X48987Y-55324D01*
X48987Y-54900D01*
X47766Y-53678D01*
X47177Y-53615D01*
X46839Y-54487D01*
X46861Y-55422D01*
X47177Y-56184D01*
X47766Y-56121D01*
X48987Y-54900D01*
X48987Y-55324D01*
X47978Y-56333D01*
X47915Y-56922D01*
X48769Y-57253D01*
X48734Y-57288D01*
X48650Y-57490D01*
X48649Y-57708D01*
X48733Y-57911D01*
X48872Y-58049D01*
X48850Y-58049D01*
X48758Y-58087D01*
X48688Y-58158D01*
X48650Y-58250D01*
X48649Y-58349D01*
X48649Y-58949D01*
X48681Y-59025D01*
X44193Y-59025D01*
X44068Y-59049D01*
X43963Y-59120D01*
X43892Y-59225D01*
X43868Y-59350D01*
X43868Y-59911D01*
X42960Y-59911D01*
X42960Y-48612D01*
X42938Y-47677D01*
X42622Y-46915D01*
X42033Y-46978D01*
X41884Y-47127D01*
X41884Y-46177D01*
X41020Y-45842D01*
X40911Y-45734D01*
X40830Y-45700D01*
X40911Y-45666D01*
X41065Y-45511D01*
X41149Y-45309D01*
X41150Y-45091D01*
X41066Y-44888D01*
X40911Y-44734D01*
X40830Y-44700D01*
X40911Y-44666D01*
X41065Y-44511D01*
X41149Y-44309D01*
X41150Y-44091D01*
X41066Y-43888D01*
X40927Y-43750D01*
X40949Y-43750D01*
X41041Y-43712D01*
X41111Y-43641D01*
X41149Y-43549D01*
X41150Y-43450D01*
X41150Y-42850D01*
X41112Y-42758D01*
X41041Y-42688D01*
X40949Y-42650D01*
X40850Y-42649D01*
X40250Y-42649D01*
X40158Y-42687D01*
X40088Y-42758D01*
X40050Y-42850D01*
X40049Y-42949D01*
X40049Y-43549D01*
X40087Y-43641D01*
X40158Y-43711D01*
X40250Y-43749D01*
X40272Y-43749D01*
X40134Y-43888D01*
X40050Y-44090D01*
X40049Y-44308D01*
X40133Y-44511D01*
X40288Y-44665D01*
X40369Y-44699D01*
X40288Y-44733D01*
X40134Y-44888D01*
X40050Y-45090D01*
X40049Y-45308D01*
X40133Y-45511D01*
X40288Y-45665D01*
X40369Y-45699D01*
X40288Y-45733D01*
X40162Y-45859D01*
X40077Y-45861D01*
X39315Y-46177D01*
X39378Y-46766D01*
X40600Y-47987D01*
X41821Y-46766D01*
X41884Y-46177D01*
X41884Y-47127D01*
X40812Y-48200D01*
X42033Y-49421D01*
X42622Y-49484D01*
X42960Y-48612D01*
X42960Y-59911D01*
X41884Y-59911D01*
X41884Y-50222D01*
X41821Y-49633D01*
X40600Y-48412D01*
X40387Y-48624D01*
X40387Y-48200D01*
X39166Y-46978D01*
X38577Y-46915D01*
X38239Y-47787D01*
X38261Y-48722D01*
X38577Y-49484D01*
X39166Y-49421D01*
X40387Y-48200D01*
X40387Y-48624D01*
X39378Y-49633D01*
X39315Y-50222D01*
X40187Y-50560D01*
X41122Y-50538D01*
X41884Y-50222D01*
X41884Y-59911D01*
X41150Y-59911D01*
X41150Y-58191D01*
X41150Y-56291D01*
X41066Y-56088D01*
X40911Y-55934D01*
X40830Y-55900D01*
X40911Y-55866D01*
X41065Y-55711D01*
X41149Y-55509D01*
X41150Y-55291D01*
X41066Y-55088D01*
X40911Y-54934D01*
X40830Y-54900D01*
X40911Y-54866D01*
X41065Y-54711D01*
X41149Y-54509D01*
X41150Y-54291D01*
X41066Y-54088D01*
X40911Y-53934D01*
X40830Y-53900D01*
X40911Y-53866D01*
X41065Y-53711D01*
X41149Y-53509D01*
X41150Y-53291D01*
X41066Y-53088D01*
X40911Y-52934D01*
X40830Y-52900D01*
X40911Y-52866D01*
X41065Y-52711D01*
X41149Y-52509D01*
X41150Y-52291D01*
X41066Y-52088D01*
X40927Y-51950D01*
X40949Y-51950D01*
X41041Y-51912D01*
X41111Y-51841D01*
X41149Y-51749D01*
X41150Y-51650D01*
X41150Y-51050D01*
X41112Y-50958D01*
X41041Y-50888D01*
X40949Y-50850D01*
X40850Y-50849D01*
X40250Y-50849D01*
X40158Y-50887D01*
X40088Y-50958D01*
X40050Y-51050D01*
X40049Y-51149D01*
X40049Y-51749D01*
X40087Y-51841D01*
X40158Y-51911D01*
X40250Y-51949D01*
X40272Y-51949D01*
X40134Y-52088D01*
X40050Y-52290D01*
X40049Y-52508D01*
X40133Y-52711D01*
X40288Y-52865D01*
X40369Y-52899D01*
X40288Y-52933D01*
X40134Y-53088D01*
X40050Y-53290D01*
X40049Y-53508D01*
X40133Y-53711D01*
X40288Y-53865D01*
X40369Y-53899D01*
X40288Y-53933D01*
X40134Y-54088D01*
X40050Y-54290D01*
X40049Y-54508D01*
X40133Y-54711D01*
X40288Y-54865D01*
X40369Y-54899D01*
X40288Y-54933D01*
X40134Y-55088D01*
X40050Y-55290D01*
X40049Y-55508D01*
X40133Y-55711D01*
X40288Y-55865D01*
X40369Y-55899D01*
X40288Y-55933D01*
X40134Y-56088D01*
X40050Y-56290D01*
X40049Y-56508D01*
X40133Y-56711D01*
X40288Y-56865D01*
X40490Y-56949D01*
X40708Y-56950D01*
X40911Y-56866D01*
X41065Y-56711D01*
X41149Y-56509D01*
X41150Y-56291D01*
X41150Y-58191D01*
X41066Y-57988D01*
X40911Y-57834D01*
X40709Y-57750D01*
X40491Y-57749D01*
X40288Y-57833D01*
X40134Y-57988D01*
X40050Y-58190D01*
X40049Y-58408D01*
X40133Y-58611D01*
X40272Y-58749D01*
X40250Y-58749D01*
X40158Y-58787D01*
X40088Y-58858D01*
X40050Y-58950D01*
X40049Y-59049D01*
X40049Y-59649D01*
X40087Y-59741D01*
X40158Y-59811D01*
X40250Y-59849D01*
X40349Y-59850D01*
X40949Y-59850D01*
X41041Y-59812D01*
X41111Y-59741D01*
X41149Y-59649D01*
X41150Y-59550D01*
X41150Y-58950D01*
X41112Y-58858D01*
X41041Y-58788D01*
X40949Y-58750D01*
X40927Y-58750D01*
X41065Y-58611D01*
X41149Y-58409D01*
X41150Y-58191D01*
X41150Y-59911D01*
X37475Y-59911D01*
X37475Y-38715D01*
X37410Y-38559D01*
X37291Y-38439D01*
X37134Y-38375D01*
X36965Y-38374D01*
X36809Y-38439D01*
X36689Y-38558D01*
X36625Y-38715D01*
X36624Y-38884D01*
X36689Y-39040D01*
X36808Y-39160D01*
X36965Y-39224D01*
X37134Y-39225D01*
X37290Y-39160D01*
X37410Y-39041D01*
X37474Y-38884D01*
X37475Y-38715D01*
X37475Y-59911D01*
X37375Y-59911D01*
X37375Y-40915D01*
X37310Y-40759D01*
X37191Y-40639D01*
X37034Y-40575D01*
X36865Y-40574D01*
X36709Y-40639D01*
X36589Y-40758D01*
X36525Y-40915D01*
X36524Y-41084D01*
X36589Y-41240D01*
X36708Y-41360D01*
X36865Y-41424D01*
X37034Y-41425D01*
X37190Y-41360D01*
X37310Y-41241D01*
X37374Y-41084D01*
X37375Y-40915D01*
X37375Y-59911D01*
X33379Y-59911D01*
X33379Y-59204D01*
X33295Y-59001D01*
X33156Y-58863D01*
X33178Y-58863D01*
X33270Y-58825D01*
X33340Y-58754D01*
X33378Y-58662D01*
X33379Y-58563D01*
X33379Y-57963D01*
X33341Y-57871D01*
X33270Y-57801D01*
X33178Y-57763D01*
X33079Y-57762D01*
X32479Y-57762D01*
X32387Y-57800D01*
X32317Y-57871D01*
X32279Y-57963D01*
X32278Y-58062D01*
X32278Y-58662D01*
X32316Y-58754D01*
X32387Y-58824D01*
X32479Y-58862D01*
X32501Y-58862D01*
X32363Y-59001D01*
X32279Y-59203D01*
X32278Y-59421D01*
X32362Y-59624D01*
X32517Y-59778D01*
X32719Y-59862D01*
X32937Y-59863D01*
X33140Y-59779D01*
X33294Y-59624D01*
X33378Y-59422D01*
X33379Y-59204D01*
X33379Y-59911D01*
X31427Y-59911D01*
X31427Y-50298D01*
X31807Y-50678D01*
X31980Y-50504D01*
X32416Y-50673D01*
X33351Y-50651D01*
X33685Y-50512D01*
X33850Y-50678D01*
X34113Y-50415D01*
X34360Y-50169D01*
X34360Y-55329D01*
X34113Y-55576D01*
X33666Y-56023D01*
X33379Y-56023D01*
X33379Y-55963D01*
X33341Y-55871D01*
X33270Y-55801D01*
X33178Y-55763D01*
X33156Y-55763D01*
X33294Y-55624D01*
X33378Y-55422D01*
X33379Y-55204D01*
X33295Y-55001D01*
X33140Y-54847D01*
X33059Y-54813D01*
X33140Y-54779D01*
X33294Y-54624D01*
X33378Y-54422D01*
X33379Y-54204D01*
X33295Y-54001D01*
X33140Y-53847D01*
X33059Y-53813D01*
X33140Y-53779D01*
X33294Y-53624D01*
X33378Y-53422D01*
X33379Y-53204D01*
X33295Y-53001D01*
X33140Y-52847D01*
X33059Y-52813D01*
X33140Y-52779D01*
X33294Y-52624D01*
X33378Y-52422D01*
X33379Y-52204D01*
X33295Y-52001D01*
X33156Y-51863D01*
X33178Y-51863D01*
X33270Y-51825D01*
X33340Y-51754D01*
X33378Y-51662D01*
X33379Y-51563D01*
X33379Y-50963D01*
X33341Y-50871D01*
X33270Y-50801D01*
X33178Y-50763D01*
X33079Y-50762D01*
X32479Y-50762D01*
X32387Y-50800D01*
X32317Y-50871D01*
X32279Y-50963D01*
X32278Y-51062D01*
X32278Y-51662D01*
X32316Y-51754D01*
X32387Y-51824D01*
X32479Y-51862D01*
X32501Y-51862D01*
X32363Y-52001D01*
X32279Y-52203D01*
X32278Y-52421D01*
X32362Y-52624D01*
X32517Y-52778D01*
X32598Y-52812D01*
X32517Y-52846D01*
X32363Y-53001D01*
X32279Y-53203D01*
X32278Y-53421D01*
X32362Y-53624D01*
X32517Y-53778D01*
X32598Y-53812D01*
X32517Y-53846D01*
X32363Y-54001D01*
X32279Y-54203D01*
X32278Y-54421D01*
X32362Y-54624D01*
X32517Y-54778D01*
X32598Y-54812D01*
X32517Y-54846D01*
X32363Y-55001D01*
X32279Y-55203D01*
X32278Y-55421D01*
X32362Y-55624D01*
X32501Y-55762D01*
X32479Y-55762D01*
X32387Y-55800D01*
X32317Y-55871D01*
X32279Y-55963D01*
X32278Y-56062D01*
X32278Y-56662D01*
X32316Y-56754D01*
X32387Y-56824D01*
X32479Y-56862D01*
X32578Y-56863D01*
X33178Y-56863D01*
X33270Y-56825D01*
X33340Y-56754D01*
X33378Y-56662D01*
X33379Y-56603D01*
X33787Y-56603D01*
X33897Y-56580D01*
X33992Y-56518D01*
X34855Y-55655D01*
X34917Y-55560D01*
X34940Y-55450D01*
X34940Y-49589D01*
X35194Y-49334D01*
X35020Y-49161D01*
X35189Y-48725D01*
X35167Y-47790D01*
X35028Y-47456D01*
X35194Y-47291D01*
X34940Y-47036D01*
X34940Y-34270D01*
X35468Y-33741D01*
X35490Y-33749D01*
X35708Y-33750D01*
X35911Y-33666D01*
X36065Y-33511D01*
X36099Y-33430D01*
X36133Y-33511D01*
X36288Y-33665D01*
X36490Y-33749D01*
X36708Y-33750D01*
X36911Y-33666D01*
X37065Y-33511D01*
X37099Y-33430D01*
X37133Y-33511D01*
X37288Y-33665D01*
X37490Y-33749D01*
X37708Y-33750D01*
X37911Y-33666D01*
X38065Y-33511D01*
X38099Y-33430D01*
X38133Y-33511D01*
X38288Y-33665D01*
X38490Y-33749D01*
X38708Y-33750D01*
X38911Y-33666D01*
X39065Y-33511D01*
X39099Y-33430D01*
X39133Y-33511D01*
X39288Y-33665D01*
X39490Y-33749D01*
X39708Y-33750D01*
X39911Y-33666D01*
X40049Y-33527D01*
X40049Y-33549D01*
X40087Y-33641D01*
X40158Y-33711D01*
X40250Y-33749D01*
X40349Y-33750D01*
X40949Y-33750D01*
X41041Y-33712D01*
X41111Y-33641D01*
X41149Y-33549D01*
X41150Y-33450D01*
X41150Y-32850D01*
X41150Y-22050D01*
X41150Y-21450D01*
X41112Y-21358D01*
X41041Y-21288D01*
X40949Y-21250D01*
X40850Y-21249D01*
X40250Y-21249D01*
X40158Y-21287D01*
X40088Y-21358D01*
X40050Y-21450D01*
X40050Y-21472D01*
X39911Y-21334D01*
X39709Y-21250D01*
X39491Y-21249D01*
X39288Y-21333D01*
X39134Y-21488D01*
X39100Y-21569D01*
X39066Y-21488D01*
X38911Y-21334D01*
X38709Y-21250D01*
X38491Y-21249D01*
X38288Y-21333D01*
X38134Y-21488D01*
X38100Y-21569D01*
X38066Y-21488D01*
X37911Y-21334D01*
X37709Y-21250D01*
X37491Y-21249D01*
X37288Y-21333D01*
X37134Y-21488D01*
X37100Y-21569D01*
X37066Y-21488D01*
X36911Y-21334D01*
X36709Y-21250D01*
X36491Y-21249D01*
X36288Y-21333D01*
X36134Y-21488D01*
X36100Y-21569D01*
X36066Y-21488D01*
X35911Y-21334D01*
X35709Y-21250D01*
X35491Y-21249D01*
X35288Y-21333D01*
X35134Y-21488D01*
X35050Y-21690D01*
X35049Y-21908D01*
X35133Y-22111D01*
X35288Y-22265D01*
X35490Y-22349D01*
X35708Y-22350D01*
X35911Y-22266D01*
X36065Y-22111D01*
X36099Y-22030D01*
X36133Y-22111D01*
X36288Y-22265D01*
X36490Y-22349D01*
X36708Y-22350D01*
X36911Y-22266D01*
X37065Y-22111D01*
X37099Y-22030D01*
X37133Y-22111D01*
X37288Y-22265D01*
X37490Y-22349D01*
X37708Y-22350D01*
X37911Y-22266D01*
X38065Y-22111D01*
X38099Y-22030D01*
X38133Y-22111D01*
X38288Y-22265D01*
X38490Y-22349D01*
X38708Y-22350D01*
X38911Y-22266D01*
X39065Y-22111D01*
X39099Y-22030D01*
X39133Y-22111D01*
X39288Y-22265D01*
X39490Y-22349D01*
X39708Y-22350D01*
X39911Y-22266D01*
X40049Y-22127D01*
X40049Y-22149D01*
X40087Y-22241D01*
X40158Y-22311D01*
X40250Y-22349D01*
X40349Y-22350D01*
X40949Y-22350D01*
X41041Y-22312D01*
X41111Y-22241D01*
X41149Y-22149D01*
X41150Y-22050D01*
X41150Y-32850D01*
X41112Y-32758D01*
X41041Y-32688D01*
X40949Y-32650D01*
X40850Y-32649D01*
X40250Y-32649D01*
X40158Y-32687D01*
X40088Y-32758D01*
X40050Y-32850D01*
X40050Y-32872D01*
X39911Y-32734D01*
X39709Y-32650D01*
X39491Y-32649D01*
X39288Y-32733D01*
X39134Y-32888D01*
X39100Y-32969D01*
X39066Y-32888D01*
X38911Y-32734D01*
X38709Y-32650D01*
X38491Y-32649D01*
X38288Y-32733D01*
X38134Y-32888D01*
X38100Y-32969D01*
X38066Y-32888D01*
X37911Y-32734D01*
X37709Y-32650D01*
X37491Y-32649D01*
X37288Y-32733D01*
X37134Y-32888D01*
X37100Y-32969D01*
X37066Y-32888D01*
X36911Y-32734D01*
X36709Y-32650D01*
X36491Y-32649D01*
X36288Y-32733D01*
X36134Y-32888D01*
X36100Y-32969D01*
X36066Y-32888D01*
X35911Y-32734D01*
X35709Y-32650D01*
X35491Y-32649D01*
X35288Y-32733D01*
X35134Y-32888D01*
X35050Y-33090D01*
X35049Y-33308D01*
X35058Y-33330D01*
X34479Y-33910D01*
X34479Y-20502D01*
X48904Y-20502D01*
X45133Y-24273D01*
X45133Y-21264D01*
X45029Y-21013D01*
X44837Y-20821D01*
X44586Y-20717D01*
X44314Y-20716D01*
X44063Y-20820D01*
X43871Y-21012D01*
X43767Y-21263D01*
X43766Y-21535D01*
X43870Y-21786D01*
X44062Y-21978D01*
X44313Y-22082D01*
X44585Y-22083D01*
X44836Y-21979D01*
X45028Y-21787D01*
X45132Y-21536D01*
X45133Y-21264D01*
X45133Y-24273D01*
X44133Y-25273D01*
X44133Y-23264D01*
X44029Y-23013D01*
X43837Y-22821D01*
X43586Y-22717D01*
X43314Y-22716D01*
X43133Y-22791D01*
X43133Y-21264D01*
X43029Y-21013D01*
X42837Y-20821D01*
X42586Y-20717D01*
X42314Y-20716D01*
X42063Y-20820D01*
X41871Y-21012D01*
X41767Y-21263D01*
X41766Y-21535D01*
X41870Y-21786D01*
X42062Y-21978D01*
X42313Y-22082D01*
X42585Y-22083D01*
X42836Y-21979D01*
X43028Y-21787D01*
X43132Y-21536D01*
X43133Y-21264D01*
X43133Y-22791D01*
X43063Y-22820D01*
X42871Y-23012D01*
X42767Y-23263D01*
X42766Y-23535D01*
X42870Y-23786D01*
X43062Y-23978D01*
X43313Y-24082D01*
X43585Y-24083D01*
X43836Y-23979D01*
X44028Y-23787D01*
X44132Y-23536D01*
X44133Y-23264D01*
X44133Y-25273D01*
X43325Y-26081D01*
X43325Y-24515D01*
X43260Y-24359D01*
X43141Y-24239D01*
X42984Y-24175D01*
X42815Y-24174D01*
X42659Y-24239D01*
X42539Y-24358D01*
X42475Y-24515D01*
X42474Y-24684D01*
X42539Y-24840D01*
X42658Y-24960D01*
X42815Y-25024D01*
X42984Y-25025D01*
X43140Y-24960D01*
X43260Y-24841D01*
X43324Y-24684D01*
X43325Y-24515D01*
X43325Y-26081D01*
X43181Y-26224D01*
X43165Y-26224D01*
X43009Y-26289D01*
X42889Y-26408D01*
X42825Y-26565D01*
X42825Y-26581D01*
X42003Y-27403D01*
X41927Y-27516D01*
X41901Y-27649D01*
X41901Y-30223D01*
X41784Y-30175D01*
X41615Y-30174D01*
X41459Y-30239D01*
X41339Y-30358D01*
X41275Y-30515D01*
X41274Y-30684D01*
X41339Y-30840D01*
X41410Y-30911D01*
X41410Y-39239D01*
X41409Y-39239D01*
X41289Y-39358D01*
X41225Y-39515D01*
X41224Y-39684D01*
X41289Y-39840D01*
X41408Y-39960D01*
X41565Y-40024D01*
X41734Y-40025D01*
X41890Y-39960D01*
X41916Y-39934D01*
X41919Y-41443D01*
X40001Y-41450D01*
X39991Y-41439D01*
X39834Y-41375D01*
X39665Y-41374D01*
X39509Y-41439D01*
X39389Y-41558D01*
X39325Y-41715D01*
X39324Y-41884D01*
X39389Y-42040D01*
X39508Y-42160D01*
X39665Y-42224D01*
X39834Y-42225D01*
X39990Y-42160D01*
X40002Y-42148D01*
X42201Y-42140D01*
X42334Y-42113D01*
X42447Y-42037D01*
X42523Y-41923D01*
X42523Y-41921D01*
X42586Y-41767D01*
X42591Y-41760D01*
X42617Y-41626D01*
X42617Y-41513D01*
X42622Y-41499D01*
X42639Y-41387D01*
X42617Y-41294D01*
X42599Y-30849D01*
X42599Y-27794D01*
X43318Y-27075D01*
X43334Y-27075D01*
X43490Y-27010D01*
X43610Y-26891D01*
X43674Y-26734D01*
X43674Y-26718D01*
X44685Y-25708D01*
X44739Y-25840D01*
X44858Y-25960D01*
X45015Y-26024D01*
X45184Y-26025D01*
X45340Y-25960D01*
X45460Y-25841D01*
X45524Y-25684D01*
X45525Y-25515D01*
X45460Y-25359D01*
X45341Y-25239D01*
X45208Y-25184D01*
X49544Y-20849D01*
X53535Y-20849D01*
X53421Y-20962D01*
X53317Y-21213D01*
X53316Y-21485D01*
X53420Y-21736D01*
X53612Y-21928D01*
X53863Y-22032D01*
X54135Y-22033D01*
X54386Y-21929D01*
X54578Y-21737D01*
X54682Y-21486D01*
X54683Y-21214D01*
X54579Y-20963D01*
X54464Y-20849D01*
X55535Y-20849D01*
X55421Y-20962D01*
X55317Y-21213D01*
X55316Y-21485D01*
X55420Y-21736D01*
X55612Y-21928D01*
X55863Y-22032D01*
X56135Y-22033D01*
X56386Y-21929D01*
X56578Y-21737D01*
X56682Y-21486D01*
X56683Y-21214D01*
X56579Y-20963D01*
X56464Y-20849D01*
X66150Y-20849D01*
X66283Y-20822D01*
X66283Y-20822D01*
X66396Y-20746D01*
X66446Y-20696D01*
X66522Y-20584D01*
X66535Y-21161D01*
X66851Y-21923D01*
X67440Y-21860D01*
X68661Y-20639D01*
X68555Y-20532D01*
X68767Y-20320D01*
X68874Y-20426D01*
X68980Y-20320D01*
X69192Y-20532D01*
X69086Y-20639D01*
X69192Y-20745D01*
G54D10*
G36*
X70310Y-44929D02*
X69029Y-46210D01*
X67148Y-46210D01*
X65550Y-46210D01*
X65450Y-46210D01*
X64725Y-46210D01*
X64725Y-45665D01*
X64660Y-45509D01*
X64541Y-45389D01*
X64384Y-45325D01*
X64215Y-45324D01*
X64059Y-45389D01*
X63939Y-45508D01*
X63875Y-45665D01*
X63874Y-45834D01*
X63939Y-45990D01*
X64058Y-46110D01*
X64215Y-46174D01*
X64384Y-46175D01*
X64540Y-46110D01*
X64660Y-45991D01*
X64724Y-45834D01*
X64725Y-45665D01*
X64725Y-46210D01*
X63086Y-46210D01*
X63031Y-46154D01*
X62881Y-46092D01*
X62719Y-46092D01*
X62569Y-46154D01*
X62454Y-46268D01*
X62440Y-46304D01*
X62440Y-46270D01*
X63105Y-45605D01*
X63105Y-45605D01*
X63105Y-45605D01*
X63167Y-45510D01*
X63190Y-45400D01*
X63189Y-45400D01*
X63190Y-45400D01*
X63190Y-45211D01*
X63211Y-45190D01*
X64038Y-45190D01*
X64058Y-45210D01*
X64215Y-45274D01*
X64384Y-45275D01*
X64540Y-45210D01*
X64660Y-45091D01*
X64724Y-44934D01*
X64725Y-44765D01*
X64660Y-44609D01*
X64541Y-44489D01*
X64384Y-44425D01*
X64215Y-44424D01*
X64059Y-44489D01*
X64025Y-44523D01*
X64025Y-41565D01*
X63960Y-41409D01*
X63841Y-41289D01*
X63684Y-41225D01*
X63515Y-41224D01*
X63359Y-41289D01*
X63288Y-41360D01*
X61761Y-41360D01*
X61691Y-41289D01*
X61534Y-41225D01*
X61365Y-41224D01*
X61209Y-41289D01*
X61089Y-41408D01*
X61025Y-41565D01*
X61024Y-41734D01*
X61089Y-41890D01*
X61208Y-42010D01*
X61275Y-42037D01*
X61274Y-42134D01*
X61339Y-42290D01*
X61458Y-42410D01*
X61615Y-42474D01*
X61784Y-42475D01*
X61940Y-42410D01*
X62060Y-42291D01*
X62124Y-42134D01*
X62125Y-41965D01*
X62114Y-41940D01*
X63288Y-41940D01*
X63358Y-42010D01*
X63515Y-42074D01*
X63684Y-42075D01*
X63840Y-42010D01*
X63960Y-41891D01*
X64024Y-41734D01*
X64025Y-41565D01*
X64025Y-44523D01*
X63939Y-44608D01*
X63939Y-44610D01*
X63211Y-44610D01*
X63141Y-44539D01*
X62984Y-44475D01*
X62815Y-44474D01*
X62659Y-44539D01*
X62539Y-44658D01*
X62475Y-44815D01*
X62474Y-44984D01*
X62539Y-45140D01*
X62610Y-45211D01*
X62610Y-45279D01*
X62127Y-45762D01*
X62127Y-44415D01*
X62062Y-44258D01*
X61953Y-44149D01*
X62061Y-44042D01*
X62126Y-43885D01*
X62127Y-43715D01*
X62062Y-43558D01*
X61942Y-43438D01*
X61785Y-43373D01*
X61615Y-43372D01*
X61458Y-43437D01*
X61450Y-43446D01*
X61442Y-43438D01*
X61285Y-43373D01*
X61115Y-43372D01*
X60958Y-43437D01*
X60950Y-43446D01*
X60942Y-43438D01*
X60785Y-43373D01*
X60675Y-43372D01*
X60675Y-41515D01*
X60610Y-41359D01*
X60491Y-41239D01*
X60334Y-41175D01*
X60165Y-41174D01*
X60009Y-41239D01*
X59938Y-41310D01*
X58711Y-41310D01*
X58641Y-41239D01*
X58484Y-41175D01*
X58315Y-41174D01*
X58159Y-41239D01*
X58039Y-41358D01*
X57975Y-41515D01*
X57974Y-41684D01*
X58039Y-41840D01*
X58158Y-41960D01*
X58315Y-42024D01*
X58484Y-42025D01*
X58640Y-41960D01*
X58711Y-41890D01*
X59706Y-41890D01*
X59675Y-41965D01*
X59674Y-42134D01*
X59739Y-42290D01*
X59858Y-42410D01*
X60015Y-42474D01*
X60184Y-42475D01*
X60340Y-42410D01*
X60460Y-42291D01*
X60524Y-42134D01*
X60525Y-41965D01*
X60513Y-41937D01*
X60610Y-41841D01*
X60674Y-41684D01*
X60675Y-41515D01*
X60675Y-43372D01*
X60615Y-43372D01*
X60458Y-43437D01*
X60450Y-43446D01*
X60442Y-43438D01*
X60285Y-43373D01*
X60115Y-43372D01*
X59958Y-43437D01*
X59838Y-43557D01*
X59773Y-43714D01*
X59772Y-43884D01*
X59837Y-44041D01*
X59946Y-44150D01*
X59838Y-44257D01*
X59773Y-44414D01*
X59772Y-44584D01*
X59837Y-44741D01*
X59957Y-44861D01*
X60114Y-44926D01*
X60284Y-44927D01*
X60441Y-44862D01*
X60449Y-44853D01*
X60457Y-44861D01*
X60614Y-44926D01*
X60784Y-44927D01*
X60941Y-44862D01*
X60949Y-44853D01*
X60957Y-44861D01*
X61114Y-44926D01*
X61284Y-44927D01*
X61441Y-44862D01*
X61449Y-44853D01*
X61457Y-44861D01*
X61614Y-44926D01*
X61784Y-44927D01*
X61941Y-44862D01*
X62061Y-44742D01*
X62126Y-44585D01*
X62127Y-44415D01*
X62127Y-45762D01*
X61944Y-45944D01*
X61882Y-46039D01*
X61860Y-46150D01*
X61860Y-47929D01*
X61810Y-47809D01*
X61740Y-47738D01*
X61740Y-46550D01*
X61717Y-46439D01*
X61655Y-46344D01*
X61424Y-46114D01*
X61425Y-46015D01*
X61360Y-45859D01*
X61241Y-45739D01*
X61084Y-45675D01*
X60915Y-45674D01*
X60759Y-45739D01*
X60639Y-45858D01*
X60575Y-46015D01*
X60574Y-46184D01*
X60639Y-46340D01*
X60758Y-46460D01*
X60915Y-46524D01*
X61014Y-46525D01*
X61160Y-46670D01*
X61160Y-47738D01*
X61089Y-47808D01*
X61025Y-47965D01*
X61024Y-48134D01*
X61089Y-48290D01*
X61208Y-48410D01*
X61365Y-48474D01*
X61534Y-48475D01*
X61690Y-48410D01*
X61810Y-48291D01*
X61860Y-48170D01*
X61860Y-51910D01*
X57725Y-51910D01*
X57725Y-47065D01*
X57660Y-46909D01*
X57541Y-46789D01*
X57384Y-46725D01*
X57215Y-46724D01*
X57059Y-46789D01*
X56939Y-46908D01*
X56875Y-47065D01*
X56875Y-42265D01*
X56810Y-42109D01*
X56691Y-41989D01*
X56534Y-41925D01*
X56365Y-41924D01*
X56209Y-41989D01*
X56089Y-42108D01*
X56025Y-42265D01*
X56024Y-42434D01*
X56089Y-42590D01*
X56208Y-42710D01*
X56365Y-42774D01*
X56534Y-42775D01*
X56690Y-42710D01*
X56810Y-42591D01*
X56874Y-42434D01*
X56875Y-42265D01*
X56875Y-47065D01*
X56874Y-47234D01*
X56939Y-47390D01*
X57029Y-47481D01*
X57009Y-47489D01*
X56889Y-47608D01*
X56825Y-47765D01*
X56824Y-47934D01*
X56889Y-48090D01*
X57008Y-48210D01*
X57165Y-48274D01*
X57334Y-48275D01*
X57490Y-48210D01*
X57610Y-48091D01*
X57674Y-47934D01*
X57675Y-47765D01*
X57610Y-47609D01*
X57520Y-47518D01*
X57540Y-47510D01*
X57660Y-47391D01*
X57724Y-47234D01*
X57725Y-47065D01*
X57725Y-51910D01*
X57500Y-51910D01*
X57389Y-51932D01*
X57294Y-51994D01*
X57139Y-52149D01*
X56650Y-52149D01*
X56558Y-52187D01*
X56488Y-52258D01*
X56450Y-52350D01*
X56449Y-52449D01*
X56449Y-53049D01*
X56487Y-53141D01*
X56558Y-53211D01*
X56650Y-53249D01*
X56672Y-53249D01*
X56534Y-53388D01*
X56524Y-53410D01*
X56520Y-53410D01*
X55775Y-52664D01*
X55775Y-45965D01*
X55710Y-45809D01*
X55591Y-45689D01*
X55434Y-45625D01*
X55265Y-45624D01*
X55109Y-45689D01*
X54989Y-45808D01*
X54925Y-45965D01*
X54924Y-46134D01*
X54989Y-46290D01*
X55108Y-46410D01*
X55265Y-46474D01*
X55434Y-46475D01*
X55590Y-46410D01*
X55710Y-46291D01*
X55774Y-46134D01*
X55775Y-45965D01*
X55775Y-52664D01*
X55090Y-51979D01*
X55090Y-48700D01*
X55067Y-48589D01*
X55005Y-48494D01*
X54540Y-48029D01*
X54540Y-41140D01*
X65250Y-41140D01*
X65360Y-41117D01*
X65425Y-41075D01*
X65424Y-41184D01*
X65489Y-41340D01*
X65608Y-41460D01*
X65765Y-41524D01*
X65934Y-41525D01*
X66090Y-41460D01*
X66210Y-41341D01*
X66274Y-41184D01*
X66275Y-41085D01*
X66355Y-41005D01*
X66355Y-41005D01*
X66355Y-41005D01*
X66417Y-40910D01*
X66440Y-40800D01*
X66439Y-40800D01*
X66440Y-40800D01*
X66440Y-33620D01*
X67055Y-33005D01*
X67055Y-33005D01*
X67055Y-33005D01*
X67117Y-32910D01*
X67140Y-32800D01*
X67139Y-32800D01*
X67140Y-32800D01*
X67140Y-32070D01*
X67770Y-31440D01*
X68361Y-31440D01*
X68324Y-31529D01*
X68323Y-31747D01*
X68407Y-31950D01*
X68562Y-32104D01*
X68643Y-32138D01*
X68562Y-32172D01*
X68408Y-32327D01*
X68324Y-32529D01*
X68323Y-32747D01*
X68407Y-32950D01*
X68562Y-33104D01*
X68643Y-33138D01*
X68562Y-33172D01*
X68408Y-33327D01*
X68324Y-33529D01*
X68323Y-33747D01*
X68407Y-33950D01*
X68562Y-34104D01*
X68643Y-34138D01*
X68562Y-34172D01*
X68408Y-34327D01*
X68324Y-34529D01*
X68323Y-34747D01*
X68407Y-34950D01*
X68562Y-35104D01*
X68643Y-35138D01*
X68562Y-35172D01*
X68408Y-35327D01*
X68324Y-35529D01*
X68323Y-35747D01*
X68407Y-35950D01*
X68562Y-36104D01*
X68643Y-36138D01*
X68562Y-36172D01*
X68408Y-36327D01*
X68324Y-36529D01*
X68323Y-36747D01*
X68407Y-36950D01*
X68562Y-37104D01*
X68643Y-37138D01*
X68562Y-37172D01*
X68408Y-37327D01*
X68324Y-37529D01*
X68323Y-37747D01*
X68407Y-37950D01*
X68562Y-38104D01*
X68643Y-38138D01*
X68562Y-38172D01*
X68408Y-38327D01*
X68324Y-38529D01*
X68323Y-38747D01*
X68407Y-38950D01*
X68562Y-39104D01*
X68643Y-39138D01*
X68562Y-39172D01*
X68408Y-39327D01*
X68366Y-39426D01*
X68355Y-39433D01*
X65564Y-42225D01*
X65465Y-42224D01*
X65309Y-42289D01*
X65189Y-42408D01*
X65125Y-42565D01*
X65124Y-42734D01*
X65189Y-42890D01*
X65308Y-43010D01*
X65465Y-43074D01*
X65634Y-43075D01*
X65790Y-43010D01*
X65910Y-42891D01*
X65974Y-42734D01*
X65975Y-42635D01*
X68533Y-40076D01*
X68562Y-40104D01*
X68643Y-40138D01*
X68562Y-40172D01*
X68408Y-40327D01*
X68324Y-40529D01*
X68323Y-40747D01*
X68407Y-40950D01*
X68562Y-41104D01*
X68643Y-41138D01*
X68562Y-41172D01*
X68408Y-41327D01*
X68324Y-41529D01*
X68323Y-41747D01*
X68407Y-41950D01*
X68562Y-42104D01*
X68643Y-42138D01*
X68562Y-42172D01*
X68408Y-42327D01*
X68324Y-42529D01*
X68323Y-42747D01*
X68407Y-42950D01*
X68562Y-43104D01*
X68643Y-43138D01*
X68562Y-43172D01*
X68408Y-43327D01*
X68324Y-43529D01*
X68323Y-43747D01*
X68407Y-43950D01*
X68562Y-44104D01*
X68764Y-44188D01*
X68982Y-44189D01*
X69185Y-44105D01*
X69339Y-43950D01*
X69373Y-43869D01*
X69407Y-43950D01*
X69562Y-44104D01*
X69764Y-44188D01*
X69982Y-44189D01*
X70185Y-44105D01*
X70310Y-43980D01*
X70310Y-44929D01*
X70310Y-44929D01*
G37*
G54D19*
X70310Y-44929D02*
X69029Y-46210D01*
X67148Y-46210D01*
X65550Y-46210D01*
X65450Y-46210D01*
X64725Y-46210D01*
X64725Y-45665D01*
X64660Y-45509D01*
X64541Y-45389D01*
X64384Y-45325D01*
X64215Y-45324D01*
X64059Y-45389D01*
X63939Y-45508D01*
X63875Y-45665D01*
X63874Y-45834D01*
X63939Y-45990D01*
X64058Y-46110D01*
X64215Y-46174D01*
X64384Y-46175D01*
X64540Y-46110D01*
X64660Y-45991D01*
X64724Y-45834D01*
X64725Y-45665D01*
X64725Y-46210D01*
X63086Y-46210D01*
X63031Y-46154D01*
X62881Y-46092D01*
X62719Y-46092D01*
X62569Y-46154D01*
X62454Y-46268D01*
X62440Y-46304D01*
X62440Y-46270D01*
X63105Y-45605D01*
X63105Y-45605D01*
X63105Y-45605D01*
X63167Y-45510D01*
X63190Y-45400D01*
X63189Y-45400D01*
X63190Y-45400D01*
X63190Y-45211D01*
X63211Y-45190D01*
X64038Y-45190D01*
X64058Y-45210D01*
X64215Y-45274D01*
X64384Y-45275D01*
X64540Y-45210D01*
X64660Y-45091D01*
X64724Y-44934D01*
X64725Y-44765D01*
X64660Y-44609D01*
X64541Y-44489D01*
X64384Y-44425D01*
X64215Y-44424D01*
X64059Y-44489D01*
X64025Y-44523D01*
X64025Y-41565D01*
X63960Y-41409D01*
X63841Y-41289D01*
X63684Y-41225D01*
X63515Y-41224D01*
X63359Y-41289D01*
X63288Y-41360D01*
X61761Y-41360D01*
X61691Y-41289D01*
X61534Y-41225D01*
X61365Y-41224D01*
X61209Y-41289D01*
X61089Y-41408D01*
X61025Y-41565D01*
X61024Y-41734D01*
X61089Y-41890D01*
X61208Y-42010D01*
X61275Y-42037D01*
X61274Y-42134D01*
X61339Y-42290D01*
X61458Y-42410D01*
X61615Y-42474D01*
X61784Y-42475D01*
X61940Y-42410D01*
X62060Y-42291D01*
X62124Y-42134D01*
X62125Y-41965D01*
X62114Y-41940D01*
X63288Y-41940D01*
X63358Y-42010D01*
X63515Y-42074D01*
X63684Y-42075D01*
X63840Y-42010D01*
X63960Y-41891D01*
X64024Y-41734D01*
X64025Y-41565D01*
X64025Y-44523D01*
X63939Y-44608D01*
X63939Y-44610D01*
X63211Y-44610D01*
X63141Y-44539D01*
X62984Y-44475D01*
X62815Y-44474D01*
X62659Y-44539D01*
X62539Y-44658D01*
X62475Y-44815D01*
X62474Y-44984D01*
X62539Y-45140D01*
X62610Y-45211D01*
X62610Y-45279D01*
X62127Y-45762D01*
X62127Y-44415D01*
X62062Y-44258D01*
X61953Y-44149D01*
X62061Y-44042D01*
X62126Y-43885D01*
X62127Y-43715D01*
X62062Y-43558D01*
X61942Y-43438D01*
X61785Y-43373D01*
X61615Y-43372D01*
X61458Y-43437D01*
X61450Y-43446D01*
X61442Y-43438D01*
X61285Y-43373D01*
X61115Y-43372D01*
X60958Y-43437D01*
X60950Y-43446D01*
X60942Y-43438D01*
X60785Y-43373D01*
X60675Y-43372D01*
X60675Y-41515D01*
X60610Y-41359D01*
X60491Y-41239D01*
X60334Y-41175D01*
X60165Y-41174D01*
X60009Y-41239D01*
X59938Y-41310D01*
X58711Y-41310D01*
X58641Y-41239D01*
X58484Y-41175D01*
X58315Y-41174D01*
X58159Y-41239D01*
X58039Y-41358D01*
X57975Y-41515D01*
X57974Y-41684D01*
X58039Y-41840D01*
X58158Y-41960D01*
X58315Y-42024D01*
X58484Y-42025D01*
X58640Y-41960D01*
X58711Y-41890D01*
X59706Y-41890D01*
X59675Y-41965D01*
X59674Y-42134D01*
X59739Y-42290D01*
X59858Y-42410D01*
X60015Y-42474D01*
X60184Y-42475D01*
X60340Y-42410D01*
X60460Y-42291D01*
X60524Y-42134D01*
X60525Y-41965D01*
X60513Y-41937D01*
X60610Y-41841D01*
X60674Y-41684D01*
X60675Y-41515D01*
X60675Y-43372D01*
X60615Y-43372D01*
X60458Y-43437D01*
X60450Y-43446D01*
X60442Y-43438D01*
X60285Y-43373D01*
X60115Y-43372D01*
X59958Y-43437D01*
X59838Y-43557D01*
X59773Y-43714D01*
X59772Y-43884D01*
X59837Y-44041D01*
X59946Y-44150D01*
X59838Y-44257D01*
X59773Y-44414D01*
X59772Y-44584D01*
X59837Y-44741D01*
X59957Y-44861D01*
X60114Y-44926D01*
X60284Y-44927D01*
X60441Y-44862D01*
X60449Y-44853D01*
X60457Y-44861D01*
X60614Y-44926D01*
X60784Y-44927D01*
X60941Y-44862D01*
X60949Y-44853D01*
X60957Y-44861D01*
X61114Y-44926D01*
X61284Y-44927D01*
X61441Y-44862D01*
X61449Y-44853D01*
X61457Y-44861D01*
X61614Y-44926D01*
X61784Y-44927D01*
X61941Y-44862D01*
X62061Y-44742D01*
X62126Y-44585D01*
X62127Y-44415D01*
X62127Y-45762D01*
X61944Y-45944D01*
X61882Y-46039D01*
X61860Y-46150D01*
X61860Y-47929D01*
X61810Y-47809D01*
X61740Y-47738D01*
X61740Y-46550D01*
X61717Y-46439D01*
X61655Y-46344D01*
X61424Y-46114D01*
X61425Y-46015D01*
X61360Y-45859D01*
X61241Y-45739D01*
X61084Y-45675D01*
X60915Y-45674D01*
X60759Y-45739D01*
X60639Y-45858D01*
X60575Y-46015D01*
X60574Y-46184D01*
X60639Y-46340D01*
X60758Y-46460D01*
X60915Y-46524D01*
X61014Y-46525D01*
X61160Y-46670D01*
X61160Y-47738D01*
X61089Y-47808D01*
X61025Y-47965D01*
X61024Y-48134D01*
X61089Y-48290D01*
X61208Y-48410D01*
X61365Y-48474D01*
X61534Y-48475D01*
X61690Y-48410D01*
X61810Y-48291D01*
X61860Y-48170D01*
X61860Y-51910D01*
X57725Y-51910D01*
X57725Y-47065D01*
X57660Y-46909D01*
X57541Y-46789D01*
X57384Y-46725D01*
X57215Y-46724D01*
X57059Y-46789D01*
X56939Y-46908D01*
X56875Y-47065D01*
X56875Y-42265D01*
X56810Y-42109D01*
X56691Y-41989D01*
X56534Y-41925D01*
X56365Y-41924D01*
X56209Y-41989D01*
X56089Y-42108D01*
X56025Y-42265D01*
X56024Y-42434D01*
X56089Y-42590D01*
X56208Y-42710D01*
X56365Y-42774D01*
X56534Y-42775D01*
X56690Y-42710D01*
X56810Y-42591D01*
X56874Y-42434D01*
X56875Y-42265D01*
X56875Y-47065D01*
X56874Y-47234D01*
X56939Y-47390D01*
X57029Y-47481D01*
X57009Y-47489D01*
X56889Y-47608D01*
X56825Y-47765D01*
X56824Y-47934D01*
X56889Y-48090D01*
X57008Y-48210D01*
X57165Y-48274D01*
X57334Y-48275D01*
X57490Y-48210D01*
X57610Y-48091D01*
X57674Y-47934D01*
X57675Y-47765D01*
X57610Y-47609D01*
X57520Y-47518D01*
X57540Y-47510D01*
X57660Y-47391D01*
X57724Y-47234D01*
X57725Y-47065D01*
X57725Y-51910D01*
X57500Y-51910D01*
X57389Y-51932D01*
X57294Y-51994D01*
X57139Y-52149D01*
X56650Y-52149D01*
X56558Y-52187D01*
X56488Y-52258D01*
X56450Y-52350D01*
X56449Y-52449D01*
X56449Y-53049D01*
X56487Y-53141D01*
X56558Y-53211D01*
X56650Y-53249D01*
X56672Y-53249D01*
X56534Y-53388D01*
X56524Y-53410D01*
X56520Y-53410D01*
X55775Y-52664D01*
X55775Y-45965D01*
X55710Y-45809D01*
X55591Y-45689D01*
X55434Y-45625D01*
X55265Y-45624D01*
X55109Y-45689D01*
X54989Y-45808D01*
X54925Y-45965D01*
X54924Y-46134D01*
X54989Y-46290D01*
X55108Y-46410D01*
X55265Y-46474D01*
X55434Y-46475D01*
X55590Y-46410D01*
X55710Y-46291D01*
X55774Y-46134D01*
X55775Y-45965D01*
X55775Y-52664D01*
X55090Y-51979D01*
X55090Y-48700D01*
X55067Y-48589D01*
X55005Y-48494D01*
X54540Y-48029D01*
X54540Y-41140D01*
X65250Y-41140D01*
X65360Y-41117D01*
X65425Y-41075D01*
X65424Y-41184D01*
X65489Y-41340D01*
X65608Y-41460D01*
X65765Y-41524D01*
X65934Y-41525D01*
X66090Y-41460D01*
X66210Y-41341D01*
X66274Y-41184D01*
X66275Y-41085D01*
X66355Y-41005D01*
X66355Y-41005D01*
X66355Y-41005D01*
X66417Y-40910D01*
X66440Y-40800D01*
X66439Y-40800D01*
X66440Y-40800D01*
X66440Y-33620D01*
X67055Y-33005D01*
X67055Y-33005D01*
X67055Y-33005D01*
X67117Y-32910D01*
X67140Y-32800D01*
X67139Y-32800D01*
X67140Y-32800D01*
X67140Y-32070D01*
X67770Y-31440D01*
X68361Y-31440D01*
X68324Y-31529D01*
X68323Y-31747D01*
X68407Y-31950D01*
X68562Y-32104D01*
X68643Y-32138D01*
X68562Y-32172D01*
X68408Y-32327D01*
X68324Y-32529D01*
X68323Y-32747D01*
X68407Y-32950D01*
X68562Y-33104D01*
X68643Y-33138D01*
X68562Y-33172D01*
X68408Y-33327D01*
X68324Y-33529D01*
X68323Y-33747D01*
X68407Y-33950D01*
X68562Y-34104D01*
X68643Y-34138D01*
X68562Y-34172D01*
X68408Y-34327D01*
X68324Y-34529D01*
X68323Y-34747D01*
X68407Y-34950D01*
X68562Y-35104D01*
X68643Y-35138D01*
X68562Y-35172D01*
X68408Y-35327D01*
X68324Y-35529D01*
X68323Y-35747D01*
X68407Y-35950D01*
X68562Y-36104D01*
X68643Y-36138D01*
X68562Y-36172D01*
X68408Y-36327D01*
X68324Y-36529D01*
X68323Y-36747D01*
X68407Y-36950D01*
X68562Y-37104D01*
X68643Y-37138D01*
X68562Y-37172D01*
X68408Y-37327D01*
X68324Y-37529D01*
X68323Y-37747D01*
X68407Y-37950D01*
X68562Y-38104D01*
X68643Y-38138D01*
X68562Y-38172D01*
X68408Y-38327D01*
X68324Y-38529D01*
X68323Y-38747D01*
X68407Y-38950D01*
X68562Y-39104D01*
X68643Y-39138D01*
X68562Y-39172D01*
X68408Y-39327D01*
X68366Y-39426D01*
X68355Y-39433D01*
X65564Y-42225D01*
X65465Y-42224D01*
X65309Y-42289D01*
X65189Y-42408D01*
X65125Y-42565D01*
X65124Y-42734D01*
X65189Y-42890D01*
X65308Y-43010D01*
X65465Y-43074D01*
X65634Y-43075D01*
X65790Y-43010D01*
X65910Y-42891D01*
X65974Y-42734D01*
X65975Y-42635D01*
X68533Y-40076D01*
X68562Y-40104D01*
X68643Y-40138D01*
X68562Y-40172D01*
X68408Y-40327D01*
X68324Y-40529D01*
X68323Y-40747D01*
X68407Y-40950D01*
X68562Y-41104D01*
X68643Y-41138D01*
X68562Y-41172D01*
X68408Y-41327D01*
X68324Y-41529D01*
X68323Y-41747D01*
X68407Y-41950D01*
X68562Y-42104D01*
X68643Y-42138D01*
X68562Y-42172D01*
X68408Y-42327D01*
X68324Y-42529D01*
X68323Y-42747D01*
X68407Y-42950D01*
X68562Y-43104D01*
X68643Y-43138D01*
X68562Y-43172D01*
X68408Y-43327D01*
X68324Y-43529D01*
X68323Y-43747D01*
X68407Y-43950D01*
X68562Y-44104D01*
X68764Y-44188D01*
X68982Y-44189D01*
X69185Y-44105D01*
X69339Y-43950D01*
X69373Y-43869D01*
X69407Y-43950D01*
X69562Y-44104D01*
X69764Y-44188D01*
X69982Y-44189D01*
X70185Y-44105D01*
X70310Y-43980D01*
X70310Y-44929D01*
M02*
