G04 (created by PCBNEW-RS274X (2012-01-19 BZR 3256)-stable) date 19/07/2014 16:24:45*
G01*
G70*
G90*
%MOIN*%
G04 Gerber Fmt 3.4, Leading zero omitted, Abs format*
%FSLAX34Y34*%
G04 APERTURE LIST*
%ADD10C,0.006000*%
%ADD11C,0.216900*%
%ADD12R,0.098700X0.098700*%
%ADD13C,0.118400*%
%ADD14O,0.059400X0.069200*%
%ADD15O,0.094800X0.102700*%
%ADD16C,0.053500*%
%ADD17R,0.080000X0.080000*%
%ADD18C,0.080000*%
%ADD19R,0.059400X0.059400*%
%ADD20C,0.059400*%
%ADD21C,0.149900*%
%ADD22C,0.120000*%
%ADD23C,0.051500*%
G04 APERTURE END LIST*
G54D10*
G54D11*
X02754Y01575D03*
G54D12*
X17390Y45236D03*
G54D13*
X19890Y45236D03*
G54D14*
X18905Y01968D03*
X20657Y01968D03*
G54D15*
X21395Y00716D03*
X18167Y00716D03*
G54D16*
X20716Y00716D03*
X18846Y00716D03*
G54D17*
X12114Y46430D03*
G54D18*
X13114Y46430D03*
X14114Y46430D03*
G54D17*
X01248Y44019D03*
G54D18*
X01248Y43019D03*
X01248Y42019D03*
X01248Y41019D03*
X01248Y40019D03*
X01248Y39019D03*
X01248Y38019D03*
G54D17*
X01248Y36143D03*
G54D18*
X01248Y35143D03*
X01248Y34143D03*
X01248Y33143D03*
X01248Y32143D03*
X01248Y31143D03*
X01248Y30143D03*
G54D17*
X01248Y28170D03*
G54D18*
X01248Y27170D03*
X01248Y26170D03*
X01248Y25170D03*
X01248Y24170D03*
X01248Y23170D03*
X01248Y22170D03*
G54D17*
X01248Y20199D03*
G54D18*
X01248Y19199D03*
X01248Y18199D03*
X01248Y17199D03*
X01248Y16199D03*
X01248Y15199D03*
X01248Y14199D03*
G54D17*
X35911Y46929D03*
G54D18*
X34911Y46929D03*
G54D19*
X20651Y07329D03*
G54D20*
X20651Y07829D03*
X21151Y07329D03*
X21151Y07829D03*
X21651Y07329D03*
X21651Y07829D03*
X22151Y07329D03*
X22151Y07829D03*
X22651Y07329D03*
X22651Y07829D03*
X24140Y01870D03*
X27282Y01870D03*
G54D17*
X38474Y43299D03*
G54D18*
X39474Y43299D03*
X38474Y38299D03*
X39474Y42299D03*
X38474Y37299D03*
X39474Y41299D03*
X38474Y36299D03*
X39474Y40299D03*
X38474Y35299D03*
X39474Y39299D03*
X38474Y34299D03*
X39474Y38299D03*
X38474Y33299D03*
X39474Y37299D03*
X38474Y32299D03*
X39474Y36299D03*
X38474Y31299D03*
X39474Y35299D03*
X38474Y30299D03*
X39474Y34299D03*
X38474Y29299D03*
X39474Y33299D03*
X38474Y28299D03*
X39474Y32299D03*
X39474Y31299D03*
X38474Y27299D03*
X39474Y30299D03*
X39474Y28299D03*
X39474Y27299D03*
X39474Y26299D03*
X39474Y25299D03*
X38474Y26299D03*
X38474Y25299D03*
X38474Y42299D03*
X38474Y41299D03*
X38474Y40299D03*
X38474Y39299D03*
X38474Y24299D03*
X39474Y24299D03*
X39474Y29299D03*
X38474Y23299D03*
X39474Y23299D03*
X38474Y22299D03*
X39474Y22299D03*
X38474Y21299D03*
X39474Y21299D03*
X38474Y20299D03*
X39474Y20299D03*
X38474Y19299D03*
X39474Y19299D03*
G54D21*
X32098Y04528D03*
X36598Y04528D03*
G54D18*
X36098Y08028D03*
X35600Y07028D03*
X35098Y08028D03*
X34600Y07028D03*
X34098Y08028D03*
X33600Y07028D03*
X33098Y08028D03*
G54D22*
X31298Y05729D03*
X37398Y05728D03*
G54D18*
X35956Y02599D03*
X32740Y02599D03*
X36956Y02599D03*
X31740Y02599D03*
G54D17*
X32600Y07028D03*
G54D23*
X16730Y26181D03*
X16533Y42028D03*
X16730Y34252D03*
X15746Y17618D03*
G54D17*
X32696Y41944D03*
G54D18*
X32696Y40944D03*
G54D17*
X20089Y34050D03*
G54D18*
X20089Y35050D03*
X32638Y13104D03*
X21148Y41630D03*
G54D17*
X22280Y40558D03*
G54D18*
X23280Y40558D03*
G54D12*
X30205Y45236D03*
G54D13*
X32705Y45236D03*
G54D17*
X04888Y01328D03*
G54D18*
X05888Y01328D03*
X06888Y01328D03*
X07888Y01328D03*
G54D17*
X01248Y12617D03*
G54D18*
X01248Y11617D03*
X01256Y10617D03*
X01248Y09617D03*
X01248Y08617D03*
X01248Y07617D03*
X01248Y06617D03*
X01248Y05617D03*
X01248Y04617D03*
X01248Y03617D03*
G54D11*
X38974Y46850D03*
X38974Y01575D03*
X02754Y46850D03*
M02*
