G04 (created by PCBNEW (2013-05-18 BZR 4017)-stable) date Mon 15 Dec 2014 14:45:52 GMT*
%MOIN*%
G04 Gerber Fmt 3.4, Leading zero omitted, Abs format*
%FSLAX34Y34*%
G01*
G70*
G90*
G04 APERTURE LIST*
%ADD10C,0.00590551*%
%ADD11C,0.00984252*%
%ADD12C,0.012*%
%ADD13C,0.011811*%
%ADD14C,0.005*%
%ADD15C,0.0079*%
%ADD16C,0.006*%
%ADD17C,0.0059*%
%ADD18C,0.01*%
%ADD19C,0.015*%
%ADD20C,0.0039*%
%ADD21C,0.008*%
%ADD22C,0.001975*%
%ADD23C,0.002*%
%ADD24C,0.0047*%
%ADD25C,0.0024*%
%ADD26C,0.0016*%
G04 APERTURE END LIST*
G54D10*
G54D11*
X55416Y-27971D02*
X55397Y-27990D01*
X55341Y-28009D01*
X55303Y-28009D01*
X55247Y-27990D01*
X55209Y-27953D01*
X55191Y-27915D01*
X55172Y-27840D01*
X55172Y-27784D01*
X55191Y-27709D01*
X55209Y-27671D01*
X55247Y-27634D01*
X55303Y-27615D01*
X55341Y-27615D01*
X55397Y-27634D01*
X55416Y-27653D01*
X55584Y-27803D02*
X55715Y-27803D01*
X55772Y-28009D02*
X55584Y-28009D01*
X55584Y-27615D01*
X55772Y-27615D01*
X56165Y-28009D02*
X56034Y-27821D01*
X55940Y-28009D02*
X55940Y-27615D01*
X56090Y-27615D01*
X56128Y-27634D01*
X56147Y-27653D01*
X56165Y-27690D01*
X56165Y-27746D01*
X56147Y-27784D01*
X56128Y-27803D01*
X56090Y-27821D01*
X55940Y-27821D01*
X56334Y-28009D02*
X56334Y-27615D01*
X56559Y-28009D01*
X56559Y-27615D01*
X57122Y-27615D02*
X57197Y-27615D01*
X57234Y-27634D01*
X57272Y-27671D01*
X57290Y-27746D01*
X57290Y-27878D01*
X57272Y-27953D01*
X57234Y-27990D01*
X57197Y-28009D01*
X57122Y-28009D01*
X57084Y-27990D01*
X57047Y-27953D01*
X57028Y-27878D01*
X57028Y-27746D01*
X57047Y-27671D01*
X57084Y-27634D01*
X57122Y-27615D01*
X57440Y-27990D02*
X57497Y-28009D01*
X57590Y-28009D01*
X57628Y-27990D01*
X57646Y-27971D01*
X57665Y-27934D01*
X57665Y-27896D01*
X57646Y-27859D01*
X57628Y-27840D01*
X57590Y-27821D01*
X57515Y-27803D01*
X57478Y-27784D01*
X57459Y-27765D01*
X57440Y-27728D01*
X57440Y-27690D01*
X57459Y-27653D01*
X57478Y-27634D01*
X57515Y-27615D01*
X57609Y-27615D01*
X57665Y-27634D01*
X57834Y-28009D02*
X57834Y-27615D01*
X57834Y-27803D02*
X58059Y-27803D01*
X58059Y-28009D02*
X58059Y-27615D01*
X58734Y-28009D02*
X58546Y-28009D01*
X58546Y-27615D01*
X58865Y-28009D02*
X58865Y-27746D01*
X58865Y-27615D02*
X58846Y-27634D01*
X58865Y-27653D01*
X58884Y-27634D01*
X58865Y-27615D01*
X58865Y-27653D01*
X59221Y-27990D02*
X59184Y-28009D01*
X59109Y-28009D01*
X59071Y-27990D01*
X59053Y-27971D01*
X59034Y-27934D01*
X59034Y-27821D01*
X59053Y-27784D01*
X59071Y-27765D01*
X59109Y-27746D01*
X59184Y-27746D01*
X59221Y-27765D01*
X59540Y-27990D02*
X59503Y-28009D01*
X59428Y-28009D01*
X59390Y-27990D01*
X59371Y-27953D01*
X59371Y-27803D01*
X59390Y-27765D01*
X59428Y-27746D01*
X59503Y-27746D01*
X59540Y-27765D01*
X59559Y-27803D01*
X59559Y-27840D01*
X59371Y-27878D01*
X59727Y-27746D02*
X59727Y-28009D01*
X59727Y-27784D02*
X59746Y-27765D01*
X59784Y-27746D01*
X59840Y-27746D01*
X59877Y-27765D01*
X59896Y-27803D01*
X59896Y-28009D01*
X60252Y-27990D02*
X60215Y-28009D01*
X60140Y-28009D01*
X60102Y-27990D01*
X60084Y-27971D01*
X60065Y-27934D01*
X60065Y-27821D01*
X60084Y-27784D01*
X60102Y-27765D01*
X60140Y-27746D01*
X60215Y-27746D01*
X60252Y-27765D01*
X60571Y-27990D02*
X60534Y-28009D01*
X60459Y-28009D01*
X60421Y-27990D01*
X60402Y-27953D01*
X60402Y-27803D01*
X60421Y-27765D01*
X60459Y-27746D01*
X60534Y-27746D01*
X60571Y-27765D01*
X60590Y-27803D01*
X60590Y-27840D01*
X60402Y-27878D01*
X61265Y-28009D02*
X61040Y-28009D01*
X61152Y-28009D02*
X61152Y-27615D01*
X61115Y-27671D01*
X61077Y-27709D01*
X61040Y-27728D01*
X61434Y-27971D02*
X61452Y-27990D01*
X61434Y-28009D01*
X61415Y-27990D01*
X61434Y-27971D01*
X61434Y-28009D01*
X61602Y-27653D02*
X61621Y-27634D01*
X61658Y-27615D01*
X61752Y-27615D01*
X61790Y-27634D01*
X61808Y-27653D01*
X61827Y-27690D01*
X61827Y-27728D01*
X61808Y-27784D01*
X61583Y-28009D01*
X61827Y-28009D01*
X46015Y-27746D02*
X46090Y-28009D01*
X46165Y-27821D01*
X46240Y-28009D01*
X46315Y-27746D01*
X46428Y-27746D02*
X46503Y-28009D01*
X46578Y-27821D01*
X46653Y-28009D01*
X46728Y-27746D01*
X46840Y-27746D02*
X46915Y-28009D01*
X46990Y-27821D01*
X47065Y-28009D01*
X47140Y-27746D01*
X47290Y-27971D02*
X47309Y-27990D01*
X47290Y-28009D01*
X47272Y-27990D01*
X47290Y-27971D01*
X47290Y-28009D01*
X47478Y-28009D02*
X47478Y-27746D01*
X47478Y-27821D02*
X47497Y-27784D01*
X47515Y-27765D01*
X47553Y-27746D01*
X47590Y-27746D01*
X47871Y-27990D02*
X47834Y-28009D01*
X47759Y-28009D01*
X47722Y-27990D01*
X47703Y-27953D01*
X47703Y-27803D01*
X47722Y-27765D01*
X47759Y-27746D01*
X47834Y-27746D01*
X47871Y-27765D01*
X47890Y-27803D01*
X47890Y-27840D01*
X47703Y-27878D01*
X48059Y-27746D02*
X48059Y-28140D01*
X48059Y-27765D02*
X48096Y-27746D01*
X48171Y-27746D01*
X48209Y-27765D01*
X48228Y-27784D01*
X48246Y-27821D01*
X48246Y-27934D01*
X48228Y-27971D01*
X48209Y-27990D01*
X48171Y-28009D01*
X48096Y-28009D01*
X48059Y-27990D01*
X48415Y-28009D02*
X48415Y-27746D01*
X48415Y-27821D02*
X48434Y-27784D01*
X48453Y-27765D01*
X48490Y-27746D01*
X48528Y-27746D01*
X48828Y-28009D02*
X48828Y-27803D01*
X48809Y-27765D01*
X48771Y-27746D01*
X48696Y-27746D01*
X48659Y-27765D01*
X48828Y-27990D02*
X48790Y-28009D01*
X48696Y-28009D01*
X48659Y-27990D01*
X48640Y-27953D01*
X48640Y-27915D01*
X48659Y-27878D01*
X48696Y-27859D01*
X48790Y-27859D01*
X48828Y-27840D01*
X49015Y-27746D02*
X49015Y-28140D01*
X49015Y-27765D02*
X49053Y-27746D01*
X49128Y-27746D01*
X49165Y-27765D01*
X49184Y-27784D01*
X49203Y-27821D01*
X49203Y-27934D01*
X49184Y-27971D01*
X49165Y-27990D01*
X49128Y-28009D01*
X49053Y-28009D01*
X49015Y-27990D01*
X49371Y-27746D02*
X49371Y-28140D01*
X49371Y-27765D02*
X49409Y-27746D01*
X49484Y-27746D01*
X49521Y-27765D01*
X49540Y-27784D01*
X49559Y-27821D01*
X49559Y-27934D01*
X49540Y-27971D01*
X49521Y-27990D01*
X49484Y-28009D01*
X49409Y-28009D01*
X49371Y-27990D01*
X49728Y-28009D02*
X49728Y-27746D01*
X49728Y-27821D02*
X49746Y-27784D01*
X49765Y-27765D01*
X49802Y-27746D01*
X49840Y-27746D01*
X50027Y-28009D02*
X49990Y-27990D01*
X49971Y-27971D01*
X49952Y-27934D01*
X49952Y-27821D01*
X49971Y-27784D01*
X49990Y-27765D01*
X50027Y-27746D01*
X50084Y-27746D01*
X50121Y-27765D01*
X50140Y-27784D01*
X50159Y-27821D01*
X50159Y-27934D01*
X50140Y-27971D01*
X50121Y-27990D01*
X50084Y-28009D01*
X50027Y-28009D01*
X50327Y-27971D02*
X50346Y-27990D01*
X50327Y-28009D01*
X50309Y-27990D01*
X50327Y-27971D01*
X50327Y-28009D01*
X50684Y-27990D02*
X50646Y-28009D01*
X50571Y-28009D01*
X50534Y-27990D01*
X50515Y-27971D01*
X50496Y-27934D01*
X50496Y-27821D01*
X50515Y-27784D01*
X50534Y-27765D01*
X50571Y-27746D01*
X50646Y-27746D01*
X50684Y-27765D01*
X50909Y-28009D02*
X50871Y-27990D01*
X50852Y-27971D01*
X50834Y-27934D01*
X50834Y-27821D01*
X50852Y-27784D01*
X50871Y-27765D01*
X50909Y-27746D01*
X50965Y-27746D01*
X51002Y-27765D01*
X51021Y-27784D01*
X51040Y-27821D01*
X51040Y-27934D01*
X51021Y-27971D01*
X51002Y-27990D01*
X50965Y-28009D01*
X50909Y-28009D01*
X51209Y-28009D02*
X51209Y-27746D01*
X51209Y-27784D02*
X51227Y-27765D01*
X51265Y-27746D01*
X51321Y-27746D01*
X51359Y-27765D01*
X51377Y-27803D01*
X51377Y-28009D01*
X51377Y-27803D02*
X51396Y-27765D01*
X51434Y-27746D01*
X51490Y-27746D01*
X51527Y-27765D01*
X51546Y-27803D01*
X51546Y-28009D01*
X46000Y-26915D02*
X46132Y-27309D01*
X46263Y-26915D01*
X46469Y-26915D02*
X46507Y-26915D01*
X46544Y-26934D01*
X46563Y-26953D01*
X46582Y-26990D01*
X46600Y-27065D01*
X46600Y-27159D01*
X46582Y-27234D01*
X46563Y-27271D01*
X46544Y-27290D01*
X46507Y-27309D01*
X46469Y-27309D01*
X46432Y-27290D01*
X46413Y-27271D01*
X46394Y-27234D01*
X46375Y-27159D01*
X46375Y-27065D01*
X46394Y-26990D01*
X46413Y-26953D01*
X46432Y-26934D01*
X46469Y-26915D01*
X46769Y-27271D02*
X46788Y-27290D01*
X46769Y-27309D01*
X46750Y-27290D01*
X46769Y-27271D01*
X46769Y-27309D01*
X46938Y-26953D02*
X46957Y-26934D01*
X46994Y-26915D01*
X47088Y-26915D01*
X47125Y-26934D01*
X47144Y-26953D01*
X47163Y-26990D01*
X47163Y-27028D01*
X47144Y-27084D01*
X46919Y-27309D01*
X47163Y-27309D01*
X47632Y-27309D02*
X47632Y-26915D01*
X47725Y-26915D01*
X47782Y-26934D01*
X47819Y-26971D01*
X47838Y-27009D01*
X47857Y-27084D01*
X47857Y-27140D01*
X47838Y-27215D01*
X47819Y-27253D01*
X47782Y-27290D01*
X47725Y-27309D01*
X47632Y-27309D01*
X48175Y-27290D02*
X48138Y-27309D01*
X48063Y-27309D01*
X48025Y-27290D01*
X48006Y-27253D01*
X48006Y-27103D01*
X48025Y-27065D01*
X48063Y-27046D01*
X48138Y-27046D01*
X48175Y-27065D01*
X48194Y-27103D01*
X48194Y-27140D01*
X48006Y-27178D01*
X48344Y-27290D02*
X48381Y-27309D01*
X48456Y-27309D01*
X48494Y-27290D01*
X48513Y-27253D01*
X48513Y-27234D01*
X48494Y-27196D01*
X48456Y-27178D01*
X48400Y-27178D01*
X48363Y-27159D01*
X48344Y-27121D01*
X48344Y-27103D01*
X48363Y-27065D01*
X48400Y-27046D01*
X48456Y-27046D01*
X48494Y-27065D01*
X48681Y-27309D02*
X48681Y-27046D01*
X48681Y-26915D02*
X48663Y-26934D01*
X48681Y-26953D01*
X48700Y-26934D01*
X48681Y-26915D01*
X48681Y-26953D01*
X49038Y-27046D02*
X49038Y-27365D01*
X49019Y-27403D01*
X49000Y-27421D01*
X48963Y-27440D01*
X48906Y-27440D01*
X48869Y-27421D01*
X49038Y-27290D02*
X49000Y-27309D01*
X48925Y-27309D01*
X48888Y-27290D01*
X48869Y-27271D01*
X48850Y-27234D01*
X48850Y-27121D01*
X48869Y-27084D01*
X48888Y-27065D01*
X48925Y-27046D01*
X49000Y-27046D01*
X49038Y-27065D01*
X49225Y-27046D02*
X49225Y-27309D01*
X49225Y-27084D02*
X49244Y-27065D01*
X49281Y-27046D01*
X49338Y-27046D01*
X49375Y-27065D01*
X49394Y-27103D01*
X49394Y-27309D01*
X49581Y-27271D02*
X49600Y-27290D01*
X49581Y-27309D01*
X49563Y-27290D01*
X49581Y-27271D01*
X49581Y-27309D01*
X49581Y-27065D02*
X49600Y-27084D01*
X49581Y-27103D01*
X49563Y-27084D01*
X49581Y-27065D01*
X49581Y-27103D01*
X50050Y-27196D02*
X50237Y-27196D01*
X50012Y-27309D02*
X50144Y-26915D01*
X50275Y-27309D01*
X50575Y-27309D02*
X50575Y-26915D01*
X50575Y-27290D02*
X50537Y-27309D01*
X50462Y-27309D01*
X50425Y-27290D01*
X50406Y-27271D01*
X50387Y-27234D01*
X50387Y-27121D01*
X50406Y-27084D01*
X50425Y-27065D01*
X50462Y-27046D01*
X50537Y-27046D01*
X50575Y-27065D01*
X50762Y-27309D02*
X50762Y-27046D01*
X50762Y-27121D02*
X50781Y-27084D01*
X50800Y-27065D01*
X50837Y-27046D01*
X50875Y-27046D01*
X51006Y-27309D02*
X51006Y-27046D01*
X51006Y-26915D02*
X50987Y-26934D01*
X51006Y-26953D01*
X51025Y-26934D01*
X51006Y-26915D01*
X51006Y-26953D01*
X51362Y-27309D02*
X51362Y-27103D01*
X51344Y-27065D01*
X51306Y-27046D01*
X51231Y-27046D01*
X51194Y-27065D01*
X51362Y-27290D02*
X51325Y-27309D01*
X51231Y-27309D01*
X51194Y-27290D01*
X51175Y-27253D01*
X51175Y-27215D01*
X51194Y-27178D01*
X51231Y-27159D01*
X51325Y-27159D01*
X51362Y-27140D01*
X51550Y-27046D02*
X51550Y-27309D01*
X51550Y-27084D02*
X51569Y-27065D01*
X51606Y-27046D01*
X51662Y-27046D01*
X51700Y-27065D01*
X51719Y-27103D01*
X51719Y-27309D01*
X52337Y-27103D02*
X52393Y-27121D01*
X52412Y-27140D01*
X52431Y-27178D01*
X52431Y-27234D01*
X52412Y-27271D01*
X52393Y-27290D01*
X52356Y-27309D01*
X52206Y-27309D01*
X52206Y-26915D01*
X52337Y-26915D01*
X52375Y-26934D01*
X52393Y-26953D01*
X52412Y-26990D01*
X52412Y-27028D01*
X52393Y-27065D01*
X52375Y-27084D01*
X52337Y-27103D01*
X52206Y-27103D01*
X52656Y-27309D02*
X52618Y-27290D01*
X52600Y-27271D01*
X52581Y-27234D01*
X52581Y-27121D01*
X52600Y-27084D01*
X52618Y-27065D01*
X52656Y-27046D01*
X52712Y-27046D01*
X52750Y-27065D01*
X52768Y-27084D01*
X52787Y-27121D01*
X52787Y-27234D01*
X52768Y-27271D01*
X52750Y-27290D01*
X52712Y-27309D01*
X52656Y-27309D01*
X52918Y-27046D02*
X52993Y-27309D01*
X53068Y-27121D01*
X53143Y-27309D01*
X53218Y-27046D01*
X53331Y-27046D02*
X53425Y-27309D01*
X53518Y-27046D02*
X53425Y-27309D01*
X53387Y-27403D01*
X53368Y-27421D01*
X53331Y-27440D01*
X53818Y-27290D02*
X53781Y-27309D01*
X53706Y-27309D01*
X53668Y-27290D01*
X53650Y-27253D01*
X53650Y-27103D01*
X53668Y-27065D01*
X53706Y-27046D01*
X53781Y-27046D01*
X53818Y-27065D01*
X53837Y-27103D01*
X53837Y-27140D01*
X53650Y-27178D01*
X54006Y-27309D02*
X54006Y-27046D01*
X54006Y-27121D02*
X54024Y-27084D01*
X54043Y-27065D01*
X54081Y-27046D01*
X54118Y-27046D01*
X54268Y-27290D02*
X54268Y-27309D01*
X54249Y-27346D01*
X54231Y-27365D01*
X54718Y-27196D02*
X54906Y-27196D01*
X54681Y-27309D02*
X54812Y-26915D01*
X54943Y-27309D01*
X55074Y-27046D02*
X55074Y-27309D01*
X55074Y-27084D02*
X55093Y-27065D01*
X55131Y-27046D01*
X55187Y-27046D01*
X55224Y-27065D01*
X55243Y-27103D01*
X55243Y-27309D01*
X55599Y-27309D02*
X55599Y-26915D01*
X55599Y-27290D02*
X55562Y-27309D01*
X55487Y-27309D01*
X55449Y-27290D01*
X55431Y-27271D01*
X55412Y-27234D01*
X55412Y-27121D01*
X55431Y-27084D01*
X55449Y-27065D01*
X55487Y-27046D01*
X55562Y-27046D01*
X55599Y-27065D01*
X55749Y-27046D02*
X55843Y-27309D01*
X55937Y-27046D02*
X55843Y-27309D01*
X55806Y-27403D01*
X55787Y-27421D01*
X55749Y-27440D01*
X56387Y-27309D02*
X56387Y-26915D01*
X56387Y-27103D02*
X56612Y-27103D01*
X56612Y-27309D02*
X56612Y-26915D01*
X56799Y-27309D02*
X56799Y-27046D01*
X56799Y-26915D02*
X56780Y-26934D01*
X56799Y-26953D01*
X56818Y-26934D01*
X56799Y-26915D01*
X56799Y-26953D01*
X57155Y-27046D02*
X57155Y-27365D01*
X57137Y-27403D01*
X57118Y-27421D01*
X57080Y-27440D01*
X57024Y-27440D01*
X56987Y-27421D01*
X57155Y-27290D02*
X57118Y-27309D01*
X57043Y-27309D01*
X57005Y-27290D01*
X56987Y-27271D01*
X56968Y-27234D01*
X56968Y-27121D01*
X56987Y-27084D01*
X57005Y-27065D01*
X57043Y-27046D01*
X57118Y-27046D01*
X57155Y-27065D01*
X57324Y-27290D02*
X57362Y-27309D01*
X57437Y-27309D01*
X57474Y-27290D01*
X57493Y-27253D01*
X57493Y-27234D01*
X57474Y-27196D01*
X57437Y-27178D01*
X57380Y-27178D01*
X57343Y-27159D01*
X57324Y-27121D01*
X57324Y-27103D01*
X57343Y-27065D01*
X57380Y-27046D01*
X57437Y-27046D01*
X57474Y-27065D01*
X57605Y-27046D02*
X57755Y-27046D01*
X57662Y-26915D02*
X57662Y-27253D01*
X57680Y-27290D01*
X57718Y-27309D01*
X57755Y-27309D01*
X57943Y-27309D02*
X57905Y-27290D01*
X57887Y-27271D01*
X57868Y-27234D01*
X57868Y-27121D01*
X57887Y-27084D01*
X57905Y-27065D01*
X57943Y-27046D01*
X57999Y-27046D01*
X58036Y-27065D01*
X58055Y-27084D01*
X58074Y-27121D01*
X58074Y-27234D01*
X58055Y-27271D01*
X58036Y-27290D01*
X57999Y-27309D01*
X57943Y-27309D01*
X58243Y-27046D02*
X58243Y-27309D01*
X58243Y-27084D02*
X58261Y-27065D01*
X58299Y-27046D01*
X58355Y-27046D01*
X58393Y-27065D01*
X58411Y-27103D01*
X58411Y-27309D01*
X58618Y-27290D02*
X58618Y-27309D01*
X58599Y-27346D01*
X58580Y-27365D01*
X59030Y-26915D02*
X59255Y-26915D01*
X59143Y-27309D02*
X59143Y-26915D01*
X59443Y-27309D02*
X59405Y-27290D01*
X59386Y-27271D01*
X59368Y-27234D01*
X59368Y-27121D01*
X59386Y-27084D01*
X59405Y-27065D01*
X59443Y-27046D01*
X59499Y-27046D01*
X59536Y-27065D01*
X59555Y-27084D01*
X59574Y-27121D01*
X59574Y-27234D01*
X59555Y-27271D01*
X59536Y-27290D01*
X59499Y-27309D01*
X59443Y-27309D01*
X59743Y-27046D02*
X59743Y-27309D01*
X59743Y-27084D02*
X59761Y-27065D01*
X59799Y-27046D01*
X59855Y-27046D01*
X59893Y-27065D01*
X59911Y-27103D01*
X59911Y-27309D01*
X60061Y-27046D02*
X60155Y-27309D01*
X60249Y-27046D02*
X60155Y-27309D01*
X60117Y-27403D01*
X60099Y-27421D01*
X60061Y-27440D01*
X60886Y-27309D02*
X60699Y-27309D01*
X60699Y-26915D01*
X61074Y-27309D02*
X61036Y-27290D01*
X61017Y-27271D01*
X60999Y-27234D01*
X60999Y-27121D01*
X61017Y-27084D01*
X61036Y-27065D01*
X61074Y-27046D01*
X61130Y-27046D01*
X61167Y-27065D01*
X61186Y-27084D01*
X61205Y-27121D01*
X61205Y-27234D01*
X61186Y-27271D01*
X61167Y-27290D01*
X61130Y-27309D01*
X61074Y-27309D01*
X61542Y-27290D02*
X61505Y-27309D01*
X61430Y-27309D01*
X61392Y-27290D01*
X61374Y-27271D01*
X61355Y-27234D01*
X61355Y-27121D01*
X61374Y-27084D01*
X61392Y-27065D01*
X61430Y-27046D01*
X61505Y-27046D01*
X61542Y-27065D01*
X61711Y-27309D02*
X61711Y-26915D01*
X61749Y-27159D02*
X61861Y-27309D01*
X61861Y-27046D02*
X61711Y-27196D01*
G54D12*
X46034Y-26478D02*
X46034Y-25296D01*
X46316Y-25296D01*
X46484Y-25353D01*
X46597Y-25465D01*
X46653Y-25578D01*
X46709Y-25803D01*
X46709Y-25971D01*
X46653Y-26196D01*
X46597Y-26309D01*
X46484Y-26421D01*
X46316Y-26478D01*
X46034Y-26478D01*
X47722Y-25690D02*
X47722Y-26478D01*
X47216Y-25690D02*
X47216Y-26309D01*
X47272Y-26421D01*
X47384Y-26478D01*
X47553Y-26478D01*
X47666Y-26421D01*
X47722Y-26365D01*
X48734Y-26421D02*
X48622Y-26478D01*
X48397Y-26478D01*
X48284Y-26421D01*
X48228Y-26309D01*
X48228Y-25859D01*
X48284Y-25746D01*
X48397Y-25690D01*
X48622Y-25690D01*
X48734Y-25746D01*
X48790Y-25859D01*
X48790Y-25971D01*
X48228Y-26084D01*
X49128Y-25690D02*
X49578Y-25690D01*
X49297Y-25296D02*
X49297Y-26309D01*
X49353Y-26421D01*
X49465Y-26478D01*
X49578Y-26478D01*
X50815Y-26421D02*
X50984Y-26478D01*
X51265Y-26478D01*
X51378Y-26421D01*
X51434Y-26365D01*
X51490Y-26253D01*
X51490Y-26140D01*
X51434Y-26028D01*
X51378Y-25971D01*
X51265Y-25915D01*
X51040Y-25859D01*
X50928Y-25803D01*
X50871Y-25746D01*
X50815Y-25634D01*
X50815Y-25521D01*
X50871Y-25409D01*
X50928Y-25353D01*
X51040Y-25296D01*
X51321Y-25296D01*
X51490Y-25353D01*
X51996Y-26478D02*
X51996Y-25296D01*
X52502Y-26478D02*
X52502Y-25859D01*
X52446Y-25746D01*
X52334Y-25690D01*
X52165Y-25690D01*
X52052Y-25746D01*
X51996Y-25803D01*
X53065Y-26478D02*
X53065Y-25690D01*
X53065Y-25296D02*
X53009Y-25353D01*
X53065Y-25409D01*
X53121Y-25353D01*
X53065Y-25296D01*
X53065Y-25409D01*
X54077Y-26421D02*
X53965Y-26478D01*
X53740Y-26478D01*
X53627Y-26421D01*
X53571Y-26309D01*
X53571Y-25859D01*
X53627Y-25746D01*
X53740Y-25690D01*
X53965Y-25690D01*
X54077Y-25746D01*
X54133Y-25859D01*
X54133Y-25971D01*
X53571Y-26084D01*
X54808Y-26478D02*
X54696Y-26421D01*
X54640Y-26309D01*
X54640Y-25296D01*
X55765Y-26478D02*
X55765Y-25296D01*
X55765Y-26421D02*
X55652Y-26478D01*
X55427Y-26478D01*
X55315Y-26421D01*
X55258Y-26365D01*
X55202Y-26253D01*
X55202Y-25915D01*
X55258Y-25803D01*
X55315Y-25746D01*
X55427Y-25690D01*
X55652Y-25690D01*
X55765Y-25746D01*
X62685Y-32642D02*
X62485Y-32357D01*
X62342Y-32642D02*
X62342Y-32042D01*
X62571Y-32042D01*
X62628Y-32071D01*
X62657Y-32100D01*
X62685Y-32157D01*
X62685Y-32242D01*
X62657Y-32300D01*
X62628Y-32328D01*
X62571Y-32357D01*
X62342Y-32357D01*
X61335Y-32328D02*
X61421Y-32357D01*
X61450Y-32385D01*
X61478Y-32442D01*
X61478Y-32528D01*
X61450Y-32585D01*
X61421Y-32614D01*
X61364Y-32642D01*
X61135Y-32642D01*
X61135Y-32042D01*
X61335Y-32042D01*
X61392Y-32071D01*
X61421Y-32100D01*
X61450Y-32157D01*
X61450Y-32214D01*
X61421Y-32271D01*
X61392Y-32300D01*
X61335Y-32328D01*
X61135Y-32328D01*
X61821Y-32642D02*
X61764Y-32614D01*
X61735Y-32557D01*
X61735Y-32042D01*
X60657Y-32071D02*
X60600Y-32042D01*
X60514Y-32042D01*
X60428Y-32071D01*
X60371Y-32128D01*
X60342Y-32185D01*
X60314Y-32300D01*
X60314Y-32385D01*
X60342Y-32500D01*
X60371Y-32557D01*
X60428Y-32614D01*
X60514Y-32642D01*
X60571Y-32642D01*
X60657Y-32614D01*
X60685Y-32585D01*
X60685Y-32385D01*
X60571Y-32385D01*
X59400Y-32328D02*
X59485Y-32357D01*
X59514Y-32385D01*
X59542Y-32442D01*
X59542Y-32528D01*
X59514Y-32585D01*
X59485Y-32614D01*
X59428Y-32642D01*
X59200Y-32642D01*
X59200Y-32042D01*
X59400Y-32042D01*
X59457Y-32071D01*
X59485Y-32100D01*
X59514Y-32157D01*
X59514Y-32214D01*
X59485Y-32271D01*
X59457Y-32300D01*
X59400Y-32328D01*
X59200Y-32328D01*
X59800Y-32642D02*
X59800Y-32042D01*
X59857Y-32414D02*
X60028Y-32642D01*
X60028Y-32242D02*
X59800Y-32471D01*
X51485Y-32642D02*
X51285Y-32357D01*
X51142Y-32642D02*
X51142Y-32042D01*
X51371Y-32042D01*
X51428Y-32071D01*
X51457Y-32100D01*
X51485Y-32157D01*
X51485Y-32242D01*
X51457Y-32300D01*
X51428Y-32328D01*
X51371Y-32357D01*
X51142Y-32357D01*
X50135Y-32328D02*
X50221Y-32357D01*
X50250Y-32385D01*
X50278Y-32442D01*
X50278Y-32528D01*
X50250Y-32585D01*
X50221Y-32614D01*
X50164Y-32642D01*
X49935Y-32642D01*
X49935Y-32042D01*
X50135Y-32042D01*
X50192Y-32071D01*
X50221Y-32100D01*
X50250Y-32157D01*
X50250Y-32214D01*
X50221Y-32271D01*
X50192Y-32300D01*
X50135Y-32328D01*
X49935Y-32328D01*
X50621Y-32642D02*
X50564Y-32614D01*
X50535Y-32557D01*
X50535Y-32042D01*
X49457Y-32071D02*
X49400Y-32042D01*
X49314Y-32042D01*
X49228Y-32071D01*
X49171Y-32128D01*
X49142Y-32185D01*
X49114Y-32300D01*
X49114Y-32385D01*
X49142Y-32500D01*
X49171Y-32557D01*
X49228Y-32614D01*
X49314Y-32642D01*
X49371Y-32642D01*
X49457Y-32614D01*
X49485Y-32585D01*
X49485Y-32385D01*
X49371Y-32385D01*
X48200Y-32328D02*
X48285Y-32357D01*
X48314Y-32385D01*
X48342Y-32442D01*
X48342Y-32528D01*
X48314Y-32585D01*
X48285Y-32614D01*
X48228Y-32642D01*
X48000Y-32642D01*
X48000Y-32042D01*
X48200Y-32042D01*
X48257Y-32071D01*
X48285Y-32100D01*
X48314Y-32157D01*
X48314Y-32214D01*
X48285Y-32271D01*
X48257Y-32300D01*
X48200Y-32328D01*
X48000Y-32328D01*
X48600Y-32642D02*
X48600Y-32042D01*
X48657Y-32414D02*
X48828Y-32642D01*
X48828Y-32242D02*
X48600Y-32471D01*
X41792Y-43064D02*
X41507Y-43264D01*
X41792Y-43407D02*
X41192Y-43407D01*
X41192Y-43178D01*
X41221Y-43121D01*
X41250Y-43092D01*
X41307Y-43064D01*
X41392Y-43064D01*
X41450Y-43092D01*
X41478Y-43121D01*
X41507Y-43178D01*
X41507Y-43407D01*
X41428Y-44464D02*
X41457Y-44378D01*
X41485Y-44350D01*
X41542Y-44321D01*
X41628Y-44321D01*
X41685Y-44350D01*
X41714Y-44378D01*
X41742Y-44435D01*
X41742Y-44664D01*
X41142Y-44664D01*
X41142Y-44464D01*
X41171Y-44407D01*
X41200Y-44378D01*
X41257Y-44350D01*
X41314Y-44350D01*
X41371Y-44378D01*
X41400Y-44407D01*
X41428Y-44464D01*
X41428Y-44664D01*
X41742Y-43978D02*
X41714Y-44035D01*
X41657Y-44064D01*
X41142Y-44064D01*
X41171Y-45092D02*
X41142Y-45150D01*
X41142Y-45235D01*
X41171Y-45321D01*
X41228Y-45378D01*
X41285Y-45407D01*
X41400Y-45435D01*
X41485Y-45435D01*
X41600Y-45407D01*
X41657Y-45378D01*
X41714Y-45321D01*
X41742Y-45235D01*
X41742Y-45178D01*
X41714Y-45092D01*
X41685Y-45064D01*
X41485Y-45064D01*
X41485Y-45178D01*
X41428Y-46300D02*
X41457Y-46214D01*
X41485Y-46185D01*
X41542Y-46157D01*
X41628Y-46157D01*
X41685Y-46185D01*
X41714Y-46214D01*
X41742Y-46271D01*
X41742Y-46500D01*
X41142Y-46500D01*
X41142Y-46300D01*
X41171Y-46242D01*
X41200Y-46214D01*
X41257Y-46185D01*
X41314Y-46185D01*
X41371Y-46214D01*
X41400Y-46242D01*
X41428Y-46300D01*
X41428Y-46500D01*
X41742Y-45900D02*
X41142Y-45900D01*
X41514Y-45842D02*
X41742Y-45671D01*
X41342Y-45671D02*
X41571Y-45900D01*
X69871Y-52564D02*
X70328Y-52564D01*
X70100Y-52792D02*
X70100Y-52335D01*
X69871Y-49964D02*
X70328Y-49964D01*
X70100Y-50192D02*
X70100Y-49735D01*
X69821Y-51292D02*
X69792Y-51350D01*
X69792Y-51435D01*
X69821Y-51521D01*
X69878Y-51578D01*
X69935Y-51607D01*
X70050Y-51635D01*
X70135Y-51635D01*
X70250Y-51607D01*
X70307Y-51578D01*
X70364Y-51521D01*
X70392Y-51435D01*
X70392Y-51378D01*
X70364Y-51292D01*
X70335Y-51264D01*
X70135Y-51264D01*
X70135Y-51378D01*
X69871Y-48842D02*
X69842Y-48900D01*
X69842Y-48985D01*
X69871Y-49071D01*
X69928Y-49128D01*
X69985Y-49157D01*
X70100Y-49185D01*
X70185Y-49185D01*
X70300Y-49157D01*
X70357Y-49128D01*
X70414Y-49071D01*
X70442Y-48985D01*
X70442Y-48928D01*
X70414Y-48842D01*
X70385Y-48814D01*
X70185Y-48814D01*
X70185Y-48928D01*
X45100Y-23418D02*
X45699Y-23418D01*
X45400Y-23718D02*
X45400Y-23118D01*
X55006Y-24168D02*
X54931Y-24131D01*
X54818Y-24131D01*
X54706Y-24168D01*
X54631Y-24243D01*
X54593Y-24318D01*
X54556Y-24468D01*
X54556Y-24581D01*
X54593Y-24731D01*
X54631Y-24806D01*
X54706Y-24881D01*
X54818Y-24918D01*
X54893Y-24918D01*
X55006Y-24881D01*
X55043Y-24843D01*
X55043Y-24581D01*
X54893Y-24581D01*
G54D13*
X57893Y-56026D02*
X57893Y-55868D01*
X58141Y-55801D02*
X58141Y-56026D01*
X57668Y-56026D01*
X57668Y-55801D01*
X57826Y-55396D02*
X58141Y-55396D01*
X57646Y-55508D02*
X57983Y-55621D01*
X57983Y-55328D01*
X57843Y-55076D02*
X57843Y-54918D01*
X58091Y-54851D02*
X58091Y-55076D01*
X57618Y-55076D01*
X57618Y-54851D01*
X57618Y-54693D02*
X57618Y-54401D01*
X57798Y-54558D01*
X57798Y-54491D01*
X57821Y-54446D01*
X57843Y-54423D01*
X57888Y-54401D01*
X58001Y-54401D01*
X58046Y-54423D01*
X58068Y-54446D01*
X58091Y-54491D01*
X58091Y-54626D01*
X58068Y-54671D01*
X58046Y-54693D01*
X57843Y-54026D02*
X57843Y-53868D01*
X58091Y-53801D02*
X58091Y-54026D01*
X57618Y-54026D01*
X57618Y-53801D01*
X57663Y-53621D02*
X57641Y-53598D01*
X57618Y-53553D01*
X57618Y-53441D01*
X57641Y-53396D01*
X57663Y-53373D01*
X57708Y-53351D01*
X57753Y-53351D01*
X57821Y-53373D01*
X58091Y-53643D01*
X58091Y-53351D01*
X57843Y-53026D02*
X57843Y-52868D01*
X58091Y-52801D02*
X58091Y-53026D01*
X57618Y-53026D01*
X57618Y-52801D01*
X58091Y-52351D02*
X58091Y-52621D01*
X58091Y-52486D02*
X57618Y-52486D01*
X57686Y-52531D01*
X57731Y-52576D01*
X57753Y-52621D01*
G54D12*
X50364Y-52071D02*
X50392Y-51985D01*
X50392Y-51842D01*
X50364Y-51785D01*
X50335Y-51757D01*
X50278Y-51728D01*
X50221Y-51728D01*
X50164Y-51757D01*
X50135Y-51785D01*
X50107Y-51842D01*
X50078Y-51957D01*
X50050Y-52014D01*
X50021Y-52042D01*
X49964Y-52071D01*
X49907Y-52071D01*
X49850Y-52042D01*
X49821Y-52014D01*
X49792Y-51957D01*
X49792Y-51814D01*
X49821Y-51728D01*
X49842Y-54121D02*
X49842Y-53778D01*
X50442Y-53950D02*
X49842Y-53950D01*
X49871Y-54914D02*
X50328Y-54914D01*
X50100Y-55142D02*
X50100Y-54685D01*
X49821Y-52792D02*
X49792Y-52850D01*
X49792Y-52935D01*
X49821Y-53021D01*
X49878Y-53078D01*
X49935Y-53107D01*
X50050Y-53135D01*
X50135Y-53135D01*
X50250Y-53107D01*
X50307Y-53078D01*
X50364Y-53021D01*
X50392Y-52935D01*
X50392Y-52878D01*
X50364Y-52792D01*
X50335Y-52764D01*
X50135Y-52764D01*
X50135Y-52878D01*
X49942Y-57792D02*
X50257Y-57392D01*
X49942Y-57392D02*
X50257Y-57792D01*
X57621Y-58164D02*
X58078Y-58164D01*
X57850Y-58392D02*
X57850Y-57935D01*
X57621Y-57042D02*
X57592Y-57100D01*
X57592Y-57185D01*
X57621Y-57271D01*
X57678Y-57328D01*
X57735Y-57357D01*
X57850Y-57385D01*
X57935Y-57385D01*
X58050Y-57357D01*
X58107Y-57328D01*
X58164Y-57271D01*
X58192Y-57185D01*
X58192Y-57128D01*
X58164Y-57042D01*
X58135Y-57014D01*
X57935Y-57014D01*
X57935Y-57128D01*
X49771Y-56492D02*
X49742Y-56550D01*
X49742Y-56635D01*
X49771Y-56721D01*
X49828Y-56778D01*
X49885Y-56807D01*
X50000Y-56835D01*
X50085Y-56835D01*
X50200Y-56807D01*
X50257Y-56778D01*
X50314Y-56721D01*
X50342Y-56635D01*
X50342Y-56578D01*
X50314Y-56492D01*
X50285Y-56464D01*
X50085Y-56464D01*
X50085Y-56578D01*
X49871Y-58514D02*
X50328Y-58514D01*
X50100Y-58742D02*
X50100Y-58285D01*
X41364Y-59528D02*
X41364Y-59071D01*
X41221Y-58264D02*
X41678Y-58264D01*
X41450Y-58492D02*
X41450Y-58035D01*
X41814Y-47421D02*
X41842Y-47335D01*
X41842Y-47192D01*
X41814Y-47135D01*
X41785Y-47107D01*
X41728Y-47078D01*
X41671Y-47078D01*
X41614Y-47107D01*
X41585Y-47135D01*
X41557Y-47192D01*
X41528Y-47307D01*
X41500Y-47364D01*
X41471Y-47392D01*
X41414Y-47421D01*
X41357Y-47421D01*
X41300Y-47392D01*
X41271Y-47364D01*
X41242Y-47307D01*
X41242Y-47164D01*
X41271Y-47078D01*
X41221Y-48164D02*
X41678Y-48164D01*
X41450Y-48392D02*
X41450Y-47935D01*
X41271Y-49042D02*
X41242Y-49100D01*
X41242Y-49185D01*
X41271Y-49271D01*
X41328Y-49328D01*
X41385Y-49357D01*
X41500Y-49385D01*
X41585Y-49385D01*
X41700Y-49357D01*
X41757Y-49328D01*
X41814Y-49271D01*
X41842Y-49185D01*
X41842Y-49128D01*
X41814Y-49042D01*
X41785Y-49014D01*
X41585Y-49014D01*
X41585Y-49128D01*
X41292Y-55621D02*
X41292Y-55278D01*
X41892Y-55450D02*
X41292Y-55450D01*
X41292Y-56521D02*
X41292Y-56178D01*
X41892Y-56350D02*
X41292Y-56350D01*
X41292Y-52421D02*
X41892Y-52221D01*
X41292Y-52021D01*
X41664Y-51821D02*
X41664Y-51364D01*
X41242Y-54521D02*
X41842Y-54321D01*
X41242Y-54121D01*
X41614Y-53921D02*
X41614Y-53464D01*
X41842Y-53692D02*
X41385Y-53692D01*
X41900Y-52900D02*
X41900Y-53000D01*
X41150Y-52900D02*
X41900Y-52900D01*
X41900Y-54900D02*
X41900Y-55000D01*
X41050Y-54900D02*
X41900Y-54900D01*
X41850Y-46700D02*
X41850Y-46650D01*
X41100Y-46700D02*
X41850Y-46700D01*
X39000Y-32000D02*
X39000Y-32700D01*
X37100Y-31950D02*
X37100Y-32700D01*
X59000Y-32750D02*
X59050Y-32750D01*
X59000Y-32000D02*
X59000Y-32750D01*
X47800Y-32050D02*
X47800Y-32800D01*
X39050Y-20600D02*
X39050Y-21250D01*
X37100Y-20600D02*
X37100Y-21350D01*
X58328Y-32664D02*
X58414Y-32692D01*
X58557Y-32692D01*
X58614Y-32664D01*
X58642Y-32635D01*
X58671Y-32578D01*
X58671Y-32521D01*
X58642Y-32464D01*
X58614Y-32435D01*
X58557Y-32407D01*
X58442Y-32378D01*
X58385Y-32350D01*
X58357Y-32321D01*
X58328Y-32264D01*
X58328Y-32207D01*
X58357Y-32150D01*
X58385Y-32121D01*
X58442Y-32092D01*
X58585Y-32092D01*
X58671Y-32121D01*
X57221Y-32414D02*
X57678Y-32414D01*
X57450Y-32642D02*
X57450Y-32185D01*
X56557Y-32071D02*
X56500Y-32042D01*
X56414Y-32042D01*
X56328Y-32071D01*
X56271Y-32128D01*
X56242Y-32185D01*
X56214Y-32300D01*
X56214Y-32385D01*
X56242Y-32500D01*
X56271Y-32557D01*
X56328Y-32614D01*
X56414Y-32642D01*
X56471Y-32642D01*
X56557Y-32614D01*
X56585Y-32585D01*
X56585Y-32385D01*
X56471Y-32385D01*
X47128Y-32614D02*
X47214Y-32642D01*
X47357Y-32642D01*
X47414Y-32614D01*
X47442Y-32585D01*
X47471Y-32528D01*
X47471Y-32471D01*
X47442Y-32414D01*
X47414Y-32385D01*
X47357Y-32357D01*
X47242Y-32328D01*
X47185Y-32300D01*
X47157Y-32271D01*
X47128Y-32214D01*
X47128Y-32157D01*
X47157Y-32100D01*
X47185Y-32071D01*
X47242Y-32042D01*
X47385Y-32042D01*
X47471Y-32071D01*
X45507Y-32071D02*
X45450Y-32042D01*
X45364Y-32042D01*
X45278Y-32071D01*
X45221Y-32128D01*
X45192Y-32185D01*
X45164Y-32300D01*
X45164Y-32385D01*
X45192Y-32500D01*
X45221Y-32557D01*
X45278Y-32614D01*
X45364Y-32642D01*
X45421Y-32642D01*
X45507Y-32614D01*
X45535Y-32585D01*
X45535Y-32385D01*
X45421Y-32385D01*
X46021Y-32414D02*
X46478Y-32414D01*
X46250Y-32642D02*
X46250Y-32185D01*
X36428Y-31992D02*
X36771Y-31992D01*
X36600Y-32592D02*
X36600Y-31992D01*
X35478Y-32042D02*
X35821Y-32042D01*
X35650Y-32642D02*
X35650Y-32042D01*
X36328Y-20642D02*
X36671Y-20642D01*
X36500Y-21242D02*
X36500Y-20642D01*
X35478Y-20642D02*
X35821Y-20642D01*
X35650Y-21242D02*
X35650Y-20642D01*
X39328Y-32042D02*
X39528Y-32642D01*
X39728Y-32042D01*
X39928Y-32414D02*
X40385Y-32414D01*
X37578Y-32042D02*
X37778Y-32642D01*
X37978Y-32042D01*
X38178Y-32414D02*
X38635Y-32414D01*
X38407Y-32642D02*
X38407Y-32185D01*
X39478Y-20642D02*
X39678Y-21242D01*
X39878Y-20642D01*
X40078Y-21014D02*
X40535Y-21014D01*
X37528Y-20642D02*
X37728Y-21242D01*
X37928Y-20642D01*
X38128Y-21014D02*
X38585Y-21014D01*
X38357Y-21242D02*
X38357Y-20785D01*
X69907Y-44442D02*
X69621Y-44442D01*
X69592Y-44728D01*
X69621Y-44700D01*
X69678Y-44671D01*
X69821Y-44671D01*
X69878Y-44700D01*
X69907Y-44728D01*
X69935Y-44785D01*
X69935Y-44928D01*
X69907Y-44985D01*
X69878Y-45014D01*
X69821Y-45042D01*
X69678Y-45042D01*
X69621Y-45014D01*
X69592Y-44985D01*
X70307Y-44442D02*
X70364Y-44442D01*
X70421Y-44471D01*
X70450Y-44500D01*
X70478Y-44557D01*
X70507Y-44671D01*
X70507Y-44814D01*
X70478Y-44928D01*
X70450Y-44985D01*
X70421Y-45014D01*
X70364Y-45042D01*
X70307Y-45042D01*
X70250Y-45014D01*
X70221Y-44985D01*
X70192Y-44928D01*
X70164Y-44814D01*
X70164Y-44671D01*
X70192Y-44557D01*
X70221Y-44500D01*
X70250Y-44471D01*
X70307Y-44442D01*
X68171Y-19292D02*
X67828Y-19292D01*
X68000Y-19292D02*
X68000Y-18692D01*
X67942Y-18778D01*
X67885Y-18835D01*
X67828Y-18864D01*
G54D14*
X40900Y-24950D02*
X42150Y-24950D01*
X42150Y-24950D02*
X42150Y-24250D01*
X42150Y-24250D02*
X40900Y-24250D01*
X40900Y-26750D02*
X42150Y-26750D01*
X42150Y-26750D02*
X42150Y-26050D01*
X42150Y-26050D02*
X40900Y-26050D01*
X38500Y-24150D02*
X40900Y-24150D01*
X40900Y-24150D02*
X40900Y-26850D01*
X40900Y-26850D02*
X37800Y-26850D01*
X37750Y-26850D02*
X37750Y-24150D01*
X37800Y-24150D02*
X38500Y-24150D01*
X65950Y-22550D02*
X63350Y-22550D01*
X63350Y-22550D02*
X63350Y-24350D01*
X63350Y-24350D02*
X65950Y-24350D01*
X65950Y-24350D02*
X65950Y-22550D01*
X63811Y-24050D02*
G75*
G03X63811Y-24050I-111J0D01*
G74*
G01*
X43212Y-36420D02*
X44208Y-36420D01*
X43212Y-37424D02*
X44196Y-37424D01*
X43212Y-37423D02*
X43212Y-36423D01*
X44208Y-36424D02*
X44208Y-37424D01*
X40375Y-40025D02*
X40635Y-40025D01*
X40375Y-40775D02*
X40635Y-40775D01*
X39825Y-40400D02*
X39565Y-40400D01*
X39825Y-40990D02*
X39825Y-39810D01*
X39825Y-39810D02*
X40375Y-39810D01*
X40375Y-39810D02*
X40375Y-40990D01*
X40375Y-40990D02*
X39825Y-40990D01*
X43925Y-25375D02*
X44185Y-25375D01*
X43925Y-26125D02*
X44185Y-26125D01*
X43375Y-25750D02*
X43115Y-25750D01*
X43375Y-26340D02*
X43375Y-25160D01*
X43375Y-25160D02*
X43925Y-25160D01*
X43925Y-25160D02*
X43925Y-26340D01*
X43925Y-26340D02*
X43375Y-26340D01*
X50550Y-49900D02*
X51550Y-49900D01*
X51550Y-49200D02*
X50550Y-49200D01*
X51550Y-49200D02*
X51550Y-49900D01*
X50550Y-49900D02*
X50550Y-49200D01*
X62500Y-48400D02*
X61500Y-48400D01*
X61500Y-49100D02*
X62500Y-49100D01*
X61500Y-49100D02*
X61500Y-48400D01*
X62500Y-48400D02*
X62500Y-49100D01*
X62500Y-49400D02*
X61500Y-49400D01*
X61500Y-50100D02*
X62500Y-50100D01*
X61500Y-50100D02*
X61500Y-49400D01*
X62500Y-49400D02*
X62500Y-50100D01*
X50550Y-50800D02*
X51550Y-50800D01*
X51550Y-50100D02*
X50550Y-50100D01*
X51550Y-50100D02*
X51550Y-50800D01*
X50550Y-50800D02*
X50550Y-50100D01*
X46450Y-39200D02*
X46450Y-38200D01*
X45750Y-38200D02*
X45750Y-39200D01*
X45750Y-38200D02*
X46450Y-38200D01*
X46450Y-39200D02*
X45750Y-39200D01*
X64550Y-38100D02*
X64550Y-39100D01*
X65250Y-39100D02*
X65250Y-38100D01*
X65250Y-39100D02*
X64550Y-39100D01*
X64550Y-38100D02*
X65250Y-38100D01*
X60650Y-38150D02*
X60650Y-39150D01*
X61350Y-39150D02*
X61350Y-38150D01*
X61350Y-39150D02*
X60650Y-39150D01*
X60650Y-38150D02*
X61350Y-38150D01*
X60650Y-35550D02*
X60650Y-36550D01*
X61350Y-36550D02*
X61350Y-35550D01*
X61350Y-36550D02*
X60650Y-36550D01*
X60650Y-35550D02*
X61350Y-35550D01*
X56850Y-38100D02*
X56850Y-39100D01*
X57550Y-39100D02*
X57550Y-38100D01*
X57550Y-39100D02*
X56850Y-39100D01*
X56850Y-38100D02*
X57550Y-38100D01*
X54050Y-39200D02*
X54050Y-38200D01*
X53350Y-38200D02*
X53350Y-39200D01*
X53350Y-38200D02*
X54050Y-38200D01*
X54050Y-39200D02*
X53350Y-39200D01*
X50250Y-39200D02*
X50250Y-38200D01*
X49550Y-38200D02*
X49550Y-39200D01*
X49550Y-38200D02*
X50250Y-38200D01*
X50250Y-39200D02*
X49550Y-39200D01*
X50250Y-36600D02*
X50250Y-35600D01*
X49550Y-35600D02*
X49550Y-36600D01*
X49550Y-35600D02*
X50250Y-35600D01*
X50250Y-36600D02*
X49550Y-36600D01*
G54D15*
X53104Y-42481D02*
X53104Y-43819D01*
X53104Y-43819D02*
X52396Y-43819D01*
X52396Y-43819D02*
X52396Y-42481D01*
X52396Y-42481D02*
X53104Y-42481D01*
X47404Y-42481D02*
X47404Y-43819D01*
X47404Y-43819D02*
X46696Y-43819D01*
X46696Y-43819D02*
X46696Y-42481D01*
X46696Y-42481D02*
X47404Y-42481D01*
X63954Y-42881D02*
X63954Y-44219D01*
X63954Y-44219D02*
X63246Y-44219D01*
X63246Y-44219D02*
X63246Y-42881D01*
X63246Y-42881D02*
X63954Y-42881D01*
X58754Y-42531D02*
X58754Y-43869D01*
X58754Y-43869D02*
X58046Y-43869D01*
X58046Y-43869D02*
X58046Y-42531D01*
X58046Y-42531D02*
X58754Y-42531D01*
X54656Y-32113D02*
X55344Y-32113D01*
X55344Y-32113D02*
X55344Y-32487D01*
X55344Y-32487D02*
X54656Y-32487D01*
X54656Y-32487D02*
X54656Y-32113D01*
X47594Y-48837D02*
X46906Y-48837D01*
X46906Y-48837D02*
X46906Y-48463D01*
X46906Y-48463D02*
X47594Y-48463D01*
X47594Y-48463D02*
X47594Y-48837D01*
X43456Y-32213D02*
X44144Y-32213D01*
X44144Y-32213D02*
X44144Y-32587D01*
X44144Y-32587D02*
X43456Y-32587D01*
X43456Y-32587D02*
X43456Y-32213D01*
X64256Y-21163D02*
X64944Y-21163D01*
X64944Y-21163D02*
X64944Y-21537D01*
X64944Y-21537D02*
X64256Y-21537D01*
X64256Y-21537D02*
X64256Y-21163D01*
X41994Y-27537D02*
X41306Y-27537D01*
X41306Y-27537D02*
X41306Y-27163D01*
X41306Y-27163D02*
X41994Y-27163D01*
X41994Y-27163D02*
X41994Y-27537D01*
X35413Y-25644D02*
X35413Y-24956D01*
X35413Y-24956D02*
X35787Y-24956D01*
X35787Y-24956D02*
X35787Y-25644D01*
X35787Y-25644D02*
X35413Y-25644D01*
X35413Y-37044D02*
X35413Y-36356D01*
X35413Y-36356D02*
X35787Y-36356D01*
X35787Y-36356D02*
X35787Y-37044D01*
X35787Y-37044D02*
X35413Y-37044D01*
X37337Y-25856D02*
X37337Y-26544D01*
X37337Y-26544D02*
X36963Y-26544D01*
X36963Y-26544D02*
X36963Y-25856D01*
X36963Y-25856D02*
X37337Y-25856D01*
X38187Y-36356D02*
X38187Y-37044D01*
X38187Y-37044D02*
X37813Y-37044D01*
X37813Y-37044D02*
X37813Y-36356D01*
X37813Y-36356D02*
X38187Y-36356D01*
X38713Y-41844D02*
X38713Y-41156D01*
X38713Y-41156D02*
X39087Y-41156D01*
X39087Y-41156D02*
X39087Y-41844D01*
X39087Y-41844D02*
X38713Y-41844D01*
X44387Y-26906D02*
X44387Y-27594D01*
X44387Y-27594D02*
X44013Y-27594D01*
X44013Y-27594D02*
X44013Y-26906D01*
X44013Y-26906D02*
X44387Y-26906D01*
X41256Y-40513D02*
X41944Y-40513D01*
X41944Y-40513D02*
X41944Y-40887D01*
X41944Y-40887D02*
X41256Y-40887D01*
X41256Y-40887D02*
X41256Y-40513D01*
X38713Y-40344D02*
X38713Y-39656D01*
X38713Y-39656D02*
X39087Y-39656D01*
X39087Y-39656D02*
X39087Y-40344D01*
X39087Y-40344D02*
X38713Y-40344D01*
X58944Y-48737D02*
X58256Y-48737D01*
X58256Y-48737D02*
X58256Y-48363D01*
X58256Y-48363D02*
X58944Y-48363D01*
X58944Y-48363D02*
X58944Y-48737D01*
X58256Y-49013D02*
X58944Y-49013D01*
X58944Y-49013D02*
X58944Y-49387D01*
X58944Y-49387D02*
X58256Y-49387D01*
X58256Y-49387D02*
X58256Y-49013D01*
X56906Y-45713D02*
X57594Y-45713D01*
X57594Y-45713D02*
X57594Y-46087D01*
X57594Y-46087D02*
X56906Y-46087D01*
X56906Y-46087D02*
X56906Y-45713D01*
X45013Y-47444D02*
X45013Y-46756D01*
X45013Y-46756D02*
X45387Y-46756D01*
X45387Y-46756D02*
X45387Y-47444D01*
X45387Y-47444D02*
X45013Y-47444D01*
X46906Y-49213D02*
X47594Y-49213D01*
X47594Y-49213D02*
X47594Y-49587D01*
X47594Y-49587D02*
X46906Y-49587D01*
X46906Y-49587D02*
X46906Y-49213D01*
X43294Y-27537D02*
X42606Y-27537D01*
X42606Y-27537D02*
X42606Y-27163D01*
X42606Y-27163D02*
X43294Y-27163D01*
X43294Y-27163D02*
X43294Y-27537D01*
X44387Y-34556D02*
X44387Y-35244D01*
X44387Y-35244D02*
X44013Y-35244D01*
X44013Y-35244D02*
X44013Y-34556D01*
X44013Y-34556D02*
X44387Y-34556D01*
X55687Y-34356D02*
X55687Y-35044D01*
X55687Y-35044D02*
X55313Y-35044D01*
X55313Y-35044D02*
X55313Y-34356D01*
X55313Y-34356D02*
X55687Y-34356D01*
X63163Y-26544D02*
X63163Y-25856D01*
X63163Y-25856D02*
X63537Y-25856D01*
X63537Y-25856D02*
X63537Y-26544D01*
X63537Y-26544D02*
X63163Y-26544D01*
G54D16*
X41820Y-42609D02*
X41820Y-49791D01*
X41820Y-49791D02*
X39380Y-49791D01*
G54D17*
X39380Y-49791D02*
X39380Y-42609D01*
X39380Y-42609D02*
X41820Y-42609D01*
G54D16*
X41100Y-43700D02*
X40100Y-43700D01*
X41100Y-42700D02*
X41100Y-49700D01*
X41100Y-49700D02*
X40100Y-49700D01*
X40100Y-49700D02*
X40100Y-42700D01*
X40100Y-42700D02*
X41100Y-42700D01*
X34049Y-42722D02*
X34049Y-49904D01*
X34049Y-49904D02*
X31609Y-49904D01*
G54D17*
X31609Y-49904D02*
X31609Y-42722D01*
X31609Y-42722D02*
X34049Y-42722D01*
G54D16*
X33329Y-43813D02*
X32329Y-43813D01*
X33329Y-42813D02*
X33329Y-49813D01*
X33329Y-49813D02*
X32329Y-49813D01*
X32329Y-49813D02*
X32329Y-42813D01*
X32329Y-42813D02*
X33329Y-42813D01*
X63091Y-34420D02*
X55909Y-34420D01*
X55909Y-34420D02*
X55909Y-31980D01*
G54D17*
X55909Y-31980D02*
X63091Y-31980D01*
X63091Y-31980D02*
X63091Y-34420D01*
G54D16*
X62000Y-33700D02*
X62000Y-32700D01*
X63000Y-33700D02*
X56000Y-33700D01*
X56000Y-33700D02*
X56000Y-32700D01*
X56000Y-32700D02*
X63000Y-32700D01*
X63000Y-32700D02*
X63000Y-33700D01*
X51891Y-34420D02*
X44709Y-34420D01*
X44709Y-34420D02*
X44709Y-31980D01*
G54D17*
X44709Y-31980D02*
X51891Y-31980D01*
X51891Y-31980D02*
X51891Y-34420D01*
G54D16*
X50800Y-33700D02*
X50800Y-32700D01*
X51800Y-33700D02*
X44800Y-33700D01*
X44800Y-33700D02*
X44800Y-32700D01*
X44800Y-32700D02*
X51800Y-32700D01*
X51800Y-32700D02*
X51800Y-33700D01*
G54D14*
X41100Y-20550D02*
X35100Y-20550D01*
X41100Y-21300D02*
X35100Y-21300D01*
X41100Y-22300D02*
X35100Y-22300D01*
X41100Y-23050D02*
X35100Y-23050D01*
G54D16*
X35009Y-23020D02*
X35009Y-20580D01*
G54D17*
X41191Y-20580D02*
X41191Y-23020D01*
G54D16*
X40100Y-22300D02*
X40100Y-21300D01*
X35100Y-22300D02*
X35100Y-21300D01*
X41100Y-21300D02*
X41100Y-22300D01*
G54D17*
X58220Y-52109D02*
X58220Y-56291D01*
X58220Y-56291D02*
X55780Y-56291D01*
X55780Y-56291D02*
X55780Y-52109D01*
X55780Y-52109D02*
X58220Y-52109D01*
G54D18*
X56500Y-56200D02*
X56500Y-52200D01*
X57500Y-56200D02*
X57500Y-52200D01*
X57500Y-52200D02*
X56500Y-52200D01*
X56500Y-56200D02*
X57500Y-56200D01*
G54D17*
X50420Y-51309D02*
X50420Y-55491D01*
X50420Y-55491D02*
X47980Y-55491D01*
X47980Y-55491D02*
X47980Y-51309D01*
X47980Y-51309D02*
X50420Y-51309D01*
G54D18*
X48700Y-55400D02*
X48700Y-51400D01*
X49700Y-55400D02*
X49700Y-51400D01*
X49700Y-51400D02*
X48700Y-51400D01*
X48700Y-55400D02*
X49700Y-55400D01*
G54D17*
X34049Y-57722D02*
X34049Y-59904D01*
X34049Y-59904D02*
X31609Y-59904D01*
X31609Y-59904D02*
X31609Y-57722D01*
X31609Y-57722D02*
X34049Y-57722D01*
G54D16*
X32329Y-57813D02*
X33329Y-57813D01*
X33329Y-57813D02*
X33329Y-59813D01*
X33329Y-59813D02*
X32329Y-59813D01*
X32329Y-59813D02*
X32329Y-57813D01*
G54D17*
X58220Y-56609D02*
X58220Y-58791D01*
X58220Y-58791D02*
X55780Y-58791D01*
X55780Y-58791D02*
X55780Y-56609D01*
X55780Y-56609D02*
X58220Y-56609D01*
G54D16*
X56500Y-56700D02*
X57500Y-56700D01*
X57500Y-56700D02*
X57500Y-58700D01*
X57500Y-58700D02*
X56500Y-58700D01*
X56500Y-58700D02*
X56500Y-56700D01*
G54D17*
X70420Y-50809D02*
X70420Y-52991D01*
X70420Y-52991D02*
X67980Y-52991D01*
X67980Y-52991D02*
X67980Y-50809D01*
X67980Y-50809D02*
X70420Y-50809D01*
G54D16*
X68700Y-50900D02*
X69700Y-50900D01*
X69700Y-50900D02*
X69700Y-52900D01*
X69700Y-52900D02*
X68700Y-52900D01*
X68700Y-52900D02*
X68700Y-50900D01*
G54D17*
X70420Y-48409D02*
X70420Y-50591D01*
X70420Y-50591D02*
X67980Y-50591D01*
X67980Y-50591D02*
X67980Y-48409D01*
X67980Y-48409D02*
X70420Y-48409D01*
G54D16*
X68700Y-48500D02*
X69700Y-48500D01*
X69700Y-48500D02*
X69700Y-50500D01*
X69700Y-50500D02*
X68700Y-50500D01*
X68700Y-50500D02*
X68700Y-48500D01*
G54D19*
X68374Y-19139D02*
X70374Y-19139D01*
X70374Y-19139D02*
X70374Y-44139D01*
X70374Y-44139D02*
X68374Y-44139D01*
X68374Y-44139D02*
X68374Y-19139D01*
G54D20*
X38236Y-35103D02*
X37764Y-35103D01*
G54D14*
X38250Y-34850D02*
X38250Y-35750D01*
X38250Y-35750D02*
X37750Y-35750D01*
X37750Y-35750D02*
X37750Y-34850D01*
X37750Y-34850D02*
X38250Y-34850D01*
G54D20*
X37386Y-24603D02*
X36914Y-24603D01*
G54D14*
X37400Y-24350D02*
X37400Y-25250D01*
X37400Y-25250D02*
X36900Y-25250D01*
X36900Y-25250D02*
X36900Y-24350D01*
X36900Y-24350D02*
X37400Y-24350D01*
G54D20*
X44436Y-33403D02*
X43964Y-33403D01*
G54D14*
X44450Y-33150D02*
X44450Y-34050D01*
X44450Y-34050D02*
X43950Y-34050D01*
X43950Y-34050D02*
X43950Y-33150D01*
X43950Y-33150D02*
X44450Y-33150D01*
G54D20*
X55736Y-33203D02*
X55264Y-33203D01*
G54D14*
X55750Y-32950D02*
X55750Y-33850D01*
X55750Y-33850D02*
X55250Y-33850D01*
X55250Y-33850D02*
X55250Y-32950D01*
X55250Y-32950D02*
X55750Y-32950D01*
X40350Y-37900D02*
X40350Y-39150D01*
X40350Y-39150D02*
X41050Y-39150D01*
X41050Y-39150D02*
X41050Y-37900D01*
X38550Y-37900D02*
X38550Y-39150D01*
X38550Y-39150D02*
X39250Y-39150D01*
X39250Y-39150D02*
X39250Y-37900D01*
X41150Y-35500D02*
X41150Y-37900D01*
X41150Y-37900D02*
X38450Y-37900D01*
X38450Y-37900D02*
X38450Y-34800D01*
X38450Y-34750D02*
X41150Y-34750D01*
X41150Y-34800D02*
X41150Y-35500D01*
G54D19*
X61700Y-39125D02*
X61700Y-35575D01*
X61700Y-39125D02*
X64100Y-39125D01*
X61700Y-35575D02*
X64100Y-35575D01*
X64100Y-35575D02*
X64100Y-39125D01*
X57900Y-39125D02*
X57900Y-35575D01*
X57900Y-39125D02*
X60300Y-39125D01*
X57900Y-35575D02*
X60300Y-35575D01*
X60300Y-35575D02*
X60300Y-39125D01*
X46800Y-39175D02*
X46800Y-35625D01*
X46800Y-39175D02*
X49200Y-39175D01*
X46800Y-35625D02*
X49200Y-35625D01*
X49200Y-35625D02*
X49200Y-39175D01*
X50600Y-39175D02*
X50600Y-35625D01*
X50600Y-39175D02*
X53000Y-39175D01*
X50600Y-35625D02*
X53000Y-35625D01*
X53000Y-35625D02*
X53000Y-39175D01*
G54D14*
X48600Y-22050D02*
X48600Y-21450D01*
X48550Y-21300D02*
X48550Y-22200D01*
X48500Y-22300D02*
X48500Y-21200D01*
X48450Y-21100D02*
X48450Y-22400D01*
X48400Y-22450D02*
X48400Y-21050D01*
X48650Y-21750D02*
G75*
G03X48650Y-21750I-1200J0D01*
G74*
G01*
X48750Y-23050D02*
X48750Y-20450D01*
X48750Y-20450D02*
X46450Y-20450D01*
X46450Y-20450D02*
X46150Y-20750D01*
X46150Y-20750D02*
X46150Y-22750D01*
X46150Y-22750D02*
X46450Y-23050D01*
X46450Y-23050D02*
X48750Y-23050D01*
X46600Y-21750D02*
X46900Y-21750D01*
X46750Y-21900D02*
X46750Y-21600D01*
X44200Y-42200D02*
X43600Y-42200D01*
X43450Y-42250D02*
X44350Y-42250D01*
X44450Y-42300D02*
X43350Y-42300D01*
X43250Y-42350D02*
X44550Y-42350D01*
X44600Y-42400D02*
X43200Y-42400D01*
X45100Y-43350D02*
G75*
G03X45100Y-43350I-1200J0D01*
G74*
G01*
X45200Y-42050D02*
X42600Y-42050D01*
X42600Y-42050D02*
X42600Y-44350D01*
X42600Y-44350D02*
X42900Y-44650D01*
X42900Y-44650D02*
X44900Y-44650D01*
X44900Y-44650D02*
X45200Y-44350D01*
X45200Y-44350D02*
X45200Y-42050D01*
X43900Y-44200D02*
X43900Y-43900D01*
X44050Y-44050D02*
X43750Y-44050D01*
X55650Y-42150D02*
X55050Y-42150D01*
X54900Y-42200D02*
X55800Y-42200D01*
X55900Y-42250D02*
X54800Y-42250D01*
X54700Y-42300D02*
X56000Y-42300D01*
X56050Y-42350D02*
X54650Y-42350D01*
X56550Y-43300D02*
G75*
G03X56550Y-43300I-1200J0D01*
G74*
G01*
X56650Y-42000D02*
X54050Y-42000D01*
X54050Y-42000D02*
X54050Y-44300D01*
X54050Y-44300D02*
X54350Y-44600D01*
X54350Y-44600D02*
X56350Y-44600D01*
X56350Y-44600D02*
X56650Y-44300D01*
X56650Y-44300D02*
X56650Y-42000D01*
X55350Y-44150D02*
X55350Y-43850D01*
X55500Y-44000D02*
X55200Y-44000D01*
X35300Y-41050D02*
X35900Y-41050D01*
X36050Y-41000D02*
X35150Y-41000D01*
X35050Y-40950D02*
X36150Y-40950D01*
X36250Y-40900D02*
X34950Y-40900D01*
X34900Y-40850D02*
X36300Y-40850D01*
X36800Y-39900D02*
G75*
G03X36800Y-39900I-1200J0D01*
G74*
G01*
X34300Y-41200D02*
X36900Y-41200D01*
X36900Y-41200D02*
X36900Y-38900D01*
X36900Y-38900D02*
X36600Y-38600D01*
X36600Y-38600D02*
X34600Y-38600D01*
X34600Y-38600D02*
X34300Y-38900D01*
X34300Y-38900D02*
X34300Y-41200D01*
X35600Y-39050D02*
X35600Y-39350D01*
X35450Y-39200D02*
X35750Y-39200D01*
X35850Y-24150D02*
X35350Y-24150D01*
X35850Y-23650D02*
X35360Y-23650D01*
X35850Y-23500D02*
X35850Y-24300D01*
X35850Y-24300D02*
X35350Y-24300D01*
X35350Y-24300D02*
X35350Y-23500D01*
X35350Y-23500D02*
X35850Y-23500D01*
X35850Y-35550D02*
X35350Y-35550D01*
X35850Y-35050D02*
X35360Y-35050D01*
X35850Y-34900D02*
X35850Y-35700D01*
X35850Y-35700D02*
X35350Y-35700D01*
X35350Y-35700D02*
X35350Y-34900D01*
X35350Y-34900D02*
X35850Y-34900D01*
X45960Y-43830D02*
X45640Y-43830D01*
X45650Y-44270D02*
X45960Y-44270D01*
X45640Y-44370D02*
X45640Y-43730D01*
X45640Y-43730D02*
X45960Y-43730D01*
X45960Y-43730D02*
X45960Y-44370D01*
X45960Y-44370D02*
X45640Y-44370D01*
X57410Y-43880D02*
X57090Y-43880D01*
X57100Y-44320D02*
X57410Y-44320D01*
X57090Y-44420D02*
X57090Y-43780D01*
X57090Y-43780D02*
X57410Y-43780D01*
X57410Y-43780D02*
X57410Y-44420D01*
X57410Y-44420D02*
X57090Y-44420D01*
X52310Y-47530D02*
X51990Y-47530D01*
X52000Y-47970D02*
X52310Y-47970D01*
X51990Y-48070D02*
X51990Y-47430D01*
X51990Y-47430D02*
X52310Y-47430D01*
X52310Y-47430D02*
X52310Y-48070D01*
X52310Y-48070D02*
X51990Y-48070D01*
X62960Y-47330D02*
X62640Y-47330D01*
X62650Y-47770D02*
X62960Y-47770D01*
X62640Y-47870D02*
X62640Y-47230D01*
X62640Y-47230D02*
X62960Y-47230D01*
X62960Y-47230D02*
X62960Y-47870D01*
X62960Y-47870D02*
X62640Y-47870D01*
X54860Y-33180D02*
X54540Y-33180D01*
X54550Y-33620D02*
X54860Y-33620D01*
X54540Y-33720D02*
X54540Y-33080D01*
X54540Y-33080D02*
X54860Y-33080D01*
X54860Y-33080D02*
X54860Y-33720D01*
X54860Y-33720D02*
X54540Y-33720D01*
X43560Y-33380D02*
X43240Y-33380D01*
X43250Y-33820D02*
X43560Y-33820D01*
X43240Y-33920D02*
X43240Y-33280D01*
X43240Y-33280D02*
X43560Y-33280D01*
X43560Y-33280D02*
X43560Y-33920D01*
X43560Y-33920D02*
X43240Y-33920D01*
X65890Y-26420D02*
X66210Y-26420D01*
X66200Y-25980D02*
X65890Y-25980D01*
X66210Y-25880D02*
X66210Y-26520D01*
X66210Y-26520D02*
X65890Y-26520D01*
X65890Y-26520D02*
X65890Y-25880D01*
X65890Y-25880D02*
X66210Y-25880D01*
X52890Y-48620D02*
X53210Y-48620D01*
X53200Y-48180D02*
X52890Y-48180D01*
X53210Y-48080D02*
X53210Y-48720D01*
X53210Y-48720D02*
X52890Y-48720D01*
X52890Y-48720D02*
X52890Y-48080D01*
X52890Y-48080D02*
X53210Y-48080D01*
X58820Y-48010D02*
X58820Y-47690D01*
X58380Y-47700D02*
X58380Y-48010D01*
X58280Y-47690D02*
X58920Y-47690D01*
X58920Y-47690D02*
X58920Y-48010D01*
X58920Y-48010D02*
X58280Y-48010D01*
X58280Y-48010D02*
X58280Y-47690D01*
X58820Y-47310D02*
X58820Y-46990D01*
X58380Y-47000D02*
X58380Y-47310D01*
X58280Y-46990D02*
X58920Y-46990D01*
X58920Y-46990D02*
X58920Y-47310D01*
X58920Y-47310D02*
X58280Y-47310D01*
X58280Y-47310D02*
X58280Y-46990D01*
X63440Y-48370D02*
X63760Y-48370D01*
X63750Y-47930D02*
X63440Y-47930D01*
X63760Y-47830D02*
X63760Y-48470D01*
X63760Y-48470D02*
X63440Y-48470D01*
X63440Y-48470D02*
X63440Y-47830D01*
X63440Y-47830D02*
X63760Y-47830D01*
X47470Y-47210D02*
X47470Y-46890D01*
X47030Y-46900D02*
X47030Y-47210D01*
X46930Y-46890D02*
X47570Y-46890D01*
X47570Y-46890D02*
X47570Y-47210D01*
X47570Y-47210D02*
X46930Y-47210D01*
X46930Y-47210D02*
X46930Y-46890D01*
X47470Y-48010D02*
X47470Y-47690D01*
X47030Y-47700D02*
X47030Y-48010D01*
X46930Y-47690D02*
X47570Y-47690D01*
X47570Y-47690D02*
X47570Y-48010D01*
X47570Y-48010D02*
X46930Y-48010D01*
X46930Y-48010D02*
X46930Y-47690D01*
G54D17*
X34049Y-50722D02*
X34049Y-54904D01*
X34049Y-54904D02*
X31609Y-54904D01*
X31609Y-54904D02*
X31609Y-50722D01*
X31609Y-50722D02*
X34049Y-50722D01*
G54D18*
X32329Y-54813D02*
X32329Y-50813D01*
X33329Y-54813D02*
X33329Y-50813D01*
X33329Y-50813D02*
X32329Y-50813D01*
X32329Y-54813D02*
X33329Y-54813D01*
G54D17*
X31609Y-56904D02*
X31609Y-54722D01*
X31609Y-54722D02*
X34049Y-54722D01*
X34049Y-54722D02*
X34049Y-56904D01*
X34049Y-56904D02*
X31609Y-56904D01*
G54D16*
X33329Y-56813D02*
X32329Y-56813D01*
X32329Y-56813D02*
X32329Y-54813D01*
X32329Y-54813D02*
X33329Y-54813D01*
X33329Y-54813D02*
X33329Y-56813D01*
G54D14*
X41100Y-31950D02*
X35100Y-31950D01*
X41100Y-32700D02*
X35100Y-32700D01*
X41100Y-33700D02*
X35100Y-33700D01*
X41100Y-34450D02*
X35100Y-34450D01*
G54D16*
X35009Y-34420D02*
X35009Y-31980D01*
G54D17*
X41191Y-31980D02*
X41191Y-34420D01*
G54D16*
X40100Y-33700D02*
X40100Y-32700D01*
X35100Y-33700D02*
X35100Y-32700D01*
X41100Y-32700D02*
X41100Y-33700D01*
G54D14*
X39350Y-50900D02*
X39350Y-56900D01*
X40100Y-50900D02*
X40100Y-56900D01*
X41100Y-50900D02*
X41100Y-56900D01*
X41850Y-50900D02*
X41850Y-56900D01*
G54D16*
X41820Y-56991D02*
X39380Y-56991D01*
G54D17*
X39380Y-50809D02*
X41820Y-50809D01*
G54D16*
X41100Y-51900D02*
X40100Y-51900D01*
X41100Y-56900D02*
X40100Y-56900D01*
X40100Y-50900D02*
X41100Y-50900D01*
G54D17*
X47980Y-59191D02*
X47980Y-56009D01*
X47980Y-56009D02*
X50420Y-56009D01*
X50420Y-56009D02*
X50420Y-59191D01*
X50420Y-59191D02*
X47980Y-59191D01*
G54D16*
X49700Y-59100D02*
X48700Y-59100D01*
X48700Y-59100D02*
X48700Y-56100D01*
X48700Y-56100D02*
X49700Y-56100D01*
X49700Y-56100D02*
X49700Y-59100D01*
X48700Y-58100D02*
X49700Y-58100D01*
G54D17*
X39380Y-59891D02*
X39380Y-57709D01*
X39380Y-57709D02*
X41820Y-57709D01*
X41820Y-57709D02*
X41820Y-59891D01*
X41820Y-59891D02*
X39380Y-59891D01*
G54D16*
X41100Y-59800D02*
X40100Y-59800D01*
X40100Y-59800D02*
X40100Y-57800D01*
X40100Y-57800D02*
X41100Y-57800D01*
X41100Y-57800D02*
X41100Y-59800D01*
G54D12*
X44950Y-16400D02*
X41950Y-16400D01*
X41950Y-16400D02*
X41950Y-23800D01*
X41950Y-23800D02*
X44950Y-23800D01*
X44950Y-23800D02*
X44950Y-16400D01*
X56500Y-16350D02*
X53500Y-16350D01*
X53500Y-16350D02*
X53500Y-23750D01*
X53500Y-23750D02*
X56500Y-23750D01*
X56500Y-23750D02*
X56500Y-16350D01*
G54D14*
X57040Y-36620D02*
X57360Y-36620D01*
X57350Y-36180D02*
X57040Y-36180D01*
X57360Y-36080D02*
X57360Y-36720D01*
X57360Y-36720D02*
X57040Y-36720D01*
X57040Y-36720D02*
X57040Y-36080D01*
X57040Y-36080D02*
X57360Y-36080D01*
X60420Y-35060D02*
X60420Y-34740D01*
X59980Y-34750D02*
X59980Y-35060D01*
X59880Y-34740D02*
X60520Y-34740D01*
X60520Y-34740D02*
X60520Y-35060D01*
X60520Y-35060D02*
X59880Y-35060D01*
X59880Y-35060D02*
X59880Y-34740D01*
X62020Y-35060D02*
X62020Y-34740D01*
X61580Y-34750D02*
X61580Y-35060D01*
X61480Y-34740D02*
X62120Y-34740D01*
X62120Y-34740D02*
X62120Y-35060D01*
X62120Y-35060D02*
X61480Y-35060D01*
X61480Y-35060D02*
X61480Y-34740D01*
X65060Y-36130D02*
X64740Y-36130D01*
X64750Y-36570D02*
X65060Y-36570D01*
X64740Y-36670D02*
X64740Y-36030D01*
X64740Y-36030D02*
X65060Y-36030D01*
X65060Y-36030D02*
X65060Y-36670D01*
X65060Y-36670D02*
X64740Y-36670D01*
X45840Y-36670D02*
X46160Y-36670D01*
X46150Y-36230D02*
X45840Y-36230D01*
X46160Y-36130D02*
X46160Y-36770D01*
X46160Y-36770D02*
X45840Y-36770D01*
X45840Y-36770D02*
X45840Y-36130D01*
X45840Y-36130D02*
X46160Y-36130D01*
X49220Y-35060D02*
X49220Y-34740D01*
X48780Y-34750D02*
X48780Y-35060D01*
X48680Y-34740D02*
X49320Y-34740D01*
X49320Y-34740D02*
X49320Y-35060D01*
X49320Y-35060D02*
X48680Y-35060D01*
X48680Y-35060D02*
X48680Y-34740D01*
X50920Y-35060D02*
X50920Y-34740D01*
X50480Y-34750D02*
X50480Y-35060D01*
X50380Y-34740D02*
X51020Y-34740D01*
X51020Y-34740D02*
X51020Y-35060D01*
X51020Y-35060D02*
X50380Y-35060D01*
X50380Y-35060D02*
X50380Y-34740D01*
X53860Y-36230D02*
X53540Y-36230D01*
X53550Y-36670D02*
X53860Y-36670D01*
X53540Y-36770D02*
X53540Y-36130D01*
X53540Y-36130D02*
X53860Y-36130D01*
X53860Y-36130D02*
X53860Y-36770D01*
X53860Y-36770D02*
X53540Y-36770D01*
X47030Y-46090D02*
X47030Y-46410D01*
X47470Y-46400D02*
X47470Y-46090D01*
X47570Y-46410D02*
X46930Y-46410D01*
X46930Y-46410D02*
X46930Y-46090D01*
X46930Y-46090D02*
X47570Y-46090D01*
X47570Y-46090D02*
X47570Y-46410D01*
X58380Y-46290D02*
X58380Y-46610D01*
X58820Y-46600D02*
X58820Y-46290D01*
X58920Y-46610D02*
X58280Y-46610D01*
X58280Y-46610D02*
X58280Y-46290D01*
X58280Y-46290D02*
X58920Y-46290D01*
X58920Y-46290D02*
X58920Y-46610D01*
X37760Y-39780D02*
X37440Y-39780D01*
X37450Y-40220D02*
X37760Y-40220D01*
X37440Y-40320D02*
X37440Y-39680D01*
X37440Y-39680D02*
X37760Y-39680D01*
X37760Y-39680D02*
X37760Y-40320D01*
X37760Y-40320D02*
X37440Y-40320D01*
X44620Y-24660D02*
X44620Y-24340D01*
X44180Y-24350D02*
X44180Y-24660D01*
X44080Y-24340D02*
X44720Y-24340D01*
X44720Y-24340D02*
X44720Y-24660D01*
X44720Y-24660D02*
X44080Y-24660D01*
X44080Y-24660D02*
X44080Y-24340D01*
X51300Y-43350D02*
X48200Y-43350D01*
X48200Y-43350D02*
X48200Y-45150D01*
X48200Y-45150D02*
X51300Y-45150D01*
X51300Y-45150D02*
X51300Y-43350D01*
X48611Y-44850D02*
G75*
G03X48611Y-44850I-111J0D01*
G74*
G01*
X62450Y-43300D02*
X59350Y-43300D01*
X59350Y-43300D02*
X59350Y-45100D01*
X59350Y-45100D02*
X62450Y-45100D01*
X62450Y-45100D02*
X62450Y-43300D01*
X59761Y-44800D02*
G75*
G03X59761Y-44800I-111J0D01*
G74*
G01*
G54D21*
X37993Y-26004D02*
X37993Y-25776D01*
X38493Y-25890D02*
X37993Y-25890D01*
X38493Y-25414D02*
X38255Y-25547D01*
X38493Y-25642D02*
X37993Y-25642D01*
X37993Y-25490D01*
X38017Y-25452D01*
X38041Y-25433D01*
X38088Y-25414D01*
X38160Y-25414D01*
X38207Y-25433D01*
X38231Y-25452D01*
X38255Y-25490D01*
X38255Y-25642D01*
X38041Y-25261D02*
X38017Y-25242D01*
X37993Y-25204D01*
X37993Y-25109D01*
X38017Y-25071D01*
X38041Y-25052D01*
X38088Y-25033D01*
X38136Y-25033D01*
X38207Y-25052D01*
X38493Y-25280D01*
X38493Y-25033D01*
X39870Y-27223D02*
X39470Y-27223D01*
X39870Y-27033D02*
X39470Y-27033D01*
X39470Y-26880D01*
X39489Y-26842D01*
X39509Y-26823D01*
X39547Y-26804D01*
X39604Y-26804D01*
X39642Y-26823D01*
X39661Y-26842D01*
X39680Y-26880D01*
X39680Y-27033D01*
X39870Y-26633D02*
X39470Y-26633D01*
X39470Y-26538D01*
X39489Y-26480D01*
X39528Y-26442D01*
X39566Y-26423D01*
X39642Y-26404D01*
X39699Y-26404D01*
X39775Y-26423D01*
X39813Y-26442D01*
X39851Y-26480D01*
X39870Y-26538D01*
X39870Y-26633D01*
X39470Y-26157D02*
X39470Y-26119D01*
X39489Y-26080D01*
X39509Y-26061D01*
X39547Y-26042D01*
X39623Y-26023D01*
X39718Y-26023D01*
X39794Y-26042D01*
X39832Y-26061D01*
X39851Y-26080D01*
X39870Y-26119D01*
X39870Y-26157D01*
X39851Y-26195D01*
X39832Y-26214D01*
X39794Y-26233D01*
X39718Y-26252D01*
X39623Y-26252D01*
X39547Y-26233D01*
X39509Y-26214D01*
X39489Y-26195D01*
X39470Y-26157D01*
X39470Y-25890D02*
X39470Y-25642D01*
X39623Y-25776D01*
X39623Y-25719D01*
X39642Y-25680D01*
X39661Y-25661D01*
X39699Y-25642D01*
X39794Y-25642D01*
X39832Y-25661D01*
X39851Y-25680D01*
X39870Y-25719D01*
X39870Y-25833D01*
X39851Y-25871D01*
X39832Y-25890D01*
X39470Y-25300D02*
X39470Y-25376D01*
X39489Y-25414D01*
X39509Y-25433D01*
X39566Y-25471D01*
X39642Y-25490D01*
X39794Y-25490D01*
X39832Y-25471D01*
X39851Y-25452D01*
X39870Y-25414D01*
X39870Y-25338D01*
X39851Y-25300D01*
X39832Y-25280D01*
X39794Y-25261D01*
X39699Y-25261D01*
X39661Y-25280D01*
X39642Y-25300D01*
X39623Y-25338D01*
X39623Y-25414D01*
X39642Y-25452D01*
X39661Y-25471D01*
X39699Y-25490D01*
X39870Y-25090D02*
X39470Y-25090D01*
X39870Y-24861D01*
X39470Y-24861D01*
X39470Y-24595D02*
X39470Y-24557D01*
X39489Y-24519D01*
X39509Y-24500D01*
X39547Y-24480D01*
X39623Y-24461D01*
X39718Y-24461D01*
X39794Y-24480D01*
X39832Y-24500D01*
X39851Y-24519D01*
X39870Y-24557D01*
X39870Y-24595D01*
X39851Y-24633D01*
X39832Y-24652D01*
X39794Y-24671D01*
X39718Y-24690D01*
X39623Y-24690D01*
X39547Y-24671D01*
X39509Y-24652D01*
X39489Y-24633D01*
X39470Y-24595D01*
X39604Y-24119D02*
X39870Y-24119D01*
X39451Y-24214D02*
X39737Y-24309D01*
X39737Y-24061D01*
X39870Y-23719D02*
X39870Y-23909D01*
X39470Y-23909D01*
G54D17*
X51958Y-46009D02*
X51958Y-46178D01*
X51947Y-46211D01*
X51925Y-46234D01*
X51891Y-46245D01*
X51869Y-46245D01*
X52194Y-46245D02*
X52060Y-46245D01*
X52127Y-46245D02*
X52127Y-46009D01*
X52105Y-46043D01*
X52082Y-46065D01*
X52060Y-46076D01*
X52273Y-46009D02*
X52430Y-46009D01*
X52329Y-46245D01*
X62721Y-45965D02*
X62721Y-46134D01*
X62710Y-46167D01*
X62687Y-46190D01*
X62653Y-46201D01*
X62631Y-46201D01*
X62811Y-45965D02*
X62957Y-45965D01*
X62878Y-46055D01*
X62912Y-46055D01*
X62934Y-46066D01*
X62946Y-46077D01*
X62957Y-46100D01*
X62957Y-46156D01*
X62946Y-46179D01*
X62934Y-46190D01*
X62912Y-46201D01*
X62844Y-46201D01*
X62822Y-46190D01*
X62811Y-46179D01*
G54D20*
X64499Y-23532D02*
X64499Y-23692D01*
X64509Y-23710D01*
X64518Y-23720D01*
X64537Y-23729D01*
X64574Y-23729D01*
X64593Y-23720D01*
X64603Y-23710D01*
X64612Y-23692D01*
X64612Y-23532D01*
X64715Y-23729D02*
X64753Y-23729D01*
X64771Y-23720D01*
X64781Y-23710D01*
X64800Y-23682D01*
X64809Y-23645D01*
X64809Y-23570D01*
X64800Y-23551D01*
X64790Y-23542D01*
X64771Y-23532D01*
X64734Y-23532D01*
X64715Y-23542D01*
X64706Y-23551D01*
X64696Y-23570D01*
X64696Y-23617D01*
X64706Y-23635D01*
X64715Y-23645D01*
X64734Y-23654D01*
X64771Y-23654D01*
X64790Y-23645D01*
X64800Y-23635D01*
X64809Y-23617D01*
X64012Y-23079D02*
X64012Y-22882D01*
X64077Y-23023D01*
X64143Y-22882D01*
X64143Y-23079D01*
X64349Y-23060D02*
X64340Y-23070D01*
X64312Y-23079D01*
X64293Y-23079D01*
X64265Y-23070D01*
X64246Y-23051D01*
X64237Y-23032D01*
X64227Y-22995D01*
X64227Y-22967D01*
X64237Y-22929D01*
X64246Y-22910D01*
X64265Y-22892D01*
X64293Y-22882D01*
X64312Y-22882D01*
X64340Y-22892D01*
X64349Y-22901D01*
X64434Y-23079D02*
X64434Y-22882D01*
X64509Y-22882D01*
X64528Y-22892D01*
X64537Y-22901D01*
X64546Y-22920D01*
X64546Y-22948D01*
X64537Y-22967D01*
X64528Y-22976D01*
X64509Y-22985D01*
X64434Y-22985D01*
X64715Y-22948D02*
X64715Y-23079D01*
X64668Y-22873D02*
X64621Y-23014D01*
X64743Y-23014D01*
X64903Y-22948D02*
X64903Y-23079D01*
X64856Y-22873D02*
X64809Y-23014D01*
X64931Y-23014D01*
X64987Y-22882D02*
X65119Y-23079D01*
X65119Y-22882D02*
X64987Y-23079D01*
X65297Y-23079D02*
X65184Y-23079D01*
X65241Y-23079D02*
X65241Y-22882D01*
X65222Y-22910D01*
X65203Y-22929D01*
X65184Y-22939D01*
X44006Y-37327D02*
X44118Y-37327D01*
X44141Y-37334D01*
X44156Y-37349D01*
X44163Y-37371D01*
X44163Y-37386D01*
X44021Y-37259D02*
X44014Y-37252D01*
X44006Y-37237D01*
X44006Y-37200D01*
X44014Y-37185D01*
X44021Y-37177D01*
X44036Y-37170D01*
X44051Y-37170D01*
X44073Y-37177D01*
X44163Y-37267D01*
X44163Y-37170D01*
X44006Y-37117D02*
X44006Y-37013D01*
X44163Y-37080D01*
G54D16*
X43468Y-35973D02*
X43639Y-35973D01*
X43554Y-36273D02*
X43554Y-35973D01*
X43739Y-36273D02*
X43739Y-35973D01*
X43854Y-35973D01*
X43882Y-35987D01*
X43896Y-36002D01*
X43911Y-36030D01*
X43911Y-36073D01*
X43896Y-36102D01*
X43882Y-36116D01*
X43854Y-36130D01*
X43739Y-36130D01*
G54D20*
X39852Y-40638D02*
X39852Y-40526D01*
X40049Y-40582D02*
X39852Y-40582D01*
X40049Y-40347D02*
X39955Y-40413D01*
X40049Y-40460D02*
X39852Y-40460D01*
X39852Y-40385D01*
X39862Y-40366D01*
X39871Y-40357D01*
X39890Y-40347D01*
X39918Y-40347D01*
X39937Y-40357D01*
X39946Y-40366D01*
X39955Y-40385D01*
X39955Y-40460D01*
X39852Y-40282D02*
X39852Y-40160D01*
X39927Y-40225D01*
X39927Y-40197D01*
X39937Y-40178D01*
X39946Y-40169D01*
X39965Y-40160D01*
X40012Y-40160D01*
X40030Y-40169D01*
X40040Y-40178D01*
X40049Y-40197D01*
X40049Y-40253D01*
X40040Y-40272D01*
X40030Y-40282D01*
X43402Y-25988D02*
X43402Y-25876D01*
X43599Y-25932D02*
X43402Y-25932D01*
X43599Y-25697D02*
X43505Y-25763D01*
X43599Y-25810D02*
X43402Y-25810D01*
X43402Y-25735D01*
X43412Y-25716D01*
X43421Y-25707D01*
X43440Y-25697D01*
X43468Y-25697D01*
X43487Y-25707D01*
X43496Y-25716D01*
X43505Y-25735D01*
X43505Y-25810D01*
X43599Y-25510D02*
X43599Y-25622D01*
X43599Y-25566D02*
X43402Y-25566D01*
X43430Y-25585D01*
X43449Y-25603D01*
X43459Y-25622D01*
G54D14*
X50764Y-49471D02*
X50764Y-49171D01*
X50864Y-49385D01*
X50964Y-49171D01*
X50964Y-49471D01*
X51092Y-49457D02*
X51135Y-49471D01*
X51207Y-49471D01*
X51235Y-49457D01*
X51250Y-49442D01*
X51264Y-49414D01*
X51264Y-49385D01*
X51250Y-49357D01*
X51235Y-49342D01*
X51207Y-49328D01*
X51150Y-49314D01*
X51121Y-49300D01*
X51107Y-49285D01*
X51092Y-49257D01*
X51092Y-49228D01*
X51107Y-49200D01*
X51121Y-49185D01*
X51150Y-49171D01*
X51221Y-49171D01*
X51264Y-49185D01*
X51378Y-49200D02*
X51392Y-49185D01*
X51421Y-49171D01*
X51492Y-49171D01*
X51521Y-49185D01*
X51535Y-49200D01*
X51550Y-49228D01*
X51550Y-49257D01*
X51535Y-49300D01*
X51364Y-49471D01*
X51550Y-49471D01*
X61614Y-48871D02*
X61614Y-48571D01*
X61714Y-48785D01*
X61814Y-48571D01*
X61814Y-48871D01*
X61942Y-48857D02*
X61985Y-48871D01*
X62057Y-48871D01*
X62085Y-48857D01*
X62100Y-48842D01*
X62114Y-48814D01*
X62114Y-48785D01*
X62100Y-48757D01*
X62085Y-48742D01*
X62057Y-48728D01*
X62000Y-48714D01*
X61971Y-48700D01*
X61957Y-48685D01*
X61942Y-48657D01*
X61942Y-48628D01*
X61957Y-48600D01*
X61971Y-48585D01*
X62000Y-48571D01*
X62071Y-48571D01*
X62114Y-48585D01*
X62228Y-48600D02*
X62242Y-48585D01*
X62271Y-48571D01*
X62342Y-48571D01*
X62371Y-48585D01*
X62385Y-48600D01*
X62400Y-48628D01*
X62400Y-48657D01*
X62385Y-48700D01*
X62214Y-48871D01*
X62400Y-48871D01*
X61614Y-50071D02*
X61614Y-49771D01*
X61714Y-49985D01*
X61814Y-49771D01*
X61814Y-50071D01*
X61942Y-50057D02*
X61985Y-50071D01*
X62057Y-50071D01*
X62085Y-50057D01*
X62100Y-50042D01*
X62114Y-50014D01*
X62114Y-49985D01*
X62100Y-49957D01*
X62085Y-49942D01*
X62057Y-49928D01*
X62000Y-49914D01*
X61971Y-49900D01*
X61957Y-49885D01*
X61942Y-49857D01*
X61942Y-49828D01*
X61957Y-49800D01*
X61971Y-49785D01*
X62000Y-49771D01*
X62071Y-49771D01*
X62114Y-49785D01*
X62400Y-50071D02*
X62228Y-50071D01*
X62314Y-50071D02*
X62314Y-49771D01*
X62285Y-49814D01*
X62257Y-49842D01*
X62228Y-49857D01*
X50664Y-50571D02*
X50664Y-50271D01*
X50764Y-50485D01*
X50864Y-50271D01*
X50864Y-50571D01*
X50992Y-50557D02*
X51035Y-50571D01*
X51107Y-50571D01*
X51135Y-50557D01*
X51150Y-50542D01*
X51164Y-50514D01*
X51164Y-50485D01*
X51150Y-50457D01*
X51135Y-50442D01*
X51107Y-50428D01*
X51050Y-50414D01*
X51021Y-50400D01*
X51007Y-50385D01*
X50992Y-50357D01*
X50992Y-50328D01*
X51007Y-50300D01*
X51021Y-50285D01*
X51050Y-50271D01*
X51121Y-50271D01*
X51164Y-50285D01*
X51450Y-50571D02*
X51278Y-50571D01*
X51364Y-50571D02*
X51364Y-50271D01*
X51335Y-50314D01*
X51307Y-50342D01*
X51278Y-50357D01*
X46421Y-39085D02*
X46121Y-39085D01*
X46335Y-38985D01*
X46121Y-38885D01*
X46421Y-38885D01*
X46407Y-38757D02*
X46421Y-38714D01*
X46421Y-38642D01*
X46407Y-38614D01*
X46392Y-38599D01*
X46364Y-38585D01*
X46335Y-38585D01*
X46307Y-38599D01*
X46292Y-38614D01*
X46278Y-38642D01*
X46264Y-38699D01*
X46250Y-38728D01*
X46235Y-38742D01*
X46207Y-38757D01*
X46178Y-38757D01*
X46150Y-38742D01*
X46135Y-38728D01*
X46121Y-38699D01*
X46121Y-38628D01*
X46135Y-38585D01*
X46421Y-38300D02*
X46421Y-38471D01*
X46421Y-38385D02*
X46121Y-38385D01*
X46164Y-38414D01*
X46192Y-38442D01*
X46207Y-38471D01*
X65221Y-38985D02*
X64921Y-38985D01*
X65135Y-38885D01*
X64921Y-38785D01*
X65221Y-38785D01*
X65207Y-38657D02*
X65221Y-38614D01*
X65221Y-38542D01*
X65207Y-38514D01*
X65192Y-38499D01*
X65164Y-38485D01*
X65135Y-38485D01*
X65107Y-38499D01*
X65092Y-38514D01*
X65078Y-38542D01*
X65064Y-38599D01*
X65050Y-38628D01*
X65035Y-38642D01*
X65007Y-38657D01*
X64978Y-38657D01*
X64950Y-38642D01*
X64935Y-38628D01*
X64921Y-38599D01*
X64921Y-38528D01*
X64935Y-38485D01*
X65221Y-38200D02*
X65221Y-38371D01*
X65221Y-38285D02*
X64921Y-38285D01*
X64964Y-38314D01*
X64992Y-38342D01*
X65007Y-38371D01*
X61221Y-39035D02*
X60921Y-39035D01*
X61135Y-38935D01*
X60921Y-38835D01*
X61221Y-38835D01*
X61207Y-38707D02*
X61221Y-38664D01*
X61221Y-38592D01*
X61207Y-38564D01*
X61192Y-38549D01*
X61164Y-38535D01*
X61135Y-38535D01*
X61107Y-38549D01*
X61092Y-38564D01*
X61078Y-38592D01*
X61064Y-38649D01*
X61050Y-38678D01*
X61035Y-38692D01*
X61007Y-38707D01*
X60978Y-38707D01*
X60950Y-38692D01*
X60935Y-38678D01*
X60921Y-38649D01*
X60921Y-38578D01*
X60935Y-38535D01*
X61221Y-38250D02*
X61221Y-38421D01*
X61221Y-38335D02*
X60921Y-38335D01*
X60964Y-38364D01*
X60992Y-38392D01*
X61007Y-38421D01*
X61321Y-36335D02*
X61021Y-36335D01*
X61235Y-36235D01*
X61021Y-36135D01*
X61321Y-36135D01*
X61307Y-36007D02*
X61321Y-35964D01*
X61321Y-35892D01*
X61307Y-35864D01*
X61292Y-35849D01*
X61264Y-35835D01*
X61235Y-35835D01*
X61207Y-35849D01*
X61192Y-35864D01*
X61178Y-35892D01*
X61164Y-35949D01*
X61150Y-35978D01*
X61135Y-35992D01*
X61107Y-36007D01*
X61078Y-36007D01*
X61050Y-35992D01*
X61035Y-35978D01*
X61021Y-35949D01*
X61021Y-35878D01*
X61035Y-35835D01*
X61321Y-35550D02*
X61321Y-35721D01*
X61321Y-35635D02*
X61021Y-35635D01*
X61064Y-35664D01*
X61092Y-35692D01*
X61107Y-35721D01*
X57521Y-38985D02*
X57221Y-38985D01*
X57435Y-38885D01*
X57221Y-38785D01*
X57521Y-38785D01*
X57507Y-38657D02*
X57521Y-38614D01*
X57521Y-38542D01*
X57507Y-38514D01*
X57492Y-38499D01*
X57464Y-38485D01*
X57435Y-38485D01*
X57407Y-38499D01*
X57392Y-38514D01*
X57378Y-38542D01*
X57364Y-38599D01*
X57350Y-38628D01*
X57335Y-38642D01*
X57307Y-38657D01*
X57278Y-38657D01*
X57250Y-38642D01*
X57235Y-38628D01*
X57221Y-38599D01*
X57221Y-38528D01*
X57235Y-38485D01*
X57521Y-38200D02*
X57521Y-38371D01*
X57521Y-38285D02*
X57221Y-38285D01*
X57264Y-38314D01*
X57292Y-38342D01*
X57307Y-38371D01*
X54021Y-39085D02*
X53721Y-39085D01*
X53935Y-38985D01*
X53721Y-38885D01*
X54021Y-38885D01*
X54007Y-38757D02*
X54021Y-38714D01*
X54021Y-38642D01*
X54007Y-38614D01*
X53992Y-38599D01*
X53964Y-38585D01*
X53935Y-38585D01*
X53907Y-38599D01*
X53892Y-38614D01*
X53878Y-38642D01*
X53864Y-38699D01*
X53850Y-38728D01*
X53835Y-38742D01*
X53807Y-38757D01*
X53778Y-38757D01*
X53750Y-38742D01*
X53735Y-38728D01*
X53721Y-38699D01*
X53721Y-38628D01*
X53735Y-38585D01*
X54021Y-38300D02*
X54021Y-38471D01*
X54021Y-38385D02*
X53721Y-38385D01*
X53764Y-38414D01*
X53792Y-38442D01*
X53807Y-38471D01*
X50221Y-39085D02*
X49921Y-39085D01*
X50135Y-38985D01*
X49921Y-38885D01*
X50221Y-38885D01*
X50207Y-38757D02*
X50221Y-38714D01*
X50221Y-38642D01*
X50207Y-38614D01*
X50192Y-38599D01*
X50164Y-38585D01*
X50135Y-38585D01*
X50107Y-38599D01*
X50092Y-38614D01*
X50078Y-38642D01*
X50064Y-38699D01*
X50050Y-38728D01*
X50035Y-38742D01*
X50007Y-38757D01*
X49978Y-38757D01*
X49950Y-38742D01*
X49935Y-38728D01*
X49921Y-38699D01*
X49921Y-38628D01*
X49935Y-38585D01*
X50221Y-38300D02*
X50221Y-38471D01*
X50221Y-38385D02*
X49921Y-38385D01*
X49964Y-38414D01*
X49992Y-38442D01*
X50007Y-38471D01*
X50221Y-36485D02*
X49921Y-36485D01*
X50135Y-36385D01*
X49921Y-36285D01*
X50221Y-36285D01*
X50207Y-36157D02*
X50221Y-36114D01*
X50221Y-36042D01*
X50207Y-36014D01*
X50192Y-35999D01*
X50164Y-35985D01*
X50135Y-35985D01*
X50107Y-35999D01*
X50092Y-36014D01*
X50078Y-36042D01*
X50064Y-36099D01*
X50050Y-36128D01*
X50035Y-36142D01*
X50007Y-36157D01*
X49978Y-36157D01*
X49950Y-36142D01*
X49935Y-36128D01*
X49921Y-36099D01*
X49921Y-36028D01*
X49935Y-35985D01*
X50221Y-35700D02*
X50221Y-35871D01*
X50221Y-35785D02*
X49921Y-35785D01*
X49964Y-35814D01*
X49992Y-35842D01*
X50007Y-35871D01*
G54D20*
X53010Y-43250D02*
X52935Y-43303D01*
X53010Y-43340D02*
X52853Y-43340D01*
X52853Y-43280D01*
X52861Y-43265D01*
X52868Y-43258D01*
X52883Y-43250D01*
X52905Y-43250D01*
X52920Y-43258D01*
X52928Y-43265D01*
X52935Y-43280D01*
X52935Y-43340D01*
X52905Y-43116D02*
X53010Y-43116D01*
X52846Y-43153D02*
X52958Y-43191D01*
X52958Y-43093D01*
X52853Y-42966D02*
X52853Y-42996D01*
X52861Y-43011D01*
X52868Y-43019D01*
X52890Y-43034D01*
X52920Y-43041D01*
X52980Y-43041D01*
X52995Y-43034D01*
X53003Y-43026D01*
X53010Y-43011D01*
X53010Y-42981D01*
X53003Y-42966D01*
X52995Y-42959D01*
X52980Y-42951D01*
X52943Y-42951D01*
X52928Y-42959D01*
X52920Y-42966D01*
X52913Y-42981D01*
X52913Y-43011D01*
X52920Y-43026D01*
X52928Y-43034D01*
X52943Y-43041D01*
X47310Y-43250D02*
X47235Y-43303D01*
X47310Y-43340D02*
X47153Y-43340D01*
X47153Y-43280D01*
X47161Y-43265D01*
X47168Y-43258D01*
X47183Y-43250D01*
X47205Y-43250D01*
X47220Y-43258D01*
X47228Y-43265D01*
X47235Y-43280D01*
X47235Y-43340D01*
X47205Y-43116D02*
X47310Y-43116D01*
X47146Y-43153D02*
X47258Y-43191D01*
X47258Y-43093D01*
X47205Y-42966D02*
X47310Y-42966D01*
X47146Y-43004D02*
X47258Y-43041D01*
X47258Y-42944D01*
X63860Y-43650D02*
X63785Y-43703D01*
X63860Y-43740D02*
X63703Y-43740D01*
X63703Y-43680D01*
X63711Y-43665D01*
X63718Y-43658D01*
X63733Y-43650D01*
X63755Y-43650D01*
X63770Y-43658D01*
X63778Y-43665D01*
X63785Y-43680D01*
X63785Y-43740D01*
X63703Y-43598D02*
X63703Y-43501D01*
X63763Y-43553D01*
X63763Y-43531D01*
X63770Y-43516D01*
X63778Y-43508D01*
X63793Y-43501D01*
X63830Y-43501D01*
X63845Y-43508D01*
X63853Y-43516D01*
X63860Y-43531D01*
X63860Y-43576D01*
X63853Y-43591D01*
X63845Y-43598D01*
X63755Y-43366D02*
X63860Y-43366D01*
X63696Y-43404D02*
X63808Y-43441D01*
X63808Y-43344D01*
X58660Y-43300D02*
X58585Y-43353D01*
X58660Y-43390D02*
X58503Y-43390D01*
X58503Y-43330D01*
X58511Y-43315D01*
X58518Y-43308D01*
X58533Y-43300D01*
X58555Y-43300D01*
X58570Y-43308D01*
X58578Y-43315D01*
X58585Y-43330D01*
X58585Y-43390D01*
X58503Y-43248D02*
X58503Y-43151D01*
X58563Y-43203D01*
X58563Y-43181D01*
X58570Y-43166D01*
X58578Y-43158D01*
X58593Y-43151D01*
X58630Y-43151D01*
X58645Y-43158D01*
X58653Y-43166D01*
X58660Y-43181D01*
X58660Y-43226D01*
X58653Y-43241D01*
X58645Y-43248D01*
X58518Y-43091D02*
X58511Y-43084D01*
X58503Y-43069D01*
X58503Y-43031D01*
X58511Y-43016D01*
X58518Y-43009D01*
X58533Y-43001D01*
X58548Y-43001D01*
X58570Y-43009D01*
X58660Y-43099D01*
X58660Y-43001D01*
G54D22*
X54949Y-32233D02*
X54922Y-32196D01*
X54904Y-32233D02*
X54904Y-32154D01*
X54934Y-32154D01*
X54941Y-32158D01*
X54945Y-32162D01*
X54949Y-32170D01*
X54949Y-32181D01*
X54945Y-32188D01*
X54941Y-32192D01*
X54934Y-32196D01*
X54904Y-32196D01*
X55020Y-32154D02*
X54983Y-32154D01*
X54979Y-32192D01*
X54983Y-32188D01*
X54990Y-32185D01*
X55009Y-32185D01*
X55016Y-32188D01*
X55020Y-32192D01*
X55024Y-32200D01*
X55024Y-32218D01*
X55020Y-32226D01*
X55016Y-32230D01*
X55009Y-32233D01*
X54990Y-32233D01*
X54983Y-32230D01*
X54979Y-32226D01*
X55092Y-32154D02*
X55077Y-32154D01*
X55069Y-32158D01*
X55065Y-32162D01*
X55058Y-32173D01*
X55054Y-32188D01*
X55054Y-32218D01*
X55058Y-32226D01*
X55062Y-32230D01*
X55069Y-32233D01*
X55084Y-32233D01*
X55092Y-32230D01*
X55095Y-32226D01*
X55099Y-32218D01*
X55099Y-32200D01*
X55095Y-32192D01*
X55092Y-32188D01*
X55084Y-32185D01*
X55069Y-32185D01*
X55062Y-32188D01*
X55058Y-32192D01*
X55054Y-32200D01*
G54D23*
G54D22*
X47199Y-48779D02*
X47172Y-48742D01*
X47154Y-48779D02*
X47154Y-48700D01*
X47184Y-48700D01*
X47191Y-48704D01*
X47195Y-48708D01*
X47199Y-48716D01*
X47199Y-48727D01*
X47195Y-48734D01*
X47191Y-48738D01*
X47184Y-48742D01*
X47154Y-48742D01*
X47266Y-48727D02*
X47266Y-48779D01*
X47248Y-48697D02*
X47229Y-48753D01*
X47278Y-48753D01*
X47304Y-48708D02*
X47308Y-48704D01*
X47315Y-48700D01*
X47334Y-48700D01*
X47342Y-48704D01*
X47345Y-48708D01*
X47349Y-48716D01*
X47349Y-48723D01*
X47345Y-48734D01*
X47300Y-48779D01*
X47349Y-48779D01*
G54D23*
G54D22*
X43749Y-32333D02*
X43722Y-32296D01*
X43704Y-32333D02*
X43704Y-32254D01*
X43734Y-32254D01*
X43741Y-32258D01*
X43745Y-32262D01*
X43749Y-32270D01*
X43749Y-32281D01*
X43745Y-32288D01*
X43741Y-32292D01*
X43734Y-32296D01*
X43704Y-32296D01*
X43820Y-32254D02*
X43783Y-32254D01*
X43779Y-32292D01*
X43783Y-32288D01*
X43790Y-32285D01*
X43809Y-32285D01*
X43816Y-32288D01*
X43820Y-32292D01*
X43824Y-32300D01*
X43824Y-32318D01*
X43820Y-32326D01*
X43816Y-32330D01*
X43809Y-32333D01*
X43790Y-32333D01*
X43783Y-32330D01*
X43779Y-32326D01*
X43850Y-32254D02*
X43903Y-32254D01*
X43869Y-32333D01*
G54D23*
G54D22*
X64549Y-21283D02*
X64522Y-21246D01*
X64504Y-21283D02*
X64504Y-21204D01*
X64534Y-21204D01*
X64541Y-21208D01*
X64545Y-21212D01*
X64549Y-21220D01*
X64549Y-21231D01*
X64545Y-21238D01*
X64541Y-21242D01*
X64534Y-21246D01*
X64504Y-21246D01*
X64616Y-21204D02*
X64601Y-21204D01*
X64594Y-21208D01*
X64590Y-21212D01*
X64583Y-21223D01*
X64579Y-21238D01*
X64579Y-21268D01*
X64583Y-21276D01*
X64586Y-21280D01*
X64594Y-21283D01*
X64609Y-21283D01*
X64616Y-21280D01*
X64620Y-21276D01*
X64624Y-21268D01*
X64624Y-21250D01*
X64620Y-21242D01*
X64616Y-21238D01*
X64609Y-21235D01*
X64594Y-21235D01*
X64586Y-21238D01*
X64583Y-21242D01*
X64579Y-21250D01*
X64692Y-21204D02*
X64677Y-21204D01*
X64669Y-21208D01*
X64665Y-21212D01*
X64658Y-21223D01*
X64654Y-21238D01*
X64654Y-21268D01*
X64658Y-21276D01*
X64662Y-21280D01*
X64669Y-21283D01*
X64684Y-21283D01*
X64692Y-21280D01*
X64695Y-21276D01*
X64699Y-21268D01*
X64699Y-21250D01*
X64695Y-21242D01*
X64692Y-21238D01*
X64684Y-21235D01*
X64669Y-21235D01*
X64662Y-21238D01*
X64658Y-21242D01*
X64654Y-21250D01*
G54D23*
G54D22*
X41599Y-27479D02*
X41572Y-27442D01*
X41554Y-27479D02*
X41554Y-27400D01*
X41584Y-27400D01*
X41591Y-27404D01*
X41595Y-27408D01*
X41599Y-27416D01*
X41599Y-27427D01*
X41595Y-27434D01*
X41591Y-27438D01*
X41584Y-27442D01*
X41554Y-27442D01*
X41629Y-27408D02*
X41633Y-27404D01*
X41640Y-27400D01*
X41659Y-27400D01*
X41666Y-27404D01*
X41670Y-27408D01*
X41674Y-27416D01*
X41674Y-27423D01*
X41670Y-27434D01*
X41625Y-27479D01*
X41674Y-27479D01*
X41723Y-27400D02*
X41730Y-27400D01*
X41738Y-27404D01*
X41742Y-27408D01*
X41745Y-27416D01*
X41749Y-27431D01*
X41749Y-27449D01*
X41745Y-27464D01*
X41742Y-27472D01*
X41738Y-27476D01*
X41730Y-27479D01*
X41723Y-27479D01*
X41715Y-27476D01*
X41712Y-27472D01*
X41708Y-27464D01*
X41704Y-27449D01*
X41704Y-27431D01*
X41708Y-27416D01*
X41712Y-27408D01*
X41715Y-27404D01*
X41723Y-27400D01*
G54D23*
G54D22*
X35533Y-25350D02*
X35496Y-25377D01*
X35533Y-25395D02*
X35454Y-25395D01*
X35454Y-25365D01*
X35458Y-25358D01*
X35462Y-25354D01*
X35470Y-25350D01*
X35481Y-25350D01*
X35488Y-25354D01*
X35492Y-25358D01*
X35496Y-25365D01*
X35496Y-25395D01*
X35533Y-25275D02*
X35533Y-25320D01*
X35533Y-25298D02*
X35454Y-25298D01*
X35466Y-25305D01*
X35473Y-25313D01*
X35477Y-25320D01*
X35533Y-25237D02*
X35533Y-25222D01*
X35530Y-25215D01*
X35526Y-25211D01*
X35515Y-25204D01*
X35500Y-25200D01*
X35470Y-25200D01*
X35462Y-25204D01*
X35458Y-25207D01*
X35454Y-25215D01*
X35454Y-25230D01*
X35458Y-25237D01*
X35462Y-25241D01*
X35470Y-25245D01*
X35488Y-25245D01*
X35496Y-25241D01*
X35500Y-25237D01*
X35503Y-25230D01*
X35503Y-25215D01*
X35500Y-25207D01*
X35496Y-25204D01*
X35488Y-25200D01*
G54D23*
G54D22*
X35533Y-36750D02*
X35496Y-36777D01*
X35533Y-36795D02*
X35454Y-36795D01*
X35454Y-36765D01*
X35458Y-36758D01*
X35462Y-36754D01*
X35470Y-36750D01*
X35481Y-36750D01*
X35488Y-36754D01*
X35492Y-36758D01*
X35496Y-36765D01*
X35496Y-36795D01*
X35462Y-36720D02*
X35458Y-36716D01*
X35454Y-36709D01*
X35454Y-36690D01*
X35458Y-36683D01*
X35462Y-36679D01*
X35470Y-36675D01*
X35477Y-36675D01*
X35488Y-36679D01*
X35533Y-36724D01*
X35533Y-36675D01*
X35533Y-36600D02*
X35533Y-36645D01*
X35533Y-36622D02*
X35454Y-36622D01*
X35466Y-36630D01*
X35473Y-36637D01*
X35477Y-36645D01*
G54D23*
G54D22*
X37279Y-26250D02*
X37242Y-26277D01*
X37279Y-26295D02*
X37200Y-26295D01*
X37200Y-26265D01*
X37204Y-26258D01*
X37208Y-26254D01*
X37216Y-26250D01*
X37227Y-26250D01*
X37234Y-26254D01*
X37238Y-26258D01*
X37242Y-26265D01*
X37242Y-26295D01*
X37200Y-26183D02*
X37200Y-26198D01*
X37204Y-26205D01*
X37208Y-26209D01*
X37219Y-26216D01*
X37234Y-26220D01*
X37264Y-26220D01*
X37272Y-26216D01*
X37276Y-26213D01*
X37279Y-26205D01*
X37279Y-26190D01*
X37276Y-26183D01*
X37272Y-26179D01*
X37264Y-26175D01*
X37246Y-26175D01*
X37238Y-26179D01*
X37234Y-26183D01*
X37231Y-26190D01*
X37231Y-26205D01*
X37234Y-26213D01*
X37238Y-26216D01*
X37246Y-26220D01*
X37200Y-26104D02*
X37200Y-26141D01*
X37238Y-26145D01*
X37234Y-26141D01*
X37231Y-26134D01*
X37231Y-26115D01*
X37234Y-26107D01*
X37238Y-26104D01*
X37246Y-26100D01*
X37264Y-26100D01*
X37272Y-26104D01*
X37276Y-26107D01*
X37279Y-26115D01*
X37279Y-26134D01*
X37276Y-26141D01*
X37272Y-26145D01*
G54D23*
G54D22*
X38129Y-36750D02*
X38092Y-36777D01*
X38129Y-36795D02*
X38050Y-36795D01*
X38050Y-36765D01*
X38054Y-36758D01*
X38058Y-36754D01*
X38066Y-36750D01*
X38077Y-36750D01*
X38084Y-36754D01*
X38088Y-36758D01*
X38092Y-36765D01*
X38092Y-36795D01*
X38050Y-36683D02*
X38050Y-36698D01*
X38054Y-36705D01*
X38058Y-36709D01*
X38069Y-36716D01*
X38084Y-36720D01*
X38114Y-36720D01*
X38122Y-36716D01*
X38126Y-36713D01*
X38129Y-36705D01*
X38129Y-36690D01*
X38126Y-36683D01*
X38122Y-36679D01*
X38114Y-36675D01*
X38096Y-36675D01*
X38088Y-36679D01*
X38084Y-36683D01*
X38081Y-36690D01*
X38081Y-36705D01*
X38084Y-36713D01*
X38088Y-36716D01*
X38096Y-36720D01*
X38050Y-36649D02*
X38050Y-36596D01*
X38129Y-36630D01*
G54D23*
G54D22*
X38833Y-41550D02*
X38796Y-41577D01*
X38833Y-41595D02*
X38754Y-41595D01*
X38754Y-41565D01*
X38758Y-41558D01*
X38762Y-41554D01*
X38770Y-41550D01*
X38781Y-41550D01*
X38788Y-41554D01*
X38792Y-41558D01*
X38796Y-41565D01*
X38796Y-41595D01*
X38762Y-41520D02*
X38758Y-41516D01*
X38754Y-41509D01*
X38754Y-41490D01*
X38758Y-41483D01*
X38762Y-41479D01*
X38770Y-41475D01*
X38777Y-41475D01*
X38788Y-41479D01*
X38833Y-41524D01*
X38833Y-41475D01*
X38762Y-41445D02*
X38758Y-41441D01*
X38754Y-41434D01*
X38754Y-41415D01*
X38758Y-41407D01*
X38762Y-41404D01*
X38770Y-41400D01*
X38777Y-41400D01*
X38788Y-41404D01*
X38833Y-41449D01*
X38833Y-41400D01*
G54D23*
G54D22*
X44329Y-27300D02*
X44292Y-27327D01*
X44329Y-27345D02*
X44250Y-27345D01*
X44250Y-27315D01*
X44254Y-27308D01*
X44258Y-27304D01*
X44266Y-27300D01*
X44277Y-27300D01*
X44284Y-27304D01*
X44288Y-27308D01*
X44292Y-27315D01*
X44292Y-27345D01*
X44250Y-27274D02*
X44250Y-27221D01*
X44329Y-27255D01*
X44250Y-27199D02*
X44250Y-27146D01*
X44329Y-27180D01*
G54D23*
G54D22*
X41549Y-40633D02*
X41522Y-40596D01*
X41504Y-40633D02*
X41504Y-40554D01*
X41534Y-40554D01*
X41541Y-40558D01*
X41545Y-40562D01*
X41549Y-40570D01*
X41549Y-40581D01*
X41545Y-40588D01*
X41541Y-40592D01*
X41534Y-40596D01*
X41504Y-40596D01*
X41575Y-40554D02*
X41628Y-40554D01*
X41594Y-40633D01*
X41669Y-40588D02*
X41662Y-40585D01*
X41658Y-40581D01*
X41654Y-40573D01*
X41654Y-40570D01*
X41658Y-40562D01*
X41662Y-40558D01*
X41669Y-40554D01*
X41684Y-40554D01*
X41692Y-40558D01*
X41695Y-40562D01*
X41699Y-40570D01*
X41699Y-40573D01*
X41695Y-40581D01*
X41692Y-40585D01*
X41684Y-40588D01*
X41669Y-40588D01*
X41662Y-40592D01*
X41658Y-40596D01*
X41654Y-40603D01*
X41654Y-40618D01*
X41658Y-40626D01*
X41662Y-40630D01*
X41669Y-40633D01*
X41684Y-40633D01*
X41692Y-40630D01*
X41695Y-40626D01*
X41699Y-40618D01*
X41699Y-40603D01*
X41695Y-40596D01*
X41692Y-40592D01*
X41684Y-40588D01*
G54D23*
G54D22*
X38833Y-40050D02*
X38796Y-40077D01*
X38833Y-40095D02*
X38754Y-40095D01*
X38754Y-40065D01*
X38758Y-40058D01*
X38762Y-40054D01*
X38770Y-40050D01*
X38781Y-40050D01*
X38788Y-40054D01*
X38792Y-40058D01*
X38796Y-40065D01*
X38796Y-40095D01*
X38762Y-40020D02*
X38758Y-40016D01*
X38754Y-40009D01*
X38754Y-39990D01*
X38758Y-39983D01*
X38762Y-39979D01*
X38770Y-39975D01*
X38777Y-39975D01*
X38788Y-39979D01*
X38833Y-40024D01*
X38833Y-39975D01*
X38754Y-39949D02*
X38754Y-39900D01*
X38785Y-39926D01*
X38785Y-39915D01*
X38788Y-39907D01*
X38792Y-39904D01*
X38800Y-39900D01*
X38818Y-39900D01*
X38826Y-39904D01*
X38830Y-39907D01*
X38833Y-39915D01*
X38833Y-39937D01*
X38830Y-39945D01*
X38826Y-39949D01*
G54D23*
G54D22*
X58549Y-48679D02*
X58522Y-48642D01*
X58504Y-48679D02*
X58504Y-48600D01*
X58534Y-48600D01*
X58541Y-48604D01*
X58545Y-48608D01*
X58549Y-48616D01*
X58549Y-48627D01*
X58545Y-48634D01*
X58541Y-48638D01*
X58534Y-48642D01*
X58504Y-48642D01*
X58575Y-48600D02*
X58624Y-48600D01*
X58598Y-48631D01*
X58609Y-48631D01*
X58616Y-48634D01*
X58620Y-48638D01*
X58624Y-48646D01*
X58624Y-48664D01*
X58620Y-48672D01*
X58616Y-48676D01*
X58609Y-48679D01*
X58586Y-48679D01*
X58579Y-48676D01*
X58575Y-48672D01*
X58673Y-48600D02*
X58680Y-48600D01*
X58688Y-48604D01*
X58692Y-48608D01*
X58695Y-48616D01*
X58699Y-48631D01*
X58699Y-48649D01*
X58695Y-48664D01*
X58692Y-48672D01*
X58688Y-48676D01*
X58680Y-48679D01*
X58673Y-48679D01*
X58665Y-48676D01*
X58662Y-48672D01*
X58658Y-48664D01*
X58654Y-48649D01*
X58654Y-48631D01*
X58658Y-48616D01*
X58662Y-48608D01*
X58665Y-48604D01*
X58673Y-48600D01*
G54D23*
G54D22*
X58549Y-49133D02*
X58522Y-49096D01*
X58504Y-49133D02*
X58504Y-49054D01*
X58534Y-49054D01*
X58541Y-49058D01*
X58545Y-49062D01*
X58549Y-49070D01*
X58549Y-49081D01*
X58545Y-49088D01*
X58541Y-49092D01*
X58534Y-49096D01*
X58504Y-49096D01*
X58579Y-49062D02*
X58583Y-49058D01*
X58590Y-49054D01*
X58609Y-49054D01*
X58616Y-49058D01*
X58620Y-49062D01*
X58624Y-49070D01*
X58624Y-49077D01*
X58620Y-49088D01*
X58575Y-49133D01*
X58624Y-49133D01*
X58650Y-49054D02*
X58703Y-49054D01*
X58669Y-49133D01*
G54D23*
G54D22*
X57199Y-45833D02*
X57172Y-45796D01*
X57154Y-45833D02*
X57154Y-45754D01*
X57184Y-45754D01*
X57191Y-45758D01*
X57195Y-45762D01*
X57199Y-45770D01*
X57199Y-45781D01*
X57195Y-45788D01*
X57191Y-45792D01*
X57184Y-45796D01*
X57154Y-45796D01*
X57229Y-45762D02*
X57233Y-45758D01*
X57240Y-45754D01*
X57259Y-45754D01*
X57266Y-45758D01*
X57270Y-45762D01*
X57274Y-45770D01*
X57274Y-45777D01*
X57270Y-45788D01*
X57225Y-45833D01*
X57274Y-45833D01*
X57342Y-45754D02*
X57327Y-45754D01*
X57319Y-45758D01*
X57315Y-45762D01*
X57308Y-45773D01*
X57304Y-45788D01*
X57304Y-45818D01*
X57308Y-45826D01*
X57312Y-45830D01*
X57319Y-45833D01*
X57334Y-45833D01*
X57342Y-45830D01*
X57345Y-45826D01*
X57349Y-45818D01*
X57349Y-45800D01*
X57345Y-45792D01*
X57342Y-45788D01*
X57334Y-45785D01*
X57319Y-45785D01*
X57312Y-45788D01*
X57308Y-45792D01*
X57304Y-45800D01*
G54D23*
G54D22*
X45133Y-47150D02*
X45096Y-47177D01*
X45133Y-47195D02*
X45054Y-47195D01*
X45054Y-47165D01*
X45058Y-47158D01*
X45062Y-47154D01*
X45070Y-47150D01*
X45081Y-47150D01*
X45088Y-47154D01*
X45092Y-47158D01*
X45096Y-47165D01*
X45096Y-47195D01*
X45054Y-47124D02*
X45054Y-47075D01*
X45085Y-47101D01*
X45085Y-47090D01*
X45088Y-47083D01*
X45092Y-47079D01*
X45100Y-47075D01*
X45118Y-47075D01*
X45126Y-47079D01*
X45130Y-47083D01*
X45133Y-47090D01*
X45133Y-47113D01*
X45130Y-47120D01*
X45126Y-47124D01*
X45088Y-47030D02*
X45085Y-47037D01*
X45081Y-47041D01*
X45073Y-47045D01*
X45070Y-47045D01*
X45062Y-47041D01*
X45058Y-47037D01*
X45054Y-47030D01*
X45054Y-47015D01*
X45058Y-47007D01*
X45062Y-47004D01*
X45070Y-47000D01*
X45073Y-47000D01*
X45081Y-47004D01*
X45085Y-47007D01*
X45088Y-47015D01*
X45088Y-47030D01*
X45092Y-47037D01*
X45096Y-47041D01*
X45103Y-47045D01*
X45118Y-47045D01*
X45126Y-47041D01*
X45130Y-47037D01*
X45133Y-47030D01*
X45133Y-47015D01*
X45130Y-47007D01*
X45126Y-47004D01*
X45118Y-47000D01*
X45103Y-47000D01*
X45096Y-47004D01*
X45092Y-47007D01*
X45088Y-47015D01*
G54D23*
G54D22*
X47199Y-49333D02*
X47172Y-49296D01*
X47154Y-49333D02*
X47154Y-49254D01*
X47184Y-49254D01*
X47191Y-49258D01*
X47195Y-49262D01*
X47199Y-49270D01*
X47199Y-49281D01*
X47195Y-49288D01*
X47191Y-49292D01*
X47184Y-49296D01*
X47154Y-49296D01*
X47225Y-49254D02*
X47274Y-49254D01*
X47248Y-49285D01*
X47259Y-49285D01*
X47266Y-49288D01*
X47270Y-49292D01*
X47274Y-49300D01*
X47274Y-49318D01*
X47270Y-49326D01*
X47266Y-49330D01*
X47259Y-49333D01*
X47236Y-49333D01*
X47229Y-49330D01*
X47225Y-49326D01*
X47312Y-49333D02*
X47327Y-49333D01*
X47334Y-49330D01*
X47338Y-49326D01*
X47345Y-49315D01*
X47349Y-49300D01*
X47349Y-49270D01*
X47345Y-49262D01*
X47342Y-49258D01*
X47334Y-49254D01*
X47319Y-49254D01*
X47312Y-49258D01*
X47308Y-49262D01*
X47304Y-49270D01*
X47304Y-49288D01*
X47308Y-49296D01*
X47312Y-49300D01*
X47319Y-49303D01*
X47334Y-49303D01*
X47342Y-49300D01*
X47345Y-49296D01*
X47349Y-49288D01*
G54D23*
G54D22*
X42899Y-27479D02*
X42872Y-27442D01*
X42854Y-27479D02*
X42854Y-27400D01*
X42884Y-27400D01*
X42891Y-27404D01*
X42895Y-27408D01*
X42899Y-27416D01*
X42899Y-27427D01*
X42895Y-27434D01*
X42891Y-27438D01*
X42884Y-27442D01*
X42854Y-27442D01*
X42974Y-27479D02*
X42929Y-27479D01*
X42951Y-27479D02*
X42951Y-27400D01*
X42944Y-27412D01*
X42936Y-27419D01*
X42929Y-27423D01*
X43019Y-27434D02*
X43012Y-27431D01*
X43008Y-27427D01*
X43004Y-27419D01*
X43004Y-27416D01*
X43008Y-27408D01*
X43012Y-27404D01*
X43019Y-27400D01*
X43034Y-27400D01*
X43042Y-27404D01*
X43045Y-27408D01*
X43049Y-27416D01*
X43049Y-27419D01*
X43045Y-27427D01*
X43042Y-27431D01*
X43034Y-27434D01*
X43019Y-27434D01*
X43012Y-27438D01*
X43008Y-27442D01*
X43004Y-27449D01*
X43004Y-27464D01*
X43008Y-27472D01*
X43012Y-27476D01*
X43019Y-27479D01*
X43034Y-27479D01*
X43042Y-27476D01*
X43045Y-27472D01*
X43049Y-27464D01*
X43049Y-27449D01*
X43045Y-27442D01*
X43042Y-27438D01*
X43034Y-27434D01*
G54D23*
G54D22*
X44329Y-34950D02*
X44292Y-34977D01*
X44329Y-34995D02*
X44250Y-34995D01*
X44250Y-34965D01*
X44254Y-34958D01*
X44258Y-34954D01*
X44266Y-34950D01*
X44277Y-34950D01*
X44284Y-34954D01*
X44288Y-34958D01*
X44292Y-34965D01*
X44292Y-34995D01*
X44250Y-34883D02*
X44250Y-34898D01*
X44254Y-34905D01*
X44258Y-34909D01*
X44269Y-34916D01*
X44284Y-34920D01*
X44314Y-34920D01*
X44322Y-34916D01*
X44326Y-34913D01*
X44329Y-34905D01*
X44329Y-34890D01*
X44326Y-34883D01*
X44322Y-34879D01*
X44314Y-34875D01*
X44296Y-34875D01*
X44288Y-34879D01*
X44284Y-34883D01*
X44281Y-34890D01*
X44281Y-34905D01*
X44284Y-34913D01*
X44288Y-34916D01*
X44296Y-34920D01*
X44329Y-34837D02*
X44329Y-34822D01*
X44326Y-34815D01*
X44322Y-34811D01*
X44311Y-34804D01*
X44296Y-34800D01*
X44266Y-34800D01*
X44258Y-34804D01*
X44254Y-34807D01*
X44250Y-34815D01*
X44250Y-34830D01*
X44254Y-34837D01*
X44258Y-34841D01*
X44266Y-34845D01*
X44284Y-34845D01*
X44292Y-34841D01*
X44296Y-34837D01*
X44299Y-34830D01*
X44299Y-34815D01*
X44296Y-34807D01*
X44292Y-34804D01*
X44284Y-34800D01*
G54D23*
G54D22*
X55629Y-34750D02*
X55592Y-34777D01*
X55629Y-34795D02*
X55550Y-34795D01*
X55550Y-34765D01*
X55554Y-34758D01*
X55558Y-34754D01*
X55566Y-34750D01*
X55577Y-34750D01*
X55584Y-34754D01*
X55588Y-34758D01*
X55592Y-34765D01*
X55592Y-34795D01*
X55550Y-34724D02*
X55550Y-34671D01*
X55629Y-34705D01*
X55558Y-34645D02*
X55554Y-34641D01*
X55550Y-34634D01*
X55550Y-34615D01*
X55554Y-34607D01*
X55558Y-34604D01*
X55566Y-34600D01*
X55573Y-34600D01*
X55584Y-34604D01*
X55629Y-34649D01*
X55629Y-34600D01*
G54D23*
G54D22*
X63283Y-26250D02*
X63246Y-26277D01*
X63283Y-26295D02*
X63204Y-26295D01*
X63204Y-26265D01*
X63208Y-26258D01*
X63212Y-26254D01*
X63220Y-26250D01*
X63231Y-26250D01*
X63238Y-26254D01*
X63242Y-26258D01*
X63246Y-26265D01*
X63246Y-26295D01*
X63204Y-26224D02*
X63204Y-26175D01*
X63235Y-26201D01*
X63235Y-26190D01*
X63238Y-26183D01*
X63242Y-26179D01*
X63250Y-26175D01*
X63268Y-26175D01*
X63276Y-26179D01*
X63280Y-26183D01*
X63283Y-26190D01*
X63283Y-26213D01*
X63280Y-26220D01*
X63276Y-26224D01*
X63204Y-26149D02*
X63204Y-26096D01*
X63283Y-26130D01*
G54D23*
G54D16*
X39475Y-48886D02*
X39761Y-48886D01*
X39818Y-48905D01*
X39856Y-48943D01*
X39875Y-49001D01*
X39875Y-49039D01*
X39875Y-48486D02*
X39875Y-48715D01*
X39875Y-48601D02*
X39475Y-48601D01*
X39533Y-48639D01*
X39571Y-48677D01*
X39590Y-48715D01*
X39475Y-48124D02*
X39475Y-48315D01*
X39666Y-48334D01*
X39647Y-48315D01*
X39628Y-48277D01*
X39628Y-48182D01*
X39647Y-48143D01*
X39666Y-48124D01*
X39704Y-48105D01*
X39799Y-48105D01*
X39837Y-48124D01*
X39856Y-48143D01*
X39875Y-48182D01*
X39875Y-48277D01*
X39856Y-48315D01*
X39837Y-48334D01*
X39764Y-47196D02*
X39764Y-47063D01*
X39973Y-47006D02*
X39973Y-47196D01*
X39573Y-47196D01*
X39573Y-47006D01*
X39573Y-46758D02*
X39573Y-46720D01*
X39592Y-46682D01*
X39612Y-46663D01*
X39650Y-46644D01*
X39726Y-46625D01*
X39821Y-46625D01*
X39897Y-46644D01*
X39935Y-46663D01*
X39954Y-46682D01*
X39973Y-46720D01*
X39973Y-46758D01*
X39954Y-46796D01*
X39935Y-46815D01*
X39897Y-46835D01*
X39821Y-46854D01*
X39726Y-46854D01*
X39650Y-46835D01*
X39612Y-46815D01*
X39592Y-46796D01*
X39573Y-46758D01*
X39973Y-46149D02*
X39573Y-46149D01*
X39859Y-46016D01*
X39573Y-45882D01*
X39973Y-45882D01*
X39573Y-45615D02*
X39573Y-45539D01*
X39592Y-45501D01*
X39631Y-45463D01*
X39707Y-45444D01*
X39840Y-45444D01*
X39916Y-45463D01*
X39954Y-45501D01*
X39973Y-45539D01*
X39973Y-45615D01*
X39954Y-45654D01*
X39916Y-45692D01*
X39840Y-45711D01*
X39707Y-45711D01*
X39631Y-45692D01*
X39592Y-45654D01*
X39573Y-45615D01*
X39573Y-45330D02*
X39573Y-45101D01*
X39973Y-45215D02*
X39573Y-45215D01*
X39554Y-44682D02*
X40069Y-45025D01*
X39954Y-44568D02*
X39973Y-44511D01*
X39973Y-44416D01*
X39954Y-44377D01*
X39935Y-44358D01*
X39897Y-44339D01*
X39859Y-44339D01*
X39821Y-44358D01*
X39802Y-44377D01*
X39783Y-44416D01*
X39764Y-44492D01*
X39745Y-44530D01*
X39726Y-44549D01*
X39688Y-44568D01*
X39650Y-44568D01*
X39612Y-44549D01*
X39592Y-44530D01*
X39573Y-44492D01*
X39573Y-44396D01*
X39592Y-44339D01*
X39573Y-44225D02*
X39573Y-43996D01*
X39973Y-44111D02*
X39573Y-44111D01*
X39573Y-43787D02*
X39573Y-43711D01*
X39592Y-43673D01*
X39631Y-43635D01*
X39707Y-43616D01*
X39840Y-43616D01*
X39916Y-43635D01*
X39954Y-43673D01*
X39973Y-43711D01*
X39973Y-43787D01*
X39954Y-43825D01*
X39916Y-43863D01*
X39840Y-43882D01*
X39707Y-43882D01*
X39631Y-43863D01*
X39592Y-43825D01*
X39573Y-43787D01*
X39973Y-43444D02*
X39573Y-43444D01*
X39573Y-43292D01*
X39592Y-43254D01*
X39612Y-43235D01*
X39650Y-43216D01*
X39707Y-43216D01*
X39745Y-43235D01*
X39764Y-43254D01*
X39783Y-43292D01*
X39783Y-43444D01*
X31761Y-46473D02*
X32047Y-46473D01*
X32104Y-46492D01*
X32142Y-46530D01*
X32161Y-46588D01*
X32161Y-46626D01*
X32161Y-46073D02*
X32161Y-46302D01*
X32161Y-46188D02*
X31761Y-46188D01*
X31819Y-46226D01*
X31857Y-46264D01*
X31876Y-46302D01*
X31895Y-45730D02*
X32161Y-45730D01*
X31742Y-45826D02*
X32028Y-45921D01*
X32028Y-45673D01*
X33702Y-48330D02*
X33702Y-48197D01*
X33911Y-48140D02*
X33911Y-48330D01*
X33511Y-48330D01*
X33511Y-48140D01*
X33511Y-47892D02*
X33511Y-47854D01*
X33530Y-47816D01*
X33550Y-47797D01*
X33588Y-47778D01*
X33664Y-47759D01*
X33759Y-47759D01*
X33835Y-47778D01*
X33873Y-47797D01*
X33892Y-47816D01*
X33911Y-47854D01*
X33911Y-47892D01*
X33892Y-47930D01*
X33873Y-47949D01*
X33835Y-47969D01*
X33759Y-47988D01*
X33664Y-47988D01*
X33588Y-47969D01*
X33550Y-47949D01*
X33530Y-47930D01*
X33511Y-47892D01*
X33911Y-47283D02*
X33511Y-47283D01*
X33797Y-47150D01*
X33511Y-47016D01*
X33911Y-47016D01*
X33511Y-46749D02*
X33511Y-46673D01*
X33530Y-46635D01*
X33569Y-46597D01*
X33645Y-46578D01*
X33778Y-46578D01*
X33854Y-46597D01*
X33892Y-46635D01*
X33911Y-46673D01*
X33911Y-46749D01*
X33892Y-46788D01*
X33854Y-46826D01*
X33778Y-46845D01*
X33645Y-46845D01*
X33569Y-46826D01*
X33530Y-46788D01*
X33511Y-46749D01*
X33511Y-46464D02*
X33511Y-46235D01*
X33911Y-46349D02*
X33511Y-46349D01*
X33492Y-45816D02*
X34007Y-46159D01*
X33892Y-45702D02*
X33911Y-45645D01*
X33911Y-45550D01*
X33892Y-45511D01*
X33873Y-45492D01*
X33835Y-45473D01*
X33797Y-45473D01*
X33759Y-45492D01*
X33740Y-45511D01*
X33721Y-45550D01*
X33702Y-45626D01*
X33683Y-45664D01*
X33664Y-45683D01*
X33626Y-45702D01*
X33588Y-45702D01*
X33550Y-45683D01*
X33530Y-45664D01*
X33511Y-45626D01*
X33511Y-45530D01*
X33530Y-45473D01*
X33511Y-45359D02*
X33511Y-45130D01*
X33911Y-45245D02*
X33511Y-45245D01*
X33511Y-44921D02*
X33511Y-44845D01*
X33530Y-44807D01*
X33569Y-44769D01*
X33645Y-44750D01*
X33778Y-44750D01*
X33854Y-44769D01*
X33892Y-44807D01*
X33911Y-44845D01*
X33911Y-44921D01*
X33892Y-44959D01*
X33854Y-44997D01*
X33778Y-45016D01*
X33645Y-45016D01*
X33569Y-44997D01*
X33530Y-44959D01*
X33511Y-44921D01*
X33911Y-44578D02*
X33511Y-44578D01*
X33511Y-44426D01*
X33530Y-44388D01*
X33550Y-44369D01*
X33588Y-44350D01*
X33645Y-44350D01*
X33683Y-44369D01*
X33702Y-44388D01*
X33721Y-44426D01*
X33721Y-44578D01*
X56616Y-33811D02*
X56616Y-34097D01*
X56597Y-34154D01*
X56559Y-34192D01*
X56502Y-34211D01*
X56464Y-34211D01*
X56826Y-34211D02*
X56902Y-34211D01*
X56940Y-34192D01*
X56959Y-34173D01*
X56997Y-34116D01*
X57016Y-34040D01*
X57016Y-33888D01*
X56997Y-33850D01*
X56978Y-33830D01*
X56940Y-33811D01*
X56864Y-33811D01*
X56826Y-33830D01*
X56807Y-33850D01*
X56788Y-33888D01*
X56788Y-33983D01*
X56807Y-34021D01*
X56826Y-34040D01*
X56864Y-34059D01*
X56940Y-34059D01*
X56978Y-34040D01*
X56997Y-34021D01*
X57016Y-33983D01*
X58569Y-33952D02*
X58702Y-33952D01*
X58759Y-34161D02*
X58569Y-34161D01*
X58569Y-33761D01*
X58759Y-33761D01*
X59140Y-34161D02*
X58911Y-34161D01*
X59026Y-34161D02*
X59026Y-33761D01*
X58988Y-33819D01*
X58950Y-33857D01*
X58911Y-33876D01*
X59616Y-34161D02*
X59616Y-33761D01*
X59750Y-34047D01*
X59883Y-33761D01*
X59883Y-34161D01*
X60150Y-33761D02*
X60226Y-33761D01*
X60264Y-33780D01*
X60302Y-33819D01*
X60321Y-33895D01*
X60321Y-34028D01*
X60302Y-34104D01*
X60264Y-34142D01*
X60226Y-34161D01*
X60150Y-34161D01*
X60111Y-34142D01*
X60073Y-34104D01*
X60054Y-34028D01*
X60054Y-33895D01*
X60073Y-33819D01*
X60111Y-33780D01*
X60150Y-33761D01*
X60435Y-33761D02*
X60664Y-33761D01*
X60550Y-34161D02*
X60550Y-33761D01*
X61083Y-33742D02*
X60740Y-34257D01*
X61197Y-34142D02*
X61254Y-34161D01*
X61350Y-34161D01*
X61388Y-34142D01*
X61407Y-34123D01*
X61426Y-34085D01*
X61426Y-34047D01*
X61407Y-34009D01*
X61388Y-33990D01*
X61350Y-33971D01*
X61273Y-33952D01*
X61235Y-33933D01*
X61216Y-33914D01*
X61197Y-33876D01*
X61197Y-33838D01*
X61216Y-33800D01*
X61235Y-33780D01*
X61273Y-33761D01*
X61369Y-33761D01*
X61426Y-33780D01*
X61540Y-33761D02*
X61769Y-33761D01*
X61654Y-34161D02*
X61654Y-33761D01*
X61978Y-33761D02*
X62054Y-33761D01*
X62092Y-33780D01*
X62130Y-33819D01*
X62150Y-33895D01*
X62150Y-34028D01*
X62130Y-34104D01*
X62092Y-34142D01*
X62054Y-34161D01*
X61978Y-34161D01*
X61940Y-34142D01*
X61902Y-34104D01*
X61883Y-34028D01*
X61883Y-33895D01*
X61902Y-33819D01*
X61940Y-33780D01*
X61978Y-33761D01*
X62321Y-34161D02*
X62321Y-33761D01*
X62473Y-33761D01*
X62511Y-33780D01*
X62530Y-33800D01*
X62550Y-33838D01*
X62550Y-33895D01*
X62530Y-33933D01*
X62511Y-33952D01*
X62473Y-33971D01*
X62321Y-33971D01*
X45516Y-33811D02*
X45516Y-34097D01*
X45497Y-34154D01*
X45459Y-34192D01*
X45402Y-34211D01*
X45364Y-34211D01*
X45764Y-33983D02*
X45726Y-33964D01*
X45707Y-33945D01*
X45688Y-33907D01*
X45688Y-33888D01*
X45707Y-33850D01*
X45726Y-33830D01*
X45764Y-33811D01*
X45840Y-33811D01*
X45878Y-33830D01*
X45897Y-33850D01*
X45916Y-33888D01*
X45916Y-33907D01*
X45897Y-33945D01*
X45878Y-33964D01*
X45840Y-33983D01*
X45764Y-33983D01*
X45726Y-34002D01*
X45707Y-34021D01*
X45688Y-34059D01*
X45688Y-34135D01*
X45707Y-34173D01*
X45726Y-34192D01*
X45764Y-34211D01*
X45840Y-34211D01*
X45878Y-34192D01*
X45897Y-34173D01*
X45916Y-34135D01*
X45916Y-34059D01*
X45897Y-34021D01*
X45878Y-34002D01*
X45840Y-33983D01*
X47069Y-34102D02*
X47202Y-34102D01*
X47259Y-34311D02*
X47069Y-34311D01*
X47069Y-33911D01*
X47259Y-33911D01*
X47411Y-33950D02*
X47430Y-33930D01*
X47469Y-33911D01*
X47564Y-33911D01*
X47602Y-33930D01*
X47621Y-33950D01*
X47640Y-33988D01*
X47640Y-34026D01*
X47621Y-34083D01*
X47392Y-34311D01*
X47640Y-34311D01*
X48116Y-34311D02*
X48116Y-33911D01*
X48250Y-34197D01*
X48383Y-33911D01*
X48383Y-34311D01*
X48650Y-33911D02*
X48726Y-33911D01*
X48764Y-33930D01*
X48802Y-33969D01*
X48821Y-34045D01*
X48821Y-34178D01*
X48802Y-34254D01*
X48764Y-34292D01*
X48726Y-34311D01*
X48650Y-34311D01*
X48611Y-34292D01*
X48573Y-34254D01*
X48554Y-34178D01*
X48554Y-34045D01*
X48573Y-33969D01*
X48611Y-33930D01*
X48650Y-33911D01*
X48935Y-33911D02*
X49164Y-33911D01*
X49050Y-34311D02*
X49050Y-33911D01*
X49583Y-33892D02*
X49240Y-34407D01*
X49697Y-34292D02*
X49754Y-34311D01*
X49850Y-34311D01*
X49888Y-34292D01*
X49907Y-34273D01*
X49926Y-34235D01*
X49926Y-34197D01*
X49907Y-34159D01*
X49888Y-34140D01*
X49850Y-34121D01*
X49773Y-34102D01*
X49735Y-34083D01*
X49716Y-34064D01*
X49697Y-34026D01*
X49697Y-33988D01*
X49716Y-33950D01*
X49735Y-33930D01*
X49773Y-33911D01*
X49869Y-33911D01*
X49926Y-33930D01*
X50040Y-33911D02*
X50269Y-33911D01*
X50154Y-34311D02*
X50154Y-33911D01*
X50478Y-33911D02*
X50554Y-33911D01*
X50592Y-33930D01*
X50630Y-33969D01*
X50650Y-34045D01*
X50650Y-34178D01*
X50630Y-34254D01*
X50592Y-34292D01*
X50554Y-34311D01*
X50478Y-34311D01*
X50440Y-34292D01*
X50402Y-34254D01*
X50383Y-34178D01*
X50383Y-34045D01*
X50402Y-33969D01*
X50440Y-33930D01*
X50478Y-33911D01*
X50821Y-34311D02*
X50821Y-33911D01*
X50973Y-33911D01*
X51011Y-33930D01*
X51030Y-33950D01*
X51050Y-33988D01*
X51050Y-34045D01*
X51030Y-34083D01*
X51011Y-34102D01*
X50973Y-34121D01*
X50821Y-34121D01*
X35976Y-22511D02*
X35976Y-22797D01*
X35957Y-22854D01*
X35919Y-22892D01*
X35861Y-22911D01*
X35823Y-22911D01*
X36376Y-22911D02*
X36147Y-22911D01*
X36261Y-22911D02*
X36261Y-22511D01*
X36223Y-22569D01*
X36185Y-22607D01*
X36147Y-22626D01*
X36528Y-22550D02*
X36547Y-22530D01*
X36585Y-22511D01*
X36680Y-22511D01*
X36719Y-22530D01*
X36738Y-22550D01*
X36757Y-22588D01*
X36757Y-22626D01*
X36738Y-22683D01*
X36509Y-22911D01*
X36757Y-22911D01*
X38111Y-22752D02*
X38245Y-22752D01*
X38302Y-22961D02*
X38111Y-22961D01*
X38111Y-22561D01*
X38302Y-22561D01*
X38683Y-22961D02*
X38454Y-22961D01*
X38569Y-22961D02*
X38569Y-22561D01*
X38530Y-22619D01*
X38492Y-22657D01*
X38454Y-22676D01*
X39159Y-22961D02*
X39159Y-22561D01*
X39159Y-22752D02*
X39388Y-22752D01*
X39388Y-22961D02*
X39388Y-22561D01*
X39902Y-22961D02*
X39883Y-22961D01*
X39845Y-22942D01*
X39788Y-22885D01*
X39692Y-22771D01*
X39654Y-22714D01*
X39635Y-22657D01*
X39635Y-22619D01*
X39654Y-22580D01*
X39692Y-22561D01*
X39711Y-22561D01*
X39750Y-22580D01*
X39769Y-22619D01*
X39769Y-22638D01*
X39750Y-22676D01*
X39730Y-22695D01*
X39616Y-22771D01*
X39597Y-22790D01*
X39578Y-22828D01*
X39578Y-22885D01*
X39597Y-22923D01*
X39616Y-22942D01*
X39654Y-22961D01*
X39711Y-22961D01*
X39750Y-22942D01*
X39769Y-22923D01*
X39826Y-22847D01*
X39845Y-22790D01*
X39845Y-22752D01*
X40016Y-22561D02*
X40245Y-22561D01*
X40130Y-22961D02*
X40130Y-22561D01*
G54D21*
X56311Y-53445D02*
X55911Y-53445D01*
X55911Y-53292D01*
X55930Y-53254D01*
X55950Y-53235D01*
X55988Y-53216D01*
X56045Y-53216D01*
X56083Y-53235D01*
X56102Y-53254D01*
X56121Y-53292D01*
X56121Y-53445D01*
X56311Y-52835D02*
X56311Y-53064D01*
X56311Y-52949D02*
X55911Y-52949D01*
X55969Y-52988D01*
X56007Y-53026D01*
X56026Y-53064D01*
X48116Y-54584D02*
X48402Y-54584D01*
X48459Y-54603D01*
X48497Y-54641D01*
X48516Y-54699D01*
X48516Y-54737D01*
X48155Y-54413D02*
X48135Y-54394D01*
X48116Y-54356D01*
X48116Y-54261D01*
X48135Y-54222D01*
X48155Y-54203D01*
X48193Y-54184D01*
X48231Y-54184D01*
X48288Y-54203D01*
X48516Y-54432D01*
X48516Y-54184D01*
X48288Y-53956D02*
X48269Y-53994D01*
X48250Y-54013D01*
X48212Y-54032D01*
X48193Y-54032D01*
X48155Y-54013D01*
X48135Y-53994D01*
X48116Y-53956D01*
X48116Y-53880D01*
X48135Y-53841D01*
X48155Y-53822D01*
X48193Y-53803D01*
X48212Y-53803D01*
X48250Y-53822D01*
X48269Y-53841D01*
X48288Y-53880D01*
X48288Y-53956D01*
X48307Y-53994D01*
X48326Y-54013D01*
X48364Y-54032D01*
X48440Y-54032D01*
X48478Y-54013D01*
X48497Y-53994D01*
X48516Y-53956D01*
X48516Y-53880D01*
X48497Y-53841D01*
X48478Y-53822D01*
X48440Y-53803D01*
X48364Y-53803D01*
X48326Y-53822D01*
X48307Y-53841D01*
X48288Y-53880D01*
G54D16*
X33571Y-58992D02*
X33785Y-58992D01*
X33828Y-59007D01*
X33857Y-59035D01*
X33871Y-59078D01*
X33871Y-59107D01*
X33871Y-58692D02*
X33871Y-58864D01*
X33871Y-58778D02*
X33571Y-58778D01*
X33614Y-58807D01*
X33642Y-58835D01*
X33657Y-58864D01*
X33571Y-58592D02*
X33571Y-58407D01*
X33685Y-58507D01*
X33685Y-58464D01*
X33700Y-58435D01*
X33714Y-58421D01*
X33742Y-58407D01*
X33814Y-58407D01*
X33842Y-58421D01*
X33857Y-58435D01*
X33871Y-58464D01*
X33871Y-58550D01*
X33857Y-58578D01*
X33842Y-58592D01*
X55321Y-57892D02*
X55535Y-57892D01*
X55578Y-57907D01*
X55607Y-57935D01*
X55621Y-57978D01*
X55621Y-58007D01*
X55350Y-57764D02*
X55335Y-57749D01*
X55321Y-57721D01*
X55321Y-57649D01*
X55335Y-57621D01*
X55350Y-57607D01*
X55378Y-57592D01*
X55407Y-57592D01*
X55450Y-57607D01*
X55621Y-57778D01*
X55621Y-57592D01*
X55421Y-57335D02*
X55621Y-57335D01*
X55307Y-57407D02*
X55521Y-57478D01*
X55521Y-57292D01*
X68171Y-52549D02*
X68385Y-52549D01*
X68428Y-52564D01*
X68457Y-52592D01*
X68471Y-52635D01*
X68471Y-52664D01*
X68200Y-52421D02*
X68185Y-52407D01*
X68171Y-52378D01*
X68171Y-52307D01*
X68185Y-52278D01*
X68200Y-52264D01*
X68228Y-52250D01*
X68257Y-52250D01*
X68300Y-52264D01*
X68471Y-52435D01*
X68471Y-52250D01*
X68171Y-50199D02*
X68385Y-50199D01*
X68428Y-50214D01*
X68457Y-50242D01*
X68471Y-50285D01*
X68471Y-50314D01*
X68271Y-49928D02*
X68471Y-49928D01*
X68157Y-50000D02*
X68371Y-50071D01*
X68371Y-49885D01*
G54D18*
X67674Y-31629D02*
X67960Y-31629D01*
X68017Y-31648D01*
X68055Y-31686D01*
X68074Y-31743D01*
X68074Y-31781D01*
X68074Y-31229D02*
X68074Y-31457D01*
X68074Y-31343D02*
X67674Y-31343D01*
X67732Y-31381D01*
X67770Y-31419D01*
X67789Y-31457D01*
G54D21*
X67964Y-35616D02*
X67964Y-35483D01*
X68173Y-35426D02*
X68173Y-35616D01*
X67773Y-35616D01*
X67773Y-35426D01*
X67773Y-35293D02*
X68173Y-35026D01*
X67773Y-35026D02*
X68173Y-35293D01*
X68173Y-34874D02*
X67773Y-34874D01*
X67773Y-34721D01*
X67792Y-34683D01*
X67812Y-34664D01*
X67850Y-34645D01*
X67907Y-34645D01*
X67945Y-34664D01*
X67964Y-34683D01*
X67983Y-34721D01*
X67983Y-34874D01*
X68059Y-34493D02*
X68059Y-34302D01*
X68173Y-34531D02*
X67773Y-34397D01*
X68173Y-34264D01*
X68173Y-34131D02*
X67773Y-34131D01*
X68173Y-33902D01*
X67773Y-33902D01*
X68154Y-33731D02*
X68173Y-33674D01*
X68173Y-33578D01*
X68154Y-33540D01*
X68135Y-33521D01*
X68097Y-33502D01*
X68059Y-33502D01*
X68021Y-33521D01*
X68002Y-33540D01*
X67983Y-33578D01*
X67964Y-33655D01*
X67945Y-33693D01*
X67926Y-33712D01*
X67888Y-33731D01*
X67850Y-33731D01*
X67812Y-33712D01*
X67792Y-33693D01*
X67773Y-33655D01*
X67773Y-33559D01*
X67792Y-33502D01*
X68173Y-33331D02*
X67773Y-33331D01*
X67773Y-33064D02*
X67773Y-32988D01*
X67792Y-32950D01*
X67831Y-32912D01*
X67907Y-32893D01*
X68040Y-32893D01*
X68116Y-32912D01*
X68154Y-32950D01*
X68173Y-32988D01*
X68173Y-33064D01*
X68154Y-33102D01*
X68116Y-33140D01*
X68040Y-33159D01*
X67907Y-33159D01*
X67831Y-33140D01*
X67792Y-33102D01*
X67773Y-33064D01*
X68173Y-32721D02*
X67773Y-32721D01*
X68173Y-32493D01*
X67773Y-32493D01*
G54D20*
X38161Y-35415D02*
X38004Y-35415D01*
X38004Y-35378D01*
X38012Y-35356D01*
X38026Y-35341D01*
X38041Y-35333D01*
X38071Y-35326D01*
X38094Y-35326D01*
X38124Y-35333D01*
X38139Y-35341D01*
X38154Y-35356D01*
X38161Y-35378D01*
X38161Y-35415D01*
X38004Y-35273D02*
X38004Y-35169D01*
X38161Y-35236D01*
X37311Y-24915D02*
X37154Y-24915D01*
X37154Y-24878D01*
X37162Y-24856D01*
X37176Y-24841D01*
X37191Y-24833D01*
X37221Y-24826D01*
X37244Y-24826D01*
X37274Y-24833D01*
X37289Y-24841D01*
X37304Y-24856D01*
X37311Y-24878D01*
X37311Y-24915D01*
X37154Y-24691D02*
X37154Y-24721D01*
X37162Y-24736D01*
X37169Y-24743D01*
X37191Y-24758D01*
X37221Y-24766D01*
X37281Y-24766D01*
X37296Y-24758D01*
X37304Y-24751D01*
X37311Y-24736D01*
X37311Y-24706D01*
X37304Y-24691D01*
X37296Y-24684D01*
X37281Y-24676D01*
X37244Y-24676D01*
X37229Y-24684D01*
X37221Y-24691D01*
X37214Y-24706D01*
X37214Y-24736D01*
X37221Y-24751D01*
X37229Y-24758D01*
X37244Y-24766D01*
X44361Y-33715D02*
X44204Y-33715D01*
X44204Y-33678D01*
X44212Y-33656D01*
X44226Y-33641D01*
X44241Y-33633D01*
X44271Y-33626D01*
X44294Y-33626D01*
X44324Y-33633D01*
X44339Y-33641D01*
X44354Y-33656D01*
X44361Y-33678D01*
X44361Y-33715D01*
X44361Y-33551D02*
X44361Y-33521D01*
X44354Y-33506D01*
X44346Y-33499D01*
X44324Y-33484D01*
X44294Y-33476D01*
X44234Y-33476D01*
X44219Y-33484D01*
X44212Y-33491D01*
X44204Y-33506D01*
X44204Y-33536D01*
X44212Y-33551D01*
X44219Y-33558D01*
X44234Y-33566D01*
X44271Y-33566D01*
X44286Y-33558D01*
X44294Y-33551D01*
X44301Y-33536D01*
X44301Y-33506D01*
X44294Y-33491D01*
X44286Y-33484D01*
X44271Y-33476D01*
X55661Y-33590D02*
X55504Y-33590D01*
X55504Y-33553D01*
X55512Y-33530D01*
X55526Y-33515D01*
X55541Y-33508D01*
X55571Y-33500D01*
X55594Y-33500D01*
X55624Y-33508D01*
X55639Y-33515D01*
X55654Y-33530D01*
X55661Y-33553D01*
X55661Y-33590D01*
X55661Y-33351D02*
X55661Y-33441D01*
X55661Y-33396D02*
X55504Y-33396D01*
X55526Y-33411D01*
X55541Y-33426D01*
X55549Y-33441D01*
X55519Y-33291D02*
X55512Y-33284D01*
X55504Y-33269D01*
X55504Y-33231D01*
X55512Y-33216D01*
X55519Y-33209D01*
X55534Y-33201D01*
X55549Y-33201D01*
X55571Y-33209D01*
X55661Y-33299D01*
X55661Y-33201D01*
G54D21*
X39295Y-34993D02*
X39523Y-34993D01*
X39409Y-35493D02*
X39409Y-34993D01*
X39885Y-35493D02*
X39752Y-35255D01*
X39657Y-35493D02*
X39657Y-34993D01*
X39809Y-34993D01*
X39847Y-35017D01*
X39866Y-35041D01*
X39885Y-35088D01*
X39885Y-35160D01*
X39866Y-35207D01*
X39847Y-35231D01*
X39809Y-35255D01*
X39657Y-35255D01*
X40228Y-35160D02*
X40228Y-35493D01*
X40133Y-34969D02*
X40038Y-35326D01*
X40285Y-35326D01*
X38076Y-36870D02*
X38076Y-36470D01*
X38266Y-36870D02*
X38266Y-36470D01*
X38419Y-36470D01*
X38457Y-36489D01*
X38476Y-36509D01*
X38495Y-36547D01*
X38495Y-36604D01*
X38476Y-36642D01*
X38457Y-36661D01*
X38419Y-36680D01*
X38266Y-36680D01*
X38666Y-36870D02*
X38666Y-36470D01*
X38761Y-36470D01*
X38819Y-36489D01*
X38857Y-36528D01*
X38876Y-36566D01*
X38895Y-36642D01*
X38895Y-36699D01*
X38876Y-36775D01*
X38857Y-36813D01*
X38819Y-36851D01*
X38761Y-36870D01*
X38666Y-36870D01*
X39142Y-36470D02*
X39180Y-36470D01*
X39219Y-36489D01*
X39238Y-36509D01*
X39257Y-36547D01*
X39276Y-36623D01*
X39276Y-36718D01*
X39257Y-36794D01*
X39238Y-36832D01*
X39219Y-36851D01*
X39180Y-36870D01*
X39142Y-36870D01*
X39104Y-36851D01*
X39085Y-36832D01*
X39066Y-36794D01*
X39047Y-36718D01*
X39047Y-36623D01*
X39066Y-36547D01*
X39085Y-36509D01*
X39104Y-36489D01*
X39142Y-36470D01*
X39409Y-36470D02*
X39657Y-36470D01*
X39523Y-36623D01*
X39580Y-36623D01*
X39619Y-36642D01*
X39638Y-36661D01*
X39657Y-36699D01*
X39657Y-36794D01*
X39638Y-36832D01*
X39619Y-36851D01*
X39580Y-36870D01*
X39466Y-36870D01*
X39428Y-36851D01*
X39409Y-36832D01*
X40000Y-36470D02*
X39923Y-36470D01*
X39885Y-36489D01*
X39866Y-36509D01*
X39828Y-36566D01*
X39809Y-36642D01*
X39809Y-36794D01*
X39828Y-36832D01*
X39847Y-36851D01*
X39885Y-36870D01*
X39961Y-36870D01*
X40000Y-36851D01*
X40019Y-36832D01*
X40038Y-36794D01*
X40038Y-36699D01*
X40019Y-36661D01*
X40000Y-36642D01*
X39961Y-36623D01*
X39885Y-36623D01*
X39847Y-36642D01*
X39828Y-36661D01*
X39809Y-36699D01*
X40209Y-36870D02*
X40209Y-36470D01*
X40438Y-36870D01*
X40438Y-36470D01*
X40704Y-36470D02*
X40742Y-36470D01*
X40780Y-36489D01*
X40800Y-36509D01*
X40819Y-36547D01*
X40838Y-36623D01*
X40838Y-36718D01*
X40819Y-36794D01*
X40800Y-36832D01*
X40780Y-36851D01*
X40742Y-36870D01*
X40704Y-36870D01*
X40666Y-36851D01*
X40647Y-36832D01*
X40628Y-36794D01*
X40609Y-36718D01*
X40609Y-36623D01*
X40628Y-36547D01*
X40647Y-36509D01*
X40666Y-36489D01*
X40704Y-36470D01*
X41180Y-36604D02*
X41180Y-36870D01*
X41085Y-36451D02*
X40990Y-36737D01*
X41238Y-36737D01*
X41580Y-36870D02*
X41390Y-36870D01*
X41390Y-36470D01*
G54D24*
X62404Y-37382D02*
X62404Y-37476D01*
X62207Y-37476D01*
X62404Y-37213D02*
X62404Y-37326D01*
X62404Y-37270D02*
X62207Y-37270D01*
X62235Y-37289D01*
X62254Y-37307D01*
X62264Y-37326D01*
X58604Y-37382D02*
X58604Y-37476D01*
X58407Y-37476D01*
X58492Y-37289D02*
X58482Y-37307D01*
X58473Y-37317D01*
X58454Y-37326D01*
X58445Y-37326D01*
X58426Y-37317D01*
X58417Y-37307D01*
X58407Y-37289D01*
X58407Y-37251D01*
X58417Y-37232D01*
X58426Y-37223D01*
X58445Y-37213D01*
X58454Y-37213D01*
X58473Y-37223D01*
X58482Y-37232D01*
X58492Y-37251D01*
X58492Y-37289D01*
X58501Y-37307D01*
X58510Y-37317D01*
X58529Y-37326D01*
X58567Y-37326D01*
X58585Y-37317D01*
X58595Y-37307D01*
X58604Y-37289D01*
X58604Y-37251D01*
X58595Y-37232D01*
X58585Y-37223D01*
X58567Y-37213D01*
X58529Y-37213D01*
X58510Y-37223D01*
X58501Y-37232D01*
X58492Y-37251D01*
X47504Y-37526D02*
X47504Y-37620D01*
X47307Y-37620D01*
X47504Y-37357D02*
X47504Y-37470D01*
X47504Y-37414D02*
X47307Y-37414D01*
X47335Y-37432D01*
X47354Y-37451D01*
X47364Y-37470D01*
X47326Y-37282D02*
X47317Y-37273D01*
X47307Y-37254D01*
X47307Y-37207D01*
X47317Y-37188D01*
X47326Y-37179D01*
X47345Y-37170D01*
X47364Y-37170D01*
X47392Y-37179D01*
X47504Y-37292D01*
X47504Y-37170D01*
X51304Y-37526D02*
X51304Y-37620D01*
X51107Y-37620D01*
X51304Y-37357D02*
X51304Y-37470D01*
X51304Y-37414D02*
X51107Y-37414D01*
X51135Y-37432D01*
X51154Y-37451D01*
X51164Y-37470D01*
X51304Y-37170D02*
X51304Y-37282D01*
X51304Y-37226D02*
X51107Y-37226D01*
X51135Y-37245D01*
X51154Y-37263D01*
X51164Y-37282D01*
X47323Y-23360D02*
X47313Y-23370D01*
X47285Y-23379D01*
X47267Y-23379D01*
X47238Y-23370D01*
X47220Y-23351D01*
X47210Y-23332D01*
X47201Y-23295D01*
X47201Y-23267D01*
X47210Y-23229D01*
X47220Y-23210D01*
X47238Y-23192D01*
X47267Y-23182D01*
X47285Y-23182D01*
X47313Y-23192D01*
X47323Y-23201D01*
X47417Y-23379D02*
X47454Y-23379D01*
X47473Y-23370D01*
X47482Y-23360D01*
X47501Y-23332D01*
X47510Y-23295D01*
X47510Y-23220D01*
X47501Y-23201D01*
X47492Y-23192D01*
X47473Y-23182D01*
X47435Y-23182D01*
X47417Y-23192D01*
X47407Y-23201D01*
X47398Y-23220D01*
X47398Y-23267D01*
X47407Y-23285D01*
X47417Y-23295D01*
X47435Y-23304D01*
X47473Y-23304D01*
X47492Y-23295D01*
X47501Y-23285D01*
X47510Y-23267D01*
X47586Y-23201D02*
X47595Y-23192D01*
X47614Y-23182D01*
X47661Y-23182D01*
X47679Y-23192D01*
X47689Y-23201D01*
X47698Y-23220D01*
X47698Y-23239D01*
X47689Y-23267D01*
X47576Y-23379D01*
X47698Y-23379D01*
X45510Y-43476D02*
X45520Y-43486D01*
X45529Y-43514D01*
X45529Y-43532D01*
X45520Y-43561D01*
X45501Y-43579D01*
X45482Y-43589D01*
X45445Y-43598D01*
X45417Y-43598D01*
X45379Y-43589D01*
X45360Y-43579D01*
X45342Y-43561D01*
X45332Y-43532D01*
X45332Y-43514D01*
X45342Y-43486D01*
X45351Y-43476D01*
X45332Y-43410D02*
X45332Y-43289D01*
X45407Y-43354D01*
X45407Y-43326D01*
X45417Y-43307D01*
X45426Y-43298D01*
X45445Y-43289D01*
X45492Y-43289D01*
X45510Y-43298D01*
X45520Y-43307D01*
X45529Y-43326D01*
X45529Y-43382D01*
X45520Y-43401D01*
X45510Y-43410D01*
X45351Y-43213D02*
X45342Y-43204D01*
X45332Y-43185D01*
X45332Y-43138D01*
X45342Y-43120D01*
X45351Y-43110D01*
X45370Y-43101D01*
X45389Y-43101D01*
X45417Y-43110D01*
X45529Y-43223D01*
X45529Y-43101D01*
X56960Y-43426D02*
X56970Y-43436D01*
X56979Y-43464D01*
X56979Y-43482D01*
X56970Y-43511D01*
X56951Y-43529D01*
X56932Y-43539D01*
X56895Y-43548D01*
X56867Y-43548D01*
X56829Y-43539D01*
X56810Y-43529D01*
X56792Y-43511D01*
X56782Y-43482D01*
X56782Y-43464D01*
X56792Y-43436D01*
X56801Y-43426D01*
X56801Y-43351D02*
X56792Y-43342D01*
X56782Y-43323D01*
X56782Y-43276D01*
X56792Y-43257D01*
X56801Y-43248D01*
X56820Y-43239D01*
X56839Y-43239D01*
X56867Y-43248D01*
X56979Y-43360D01*
X56979Y-43239D01*
X56801Y-43163D02*
X56792Y-43154D01*
X56782Y-43135D01*
X56782Y-43088D01*
X56792Y-43070D01*
X56801Y-43060D01*
X56820Y-43051D01*
X56839Y-43051D01*
X56867Y-43060D01*
X56979Y-43173D01*
X56979Y-43051D01*
X34110Y-40026D02*
X34120Y-40036D01*
X34129Y-40064D01*
X34129Y-40082D01*
X34120Y-40111D01*
X34101Y-40129D01*
X34082Y-40139D01*
X34045Y-40148D01*
X34017Y-40148D01*
X33979Y-40139D01*
X33960Y-40129D01*
X33942Y-40111D01*
X33932Y-40082D01*
X33932Y-40064D01*
X33942Y-40036D01*
X33951Y-40026D01*
X34129Y-39932D02*
X34129Y-39895D01*
X34120Y-39876D01*
X34110Y-39867D01*
X34082Y-39848D01*
X34045Y-39839D01*
X33970Y-39839D01*
X33951Y-39848D01*
X33942Y-39857D01*
X33932Y-39876D01*
X33932Y-39914D01*
X33942Y-39932D01*
X33951Y-39942D01*
X33970Y-39951D01*
X34017Y-39951D01*
X34035Y-39942D01*
X34045Y-39932D01*
X34054Y-39914D01*
X34054Y-39876D01*
X34045Y-39857D01*
X34035Y-39848D01*
X34017Y-39839D01*
X33998Y-39670D02*
X34129Y-39670D01*
X33923Y-39717D02*
X34064Y-39763D01*
X34064Y-39642D01*
G54D25*
X36026Y-23975D02*
X36032Y-23981D01*
X36037Y-23998D01*
X36037Y-24009D01*
X36032Y-24026D01*
X36020Y-24037D01*
X36009Y-24043D01*
X35987Y-24048D01*
X35970Y-24048D01*
X35947Y-24043D01*
X35936Y-24037D01*
X35925Y-24026D01*
X35919Y-24009D01*
X35919Y-23998D01*
X35925Y-23981D01*
X35931Y-23975D01*
X36037Y-23863D02*
X36037Y-23930D01*
X36037Y-23897D02*
X35919Y-23897D01*
X35936Y-23908D01*
X35947Y-23919D01*
X35953Y-23930D01*
X35970Y-23796D02*
X35964Y-23807D01*
X35959Y-23812D01*
X35947Y-23818D01*
X35942Y-23818D01*
X35931Y-23812D01*
X35925Y-23807D01*
X35919Y-23796D01*
X35919Y-23773D01*
X35925Y-23762D01*
X35931Y-23756D01*
X35942Y-23751D01*
X35947Y-23751D01*
X35959Y-23756D01*
X35964Y-23762D01*
X35970Y-23773D01*
X35970Y-23796D01*
X35975Y-23807D01*
X35981Y-23812D01*
X35992Y-23818D01*
X36015Y-23818D01*
X36026Y-23812D01*
X36032Y-23807D01*
X36037Y-23796D01*
X36037Y-23773D01*
X36032Y-23762D01*
X36026Y-23756D01*
X36015Y-23751D01*
X35992Y-23751D01*
X35981Y-23756D01*
X35975Y-23762D01*
X35970Y-23773D01*
X36026Y-35375D02*
X36032Y-35381D01*
X36037Y-35398D01*
X36037Y-35409D01*
X36032Y-35426D01*
X36020Y-35437D01*
X36009Y-35443D01*
X35987Y-35448D01*
X35970Y-35448D01*
X35947Y-35443D01*
X35936Y-35437D01*
X35925Y-35426D01*
X35919Y-35409D01*
X35919Y-35398D01*
X35925Y-35381D01*
X35931Y-35375D01*
X36037Y-35263D02*
X36037Y-35330D01*
X36037Y-35297D02*
X35919Y-35297D01*
X35936Y-35308D01*
X35947Y-35319D01*
X35953Y-35330D01*
X36037Y-35207D02*
X36037Y-35184D01*
X36032Y-35173D01*
X36026Y-35167D01*
X36009Y-35156D01*
X35987Y-35151D01*
X35942Y-35151D01*
X35931Y-35156D01*
X35925Y-35162D01*
X35919Y-35173D01*
X35919Y-35196D01*
X35925Y-35207D01*
X35931Y-35212D01*
X35942Y-35218D01*
X35970Y-35218D01*
X35981Y-35212D01*
X35987Y-35207D01*
X35992Y-35196D01*
X35992Y-35173D01*
X35987Y-35162D01*
X35981Y-35156D01*
X35970Y-35151D01*
G54D26*
X45574Y-44100D02*
X45578Y-44104D01*
X45581Y-44115D01*
X45581Y-44123D01*
X45578Y-44134D01*
X45570Y-44142D01*
X45563Y-44145D01*
X45548Y-44149D01*
X45536Y-44149D01*
X45521Y-44145D01*
X45514Y-44142D01*
X45506Y-44134D01*
X45502Y-44123D01*
X45502Y-44115D01*
X45506Y-44104D01*
X45510Y-44100D01*
X45502Y-44074D02*
X45502Y-44021D01*
X45581Y-44055D01*
X45502Y-43999D02*
X45502Y-43946D01*
X45581Y-43980D01*
X57024Y-44150D02*
X57028Y-44154D01*
X57031Y-44165D01*
X57031Y-44173D01*
X57028Y-44184D01*
X57020Y-44192D01*
X57013Y-44195D01*
X56998Y-44199D01*
X56986Y-44199D01*
X56971Y-44195D01*
X56964Y-44192D01*
X56956Y-44184D01*
X56952Y-44173D01*
X56952Y-44165D01*
X56956Y-44154D01*
X56960Y-44150D01*
X56952Y-44124D02*
X56952Y-44071D01*
X57031Y-44105D01*
X56952Y-44004D02*
X56952Y-44041D01*
X56990Y-44045D01*
X56986Y-44041D01*
X56983Y-44034D01*
X56983Y-44015D01*
X56986Y-44007D01*
X56990Y-44004D01*
X56998Y-44000D01*
X57016Y-44000D01*
X57024Y-44004D01*
X57028Y-44007D01*
X57031Y-44015D01*
X57031Y-44034D01*
X57028Y-44041D01*
X57024Y-44045D01*
X51924Y-47800D02*
X51928Y-47804D01*
X51931Y-47815D01*
X51931Y-47823D01*
X51928Y-47834D01*
X51920Y-47842D01*
X51913Y-47845D01*
X51898Y-47849D01*
X51886Y-47849D01*
X51871Y-47845D01*
X51864Y-47842D01*
X51856Y-47834D01*
X51852Y-47823D01*
X51852Y-47815D01*
X51856Y-47804D01*
X51860Y-47800D01*
X51852Y-47729D02*
X51852Y-47766D01*
X51890Y-47770D01*
X51886Y-47766D01*
X51883Y-47759D01*
X51883Y-47740D01*
X51886Y-47733D01*
X51890Y-47729D01*
X51898Y-47725D01*
X51916Y-47725D01*
X51924Y-47729D01*
X51928Y-47733D01*
X51931Y-47740D01*
X51931Y-47759D01*
X51928Y-47766D01*
X51924Y-47770D01*
X51852Y-47657D02*
X51852Y-47672D01*
X51856Y-47680D01*
X51860Y-47684D01*
X51871Y-47691D01*
X51886Y-47695D01*
X51916Y-47695D01*
X51924Y-47691D01*
X51928Y-47687D01*
X51931Y-47680D01*
X51931Y-47665D01*
X51928Y-47657D01*
X51924Y-47654D01*
X51916Y-47650D01*
X51898Y-47650D01*
X51890Y-47654D01*
X51886Y-47657D01*
X51883Y-47665D01*
X51883Y-47680D01*
X51886Y-47687D01*
X51890Y-47691D01*
X51898Y-47695D01*
X62574Y-47600D02*
X62578Y-47604D01*
X62581Y-47615D01*
X62581Y-47623D01*
X62578Y-47634D01*
X62570Y-47642D01*
X62563Y-47645D01*
X62548Y-47649D01*
X62536Y-47649D01*
X62521Y-47645D01*
X62514Y-47642D01*
X62506Y-47634D01*
X62502Y-47623D01*
X62502Y-47615D01*
X62506Y-47604D01*
X62510Y-47600D01*
X62581Y-47525D02*
X62581Y-47570D01*
X62581Y-47548D02*
X62502Y-47548D01*
X62514Y-47555D01*
X62521Y-47563D01*
X62525Y-47570D01*
X62529Y-47457D02*
X62581Y-47457D01*
X62499Y-47476D02*
X62555Y-47495D01*
X62555Y-47446D01*
X54474Y-33450D02*
X54478Y-33454D01*
X54481Y-33465D01*
X54481Y-33473D01*
X54478Y-33484D01*
X54470Y-33492D01*
X54463Y-33495D01*
X54448Y-33499D01*
X54436Y-33499D01*
X54421Y-33495D01*
X54414Y-33492D01*
X54406Y-33484D01*
X54402Y-33473D01*
X54402Y-33465D01*
X54406Y-33454D01*
X54410Y-33450D01*
X54429Y-33383D02*
X54481Y-33383D01*
X54399Y-33401D02*
X54455Y-33420D01*
X54455Y-33371D01*
X54402Y-33326D02*
X54402Y-33319D01*
X54406Y-33311D01*
X54410Y-33307D01*
X54418Y-33304D01*
X54433Y-33300D01*
X54451Y-33300D01*
X54466Y-33304D01*
X54474Y-33307D01*
X54478Y-33311D01*
X54481Y-33319D01*
X54481Y-33326D01*
X54478Y-33334D01*
X54474Y-33337D01*
X54466Y-33341D01*
X54451Y-33345D01*
X54433Y-33345D01*
X54418Y-33341D01*
X54410Y-33337D01*
X54406Y-33334D01*
X54402Y-33326D01*
X43174Y-33650D02*
X43178Y-33654D01*
X43181Y-33665D01*
X43181Y-33673D01*
X43178Y-33684D01*
X43170Y-33692D01*
X43163Y-33695D01*
X43148Y-33699D01*
X43136Y-33699D01*
X43121Y-33695D01*
X43114Y-33692D01*
X43106Y-33684D01*
X43102Y-33673D01*
X43102Y-33665D01*
X43106Y-33654D01*
X43110Y-33650D01*
X43129Y-33583D02*
X43181Y-33583D01*
X43099Y-33601D02*
X43155Y-33620D01*
X43155Y-33571D01*
X43181Y-33500D02*
X43181Y-33545D01*
X43181Y-33522D02*
X43102Y-33522D01*
X43114Y-33530D01*
X43121Y-33537D01*
X43125Y-33545D01*
X66324Y-26250D02*
X66328Y-26254D01*
X66331Y-26265D01*
X66331Y-26273D01*
X66328Y-26284D01*
X66320Y-26292D01*
X66313Y-26295D01*
X66298Y-26299D01*
X66286Y-26299D01*
X66271Y-26295D01*
X66264Y-26292D01*
X66256Y-26284D01*
X66252Y-26273D01*
X66252Y-26265D01*
X66256Y-26254D01*
X66260Y-26250D01*
X66252Y-26179D02*
X66252Y-26216D01*
X66290Y-26220D01*
X66286Y-26216D01*
X66283Y-26209D01*
X66283Y-26190D01*
X66286Y-26183D01*
X66290Y-26179D01*
X66298Y-26175D01*
X66316Y-26175D01*
X66324Y-26179D01*
X66328Y-26183D01*
X66331Y-26190D01*
X66331Y-26209D01*
X66328Y-26216D01*
X66324Y-26220D01*
X66252Y-26104D02*
X66252Y-26141D01*
X66290Y-26145D01*
X66286Y-26141D01*
X66283Y-26134D01*
X66283Y-26115D01*
X66286Y-26107D01*
X66290Y-26104D01*
X66298Y-26100D01*
X66316Y-26100D01*
X66324Y-26104D01*
X66328Y-26107D01*
X66331Y-26115D01*
X66331Y-26134D01*
X66328Y-26141D01*
X66324Y-26145D01*
X53324Y-48450D02*
X53328Y-48454D01*
X53331Y-48465D01*
X53331Y-48473D01*
X53328Y-48484D01*
X53320Y-48492D01*
X53313Y-48495D01*
X53298Y-48499D01*
X53286Y-48499D01*
X53271Y-48495D01*
X53264Y-48492D01*
X53256Y-48484D01*
X53252Y-48473D01*
X53252Y-48465D01*
X53256Y-48454D01*
X53260Y-48450D01*
X53252Y-48424D02*
X53252Y-48375D01*
X53283Y-48401D01*
X53283Y-48390D01*
X53286Y-48383D01*
X53290Y-48379D01*
X53298Y-48375D01*
X53316Y-48375D01*
X53324Y-48379D01*
X53328Y-48383D01*
X53331Y-48390D01*
X53331Y-48413D01*
X53328Y-48420D01*
X53324Y-48424D01*
X53252Y-48307D02*
X53252Y-48322D01*
X53256Y-48330D01*
X53260Y-48334D01*
X53271Y-48341D01*
X53286Y-48345D01*
X53316Y-48345D01*
X53324Y-48341D01*
X53328Y-48337D01*
X53331Y-48330D01*
X53331Y-48315D01*
X53328Y-48307D01*
X53324Y-48304D01*
X53316Y-48300D01*
X53298Y-48300D01*
X53290Y-48304D01*
X53286Y-48307D01*
X53283Y-48315D01*
X53283Y-48330D01*
X53286Y-48337D01*
X53290Y-48341D01*
X53298Y-48345D01*
X58549Y-47624D02*
X58545Y-47628D01*
X58534Y-47631D01*
X58526Y-47631D01*
X58515Y-47628D01*
X58507Y-47620D01*
X58504Y-47613D01*
X58500Y-47598D01*
X58500Y-47586D01*
X58504Y-47571D01*
X58507Y-47564D01*
X58515Y-47556D01*
X58526Y-47552D01*
X58534Y-47552D01*
X58545Y-47556D01*
X58549Y-47560D01*
X58579Y-47560D02*
X58583Y-47556D01*
X58590Y-47552D01*
X58609Y-47552D01*
X58616Y-47556D01*
X58620Y-47560D01*
X58624Y-47568D01*
X58624Y-47575D01*
X58620Y-47586D01*
X58575Y-47631D01*
X58624Y-47631D01*
X58673Y-47552D02*
X58680Y-47552D01*
X58688Y-47556D01*
X58692Y-47560D01*
X58695Y-47568D01*
X58699Y-47583D01*
X58699Y-47601D01*
X58695Y-47616D01*
X58692Y-47624D01*
X58688Y-47628D01*
X58680Y-47631D01*
X58673Y-47631D01*
X58665Y-47628D01*
X58662Y-47624D01*
X58658Y-47616D01*
X58654Y-47601D01*
X58654Y-47583D01*
X58658Y-47568D01*
X58662Y-47560D01*
X58665Y-47556D01*
X58673Y-47552D01*
X58549Y-46924D02*
X58545Y-46928D01*
X58534Y-46931D01*
X58526Y-46931D01*
X58515Y-46928D01*
X58507Y-46920D01*
X58504Y-46913D01*
X58500Y-46898D01*
X58500Y-46886D01*
X58504Y-46871D01*
X58507Y-46864D01*
X58515Y-46856D01*
X58526Y-46852D01*
X58534Y-46852D01*
X58545Y-46856D01*
X58549Y-46860D01*
X58579Y-46860D02*
X58583Y-46856D01*
X58590Y-46852D01*
X58609Y-46852D01*
X58616Y-46856D01*
X58620Y-46860D01*
X58624Y-46868D01*
X58624Y-46875D01*
X58620Y-46886D01*
X58575Y-46931D01*
X58624Y-46931D01*
X58692Y-46879D02*
X58692Y-46931D01*
X58673Y-46849D02*
X58654Y-46905D01*
X58703Y-46905D01*
X63874Y-48200D02*
X63878Y-48204D01*
X63881Y-48215D01*
X63881Y-48223D01*
X63878Y-48234D01*
X63870Y-48242D01*
X63863Y-48245D01*
X63848Y-48249D01*
X63836Y-48249D01*
X63821Y-48245D01*
X63814Y-48242D01*
X63806Y-48234D01*
X63802Y-48223D01*
X63802Y-48215D01*
X63806Y-48204D01*
X63810Y-48200D01*
X63810Y-48170D02*
X63806Y-48166D01*
X63802Y-48159D01*
X63802Y-48140D01*
X63806Y-48133D01*
X63810Y-48129D01*
X63818Y-48125D01*
X63825Y-48125D01*
X63836Y-48129D01*
X63881Y-48174D01*
X63881Y-48125D01*
X63802Y-48057D02*
X63802Y-48072D01*
X63806Y-48080D01*
X63810Y-48084D01*
X63821Y-48091D01*
X63836Y-48095D01*
X63866Y-48095D01*
X63874Y-48091D01*
X63878Y-48087D01*
X63881Y-48080D01*
X63881Y-48065D01*
X63878Y-48057D01*
X63874Y-48054D01*
X63866Y-48050D01*
X63848Y-48050D01*
X63840Y-48054D01*
X63836Y-48057D01*
X63833Y-48065D01*
X63833Y-48080D01*
X63836Y-48087D01*
X63840Y-48091D01*
X63848Y-48095D01*
X47199Y-46824D02*
X47195Y-46828D01*
X47184Y-46831D01*
X47176Y-46831D01*
X47165Y-46828D01*
X47157Y-46820D01*
X47154Y-46813D01*
X47150Y-46798D01*
X47150Y-46786D01*
X47154Y-46771D01*
X47157Y-46764D01*
X47165Y-46756D01*
X47176Y-46752D01*
X47184Y-46752D01*
X47195Y-46756D01*
X47199Y-46760D01*
X47225Y-46752D02*
X47274Y-46752D01*
X47248Y-46783D01*
X47259Y-46783D01*
X47266Y-46786D01*
X47270Y-46790D01*
X47274Y-46798D01*
X47274Y-46816D01*
X47270Y-46824D01*
X47266Y-46828D01*
X47259Y-46831D01*
X47236Y-46831D01*
X47229Y-46828D01*
X47225Y-46824D01*
X47342Y-46779D02*
X47342Y-46831D01*
X47323Y-46749D02*
X47304Y-46805D01*
X47353Y-46805D01*
X47199Y-47624D02*
X47195Y-47628D01*
X47184Y-47631D01*
X47176Y-47631D01*
X47165Y-47628D01*
X47157Y-47620D01*
X47154Y-47613D01*
X47150Y-47598D01*
X47150Y-47586D01*
X47154Y-47571D01*
X47157Y-47564D01*
X47165Y-47556D01*
X47176Y-47552D01*
X47184Y-47552D01*
X47195Y-47556D01*
X47199Y-47560D01*
X47225Y-47552D02*
X47274Y-47552D01*
X47248Y-47583D01*
X47259Y-47583D01*
X47266Y-47586D01*
X47270Y-47590D01*
X47274Y-47598D01*
X47274Y-47616D01*
X47270Y-47624D01*
X47266Y-47628D01*
X47259Y-47631D01*
X47236Y-47631D01*
X47229Y-47628D01*
X47225Y-47624D01*
X47323Y-47552D02*
X47330Y-47552D01*
X47338Y-47556D01*
X47342Y-47560D01*
X47345Y-47568D01*
X47349Y-47583D01*
X47349Y-47601D01*
X47345Y-47616D01*
X47342Y-47624D01*
X47338Y-47628D01*
X47330Y-47631D01*
X47323Y-47631D01*
X47315Y-47628D01*
X47312Y-47624D01*
X47308Y-47616D01*
X47304Y-47601D01*
X47304Y-47583D01*
X47308Y-47568D01*
X47312Y-47560D01*
X47315Y-47556D01*
X47323Y-47552D01*
G54D21*
X33461Y-53223D02*
X33747Y-53223D01*
X33804Y-53242D01*
X33842Y-53280D01*
X33861Y-53338D01*
X33861Y-53376D01*
X33861Y-52823D02*
X33861Y-53052D01*
X33861Y-52938D02*
X33461Y-52938D01*
X33519Y-52976D01*
X33557Y-53014D01*
X33576Y-53052D01*
X33861Y-52633D02*
X33861Y-52557D01*
X33842Y-52519D01*
X33823Y-52500D01*
X33766Y-52461D01*
X33690Y-52442D01*
X33538Y-52442D01*
X33500Y-52461D01*
X33480Y-52480D01*
X33461Y-52519D01*
X33461Y-52595D01*
X33480Y-52633D01*
X33500Y-52652D01*
X33538Y-52671D01*
X33633Y-52671D01*
X33671Y-52652D01*
X33690Y-52633D01*
X33709Y-52595D01*
X33709Y-52519D01*
X33690Y-52480D01*
X33671Y-52461D01*
X33633Y-52442D01*
G54D16*
X31863Y-56055D02*
X32077Y-56055D01*
X32120Y-56070D01*
X32149Y-56098D01*
X32163Y-56141D01*
X32163Y-56170D01*
X32163Y-55755D02*
X32163Y-55927D01*
X32163Y-55841D02*
X31863Y-55841D01*
X31906Y-55870D01*
X31934Y-55898D01*
X31949Y-55927D01*
X32163Y-55470D02*
X32163Y-55641D01*
X32163Y-55555D02*
X31863Y-55555D01*
X31906Y-55584D01*
X31934Y-55613D01*
X31949Y-55641D01*
X35916Y-33761D02*
X35916Y-34047D01*
X35897Y-34104D01*
X35859Y-34142D01*
X35802Y-34161D01*
X35764Y-34161D01*
X36297Y-33761D02*
X36107Y-33761D01*
X36088Y-33952D01*
X36107Y-33933D01*
X36145Y-33914D01*
X36240Y-33914D01*
X36278Y-33933D01*
X36297Y-33952D01*
X36316Y-33990D01*
X36316Y-34085D01*
X36297Y-34123D01*
X36278Y-34142D01*
X36240Y-34161D01*
X36145Y-34161D01*
X36107Y-34142D01*
X36088Y-34123D01*
X38111Y-34102D02*
X38245Y-34102D01*
X38302Y-34311D02*
X38111Y-34311D01*
X38111Y-33911D01*
X38302Y-33911D01*
X38454Y-33950D02*
X38473Y-33930D01*
X38511Y-33911D01*
X38607Y-33911D01*
X38645Y-33930D01*
X38664Y-33950D01*
X38683Y-33988D01*
X38683Y-34026D01*
X38664Y-34083D01*
X38435Y-34311D01*
X38683Y-34311D01*
X39159Y-34311D02*
X39159Y-33911D01*
X39159Y-34102D02*
X39388Y-34102D01*
X39388Y-34311D02*
X39388Y-33911D01*
X39902Y-34311D02*
X39883Y-34311D01*
X39845Y-34292D01*
X39788Y-34235D01*
X39692Y-34121D01*
X39654Y-34064D01*
X39635Y-34007D01*
X39635Y-33969D01*
X39654Y-33930D01*
X39692Y-33911D01*
X39711Y-33911D01*
X39750Y-33930D01*
X39769Y-33969D01*
X39769Y-33988D01*
X39750Y-34026D01*
X39730Y-34045D01*
X39616Y-34121D01*
X39597Y-34140D01*
X39578Y-34178D01*
X39578Y-34235D01*
X39597Y-34273D01*
X39616Y-34292D01*
X39654Y-34311D01*
X39711Y-34311D01*
X39750Y-34292D01*
X39769Y-34273D01*
X39826Y-34197D01*
X39845Y-34140D01*
X39845Y-34102D01*
X40016Y-33911D02*
X40245Y-33911D01*
X40130Y-34311D02*
X40130Y-33911D01*
X39861Y-52045D02*
X39461Y-52045D01*
X39461Y-51892D01*
X39480Y-51854D01*
X39500Y-51835D01*
X39538Y-51816D01*
X39595Y-51816D01*
X39633Y-51835D01*
X39652Y-51854D01*
X39671Y-51892D01*
X39671Y-52045D01*
X39500Y-51664D02*
X39480Y-51645D01*
X39461Y-51607D01*
X39461Y-51511D01*
X39480Y-51473D01*
X39500Y-51454D01*
X39538Y-51435D01*
X39576Y-51435D01*
X39633Y-51454D01*
X39861Y-51683D01*
X39861Y-51435D01*
X39666Y-55142D02*
X39666Y-55008D01*
X39875Y-54951D02*
X39875Y-55142D01*
X39475Y-55142D01*
X39475Y-54951D01*
X39475Y-54703D02*
X39475Y-54665D01*
X39494Y-54627D01*
X39514Y-54608D01*
X39552Y-54589D01*
X39628Y-54570D01*
X39723Y-54570D01*
X39799Y-54589D01*
X39837Y-54608D01*
X39856Y-54627D01*
X39875Y-54665D01*
X39875Y-54703D01*
X39856Y-54742D01*
X39837Y-54761D01*
X39799Y-54780D01*
X39723Y-54799D01*
X39628Y-54799D01*
X39552Y-54780D01*
X39514Y-54761D01*
X39494Y-54742D01*
X39475Y-54703D01*
X39875Y-54094D02*
X39475Y-54094D01*
X39666Y-54094D02*
X39666Y-53865D01*
X39875Y-53865D02*
X39475Y-53865D01*
X39875Y-53351D02*
X39875Y-53370D01*
X39856Y-53408D01*
X39799Y-53465D01*
X39685Y-53561D01*
X39628Y-53599D01*
X39571Y-53618D01*
X39533Y-53618D01*
X39494Y-53599D01*
X39475Y-53561D01*
X39475Y-53542D01*
X39494Y-53504D01*
X39533Y-53484D01*
X39552Y-53484D01*
X39590Y-53504D01*
X39609Y-53523D01*
X39685Y-53637D01*
X39704Y-53656D01*
X39742Y-53675D01*
X39799Y-53675D01*
X39837Y-53656D01*
X39856Y-53637D01*
X39875Y-53599D01*
X39875Y-53542D01*
X39856Y-53504D01*
X39837Y-53484D01*
X39761Y-53427D01*
X39704Y-53408D01*
X39666Y-53408D01*
X39475Y-53237D02*
X39475Y-53008D01*
X39875Y-53123D02*
X39475Y-53123D01*
X47811Y-57745D02*
X47411Y-57745D01*
X47811Y-57516D02*
X47583Y-57688D01*
X47411Y-57516D02*
X47640Y-57745D01*
X47811Y-57135D02*
X47811Y-57364D01*
X47811Y-57249D02*
X47411Y-57249D01*
X47469Y-57288D01*
X47507Y-57326D01*
X47526Y-57364D01*
X38921Y-59042D02*
X39135Y-59042D01*
X39178Y-59057D01*
X39207Y-59085D01*
X39221Y-59128D01*
X39221Y-59157D01*
X39221Y-58742D02*
X39221Y-58914D01*
X39221Y-58828D02*
X38921Y-58828D01*
X38964Y-58857D01*
X38992Y-58885D01*
X39007Y-58914D01*
X38921Y-58557D02*
X38921Y-58528D01*
X38935Y-58500D01*
X38950Y-58485D01*
X38978Y-58471D01*
X39035Y-58457D01*
X39107Y-58457D01*
X39164Y-58471D01*
X39192Y-58485D01*
X39207Y-58500D01*
X39221Y-58528D01*
X39221Y-58557D01*
X39207Y-58585D01*
X39192Y-58600D01*
X39164Y-58614D01*
X39107Y-58628D01*
X39035Y-58628D01*
X38978Y-58614D01*
X38950Y-58600D01*
X38935Y-58585D01*
X38921Y-58557D01*
G54D18*
X42102Y-19616D02*
X42459Y-19616D01*
X42530Y-19640D01*
X42578Y-19688D01*
X42602Y-19759D01*
X42602Y-19807D01*
X42102Y-19164D02*
X42102Y-19259D01*
X42126Y-19307D01*
X42150Y-19330D01*
X42221Y-19378D01*
X42316Y-19402D01*
X42507Y-19402D01*
X42554Y-19378D01*
X42578Y-19354D01*
X42602Y-19307D01*
X42602Y-19211D01*
X42578Y-19164D01*
X42554Y-19140D01*
X42507Y-19116D01*
X42388Y-19116D01*
X42340Y-19140D01*
X42316Y-19164D01*
X42292Y-19211D01*
X42292Y-19307D01*
X42316Y-19354D01*
X42340Y-19378D01*
X42388Y-19402D01*
X43728Y-20721D02*
X43752Y-20650D01*
X43752Y-20530D01*
X43728Y-20483D01*
X43704Y-20459D01*
X43657Y-20435D01*
X43609Y-20435D01*
X43561Y-20459D01*
X43538Y-20483D01*
X43514Y-20530D01*
X43490Y-20626D01*
X43466Y-20673D01*
X43442Y-20697D01*
X43395Y-20721D01*
X43347Y-20721D01*
X43300Y-20697D01*
X43276Y-20673D01*
X43252Y-20626D01*
X43252Y-20507D01*
X43276Y-20435D01*
X43752Y-20221D02*
X43252Y-20221D01*
X43252Y-20030D01*
X43276Y-19983D01*
X43300Y-19959D01*
X43347Y-19935D01*
X43419Y-19935D01*
X43466Y-19959D01*
X43490Y-19983D01*
X43514Y-20030D01*
X43514Y-20221D01*
X43609Y-19745D02*
X43609Y-19507D01*
X43752Y-19792D02*
X43252Y-19626D01*
X43752Y-19459D01*
X43752Y-19292D02*
X43252Y-19292D01*
X43252Y-19173D01*
X43276Y-19102D01*
X43323Y-19054D01*
X43371Y-19030D01*
X43466Y-19007D01*
X43538Y-19007D01*
X43633Y-19030D01*
X43680Y-19054D01*
X43728Y-19102D01*
X43752Y-19173D01*
X43752Y-19292D01*
X43490Y-18792D02*
X43490Y-18626D01*
X43752Y-18554D02*
X43752Y-18792D01*
X43252Y-18792D01*
X43252Y-18554D01*
X43752Y-18078D02*
X43752Y-18364D01*
X43752Y-18221D02*
X43252Y-18221D01*
X43323Y-18269D01*
X43371Y-18316D01*
X43395Y-18364D01*
X53802Y-19166D02*
X54159Y-19166D01*
X54230Y-19190D01*
X54278Y-19238D01*
X54302Y-19309D01*
X54302Y-19357D01*
X53802Y-18976D02*
X53802Y-18642D01*
X54302Y-18857D01*
X55178Y-20271D02*
X55202Y-20200D01*
X55202Y-20080D01*
X55178Y-20033D01*
X55154Y-20009D01*
X55107Y-19985D01*
X55059Y-19985D01*
X55011Y-20009D01*
X54988Y-20033D01*
X54964Y-20080D01*
X54940Y-20176D01*
X54916Y-20223D01*
X54892Y-20247D01*
X54845Y-20271D01*
X54797Y-20271D01*
X54750Y-20247D01*
X54726Y-20223D01*
X54702Y-20176D01*
X54702Y-20057D01*
X54726Y-19985D01*
X55202Y-19771D02*
X54702Y-19771D01*
X54702Y-19580D01*
X54726Y-19533D01*
X54750Y-19509D01*
X54797Y-19485D01*
X54869Y-19485D01*
X54916Y-19509D01*
X54940Y-19533D01*
X54964Y-19580D01*
X54964Y-19771D01*
X55059Y-19295D02*
X55059Y-19057D01*
X55202Y-19342D02*
X54702Y-19176D01*
X55202Y-19009D01*
X55202Y-18842D02*
X54702Y-18842D01*
X54702Y-18723D01*
X54726Y-18652D01*
X54773Y-18604D01*
X54821Y-18580D01*
X54916Y-18557D01*
X54988Y-18557D01*
X55083Y-18580D01*
X55130Y-18604D01*
X55178Y-18652D01*
X55202Y-18723D01*
X55202Y-18842D01*
X54940Y-18342D02*
X54940Y-18176D01*
X55202Y-18104D02*
X55202Y-18342D01*
X54702Y-18342D01*
X54702Y-18104D01*
X55202Y-17628D02*
X55202Y-17914D01*
X55202Y-17771D02*
X54702Y-17771D01*
X54773Y-17819D01*
X54821Y-17866D01*
X54845Y-17914D01*
G54D26*
X57474Y-36413D02*
X57478Y-36416D01*
X57481Y-36428D01*
X57481Y-36435D01*
X57478Y-36447D01*
X57470Y-36454D01*
X57463Y-36458D01*
X57448Y-36462D01*
X57436Y-36462D01*
X57421Y-36458D01*
X57414Y-36454D01*
X57406Y-36447D01*
X57402Y-36435D01*
X57402Y-36428D01*
X57406Y-36416D01*
X57410Y-36413D01*
X57402Y-36341D02*
X57402Y-36379D01*
X57440Y-36383D01*
X57436Y-36379D01*
X57433Y-36371D01*
X57433Y-36352D01*
X57436Y-36345D01*
X57440Y-36341D01*
X57448Y-36337D01*
X57466Y-36337D01*
X57474Y-36341D01*
X57478Y-36345D01*
X57481Y-36352D01*
X57481Y-36371D01*
X57478Y-36379D01*
X57474Y-36383D01*
X60186Y-34674D02*
X60183Y-34678D01*
X60171Y-34681D01*
X60164Y-34681D01*
X60152Y-34678D01*
X60145Y-34670D01*
X60141Y-34663D01*
X60137Y-34648D01*
X60137Y-34636D01*
X60141Y-34621D01*
X60145Y-34614D01*
X60152Y-34606D01*
X60164Y-34602D01*
X60171Y-34602D01*
X60183Y-34606D01*
X60186Y-34610D01*
X60254Y-34629D02*
X60254Y-34681D01*
X60235Y-34599D02*
X60216Y-34655D01*
X60265Y-34655D01*
X61786Y-34674D02*
X61783Y-34678D01*
X61771Y-34681D01*
X61764Y-34681D01*
X61752Y-34678D01*
X61745Y-34670D01*
X61741Y-34663D01*
X61737Y-34648D01*
X61737Y-34636D01*
X61741Y-34621D01*
X61745Y-34614D01*
X61752Y-34606D01*
X61764Y-34602D01*
X61771Y-34602D01*
X61783Y-34606D01*
X61786Y-34610D01*
X61813Y-34602D02*
X61862Y-34602D01*
X61835Y-34633D01*
X61847Y-34633D01*
X61854Y-34636D01*
X61858Y-34640D01*
X61862Y-34648D01*
X61862Y-34666D01*
X61858Y-34674D01*
X61854Y-34678D01*
X61847Y-34681D01*
X61824Y-34681D01*
X61816Y-34678D01*
X61813Y-34674D01*
X64674Y-36363D02*
X64678Y-36366D01*
X64681Y-36378D01*
X64681Y-36385D01*
X64678Y-36397D01*
X64670Y-36404D01*
X64663Y-36408D01*
X64648Y-36412D01*
X64636Y-36412D01*
X64621Y-36408D01*
X64614Y-36404D01*
X64606Y-36397D01*
X64602Y-36385D01*
X64602Y-36378D01*
X64606Y-36366D01*
X64610Y-36363D01*
X64610Y-36333D02*
X64606Y-36329D01*
X64602Y-36321D01*
X64602Y-36302D01*
X64606Y-36295D01*
X64610Y-36291D01*
X64618Y-36287D01*
X64625Y-36287D01*
X64636Y-36291D01*
X64681Y-36336D01*
X64681Y-36287D01*
X46274Y-36500D02*
X46278Y-36504D01*
X46281Y-36515D01*
X46281Y-36523D01*
X46278Y-36534D01*
X46270Y-36542D01*
X46263Y-36545D01*
X46248Y-36549D01*
X46236Y-36549D01*
X46221Y-36545D01*
X46214Y-36542D01*
X46206Y-36534D01*
X46202Y-36523D01*
X46202Y-36515D01*
X46206Y-36504D01*
X46210Y-36500D01*
X46281Y-36425D02*
X46281Y-36470D01*
X46281Y-36448D02*
X46202Y-36448D01*
X46214Y-36455D01*
X46221Y-36463D01*
X46225Y-36470D01*
X46202Y-36376D02*
X46202Y-36369D01*
X46206Y-36361D01*
X46210Y-36357D01*
X46218Y-36354D01*
X46233Y-36350D01*
X46251Y-36350D01*
X46266Y-36354D01*
X46274Y-36357D01*
X46278Y-36361D01*
X46281Y-36369D01*
X46281Y-36376D01*
X46278Y-36384D01*
X46274Y-36387D01*
X46266Y-36391D01*
X46251Y-36395D01*
X46233Y-36395D01*
X46218Y-36391D01*
X46210Y-36387D01*
X46206Y-36384D01*
X46202Y-36376D01*
X48986Y-34674D02*
X48983Y-34678D01*
X48971Y-34681D01*
X48964Y-34681D01*
X48952Y-34678D01*
X48945Y-34670D01*
X48941Y-34663D01*
X48937Y-34648D01*
X48937Y-34636D01*
X48941Y-34621D01*
X48945Y-34614D01*
X48952Y-34606D01*
X48964Y-34602D01*
X48971Y-34602D01*
X48983Y-34606D01*
X48986Y-34610D01*
X49024Y-34681D02*
X49039Y-34681D01*
X49047Y-34678D01*
X49050Y-34674D01*
X49058Y-34663D01*
X49062Y-34648D01*
X49062Y-34618D01*
X49058Y-34610D01*
X49054Y-34606D01*
X49047Y-34602D01*
X49031Y-34602D01*
X49024Y-34606D01*
X49020Y-34610D01*
X49016Y-34618D01*
X49016Y-34636D01*
X49020Y-34644D01*
X49024Y-34648D01*
X49031Y-34651D01*
X49047Y-34651D01*
X49054Y-34648D01*
X49058Y-34644D01*
X49062Y-34636D01*
X50686Y-34674D02*
X50683Y-34678D01*
X50671Y-34681D01*
X50664Y-34681D01*
X50652Y-34678D01*
X50645Y-34670D01*
X50641Y-34663D01*
X50637Y-34648D01*
X50637Y-34636D01*
X50641Y-34621D01*
X50645Y-34614D01*
X50652Y-34606D01*
X50664Y-34602D01*
X50671Y-34602D01*
X50683Y-34606D01*
X50686Y-34610D01*
X50731Y-34636D02*
X50724Y-34633D01*
X50720Y-34629D01*
X50716Y-34621D01*
X50716Y-34618D01*
X50720Y-34610D01*
X50724Y-34606D01*
X50731Y-34602D01*
X50747Y-34602D01*
X50754Y-34606D01*
X50758Y-34610D01*
X50762Y-34618D01*
X50762Y-34621D01*
X50758Y-34629D01*
X50754Y-34633D01*
X50747Y-34636D01*
X50731Y-34636D01*
X50724Y-34640D01*
X50720Y-34644D01*
X50716Y-34651D01*
X50716Y-34666D01*
X50720Y-34674D01*
X50724Y-34678D01*
X50731Y-34681D01*
X50747Y-34681D01*
X50754Y-34678D01*
X50758Y-34674D01*
X50762Y-34666D01*
X50762Y-34651D01*
X50758Y-34644D01*
X50754Y-34640D01*
X50747Y-34636D01*
X53474Y-36463D02*
X53478Y-36466D01*
X53481Y-36478D01*
X53481Y-36485D01*
X53478Y-36497D01*
X53470Y-36504D01*
X53463Y-36508D01*
X53448Y-36512D01*
X53436Y-36512D01*
X53421Y-36508D01*
X53414Y-36504D01*
X53406Y-36497D01*
X53402Y-36485D01*
X53402Y-36478D01*
X53406Y-36466D01*
X53410Y-36463D01*
X53402Y-36436D02*
X53402Y-36384D01*
X53481Y-36418D01*
X47236Y-46524D02*
X47233Y-46528D01*
X47221Y-46531D01*
X47214Y-46531D01*
X47202Y-46528D01*
X47195Y-46520D01*
X47191Y-46513D01*
X47187Y-46498D01*
X47187Y-46486D01*
X47191Y-46471D01*
X47195Y-46464D01*
X47202Y-46456D01*
X47214Y-46452D01*
X47221Y-46452D01*
X47233Y-46456D01*
X47236Y-46460D01*
X47304Y-46452D02*
X47289Y-46452D01*
X47281Y-46456D01*
X47278Y-46460D01*
X47270Y-46471D01*
X47266Y-46486D01*
X47266Y-46516D01*
X47270Y-46524D01*
X47274Y-46528D01*
X47281Y-46531D01*
X47297Y-46531D01*
X47304Y-46528D01*
X47308Y-46524D01*
X47312Y-46516D01*
X47312Y-46498D01*
X47308Y-46490D01*
X47304Y-46486D01*
X47297Y-46483D01*
X47281Y-46483D01*
X47274Y-46486D01*
X47270Y-46490D01*
X47266Y-46498D01*
X58586Y-46724D02*
X58583Y-46728D01*
X58571Y-46731D01*
X58564Y-46731D01*
X58552Y-46728D01*
X58545Y-46720D01*
X58541Y-46713D01*
X58537Y-46698D01*
X58537Y-46686D01*
X58541Y-46671D01*
X58545Y-46664D01*
X58552Y-46656D01*
X58564Y-46652D01*
X58571Y-46652D01*
X58583Y-46656D01*
X58586Y-46660D01*
X58662Y-46731D02*
X58616Y-46731D01*
X58639Y-46731D02*
X58639Y-46652D01*
X58631Y-46664D01*
X58624Y-46671D01*
X58616Y-46675D01*
X37374Y-40050D02*
X37378Y-40054D01*
X37381Y-40065D01*
X37381Y-40073D01*
X37378Y-40084D01*
X37370Y-40092D01*
X37363Y-40095D01*
X37348Y-40099D01*
X37336Y-40099D01*
X37321Y-40095D01*
X37314Y-40092D01*
X37306Y-40084D01*
X37302Y-40073D01*
X37302Y-40065D01*
X37306Y-40054D01*
X37310Y-40050D01*
X37381Y-39975D02*
X37381Y-40020D01*
X37381Y-39998D02*
X37302Y-39998D01*
X37314Y-40005D01*
X37321Y-40013D01*
X37325Y-40020D01*
X37310Y-39945D02*
X37306Y-39941D01*
X37302Y-39934D01*
X37302Y-39915D01*
X37306Y-39907D01*
X37310Y-39904D01*
X37318Y-39900D01*
X37325Y-39900D01*
X37336Y-39904D01*
X37381Y-39949D01*
X37381Y-39900D01*
X44349Y-24274D02*
X44345Y-24278D01*
X44334Y-24281D01*
X44326Y-24281D01*
X44315Y-24278D01*
X44307Y-24270D01*
X44304Y-24263D01*
X44300Y-24248D01*
X44300Y-24236D01*
X44304Y-24221D01*
X44307Y-24214D01*
X44315Y-24206D01*
X44326Y-24202D01*
X44334Y-24202D01*
X44345Y-24206D01*
X44349Y-24210D01*
X44424Y-24281D02*
X44379Y-24281D01*
X44401Y-24281D02*
X44401Y-24202D01*
X44394Y-24214D01*
X44386Y-24221D01*
X44379Y-24225D01*
X44499Y-24281D02*
X44454Y-24281D01*
X44477Y-24281D02*
X44477Y-24202D01*
X44469Y-24214D01*
X44462Y-24221D01*
X44454Y-24225D01*
G54D20*
X49599Y-44332D02*
X49599Y-44492D01*
X49609Y-44510D01*
X49618Y-44520D01*
X49637Y-44529D01*
X49674Y-44529D01*
X49693Y-44520D01*
X49703Y-44510D01*
X49712Y-44492D01*
X49712Y-44332D01*
X49787Y-44332D02*
X49918Y-44332D01*
X49834Y-44529D01*
X48882Y-43823D02*
X48976Y-43823D01*
X48863Y-43879D02*
X48929Y-43682D01*
X48994Y-43879D01*
X49144Y-43748D02*
X49144Y-43879D01*
X49098Y-43673D02*
X49051Y-43814D01*
X49173Y-43814D01*
X49257Y-43879D02*
X49295Y-43879D01*
X49313Y-43870D01*
X49323Y-43860D01*
X49341Y-43832D01*
X49351Y-43795D01*
X49351Y-43720D01*
X49341Y-43701D01*
X49332Y-43692D01*
X49313Y-43682D01*
X49276Y-43682D01*
X49257Y-43692D01*
X49248Y-43701D01*
X49238Y-43720D01*
X49238Y-43767D01*
X49248Y-43785D01*
X49257Y-43795D01*
X49276Y-43804D01*
X49313Y-43804D01*
X49332Y-43795D01*
X49341Y-43785D01*
X49351Y-43767D01*
X49463Y-43767D02*
X49445Y-43757D01*
X49435Y-43748D01*
X49426Y-43729D01*
X49426Y-43720D01*
X49435Y-43701D01*
X49445Y-43692D01*
X49463Y-43682D01*
X49501Y-43682D01*
X49520Y-43692D01*
X49529Y-43701D01*
X49538Y-43720D01*
X49538Y-43729D01*
X49529Y-43748D01*
X49520Y-43757D01*
X49501Y-43767D01*
X49463Y-43767D01*
X49445Y-43776D01*
X49435Y-43785D01*
X49426Y-43804D01*
X49426Y-43842D01*
X49435Y-43860D01*
X49445Y-43870D01*
X49463Y-43879D01*
X49501Y-43879D01*
X49520Y-43870D01*
X49529Y-43860D01*
X49538Y-43842D01*
X49538Y-43804D01*
X49529Y-43785D01*
X49520Y-43776D01*
X49501Y-43767D01*
X49613Y-43701D02*
X49623Y-43692D01*
X49642Y-43682D01*
X49689Y-43682D01*
X49707Y-43692D01*
X49717Y-43701D01*
X49726Y-43720D01*
X49726Y-43739D01*
X49717Y-43767D01*
X49604Y-43879D01*
X49726Y-43879D01*
X49801Y-43870D02*
X49829Y-43879D01*
X49876Y-43879D01*
X49895Y-43870D01*
X49904Y-43860D01*
X49914Y-43842D01*
X49914Y-43823D01*
X49904Y-43804D01*
X49895Y-43795D01*
X49876Y-43785D01*
X49839Y-43776D01*
X49820Y-43767D01*
X49810Y-43757D01*
X49801Y-43739D01*
X49801Y-43720D01*
X49810Y-43701D01*
X49820Y-43692D01*
X49839Y-43682D01*
X49886Y-43682D01*
X49914Y-43692D01*
X50092Y-43879D02*
X49998Y-43879D01*
X49998Y-43682D01*
X50158Y-43879D02*
X50158Y-43682D01*
X50233Y-43682D01*
X50251Y-43692D01*
X50261Y-43701D01*
X50270Y-43720D01*
X50270Y-43748D01*
X50261Y-43767D01*
X50251Y-43776D01*
X50233Y-43785D01*
X50158Y-43785D01*
X50326Y-43682D02*
X50439Y-43682D01*
X50383Y-43879D02*
X50383Y-43682D01*
X50617Y-43879D02*
X50552Y-43785D01*
X50505Y-43879D02*
X50505Y-43682D01*
X50580Y-43682D01*
X50598Y-43692D01*
X50608Y-43701D01*
X50617Y-43720D01*
X50617Y-43748D01*
X50608Y-43767D01*
X50598Y-43776D01*
X50580Y-43785D01*
X50505Y-43785D01*
X60749Y-44282D02*
X60749Y-44442D01*
X60759Y-44460D01*
X60768Y-44470D01*
X60787Y-44479D01*
X60824Y-44479D01*
X60843Y-44470D01*
X60853Y-44460D01*
X60862Y-44442D01*
X60862Y-44282D01*
X61050Y-44282D02*
X60956Y-44282D01*
X60946Y-44376D01*
X60956Y-44367D01*
X60975Y-44357D01*
X61021Y-44357D01*
X61040Y-44367D01*
X61050Y-44376D01*
X61059Y-44395D01*
X61059Y-44442D01*
X61050Y-44460D01*
X61040Y-44470D01*
X61021Y-44479D01*
X60975Y-44479D01*
X60956Y-44470D01*
X60946Y-44460D01*
X60032Y-43773D02*
X60126Y-43773D01*
X60013Y-43829D02*
X60079Y-43632D01*
X60144Y-43829D01*
X60294Y-43698D02*
X60294Y-43829D01*
X60248Y-43623D02*
X60201Y-43764D01*
X60323Y-43764D01*
X60407Y-43829D02*
X60445Y-43829D01*
X60463Y-43820D01*
X60473Y-43810D01*
X60491Y-43782D01*
X60501Y-43745D01*
X60501Y-43670D01*
X60491Y-43651D01*
X60482Y-43642D01*
X60463Y-43632D01*
X60426Y-43632D01*
X60407Y-43642D01*
X60398Y-43651D01*
X60388Y-43670D01*
X60388Y-43717D01*
X60398Y-43735D01*
X60407Y-43745D01*
X60426Y-43754D01*
X60463Y-43754D01*
X60482Y-43745D01*
X60491Y-43735D01*
X60501Y-43717D01*
X60613Y-43717D02*
X60595Y-43707D01*
X60585Y-43698D01*
X60576Y-43679D01*
X60576Y-43670D01*
X60585Y-43651D01*
X60595Y-43642D01*
X60613Y-43632D01*
X60651Y-43632D01*
X60670Y-43642D01*
X60679Y-43651D01*
X60688Y-43670D01*
X60688Y-43679D01*
X60679Y-43698D01*
X60670Y-43707D01*
X60651Y-43717D01*
X60613Y-43717D01*
X60595Y-43726D01*
X60585Y-43735D01*
X60576Y-43754D01*
X60576Y-43792D01*
X60585Y-43810D01*
X60595Y-43820D01*
X60613Y-43829D01*
X60651Y-43829D01*
X60670Y-43820D01*
X60679Y-43810D01*
X60688Y-43792D01*
X60688Y-43754D01*
X60679Y-43735D01*
X60670Y-43726D01*
X60651Y-43717D01*
X60763Y-43651D02*
X60773Y-43642D01*
X60792Y-43632D01*
X60839Y-43632D01*
X60857Y-43642D01*
X60867Y-43651D01*
X60876Y-43670D01*
X60876Y-43689D01*
X60867Y-43717D01*
X60754Y-43829D01*
X60876Y-43829D01*
X60951Y-43820D02*
X60979Y-43829D01*
X61026Y-43829D01*
X61045Y-43820D01*
X61054Y-43810D01*
X61064Y-43792D01*
X61064Y-43773D01*
X61054Y-43754D01*
X61045Y-43745D01*
X61026Y-43735D01*
X60989Y-43726D01*
X60970Y-43717D01*
X60960Y-43707D01*
X60951Y-43689D01*
X60951Y-43670D01*
X60960Y-43651D01*
X60970Y-43642D01*
X60989Y-43632D01*
X61036Y-43632D01*
X61064Y-43642D01*
X61242Y-43829D02*
X61148Y-43829D01*
X61148Y-43632D01*
X61308Y-43829D02*
X61308Y-43632D01*
X61383Y-43632D01*
X61401Y-43642D01*
X61411Y-43651D01*
X61420Y-43670D01*
X61420Y-43698D01*
X61411Y-43717D01*
X61401Y-43726D01*
X61383Y-43735D01*
X61308Y-43735D01*
X61476Y-43632D02*
X61589Y-43632D01*
X61533Y-43829D02*
X61533Y-43632D01*
X61767Y-43829D02*
X61702Y-43735D01*
X61655Y-43829D02*
X61655Y-43632D01*
X61730Y-43632D01*
X61748Y-43642D01*
X61758Y-43651D01*
X61767Y-43670D01*
X61767Y-43698D01*
X61758Y-43717D01*
X61748Y-43726D01*
X61730Y-43735D01*
X61655Y-43735D01*
M02*
