G04 (created by PCBNEW (2013-mar-13)-testing) date Wed 17 Dec 2014 11:00:28 GMT*
%MOIN*%
G04 Gerber Fmt 3.4, Leading zero omitted, Abs format*
%FSLAX34Y34*%
G01*
G70*
G90*
G04 APERTURE LIST*
%ADD10C,0.005906*%
%ADD11R,0.090600X0.051200*%
%ADD12R,0.255900X0.232300*%
%ADD13C,0.031500*%
%ADD14R,0.016500X0.057900*%
%ADD15C,0.060000*%
%ADD16R,0.039400X0.023600*%
%ADD17R,0.025000X0.050000*%
%ADD18R,0.070900X0.045300*%
%ADD19R,0.037400X0.039400*%
%ADD20R,0.039400X0.037400*%
%ADD21R,0.060000X0.060000*%
%ADD22R,0.051200X0.090600*%
%ADD23R,0.232300X0.255900*%
%ADD24R,0.141700X0.063000*%
%ADD25R,0.063000X0.141700*%
%ADD26R,0.057100X0.045300*%
%ADD27C,0.086600*%
%ADD28R,0.170100X0.118100*%
%ADD29C,0.035400*%
%ADD30C,0.035000*%
%ADD31C,0.008000*%
%ADD32C,0.019800*%
%ADD33C,0.078740*%
%ADD34C,0.048800*%
%ADD35C,0.019700*%
G04 APERTURE END LIST*
G54D10*
G54D11*
X41500Y-26400D03*
G54D12*
X39000Y-25500D03*
G54D11*
X41500Y-24600D03*
G54D13*
X52150Y-46600D03*
X62800Y-46500D03*
G54D14*
X64522Y-24552D03*
X64778Y-24552D03*
X65034Y-24552D03*
X65290Y-24552D03*
X63758Y-22350D03*
X63754Y-24552D03*
X64010Y-24552D03*
X64266Y-24552D03*
X65546Y-22348D03*
X65290Y-22348D03*
X65034Y-22348D03*
X64778Y-22348D03*
X64522Y-22348D03*
X64266Y-22348D03*
X65546Y-24552D03*
X64010Y-22350D03*
X63498Y-24552D03*
X65802Y-24552D03*
X65802Y-22348D03*
X63498Y-22348D03*
G54D15*
X43708Y-36904D03*
G54D16*
X40516Y-40775D03*
X39684Y-40400D03*
X40516Y-40025D03*
X44066Y-26125D03*
X43234Y-25750D03*
X44066Y-25375D03*
G54D17*
X50800Y-49550D03*
X51300Y-49550D03*
X62250Y-48750D03*
X61750Y-48750D03*
X62250Y-49750D03*
X61750Y-49750D03*
X50800Y-50450D03*
X51300Y-50450D03*
G54D18*
X52750Y-42559D03*
X52750Y-43741D03*
X47050Y-42559D03*
X47050Y-43741D03*
X63600Y-42959D03*
X63600Y-44141D03*
X58400Y-42609D03*
X58400Y-43791D03*
G54D19*
X54685Y-32300D03*
X55315Y-32300D03*
X47565Y-48650D03*
X46935Y-48650D03*
X43485Y-32400D03*
X44115Y-32400D03*
X64285Y-21350D03*
X64915Y-21350D03*
X41965Y-27350D03*
X41335Y-27350D03*
G54D20*
X35600Y-25615D03*
X35600Y-24985D03*
X35600Y-37015D03*
X35600Y-36385D03*
X37150Y-25885D03*
X37150Y-26515D03*
X38000Y-36385D03*
X38000Y-37015D03*
X38900Y-41815D03*
X38900Y-41185D03*
X44200Y-26935D03*
X44200Y-27565D03*
G54D19*
X41285Y-40700D03*
X41915Y-40700D03*
G54D20*
X38900Y-40315D03*
X38900Y-39685D03*
G54D19*
X58915Y-48550D03*
X58285Y-48550D03*
X58285Y-49200D03*
X58915Y-49200D03*
X56935Y-45900D03*
X57565Y-45900D03*
G54D20*
X45200Y-47415D03*
X45200Y-46785D03*
G54D19*
X46935Y-49400D03*
X47565Y-49400D03*
X43265Y-27350D03*
X42635Y-27350D03*
G54D20*
X44200Y-34585D03*
X44200Y-35215D03*
X55500Y-34385D03*
X55500Y-35015D03*
X63350Y-26515D03*
X63350Y-25885D03*
G54D21*
X40600Y-43200D03*
G54D15*
X40600Y-44200D03*
X40600Y-45200D03*
X40600Y-46200D03*
X40600Y-47200D03*
X40600Y-48200D03*
X40600Y-49200D03*
G54D21*
X32829Y-43313D03*
G54D15*
X32829Y-44313D03*
X32829Y-45313D03*
X32829Y-46313D03*
X32829Y-47313D03*
X32829Y-48313D03*
X32829Y-49313D03*
G54D21*
X62500Y-33200D03*
G54D15*
X61500Y-33200D03*
X60500Y-33200D03*
X59500Y-33200D03*
X58500Y-33200D03*
X57500Y-33200D03*
X56500Y-33200D03*
G54D21*
X51300Y-33200D03*
G54D15*
X50300Y-33200D03*
X49300Y-33200D03*
X48300Y-33200D03*
X47300Y-33200D03*
X46300Y-33200D03*
X45300Y-33200D03*
G54D21*
X40600Y-21800D03*
G54D15*
X39600Y-21800D03*
X38600Y-21800D03*
X37600Y-21800D03*
X36600Y-21800D03*
X35600Y-21800D03*
G54D21*
X69300Y-51900D03*
G54D15*
X69300Y-50900D03*
X69300Y-49900D03*
X69300Y-48900D03*
G54D21*
X49200Y-51900D03*
G54D15*
X49200Y-52900D03*
X49200Y-53900D03*
X49200Y-54900D03*
G54D21*
X32829Y-58313D03*
G54D15*
X32829Y-59313D03*
G54D21*
X57000Y-57200D03*
G54D15*
X57000Y-58200D03*
G54D21*
X57000Y-54850D03*
G54D15*
X57000Y-55850D03*
G54D21*
X57000Y-52500D03*
G54D15*
X57000Y-53500D03*
G54D21*
X68874Y-19639D03*
G54D15*
X69874Y-19639D03*
X68874Y-24639D03*
X69874Y-20639D03*
X68874Y-25639D03*
X69874Y-21639D03*
X68874Y-26639D03*
X69874Y-22639D03*
X68874Y-27639D03*
X69874Y-23639D03*
X68874Y-28639D03*
X69874Y-24639D03*
X68874Y-29639D03*
X69874Y-25639D03*
X68874Y-30639D03*
X69874Y-26639D03*
X68874Y-31639D03*
X69874Y-27639D03*
X68874Y-32639D03*
X69874Y-28639D03*
X68874Y-33639D03*
X69874Y-29639D03*
X68874Y-34639D03*
X69874Y-30639D03*
X69874Y-31639D03*
X68874Y-35639D03*
X69874Y-32639D03*
X69874Y-34639D03*
X69874Y-35639D03*
X69874Y-36639D03*
X69874Y-37639D03*
X68874Y-36639D03*
X68874Y-37639D03*
X68874Y-20639D03*
X68874Y-21639D03*
X68874Y-22639D03*
X68874Y-23639D03*
X68874Y-38639D03*
X69874Y-38639D03*
X69874Y-33639D03*
X68874Y-39639D03*
X69874Y-39639D03*
X68874Y-40639D03*
X69874Y-40639D03*
X68874Y-41639D03*
X69874Y-41639D03*
X68874Y-42639D03*
X69874Y-42639D03*
X68874Y-43639D03*
X69874Y-43639D03*
G54D20*
X38000Y-34985D03*
X38000Y-35600D03*
X37150Y-24485D03*
X37150Y-25100D03*
X44200Y-33285D03*
X44200Y-33900D03*
X55500Y-33085D03*
X55500Y-33700D03*
G54D22*
X38900Y-38500D03*
G54D23*
X39800Y-36000D03*
G54D22*
X40700Y-38500D03*
G54D24*
X52717Y-26550D03*
X54883Y-26550D03*
G54D25*
X43900Y-44433D03*
X43900Y-42267D03*
X55350Y-44383D03*
X55350Y-42217D03*
X35600Y-38817D03*
X35600Y-40983D03*
G54D26*
X35600Y-24254D03*
X35600Y-23546D03*
X35600Y-35654D03*
X35600Y-34946D03*
G54D20*
X45800Y-43735D03*
X45800Y-44365D03*
X57250Y-43785D03*
X57250Y-44415D03*
X52150Y-47435D03*
X52150Y-48065D03*
X62800Y-47235D03*
X62800Y-47865D03*
X54700Y-33085D03*
X54700Y-33715D03*
X43400Y-33285D03*
X43400Y-33915D03*
X66050Y-26515D03*
X66050Y-25885D03*
X53050Y-48715D03*
X53050Y-48085D03*
G54D19*
X58915Y-47850D03*
X58285Y-47850D03*
X58915Y-47150D03*
X58285Y-47150D03*
G54D20*
X63600Y-48465D03*
X63600Y-47835D03*
G54D19*
X47565Y-47050D03*
X46935Y-47050D03*
X47565Y-47850D03*
X46935Y-47850D03*
G54D21*
X32829Y-51313D03*
G54D15*
X32829Y-52313D03*
X32829Y-53313D03*
X32829Y-54313D03*
G54D21*
X32829Y-56313D03*
G54D15*
X32829Y-55313D03*
G54D21*
X40600Y-33200D03*
G54D15*
X39600Y-33200D03*
X38600Y-33200D03*
X37600Y-33200D03*
X36600Y-33200D03*
X35600Y-33200D03*
G54D21*
X40600Y-51400D03*
G54D15*
X40600Y-52400D03*
X40600Y-53400D03*
X40600Y-54400D03*
X40600Y-55400D03*
X40600Y-56400D03*
G54D21*
X40600Y-58300D03*
G54D15*
X40600Y-59300D03*
G54D27*
X43450Y-23400D03*
X44450Y-21400D03*
X42450Y-21400D03*
X55000Y-23350D03*
X56000Y-21350D03*
X54000Y-21350D03*
G54D20*
X57250Y-35435D03*
X57250Y-36065D03*
X60700Y-36065D03*
X60700Y-35435D03*
X62250Y-35435D03*
X62250Y-36065D03*
X64250Y-36065D03*
X64250Y-35435D03*
X46600Y-35435D03*
X46600Y-36065D03*
X49450Y-36065D03*
X49450Y-35435D03*
X51150Y-35435D03*
X51150Y-36065D03*
X53200Y-36065D03*
X53200Y-35435D03*
G54D19*
X46935Y-46250D03*
X47565Y-46250D03*
X58285Y-46450D03*
X58915Y-46450D03*
G54D20*
X37600Y-39685D03*
X37600Y-40315D03*
G54D19*
X44715Y-24500D03*
X44085Y-24500D03*
G54D14*
X49622Y-45352D03*
X49878Y-45352D03*
X50134Y-45352D03*
X50390Y-45352D03*
X48858Y-43150D03*
X48854Y-45352D03*
X49110Y-45352D03*
X49366Y-45352D03*
X50646Y-43148D03*
X50390Y-43148D03*
X50134Y-43148D03*
X49878Y-43148D03*
X49622Y-43148D03*
X49366Y-43148D03*
X50646Y-45352D03*
X49110Y-43150D03*
X48598Y-45352D03*
X50902Y-45352D03*
X50902Y-43148D03*
X48598Y-43148D03*
X48343Y-45352D03*
X51157Y-45352D03*
X51157Y-43148D03*
X48343Y-43148D03*
G54D28*
X49750Y-44250D03*
G54D29*
X49050Y-43850D03*
X49550Y-43850D03*
X50050Y-43850D03*
X50550Y-43850D03*
X49300Y-44200D03*
X49800Y-44200D03*
X50300Y-44200D03*
X49050Y-44550D03*
X49550Y-44550D03*
X50050Y-44550D03*
X50550Y-44550D03*
G54D14*
X60772Y-45302D03*
X61028Y-45302D03*
X61284Y-45302D03*
X61540Y-45302D03*
X60008Y-43100D03*
X60004Y-45302D03*
X60260Y-45302D03*
X60516Y-45302D03*
X61796Y-43098D03*
X61540Y-43098D03*
X61284Y-43098D03*
X61028Y-43098D03*
X60772Y-43098D03*
X60516Y-43098D03*
X61796Y-45302D03*
X60260Y-43100D03*
X59748Y-45302D03*
X62052Y-45302D03*
X62052Y-43098D03*
X59748Y-43098D03*
X59493Y-45302D03*
X62307Y-45302D03*
X62307Y-43098D03*
X59493Y-43098D03*
G54D28*
X60900Y-44200D03*
G54D29*
X60200Y-43800D03*
X60700Y-43800D03*
X61200Y-43800D03*
X61700Y-43800D03*
X60450Y-44150D03*
X60950Y-44150D03*
X61450Y-44150D03*
X60200Y-44500D03*
X60700Y-44500D03*
X61200Y-44500D03*
X61700Y-44500D03*
G54D21*
X49200Y-57200D03*
G54D15*
X49200Y-58200D03*
G54D30*
X53000Y-50350D03*
X44800Y-48200D03*
X49550Y-49800D03*
X49550Y-48000D03*
X50800Y-48000D03*
X49800Y-47250D03*
X42750Y-40700D03*
X61050Y-48750D03*
X60900Y-46800D03*
X60650Y-49750D03*
X60600Y-47400D03*
X66750Y-26500D03*
X62400Y-26500D03*
X63600Y-20950D03*
X44100Y-35850D03*
X44200Y-28650D03*
X54450Y-37100D03*
X39750Y-41800D03*
X43250Y-26650D03*
X65300Y-31850D03*
X63850Y-29950D03*
X66150Y-47000D03*
X66250Y-49850D03*
X65550Y-42650D03*
X53650Y-51250D03*
X65950Y-31550D03*
X64450Y-29500D03*
X55600Y-31300D03*
X55200Y-29150D03*
X57750Y-28150D03*
X67150Y-24300D03*
X63800Y-31100D03*
X62900Y-44900D03*
X64300Y-44850D03*
X64800Y-32100D03*
X53600Y-40250D03*
X62950Y-31000D03*
X57000Y-30750D03*
X54150Y-50150D03*
X65850Y-41100D03*
X44150Y-50150D03*
X46750Y-41100D03*
X45200Y-45400D03*
X41650Y-39600D03*
X41700Y-30600D03*
X62900Y-30400D03*
X62900Y-25100D03*
X53300Y-29100D03*
X63750Y-25250D03*
X60700Y-52550D03*
X51450Y-46450D03*
X66350Y-32550D03*
X66850Y-46950D03*
X67450Y-46950D03*
X55050Y-24850D03*
X62250Y-36800D03*
X60700Y-36750D03*
X64300Y-36750D03*
X57200Y-36750D03*
X51200Y-36850D03*
X49500Y-36800D03*
X46600Y-36800D03*
X53200Y-36800D03*
X46300Y-48250D03*
X52750Y-44850D03*
X44850Y-42250D03*
X36950Y-41000D03*
X43350Y-38500D03*
X64300Y-45750D03*
X66600Y-25400D03*
X63100Y-21300D03*
X42900Y-24600D03*
X57250Y-47850D03*
X56450Y-42350D03*
X45100Y-25600D03*
X54700Y-34500D03*
X58400Y-41600D03*
X60250Y-41600D03*
X63600Y-41650D03*
X61450Y-41650D03*
X50500Y-41600D03*
X52750Y-41550D03*
X46750Y-41700D03*
X49050Y-41700D03*
X51050Y-47400D03*
X49800Y-46400D03*
X61450Y-48050D03*
X61000Y-46100D03*
X50550Y-25150D03*
X57300Y-47150D03*
X50500Y-42050D03*
X49000Y-42250D03*
X44250Y-46000D03*
X55350Y-46050D03*
X37050Y-38800D03*
X61700Y-42050D03*
X60100Y-42050D03*
G54D31*
X61750Y-49750D02*
X62250Y-49750D01*
X61750Y-48750D02*
X62250Y-48750D01*
X50800Y-50450D02*
X51300Y-50450D01*
X50800Y-49550D02*
X51300Y-49550D01*
X64522Y-22348D02*
X64266Y-22348D01*
G54D32*
X62250Y-48750D02*
X62250Y-49750D01*
X53050Y-50300D02*
X53050Y-49500D01*
X53000Y-50350D02*
X53050Y-50300D01*
G54D31*
X45200Y-48200D02*
X44800Y-48200D01*
X45200Y-47415D02*
X45200Y-48200D01*
X45200Y-48200D02*
X45200Y-49350D01*
X45250Y-49400D02*
X46935Y-49400D01*
X45200Y-49350D02*
X45250Y-49400D01*
X49290Y-47500D02*
X49290Y-47740D01*
X49366Y-45884D02*
X49290Y-45959D01*
X49290Y-45959D02*
X49290Y-47500D01*
X49366Y-45352D02*
X49366Y-45884D01*
X50200Y-50450D02*
X50800Y-50450D01*
X49550Y-49800D02*
X50200Y-50450D01*
X49290Y-47740D02*
X49550Y-48000D01*
X49450Y-46050D02*
X49500Y-46050D01*
X49800Y-47250D02*
X49450Y-46900D01*
X49450Y-46900D02*
X49450Y-46050D01*
X50800Y-49550D02*
X50800Y-48000D01*
X49622Y-45928D02*
X49622Y-45352D01*
X49500Y-46050D02*
X49622Y-45928D01*
X50646Y-45352D02*
X50646Y-46346D01*
X51000Y-46700D02*
X51000Y-46650D01*
X50646Y-46346D02*
X51000Y-46700D01*
G54D32*
X51300Y-49550D02*
X51300Y-48800D01*
X51300Y-48800D02*
X51500Y-48600D01*
X51500Y-48600D02*
X51500Y-47150D01*
X51500Y-47150D02*
X51000Y-46650D01*
X51000Y-46650D02*
X51000Y-46650D01*
X51300Y-49550D02*
X51300Y-50450D01*
X53050Y-48715D02*
X53050Y-49500D01*
X53000Y-49550D02*
X51300Y-49550D01*
X53050Y-49500D02*
X53000Y-49550D01*
X42750Y-40700D02*
X41915Y-40700D01*
X61950Y-46100D02*
X61950Y-47800D01*
X61950Y-47800D02*
X62250Y-48100D01*
X62250Y-48100D02*
X62250Y-48750D01*
G54D31*
X61796Y-45946D02*
X61950Y-46100D01*
X61796Y-45302D02*
X61796Y-45946D01*
X61796Y-45946D02*
X61800Y-45950D01*
X60772Y-45302D02*
X60772Y-45878D01*
X61050Y-48750D02*
X61750Y-48750D01*
X60850Y-46800D02*
X60900Y-46800D01*
X60650Y-46600D02*
X60850Y-46800D01*
X60650Y-46000D02*
X60650Y-46600D01*
X60772Y-45878D02*
X60650Y-46000D01*
X60516Y-45302D02*
X60516Y-45834D01*
X60650Y-49750D02*
X61750Y-49750D01*
X60450Y-47250D02*
X60600Y-47400D01*
X60450Y-45900D02*
X60450Y-47250D01*
X60516Y-45834D02*
X60450Y-45900D01*
G54D32*
X66735Y-26515D02*
X66050Y-26515D01*
X66750Y-26500D02*
X66735Y-26515D01*
X63350Y-26515D02*
X62415Y-26515D01*
X62415Y-26515D02*
X62400Y-26500D01*
G54D31*
X64285Y-21350D02*
X64000Y-21350D01*
X64000Y-21350D02*
X63600Y-20950D01*
X64285Y-21350D02*
X64285Y-22329D01*
X64285Y-22329D02*
X64266Y-22348D01*
G54D33*
X32829Y-48313D02*
X40487Y-48313D01*
X40487Y-48313D02*
X40600Y-48200D01*
G54D31*
X41915Y-40700D02*
X41915Y-42035D01*
X41915Y-42035D02*
X41600Y-42350D01*
X41600Y-42350D02*
X34700Y-42350D01*
X34700Y-42350D02*
X34650Y-42300D01*
X34650Y-42300D02*
X34650Y-37965D01*
X34650Y-37965D02*
X35600Y-37015D01*
G54D32*
X44200Y-35215D02*
X44200Y-35750D01*
X44200Y-35750D02*
X44100Y-35850D01*
X44200Y-28000D02*
X44150Y-28000D01*
X44200Y-28650D02*
X44200Y-28000D01*
X56350Y-45900D02*
X56350Y-47350D01*
X54450Y-47350D02*
X54450Y-37100D01*
X56350Y-47350D02*
X54450Y-47350D01*
X44200Y-27565D02*
X44200Y-28100D01*
X44200Y-28100D02*
X44150Y-28050D01*
X44150Y-28050D02*
X35600Y-28050D01*
X35600Y-28050D02*
X35600Y-25615D01*
G54D31*
X35600Y-28050D02*
X35600Y-28050D01*
X55500Y-35015D02*
X55685Y-35015D01*
X55685Y-35015D02*
X57500Y-33200D01*
G54D32*
X58285Y-49200D02*
X57950Y-49200D01*
X57950Y-49200D02*
X56350Y-47600D01*
X56350Y-47600D02*
X56350Y-45900D01*
X56350Y-45900D02*
X56935Y-45900D01*
X62250Y-49750D02*
X62250Y-50450D01*
X62250Y-50450D02*
X58300Y-50450D01*
X58300Y-50450D02*
X58285Y-50435D01*
X58285Y-50435D02*
X58285Y-49200D01*
X62250Y-48750D02*
X63350Y-48750D01*
X63350Y-48750D02*
X63600Y-48500D01*
X39735Y-41815D02*
X39750Y-41800D01*
X38900Y-41815D02*
X39735Y-41815D01*
X43265Y-26665D02*
X43265Y-27350D01*
X43250Y-26650D02*
X43265Y-26665D01*
G54D31*
X36600Y-33200D02*
X36600Y-30100D01*
X69363Y-36150D02*
X69874Y-35639D01*
X68050Y-36150D02*
X69363Y-36150D01*
X65350Y-33450D02*
X68050Y-36150D01*
X65350Y-31900D02*
X65350Y-33450D01*
X65300Y-31850D02*
X65350Y-31900D01*
X36750Y-29950D02*
X63850Y-29950D01*
X36600Y-30100D02*
X36750Y-29950D01*
X35600Y-35654D02*
X35600Y-36385D01*
X36600Y-33200D02*
X36600Y-35300D01*
X36246Y-35654D02*
X35600Y-35654D01*
X36600Y-35300D02*
X36246Y-35654D01*
X49200Y-51900D02*
X50100Y-51900D01*
X66600Y-40913D02*
X68874Y-38639D01*
X66600Y-45600D02*
X66600Y-40913D01*
X66150Y-46050D02*
X66600Y-45600D01*
X66150Y-47000D02*
X66150Y-46050D01*
X66250Y-51350D02*
X66250Y-49850D01*
X65700Y-51900D02*
X66250Y-51350D01*
X50100Y-51900D02*
X65700Y-51900D01*
X56200Y-51250D02*
X53650Y-51250D01*
X65550Y-42650D02*
X65550Y-48450D01*
X65550Y-48450D02*
X63250Y-50750D01*
X63250Y-50750D02*
X63250Y-51100D01*
X63250Y-51100D02*
X63100Y-51250D01*
X63100Y-51250D02*
X56200Y-51250D01*
X35600Y-24985D02*
X35015Y-24985D01*
X68139Y-35639D02*
X68874Y-35639D01*
X65950Y-33450D02*
X68139Y-35639D01*
X65950Y-31550D02*
X65950Y-33450D01*
X35750Y-29500D02*
X64450Y-29500D01*
X35000Y-28750D02*
X35750Y-29500D01*
X35000Y-25000D02*
X35000Y-28750D01*
X35015Y-24985D02*
X35000Y-25000D01*
X36600Y-21800D02*
X36600Y-22350D01*
X36196Y-24254D02*
X35600Y-24254D01*
X36250Y-24200D02*
X36196Y-24254D01*
X36250Y-22700D02*
X36250Y-24200D01*
X36600Y-22350D02*
X36250Y-22700D01*
X35600Y-24985D02*
X35600Y-24254D01*
X66750Y-27800D02*
X66250Y-27800D01*
X68511Y-23639D02*
X68100Y-24050D01*
X68100Y-24050D02*
X68100Y-26450D01*
X68100Y-26450D02*
X66750Y-27800D01*
X68874Y-23639D02*
X68511Y-23639D01*
X54685Y-31915D02*
X54685Y-32300D01*
X55050Y-31550D02*
X54685Y-31915D01*
X55350Y-31550D02*
X55050Y-31550D01*
X55600Y-31300D02*
X55350Y-31550D01*
X55300Y-29050D02*
X55200Y-29150D01*
X65000Y-29050D02*
X55300Y-29050D01*
X66250Y-27800D02*
X65000Y-29050D01*
X54685Y-32300D02*
X54685Y-33070D01*
X54685Y-33070D02*
X54700Y-33085D01*
G54D33*
X32829Y-51313D02*
X32829Y-52313D01*
X40600Y-51400D02*
X40600Y-52400D01*
X32829Y-52313D02*
X40513Y-52313D01*
X40513Y-52313D02*
X40600Y-52400D01*
X32829Y-51313D02*
X40513Y-51313D01*
X40513Y-51313D02*
X40600Y-51400D01*
X32829Y-44313D02*
X40487Y-44313D01*
X40487Y-44313D02*
X40600Y-44200D01*
X32829Y-43313D02*
X40487Y-43313D01*
X40487Y-43313D02*
X40600Y-43200D01*
X32829Y-45313D02*
X40487Y-45313D01*
X40487Y-45313D02*
X40600Y-45200D01*
X32829Y-46313D02*
X40487Y-46313D01*
X40487Y-46313D02*
X40600Y-46200D01*
X32829Y-47313D02*
X40487Y-47313D01*
X40487Y-47313D02*
X40600Y-47200D01*
X32829Y-55313D02*
X40513Y-55313D01*
X40513Y-55313D02*
X40600Y-55400D01*
X40600Y-21800D02*
X40600Y-22950D01*
X40600Y-22950D02*
X39600Y-23950D01*
X39600Y-21800D02*
X39600Y-23950D01*
X39600Y-23950D02*
X39600Y-24900D01*
X39600Y-24900D02*
X39000Y-25500D01*
G54D31*
X37150Y-24485D02*
X37985Y-24485D01*
X37985Y-24485D02*
X39000Y-25500D01*
X65550Y-35350D02*
X65550Y-39400D01*
X68050Y-28150D02*
X64100Y-32100D01*
X64100Y-32100D02*
X64100Y-33900D01*
X64100Y-33900D02*
X65550Y-35350D01*
X62052Y-42552D02*
X62052Y-43098D01*
X62050Y-42550D02*
X62052Y-42552D01*
X62900Y-42550D02*
X62050Y-42550D01*
X62900Y-41650D02*
X62900Y-42550D01*
X64350Y-40200D02*
X62900Y-41650D01*
X64750Y-40200D02*
X64350Y-40200D01*
X65550Y-39400D02*
X64750Y-40200D01*
X68050Y-28150D02*
X68050Y-28150D01*
X68050Y-28150D02*
X69400Y-28150D01*
X69400Y-27113D02*
X69874Y-26639D01*
X69400Y-28050D02*
X69400Y-27113D01*
X69400Y-28150D02*
X69400Y-28050D01*
X56900Y-39700D02*
X57050Y-39700D01*
X63450Y-31500D02*
X63750Y-31800D01*
X63750Y-31800D02*
X67950Y-27600D01*
X67950Y-27600D02*
X68835Y-27600D01*
X68874Y-27639D02*
X68835Y-27600D01*
X54450Y-31500D02*
X55200Y-30750D01*
X56400Y-30750D02*
X57150Y-31500D01*
X55200Y-30750D02*
X56400Y-30750D01*
X54150Y-31800D02*
X54450Y-31500D01*
X55550Y-36250D02*
X54150Y-34850D01*
X55550Y-38300D02*
X55550Y-36250D01*
X56900Y-39700D02*
X55550Y-38300D01*
X54150Y-34850D02*
X54150Y-31800D01*
X57150Y-31500D02*
X63450Y-31500D01*
X57050Y-39700D02*
X57900Y-40550D01*
X59748Y-43098D02*
X59748Y-42748D01*
X58900Y-41550D02*
X57900Y-40550D01*
X57900Y-40550D02*
X57850Y-40500D01*
X58900Y-42250D02*
X58900Y-41550D01*
X59250Y-42600D02*
X58900Y-42250D01*
X59600Y-42600D02*
X59250Y-42600D01*
X59748Y-42748D02*
X59600Y-42600D01*
X57565Y-45100D02*
X57550Y-45100D01*
X57550Y-45100D02*
X57565Y-45100D01*
X59748Y-43098D02*
X59748Y-43452D01*
X57565Y-44985D02*
X57565Y-45100D01*
X57565Y-45100D02*
X57565Y-45900D01*
X57900Y-44650D02*
X57565Y-44985D01*
X58550Y-44650D02*
X57900Y-44650D01*
X59748Y-43452D02*
X58550Y-44650D01*
X62250Y-35435D02*
X61815Y-35435D01*
X61815Y-35435D02*
X61500Y-35750D01*
G54D34*
X61500Y-33200D02*
X61500Y-35750D01*
X61500Y-35750D02*
X61500Y-39285D01*
X61535Y-39250D02*
X61300Y-39485D01*
X61500Y-39285D02*
X61535Y-39250D01*
G54D32*
X61150Y-41350D02*
X61150Y-41150D01*
G54D31*
X61028Y-41472D02*
X61150Y-41350D01*
X61028Y-43098D02*
X61028Y-41472D01*
G54D34*
X61300Y-41000D02*
X61300Y-39485D01*
G54D32*
X61150Y-41150D02*
X61300Y-41000D01*
G54D31*
X64250Y-35435D02*
X63915Y-35435D01*
X63915Y-35435D02*
X63526Y-35824D01*
G54D34*
X63526Y-38511D02*
X63526Y-35824D01*
X63526Y-35824D02*
X63526Y-34226D01*
X63526Y-34226D02*
X62500Y-33200D01*
X63526Y-38526D02*
X63526Y-38511D01*
X63526Y-38511D02*
X63526Y-40189D01*
X63500Y-40050D02*
X63500Y-40215D01*
X63500Y-40163D02*
X63500Y-40050D01*
X63526Y-40189D02*
X63500Y-40163D01*
X62350Y-42150D02*
X62350Y-41365D01*
X62350Y-41365D02*
X63500Y-40215D01*
G54D31*
X61796Y-43098D02*
X61800Y-42450D01*
X61800Y-42450D02*
X62350Y-42150D01*
X60700Y-35435D02*
X60285Y-35435D01*
X60285Y-35435D02*
X59900Y-35050D01*
G54D34*
X59726Y-38024D02*
X59726Y-35224D01*
X59750Y-38535D02*
X59726Y-38511D01*
X60400Y-41050D02*
X60400Y-40650D01*
G54D32*
X60750Y-41400D02*
X60400Y-41050D01*
G54D31*
X60772Y-43098D02*
X60772Y-41572D01*
X60772Y-41572D02*
X60750Y-41550D01*
G54D32*
X60750Y-41550D02*
X60750Y-41400D01*
G54D34*
X60400Y-40650D02*
X59750Y-40000D01*
X59750Y-40000D02*
X59750Y-38535D01*
X59726Y-38024D02*
X59726Y-38511D01*
X60500Y-34450D02*
X60500Y-33200D01*
X59726Y-35224D02*
X59900Y-35050D01*
X59900Y-35050D02*
X60500Y-34450D01*
G54D31*
X57250Y-35435D02*
X57685Y-35435D01*
X57900Y-35800D02*
X58000Y-35800D01*
X57950Y-35750D02*
X57900Y-35800D01*
X58000Y-35750D02*
X57950Y-35750D01*
X57685Y-35435D02*
X58000Y-35750D01*
G54D34*
X58000Y-39850D02*
X58000Y-35800D01*
X58000Y-35800D02*
X58000Y-35450D01*
X59500Y-41400D02*
X58000Y-39850D01*
G54D31*
X60008Y-43100D02*
X60008Y-42708D01*
X60008Y-42708D02*
X59500Y-42200D01*
G54D34*
X59500Y-42200D02*
X59500Y-41400D01*
X59500Y-33950D02*
X59500Y-33200D01*
X58000Y-35450D02*
X59500Y-33950D01*
G54D31*
X44775Y-26125D02*
X44066Y-26125D01*
X46700Y-28050D02*
X44775Y-26125D01*
X57650Y-28050D02*
X46700Y-28050D01*
X57750Y-28150D02*
X57650Y-28050D01*
X44200Y-26935D02*
X44200Y-26259D01*
X44200Y-26259D02*
X44066Y-26125D01*
X65546Y-24552D02*
X65546Y-25096D01*
X66350Y-25100D02*
X67150Y-24300D01*
X65550Y-25100D02*
X66350Y-25100D01*
X65546Y-25096D02*
X65550Y-25100D01*
X62800Y-46500D02*
X62800Y-47235D01*
X62307Y-45302D02*
X62798Y-45302D01*
X62800Y-45304D02*
X62800Y-46500D01*
X62798Y-45302D02*
X62800Y-45304D01*
X65900Y-35200D02*
X65900Y-35050D01*
X68874Y-26639D02*
X68261Y-26639D01*
X68261Y-26639D02*
X63800Y-31100D01*
X64300Y-44850D02*
X64400Y-44750D01*
X64400Y-44750D02*
X64400Y-41000D01*
X64400Y-41000D02*
X65900Y-39500D01*
X65900Y-39500D02*
X65900Y-35200D01*
X62052Y-44748D02*
X62052Y-45302D01*
X62200Y-44600D02*
X62052Y-44748D01*
X62600Y-44600D02*
X62200Y-44600D01*
X62900Y-44900D02*
X62600Y-44600D01*
X64550Y-32350D02*
X64800Y-32100D01*
X64550Y-33700D02*
X64550Y-32350D01*
X65900Y-35050D02*
X64550Y-33700D01*
X55315Y-32300D02*
X58500Y-32300D01*
X58500Y-32300D02*
X58500Y-33200D01*
X55315Y-32300D02*
X55315Y-32900D01*
X55315Y-32900D02*
X55500Y-33085D01*
X38000Y-34985D02*
X38785Y-34985D01*
X38785Y-34985D02*
X39800Y-36000D01*
G54D33*
X39600Y-33200D02*
X39600Y-35800D01*
G54D34*
X39600Y-35800D02*
X39800Y-36000D01*
X39800Y-36000D02*
X39800Y-35400D01*
G54D33*
X40600Y-34600D02*
X40600Y-33200D01*
G54D34*
X39800Y-35400D02*
X40600Y-34600D01*
G54D31*
X53000Y-40850D02*
X53600Y-40250D01*
X50902Y-43148D02*
X50902Y-42798D01*
X52000Y-41550D02*
X52700Y-40850D01*
X52000Y-41700D02*
X52000Y-41550D01*
X50902Y-42798D02*
X52000Y-41700D01*
X52700Y-40850D02*
X53000Y-40850D01*
X57250Y-31000D02*
X62950Y-31000D01*
X57000Y-30750D02*
X57250Y-31000D01*
X62850Y-50850D02*
X57800Y-50850D01*
X57800Y-50850D02*
X57100Y-50150D01*
X57100Y-50150D02*
X54250Y-50150D01*
X54250Y-50150D02*
X54150Y-50250D01*
X54150Y-50250D02*
X54150Y-50150D01*
X64950Y-42000D02*
X65850Y-41100D01*
X62850Y-50850D02*
X62850Y-50200D01*
X62850Y-50200D02*
X64950Y-48100D01*
X64950Y-48100D02*
X64950Y-42000D01*
X54150Y-50150D02*
X54200Y-50100D01*
X45200Y-46785D02*
X44815Y-46785D01*
X44150Y-47450D02*
X44150Y-50150D01*
X44815Y-46785D02*
X44150Y-47450D01*
X45200Y-46785D02*
X45200Y-45400D01*
X46750Y-41100D02*
X46775Y-41075D01*
X46775Y-41075D02*
X46750Y-41100D01*
X46750Y-41100D02*
X46750Y-41050D01*
X48598Y-43148D02*
X48598Y-42698D01*
X48350Y-42650D02*
X46750Y-41050D01*
X46750Y-41050D02*
X46750Y-41050D01*
X48550Y-42650D02*
X48350Y-42650D01*
X48598Y-42698D02*
X48550Y-42650D01*
X51150Y-35435D02*
X50350Y-35435D01*
G54D34*
X50350Y-39200D02*
X50350Y-35435D01*
X50350Y-35435D02*
X50350Y-33250D01*
X50350Y-33250D02*
X50300Y-33200D01*
G54D32*
X50350Y-41050D02*
X50350Y-41200D01*
G54D31*
X49878Y-41672D02*
X50100Y-41450D01*
X49878Y-43148D02*
X49878Y-41672D01*
G54D34*
X50350Y-41050D02*
X50350Y-39200D01*
X50350Y-39200D02*
X50350Y-39150D01*
G54D32*
X50350Y-41200D02*
X50100Y-41450D01*
G54D31*
X53200Y-35435D02*
X52815Y-35435D01*
X52815Y-35435D02*
X52426Y-35824D01*
G54D34*
X52426Y-40274D02*
X52426Y-35824D01*
X52426Y-35824D02*
X52426Y-34326D01*
X51050Y-42050D02*
X51050Y-41650D01*
X52426Y-40274D02*
X51050Y-41650D01*
X52426Y-34326D02*
X51300Y-33200D01*
G54D31*
X50646Y-43148D02*
X50646Y-42496D01*
X50942Y-42200D02*
X51050Y-42200D01*
X50646Y-42496D02*
X50942Y-42200D01*
X49450Y-35435D02*
X48965Y-35435D01*
X48965Y-35435D02*
X48626Y-35774D01*
G54D34*
X48626Y-37924D02*
X48626Y-35774D01*
X48626Y-35774D02*
X48626Y-34824D01*
X48626Y-38561D02*
X48626Y-37924D01*
G54D32*
X49622Y-41572D02*
X49150Y-41100D01*
G54D34*
X48626Y-38561D02*
X48626Y-40726D01*
X48626Y-40726D02*
X49000Y-41100D01*
G54D32*
X49000Y-41100D02*
X49150Y-41100D01*
G54D34*
X49300Y-34150D02*
X49300Y-33200D01*
X48626Y-34824D02*
X49300Y-34150D01*
G54D31*
X49622Y-43148D02*
X49622Y-41572D01*
X49622Y-41572D02*
X49600Y-41550D01*
X46600Y-35435D02*
X47374Y-35435D01*
X47300Y-35500D02*
X47374Y-35500D01*
X47309Y-35500D02*
X47300Y-35500D01*
X47374Y-35435D02*
X47309Y-35500D01*
G54D34*
X47374Y-38561D02*
X47374Y-35500D01*
X47374Y-35500D02*
X47374Y-34726D01*
X48300Y-33800D02*
X48300Y-33200D01*
X47374Y-34726D02*
X48300Y-33800D01*
X47374Y-38561D02*
X47374Y-40924D01*
X47374Y-40924D02*
X48450Y-42050D01*
X47374Y-38561D02*
X47374Y-38676D01*
G54D31*
X48858Y-43150D02*
X48858Y-42608D01*
X48858Y-42608D02*
X48350Y-42150D01*
X62900Y-30350D02*
X62900Y-30400D01*
X41285Y-39965D02*
X41650Y-39600D01*
X41700Y-30600D02*
X41950Y-30350D01*
X41950Y-30350D02*
X62900Y-30350D01*
X41285Y-40700D02*
X41285Y-39965D01*
X40516Y-40775D02*
X41210Y-40775D01*
X41210Y-40775D02*
X41285Y-40700D01*
X53300Y-29100D02*
X53850Y-28550D01*
X53850Y-28550D02*
X59450Y-28550D01*
X59450Y-28550D02*
X62900Y-25100D01*
X63754Y-25246D02*
X63754Y-24552D01*
X63750Y-25250D02*
X63754Y-25246D01*
X52150Y-46600D02*
X52150Y-47435D01*
X51157Y-45352D02*
X51552Y-45352D01*
X52150Y-45950D02*
X52150Y-46600D01*
X51552Y-45352D02*
X52150Y-45950D01*
X69300Y-50900D02*
X68200Y-50900D01*
X66550Y-52550D02*
X60700Y-52550D01*
X68200Y-50900D02*
X66550Y-52550D01*
X50902Y-45352D02*
X50902Y-46152D01*
X50902Y-46152D02*
X50950Y-46200D01*
X50950Y-46200D02*
X51200Y-46200D01*
X51200Y-46200D02*
X51450Y-46450D01*
X68111Y-28639D02*
X66350Y-30400D01*
X66350Y-30400D02*
X66350Y-32550D01*
X68874Y-28639D02*
X68111Y-28639D01*
X43400Y-33285D02*
X42965Y-33285D01*
X69400Y-43113D02*
X69874Y-42639D01*
X69400Y-45650D02*
X69400Y-43113D01*
X63450Y-51600D02*
X69400Y-45650D01*
X50800Y-51600D02*
X63450Y-51600D01*
X50150Y-50950D02*
X50800Y-51600D01*
X43050Y-50950D02*
X50150Y-50950D01*
X42750Y-50950D02*
X43050Y-50950D01*
X42750Y-41800D02*
X42750Y-50950D01*
X44450Y-40100D02*
X42750Y-41800D01*
X44450Y-37900D02*
X44450Y-40100D01*
X44500Y-37850D02*
X44450Y-37900D01*
X42950Y-37850D02*
X44500Y-37850D01*
X42800Y-37700D02*
X42950Y-37850D01*
X42800Y-33450D02*
X42800Y-37700D01*
X42965Y-33285D02*
X42800Y-33450D01*
X43485Y-32400D02*
X43485Y-33200D01*
X43485Y-33200D02*
X43400Y-33285D01*
X44115Y-32400D02*
X44115Y-33200D01*
X44115Y-33200D02*
X44200Y-33285D01*
X44150Y-31500D02*
X44150Y-32365D01*
X47300Y-31550D02*
X47250Y-31500D01*
X47250Y-31500D02*
X44150Y-31500D01*
X47300Y-33200D02*
X47300Y-31550D01*
X44150Y-32365D02*
X44115Y-32400D01*
X69861Y-39639D02*
X69874Y-39639D01*
X66850Y-46950D02*
X66850Y-46400D01*
X66850Y-46400D02*
X67250Y-46000D01*
X67250Y-46000D02*
X67250Y-41800D01*
X67250Y-41800D02*
X67900Y-41150D01*
X67900Y-41150D02*
X69350Y-41150D01*
X69350Y-41150D02*
X69350Y-40150D01*
X69350Y-40150D02*
X69861Y-39639D01*
X68061Y-41639D02*
X68874Y-41639D01*
X68000Y-41700D02*
X68061Y-41639D01*
X68000Y-46400D02*
X68000Y-41700D01*
X67450Y-46950D02*
X68000Y-46400D01*
G54D33*
X49200Y-57200D02*
X43050Y-57200D01*
X41950Y-58300D02*
X40600Y-58300D01*
X43050Y-57200D02*
X41950Y-58300D01*
X32829Y-58313D02*
X40587Y-58313D01*
X40587Y-58313D02*
X40600Y-58300D01*
G54D31*
X55000Y-25500D02*
X55000Y-24900D01*
X55000Y-24900D02*
X55050Y-24850D01*
G54D33*
X55000Y-23350D02*
X55000Y-25500D01*
X55000Y-25500D02*
X55000Y-26433D01*
X55000Y-26433D02*
X54883Y-26550D01*
G54D31*
X62250Y-36065D02*
X62250Y-36800D01*
X60700Y-36750D02*
X60700Y-36065D01*
X64250Y-36700D02*
X64250Y-36065D01*
X64300Y-36750D02*
X64250Y-36700D01*
X57250Y-36065D02*
X57250Y-36700D01*
X57250Y-36700D02*
X57200Y-36750D01*
X51150Y-36800D02*
X51150Y-36065D01*
X51200Y-36850D02*
X51150Y-36800D01*
X49450Y-36065D02*
X49450Y-36750D01*
X49450Y-36750D02*
X49500Y-36800D01*
X46600Y-36800D02*
X46600Y-36065D01*
X53200Y-36065D02*
X53200Y-36800D01*
G54D32*
X46935Y-48250D02*
X46300Y-48250D01*
G54D35*
X46935Y-47850D02*
X46935Y-48250D01*
X46935Y-48250D02*
X46935Y-48650D01*
G54D32*
X52750Y-44850D02*
X52750Y-47785D01*
X52750Y-47785D02*
X53050Y-48085D01*
X52150Y-48065D02*
X53030Y-48065D01*
X53030Y-48065D02*
X53050Y-48085D01*
G54D34*
X52700Y-44900D02*
X52050Y-44900D01*
G54D31*
X52750Y-44850D02*
X52700Y-44900D01*
G54D34*
X52050Y-44900D02*
X52050Y-44350D01*
G54D32*
X52050Y-44350D02*
X52200Y-44200D01*
X51200Y-43700D02*
X51200Y-44050D01*
G54D31*
X51157Y-43657D02*
X51200Y-43700D01*
X51157Y-43148D02*
X51157Y-43657D01*
G54D32*
X51200Y-44050D02*
X51350Y-44200D01*
X49800Y-44200D02*
X51350Y-44200D01*
G54D34*
X51350Y-44200D02*
X52200Y-44200D01*
G54D32*
X52200Y-44200D02*
X52700Y-44200D01*
X52750Y-44150D02*
X52700Y-44200D01*
X52750Y-44150D02*
X52750Y-43741D01*
X49800Y-44200D02*
X49750Y-44250D01*
X47050Y-43741D02*
X47609Y-43741D01*
X47609Y-43741D02*
X48000Y-43350D01*
G54D31*
X48343Y-43148D02*
X48152Y-43148D01*
X48152Y-43148D02*
X48000Y-43300D01*
G54D34*
X44850Y-42250D02*
X44850Y-42785D01*
X45800Y-43600D02*
X47050Y-43741D01*
X44850Y-42785D02*
X45800Y-43600D01*
X43900Y-42267D02*
X44833Y-42267D01*
X44833Y-42267D02*
X44850Y-42250D01*
G54D31*
X36950Y-41000D02*
X36950Y-40983D01*
G54D34*
X40700Y-38500D02*
X43350Y-38500D01*
X64250Y-45700D02*
X63600Y-45700D01*
G54D31*
X64300Y-45750D02*
X64250Y-45700D01*
X66050Y-25400D02*
X66600Y-25400D01*
X65290Y-24552D02*
X65290Y-25190D01*
X66050Y-25400D02*
X66050Y-25885D01*
X65500Y-25400D02*
X66050Y-25400D01*
X65290Y-25190D02*
X65500Y-25400D01*
X64010Y-21910D02*
X64010Y-22350D01*
X63800Y-21700D02*
X64010Y-21910D01*
X63500Y-21700D02*
X63800Y-21700D01*
X63100Y-21300D02*
X63500Y-21700D01*
X65290Y-22348D02*
X65290Y-22940D01*
X65280Y-22950D02*
X64700Y-22950D01*
X64700Y-22950D02*
X64600Y-22950D01*
X64600Y-22950D02*
X64500Y-22950D01*
X65290Y-22940D02*
X65280Y-22950D01*
X64010Y-22890D02*
X64070Y-22950D01*
X64010Y-22350D02*
X64010Y-22890D01*
X64070Y-22950D02*
X64500Y-22950D01*
X64266Y-24552D02*
X64266Y-24084D01*
X64266Y-24084D02*
X64300Y-24050D01*
X64300Y-24050D02*
X64700Y-24050D01*
X65034Y-24084D02*
X65034Y-24552D01*
X64700Y-24050D02*
X65000Y-24050D01*
X65000Y-24050D02*
X65034Y-24084D01*
X65034Y-24552D02*
X65290Y-24552D01*
X64010Y-24552D02*
X64266Y-24552D01*
G54D33*
X41500Y-24600D02*
X42900Y-24600D01*
G54D32*
X40700Y-38500D02*
X40700Y-39841D01*
X40700Y-39841D02*
X40516Y-40025D01*
G54D34*
X37600Y-40315D02*
X37600Y-40400D01*
X37600Y-40400D02*
X37017Y-40983D01*
X37017Y-40983D02*
X36950Y-40983D01*
X36950Y-40983D02*
X35600Y-40983D01*
G54D31*
X43400Y-33915D02*
X43400Y-36596D01*
X43400Y-36596D02*
X43708Y-36904D01*
X58285Y-47850D02*
X57250Y-47850D01*
X59493Y-43098D02*
X59093Y-43098D01*
G54D32*
X59093Y-43098D02*
X58400Y-43791D01*
X63100Y-47835D02*
X63535Y-47835D01*
X62800Y-47850D02*
X62770Y-47880D01*
X63100Y-47835D02*
X62800Y-47850D01*
X63600Y-47770D02*
X63600Y-45700D01*
X63535Y-47835D02*
X63600Y-47770D01*
G54D34*
X63600Y-45700D02*
X63600Y-44141D01*
G54D31*
X58285Y-48550D02*
X58285Y-47850D01*
G54D34*
X57250Y-43785D02*
X58394Y-43785D01*
X58394Y-43785D02*
X58400Y-43791D01*
X57250Y-43785D02*
X57250Y-42900D01*
X57250Y-42900D02*
X56450Y-42350D01*
X56133Y-42417D02*
X55350Y-42417D01*
X56450Y-42350D02*
X56133Y-42417D01*
X63600Y-44141D02*
X62307Y-44141D01*
G54D32*
X62307Y-44141D02*
X62307Y-44193D01*
X62307Y-43593D02*
X62307Y-44193D01*
X62300Y-44200D02*
X60900Y-44200D01*
X62307Y-44193D02*
X62300Y-44200D01*
G54D31*
X62307Y-43098D02*
X62307Y-43593D01*
X62307Y-43593D02*
X62300Y-43600D01*
X44066Y-25375D02*
X44066Y-24519D01*
X44066Y-24519D02*
X44085Y-24500D01*
X44875Y-25375D02*
X44066Y-25375D01*
X45100Y-25600D02*
X44875Y-25375D01*
X54700Y-34500D02*
X54700Y-33715D01*
X55500Y-33700D02*
X55500Y-34385D01*
X59493Y-45302D02*
X58348Y-45302D01*
X58285Y-45365D02*
X58285Y-46450D01*
X58348Y-45302D02*
X58285Y-45365D01*
X58915Y-46450D02*
X59700Y-46450D01*
X59748Y-46402D02*
X59748Y-45302D01*
X59700Y-46450D02*
X59748Y-46402D01*
X47565Y-47050D02*
X48800Y-47050D01*
X48854Y-46996D02*
X48854Y-45352D01*
X48800Y-47050D02*
X48854Y-46996D01*
X60516Y-43098D02*
X60516Y-41866D01*
X58400Y-41600D02*
X58400Y-42609D01*
X60516Y-41866D02*
X60250Y-41600D01*
X61284Y-43098D02*
X61284Y-41816D01*
X63600Y-41650D02*
X63600Y-42959D01*
X61284Y-41816D02*
X61450Y-41650D01*
X58915Y-47150D02*
X59950Y-47150D01*
X60004Y-47096D02*
X60004Y-45302D01*
X59950Y-47150D02*
X60004Y-47096D01*
X61350Y-46300D02*
X61350Y-45800D01*
X60000Y-48550D02*
X61350Y-47250D01*
X61350Y-47250D02*
X61350Y-46300D01*
X58915Y-48550D02*
X60000Y-48550D01*
X61284Y-45734D02*
X61284Y-45302D01*
X61350Y-45800D02*
X61284Y-45734D01*
X58915Y-47850D02*
X60200Y-47850D01*
X60260Y-47790D02*
X60260Y-45302D01*
X60200Y-47850D02*
X60260Y-47790D01*
X52750Y-42559D02*
X52750Y-41550D01*
X50134Y-41966D02*
X50500Y-41600D01*
X50134Y-41966D02*
X50134Y-43148D01*
X47565Y-48650D02*
X50000Y-48650D01*
X50134Y-48516D02*
X50134Y-45352D01*
X50000Y-48650D02*
X50134Y-48516D01*
X44200Y-33900D02*
X44200Y-34585D01*
X47565Y-47850D02*
X49050Y-47850D01*
X49110Y-47790D02*
X49110Y-45352D01*
X49050Y-47850D02*
X49110Y-47790D01*
X46750Y-41700D02*
X46750Y-42259D01*
X49366Y-43148D02*
X49366Y-42016D01*
X49366Y-42016D02*
X49050Y-41700D01*
X46750Y-42259D02*
X47050Y-42559D01*
X49878Y-45352D02*
X49878Y-46322D01*
X51000Y-47450D02*
X50390Y-47450D01*
X51050Y-47400D02*
X51000Y-47450D01*
X49878Y-46322D02*
X49800Y-46400D01*
X47565Y-49400D02*
X49750Y-49400D01*
X50390Y-48760D02*
X50390Y-47450D01*
X50390Y-47450D02*
X50390Y-45352D01*
X49750Y-49400D02*
X50390Y-48760D01*
X61028Y-45302D02*
X61028Y-46072D01*
X61200Y-47800D02*
X61200Y-47750D01*
X61175Y-47775D02*
X61200Y-47800D01*
X61450Y-48050D02*
X61175Y-47775D01*
X61028Y-46072D02*
X61000Y-46100D01*
X58900Y-49200D02*
X60250Y-49200D01*
X61540Y-47410D02*
X61540Y-45302D01*
X60250Y-48700D02*
X61200Y-47750D01*
X61200Y-47750D02*
X61540Y-47410D01*
X60250Y-49200D02*
X60250Y-48700D01*
X60250Y-49200D02*
X60250Y-49200D01*
X64915Y-21350D02*
X64915Y-21735D01*
X64778Y-21872D02*
X64778Y-22348D01*
X64915Y-21735D02*
X64778Y-21872D01*
X38900Y-40315D02*
X39599Y-40315D01*
X39599Y-40315D02*
X39684Y-40400D01*
X38900Y-40315D02*
X38900Y-41185D01*
X38000Y-35600D02*
X38000Y-36385D01*
X42642Y-26342D02*
X42642Y-27343D01*
X42642Y-27343D02*
X42635Y-27350D01*
X41965Y-27350D02*
X42635Y-27350D01*
X42635Y-26349D02*
X42642Y-26342D01*
X42642Y-26342D02*
X43234Y-25750D01*
X37150Y-25100D02*
X37150Y-25885D01*
X38900Y-38500D02*
X38900Y-39685D01*
X41500Y-26400D02*
X41500Y-26600D01*
X41335Y-26765D02*
X41335Y-27350D01*
X41500Y-26600D02*
X41335Y-26765D01*
X63352Y-24552D02*
X62752Y-24552D01*
X62700Y-23000D02*
X63450Y-23000D01*
X62700Y-24500D02*
X62700Y-23000D01*
X62752Y-24552D02*
X62700Y-24500D01*
X63498Y-24552D02*
X63352Y-24552D01*
X63350Y-24554D02*
X63350Y-25885D01*
X63352Y-24552D02*
X63350Y-24554D01*
X63500Y-23000D02*
X63600Y-23000D01*
X63850Y-23250D02*
X65802Y-23250D01*
X63600Y-23000D02*
X63850Y-23250D01*
X63498Y-22348D02*
X63498Y-22998D01*
X63498Y-22998D02*
X63500Y-23000D01*
X65802Y-23500D02*
X65800Y-23500D01*
X65800Y-23500D02*
X65802Y-23500D01*
X65802Y-24552D02*
X65802Y-23500D01*
X65802Y-23500D02*
X65802Y-23250D01*
X65802Y-23250D02*
X65802Y-22348D01*
X47565Y-46250D02*
X48550Y-46250D01*
X48598Y-46202D02*
X48598Y-45352D01*
X48550Y-46250D02*
X48598Y-46202D01*
X46935Y-46250D02*
X46935Y-45565D01*
X47148Y-45352D02*
X48343Y-45352D01*
X46935Y-45565D02*
X47148Y-45352D01*
X67000Y-27150D02*
X67006Y-27150D01*
X67900Y-26200D02*
X67899Y-26200D01*
X67006Y-27150D02*
X67900Y-26200D01*
X67900Y-22150D02*
X67899Y-26200D01*
X69874Y-21639D02*
X69811Y-21639D01*
X69300Y-22150D02*
X67900Y-22150D01*
X69811Y-21639D02*
X69300Y-22150D01*
X64500Y-27100D02*
X64522Y-25413D01*
X64528Y-27128D02*
X64500Y-27100D01*
X67000Y-27150D02*
X64528Y-27128D01*
X64522Y-24552D02*
X64522Y-25413D01*
X66850Y-26950D02*
X66950Y-26850D01*
X64800Y-25350D02*
X64800Y-25950D01*
X64778Y-25313D02*
X64800Y-25350D01*
X64778Y-24552D02*
X64778Y-25313D01*
X66850Y-26950D02*
X66650Y-26950D01*
X66650Y-26950D02*
X64800Y-26950D01*
X64800Y-26950D02*
X64800Y-26435D01*
X64800Y-26435D02*
X64800Y-25950D01*
X67650Y-21850D02*
X67650Y-26050D01*
X67861Y-21639D02*
X67650Y-21850D01*
X68874Y-21639D02*
X67861Y-21639D01*
X66950Y-26850D02*
X67650Y-26050D01*
G54D33*
X32829Y-56313D02*
X40513Y-56313D01*
X40513Y-56313D02*
X40600Y-56400D01*
G54D31*
X35600Y-21800D02*
X34550Y-21800D01*
X34550Y-21800D02*
X34550Y-21850D01*
X34550Y-21850D02*
X34550Y-32150D01*
X34550Y-32150D02*
X35600Y-33200D01*
X35600Y-33200D02*
X35600Y-34946D01*
X35600Y-23546D02*
X35600Y-21800D01*
X50725Y-25325D02*
X50550Y-25150D01*
G54D33*
X52717Y-26550D02*
X51950Y-26550D01*
X46800Y-21400D02*
X44450Y-21400D01*
X51950Y-26550D02*
X50725Y-25325D01*
X50725Y-25325D02*
X46800Y-21400D01*
X32829Y-59313D02*
X40587Y-59313D01*
X40587Y-59313D02*
X40600Y-59300D01*
G54D31*
X58285Y-47150D02*
X57300Y-47150D01*
G54D32*
X43450Y-23400D02*
X44300Y-23400D01*
X44715Y-23815D02*
X44715Y-24500D01*
X44300Y-23400D02*
X44715Y-23815D01*
X45800Y-44365D02*
X45800Y-46100D01*
X46300Y-47050D02*
X46935Y-47050D01*
X46250Y-47000D02*
X46300Y-47050D01*
X46250Y-46550D02*
X46250Y-47000D01*
X45800Y-46100D02*
X46250Y-46550D01*
G54D31*
X50390Y-42160D02*
X50500Y-42050D01*
X50390Y-43148D02*
X50390Y-42160D01*
X49110Y-42360D02*
X49110Y-43150D01*
X49000Y-42250D02*
X49110Y-42360D01*
G54D32*
X45800Y-44365D02*
X43968Y-44365D01*
X43968Y-44365D02*
X43900Y-44433D01*
G54D34*
X43900Y-45650D02*
X43900Y-44433D01*
X44250Y-46000D02*
X43900Y-45650D01*
X55350Y-46050D02*
X55350Y-44383D01*
G54D33*
X32829Y-54313D02*
X40513Y-54313D01*
X40513Y-54313D02*
X40600Y-54400D01*
X32829Y-53313D02*
X40513Y-53313D01*
X40513Y-53313D02*
X40600Y-53400D01*
G54D31*
X37150Y-26515D02*
X36665Y-26515D01*
X38600Y-23750D02*
X38600Y-21800D01*
X38600Y-23800D02*
X38600Y-23750D01*
X36800Y-23800D02*
X38600Y-23800D01*
X36550Y-24050D02*
X36800Y-23800D01*
X36550Y-26400D02*
X36550Y-24050D01*
X36665Y-26515D02*
X36550Y-26400D01*
G54D32*
X38000Y-37015D02*
X38000Y-39100D01*
X37600Y-39500D02*
X37600Y-39685D01*
X38000Y-39100D02*
X37600Y-39500D01*
G54D34*
X37600Y-39685D02*
X37600Y-39350D01*
X37600Y-39350D02*
X37050Y-38800D01*
X37050Y-38800D02*
X37033Y-38817D01*
X37033Y-38817D02*
X35600Y-38817D01*
G54D31*
X61540Y-43098D02*
X61540Y-42210D01*
X61540Y-42210D02*
X61700Y-42050D01*
X60260Y-43100D02*
X60260Y-42210D01*
X60260Y-42210D02*
X60100Y-42050D01*
G54D32*
X57250Y-44415D02*
X55518Y-44415D01*
X55518Y-44415D02*
X55350Y-44583D01*
M02*
