M48
;DRILL file {Pcbnew (2013-mar-13)-testing} date Wed 17 Dec 2014 16:17:42 GMT
;FORMAT={-:-/ absolute / inch / decimal}
FMAT,2
INCH,TZ
T1C0.016
T2C0.020
T3C0.025
T4C0.047
%
G90
G05
M72
T1
X5.215Y-4.66
X6.28Y-4.65
T2
X4.905Y-4.385
X4.905Y-4.455
X4.93Y-4.42
X4.955Y-4.385
X4.955Y-4.455
X4.98Y-4.42
X5.005Y-4.385
X5.005Y-4.455
X5.03Y-4.42
X5.055Y-4.385
X5.055Y-4.455
X6.02Y-4.38
X6.02Y-4.45
X6.045Y-4.415
X6.07Y-4.38
X6.07Y-4.45
X6.095Y-4.415
X6.12Y-4.38
X6.12Y-4.45
X6.145Y-4.415
X6.17Y-4.38
X6.17Y-4.45
T3
X3.695Y-4.1
X3.705Y-3.88
X3.975Y-4.18
X4.165Y-3.96
X4.17Y-3.06
X4.275Y-4.07
X4.29Y-2.46
X4.325Y-2.665
X4.335Y-3.85
X4.41Y-3.585
X4.415Y-5.015
X4.42Y-2.865
X4.425Y-4.6
X4.48Y-4.82
X4.485Y-4.225
X4.51Y-2.56
X4.52Y-4.54
X4.63Y-4.825
X4.66Y-3.68
X4.675Y-4.11
X4.675Y-4.17
X4.9Y-4.225
X4.905Y-2.195
X4.905Y-4.17
X4.95Y-3.68
X4.955Y-4.8
X4.955Y-4.98
X4.98Y-4.64
X4.98Y-4.725
X5.05Y-4.16
X5.05Y-4.205
X5.055Y-2.515
X5.08Y-4.8
X5.095Y-2.415
X5.105Y-4.74
X5.12Y-3.685
X5.145Y-4.645
X5.18Y-2.42
X5.275Y-4.155
X5.275Y-4.485
X5.3Y-5.035
X5.32Y-3.68
X5.33Y-2.91
X5.36Y-4.025
X5.365Y-5.125
X5.415Y-5.015
X5.445Y-3.71
X5.47Y-3.45
X5.505Y-2.485
X5.52Y-2.915
X5.535Y-4.605
X5.56Y-3.13
X5.645Y-4.235
X5.7Y-3.075
X5.72Y-3.675
X5.725Y-4.785
X5.73Y-4.715
X5.775Y-2.815
X5.84Y-4.16
X5.88Y-2.785
X6.01Y-4.205
X6.025Y-4.16
X6.06Y-4.74
X6.065Y-4.975
X6.07Y-3.675
X6.07Y-5.255
X6.09Y-4.68
X6.1Y-4.61
X6.105Y-4.875
X6.145Y-4.165
X6.145Y-4.805
X6.17Y-4.205
X6.225Y-3.68
X6.24Y-2.65
X6.29Y-2.51
X6.29Y-3.04
X6.29Y-4.49
X6.295Y-3.1
X6.31Y-2.13
X6.36Y-2.095
X6.36Y-4.165
X6.375Y-2.525
X6.38Y-3.11
X6.385Y-2.995
X6.43Y-3.675
X6.43Y-4.485
X6.43Y-4.575
X6.445Y-2.95
X6.48Y-3.21
X6.53Y-3.185
X6.555Y-4.265
X6.585Y-4.11
X6.595Y-3.155
X6.615Y-4.7
X6.625Y-4.985
X6.635Y-3.255
X6.66Y-2.54
X6.675Y-2.65
X6.685Y-4.695
X6.715Y-2.43
X6.745Y-4.695
X6.8Y-2.925
T4
X3.2829Y-4.3313
X3.2829Y-4.4313
X3.2829Y-4.5313
X3.2829Y-4.6313
X3.2829Y-4.7313
X3.2829Y-4.8313
X3.2829Y-4.9313
X3.2829Y-5.1313
X3.2829Y-5.2313
X3.2829Y-5.3313
X3.2829Y-5.4313
X3.2829Y-5.5313
X3.2829Y-5.6313
X3.2829Y-5.8313
X3.2829Y-5.9313
X3.56Y-2.18
X3.56Y-3.32
X3.66Y-2.18
X3.66Y-3.32
X3.76Y-2.18
X3.76Y-3.32
X3.86Y-2.18
X3.86Y-3.32
X3.96Y-2.18
X3.96Y-3.32
X4.06Y-2.18
X4.06Y-3.32
X4.06Y-4.32
X4.06Y-4.42
X4.06Y-4.52
X4.06Y-4.62
X4.06Y-4.72
X4.06Y-4.82
X4.06Y-4.92
X4.06Y-5.14
X4.06Y-5.24
X4.06Y-5.34
X4.06Y-5.44
X4.06Y-5.54
X4.06Y-5.64
X4.06Y-5.83
X4.06Y-5.93
X4.3708Y-3.6904
X4.53Y-3.32
X4.63Y-3.32
X4.73Y-3.32
X4.83Y-3.32
X4.92Y-5.19
X4.92Y-5.29
X4.92Y-5.39
X4.92Y-5.49
X4.92Y-5.72
X4.92Y-5.82
X4.93Y-3.32
X5.03Y-3.32
X5.13Y-3.32
X5.65Y-3.32
X5.7Y-5.25
X5.7Y-5.35
X5.7Y-5.485
X5.7Y-5.585
X5.7Y-5.72
X5.7Y-5.82
X5.75Y-3.32
X5.85Y-3.32
X5.95Y-3.32
X6.05Y-3.32
X6.15Y-3.32
X6.25Y-3.32
X6.8874Y-1.9639
X6.8874Y-2.0639
X6.8874Y-2.1639
X6.8874Y-2.2639
X6.8874Y-2.3639
X6.8874Y-2.4639
X6.8874Y-2.5639
X6.8874Y-2.6639
X6.8874Y-2.7639
X6.8874Y-2.8639
X6.8874Y-2.9639
X6.8874Y-3.0639
X6.8874Y-3.1639
X6.8874Y-3.2639
X6.8874Y-3.3639
X6.8874Y-3.4639
X6.8874Y-3.5639
X6.8874Y-3.6639
X6.8874Y-3.7639
X6.8874Y-3.8639
X6.8874Y-3.9639
X6.8874Y-4.0639
X6.8874Y-4.1639
X6.8874Y-4.2639
X6.8874Y-4.3639
X6.93Y-4.89
X6.93Y-4.99
X6.93Y-5.09
X6.93Y-5.19
X6.9874Y-1.9639
X6.9874Y-2.0639
X6.9874Y-2.1639
X6.9874Y-2.2639
X6.9874Y-2.3639
X6.9874Y-2.4639
X6.9874Y-2.5639
X6.9874Y-2.6639
X6.9874Y-2.7639
X6.9874Y-2.8639
X6.9874Y-2.9639
X6.9874Y-3.0639
X6.9874Y-3.1639
X6.9874Y-3.2639
X6.9874Y-3.3639
X6.9874Y-3.4639
X6.9874Y-3.5639
X6.9874Y-3.6639
X6.9874Y-3.7639
X6.9874Y-3.8639
X6.9874Y-3.9639
X6.9874Y-4.0639
X6.9874Y-4.1639
X6.9874Y-4.2639
X6.9874Y-4.3639
T0
M30
