M48
;DRILL file {Pcbnew (2013-05-18 BZR 4017)-stable} date Wed 17 Dec 2014 21:04:06 GMT
;FORMAT={-:-/ absolute / metric / decimal}
FMAT,2
METRIC,TZ
T1C0.399
T2C0.500
T3C0.635
T4C1.199
%
G90
G05
M71
T1
X132.461Y-118.364
X159.512Y-118.11
T2
X124.587Y-111.379
X124.587Y-113.157
X125.222Y-112.268
X125.857Y-111.379
X125.857Y-113.157
X126.492Y-112.268
X127.127Y-111.379
X127.127Y-113.157
X127.762Y-112.268
X128.397Y-111.379
X128.397Y-113.157
X152.908Y-111.252
X152.908Y-113.03
X153.543Y-112.141
X154.178Y-111.252
X154.178Y-113.03
X154.813Y-112.141
X155.448Y-111.252
X155.448Y-113.03
X156.083Y-112.141
X156.718Y-111.252
X156.718Y-113.03
T3
X93.853Y-104.14
X94.107Y-98.552
X100.965Y-106.172
X105.791Y-100.584
X105.918Y-77.724
X108.585Y-103.378
X108.966Y-62.484
X109.855Y-67.691
X110.109Y-97.79
X112.014Y-91.059
X112.141Y-127.381
X112.268Y-72.771
X112.395Y-116.84
X113.792Y-122.428
X113.919Y-107.315
X114.554Y-65.024
X114.808Y-115.316
X117.602Y-122.555
X118.364Y-93.472
X118.745Y-104.394
X118.745Y-105.918
X124.46Y-107.315
X124.587Y-55.753
X124.587Y-105.918
X125.73Y-93.472
X125.857Y-121.92
X125.857Y-126.492
X126.492Y-117.856
X126.492Y-120.015
X128.27Y-105.664
X128.27Y-106.807
X128.397Y-63.881
X129.032Y-121.92
X129.413Y-61.341
X129.667Y-120.396
X130.048Y-93.599
X130.683Y-117.983
X131.572Y-61.468
X133.985Y-105.537
X133.985Y-113.919
X134.62Y-127.889
X135.128Y-93.472
X135.382Y-73.914
X136.144Y-102.235
X136.271Y-130.175
X137.541Y-127.381
X138.303Y-94.234
X138.938Y-87.63
X139.827Y-63.119
X140.208Y-74.041
X140.589Y-116.967
X141.224Y-79.502
X143.383Y-107.569
X144.78Y-78.105
X145.288Y-93.345
X145.415Y-121.539
X145.542Y-119.761
X146.685Y-71.501
X148.336Y-105.664
X149.352Y-70.739
X152.654Y-106.807
X153.035Y-105.664
X153.924Y-120.396
X154.051Y-126.365
X154.178Y-93.345
X154.178Y-133.477
X154.686Y-118.872
X154.94Y-117.094
X155.067Y-123.825
X156.083Y-105.791
X156.083Y-122.047
X156.718Y-106.807
X158.115Y-93.472
X158.496Y-67.31
X159.766Y-63.754
X159.766Y-77.216
X159.766Y-114.046
X159.893Y-78.74
X160.274Y-54.102
X161.544Y-53.213
X161.544Y-105.791
X161.925Y-64.135
X162.052Y-78.994
X162.179Y-76.073
X163.322Y-93.345
X163.322Y-113.919
X163.322Y-116.205
X163.703Y-74.93
X164.592Y-81.534
X165.862Y-80.899
X166.497Y-108.331
X167.259Y-104.394
X167.513Y-80.137
X168.021Y-119.38
X168.275Y-126.619
X168.529Y-82.677
X169.164Y-64.516
X169.545Y-67.31
X169.799Y-119.253
X170.561Y-61.722
X171.323Y-119.253
X172.72Y-74.295
T4
X83.386Y-110.015
X83.386Y-112.555
X83.386Y-115.095
X83.386Y-117.635
X83.386Y-120.175
X83.386Y-122.715
X83.386Y-125.255
X83.386Y-130.335
X83.386Y-132.875
X83.386Y-135.415
X83.386Y-137.955
X83.386Y-140.495
X83.386Y-143.035
X83.386Y-148.115
X83.386Y-150.655
X90.424Y-55.372
X90.424Y-84.328
X92.964Y-55.372
X92.964Y-84.328
X95.504Y-55.372
X95.504Y-84.328
X98.044Y-55.372
X98.044Y-84.328
X100.584Y-55.372
X100.584Y-84.328
X103.124Y-55.372
X103.124Y-84.328
X103.124Y-109.728
X103.124Y-112.268
X103.124Y-114.808
X103.124Y-117.348
X103.124Y-119.888
X103.124Y-122.428
X103.124Y-124.968
X103.124Y-130.556
X103.124Y-133.096
X103.124Y-135.636
X103.124Y-138.176
X103.124Y-140.716
X103.124Y-143.256
X103.124Y-148.082
X103.124Y-150.622
X111.018Y-93.736
X115.062Y-84.328
X117.602Y-84.328
X120.142Y-84.328
X122.682Y-84.328
X124.968Y-131.826
X124.968Y-134.366
X124.968Y-136.906
X124.968Y-139.446
X124.968Y-145.288
X124.968Y-147.828
X125.222Y-84.328
X127.762Y-84.328
X130.302Y-84.328
X143.51Y-84.328
X144.78Y-133.35
X144.78Y-135.89
X144.78Y-139.319
X144.78Y-141.859
X144.78Y-145.288
X144.78Y-147.828
X146.05Y-84.328
X148.59Y-84.328
X151.13Y-84.328
X153.67Y-84.328
X156.21Y-84.328
X158.75Y-84.328
X174.94Y-49.883
X174.94Y-52.423
X174.94Y-54.963
X174.94Y-57.503
X174.94Y-60.043
X174.94Y-62.583
X174.94Y-65.123
X174.94Y-67.663
X174.94Y-70.203
X174.94Y-72.743
X174.94Y-75.283
X174.94Y-77.823
X174.94Y-80.363
X174.94Y-82.903
X174.94Y-85.443
X174.94Y-87.983
X174.94Y-90.523
X174.94Y-93.063
X174.94Y-95.603
X174.94Y-98.143
X174.94Y-100.683
X174.94Y-103.223
X174.94Y-105.763
X174.94Y-108.303
X174.94Y-110.843
X176.022Y-124.206
X176.022Y-126.746
X176.022Y-129.286
X176.022Y-131.826
X177.48Y-49.883
X177.48Y-52.423
X177.48Y-54.963
X177.48Y-57.503
X177.48Y-60.043
X177.48Y-62.583
X177.48Y-65.123
X177.48Y-67.663
X177.48Y-70.203
X177.48Y-72.743
X177.48Y-75.283
X177.48Y-77.823
X177.48Y-80.363
X177.48Y-82.903
X177.48Y-85.443
X177.48Y-87.983
X177.48Y-90.523
X177.48Y-93.063
X177.48Y-95.603
X177.48Y-98.143
X177.48Y-100.683
X177.48Y-103.223
X177.48Y-105.763
X177.48Y-108.303
X177.48Y-110.843
T0
M30
