G04 (created by PCBNEW (2013-05-18 BZR 4017)-stable) date Tue 16 Dec 2014 16:28:54 GMT*
%MOIN*%
G04 Gerber Fmt 3.4, Leading zero omitted, Abs format*
%FSLAX34Y34*%
G01*
G70*
G90*
G04 APERTURE LIST*
%ADD10C,0.00590551*%
%ADD11C,0.0315*%
%ADD12C,0.06*%
%ADD13R,0.06X0.06*%
%ADD14C,0.0866*%
%ADD15C,0.0354*%
%ADD16C,0.035*%
%ADD17C,0.0488*%
%ADD18C,0.008*%
%ADD19C,0.0198*%
%ADD20C,0.01*%
G04 APERTURE END LIST*
G54D10*
G54D11*
X52150Y-46600D03*
X62800Y-46500D03*
G54D12*
X43708Y-36904D03*
G54D13*
X40600Y-43200D03*
G54D12*
X40600Y-44200D03*
X40600Y-45200D03*
X40600Y-46200D03*
X40600Y-47200D03*
X40600Y-48200D03*
X40600Y-49200D03*
G54D13*
X32829Y-43313D03*
G54D12*
X32829Y-44313D03*
X32829Y-45313D03*
X32829Y-46313D03*
X32829Y-47313D03*
X32829Y-48313D03*
X32829Y-49313D03*
G54D13*
X62500Y-33200D03*
G54D12*
X61500Y-33200D03*
X60500Y-33200D03*
X59500Y-33200D03*
X58500Y-33200D03*
X57500Y-33200D03*
X56500Y-33200D03*
G54D13*
X51300Y-33200D03*
G54D12*
X50300Y-33200D03*
X49300Y-33200D03*
X48300Y-33200D03*
X47300Y-33200D03*
X46300Y-33200D03*
X45300Y-33200D03*
G54D13*
X40600Y-21800D03*
G54D12*
X39600Y-21800D03*
X38600Y-21800D03*
X37600Y-21800D03*
X36600Y-21800D03*
X35600Y-21800D03*
G54D13*
X57000Y-52700D03*
G54D12*
X57000Y-53700D03*
X57000Y-54700D03*
X57000Y-55700D03*
G54D13*
X49200Y-51900D03*
G54D12*
X49200Y-52900D03*
X49200Y-53900D03*
X49200Y-54900D03*
G54D13*
X32829Y-58313D03*
G54D12*
X32829Y-59313D03*
G54D13*
X57000Y-57200D03*
G54D12*
X57000Y-58200D03*
G54D13*
X69200Y-51400D03*
G54D12*
X69200Y-52400D03*
G54D13*
X69200Y-49000D03*
G54D12*
X69200Y-50000D03*
G54D13*
X68874Y-19639D03*
G54D12*
X69874Y-19639D03*
X68874Y-24639D03*
X69874Y-20639D03*
X68874Y-25639D03*
X69874Y-21639D03*
X68874Y-26639D03*
X69874Y-22639D03*
X68874Y-27639D03*
X69874Y-23639D03*
X68874Y-28639D03*
X69874Y-24639D03*
X68874Y-29639D03*
X69874Y-25639D03*
X68874Y-30639D03*
X69874Y-26639D03*
X68874Y-31639D03*
X69874Y-27639D03*
X68874Y-32639D03*
X69874Y-28639D03*
X68874Y-33639D03*
X69874Y-29639D03*
X68874Y-34639D03*
X69874Y-30639D03*
X69874Y-31639D03*
X68874Y-35639D03*
X69874Y-32639D03*
X69874Y-34639D03*
X69874Y-35639D03*
X69874Y-36639D03*
X69874Y-37639D03*
X68874Y-36639D03*
X68874Y-37639D03*
X68874Y-20639D03*
X68874Y-21639D03*
X68874Y-22639D03*
X68874Y-23639D03*
X68874Y-38639D03*
X69874Y-38639D03*
X69874Y-33639D03*
X68874Y-39639D03*
X69874Y-39639D03*
X68874Y-40639D03*
X69874Y-40639D03*
X68874Y-41639D03*
X69874Y-41639D03*
X68874Y-42639D03*
X69874Y-42639D03*
X68874Y-43639D03*
X69874Y-43639D03*
G54D13*
X32829Y-51313D03*
G54D12*
X32829Y-52313D03*
X32829Y-53313D03*
X32829Y-54313D03*
G54D13*
X32829Y-56313D03*
G54D12*
X32829Y-55313D03*
G54D13*
X40600Y-33200D03*
G54D12*
X39600Y-33200D03*
X38600Y-33200D03*
X37600Y-33200D03*
X36600Y-33200D03*
X35600Y-33200D03*
G54D13*
X40600Y-51400D03*
G54D12*
X40600Y-52400D03*
X40600Y-53400D03*
X40600Y-54400D03*
X40600Y-55400D03*
X40600Y-56400D03*
G54D13*
X49200Y-58600D03*
G54D12*
X49200Y-57600D03*
X49200Y-56600D03*
G54D13*
X40600Y-58300D03*
G54D12*
X40600Y-59300D03*
G54D14*
X43450Y-23400D03*
X44450Y-21400D03*
X42450Y-21400D03*
X55000Y-23350D03*
X56000Y-21350D03*
X54000Y-21350D03*
G54D15*
X49050Y-43850D03*
X49550Y-43850D03*
X50050Y-43850D03*
X50550Y-43850D03*
X49300Y-44200D03*
X49800Y-44200D03*
X50300Y-44200D03*
X49050Y-44550D03*
X49550Y-44550D03*
X50050Y-44550D03*
X50550Y-44550D03*
X60200Y-43800D03*
X60700Y-43800D03*
X61200Y-43800D03*
X61700Y-43800D03*
X60450Y-44150D03*
X60950Y-44150D03*
X61450Y-44150D03*
X60200Y-44500D03*
X60700Y-44500D03*
X61200Y-44500D03*
X61700Y-44500D03*
G54D16*
X53000Y-50350D03*
X44800Y-48200D03*
X49550Y-49800D03*
X49550Y-48000D03*
X50800Y-48000D03*
X49800Y-47250D03*
X42750Y-40700D03*
X61050Y-48750D03*
X60900Y-46800D03*
X60650Y-49750D03*
X60600Y-47400D03*
X66750Y-26500D03*
X62400Y-26500D03*
X63600Y-20950D03*
X44100Y-35850D03*
X44200Y-28650D03*
X54450Y-37100D03*
X39750Y-41800D03*
X43250Y-26650D03*
X65300Y-31850D03*
X63850Y-29950D03*
X66150Y-47000D03*
X66250Y-49850D03*
X65550Y-42650D03*
X53650Y-51250D03*
X65950Y-31550D03*
X64450Y-29500D03*
X55600Y-31300D03*
X55200Y-29150D03*
X57750Y-28150D03*
X67150Y-24300D03*
X63800Y-31100D03*
X62900Y-44900D03*
X64300Y-44850D03*
X64800Y-32100D03*
X53600Y-40250D03*
X62950Y-31000D03*
X57000Y-30750D03*
X54150Y-50150D03*
X65850Y-41100D03*
X44150Y-50150D03*
X46750Y-41100D03*
X45200Y-45400D03*
X41650Y-39600D03*
X41700Y-30600D03*
X62900Y-30400D03*
X62900Y-25100D03*
X53300Y-29100D03*
X63750Y-25250D03*
X66350Y-32550D03*
X51450Y-46450D03*
X66850Y-46950D03*
X67450Y-46950D03*
X46300Y-48250D03*
X52750Y-44850D03*
X44850Y-42250D03*
X45300Y-35350D03*
X53550Y-35350D03*
X49900Y-34450D03*
X36950Y-41000D03*
X43350Y-38500D03*
X64300Y-45750D03*
X66600Y-25400D03*
X63100Y-21300D03*
X42900Y-24600D03*
X57250Y-47850D03*
X64900Y-35400D03*
X57200Y-35500D03*
X61050Y-34350D03*
X56450Y-42350D03*
X45100Y-25600D03*
X54700Y-34500D03*
X50500Y-41600D03*
X52750Y-41550D03*
X58400Y-41600D03*
X60250Y-41600D03*
X61450Y-48050D03*
X61000Y-46100D03*
X46750Y-41700D03*
X49050Y-41700D03*
X63600Y-41650D03*
X61450Y-41650D03*
X51050Y-47400D03*
X49800Y-46400D03*
X57300Y-47150D03*
X50500Y-42050D03*
X49000Y-42250D03*
X44250Y-46000D03*
X55350Y-46050D03*
X37050Y-38800D03*
X61700Y-42050D03*
X60100Y-42050D03*
G54D17*
X60450Y-44150D02*
X59800Y-44150D01*
X59800Y-44150D02*
X59650Y-44150D01*
X59650Y-44150D02*
X59800Y-44150D01*
X59800Y-44150D02*
X59800Y-43450D01*
X60450Y-44150D02*
X60950Y-44150D01*
X59800Y-43450D02*
X61650Y-43450D01*
X61650Y-43450D02*
X61700Y-43500D01*
G54D18*
X46300Y-48250D02*
X46300Y-49200D01*
X53100Y-49200D02*
X53100Y-45200D01*
X53100Y-45200D02*
X52750Y-44850D01*
X44850Y-42250D02*
X43700Y-42250D01*
X45300Y-35350D02*
X45300Y-35312D01*
X53600Y-35300D02*
X53600Y-34500D01*
X53550Y-35350D02*
X53600Y-35300D01*
G54D19*
X49900Y-34450D02*
X49950Y-34500D01*
G54D18*
X49950Y-34500D02*
X53600Y-34500D01*
X53600Y-34500D02*
X54700Y-34500D01*
X43700Y-41100D02*
X37050Y-41100D01*
X37050Y-41100D02*
X36950Y-41000D01*
X43708Y-36904D02*
X43708Y-38442D01*
X43708Y-38442D02*
X43700Y-38450D01*
X43700Y-38450D02*
X43700Y-41100D01*
X43700Y-41100D02*
X43700Y-42250D01*
X43700Y-42250D02*
X43700Y-49000D01*
X43700Y-49000D02*
X43850Y-49150D01*
X43400Y-38450D02*
X43700Y-38450D01*
G54D17*
X43350Y-38500D02*
X43400Y-38450D01*
G54D18*
X56000Y-21350D02*
X54000Y-21350D01*
X54000Y-21350D02*
X55000Y-22350D01*
X55000Y-22350D02*
X55000Y-23350D01*
X57250Y-47850D02*
X57250Y-49050D01*
X57250Y-49050D02*
X57400Y-49200D01*
X64300Y-49200D02*
X64300Y-45750D01*
X66600Y-21350D02*
X65300Y-21350D01*
X66600Y-25400D02*
X66600Y-21350D01*
X62900Y-21350D02*
X63050Y-21350D01*
X63050Y-21350D02*
X63100Y-21300D01*
X51700Y-52900D02*
X51550Y-52900D01*
X51850Y-53050D02*
X51700Y-52900D01*
X51550Y-52900D02*
X51500Y-52900D01*
X51850Y-53050D02*
X51850Y-50100D01*
X51850Y-50100D02*
X52800Y-49200D01*
X56500Y-33200D02*
X56500Y-34400D01*
X56500Y-34400D02*
X56600Y-34500D01*
X56500Y-33200D02*
X56500Y-29350D01*
X56500Y-29350D02*
X52750Y-25600D01*
X45100Y-25600D02*
X52750Y-25600D01*
X52750Y-25600D02*
X55000Y-23350D01*
X69874Y-19639D02*
X69874Y-18826D01*
X69874Y-18826D02*
X69850Y-18850D01*
X69850Y-18850D02*
X65750Y-18850D01*
X65750Y-18850D02*
X65650Y-18950D01*
X65650Y-18950D02*
X65650Y-21000D01*
X65650Y-21000D02*
X65300Y-21350D01*
X65300Y-21350D02*
X62900Y-21350D01*
X62900Y-21350D02*
X56000Y-21350D01*
X43200Y-24600D02*
X42900Y-24600D01*
X45100Y-24600D02*
X45100Y-25600D01*
X43200Y-24600D02*
X45100Y-24600D01*
X51850Y-56600D02*
X51850Y-53050D01*
X49200Y-56600D02*
X51850Y-56600D01*
X51850Y-56600D02*
X56400Y-56600D01*
X56400Y-56600D02*
X57000Y-57200D01*
X49200Y-52900D02*
X51600Y-52900D01*
X40600Y-49200D02*
X46300Y-49200D01*
X46300Y-49200D02*
X53100Y-49200D01*
X53100Y-49200D02*
X57400Y-49200D01*
X57400Y-49200D02*
X64300Y-49200D01*
X64300Y-49200D02*
X66950Y-49200D01*
X66950Y-49200D02*
X66950Y-49150D01*
X69200Y-51400D02*
X67000Y-51400D01*
X67000Y-51400D02*
X66950Y-51350D01*
X66950Y-51350D02*
X66950Y-49150D01*
X67000Y-49000D02*
X69200Y-49000D01*
X66950Y-49150D02*
X66950Y-49050D01*
X66950Y-49050D02*
X67000Y-49000D01*
X32829Y-49313D02*
X40487Y-49313D01*
X40487Y-49313D02*
X40600Y-49200D01*
X45300Y-33200D02*
X45300Y-35312D01*
X45300Y-35312D02*
X43708Y-36904D01*
X45300Y-33200D02*
X45300Y-25800D01*
X45300Y-25800D02*
X45100Y-25600D01*
X56450Y-47050D02*
X56450Y-42350D01*
X57250Y-47850D02*
X56450Y-47050D01*
X61050Y-34350D02*
X63850Y-34350D01*
X63850Y-34350D02*
X64900Y-35400D01*
X54700Y-34500D02*
X56200Y-34500D01*
X56200Y-34500D02*
X57200Y-35500D01*
X60900Y-34500D02*
X61050Y-34350D01*
X56600Y-34500D02*
X60900Y-34500D01*
X54700Y-34500D02*
X56600Y-34500D01*
X56450Y-42350D02*
X56550Y-42350D01*
G54D10*
G36*
X70443Y-53125D02*
X70428Y-53128D01*
X70428Y-19720D01*
X70417Y-19502D01*
X70355Y-19351D01*
X70259Y-19323D01*
X70189Y-19394D01*
X70189Y-19253D01*
X70161Y-19157D01*
X69955Y-19084D01*
X69737Y-19095D01*
X69586Y-19157D01*
X69558Y-19253D01*
X69874Y-19568D01*
X70189Y-19253D01*
X70189Y-19394D01*
X69944Y-19639D01*
X70259Y-19954D01*
X70355Y-19926D01*
X70428Y-19720D01*
X70428Y-53128D01*
X70424Y-53129D01*
X70424Y-43530D01*
X70340Y-43327D01*
X70185Y-43173D01*
X70104Y-43139D01*
X70185Y-43105D01*
X70339Y-42950D01*
X70423Y-42748D01*
X70424Y-42530D01*
X70340Y-42327D01*
X70185Y-42173D01*
X70104Y-42139D01*
X70185Y-42105D01*
X70339Y-41950D01*
X70423Y-41748D01*
X70424Y-41530D01*
X70340Y-41327D01*
X70185Y-41173D01*
X70104Y-41139D01*
X70185Y-41105D01*
X70339Y-40950D01*
X70423Y-40748D01*
X70424Y-40530D01*
X70340Y-40327D01*
X70185Y-40173D01*
X70104Y-40139D01*
X70185Y-40105D01*
X70339Y-39950D01*
X70423Y-39748D01*
X70424Y-39530D01*
X70340Y-39327D01*
X70185Y-39173D01*
X70104Y-39139D01*
X70185Y-39105D01*
X70339Y-38950D01*
X70423Y-38748D01*
X70424Y-38530D01*
X70340Y-38327D01*
X70185Y-38173D01*
X70104Y-38139D01*
X70185Y-38105D01*
X70339Y-37950D01*
X70423Y-37748D01*
X70424Y-37530D01*
X70340Y-37327D01*
X70185Y-37173D01*
X70104Y-37139D01*
X70185Y-37105D01*
X70339Y-36950D01*
X70423Y-36748D01*
X70424Y-36530D01*
X70340Y-36327D01*
X70185Y-36173D01*
X70104Y-36139D01*
X70185Y-36105D01*
X70339Y-35950D01*
X70423Y-35748D01*
X70424Y-35530D01*
X70340Y-35327D01*
X70185Y-35173D01*
X70104Y-35139D01*
X70185Y-35105D01*
X70339Y-34950D01*
X70423Y-34748D01*
X70424Y-34530D01*
X70340Y-34327D01*
X70185Y-34173D01*
X70104Y-34139D01*
X70185Y-34105D01*
X70339Y-33950D01*
X70423Y-33748D01*
X70424Y-33530D01*
X70340Y-33327D01*
X70185Y-33173D01*
X70104Y-33139D01*
X70185Y-33105D01*
X70339Y-32950D01*
X70423Y-32748D01*
X70424Y-32530D01*
X70340Y-32327D01*
X70185Y-32173D01*
X70104Y-32139D01*
X70185Y-32105D01*
X70339Y-31950D01*
X70423Y-31748D01*
X70424Y-31530D01*
X70340Y-31327D01*
X70185Y-31173D01*
X70104Y-31139D01*
X70185Y-31105D01*
X70339Y-30950D01*
X70423Y-30748D01*
X70424Y-30530D01*
X70340Y-30327D01*
X70185Y-30173D01*
X70104Y-30139D01*
X70185Y-30105D01*
X70339Y-29950D01*
X70423Y-29748D01*
X70424Y-29530D01*
X70340Y-29327D01*
X70185Y-29173D01*
X70104Y-29139D01*
X70185Y-29105D01*
X70339Y-28950D01*
X70423Y-28748D01*
X70424Y-28530D01*
X70340Y-28327D01*
X70185Y-28173D01*
X70104Y-28139D01*
X70185Y-28105D01*
X70339Y-27950D01*
X70423Y-27748D01*
X70424Y-27530D01*
X70340Y-27327D01*
X70185Y-27173D01*
X70104Y-27139D01*
X70185Y-27105D01*
X70339Y-26950D01*
X70423Y-26748D01*
X70424Y-26530D01*
X70340Y-26327D01*
X70185Y-26173D01*
X70104Y-26139D01*
X70185Y-26105D01*
X70339Y-25950D01*
X70423Y-25748D01*
X70424Y-25530D01*
X70340Y-25327D01*
X70185Y-25173D01*
X70104Y-25139D01*
X70185Y-25105D01*
X70339Y-24950D01*
X70423Y-24748D01*
X70424Y-24530D01*
X70340Y-24327D01*
X70185Y-24173D01*
X70104Y-24139D01*
X70185Y-24105D01*
X70339Y-23950D01*
X70423Y-23748D01*
X70424Y-23530D01*
X70340Y-23327D01*
X70185Y-23173D01*
X70104Y-23139D01*
X70185Y-23105D01*
X70339Y-22950D01*
X70423Y-22748D01*
X70424Y-22530D01*
X70340Y-22327D01*
X70185Y-22173D01*
X70104Y-22139D01*
X70185Y-22105D01*
X70339Y-21950D01*
X70423Y-21748D01*
X70424Y-21530D01*
X70340Y-21327D01*
X70185Y-21173D01*
X70104Y-21139D01*
X70185Y-21105D01*
X70339Y-20950D01*
X70423Y-20748D01*
X70424Y-20530D01*
X70340Y-20327D01*
X70185Y-20173D01*
X70110Y-20141D01*
X70161Y-20120D01*
X70189Y-20024D01*
X69874Y-19709D01*
X69558Y-20024D01*
X69586Y-20120D01*
X69641Y-20139D01*
X69562Y-20172D01*
X69408Y-20327D01*
X69374Y-20408D01*
X69340Y-20327D01*
X69201Y-20189D01*
X69223Y-20189D01*
X69315Y-20151D01*
X69385Y-20080D01*
X69423Y-19988D01*
X69424Y-19935D01*
X69488Y-19954D01*
X69803Y-19639D01*
X69488Y-19323D01*
X69424Y-19342D01*
X69424Y-19289D01*
X69386Y-19197D01*
X69315Y-19127D01*
X69223Y-19089D01*
X69124Y-19088D01*
X68524Y-19088D01*
X68432Y-19126D01*
X68362Y-19197D01*
X68324Y-19289D01*
X68323Y-19388D01*
X68323Y-19988D01*
X68361Y-20080D01*
X68432Y-20150D01*
X68524Y-20188D01*
X68546Y-20188D01*
X68408Y-20327D01*
X68324Y-20529D01*
X68323Y-20747D01*
X68407Y-20950D01*
X68562Y-21104D01*
X68643Y-21138D01*
X68562Y-21172D01*
X68408Y-21327D01*
X68324Y-21529D01*
X68323Y-21747D01*
X68407Y-21950D01*
X68562Y-22104D01*
X68643Y-22138D01*
X68562Y-22172D01*
X68408Y-22327D01*
X68324Y-22529D01*
X68323Y-22747D01*
X68407Y-22950D01*
X68562Y-23104D01*
X68643Y-23138D01*
X68562Y-23172D01*
X68408Y-23327D01*
X68324Y-23529D01*
X68323Y-23747D01*
X68407Y-23950D01*
X68562Y-24104D01*
X68643Y-24138D01*
X68562Y-24172D01*
X68408Y-24327D01*
X68324Y-24529D01*
X68323Y-24747D01*
X68407Y-24950D01*
X68562Y-25104D01*
X68643Y-25138D01*
X68562Y-25172D01*
X68408Y-25327D01*
X68324Y-25529D01*
X68323Y-25747D01*
X68407Y-25950D01*
X68562Y-26104D01*
X68643Y-26138D01*
X68562Y-26172D01*
X68408Y-26327D01*
X68324Y-26529D01*
X68323Y-26747D01*
X68407Y-26950D01*
X68562Y-27104D01*
X68643Y-27138D01*
X68562Y-27172D01*
X68408Y-27327D01*
X68324Y-27529D01*
X68323Y-27747D01*
X68407Y-27950D01*
X68562Y-28104D01*
X68643Y-28138D01*
X68562Y-28172D01*
X68408Y-28327D01*
X68324Y-28529D01*
X68323Y-28747D01*
X68407Y-28950D01*
X68562Y-29104D01*
X68643Y-29138D01*
X68562Y-29172D01*
X68408Y-29327D01*
X68324Y-29529D01*
X68323Y-29747D01*
X68407Y-29950D01*
X68562Y-30104D01*
X68643Y-30138D01*
X68562Y-30172D01*
X68408Y-30327D01*
X68324Y-30529D01*
X68323Y-30747D01*
X68407Y-30950D01*
X68562Y-31104D01*
X68643Y-31138D01*
X68562Y-31172D01*
X68408Y-31327D01*
X68324Y-31529D01*
X68323Y-31747D01*
X68407Y-31950D01*
X68562Y-32104D01*
X68643Y-32138D01*
X68562Y-32172D01*
X68408Y-32327D01*
X68324Y-32529D01*
X68323Y-32747D01*
X68407Y-32950D01*
X68562Y-33104D01*
X68643Y-33138D01*
X68562Y-33172D01*
X68408Y-33327D01*
X68324Y-33529D01*
X68323Y-33747D01*
X68407Y-33950D01*
X68562Y-34104D01*
X68643Y-34138D01*
X68562Y-34172D01*
X68408Y-34327D01*
X68324Y-34529D01*
X68323Y-34747D01*
X68407Y-34950D01*
X68562Y-35104D01*
X68643Y-35138D01*
X68562Y-35172D01*
X68408Y-35327D01*
X68324Y-35529D01*
X68323Y-35747D01*
X68407Y-35950D01*
X68562Y-36104D01*
X68643Y-36138D01*
X68562Y-36172D01*
X68408Y-36327D01*
X68324Y-36529D01*
X68323Y-36747D01*
X68407Y-36950D01*
X68562Y-37104D01*
X68643Y-37138D01*
X68562Y-37172D01*
X68408Y-37327D01*
X68324Y-37529D01*
X68323Y-37747D01*
X68407Y-37950D01*
X68562Y-38104D01*
X68643Y-38138D01*
X68562Y-38172D01*
X68408Y-38327D01*
X68324Y-38529D01*
X68323Y-38747D01*
X68407Y-38950D01*
X68562Y-39104D01*
X68643Y-39138D01*
X68562Y-39172D01*
X68408Y-39327D01*
X68324Y-39529D01*
X68323Y-39747D01*
X68407Y-39950D01*
X68562Y-40104D01*
X68643Y-40138D01*
X68562Y-40172D01*
X68408Y-40327D01*
X68324Y-40529D01*
X68323Y-40747D01*
X68407Y-40950D01*
X68562Y-41104D01*
X68643Y-41138D01*
X68562Y-41172D01*
X68408Y-41327D01*
X68324Y-41529D01*
X68323Y-41747D01*
X68407Y-41950D01*
X68562Y-42104D01*
X68643Y-42138D01*
X68562Y-42172D01*
X68408Y-42327D01*
X68324Y-42529D01*
X68323Y-42747D01*
X68407Y-42950D01*
X68562Y-43104D01*
X68643Y-43138D01*
X68562Y-43172D01*
X68408Y-43327D01*
X68324Y-43529D01*
X68323Y-43747D01*
X68407Y-43950D01*
X68562Y-44104D01*
X68764Y-44188D01*
X68982Y-44189D01*
X69185Y-44105D01*
X69339Y-43950D01*
X69373Y-43869D01*
X69407Y-43950D01*
X69562Y-44104D01*
X69764Y-44188D01*
X69982Y-44189D01*
X70185Y-44105D01*
X70339Y-43950D01*
X70423Y-43748D01*
X70424Y-43530D01*
X70424Y-53129D01*
X70347Y-53144D01*
X70318Y-53164D01*
X69750Y-53164D01*
X69750Y-52291D01*
X69750Y-49891D01*
X69666Y-49688D01*
X69527Y-49549D01*
X69549Y-49549D01*
X69641Y-49511D01*
X69712Y-49441D01*
X69750Y-49349D01*
X69750Y-48650D01*
X69712Y-48558D01*
X69641Y-48488D01*
X69549Y-48450D01*
X69450Y-48449D01*
X69312Y-48450D01*
X69250Y-48512D01*
X69250Y-48950D01*
X69687Y-48950D01*
X69750Y-48887D01*
X69750Y-48650D01*
X69750Y-49349D01*
X69750Y-49112D01*
X69687Y-49050D01*
X69250Y-49050D01*
X69250Y-49057D01*
X69150Y-49057D01*
X69150Y-49050D01*
X69150Y-48950D01*
X69150Y-48512D01*
X69087Y-48450D01*
X68949Y-48449D01*
X68850Y-48450D01*
X68758Y-48488D01*
X68687Y-48558D01*
X68649Y-48650D01*
X68650Y-48887D01*
X68712Y-48950D01*
X69150Y-48950D01*
X69150Y-49050D01*
X68712Y-49050D01*
X68650Y-49112D01*
X68649Y-49349D01*
X68687Y-49441D01*
X68758Y-49511D01*
X68850Y-49549D01*
X68872Y-49549D01*
X68734Y-49688D01*
X68650Y-49890D01*
X68649Y-50108D01*
X68733Y-50311D01*
X68888Y-50465D01*
X69090Y-50549D01*
X69308Y-50550D01*
X69511Y-50466D01*
X69665Y-50311D01*
X69749Y-50109D01*
X69750Y-49891D01*
X69750Y-52291D01*
X69666Y-52088D01*
X69527Y-51949D01*
X69549Y-51949D01*
X69641Y-51911D01*
X69712Y-51841D01*
X69750Y-51749D01*
X69750Y-51050D01*
X69712Y-50958D01*
X69641Y-50888D01*
X69549Y-50850D01*
X69450Y-50849D01*
X69312Y-50850D01*
X69250Y-50912D01*
X69250Y-51350D01*
X69687Y-51350D01*
X69750Y-51287D01*
X69750Y-51050D01*
X69750Y-51749D01*
X69750Y-51512D01*
X69687Y-51450D01*
X69250Y-51450D01*
X69250Y-51457D01*
X69150Y-51457D01*
X69150Y-51450D01*
X69150Y-51350D01*
X69150Y-50912D01*
X69087Y-50850D01*
X68949Y-50849D01*
X68850Y-50850D01*
X68758Y-50888D01*
X68687Y-50958D01*
X68649Y-51050D01*
X68650Y-51287D01*
X68712Y-51350D01*
X69150Y-51350D01*
X69150Y-51450D01*
X68712Y-51450D01*
X68650Y-51512D01*
X68649Y-51749D01*
X68687Y-51841D01*
X68758Y-51911D01*
X68850Y-51949D01*
X68872Y-51949D01*
X68734Y-52088D01*
X68650Y-52290D01*
X68649Y-52508D01*
X68733Y-52711D01*
X68888Y-52865D01*
X69090Y-52949D01*
X69308Y-52950D01*
X69511Y-52866D01*
X69665Y-52711D01*
X69749Y-52509D01*
X69750Y-52291D01*
X69750Y-53164D01*
X67875Y-53164D01*
X67875Y-46865D01*
X67810Y-46709D01*
X67691Y-46589D01*
X67575Y-46541D01*
X67575Y-24215D01*
X67510Y-24059D01*
X67391Y-23939D01*
X67234Y-23875D01*
X67065Y-23874D01*
X66909Y-23939D01*
X66789Y-24058D01*
X66725Y-24215D01*
X66724Y-24384D01*
X66789Y-24540D01*
X66908Y-24660D01*
X67065Y-24724D01*
X67234Y-24725D01*
X67390Y-24660D01*
X67510Y-24541D01*
X67574Y-24384D01*
X67575Y-24215D01*
X67575Y-46541D01*
X67534Y-46525D01*
X67365Y-46524D01*
X67209Y-46589D01*
X67175Y-46623D01*
X67175Y-26415D01*
X67110Y-26259D01*
X66991Y-26139D01*
X66834Y-26075D01*
X66665Y-26074D01*
X66509Y-26139D01*
X66389Y-26258D01*
X66325Y-26415D01*
X66324Y-26584D01*
X66389Y-26740D01*
X66508Y-26860D01*
X66665Y-26924D01*
X66834Y-26925D01*
X66990Y-26860D01*
X67110Y-26741D01*
X67174Y-26584D01*
X67175Y-26415D01*
X67175Y-46623D01*
X67150Y-46648D01*
X67091Y-46589D01*
X66934Y-46525D01*
X66775Y-46524D01*
X66775Y-32465D01*
X66710Y-32309D01*
X66591Y-32189D01*
X66434Y-32125D01*
X66375Y-32125D01*
X66375Y-31465D01*
X66310Y-31309D01*
X66191Y-31189D01*
X66034Y-31125D01*
X65865Y-31124D01*
X65709Y-31189D01*
X65589Y-31308D01*
X65525Y-31465D01*
X65525Y-31483D01*
X65384Y-31425D01*
X65215Y-31424D01*
X65059Y-31489D01*
X64939Y-31608D01*
X64908Y-31684D01*
X64884Y-31675D01*
X64875Y-31675D01*
X64875Y-29415D01*
X64810Y-29259D01*
X64691Y-29139D01*
X64534Y-29075D01*
X64365Y-29074D01*
X64209Y-29139D01*
X64175Y-29173D01*
X64175Y-25165D01*
X64110Y-25009D01*
X64025Y-24923D01*
X64025Y-20865D01*
X63960Y-20709D01*
X63841Y-20589D01*
X63684Y-20525D01*
X63515Y-20524D01*
X63359Y-20589D01*
X63239Y-20708D01*
X63175Y-20865D01*
X63174Y-21034D01*
X63239Y-21190D01*
X63358Y-21310D01*
X63515Y-21374D01*
X63684Y-21375D01*
X63840Y-21310D01*
X63960Y-21191D01*
X64024Y-21034D01*
X64025Y-20865D01*
X64025Y-24923D01*
X63991Y-24889D01*
X63834Y-24825D01*
X63665Y-24824D01*
X63509Y-24889D01*
X63389Y-25008D01*
X63325Y-25165D01*
X63325Y-25015D01*
X63260Y-24859D01*
X63141Y-24739D01*
X62984Y-24675D01*
X62815Y-24674D01*
X62659Y-24739D01*
X62539Y-24858D01*
X62475Y-25015D01*
X62474Y-25184D01*
X62539Y-25340D01*
X62658Y-25460D01*
X62815Y-25524D01*
X62984Y-25525D01*
X63140Y-25460D01*
X63260Y-25341D01*
X63324Y-25184D01*
X63325Y-25015D01*
X63325Y-25165D01*
X63324Y-25334D01*
X63389Y-25490D01*
X63508Y-25610D01*
X63665Y-25674D01*
X63834Y-25675D01*
X63990Y-25610D01*
X64110Y-25491D01*
X64174Y-25334D01*
X64175Y-25165D01*
X64175Y-29173D01*
X64089Y-29258D01*
X64025Y-29415D01*
X64024Y-29562D01*
X63934Y-29525D01*
X63765Y-29524D01*
X63609Y-29589D01*
X63489Y-29708D01*
X63425Y-29865D01*
X63424Y-30034D01*
X63489Y-30190D01*
X63608Y-30310D01*
X63765Y-30374D01*
X63934Y-30375D01*
X64090Y-30310D01*
X64210Y-30191D01*
X64274Y-30034D01*
X64275Y-29887D01*
X64365Y-29924D01*
X64534Y-29925D01*
X64690Y-29860D01*
X64810Y-29741D01*
X64874Y-29584D01*
X64875Y-29415D01*
X64875Y-31675D01*
X64715Y-31674D01*
X64559Y-31739D01*
X64439Y-31858D01*
X64375Y-32015D01*
X64374Y-32184D01*
X64439Y-32340D01*
X64558Y-32460D01*
X64715Y-32524D01*
X64884Y-32525D01*
X65040Y-32460D01*
X65160Y-32341D01*
X65191Y-32265D01*
X65215Y-32274D01*
X65384Y-32275D01*
X65540Y-32210D01*
X65660Y-32091D01*
X65724Y-31934D01*
X65724Y-31916D01*
X65865Y-31974D01*
X66034Y-31975D01*
X66190Y-31910D01*
X66310Y-31791D01*
X66374Y-31634D01*
X66375Y-31465D01*
X66375Y-32125D01*
X66265Y-32124D01*
X66109Y-32189D01*
X65989Y-32308D01*
X65925Y-32465D01*
X65924Y-32634D01*
X65989Y-32790D01*
X66108Y-32910D01*
X66265Y-32974D01*
X66434Y-32975D01*
X66590Y-32910D01*
X66710Y-32791D01*
X66774Y-32634D01*
X66775Y-32465D01*
X66775Y-46524D01*
X66765Y-46524D01*
X66609Y-46589D01*
X66489Y-46708D01*
X66481Y-46730D01*
X66391Y-46639D01*
X66275Y-46591D01*
X66275Y-41015D01*
X66210Y-40859D01*
X66091Y-40739D01*
X65934Y-40675D01*
X65765Y-40674D01*
X65609Y-40739D01*
X65489Y-40858D01*
X65425Y-41015D01*
X65424Y-41184D01*
X65489Y-41340D01*
X65608Y-41460D01*
X65765Y-41524D01*
X65934Y-41525D01*
X66090Y-41460D01*
X66210Y-41341D01*
X66274Y-41184D01*
X66275Y-41015D01*
X66275Y-46591D01*
X66234Y-46575D01*
X66065Y-46574D01*
X65975Y-46612D01*
X65975Y-42565D01*
X65910Y-42409D01*
X65791Y-42289D01*
X65634Y-42225D01*
X65465Y-42224D01*
X65309Y-42289D01*
X65189Y-42408D01*
X65125Y-42565D01*
X65124Y-42734D01*
X65189Y-42890D01*
X65308Y-43010D01*
X65465Y-43074D01*
X65634Y-43075D01*
X65790Y-43010D01*
X65910Y-42891D01*
X65974Y-42734D01*
X65975Y-42565D01*
X65975Y-46612D01*
X65909Y-46639D01*
X65789Y-46758D01*
X65725Y-46915D01*
X65724Y-47084D01*
X65789Y-47240D01*
X65908Y-47360D01*
X66065Y-47424D01*
X66234Y-47425D01*
X66390Y-47360D01*
X66510Y-47241D01*
X66518Y-47219D01*
X66608Y-47310D01*
X66765Y-47374D01*
X66934Y-47375D01*
X67090Y-47310D01*
X67149Y-47251D01*
X67208Y-47310D01*
X67365Y-47374D01*
X67534Y-47375D01*
X67690Y-47310D01*
X67810Y-47191D01*
X67874Y-47034D01*
X67875Y-46865D01*
X67875Y-53164D01*
X66675Y-53164D01*
X66675Y-49765D01*
X66610Y-49609D01*
X66491Y-49489D01*
X66334Y-49425D01*
X66165Y-49424D01*
X66009Y-49489D01*
X65889Y-49608D01*
X65825Y-49765D01*
X65824Y-49934D01*
X65889Y-50090D01*
X66008Y-50210D01*
X66165Y-50274D01*
X66334Y-50275D01*
X66490Y-50210D01*
X66610Y-50091D01*
X66674Y-49934D01*
X66675Y-49765D01*
X66675Y-53164D01*
X64725Y-53164D01*
X64725Y-44765D01*
X64660Y-44609D01*
X64541Y-44489D01*
X64384Y-44425D01*
X64225Y-44424D01*
X64225Y-31015D01*
X64160Y-30859D01*
X64041Y-30739D01*
X63884Y-30675D01*
X63715Y-30674D01*
X63559Y-30739D01*
X63439Y-30858D01*
X63375Y-31015D01*
X63375Y-30915D01*
X63310Y-30759D01*
X63226Y-30675D01*
X63260Y-30641D01*
X63324Y-30484D01*
X63325Y-30315D01*
X63260Y-30159D01*
X63141Y-30039D01*
X62984Y-29975D01*
X62825Y-29974D01*
X62825Y-26415D01*
X62760Y-26259D01*
X62641Y-26139D01*
X62484Y-26075D01*
X62315Y-26074D01*
X62159Y-26139D01*
X62039Y-26258D01*
X61975Y-26415D01*
X61974Y-26584D01*
X62039Y-26740D01*
X62158Y-26860D01*
X62315Y-26924D01*
X62484Y-26925D01*
X62640Y-26860D01*
X62760Y-26741D01*
X62824Y-26584D01*
X62825Y-26415D01*
X62825Y-29974D01*
X62815Y-29974D01*
X62659Y-30039D01*
X62539Y-30158D01*
X62475Y-30315D01*
X62474Y-30484D01*
X62539Y-30640D01*
X62623Y-30724D01*
X62589Y-30758D01*
X62525Y-30915D01*
X62524Y-31084D01*
X62589Y-31240D01*
X62708Y-31360D01*
X62865Y-31424D01*
X63034Y-31425D01*
X63190Y-31360D01*
X63310Y-31241D01*
X63374Y-31084D01*
X63375Y-30915D01*
X63375Y-31015D01*
X63374Y-31184D01*
X63439Y-31340D01*
X63558Y-31460D01*
X63715Y-31524D01*
X63884Y-31525D01*
X64040Y-31460D01*
X64160Y-31341D01*
X64224Y-31184D01*
X64225Y-31015D01*
X64225Y-44424D01*
X64215Y-44424D01*
X64059Y-44489D01*
X64025Y-44523D01*
X64025Y-41565D01*
X63960Y-41409D01*
X63841Y-41289D01*
X63684Y-41225D01*
X63515Y-41224D01*
X63359Y-41289D01*
X63239Y-41408D01*
X63175Y-41565D01*
X63174Y-41734D01*
X63239Y-41890D01*
X63358Y-42010D01*
X63515Y-42074D01*
X63684Y-42075D01*
X63840Y-42010D01*
X63960Y-41891D01*
X64024Y-41734D01*
X64025Y-41565D01*
X64025Y-44523D01*
X63939Y-44608D01*
X63875Y-44765D01*
X63874Y-44934D01*
X63939Y-45090D01*
X64058Y-45210D01*
X64215Y-45274D01*
X64384Y-45275D01*
X64540Y-45210D01*
X64660Y-45091D01*
X64724Y-44934D01*
X64725Y-44765D01*
X64725Y-53164D01*
X63325Y-53164D01*
X63325Y-44815D01*
X63260Y-44659D01*
X63141Y-44539D01*
X63050Y-44502D01*
X63050Y-33450D01*
X63050Y-32850D01*
X63012Y-32758D01*
X62941Y-32688D01*
X62849Y-32650D01*
X62750Y-32649D01*
X62150Y-32649D01*
X62058Y-32687D01*
X61988Y-32758D01*
X61950Y-32850D01*
X61950Y-32872D01*
X61811Y-32734D01*
X61609Y-32650D01*
X61391Y-32649D01*
X61188Y-32733D01*
X61034Y-32888D01*
X61000Y-32969D01*
X60966Y-32888D01*
X60811Y-32734D01*
X60609Y-32650D01*
X60391Y-32649D01*
X60188Y-32733D01*
X60034Y-32888D01*
X60000Y-32969D01*
X59966Y-32888D01*
X59811Y-32734D01*
X59609Y-32650D01*
X59391Y-32649D01*
X59188Y-32733D01*
X59034Y-32888D01*
X59000Y-32969D01*
X58966Y-32888D01*
X58811Y-32734D01*
X58609Y-32650D01*
X58391Y-32649D01*
X58188Y-32733D01*
X58175Y-32747D01*
X58175Y-28065D01*
X58110Y-27909D01*
X57991Y-27789D01*
X57834Y-27725D01*
X57665Y-27724D01*
X57509Y-27789D01*
X57389Y-27908D01*
X57325Y-28065D01*
X57324Y-28234D01*
X57389Y-28390D01*
X57508Y-28510D01*
X57665Y-28574D01*
X57834Y-28575D01*
X57990Y-28510D01*
X58110Y-28391D01*
X58174Y-28234D01*
X58175Y-28065D01*
X58175Y-32747D01*
X58034Y-32888D01*
X58000Y-32969D01*
X57966Y-32888D01*
X57811Y-32734D01*
X57609Y-32650D01*
X57425Y-32649D01*
X57425Y-30665D01*
X57360Y-30509D01*
X57241Y-30389D01*
X57084Y-30325D01*
X56915Y-30324D01*
X56759Y-30389D01*
X56687Y-30461D01*
X56687Y-21463D01*
X56678Y-21191D01*
X56591Y-20982D01*
X56482Y-20938D01*
X56411Y-21009D01*
X56411Y-20867D01*
X56367Y-20758D01*
X56113Y-20662D01*
X55841Y-20671D01*
X55632Y-20758D01*
X55588Y-20867D01*
X56000Y-21279D01*
X56411Y-20867D01*
X56411Y-21009D01*
X56070Y-21350D01*
X56482Y-21761D01*
X56591Y-21717D01*
X56687Y-21463D01*
X56687Y-30461D01*
X56639Y-30508D01*
X56575Y-30665D01*
X56574Y-30834D01*
X56639Y-30990D01*
X56758Y-31110D01*
X56915Y-31174D01*
X57084Y-31175D01*
X57240Y-31110D01*
X57360Y-30991D01*
X57424Y-30834D01*
X57425Y-30665D01*
X57425Y-32649D01*
X57391Y-32649D01*
X57188Y-32733D01*
X57034Y-32888D01*
X57002Y-32963D01*
X56981Y-32912D01*
X56885Y-32884D01*
X56815Y-32955D01*
X56815Y-32814D01*
X56787Y-32718D01*
X56581Y-32645D01*
X56411Y-32653D01*
X56411Y-21832D01*
X56000Y-21420D01*
X55929Y-21491D01*
X55929Y-21350D01*
X55517Y-20938D01*
X55408Y-20982D01*
X55312Y-21236D01*
X55321Y-21508D01*
X55408Y-21717D01*
X55517Y-21761D01*
X55929Y-21350D01*
X55929Y-21491D01*
X55588Y-21832D01*
X55632Y-21941D01*
X55886Y-22037D01*
X56158Y-22028D01*
X56367Y-21941D01*
X56411Y-21832D01*
X56411Y-32653D01*
X56363Y-32656D01*
X56212Y-32718D01*
X56184Y-32814D01*
X56500Y-33129D01*
X56815Y-32814D01*
X56815Y-32955D01*
X56570Y-33200D01*
X56885Y-33515D01*
X56981Y-33487D01*
X57000Y-33432D01*
X57033Y-33511D01*
X57188Y-33665D01*
X57390Y-33749D01*
X57608Y-33750D01*
X57811Y-33666D01*
X57965Y-33511D01*
X57999Y-33430D01*
X58033Y-33511D01*
X58188Y-33665D01*
X58390Y-33749D01*
X58608Y-33750D01*
X58811Y-33666D01*
X58965Y-33511D01*
X58999Y-33430D01*
X59033Y-33511D01*
X59188Y-33665D01*
X59390Y-33749D01*
X59608Y-33750D01*
X59811Y-33666D01*
X59965Y-33511D01*
X59999Y-33430D01*
X60033Y-33511D01*
X60188Y-33665D01*
X60390Y-33749D01*
X60608Y-33750D01*
X60811Y-33666D01*
X60965Y-33511D01*
X60999Y-33430D01*
X61033Y-33511D01*
X61188Y-33665D01*
X61390Y-33749D01*
X61608Y-33750D01*
X61811Y-33666D01*
X61949Y-33527D01*
X61949Y-33549D01*
X61987Y-33641D01*
X62058Y-33711D01*
X62150Y-33749D01*
X62249Y-33750D01*
X62849Y-33750D01*
X62941Y-33712D01*
X63011Y-33641D01*
X63049Y-33549D01*
X63050Y-33450D01*
X63050Y-44502D01*
X62984Y-44475D01*
X62815Y-44474D01*
X62659Y-44539D01*
X62539Y-44658D01*
X62475Y-44815D01*
X62474Y-44984D01*
X62539Y-45140D01*
X62658Y-45260D01*
X62815Y-45324D01*
X62984Y-45325D01*
X63140Y-45260D01*
X63260Y-45141D01*
X63324Y-44984D01*
X63325Y-44815D01*
X63325Y-53164D01*
X63207Y-53164D01*
X63207Y-46419D01*
X63145Y-46269D01*
X63031Y-46154D01*
X62881Y-46092D01*
X62719Y-46092D01*
X62569Y-46154D01*
X62454Y-46268D01*
X62392Y-46418D01*
X62392Y-46580D01*
X62454Y-46730D01*
X62568Y-46845D01*
X62718Y-46907D01*
X62880Y-46907D01*
X63030Y-46845D01*
X63145Y-46731D01*
X63207Y-46581D01*
X63207Y-46419D01*
X63207Y-53164D01*
X62193Y-53164D01*
X62193Y-43500D01*
X62156Y-43310D01*
X62125Y-43264D01*
X62125Y-41965D01*
X62060Y-41809D01*
X61941Y-41689D01*
X61874Y-41662D01*
X61875Y-41565D01*
X61810Y-41409D01*
X61691Y-41289D01*
X61534Y-41225D01*
X61365Y-41224D01*
X61209Y-41289D01*
X61089Y-41408D01*
X61025Y-41565D01*
X61024Y-41734D01*
X61089Y-41890D01*
X61208Y-42010D01*
X61275Y-42037D01*
X61274Y-42134D01*
X61339Y-42290D01*
X61458Y-42410D01*
X61615Y-42474D01*
X61784Y-42475D01*
X61940Y-42410D01*
X62060Y-42291D01*
X62124Y-42134D01*
X62125Y-41965D01*
X62125Y-43264D01*
X62049Y-43150D01*
X61999Y-43100D01*
X61839Y-42993D01*
X61650Y-42956D01*
X60675Y-42956D01*
X60675Y-41515D01*
X60610Y-41359D01*
X60491Y-41239D01*
X60334Y-41175D01*
X60165Y-41174D01*
X60009Y-41239D01*
X59889Y-41358D01*
X59825Y-41515D01*
X59824Y-41684D01*
X59836Y-41712D01*
X59739Y-41808D01*
X59675Y-41965D01*
X59674Y-42134D01*
X59739Y-42290D01*
X59858Y-42410D01*
X60015Y-42474D01*
X60184Y-42475D01*
X60340Y-42410D01*
X60460Y-42291D01*
X60524Y-42134D01*
X60525Y-41965D01*
X60513Y-41937D01*
X60610Y-41841D01*
X60674Y-41684D01*
X60675Y-41515D01*
X60675Y-42956D01*
X59800Y-42956D01*
X59610Y-42993D01*
X59450Y-43100D01*
X59343Y-43260D01*
X59306Y-43450D01*
X59306Y-43797D01*
X59300Y-43800D01*
X59193Y-43960D01*
X59156Y-44150D01*
X59193Y-44339D01*
X59300Y-44499D01*
X59460Y-44606D01*
X59650Y-44644D01*
X59797Y-44644D01*
X59837Y-44741D01*
X59957Y-44861D01*
X60114Y-44926D01*
X60284Y-44927D01*
X60441Y-44862D01*
X60449Y-44853D01*
X60457Y-44861D01*
X60614Y-44926D01*
X60784Y-44927D01*
X60941Y-44862D01*
X60949Y-44853D01*
X60957Y-44861D01*
X61114Y-44926D01*
X61284Y-44927D01*
X61441Y-44862D01*
X61449Y-44853D01*
X61457Y-44861D01*
X61614Y-44926D01*
X61784Y-44927D01*
X61941Y-44862D01*
X62061Y-44742D01*
X62126Y-44585D01*
X62127Y-44415D01*
X62062Y-44258D01*
X61953Y-44149D01*
X62061Y-44042D01*
X62126Y-43885D01*
X62127Y-43732D01*
X62156Y-43689D01*
X62193Y-43500D01*
X62193Y-53164D01*
X61875Y-53164D01*
X61875Y-47965D01*
X61810Y-47809D01*
X61691Y-47689D01*
X61534Y-47625D01*
X61425Y-47624D01*
X61425Y-46015D01*
X61360Y-45859D01*
X61241Y-45739D01*
X61084Y-45675D01*
X60915Y-45674D01*
X60759Y-45739D01*
X60639Y-45858D01*
X60575Y-46015D01*
X60574Y-46184D01*
X60639Y-46340D01*
X60715Y-46416D01*
X60659Y-46439D01*
X60539Y-46558D01*
X60475Y-46715D01*
X60474Y-46884D01*
X60512Y-46976D01*
X60359Y-47039D01*
X60239Y-47158D01*
X60175Y-47315D01*
X60174Y-47484D01*
X60239Y-47640D01*
X60358Y-47760D01*
X60515Y-47824D01*
X60684Y-47825D01*
X60840Y-47760D01*
X60960Y-47641D01*
X61024Y-47484D01*
X61025Y-47315D01*
X60987Y-47223D01*
X61140Y-47160D01*
X61260Y-47041D01*
X61324Y-46884D01*
X61325Y-46715D01*
X61260Y-46559D01*
X61184Y-46483D01*
X61240Y-46460D01*
X61360Y-46341D01*
X61424Y-46184D01*
X61425Y-46015D01*
X61425Y-47624D01*
X61365Y-47624D01*
X61209Y-47689D01*
X61089Y-47808D01*
X61025Y-47965D01*
X61024Y-48134D01*
X61089Y-48290D01*
X61124Y-48325D01*
X60965Y-48324D01*
X60809Y-48389D01*
X60689Y-48508D01*
X60625Y-48665D01*
X60624Y-48834D01*
X60689Y-48990D01*
X60808Y-49110D01*
X60965Y-49174D01*
X61134Y-49175D01*
X61290Y-49110D01*
X61410Y-48991D01*
X61474Y-48834D01*
X61475Y-48665D01*
X61410Y-48509D01*
X61375Y-48474D01*
X61534Y-48475D01*
X61690Y-48410D01*
X61810Y-48291D01*
X61874Y-48134D01*
X61875Y-47965D01*
X61875Y-53164D01*
X61075Y-53164D01*
X61075Y-49665D01*
X61010Y-49509D01*
X60891Y-49389D01*
X60734Y-49325D01*
X60565Y-49324D01*
X60409Y-49389D01*
X60289Y-49508D01*
X60225Y-49665D01*
X60224Y-49834D01*
X60289Y-49990D01*
X60408Y-50110D01*
X60565Y-50174D01*
X60734Y-50175D01*
X60890Y-50110D01*
X61010Y-49991D01*
X61074Y-49834D01*
X61075Y-49665D01*
X61075Y-53164D01*
X58825Y-53164D01*
X58825Y-41515D01*
X58760Y-41359D01*
X58641Y-41239D01*
X58484Y-41175D01*
X58315Y-41174D01*
X58159Y-41239D01*
X58039Y-41358D01*
X57975Y-41515D01*
X57974Y-41684D01*
X58039Y-41840D01*
X58158Y-41960D01*
X58315Y-42024D01*
X58484Y-42025D01*
X58640Y-41960D01*
X58760Y-41841D01*
X58824Y-41684D01*
X58825Y-41515D01*
X58825Y-53164D01*
X58760Y-53164D01*
X58702Y-53175D01*
X58700Y-53175D01*
X58575Y-53199D01*
X58470Y-53270D01*
X58399Y-53375D01*
X58375Y-53500D01*
X58375Y-59025D01*
X57725Y-59025D01*
X57725Y-47065D01*
X57660Y-46909D01*
X57541Y-46789D01*
X57384Y-46725D01*
X57215Y-46724D01*
X57059Y-46789D01*
X56939Y-46908D01*
X56875Y-47065D01*
X56874Y-47234D01*
X56939Y-47390D01*
X57058Y-47510D01*
X57215Y-47574D01*
X57384Y-47575D01*
X57540Y-47510D01*
X57660Y-47391D01*
X57724Y-47234D01*
X57725Y-47065D01*
X57725Y-59025D01*
X57550Y-59025D01*
X57550Y-58091D01*
X57550Y-55591D01*
X57466Y-55388D01*
X57311Y-55234D01*
X57230Y-55200D01*
X57311Y-55166D01*
X57465Y-55011D01*
X57549Y-54809D01*
X57550Y-54591D01*
X57466Y-54388D01*
X57311Y-54234D01*
X57230Y-54200D01*
X57311Y-54166D01*
X57465Y-54011D01*
X57549Y-53809D01*
X57550Y-53591D01*
X57466Y-53388D01*
X57327Y-53250D01*
X57349Y-53250D01*
X57441Y-53212D01*
X57511Y-53141D01*
X57549Y-53049D01*
X57550Y-52950D01*
X57550Y-52350D01*
X57512Y-52258D01*
X57441Y-52188D01*
X57349Y-52150D01*
X57250Y-52149D01*
X56815Y-52149D01*
X56815Y-33585D01*
X56500Y-33270D01*
X56429Y-33341D01*
X56429Y-33200D01*
X56114Y-32884D01*
X56025Y-32910D01*
X56025Y-31215D01*
X55960Y-31059D01*
X55841Y-30939D01*
X55687Y-30875D01*
X55687Y-23463D01*
X55678Y-23191D01*
X55591Y-22982D01*
X55482Y-22938D01*
X55411Y-23009D01*
X55411Y-22867D01*
X55367Y-22758D01*
X55113Y-22662D01*
X54841Y-22671D01*
X54687Y-22735D01*
X54687Y-21463D01*
X54678Y-21191D01*
X54591Y-20982D01*
X54482Y-20938D01*
X54411Y-21009D01*
X54411Y-20867D01*
X54367Y-20758D01*
X54113Y-20662D01*
X53841Y-20671D01*
X53632Y-20758D01*
X53588Y-20867D01*
X54000Y-21279D01*
X54411Y-20867D01*
X54411Y-21009D01*
X54070Y-21350D01*
X54482Y-21761D01*
X54591Y-21717D01*
X54687Y-21463D01*
X54687Y-22735D01*
X54632Y-22758D01*
X54588Y-22867D01*
X55000Y-23279D01*
X55411Y-22867D01*
X55411Y-23009D01*
X55070Y-23350D01*
X55482Y-23761D01*
X55591Y-23717D01*
X55687Y-23463D01*
X55687Y-30875D01*
X55684Y-30875D01*
X55625Y-30875D01*
X55625Y-29065D01*
X55560Y-28909D01*
X55441Y-28789D01*
X55411Y-28777D01*
X55411Y-23832D01*
X55000Y-23420D01*
X54929Y-23491D01*
X54929Y-23350D01*
X54517Y-22938D01*
X54411Y-22981D01*
X54411Y-21832D01*
X54000Y-21420D01*
X53929Y-21491D01*
X53929Y-21350D01*
X53517Y-20938D01*
X53408Y-20982D01*
X53312Y-21236D01*
X53321Y-21508D01*
X53408Y-21717D01*
X53517Y-21761D01*
X53929Y-21350D01*
X53929Y-21491D01*
X53588Y-21832D01*
X53632Y-21941D01*
X53886Y-22037D01*
X54158Y-22028D01*
X54367Y-21941D01*
X54411Y-21832D01*
X54411Y-22981D01*
X54408Y-22982D01*
X54312Y-23236D01*
X54321Y-23508D01*
X54408Y-23717D01*
X54517Y-23761D01*
X54929Y-23350D01*
X54929Y-23491D01*
X54588Y-23832D01*
X54632Y-23941D01*
X54886Y-24037D01*
X55158Y-24028D01*
X55367Y-23941D01*
X55411Y-23832D01*
X55411Y-28777D01*
X55284Y-28725D01*
X55115Y-28724D01*
X54959Y-28789D01*
X54839Y-28908D01*
X54775Y-29065D01*
X54774Y-29234D01*
X54839Y-29390D01*
X54958Y-29510D01*
X55115Y-29574D01*
X55284Y-29575D01*
X55440Y-29510D01*
X55560Y-29391D01*
X55624Y-29234D01*
X55625Y-29065D01*
X55625Y-30875D01*
X55515Y-30874D01*
X55359Y-30939D01*
X55239Y-31058D01*
X55175Y-31215D01*
X55174Y-31384D01*
X55239Y-31540D01*
X55358Y-31660D01*
X55515Y-31724D01*
X55684Y-31725D01*
X55840Y-31660D01*
X55960Y-31541D01*
X56024Y-31384D01*
X56025Y-31215D01*
X56025Y-32910D01*
X56018Y-32912D01*
X55945Y-33118D01*
X55956Y-33336D01*
X56018Y-33487D01*
X56114Y-33515D01*
X56429Y-33200D01*
X56429Y-33341D01*
X56184Y-33585D01*
X56212Y-33681D01*
X56418Y-33754D01*
X56636Y-33743D01*
X56787Y-33681D01*
X56815Y-33585D01*
X56815Y-52149D01*
X56650Y-52149D01*
X56558Y-52187D01*
X56488Y-52258D01*
X56450Y-52350D01*
X56449Y-52449D01*
X56449Y-53049D01*
X56487Y-53141D01*
X56558Y-53211D01*
X56650Y-53249D01*
X56672Y-53249D01*
X56534Y-53388D01*
X56450Y-53590D01*
X56449Y-53808D01*
X56533Y-54011D01*
X56688Y-54165D01*
X56769Y-54199D01*
X56688Y-54233D01*
X56534Y-54388D01*
X56450Y-54590D01*
X56449Y-54808D01*
X56533Y-55011D01*
X56688Y-55165D01*
X56769Y-55199D01*
X56688Y-55233D01*
X56534Y-55388D01*
X56450Y-55590D01*
X56449Y-55808D01*
X56533Y-56011D01*
X56688Y-56165D01*
X56890Y-56249D01*
X57108Y-56250D01*
X57311Y-56166D01*
X57465Y-56011D01*
X57549Y-55809D01*
X57550Y-55591D01*
X57550Y-58091D01*
X57466Y-57888D01*
X57327Y-57749D01*
X57349Y-57749D01*
X57441Y-57711D01*
X57512Y-57641D01*
X57550Y-57549D01*
X57550Y-56850D01*
X57512Y-56758D01*
X57441Y-56688D01*
X57349Y-56650D01*
X57250Y-56649D01*
X57112Y-56650D01*
X57050Y-56712D01*
X57050Y-57150D01*
X57487Y-57150D01*
X57550Y-57087D01*
X57550Y-56850D01*
X57550Y-57549D01*
X57550Y-57312D01*
X57487Y-57250D01*
X57050Y-57250D01*
X57050Y-57257D01*
X56950Y-57257D01*
X56950Y-57250D01*
X56950Y-57150D01*
X56950Y-56712D01*
X56887Y-56650D01*
X56749Y-56649D01*
X56650Y-56650D01*
X56558Y-56688D01*
X56487Y-56758D01*
X56449Y-56850D01*
X56450Y-57087D01*
X56512Y-57150D01*
X56950Y-57150D01*
X56950Y-57250D01*
X56512Y-57250D01*
X56450Y-57312D01*
X56449Y-57549D01*
X56487Y-57641D01*
X56558Y-57711D01*
X56650Y-57749D01*
X56672Y-57749D01*
X56534Y-57888D01*
X56450Y-58090D01*
X56449Y-58308D01*
X56533Y-58511D01*
X56688Y-58665D01*
X56890Y-58749D01*
X57108Y-58750D01*
X57311Y-58666D01*
X57465Y-58511D01*
X57549Y-58309D01*
X57550Y-58091D01*
X57550Y-59025D01*
X55775Y-59025D01*
X55775Y-45965D01*
X55710Y-45809D01*
X55591Y-45689D01*
X55434Y-45625D01*
X55265Y-45624D01*
X55109Y-45689D01*
X54989Y-45808D01*
X54925Y-45965D01*
X54924Y-46134D01*
X54989Y-46290D01*
X55108Y-46410D01*
X55265Y-46474D01*
X55434Y-46475D01*
X55590Y-46410D01*
X55710Y-46291D01*
X55774Y-46134D01*
X55775Y-45965D01*
X55775Y-59025D01*
X54875Y-59025D01*
X54875Y-37015D01*
X54810Y-36859D01*
X54691Y-36739D01*
X54534Y-36675D01*
X54365Y-36674D01*
X54209Y-36739D01*
X54089Y-36858D01*
X54025Y-37015D01*
X54024Y-37184D01*
X54089Y-37340D01*
X54208Y-37460D01*
X54365Y-37524D01*
X54534Y-37525D01*
X54690Y-37460D01*
X54810Y-37341D01*
X54874Y-37184D01*
X54875Y-37015D01*
X54875Y-59025D01*
X54575Y-59025D01*
X54575Y-50065D01*
X54510Y-49909D01*
X54391Y-49789D01*
X54234Y-49725D01*
X54065Y-49724D01*
X54025Y-49741D01*
X54025Y-40165D01*
X53960Y-40009D01*
X53841Y-39889D01*
X53725Y-39841D01*
X53725Y-29015D01*
X53660Y-28859D01*
X53541Y-28739D01*
X53384Y-28675D01*
X53215Y-28674D01*
X53059Y-28739D01*
X52939Y-28858D01*
X52875Y-29015D01*
X52874Y-29184D01*
X52939Y-29340D01*
X53058Y-29460D01*
X53215Y-29524D01*
X53384Y-29525D01*
X53540Y-29460D01*
X53660Y-29341D01*
X53724Y-29184D01*
X53725Y-29015D01*
X53725Y-39841D01*
X53684Y-39825D01*
X53515Y-39824D01*
X53359Y-39889D01*
X53239Y-40008D01*
X53175Y-40165D01*
X53174Y-40334D01*
X53239Y-40490D01*
X53358Y-40610D01*
X53515Y-40674D01*
X53684Y-40675D01*
X53840Y-40610D01*
X53960Y-40491D01*
X54024Y-40334D01*
X54025Y-40165D01*
X54025Y-49741D01*
X53909Y-49789D01*
X53789Y-49908D01*
X53725Y-50065D01*
X53724Y-50234D01*
X53789Y-50390D01*
X53908Y-50510D01*
X54065Y-50574D01*
X54234Y-50575D01*
X54390Y-50510D01*
X54510Y-50391D01*
X54574Y-50234D01*
X54575Y-50065D01*
X54575Y-59025D01*
X54075Y-59025D01*
X54075Y-51165D01*
X54010Y-51009D01*
X53891Y-50889D01*
X53734Y-50825D01*
X53565Y-50824D01*
X53425Y-50883D01*
X53425Y-50265D01*
X53360Y-50109D01*
X53241Y-49989D01*
X53175Y-49962D01*
X53175Y-41465D01*
X53110Y-41309D01*
X52991Y-41189D01*
X52834Y-41125D01*
X52665Y-41124D01*
X52509Y-41189D01*
X52389Y-41308D01*
X52325Y-41465D01*
X52324Y-41634D01*
X52389Y-41790D01*
X52508Y-41910D01*
X52665Y-41974D01*
X52834Y-41975D01*
X52990Y-41910D01*
X53110Y-41791D01*
X53174Y-41634D01*
X53175Y-41465D01*
X53175Y-49962D01*
X53084Y-49925D01*
X52915Y-49924D01*
X52759Y-49989D01*
X52639Y-50108D01*
X52575Y-50265D01*
X52574Y-50434D01*
X52639Y-50590D01*
X52758Y-50710D01*
X52915Y-50774D01*
X53084Y-50775D01*
X53240Y-50710D01*
X53360Y-50591D01*
X53424Y-50434D01*
X53425Y-50265D01*
X53425Y-50883D01*
X53409Y-50889D01*
X53289Y-51008D01*
X53225Y-51165D01*
X53224Y-51334D01*
X53289Y-51490D01*
X53408Y-51610D01*
X53565Y-51674D01*
X53734Y-51675D01*
X53890Y-51610D01*
X54010Y-51491D01*
X54074Y-51334D01*
X54075Y-51165D01*
X54075Y-59025D01*
X52557Y-59025D01*
X52557Y-46519D01*
X52495Y-46369D01*
X52381Y-46254D01*
X52231Y-46192D01*
X52069Y-46192D01*
X51919Y-46254D01*
X51855Y-46318D01*
X51850Y-46305D01*
X51850Y-33450D01*
X51850Y-32850D01*
X51812Y-32758D01*
X51741Y-32688D01*
X51649Y-32650D01*
X51550Y-32649D01*
X50950Y-32649D01*
X50858Y-32687D01*
X50788Y-32758D01*
X50750Y-32850D01*
X50750Y-32872D01*
X50611Y-32734D01*
X50409Y-32650D01*
X50191Y-32649D01*
X49988Y-32733D01*
X49834Y-32888D01*
X49800Y-32969D01*
X49766Y-32888D01*
X49611Y-32734D01*
X49409Y-32650D01*
X49191Y-32649D01*
X48988Y-32733D01*
X48834Y-32888D01*
X48800Y-32969D01*
X48766Y-32888D01*
X48611Y-32734D01*
X48409Y-32650D01*
X48191Y-32649D01*
X47988Y-32733D01*
X47834Y-32888D01*
X47800Y-32969D01*
X47766Y-32888D01*
X47611Y-32734D01*
X47409Y-32650D01*
X47191Y-32649D01*
X46988Y-32733D01*
X46834Y-32888D01*
X46800Y-32969D01*
X46766Y-32888D01*
X46611Y-32734D01*
X46409Y-32650D01*
X46191Y-32649D01*
X45988Y-32733D01*
X45834Y-32888D01*
X45802Y-32963D01*
X45781Y-32912D01*
X45685Y-32884D01*
X45615Y-32955D01*
X45615Y-32814D01*
X45587Y-32718D01*
X45381Y-32645D01*
X45163Y-32656D01*
X45133Y-32668D01*
X45133Y-21264D01*
X45029Y-21013D01*
X44837Y-20821D01*
X44586Y-20717D01*
X44314Y-20716D01*
X44063Y-20820D01*
X43871Y-21012D01*
X43767Y-21263D01*
X43766Y-21535D01*
X43870Y-21786D01*
X44062Y-21978D01*
X44313Y-22082D01*
X44585Y-22083D01*
X44836Y-21979D01*
X45028Y-21787D01*
X45132Y-21536D01*
X45133Y-21264D01*
X45133Y-32668D01*
X45012Y-32718D01*
X44984Y-32814D01*
X45300Y-33129D01*
X45615Y-32814D01*
X45615Y-32955D01*
X45370Y-33200D01*
X45685Y-33515D01*
X45781Y-33487D01*
X45800Y-33432D01*
X45833Y-33511D01*
X45988Y-33665D01*
X46190Y-33749D01*
X46408Y-33750D01*
X46611Y-33666D01*
X46765Y-33511D01*
X46799Y-33430D01*
X46833Y-33511D01*
X46988Y-33665D01*
X47190Y-33749D01*
X47408Y-33750D01*
X47611Y-33666D01*
X47765Y-33511D01*
X47799Y-33430D01*
X47833Y-33511D01*
X47988Y-33665D01*
X48190Y-33749D01*
X48408Y-33750D01*
X48611Y-33666D01*
X48765Y-33511D01*
X48799Y-33430D01*
X48833Y-33511D01*
X48988Y-33665D01*
X49190Y-33749D01*
X49408Y-33750D01*
X49611Y-33666D01*
X49765Y-33511D01*
X49799Y-33430D01*
X49833Y-33511D01*
X49988Y-33665D01*
X50190Y-33749D01*
X50408Y-33750D01*
X50611Y-33666D01*
X50749Y-33527D01*
X50749Y-33549D01*
X50787Y-33641D01*
X50858Y-33711D01*
X50950Y-33749D01*
X51049Y-33750D01*
X51649Y-33750D01*
X51741Y-33712D01*
X51811Y-33641D01*
X51849Y-33549D01*
X51850Y-33450D01*
X51850Y-46305D01*
X51810Y-46209D01*
X51691Y-46089D01*
X51534Y-46025D01*
X51365Y-46024D01*
X51209Y-46089D01*
X51089Y-46208D01*
X51025Y-46365D01*
X51024Y-46534D01*
X51089Y-46690D01*
X51208Y-46810D01*
X51365Y-46874D01*
X51534Y-46875D01*
X51690Y-46810D01*
X51765Y-46735D01*
X51804Y-46830D01*
X51918Y-46945D01*
X52068Y-47007D01*
X52230Y-47007D01*
X52380Y-46945D01*
X52495Y-46831D01*
X52557Y-46681D01*
X52557Y-46519D01*
X52557Y-59025D01*
X51475Y-59025D01*
X51475Y-47315D01*
X51410Y-47159D01*
X51291Y-47039D01*
X51134Y-46975D01*
X50977Y-46974D01*
X50977Y-44465D01*
X50912Y-44308D01*
X50803Y-44199D01*
X50911Y-44092D01*
X50976Y-43935D01*
X50977Y-43765D01*
X50925Y-43639D01*
X50925Y-41965D01*
X50866Y-41824D01*
X50924Y-41684D01*
X50925Y-41515D01*
X50860Y-41359D01*
X50741Y-41239D01*
X50584Y-41175D01*
X50415Y-41174D01*
X50259Y-41239D01*
X50139Y-41358D01*
X50075Y-41515D01*
X50074Y-41684D01*
X50133Y-41825D01*
X50075Y-41965D01*
X50074Y-42134D01*
X50139Y-42290D01*
X50258Y-42410D01*
X50415Y-42474D01*
X50584Y-42475D01*
X50740Y-42410D01*
X50860Y-42291D01*
X50924Y-42134D01*
X50925Y-41965D01*
X50925Y-43639D01*
X50912Y-43608D01*
X50792Y-43488D01*
X50635Y-43423D01*
X50465Y-43422D01*
X50308Y-43487D01*
X50300Y-43496D01*
X50292Y-43488D01*
X50135Y-43423D01*
X49965Y-43422D01*
X49808Y-43487D01*
X49800Y-43496D01*
X49792Y-43488D01*
X49635Y-43423D01*
X49475Y-43422D01*
X49475Y-41615D01*
X49410Y-41459D01*
X49291Y-41339D01*
X49134Y-41275D01*
X48965Y-41274D01*
X48809Y-41339D01*
X48689Y-41458D01*
X48625Y-41615D01*
X48624Y-41784D01*
X48689Y-41940D01*
X48699Y-41949D01*
X48639Y-42008D01*
X48575Y-42165D01*
X48574Y-42334D01*
X48639Y-42490D01*
X48758Y-42610D01*
X48915Y-42674D01*
X49084Y-42675D01*
X49240Y-42610D01*
X49360Y-42491D01*
X49424Y-42334D01*
X49425Y-42165D01*
X49360Y-42009D01*
X49350Y-42000D01*
X49410Y-41941D01*
X49474Y-41784D01*
X49475Y-41615D01*
X49475Y-43422D01*
X49465Y-43422D01*
X49308Y-43487D01*
X49300Y-43496D01*
X49292Y-43488D01*
X49135Y-43423D01*
X48965Y-43422D01*
X48808Y-43487D01*
X48688Y-43607D01*
X48623Y-43764D01*
X48622Y-43934D01*
X48687Y-44091D01*
X48796Y-44200D01*
X48688Y-44307D01*
X48623Y-44464D01*
X48622Y-44634D01*
X48687Y-44791D01*
X48807Y-44911D01*
X48964Y-44976D01*
X49134Y-44977D01*
X49291Y-44912D01*
X49299Y-44903D01*
X49307Y-44911D01*
X49464Y-44976D01*
X49634Y-44977D01*
X49791Y-44912D01*
X49799Y-44903D01*
X49807Y-44911D01*
X49964Y-44976D01*
X50134Y-44977D01*
X50291Y-44912D01*
X50299Y-44903D01*
X50307Y-44911D01*
X50464Y-44976D01*
X50634Y-44977D01*
X50791Y-44912D01*
X50911Y-44792D01*
X50976Y-44635D01*
X50977Y-44465D01*
X50977Y-46974D01*
X50965Y-46974D01*
X50809Y-47039D01*
X50689Y-47158D01*
X50625Y-47315D01*
X50624Y-47484D01*
X50670Y-47593D01*
X50559Y-47639D01*
X50439Y-47758D01*
X50375Y-47915D01*
X50374Y-48084D01*
X50439Y-48240D01*
X50558Y-48360D01*
X50715Y-48424D01*
X50884Y-48425D01*
X51040Y-48360D01*
X51160Y-48241D01*
X51224Y-48084D01*
X51225Y-47915D01*
X51179Y-47806D01*
X51290Y-47760D01*
X51410Y-47641D01*
X51474Y-47484D01*
X51475Y-47315D01*
X51475Y-59025D01*
X50225Y-59025D01*
X50225Y-47165D01*
X50160Y-47009D01*
X50041Y-46889D01*
X49884Y-46825D01*
X49884Y-46825D01*
X50040Y-46760D01*
X50160Y-46641D01*
X50224Y-46484D01*
X50225Y-46315D01*
X50160Y-46159D01*
X50041Y-46039D01*
X49884Y-45975D01*
X49715Y-45974D01*
X49559Y-46039D01*
X49439Y-46158D01*
X49375Y-46315D01*
X49374Y-46484D01*
X49439Y-46640D01*
X49558Y-46760D01*
X49715Y-46824D01*
X49715Y-46824D01*
X49559Y-46889D01*
X49439Y-47008D01*
X49375Y-47165D01*
X49374Y-47334D01*
X49439Y-47490D01*
X49523Y-47574D01*
X49465Y-47574D01*
X49309Y-47639D01*
X49189Y-47758D01*
X49125Y-47915D01*
X49124Y-48084D01*
X49189Y-48240D01*
X49308Y-48360D01*
X49465Y-48424D01*
X49634Y-48425D01*
X49790Y-48360D01*
X49910Y-48241D01*
X49974Y-48084D01*
X49975Y-47915D01*
X49910Y-47759D01*
X49826Y-47675D01*
X49884Y-47675D01*
X50040Y-47610D01*
X50160Y-47491D01*
X50224Y-47334D01*
X50225Y-47165D01*
X50225Y-59025D01*
X49975Y-59025D01*
X49975Y-49715D01*
X49910Y-49559D01*
X49791Y-49439D01*
X49634Y-49375D01*
X49465Y-49374D01*
X49309Y-49439D01*
X49189Y-49558D01*
X49125Y-49715D01*
X49124Y-49884D01*
X49189Y-50040D01*
X49308Y-50160D01*
X49465Y-50224D01*
X49634Y-50225D01*
X49790Y-50160D01*
X49910Y-50041D01*
X49974Y-49884D01*
X49975Y-49715D01*
X49975Y-59025D01*
X49754Y-59025D01*
X49754Y-56681D01*
X49754Y-52981D01*
X49750Y-52887D01*
X49750Y-52150D01*
X49750Y-51550D01*
X49712Y-51458D01*
X49641Y-51388D01*
X49549Y-51350D01*
X49450Y-51349D01*
X48850Y-51349D01*
X48758Y-51387D01*
X48688Y-51458D01*
X48650Y-51550D01*
X48649Y-51649D01*
X48649Y-52249D01*
X48687Y-52341D01*
X48758Y-52411D01*
X48850Y-52449D01*
X48903Y-52450D01*
X48884Y-52514D01*
X49200Y-52829D01*
X49515Y-52514D01*
X49496Y-52450D01*
X49549Y-52450D01*
X49641Y-52412D01*
X49711Y-52341D01*
X49749Y-52249D01*
X49750Y-52150D01*
X49750Y-52887D01*
X49743Y-52763D01*
X49681Y-52612D01*
X49585Y-52584D01*
X49270Y-52900D01*
X49585Y-53215D01*
X49681Y-53187D01*
X49754Y-52981D01*
X49754Y-56681D01*
X49750Y-56588D01*
X49750Y-54791D01*
X49666Y-54588D01*
X49511Y-54434D01*
X49430Y-54400D01*
X49511Y-54366D01*
X49665Y-54211D01*
X49749Y-54009D01*
X49750Y-53791D01*
X49666Y-53588D01*
X49511Y-53434D01*
X49436Y-53402D01*
X49487Y-53381D01*
X49515Y-53285D01*
X49200Y-52970D01*
X49129Y-53041D01*
X49129Y-52900D01*
X48814Y-52584D01*
X48718Y-52612D01*
X48645Y-52818D01*
X48656Y-53036D01*
X48718Y-53187D01*
X48814Y-53215D01*
X49129Y-52900D01*
X49129Y-53041D01*
X48884Y-53285D01*
X48912Y-53381D01*
X48967Y-53400D01*
X48888Y-53433D01*
X48734Y-53588D01*
X48650Y-53790D01*
X48649Y-54008D01*
X48733Y-54211D01*
X48888Y-54365D01*
X48969Y-54399D01*
X48888Y-54433D01*
X48734Y-54588D01*
X48650Y-54790D01*
X48649Y-55008D01*
X48733Y-55211D01*
X48888Y-55365D01*
X49090Y-55449D01*
X49308Y-55450D01*
X49511Y-55366D01*
X49665Y-55211D01*
X49749Y-55009D01*
X49750Y-54791D01*
X49750Y-56588D01*
X49743Y-56463D01*
X49681Y-56312D01*
X49585Y-56284D01*
X49515Y-56355D01*
X49515Y-56214D01*
X49487Y-56118D01*
X49281Y-56045D01*
X49063Y-56056D01*
X48912Y-56118D01*
X48884Y-56214D01*
X49200Y-56529D01*
X49515Y-56214D01*
X49515Y-56355D01*
X49270Y-56600D01*
X49585Y-56915D01*
X49681Y-56887D01*
X49754Y-56681D01*
X49754Y-59025D01*
X49718Y-59025D01*
X49749Y-58949D01*
X49750Y-58850D01*
X49750Y-58250D01*
X49712Y-58158D01*
X49641Y-58088D01*
X49549Y-58050D01*
X49527Y-58050D01*
X49665Y-57911D01*
X49749Y-57709D01*
X49750Y-57491D01*
X49666Y-57288D01*
X49511Y-57134D01*
X49436Y-57102D01*
X49487Y-57081D01*
X49515Y-56985D01*
X49200Y-56670D01*
X49129Y-56741D01*
X49129Y-56600D01*
X48814Y-56284D01*
X48718Y-56312D01*
X48645Y-56518D01*
X48656Y-56736D01*
X48718Y-56887D01*
X48814Y-56915D01*
X49129Y-56600D01*
X49129Y-56741D01*
X48884Y-56985D01*
X48912Y-57081D01*
X48967Y-57100D01*
X48888Y-57133D01*
X48734Y-57288D01*
X48650Y-57490D01*
X48649Y-57708D01*
X48733Y-57911D01*
X48872Y-58049D01*
X48850Y-58049D01*
X48758Y-58087D01*
X48688Y-58158D01*
X48650Y-58250D01*
X48649Y-58349D01*
X48649Y-58949D01*
X48681Y-59025D01*
X47175Y-59025D01*
X47175Y-41615D01*
X47110Y-41459D01*
X47051Y-41400D01*
X47110Y-41341D01*
X47174Y-41184D01*
X47175Y-41015D01*
X47110Y-40859D01*
X46991Y-40739D01*
X46834Y-40675D01*
X46665Y-40674D01*
X46509Y-40739D01*
X46389Y-40858D01*
X46325Y-41015D01*
X46324Y-41184D01*
X46389Y-41340D01*
X46448Y-41399D01*
X46389Y-41458D01*
X46325Y-41615D01*
X46324Y-41784D01*
X46389Y-41940D01*
X46508Y-42060D01*
X46665Y-42124D01*
X46834Y-42125D01*
X46990Y-42060D01*
X47110Y-41941D01*
X47174Y-41784D01*
X47175Y-41615D01*
X47175Y-59025D01*
X45625Y-59025D01*
X45625Y-45315D01*
X45615Y-45291D01*
X45615Y-33585D01*
X45300Y-33270D01*
X45229Y-33341D01*
X45229Y-33200D01*
X44914Y-32884D01*
X44818Y-32912D01*
X44745Y-33118D01*
X44756Y-33336D01*
X44818Y-33487D01*
X44914Y-33515D01*
X45229Y-33200D01*
X45229Y-33341D01*
X44984Y-33585D01*
X45012Y-33681D01*
X45218Y-33754D01*
X45436Y-33743D01*
X45587Y-33681D01*
X45615Y-33585D01*
X45615Y-45291D01*
X45560Y-45159D01*
X45441Y-45039D01*
X45284Y-44975D01*
X45115Y-44974D01*
X44959Y-45039D01*
X44839Y-45158D01*
X44775Y-45315D01*
X44774Y-45484D01*
X44839Y-45640D01*
X44958Y-45760D01*
X45115Y-45824D01*
X45284Y-45825D01*
X45440Y-45760D01*
X45560Y-45641D01*
X45624Y-45484D01*
X45625Y-45315D01*
X45625Y-59025D01*
X45225Y-59025D01*
X45225Y-48115D01*
X45160Y-47959D01*
X45041Y-47839D01*
X44884Y-47775D01*
X44715Y-47774D01*
X44675Y-47791D01*
X44675Y-45915D01*
X44625Y-45794D01*
X44625Y-28565D01*
X44560Y-28409D01*
X44441Y-28289D01*
X44284Y-28225D01*
X44133Y-28224D01*
X44133Y-23264D01*
X44029Y-23013D01*
X43837Y-22821D01*
X43586Y-22717D01*
X43314Y-22716D01*
X43133Y-22791D01*
X43133Y-21264D01*
X43029Y-21013D01*
X42837Y-20821D01*
X42586Y-20717D01*
X42314Y-20716D01*
X42063Y-20820D01*
X41871Y-21012D01*
X41767Y-21263D01*
X41766Y-21535D01*
X41870Y-21786D01*
X42062Y-21978D01*
X42313Y-22082D01*
X42585Y-22083D01*
X42836Y-21979D01*
X43028Y-21787D01*
X43132Y-21536D01*
X43133Y-21264D01*
X43133Y-22791D01*
X43063Y-22820D01*
X42871Y-23012D01*
X42767Y-23263D01*
X42766Y-23535D01*
X42870Y-23786D01*
X43062Y-23978D01*
X43313Y-24082D01*
X43585Y-24083D01*
X43836Y-23979D01*
X44028Y-23787D01*
X44132Y-23536D01*
X44133Y-23264D01*
X44133Y-28224D01*
X44115Y-28224D01*
X43959Y-28289D01*
X43839Y-28408D01*
X43775Y-28565D01*
X43774Y-28734D01*
X43839Y-28890D01*
X43958Y-29010D01*
X44115Y-29074D01*
X44284Y-29075D01*
X44440Y-29010D01*
X44560Y-28891D01*
X44624Y-28734D01*
X44625Y-28565D01*
X44625Y-45794D01*
X44610Y-45759D01*
X44525Y-45673D01*
X44525Y-35765D01*
X44460Y-35609D01*
X44341Y-35489D01*
X44184Y-35425D01*
X44015Y-35424D01*
X43859Y-35489D01*
X43739Y-35608D01*
X43675Y-35765D01*
X43675Y-26565D01*
X43610Y-26409D01*
X43491Y-26289D01*
X43334Y-26225D01*
X43165Y-26224D01*
X43009Y-26289D01*
X42889Y-26408D01*
X42825Y-26565D01*
X42824Y-26734D01*
X42889Y-26890D01*
X43008Y-27010D01*
X43165Y-27074D01*
X43334Y-27075D01*
X43490Y-27010D01*
X43610Y-26891D01*
X43674Y-26734D01*
X43675Y-26565D01*
X43675Y-35765D01*
X43674Y-35934D01*
X43739Y-36090D01*
X43858Y-36210D01*
X44015Y-36274D01*
X44184Y-36275D01*
X44340Y-36210D01*
X44460Y-36091D01*
X44524Y-35934D01*
X44525Y-35765D01*
X44525Y-45673D01*
X44491Y-45639D01*
X44334Y-45575D01*
X44262Y-45575D01*
X44262Y-36985D01*
X44251Y-36767D01*
X44189Y-36616D01*
X44093Y-36588D01*
X44023Y-36659D01*
X44023Y-36518D01*
X43995Y-36422D01*
X43789Y-36349D01*
X43571Y-36360D01*
X43420Y-36422D01*
X43392Y-36518D01*
X43708Y-36833D01*
X44023Y-36518D01*
X44023Y-36659D01*
X43778Y-36904D01*
X44093Y-37219D01*
X44189Y-37191D01*
X44262Y-36985D01*
X44262Y-45575D01*
X44165Y-45574D01*
X44023Y-45633D01*
X44023Y-37289D01*
X43708Y-36974D01*
X43637Y-37045D01*
X43637Y-36904D01*
X43322Y-36588D01*
X43226Y-36616D01*
X43153Y-36822D01*
X43164Y-37040D01*
X43226Y-37191D01*
X43322Y-37219D01*
X43637Y-36904D01*
X43637Y-37045D01*
X43392Y-37289D01*
X43420Y-37385D01*
X43626Y-37458D01*
X43844Y-37447D01*
X43995Y-37385D01*
X44023Y-37289D01*
X44023Y-45633D01*
X44009Y-45639D01*
X43889Y-45758D01*
X43825Y-45915D01*
X43824Y-46084D01*
X43889Y-46240D01*
X44008Y-46360D01*
X44165Y-46424D01*
X44334Y-46425D01*
X44490Y-46360D01*
X44610Y-46241D01*
X44674Y-46084D01*
X44675Y-45915D01*
X44675Y-47791D01*
X44559Y-47839D01*
X44439Y-47958D01*
X44375Y-48115D01*
X44374Y-48284D01*
X44439Y-48440D01*
X44558Y-48560D01*
X44715Y-48624D01*
X44884Y-48625D01*
X45040Y-48560D01*
X45160Y-48441D01*
X45224Y-48284D01*
X45225Y-48115D01*
X45225Y-59025D01*
X44575Y-59025D01*
X44575Y-50065D01*
X44510Y-49909D01*
X44391Y-49789D01*
X44234Y-49725D01*
X44065Y-49724D01*
X43909Y-49789D01*
X43789Y-49908D01*
X43725Y-50065D01*
X43724Y-50234D01*
X43789Y-50390D01*
X43908Y-50510D01*
X44065Y-50574D01*
X44234Y-50575D01*
X44390Y-50510D01*
X44510Y-50391D01*
X44574Y-50234D01*
X44575Y-50065D01*
X44575Y-59025D01*
X44193Y-59025D01*
X44068Y-59049D01*
X43963Y-59120D01*
X43892Y-59225D01*
X43868Y-59350D01*
X43868Y-59911D01*
X43175Y-59911D01*
X43175Y-40615D01*
X43110Y-40459D01*
X42991Y-40339D01*
X42834Y-40275D01*
X42665Y-40274D01*
X42509Y-40339D01*
X42389Y-40458D01*
X42325Y-40615D01*
X42324Y-40784D01*
X42389Y-40940D01*
X42508Y-41060D01*
X42665Y-41124D01*
X42834Y-41125D01*
X42990Y-41060D01*
X43110Y-40941D01*
X43174Y-40784D01*
X43175Y-40615D01*
X43175Y-59911D01*
X42125Y-59911D01*
X42125Y-30515D01*
X42060Y-30359D01*
X41941Y-30239D01*
X41784Y-30175D01*
X41615Y-30174D01*
X41459Y-30239D01*
X41339Y-30358D01*
X41275Y-30515D01*
X41274Y-30684D01*
X41339Y-30840D01*
X41458Y-30960D01*
X41615Y-31024D01*
X41784Y-31025D01*
X41940Y-30960D01*
X42060Y-30841D01*
X42124Y-30684D01*
X42125Y-30515D01*
X42125Y-59911D01*
X42075Y-59911D01*
X42075Y-39515D01*
X42010Y-39359D01*
X41891Y-39239D01*
X41734Y-39175D01*
X41565Y-39174D01*
X41409Y-39239D01*
X41289Y-39358D01*
X41225Y-39515D01*
X41224Y-39684D01*
X41289Y-39840D01*
X41408Y-39960D01*
X41565Y-40024D01*
X41734Y-40025D01*
X41890Y-39960D01*
X42010Y-39841D01*
X42074Y-39684D01*
X42075Y-39515D01*
X42075Y-59911D01*
X41154Y-59911D01*
X41154Y-49281D01*
X41150Y-49188D01*
X41150Y-48091D01*
X41066Y-47888D01*
X40911Y-47734D01*
X40830Y-47700D01*
X40911Y-47666D01*
X41065Y-47511D01*
X41149Y-47309D01*
X41150Y-47091D01*
X41066Y-46888D01*
X40911Y-46734D01*
X40830Y-46700D01*
X40911Y-46666D01*
X41065Y-46511D01*
X41149Y-46309D01*
X41150Y-46091D01*
X41066Y-45888D01*
X40911Y-45734D01*
X40830Y-45700D01*
X40911Y-45666D01*
X41065Y-45511D01*
X41149Y-45309D01*
X41150Y-45091D01*
X41066Y-44888D01*
X40911Y-44734D01*
X40830Y-44700D01*
X40911Y-44666D01*
X41065Y-44511D01*
X41149Y-44309D01*
X41150Y-44091D01*
X41066Y-43888D01*
X40927Y-43750D01*
X40949Y-43750D01*
X41041Y-43712D01*
X41111Y-43641D01*
X41149Y-43549D01*
X41150Y-43450D01*
X41150Y-42850D01*
X41150Y-33450D01*
X41150Y-32850D01*
X41150Y-22050D01*
X41150Y-21450D01*
X41112Y-21358D01*
X41041Y-21288D01*
X40949Y-21250D01*
X40850Y-21249D01*
X40250Y-21249D01*
X40158Y-21287D01*
X40088Y-21358D01*
X40050Y-21450D01*
X40050Y-21472D01*
X39911Y-21334D01*
X39709Y-21250D01*
X39491Y-21249D01*
X39288Y-21333D01*
X39134Y-21488D01*
X39100Y-21569D01*
X39066Y-21488D01*
X38911Y-21334D01*
X38709Y-21250D01*
X38491Y-21249D01*
X38288Y-21333D01*
X38134Y-21488D01*
X38100Y-21569D01*
X38066Y-21488D01*
X37911Y-21334D01*
X37709Y-21250D01*
X37491Y-21249D01*
X37288Y-21333D01*
X37134Y-21488D01*
X37100Y-21569D01*
X37066Y-21488D01*
X36911Y-21334D01*
X36709Y-21250D01*
X36491Y-21249D01*
X36288Y-21333D01*
X36134Y-21488D01*
X36100Y-21569D01*
X36066Y-21488D01*
X35911Y-21334D01*
X35709Y-21250D01*
X35491Y-21249D01*
X35288Y-21333D01*
X35134Y-21488D01*
X35050Y-21690D01*
X35049Y-21908D01*
X35133Y-22111D01*
X35288Y-22265D01*
X35490Y-22349D01*
X35708Y-22350D01*
X35911Y-22266D01*
X36065Y-22111D01*
X36099Y-22030D01*
X36133Y-22111D01*
X36288Y-22265D01*
X36490Y-22349D01*
X36708Y-22350D01*
X36911Y-22266D01*
X37065Y-22111D01*
X37099Y-22030D01*
X37133Y-22111D01*
X37288Y-22265D01*
X37490Y-22349D01*
X37708Y-22350D01*
X37911Y-22266D01*
X38065Y-22111D01*
X38099Y-22030D01*
X38133Y-22111D01*
X38288Y-22265D01*
X38490Y-22349D01*
X38708Y-22350D01*
X38911Y-22266D01*
X39065Y-22111D01*
X39099Y-22030D01*
X39133Y-22111D01*
X39288Y-22265D01*
X39490Y-22349D01*
X39708Y-22350D01*
X39911Y-22266D01*
X40049Y-22127D01*
X40049Y-22149D01*
X40087Y-22241D01*
X40158Y-22311D01*
X40250Y-22349D01*
X40349Y-22350D01*
X40949Y-22350D01*
X41041Y-22312D01*
X41111Y-22241D01*
X41149Y-22149D01*
X41150Y-22050D01*
X41150Y-32850D01*
X41112Y-32758D01*
X41041Y-32688D01*
X40949Y-32650D01*
X40850Y-32649D01*
X40250Y-32649D01*
X40158Y-32687D01*
X40088Y-32758D01*
X40050Y-32850D01*
X40050Y-32872D01*
X39911Y-32734D01*
X39709Y-32650D01*
X39491Y-32649D01*
X39288Y-32733D01*
X39134Y-32888D01*
X39100Y-32969D01*
X39066Y-32888D01*
X38911Y-32734D01*
X38709Y-32650D01*
X38491Y-32649D01*
X38288Y-32733D01*
X38134Y-32888D01*
X38100Y-32969D01*
X38066Y-32888D01*
X37911Y-32734D01*
X37709Y-32650D01*
X37491Y-32649D01*
X37288Y-32733D01*
X37134Y-32888D01*
X37100Y-32969D01*
X37066Y-32888D01*
X36911Y-32734D01*
X36709Y-32650D01*
X36491Y-32649D01*
X36288Y-32733D01*
X36134Y-32888D01*
X36100Y-32969D01*
X36066Y-32888D01*
X35911Y-32734D01*
X35709Y-32650D01*
X35491Y-32649D01*
X35288Y-32733D01*
X35134Y-32888D01*
X35050Y-33090D01*
X35049Y-33308D01*
X35133Y-33511D01*
X35288Y-33665D01*
X35490Y-33749D01*
X35708Y-33750D01*
X35911Y-33666D01*
X36065Y-33511D01*
X36099Y-33430D01*
X36133Y-33511D01*
X36288Y-33665D01*
X36490Y-33749D01*
X36708Y-33750D01*
X36911Y-33666D01*
X37065Y-33511D01*
X37099Y-33430D01*
X37133Y-33511D01*
X37288Y-33665D01*
X37490Y-33749D01*
X37708Y-33750D01*
X37911Y-33666D01*
X38065Y-33511D01*
X38099Y-33430D01*
X38133Y-33511D01*
X38288Y-33665D01*
X38490Y-33749D01*
X38708Y-33750D01*
X38911Y-33666D01*
X39065Y-33511D01*
X39099Y-33430D01*
X39133Y-33511D01*
X39288Y-33665D01*
X39490Y-33749D01*
X39708Y-33750D01*
X39911Y-33666D01*
X40049Y-33527D01*
X40049Y-33549D01*
X40087Y-33641D01*
X40158Y-33711D01*
X40250Y-33749D01*
X40349Y-33750D01*
X40949Y-33750D01*
X41041Y-33712D01*
X41111Y-33641D01*
X41149Y-33549D01*
X41150Y-33450D01*
X41150Y-42850D01*
X41112Y-42758D01*
X41041Y-42688D01*
X40949Y-42650D01*
X40850Y-42649D01*
X40250Y-42649D01*
X40175Y-42681D01*
X40175Y-41715D01*
X40110Y-41559D01*
X39991Y-41439D01*
X39834Y-41375D01*
X39665Y-41374D01*
X39509Y-41439D01*
X39389Y-41558D01*
X39325Y-41715D01*
X39324Y-41884D01*
X39389Y-42040D01*
X39508Y-42160D01*
X39665Y-42224D01*
X39834Y-42225D01*
X39990Y-42160D01*
X40110Y-42041D01*
X40174Y-41884D01*
X40175Y-41715D01*
X40175Y-42681D01*
X40158Y-42687D01*
X40088Y-42758D01*
X40050Y-42850D01*
X40049Y-42949D01*
X40049Y-43549D01*
X40087Y-43641D01*
X40158Y-43711D01*
X40250Y-43749D01*
X40272Y-43749D01*
X40134Y-43888D01*
X40050Y-44090D01*
X40049Y-44308D01*
X40133Y-44511D01*
X40288Y-44665D01*
X40369Y-44699D01*
X40288Y-44733D01*
X40134Y-44888D01*
X40050Y-45090D01*
X40049Y-45308D01*
X40133Y-45511D01*
X40288Y-45665D01*
X40369Y-45699D01*
X40288Y-45733D01*
X40134Y-45888D01*
X40050Y-46090D01*
X40049Y-46308D01*
X40133Y-46511D01*
X40288Y-46665D01*
X40369Y-46699D01*
X40288Y-46733D01*
X40134Y-46888D01*
X40050Y-47090D01*
X40049Y-47308D01*
X40133Y-47511D01*
X40288Y-47665D01*
X40369Y-47699D01*
X40288Y-47733D01*
X40134Y-47888D01*
X40050Y-48090D01*
X40049Y-48308D01*
X40133Y-48511D01*
X40288Y-48665D01*
X40363Y-48697D01*
X40312Y-48718D01*
X40284Y-48814D01*
X40600Y-49129D01*
X40915Y-48814D01*
X40887Y-48718D01*
X40832Y-48699D01*
X40911Y-48666D01*
X41065Y-48511D01*
X41149Y-48309D01*
X41150Y-48091D01*
X41150Y-49188D01*
X41143Y-49063D01*
X41081Y-48912D01*
X40985Y-48884D01*
X40670Y-49200D01*
X40985Y-49515D01*
X41081Y-49487D01*
X41154Y-49281D01*
X41154Y-59911D01*
X41150Y-59911D01*
X41150Y-59191D01*
X41150Y-56291D01*
X41066Y-56088D01*
X40911Y-55934D01*
X40830Y-55900D01*
X40911Y-55866D01*
X41065Y-55711D01*
X41149Y-55509D01*
X41150Y-55291D01*
X41066Y-55088D01*
X40911Y-54934D01*
X40830Y-54900D01*
X40911Y-54866D01*
X41065Y-54711D01*
X41149Y-54509D01*
X41150Y-54291D01*
X41066Y-54088D01*
X40911Y-53934D01*
X40830Y-53900D01*
X40911Y-53866D01*
X41065Y-53711D01*
X41149Y-53509D01*
X41150Y-53291D01*
X41066Y-53088D01*
X40911Y-52934D01*
X40830Y-52900D01*
X40911Y-52866D01*
X41065Y-52711D01*
X41149Y-52509D01*
X41150Y-52291D01*
X41066Y-52088D01*
X40927Y-51950D01*
X40949Y-51950D01*
X41041Y-51912D01*
X41111Y-51841D01*
X41149Y-51749D01*
X41150Y-51650D01*
X41150Y-51050D01*
X41112Y-50958D01*
X41041Y-50888D01*
X40949Y-50850D01*
X40915Y-50850D01*
X40915Y-49585D01*
X40600Y-49270D01*
X40529Y-49341D01*
X40529Y-49200D01*
X40214Y-48884D01*
X40118Y-48912D01*
X40045Y-49118D01*
X40056Y-49336D01*
X40118Y-49487D01*
X40214Y-49515D01*
X40529Y-49200D01*
X40529Y-49341D01*
X40284Y-49585D01*
X40312Y-49681D01*
X40518Y-49754D01*
X40736Y-49743D01*
X40887Y-49681D01*
X40915Y-49585D01*
X40915Y-50850D01*
X40850Y-50849D01*
X40250Y-50849D01*
X40158Y-50887D01*
X40088Y-50958D01*
X40050Y-51050D01*
X40049Y-51149D01*
X40049Y-51749D01*
X40087Y-51841D01*
X40158Y-51911D01*
X40250Y-51949D01*
X40272Y-51949D01*
X40134Y-52088D01*
X40050Y-52290D01*
X40049Y-52508D01*
X40133Y-52711D01*
X40288Y-52865D01*
X40369Y-52899D01*
X40288Y-52933D01*
X40134Y-53088D01*
X40050Y-53290D01*
X40049Y-53508D01*
X40133Y-53711D01*
X40288Y-53865D01*
X40369Y-53899D01*
X40288Y-53933D01*
X40134Y-54088D01*
X40050Y-54290D01*
X40049Y-54508D01*
X40133Y-54711D01*
X40288Y-54865D01*
X40369Y-54899D01*
X40288Y-54933D01*
X40134Y-55088D01*
X40050Y-55290D01*
X40049Y-55508D01*
X40133Y-55711D01*
X40288Y-55865D01*
X40369Y-55899D01*
X40288Y-55933D01*
X40134Y-56088D01*
X40050Y-56290D01*
X40049Y-56508D01*
X40133Y-56711D01*
X40288Y-56865D01*
X40490Y-56949D01*
X40708Y-56950D01*
X40911Y-56866D01*
X41065Y-56711D01*
X41149Y-56509D01*
X41150Y-56291D01*
X41150Y-59191D01*
X41066Y-58988D01*
X40927Y-58850D01*
X40949Y-58850D01*
X41041Y-58812D01*
X41111Y-58741D01*
X41149Y-58649D01*
X41150Y-58550D01*
X41150Y-57950D01*
X41112Y-57858D01*
X41041Y-57788D01*
X40949Y-57750D01*
X40850Y-57749D01*
X40250Y-57749D01*
X40158Y-57787D01*
X40088Y-57858D01*
X40050Y-57950D01*
X40049Y-58049D01*
X40049Y-58649D01*
X40087Y-58741D01*
X40158Y-58811D01*
X40250Y-58849D01*
X40272Y-58849D01*
X40134Y-58988D01*
X40050Y-59190D01*
X40049Y-59408D01*
X40133Y-59611D01*
X40288Y-59765D01*
X40490Y-59849D01*
X40708Y-59850D01*
X40911Y-59766D01*
X41065Y-59611D01*
X41149Y-59409D01*
X41150Y-59191D01*
X41150Y-59911D01*
X37475Y-59911D01*
X37475Y-38715D01*
X37410Y-38559D01*
X37291Y-38439D01*
X37134Y-38375D01*
X36965Y-38374D01*
X36809Y-38439D01*
X36689Y-38558D01*
X36625Y-38715D01*
X36624Y-38884D01*
X36689Y-39040D01*
X36808Y-39160D01*
X36965Y-39224D01*
X37134Y-39225D01*
X37290Y-39160D01*
X37410Y-39041D01*
X37474Y-38884D01*
X37475Y-38715D01*
X37475Y-59911D01*
X33383Y-59911D01*
X33383Y-49394D01*
X33379Y-49301D01*
X33379Y-48204D01*
X33295Y-48001D01*
X33140Y-47847D01*
X33059Y-47813D01*
X33140Y-47779D01*
X33294Y-47624D01*
X33378Y-47422D01*
X33379Y-47204D01*
X33295Y-47001D01*
X33140Y-46847D01*
X33059Y-46813D01*
X33140Y-46779D01*
X33294Y-46624D01*
X33378Y-46422D01*
X33379Y-46204D01*
X33295Y-46001D01*
X33140Y-45847D01*
X33059Y-45813D01*
X33140Y-45779D01*
X33294Y-45624D01*
X33378Y-45422D01*
X33379Y-45204D01*
X33295Y-45001D01*
X33140Y-44847D01*
X33059Y-44813D01*
X33140Y-44779D01*
X33294Y-44624D01*
X33378Y-44422D01*
X33379Y-44204D01*
X33295Y-44001D01*
X33156Y-43863D01*
X33178Y-43863D01*
X33270Y-43825D01*
X33340Y-43754D01*
X33378Y-43662D01*
X33379Y-43563D01*
X33379Y-42963D01*
X33341Y-42871D01*
X33270Y-42801D01*
X33178Y-42763D01*
X33079Y-42762D01*
X32479Y-42762D01*
X32387Y-42800D01*
X32317Y-42871D01*
X32279Y-42963D01*
X32278Y-43062D01*
X32278Y-43662D01*
X32316Y-43754D01*
X32387Y-43824D01*
X32479Y-43862D01*
X32501Y-43862D01*
X32363Y-44001D01*
X32279Y-44203D01*
X32278Y-44421D01*
X32362Y-44624D01*
X32517Y-44778D01*
X32598Y-44812D01*
X32517Y-44846D01*
X32363Y-45001D01*
X32279Y-45203D01*
X32278Y-45421D01*
X32362Y-45624D01*
X32517Y-45778D01*
X32598Y-45812D01*
X32517Y-45846D01*
X32363Y-46001D01*
X32279Y-46203D01*
X32278Y-46421D01*
X32362Y-46624D01*
X32517Y-46778D01*
X32598Y-46812D01*
X32517Y-46846D01*
X32363Y-47001D01*
X32279Y-47203D01*
X32278Y-47421D01*
X32362Y-47624D01*
X32517Y-47778D01*
X32598Y-47812D01*
X32517Y-47846D01*
X32363Y-48001D01*
X32279Y-48203D01*
X32278Y-48421D01*
X32362Y-48624D01*
X32517Y-48778D01*
X32592Y-48810D01*
X32541Y-48831D01*
X32513Y-48927D01*
X32829Y-49242D01*
X33144Y-48927D01*
X33116Y-48831D01*
X33061Y-48812D01*
X33140Y-48779D01*
X33294Y-48624D01*
X33378Y-48422D01*
X33379Y-48204D01*
X33379Y-49301D01*
X33372Y-49176D01*
X33310Y-49025D01*
X33214Y-48997D01*
X32899Y-49313D01*
X33214Y-49628D01*
X33310Y-49600D01*
X33383Y-49394D01*
X33383Y-59911D01*
X33379Y-59911D01*
X33379Y-59204D01*
X33379Y-55204D01*
X33295Y-55001D01*
X33140Y-54847D01*
X33059Y-54813D01*
X33140Y-54779D01*
X33294Y-54624D01*
X33378Y-54422D01*
X33379Y-54204D01*
X33295Y-54001D01*
X33140Y-53847D01*
X33059Y-53813D01*
X33140Y-53779D01*
X33294Y-53624D01*
X33378Y-53422D01*
X33379Y-53204D01*
X33295Y-53001D01*
X33140Y-52847D01*
X33059Y-52813D01*
X33140Y-52779D01*
X33294Y-52624D01*
X33378Y-52422D01*
X33379Y-52204D01*
X33295Y-52001D01*
X33156Y-51863D01*
X33178Y-51863D01*
X33270Y-51825D01*
X33340Y-51754D01*
X33378Y-51662D01*
X33379Y-51563D01*
X33379Y-50963D01*
X33341Y-50871D01*
X33270Y-50801D01*
X33178Y-50763D01*
X33144Y-50763D01*
X33144Y-49698D01*
X32829Y-49383D01*
X32758Y-49454D01*
X32758Y-49313D01*
X32443Y-48997D01*
X32347Y-49025D01*
X32274Y-49231D01*
X32285Y-49449D01*
X32347Y-49600D01*
X32443Y-49628D01*
X32758Y-49313D01*
X32758Y-49454D01*
X32513Y-49698D01*
X32541Y-49794D01*
X32747Y-49867D01*
X32965Y-49856D01*
X33116Y-49794D01*
X33144Y-49698D01*
X33144Y-50763D01*
X33079Y-50762D01*
X32479Y-50762D01*
X32387Y-50800D01*
X32317Y-50871D01*
X32279Y-50963D01*
X32278Y-51062D01*
X32278Y-51662D01*
X32316Y-51754D01*
X32387Y-51824D01*
X32479Y-51862D01*
X32501Y-51862D01*
X32363Y-52001D01*
X32279Y-52203D01*
X32278Y-52421D01*
X32362Y-52624D01*
X32517Y-52778D01*
X32598Y-52812D01*
X32517Y-52846D01*
X32363Y-53001D01*
X32279Y-53203D01*
X32278Y-53421D01*
X32362Y-53624D01*
X32517Y-53778D01*
X32598Y-53812D01*
X32517Y-53846D01*
X32363Y-54001D01*
X32279Y-54203D01*
X32278Y-54421D01*
X32362Y-54624D01*
X32517Y-54778D01*
X32598Y-54812D01*
X32517Y-54846D01*
X32363Y-55001D01*
X32279Y-55203D01*
X32278Y-55421D01*
X32362Y-55624D01*
X32501Y-55762D01*
X32479Y-55762D01*
X32387Y-55800D01*
X32317Y-55871D01*
X32279Y-55963D01*
X32278Y-56062D01*
X32278Y-56662D01*
X32316Y-56754D01*
X32387Y-56824D01*
X32479Y-56862D01*
X32578Y-56863D01*
X33178Y-56863D01*
X33270Y-56825D01*
X33340Y-56754D01*
X33378Y-56662D01*
X33379Y-56563D01*
X33379Y-55963D01*
X33341Y-55871D01*
X33270Y-55801D01*
X33178Y-55763D01*
X33156Y-55763D01*
X33294Y-55624D01*
X33378Y-55422D01*
X33379Y-55204D01*
X33379Y-59204D01*
X33295Y-59001D01*
X33156Y-58863D01*
X33178Y-58863D01*
X33270Y-58825D01*
X33340Y-58754D01*
X33378Y-58662D01*
X33379Y-58563D01*
X33379Y-57963D01*
X33341Y-57871D01*
X33270Y-57801D01*
X33178Y-57763D01*
X33079Y-57762D01*
X32479Y-57762D01*
X32387Y-57800D01*
X32317Y-57871D01*
X32279Y-57963D01*
X32278Y-58062D01*
X32278Y-58662D01*
X32316Y-58754D01*
X32387Y-58824D01*
X32479Y-58862D01*
X32501Y-58862D01*
X32363Y-59001D01*
X32279Y-59203D01*
X32278Y-59421D01*
X32362Y-59624D01*
X32517Y-59778D01*
X32719Y-59862D01*
X32937Y-59863D01*
X33140Y-59779D01*
X33294Y-59624D01*
X33378Y-59422D01*
X33379Y-59204D01*
X33379Y-59911D01*
X31427Y-59911D01*
X31427Y-42746D01*
X34154Y-42746D01*
X34278Y-42721D01*
X34383Y-42650D01*
X34454Y-42545D01*
X34479Y-42421D01*
X34479Y-20502D01*
X52806Y-20502D01*
X52930Y-20477D01*
X52933Y-20475D01*
X65187Y-20475D01*
X65225Y-20500D01*
X65350Y-20525D01*
X65474Y-20500D01*
X65579Y-20429D01*
X65599Y-20399D01*
X65629Y-20379D01*
X65700Y-20274D01*
X65725Y-20150D01*
X65700Y-20025D01*
X65675Y-19987D01*
X65675Y-18862D01*
X65697Y-18829D01*
X70443Y-18829D01*
X70443Y-50689D01*
X70443Y-53125D01*
X70443Y-53125D01*
G37*
G54D20*
X70443Y-53125D02*
X70428Y-53128D01*
X70428Y-19720D01*
X70417Y-19502D01*
X70355Y-19351D01*
X70259Y-19323D01*
X70189Y-19394D01*
X70189Y-19253D01*
X70161Y-19157D01*
X69955Y-19084D01*
X69737Y-19095D01*
X69586Y-19157D01*
X69558Y-19253D01*
X69874Y-19568D01*
X70189Y-19253D01*
X70189Y-19394D01*
X69944Y-19639D01*
X70259Y-19954D01*
X70355Y-19926D01*
X70428Y-19720D01*
X70428Y-53128D01*
X70424Y-53129D01*
X70424Y-43530D01*
X70340Y-43327D01*
X70185Y-43173D01*
X70104Y-43139D01*
X70185Y-43105D01*
X70339Y-42950D01*
X70423Y-42748D01*
X70424Y-42530D01*
X70340Y-42327D01*
X70185Y-42173D01*
X70104Y-42139D01*
X70185Y-42105D01*
X70339Y-41950D01*
X70423Y-41748D01*
X70424Y-41530D01*
X70340Y-41327D01*
X70185Y-41173D01*
X70104Y-41139D01*
X70185Y-41105D01*
X70339Y-40950D01*
X70423Y-40748D01*
X70424Y-40530D01*
X70340Y-40327D01*
X70185Y-40173D01*
X70104Y-40139D01*
X70185Y-40105D01*
X70339Y-39950D01*
X70423Y-39748D01*
X70424Y-39530D01*
X70340Y-39327D01*
X70185Y-39173D01*
X70104Y-39139D01*
X70185Y-39105D01*
X70339Y-38950D01*
X70423Y-38748D01*
X70424Y-38530D01*
X70340Y-38327D01*
X70185Y-38173D01*
X70104Y-38139D01*
X70185Y-38105D01*
X70339Y-37950D01*
X70423Y-37748D01*
X70424Y-37530D01*
X70340Y-37327D01*
X70185Y-37173D01*
X70104Y-37139D01*
X70185Y-37105D01*
X70339Y-36950D01*
X70423Y-36748D01*
X70424Y-36530D01*
X70340Y-36327D01*
X70185Y-36173D01*
X70104Y-36139D01*
X70185Y-36105D01*
X70339Y-35950D01*
X70423Y-35748D01*
X70424Y-35530D01*
X70340Y-35327D01*
X70185Y-35173D01*
X70104Y-35139D01*
X70185Y-35105D01*
X70339Y-34950D01*
X70423Y-34748D01*
X70424Y-34530D01*
X70340Y-34327D01*
X70185Y-34173D01*
X70104Y-34139D01*
X70185Y-34105D01*
X70339Y-33950D01*
X70423Y-33748D01*
X70424Y-33530D01*
X70340Y-33327D01*
X70185Y-33173D01*
X70104Y-33139D01*
X70185Y-33105D01*
X70339Y-32950D01*
X70423Y-32748D01*
X70424Y-32530D01*
X70340Y-32327D01*
X70185Y-32173D01*
X70104Y-32139D01*
X70185Y-32105D01*
X70339Y-31950D01*
X70423Y-31748D01*
X70424Y-31530D01*
X70340Y-31327D01*
X70185Y-31173D01*
X70104Y-31139D01*
X70185Y-31105D01*
X70339Y-30950D01*
X70423Y-30748D01*
X70424Y-30530D01*
X70340Y-30327D01*
X70185Y-30173D01*
X70104Y-30139D01*
X70185Y-30105D01*
X70339Y-29950D01*
X70423Y-29748D01*
X70424Y-29530D01*
X70340Y-29327D01*
X70185Y-29173D01*
X70104Y-29139D01*
X70185Y-29105D01*
X70339Y-28950D01*
X70423Y-28748D01*
X70424Y-28530D01*
X70340Y-28327D01*
X70185Y-28173D01*
X70104Y-28139D01*
X70185Y-28105D01*
X70339Y-27950D01*
X70423Y-27748D01*
X70424Y-27530D01*
X70340Y-27327D01*
X70185Y-27173D01*
X70104Y-27139D01*
X70185Y-27105D01*
X70339Y-26950D01*
X70423Y-26748D01*
X70424Y-26530D01*
X70340Y-26327D01*
X70185Y-26173D01*
X70104Y-26139D01*
X70185Y-26105D01*
X70339Y-25950D01*
X70423Y-25748D01*
X70424Y-25530D01*
X70340Y-25327D01*
X70185Y-25173D01*
X70104Y-25139D01*
X70185Y-25105D01*
X70339Y-24950D01*
X70423Y-24748D01*
X70424Y-24530D01*
X70340Y-24327D01*
X70185Y-24173D01*
X70104Y-24139D01*
X70185Y-24105D01*
X70339Y-23950D01*
X70423Y-23748D01*
X70424Y-23530D01*
X70340Y-23327D01*
X70185Y-23173D01*
X70104Y-23139D01*
X70185Y-23105D01*
X70339Y-22950D01*
X70423Y-22748D01*
X70424Y-22530D01*
X70340Y-22327D01*
X70185Y-22173D01*
X70104Y-22139D01*
X70185Y-22105D01*
X70339Y-21950D01*
X70423Y-21748D01*
X70424Y-21530D01*
X70340Y-21327D01*
X70185Y-21173D01*
X70104Y-21139D01*
X70185Y-21105D01*
X70339Y-20950D01*
X70423Y-20748D01*
X70424Y-20530D01*
X70340Y-20327D01*
X70185Y-20173D01*
X70110Y-20141D01*
X70161Y-20120D01*
X70189Y-20024D01*
X69874Y-19709D01*
X69558Y-20024D01*
X69586Y-20120D01*
X69641Y-20139D01*
X69562Y-20172D01*
X69408Y-20327D01*
X69374Y-20408D01*
X69340Y-20327D01*
X69201Y-20189D01*
X69223Y-20189D01*
X69315Y-20151D01*
X69385Y-20080D01*
X69423Y-19988D01*
X69424Y-19935D01*
X69488Y-19954D01*
X69803Y-19639D01*
X69488Y-19323D01*
X69424Y-19342D01*
X69424Y-19289D01*
X69386Y-19197D01*
X69315Y-19127D01*
X69223Y-19089D01*
X69124Y-19088D01*
X68524Y-19088D01*
X68432Y-19126D01*
X68362Y-19197D01*
X68324Y-19289D01*
X68323Y-19388D01*
X68323Y-19988D01*
X68361Y-20080D01*
X68432Y-20150D01*
X68524Y-20188D01*
X68546Y-20188D01*
X68408Y-20327D01*
X68324Y-20529D01*
X68323Y-20747D01*
X68407Y-20950D01*
X68562Y-21104D01*
X68643Y-21138D01*
X68562Y-21172D01*
X68408Y-21327D01*
X68324Y-21529D01*
X68323Y-21747D01*
X68407Y-21950D01*
X68562Y-22104D01*
X68643Y-22138D01*
X68562Y-22172D01*
X68408Y-22327D01*
X68324Y-22529D01*
X68323Y-22747D01*
X68407Y-22950D01*
X68562Y-23104D01*
X68643Y-23138D01*
X68562Y-23172D01*
X68408Y-23327D01*
X68324Y-23529D01*
X68323Y-23747D01*
X68407Y-23950D01*
X68562Y-24104D01*
X68643Y-24138D01*
X68562Y-24172D01*
X68408Y-24327D01*
X68324Y-24529D01*
X68323Y-24747D01*
X68407Y-24950D01*
X68562Y-25104D01*
X68643Y-25138D01*
X68562Y-25172D01*
X68408Y-25327D01*
X68324Y-25529D01*
X68323Y-25747D01*
X68407Y-25950D01*
X68562Y-26104D01*
X68643Y-26138D01*
X68562Y-26172D01*
X68408Y-26327D01*
X68324Y-26529D01*
X68323Y-26747D01*
X68407Y-26950D01*
X68562Y-27104D01*
X68643Y-27138D01*
X68562Y-27172D01*
X68408Y-27327D01*
X68324Y-27529D01*
X68323Y-27747D01*
X68407Y-27950D01*
X68562Y-28104D01*
X68643Y-28138D01*
X68562Y-28172D01*
X68408Y-28327D01*
X68324Y-28529D01*
X68323Y-28747D01*
X68407Y-28950D01*
X68562Y-29104D01*
X68643Y-29138D01*
X68562Y-29172D01*
X68408Y-29327D01*
X68324Y-29529D01*
X68323Y-29747D01*
X68407Y-29950D01*
X68562Y-30104D01*
X68643Y-30138D01*
X68562Y-30172D01*
X68408Y-30327D01*
X68324Y-30529D01*
X68323Y-30747D01*
X68407Y-30950D01*
X68562Y-31104D01*
X68643Y-31138D01*
X68562Y-31172D01*
X68408Y-31327D01*
X68324Y-31529D01*
X68323Y-31747D01*
X68407Y-31950D01*
X68562Y-32104D01*
X68643Y-32138D01*
X68562Y-32172D01*
X68408Y-32327D01*
X68324Y-32529D01*
X68323Y-32747D01*
X68407Y-32950D01*
X68562Y-33104D01*
X68643Y-33138D01*
X68562Y-33172D01*
X68408Y-33327D01*
X68324Y-33529D01*
X68323Y-33747D01*
X68407Y-33950D01*
X68562Y-34104D01*
X68643Y-34138D01*
X68562Y-34172D01*
X68408Y-34327D01*
X68324Y-34529D01*
X68323Y-34747D01*
X68407Y-34950D01*
X68562Y-35104D01*
X68643Y-35138D01*
X68562Y-35172D01*
X68408Y-35327D01*
X68324Y-35529D01*
X68323Y-35747D01*
X68407Y-35950D01*
X68562Y-36104D01*
X68643Y-36138D01*
X68562Y-36172D01*
X68408Y-36327D01*
X68324Y-36529D01*
X68323Y-36747D01*
X68407Y-36950D01*
X68562Y-37104D01*
X68643Y-37138D01*
X68562Y-37172D01*
X68408Y-37327D01*
X68324Y-37529D01*
X68323Y-37747D01*
X68407Y-37950D01*
X68562Y-38104D01*
X68643Y-38138D01*
X68562Y-38172D01*
X68408Y-38327D01*
X68324Y-38529D01*
X68323Y-38747D01*
X68407Y-38950D01*
X68562Y-39104D01*
X68643Y-39138D01*
X68562Y-39172D01*
X68408Y-39327D01*
X68324Y-39529D01*
X68323Y-39747D01*
X68407Y-39950D01*
X68562Y-40104D01*
X68643Y-40138D01*
X68562Y-40172D01*
X68408Y-40327D01*
X68324Y-40529D01*
X68323Y-40747D01*
X68407Y-40950D01*
X68562Y-41104D01*
X68643Y-41138D01*
X68562Y-41172D01*
X68408Y-41327D01*
X68324Y-41529D01*
X68323Y-41747D01*
X68407Y-41950D01*
X68562Y-42104D01*
X68643Y-42138D01*
X68562Y-42172D01*
X68408Y-42327D01*
X68324Y-42529D01*
X68323Y-42747D01*
X68407Y-42950D01*
X68562Y-43104D01*
X68643Y-43138D01*
X68562Y-43172D01*
X68408Y-43327D01*
X68324Y-43529D01*
X68323Y-43747D01*
X68407Y-43950D01*
X68562Y-44104D01*
X68764Y-44188D01*
X68982Y-44189D01*
X69185Y-44105D01*
X69339Y-43950D01*
X69373Y-43869D01*
X69407Y-43950D01*
X69562Y-44104D01*
X69764Y-44188D01*
X69982Y-44189D01*
X70185Y-44105D01*
X70339Y-43950D01*
X70423Y-43748D01*
X70424Y-43530D01*
X70424Y-53129D01*
X70347Y-53144D01*
X70318Y-53164D01*
X69750Y-53164D01*
X69750Y-52291D01*
X69750Y-49891D01*
X69666Y-49688D01*
X69527Y-49549D01*
X69549Y-49549D01*
X69641Y-49511D01*
X69712Y-49441D01*
X69750Y-49349D01*
X69750Y-48650D01*
X69712Y-48558D01*
X69641Y-48488D01*
X69549Y-48450D01*
X69450Y-48449D01*
X69312Y-48450D01*
X69250Y-48512D01*
X69250Y-48950D01*
X69687Y-48950D01*
X69750Y-48887D01*
X69750Y-48650D01*
X69750Y-49349D01*
X69750Y-49112D01*
X69687Y-49050D01*
X69250Y-49050D01*
X69250Y-49057D01*
X69150Y-49057D01*
X69150Y-49050D01*
X69150Y-48950D01*
X69150Y-48512D01*
X69087Y-48450D01*
X68949Y-48449D01*
X68850Y-48450D01*
X68758Y-48488D01*
X68687Y-48558D01*
X68649Y-48650D01*
X68650Y-48887D01*
X68712Y-48950D01*
X69150Y-48950D01*
X69150Y-49050D01*
X68712Y-49050D01*
X68650Y-49112D01*
X68649Y-49349D01*
X68687Y-49441D01*
X68758Y-49511D01*
X68850Y-49549D01*
X68872Y-49549D01*
X68734Y-49688D01*
X68650Y-49890D01*
X68649Y-50108D01*
X68733Y-50311D01*
X68888Y-50465D01*
X69090Y-50549D01*
X69308Y-50550D01*
X69511Y-50466D01*
X69665Y-50311D01*
X69749Y-50109D01*
X69750Y-49891D01*
X69750Y-52291D01*
X69666Y-52088D01*
X69527Y-51949D01*
X69549Y-51949D01*
X69641Y-51911D01*
X69712Y-51841D01*
X69750Y-51749D01*
X69750Y-51050D01*
X69712Y-50958D01*
X69641Y-50888D01*
X69549Y-50850D01*
X69450Y-50849D01*
X69312Y-50850D01*
X69250Y-50912D01*
X69250Y-51350D01*
X69687Y-51350D01*
X69750Y-51287D01*
X69750Y-51050D01*
X69750Y-51749D01*
X69750Y-51512D01*
X69687Y-51450D01*
X69250Y-51450D01*
X69250Y-51457D01*
X69150Y-51457D01*
X69150Y-51450D01*
X69150Y-51350D01*
X69150Y-50912D01*
X69087Y-50850D01*
X68949Y-50849D01*
X68850Y-50850D01*
X68758Y-50888D01*
X68687Y-50958D01*
X68649Y-51050D01*
X68650Y-51287D01*
X68712Y-51350D01*
X69150Y-51350D01*
X69150Y-51450D01*
X68712Y-51450D01*
X68650Y-51512D01*
X68649Y-51749D01*
X68687Y-51841D01*
X68758Y-51911D01*
X68850Y-51949D01*
X68872Y-51949D01*
X68734Y-52088D01*
X68650Y-52290D01*
X68649Y-52508D01*
X68733Y-52711D01*
X68888Y-52865D01*
X69090Y-52949D01*
X69308Y-52950D01*
X69511Y-52866D01*
X69665Y-52711D01*
X69749Y-52509D01*
X69750Y-52291D01*
X69750Y-53164D01*
X67875Y-53164D01*
X67875Y-46865D01*
X67810Y-46709D01*
X67691Y-46589D01*
X67575Y-46541D01*
X67575Y-24215D01*
X67510Y-24059D01*
X67391Y-23939D01*
X67234Y-23875D01*
X67065Y-23874D01*
X66909Y-23939D01*
X66789Y-24058D01*
X66725Y-24215D01*
X66724Y-24384D01*
X66789Y-24540D01*
X66908Y-24660D01*
X67065Y-24724D01*
X67234Y-24725D01*
X67390Y-24660D01*
X67510Y-24541D01*
X67574Y-24384D01*
X67575Y-24215D01*
X67575Y-46541D01*
X67534Y-46525D01*
X67365Y-46524D01*
X67209Y-46589D01*
X67175Y-46623D01*
X67175Y-26415D01*
X67110Y-26259D01*
X66991Y-26139D01*
X66834Y-26075D01*
X66665Y-26074D01*
X66509Y-26139D01*
X66389Y-26258D01*
X66325Y-26415D01*
X66324Y-26584D01*
X66389Y-26740D01*
X66508Y-26860D01*
X66665Y-26924D01*
X66834Y-26925D01*
X66990Y-26860D01*
X67110Y-26741D01*
X67174Y-26584D01*
X67175Y-26415D01*
X67175Y-46623D01*
X67150Y-46648D01*
X67091Y-46589D01*
X66934Y-46525D01*
X66775Y-46524D01*
X66775Y-32465D01*
X66710Y-32309D01*
X66591Y-32189D01*
X66434Y-32125D01*
X66375Y-32125D01*
X66375Y-31465D01*
X66310Y-31309D01*
X66191Y-31189D01*
X66034Y-31125D01*
X65865Y-31124D01*
X65709Y-31189D01*
X65589Y-31308D01*
X65525Y-31465D01*
X65525Y-31483D01*
X65384Y-31425D01*
X65215Y-31424D01*
X65059Y-31489D01*
X64939Y-31608D01*
X64908Y-31684D01*
X64884Y-31675D01*
X64875Y-31675D01*
X64875Y-29415D01*
X64810Y-29259D01*
X64691Y-29139D01*
X64534Y-29075D01*
X64365Y-29074D01*
X64209Y-29139D01*
X64175Y-29173D01*
X64175Y-25165D01*
X64110Y-25009D01*
X64025Y-24923D01*
X64025Y-20865D01*
X63960Y-20709D01*
X63841Y-20589D01*
X63684Y-20525D01*
X63515Y-20524D01*
X63359Y-20589D01*
X63239Y-20708D01*
X63175Y-20865D01*
X63174Y-21034D01*
X63239Y-21190D01*
X63358Y-21310D01*
X63515Y-21374D01*
X63684Y-21375D01*
X63840Y-21310D01*
X63960Y-21191D01*
X64024Y-21034D01*
X64025Y-20865D01*
X64025Y-24923D01*
X63991Y-24889D01*
X63834Y-24825D01*
X63665Y-24824D01*
X63509Y-24889D01*
X63389Y-25008D01*
X63325Y-25165D01*
X63325Y-25015D01*
X63260Y-24859D01*
X63141Y-24739D01*
X62984Y-24675D01*
X62815Y-24674D01*
X62659Y-24739D01*
X62539Y-24858D01*
X62475Y-25015D01*
X62474Y-25184D01*
X62539Y-25340D01*
X62658Y-25460D01*
X62815Y-25524D01*
X62984Y-25525D01*
X63140Y-25460D01*
X63260Y-25341D01*
X63324Y-25184D01*
X63325Y-25015D01*
X63325Y-25165D01*
X63324Y-25334D01*
X63389Y-25490D01*
X63508Y-25610D01*
X63665Y-25674D01*
X63834Y-25675D01*
X63990Y-25610D01*
X64110Y-25491D01*
X64174Y-25334D01*
X64175Y-25165D01*
X64175Y-29173D01*
X64089Y-29258D01*
X64025Y-29415D01*
X64024Y-29562D01*
X63934Y-29525D01*
X63765Y-29524D01*
X63609Y-29589D01*
X63489Y-29708D01*
X63425Y-29865D01*
X63424Y-30034D01*
X63489Y-30190D01*
X63608Y-30310D01*
X63765Y-30374D01*
X63934Y-30375D01*
X64090Y-30310D01*
X64210Y-30191D01*
X64274Y-30034D01*
X64275Y-29887D01*
X64365Y-29924D01*
X64534Y-29925D01*
X64690Y-29860D01*
X64810Y-29741D01*
X64874Y-29584D01*
X64875Y-29415D01*
X64875Y-31675D01*
X64715Y-31674D01*
X64559Y-31739D01*
X64439Y-31858D01*
X64375Y-32015D01*
X64374Y-32184D01*
X64439Y-32340D01*
X64558Y-32460D01*
X64715Y-32524D01*
X64884Y-32525D01*
X65040Y-32460D01*
X65160Y-32341D01*
X65191Y-32265D01*
X65215Y-32274D01*
X65384Y-32275D01*
X65540Y-32210D01*
X65660Y-32091D01*
X65724Y-31934D01*
X65724Y-31916D01*
X65865Y-31974D01*
X66034Y-31975D01*
X66190Y-31910D01*
X66310Y-31791D01*
X66374Y-31634D01*
X66375Y-31465D01*
X66375Y-32125D01*
X66265Y-32124D01*
X66109Y-32189D01*
X65989Y-32308D01*
X65925Y-32465D01*
X65924Y-32634D01*
X65989Y-32790D01*
X66108Y-32910D01*
X66265Y-32974D01*
X66434Y-32975D01*
X66590Y-32910D01*
X66710Y-32791D01*
X66774Y-32634D01*
X66775Y-32465D01*
X66775Y-46524D01*
X66765Y-46524D01*
X66609Y-46589D01*
X66489Y-46708D01*
X66481Y-46730D01*
X66391Y-46639D01*
X66275Y-46591D01*
X66275Y-41015D01*
X66210Y-40859D01*
X66091Y-40739D01*
X65934Y-40675D01*
X65765Y-40674D01*
X65609Y-40739D01*
X65489Y-40858D01*
X65425Y-41015D01*
X65424Y-41184D01*
X65489Y-41340D01*
X65608Y-41460D01*
X65765Y-41524D01*
X65934Y-41525D01*
X66090Y-41460D01*
X66210Y-41341D01*
X66274Y-41184D01*
X66275Y-41015D01*
X66275Y-46591D01*
X66234Y-46575D01*
X66065Y-46574D01*
X65975Y-46612D01*
X65975Y-42565D01*
X65910Y-42409D01*
X65791Y-42289D01*
X65634Y-42225D01*
X65465Y-42224D01*
X65309Y-42289D01*
X65189Y-42408D01*
X65125Y-42565D01*
X65124Y-42734D01*
X65189Y-42890D01*
X65308Y-43010D01*
X65465Y-43074D01*
X65634Y-43075D01*
X65790Y-43010D01*
X65910Y-42891D01*
X65974Y-42734D01*
X65975Y-42565D01*
X65975Y-46612D01*
X65909Y-46639D01*
X65789Y-46758D01*
X65725Y-46915D01*
X65724Y-47084D01*
X65789Y-47240D01*
X65908Y-47360D01*
X66065Y-47424D01*
X66234Y-47425D01*
X66390Y-47360D01*
X66510Y-47241D01*
X66518Y-47219D01*
X66608Y-47310D01*
X66765Y-47374D01*
X66934Y-47375D01*
X67090Y-47310D01*
X67149Y-47251D01*
X67208Y-47310D01*
X67365Y-47374D01*
X67534Y-47375D01*
X67690Y-47310D01*
X67810Y-47191D01*
X67874Y-47034D01*
X67875Y-46865D01*
X67875Y-53164D01*
X66675Y-53164D01*
X66675Y-49765D01*
X66610Y-49609D01*
X66491Y-49489D01*
X66334Y-49425D01*
X66165Y-49424D01*
X66009Y-49489D01*
X65889Y-49608D01*
X65825Y-49765D01*
X65824Y-49934D01*
X65889Y-50090D01*
X66008Y-50210D01*
X66165Y-50274D01*
X66334Y-50275D01*
X66490Y-50210D01*
X66610Y-50091D01*
X66674Y-49934D01*
X66675Y-49765D01*
X66675Y-53164D01*
X64725Y-53164D01*
X64725Y-44765D01*
X64660Y-44609D01*
X64541Y-44489D01*
X64384Y-44425D01*
X64225Y-44424D01*
X64225Y-31015D01*
X64160Y-30859D01*
X64041Y-30739D01*
X63884Y-30675D01*
X63715Y-30674D01*
X63559Y-30739D01*
X63439Y-30858D01*
X63375Y-31015D01*
X63375Y-30915D01*
X63310Y-30759D01*
X63226Y-30675D01*
X63260Y-30641D01*
X63324Y-30484D01*
X63325Y-30315D01*
X63260Y-30159D01*
X63141Y-30039D01*
X62984Y-29975D01*
X62825Y-29974D01*
X62825Y-26415D01*
X62760Y-26259D01*
X62641Y-26139D01*
X62484Y-26075D01*
X62315Y-26074D01*
X62159Y-26139D01*
X62039Y-26258D01*
X61975Y-26415D01*
X61974Y-26584D01*
X62039Y-26740D01*
X62158Y-26860D01*
X62315Y-26924D01*
X62484Y-26925D01*
X62640Y-26860D01*
X62760Y-26741D01*
X62824Y-26584D01*
X62825Y-26415D01*
X62825Y-29974D01*
X62815Y-29974D01*
X62659Y-30039D01*
X62539Y-30158D01*
X62475Y-30315D01*
X62474Y-30484D01*
X62539Y-30640D01*
X62623Y-30724D01*
X62589Y-30758D01*
X62525Y-30915D01*
X62524Y-31084D01*
X62589Y-31240D01*
X62708Y-31360D01*
X62865Y-31424D01*
X63034Y-31425D01*
X63190Y-31360D01*
X63310Y-31241D01*
X63374Y-31084D01*
X63375Y-30915D01*
X63375Y-31015D01*
X63374Y-31184D01*
X63439Y-31340D01*
X63558Y-31460D01*
X63715Y-31524D01*
X63884Y-31525D01*
X64040Y-31460D01*
X64160Y-31341D01*
X64224Y-31184D01*
X64225Y-31015D01*
X64225Y-44424D01*
X64215Y-44424D01*
X64059Y-44489D01*
X64025Y-44523D01*
X64025Y-41565D01*
X63960Y-41409D01*
X63841Y-41289D01*
X63684Y-41225D01*
X63515Y-41224D01*
X63359Y-41289D01*
X63239Y-41408D01*
X63175Y-41565D01*
X63174Y-41734D01*
X63239Y-41890D01*
X63358Y-42010D01*
X63515Y-42074D01*
X63684Y-42075D01*
X63840Y-42010D01*
X63960Y-41891D01*
X64024Y-41734D01*
X64025Y-41565D01*
X64025Y-44523D01*
X63939Y-44608D01*
X63875Y-44765D01*
X63874Y-44934D01*
X63939Y-45090D01*
X64058Y-45210D01*
X64215Y-45274D01*
X64384Y-45275D01*
X64540Y-45210D01*
X64660Y-45091D01*
X64724Y-44934D01*
X64725Y-44765D01*
X64725Y-53164D01*
X63325Y-53164D01*
X63325Y-44815D01*
X63260Y-44659D01*
X63141Y-44539D01*
X63050Y-44502D01*
X63050Y-33450D01*
X63050Y-32850D01*
X63012Y-32758D01*
X62941Y-32688D01*
X62849Y-32650D01*
X62750Y-32649D01*
X62150Y-32649D01*
X62058Y-32687D01*
X61988Y-32758D01*
X61950Y-32850D01*
X61950Y-32872D01*
X61811Y-32734D01*
X61609Y-32650D01*
X61391Y-32649D01*
X61188Y-32733D01*
X61034Y-32888D01*
X61000Y-32969D01*
X60966Y-32888D01*
X60811Y-32734D01*
X60609Y-32650D01*
X60391Y-32649D01*
X60188Y-32733D01*
X60034Y-32888D01*
X60000Y-32969D01*
X59966Y-32888D01*
X59811Y-32734D01*
X59609Y-32650D01*
X59391Y-32649D01*
X59188Y-32733D01*
X59034Y-32888D01*
X59000Y-32969D01*
X58966Y-32888D01*
X58811Y-32734D01*
X58609Y-32650D01*
X58391Y-32649D01*
X58188Y-32733D01*
X58175Y-32747D01*
X58175Y-28065D01*
X58110Y-27909D01*
X57991Y-27789D01*
X57834Y-27725D01*
X57665Y-27724D01*
X57509Y-27789D01*
X57389Y-27908D01*
X57325Y-28065D01*
X57324Y-28234D01*
X57389Y-28390D01*
X57508Y-28510D01*
X57665Y-28574D01*
X57834Y-28575D01*
X57990Y-28510D01*
X58110Y-28391D01*
X58174Y-28234D01*
X58175Y-28065D01*
X58175Y-32747D01*
X58034Y-32888D01*
X58000Y-32969D01*
X57966Y-32888D01*
X57811Y-32734D01*
X57609Y-32650D01*
X57425Y-32649D01*
X57425Y-30665D01*
X57360Y-30509D01*
X57241Y-30389D01*
X57084Y-30325D01*
X56915Y-30324D01*
X56759Y-30389D01*
X56687Y-30461D01*
X56687Y-21463D01*
X56678Y-21191D01*
X56591Y-20982D01*
X56482Y-20938D01*
X56411Y-21009D01*
X56411Y-20867D01*
X56367Y-20758D01*
X56113Y-20662D01*
X55841Y-20671D01*
X55632Y-20758D01*
X55588Y-20867D01*
X56000Y-21279D01*
X56411Y-20867D01*
X56411Y-21009D01*
X56070Y-21350D01*
X56482Y-21761D01*
X56591Y-21717D01*
X56687Y-21463D01*
X56687Y-30461D01*
X56639Y-30508D01*
X56575Y-30665D01*
X56574Y-30834D01*
X56639Y-30990D01*
X56758Y-31110D01*
X56915Y-31174D01*
X57084Y-31175D01*
X57240Y-31110D01*
X57360Y-30991D01*
X57424Y-30834D01*
X57425Y-30665D01*
X57425Y-32649D01*
X57391Y-32649D01*
X57188Y-32733D01*
X57034Y-32888D01*
X57002Y-32963D01*
X56981Y-32912D01*
X56885Y-32884D01*
X56815Y-32955D01*
X56815Y-32814D01*
X56787Y-32718D01*
X56581Y-32645D01*
X56411Y-32653D01*
X56411Y-21832D01*
X56000Y-21420D01*
X55929Y-21491D01*
X55929Y-21350D01*
X55517Y-20938D01*
X55408Y-20982D01*
X55312Y-21236D01*
X55321Y-21508D01*
X55408Y-21717D01*
X55517Y-21761D01*
X55929Y-21350D01*
X55929Y-21491D01*
X55588Y-21832D01*
X55632Y-21941D01*
X55886Y-22037D01*
X56158Y-22028D01*
X56367Y-21941D01*
X56411Y-21832D01*
X56411Y-32653D01*
X56363Y-32656D01*
X56212Y-32718D01*
X56184Y-32814D01*
X56500Y-33129D01*
X56815Y-32814D01*
X56815Y-32955D01*
X56570Y-33200D01*
X56885Y-33515D01*
X56981Y-33487D01*
X57000Y-33432D01*
X57033Y-33511D01*
X57188Y-33665D01*
X57390Y-33749D01*
X57608Y-33750D01*
X57811Y-33666D01*
X57965Y-33511D01*
X57999Y-33430D01*
X58033Y-33511D01*
X58188Y-33665D01*
X58390Y-33749D01*
X58608Y-33750D01*
X58811Y-33666D01*
X58965Y-33511D01*
X58999Y-33430D01*
X59033Y-33511D01*
X59188Y-33665D01*
X59390Y-33749D01*
X59608Y-33750D01*
X59811Y-33666D01*
X59965Y-33511D01*
X59999Y-33430D01*
X60033Y-33511D01*
X60188Y-33665D01*
X60390Y-33749D01*
X60608Y-33750D01*
X60811Y-33666D01*
X60965Y-33511D01*
X60999Y-33430D01*
X61033Y-33511D01*
X61188Y-33665D01*
X61390Y-33749D01*
X61608Y-33750D01*
X61811Y-33666D01*
X61949Y-33527D01*
X61949Y-33549D01*
X61987Y-33641D01*
X62058Y-33711D01*
X62150Y-33749D01*
X62249Y-33750D01*
X62849Y-33750D01*
X62941Y-33712D01*
X63011Y-33641D01*
X63049Y-33549D01*
X63050Y-33450D01*
X63050Y-44502D01*
X62984Y-44475D01*
X62815Y-44474D01*
X62659Y-44539D01*
X62539Y-44658D01*
X62475Y-44815D01*
X62474Y-44984D01*
X62539Y-45140D01*
X62658Y-45260D01*
X62815Y-45324D01*
X62984Y-45325D01*
X63140Y-45260D01*
X63260Y-45141D01*
X63324Y-44984D01*
X63325Y-44815D01*
X63325Y-53164D01*
X63207Y-53164D01*
X63207Y-46419D01*
X63145Y-46269D01*
X63031Y-46154D01*
X62881Y-46092D01*
X62719Y-46092D01*
X62569Y-46154D01*
X62454Y-46268D01*
X62392Y-46418D01*
X62392Y-46580D01*
X62454Y-46730D01*
X62568Y-46845D01*
X62718Y-46907D01*
X62880Y-46907D01*
X63030Y-46845D01*
X63145Y-46731D01*
X63207Y-46581D01*
X63207Y-46419D01*
X63207Y-53164D01*
X62193Y-53164D01*
X62193Y-43500D01*
X62156Y-43310D01*
X62125Y-43264D01*
X62125Y-41965D01*
X62060Y-41809D01*
X61941Y-41689D01*
X61874Y-41662D01*
X61875Y-41565D01*
X61810Y-41409D01*
X61691Y-41289D01*
X61534Y-41225D01*
X61365Y-41224D01*
X61209Y-41289D01*
X61089Y-41408D01*
X61025Y-41565D01*
X61024Y-41734D01*
X61089Y-41890D01*
X61208Y-42010D01*
X61275Y-42037D01*
X61274Y-42134D01*
X61339Y-42290D01*
X61458Y-42410D01*
X61615Y-42474D01*
X61784Y-42475D01*
X61940Y-42410D01*
X62060Y-42291D01*
X62124Y-42134D01*
X62125Y-41965D01*
X62125Y-43264D01*
X62049Y-43150D01*
X61999Y-43100D01*
X61839Y-42993D01*
X61650Y-42956D01*
X60675Y-42956D01*
X60675Y-41515D01*
X60610Y-41359D01*
X60491Y-41239D01*
X60334Y-41175D01*
X60165Y-41174D01*
X60009Y-41239D01*
X59889Y-41358D01*
X59825Y-41515D01*
X59824Y-41684D01*
X59836Y-41712D01*
X59739Y-41808D01*
X59675Y-41965D01*
X59674Y-42134D01*
X59739Y-42290D01*
X59858Y-42410D01*
X60015Y-42474D01*
X60184Y-42475D01*
X60340Y-42410D01*
X60460Y-42291D01*
X60524Y-42134D01*
X60525Y-41965D01*
X60513Y-41937D01*
X60610Y-41841D01*
X60674Y-41684D01*
X60675Y-41515D01*
X60675Y-42956D01*
X59800Y-42956D01*
X59610Y-42993D01*
X59450Y-43100D01*
X59343Y-43260D01*
X59306Y-43450D01*
X59306Y-43797D01*
X59300Y-43800D01*
X59193Y-43960D01*
X59156Y-44150D01*
X59193Y-44339D01*
X59300Y-44499D01*
X59460Y-44606D01*
X59650Y-44644D01*
X59797Y-44644D01*
X59837Y-44741D01*
X59957Y-44861D01*
X60114Y-44926D01*
X60284Y-44927D01*
X60441Y-44862D01*
X60449Y-44853D01*
X60457Y-44861D01*
X60614Y-44926D01*
X60784Y-44927D01*
X60941Y-44862D01*
X60949Y-44853D01*
X60957Y-44861D01*
X61114Y-44926D01*
X61284Y-44927D01*
X61441Y-44862D01*
X61449Y-44853D01*
X61457Y-44861D01*
X61614Y-44926D01*
X61784Y-44927D01*
X61941Y-44862D01*
X62061Y-44742D01*
X62126Y-44585D01*
X62127Y-44415D01*
X62062Y-44258D01*
X61953Y-44149D01*
X62061Y-44042D01*
X62126Y-43885D01*
X62127Y-43732D01*
X62156Y-43689D01*
X62193Y-43500D01*
X62193Y-53164D01*
X61875Y-53164D01*
X61875Y-47965D01*
X61810Y-47809D01*
X61691Y-47689D01*
X61534Y-47625D01*
X61425Y-47624D01*
X61425Y-46015D01*
X61360Y-45859D01*
X61241Y-45739D01*
X61084Y-45675D01*
X60915Y-45674D01*
X60759Y-45739D01*
X60639Y-45858D01*
X60575Y-46015D01*
X60574Y-46184D01*
X60639Y-46340D01*
X60715Y-46416D01*
X60659Y-46439D01*
X60539Y-46558D01*
X60475Y-46715D01*
X60474Y-46884D01*
X60512Y-46976D01*
X60359Y-47039D01*
X60239Y-47158D01*
X60175Y-47315D01*
X60174Y-47484D01*
X60239Y-47640D01*
X60358Y-47760D01*
X60515Y-47824D01*
X60684Y-47825D01*
X60840Y-47760D01*
X60960Y-47641D01*
X61024Y-47484D01*
X61025Y-47315D01*
X60987Y-47223D01*
X61140Y-47160D01*
X61260Y-47041D01*
X61324Y-46884D01*
X61325Y-46715D01*
X61260Y-46559D01*
X61184Y-46483D01*
X61240Y-46460D01*
X61360Y-46341D01*
X61424Y-46184D01*
X61425Y-46015D01*
X61425Y-47624D01*
X61365Y-47624D01*
X61209Y-47689D01*
X61089Y-47808D01*
X61025Y-47965D01*
X61024Y-48134D01*
X61089Y-48290D01*
X61124Y-48325D01*
X60965Y-48324D01*
X60809Y-48389D01*
X60689Y-48508D01*
X60625Y-48665D01*
X60624Y-48834D01*
X60689Y-48990D01*
X60808Y-49110D01*
X60965Y-49174D01*
X61134Y-49175D01*
X61290Y-49110D01*
X61410Y-48991D01*
X61474Y-48834D01*
X61475Y-48665D01*
X61410Y-48509D01*
X61375Y-48474D01*
X61534Y-48475D01*
X61690Y-48410D01*
X61810Y-48291D01*
X61874Y-48134D01*
X61875Y-47965D01*
X61875Y-53164D01*
X61075Y-53164D01*
X61075Y-49665D01*
X61010Y-49509D01*
X60891Y-49389D01*
X60734Y-49325D01*
X60565Y-49324D01*
X60409Y-49389D01*
X60289Y-49508D01*
X60225Y-49665D01*
X60224Y-49834D01*
X60289Y-49990D01*
X60408Y-50110D01*
X60565Y-50174D01*
X60734Y-50175D01*
X60890Y-50110D01*
X61010Y-49991D01*
X61074Y-49834D01*
X61075Y-49665D01*
X61075Y-53164D01*
X58825Y-53164D01*
X58825Y-41515D01*
X58760Y-41359D01*
X58641Y-41239D01*
X58484Y-41175D01*
X58315Y-41174D01*
X58159Y-41239D01*
X58039Y-41358D01*
X57975Y-41515D01*
X57974Y-41684D01*
X58039Y-41840D01*
X58158Y-41960D01*
X58315Y-42024D01*
X58484Y-42025D01*
X58640Y-41960D01*
X58760Y-41841D01*
X58824Y-41684D01*
X58825Y-41515D01*
X58825Y-53164D01*
X58760Y-53164D01*
X58702Y-53175D01*
X58700Y-53175D01*
X58575Y-53199D01*
X58470Y-53270D01*
X58399Y-53375D01*
X58375Y-53500D01*
X58375Y-59025D01*
X57725Y-59025D01*
X57725Y-47065D01*
X57660Y-46909D01*
X57541Y-46789D01*
X57384Y-46725D01*
X57215Y-46724D01*
X57059Y-46789D01*
X56939Y-46908D01*
X56875Y-47065D01*
X56874Y-47234D01*
X56939Y-47390D01*
X57058Y-47510D01*
X57215Y-47574D01*
X57384Y-47575D01*
X57540Y-47510D01*
X57660Y-47391D01*
X57724Y-47234D01*
X57725Y-47065D01*
X57725Y-59025D01*
X57550Y-59025D01*
X57550Y-58091D01*
X57550Y-55591D01*
X57466Y-55388D01*
X57311Y-55234D01*
X57230Y-55200D01*
X57311Y-55166D01*
X57465Y-55011D01*
X57549Y-54809D01*
X57550Y-54591D01*
X57466Y-54388D01*
X57311Y-54234D01*
X57230Y-54200D01*
X57311Y-54166D01*
X57465Y-54011D01*
X57549Y-53809D01*
X57550Y-53591D01*
X57466Y-53388D01*
X57327Y-53250D01*
X57349Y-53250D01*
X57441Y-53212D01*
X57511Y-53141D01*
X57549Y-53049D01*
X57550Y-52950D01*
X57550Y-52350D01*
X57512Y-52258D01*
X57441Y-52188D01*
X57349Y-52150D01*
X57250Y-52149D01*
X56815Y-52149D01*
X56815Y-33585D01*
X56500Y-33270D01*
X56429Y-33341D01*
X56429Y-33200D01*
X56114Y-32884D01*
X56025Y-32910D01*
X56025Y-31215D01*
X55960Y-31059D01*
X55841Y-30939D01*
X55687Y-30875D01*
X55687Y-23463D01*
X55678Y-23191D01*
X55591Y-22982D01*
X55482Y-22938D01*
X55411Y-23009D01*
X55411Y-22867D01*
X55367Y-22758D01*
X55113Y-22662D01*
X54841Y-22671D01*
X54687Y-22735D01*
X54687Y-21463D01*
X54678Y-21191D01*
X54591Y-20982D01*
X54482Y-20938D01*
X54411Y-21009D01*
X54411Y-20867D01*
X54367Y-20758D01*
X54113Y-20662D01*
X53841Y-20671D01*
X53632Y-20758D01*
X53588Y-20867D01*
X54000Y-21279D01*
X54411Y-20867D01*
X54411Y-21009D01*
X54070Y-21350D01*
X54482Y-21761D01*
X54591Y-21717D01*
X54687Y-21463D01*
X54687Y-22735D01*
X54632Y-22758D01*
X54588Y-22867D01*
X55000Y-23279D01*
X55411Y-22867D01*
X55411Y-23009D01*
X55070Y-23350D01*
X55482Y-23761D01*
X55591Y-23717D01*
X55687Y-23463D01*
X55687Y-30875D01*
X55684Y-30875D01*
X55625Y-30875D01*
X55625Y-29065D01*
X55560Y-28909D01*
X55441Y-28789D01*
X55411Y-28777D01*
X55411Y-23832D01*
X55000Y-23420D01*
X54929Y-23491D01*
X54929Y-23350D01*
X54517Y-22938D01*
X54411Y-22981D01*
X54411Y-21832D01*
X54000Y-21420D01*
X53929Y-21491D01*
X53929Y-21350D01*
X53517Y-20938D01*
X53408Y-20982D01*
X53312Y-21236D01*
X53321Y-21508D01*
X53408Y-21717D01*
X53517Y-21761D01*
X53929Y-21350D01*
X53929Y-21491D01*
X53588Y-21832D01*
X53632Y-21941D01*
X53886Y-22037D01*
X54158Y-22028D01*
X54367Y-21941D01*
X54411Y-21832D01*
X54411Y-22981D01*
X54408Y-22982D01*
X54312Y-23236D01*
X54321Y-23508D01*
X54408Y-23717D01*
X54517Y-23761D01*
X54929Y-23350D01*
X54929Y-23491D01*
X54588Y-23832D01*
X54632Y-23941D01*
X54886Y-24037D01*
X55158Y-24028D01*
X55367Y-23941D01*
X55411Y-23832D01*
X55411Y-28777D01*
X55284Y-28725D01*
X55115Y-28724D01*
X54959Y-28789D01*
X54839Y-28908D01*
X54775Y-29065D01*
X54774Y-29234D01*
X54839Y-29390D01*
X54958Y-29510D01*
X55115Y-29574D01*
X55284Y-29575D01*
X55440Y-29510D01*
X55560Y-29391D01*
X55624Y-29234D01*
X55625Y-29065D01*
X55625Y-30875D01*
X55515Y-30874D01*
X55359Y-30939D01*
X55239Y-31058D01*
X55175Y-31215D01*
X55174Y-31384D01*
X55239Y-31540D01*
X55358Y-31660D01*
X55515Y-31724D01*
X55684Y-31725D01*
X55840Y-31660D01*
X55960Y-31541D01*
X56024Y-31384D01*
X56025Y-31215D01*
X56025Y-32910D01*
X56018Y-32912D01*
X55945Y-33118D01*
X55956Y-33336D01*
X56018Y-33487D01*
X56114Y-33515D01*
X56429Y-33200D01*
X56429Y-33341D01*
X56184Y-33585D01*
X56212Y-33681D01*
X56418Y-33754D01*
X56636Y-33743D01*
X56787Y-33681D01*
X56815Y-33585D01*
X56815Y-52149D01*
X56650Y-52149D01*
X56558Y-52187D01*
X56488Y-52258D01*
X56450Y-52350D01*
X56449Y-52449D01*
X56449Y-53049D01*
X56487Y-53141D01*
X56558Y-53211D01*
X56650Y-53249D01*
X56672Y-53249D01*
X56534Y-53388D01*
X56450Y-53590D01*
X56449Y-53808D01*
X56533Y-54011D01*
X56688Y-54165D01*
X56769Y-54199D01*
X56688Y-54233D01*
X56534Y-54388D01*
X56450Y-54590D01*
X56449Y-54808D01*
X56533Y-55011D01*
X56688Y-55165D01*
X56769Y-55199D01*
X56688Y-55233D01*
X56534Y-55388D01*
X56450Y-55590D01*
X56449Y-55808D01*
X56533Y-56011D01*
X56688Y-56165D01*
X56890Y-56249D01*
X57108Y-56250D01*
X57311Y-56166D01*
X57465Y-56011D01*
X57549Y-55809D01*
X57550Y-55591D01*
X57550Y-58091D01*
X57466Y-57888D01*
X57327Y-57749D01*
X57349Y-57749D01*
X57441Y-57711D01*
X57512Y-57641D01*
X57550Y-57549D01*
X57550Y-56850D01*
X57512Y-56758D01*
X57441Y-56688D01*
X57349Y-56650D01*
X57250Y-56649D01*
X57112Y-56650D01*
X57050Y-56712D01*
X57050Y-57150D01*
X57487Y-57150D01*
X57550Y-57087D01*
X57550Y-56850D01*
X57550Y-57549D01*
X57550Y-57312D01*
X57487Y-57250D01*
X57050Y-57250D01*
X57050Y-57257D01*
X56950Y-57257D01*
X56950Y-57250D01*
X56950Y-57150D01*
X56950Y-56712D01*
X56887Y-56650D01*
X56749Y-56649D01*
X56650Y-56650D01*
X56558Y-56688D01*
X56487Y-56758D01*
X56449Y-56850D01*
X56450Y-57087D01*
X56512Y-57150D01*
X56950Y-57150D01*
X56950Y-57250D01*
X56512Y-57250D01*
X56450Y-57312D01*
X56449Y-57549D01*
X56487Y-57641D01*
X56558Y-57711D01*
X56650Y-57749D01*
X56672Y-57749D01*
X56534Y-57888D01*
X56450Y-58090D01*
X56449Y-58308D01*
X56533Y-58511D01*
X56688Y-58665D01*
X56890Y-58749D01*
X57108Y-58750D01*
X57311Y-58666D01*
X57465Y-58511D01*
X57549Y-58309D01*
X57550Y-58091D01*
X57550Y-59025D01*
X55775Y-59025D01*
X55775Y-45965D01*
X55710Y-45809D01*
X55591Y-45689D01*
X55434Y-45625D01*
X55265Y-45624D01*
X55109Y-45689D01*
X54989Y-45808D01*
X54925Y-45965D01*
X54924Y-46134D01*
X54989Y-46290D01*
X55108Y-46410D01*
X55265Y-46474D01*
X55434Y-46475D01*
X55590Y-46410D01*
X55710Y-46291D01*
X55774Y-46134D01*
X55775Y-45965D01*
X55775Y-59025D01*
X54875Y-59025D01*
X54875Y-37015D01*
X54810Y-36859D01*
X54691Y-36739D01*
X54534Y-36675D01*
X54365Y-36674D01*
X54209Y-36739D01*
X54089Y-36858D01*
X54025Y-37015D01*
X54024Y-37184D01*
X54089Y-37340D01*
X54208Y-37460D01*
X54365Y-37524D01*
X54534Y-37525D01*
X54690Y-37460D01*
X54810Y-37341D01*
X54874Y-37184D01*
X54875Y-37015D01*
X54875Y-59025D01*
X54575Y-59025D01*
X54575Y-50065D01*
X54510Y-49909D01*
X54391Y-49789D01*
X54234Y-49725D01*
X54065Y-49724D01*
X54025Y-49741D01*
X54025Y-40165D01*
X53960Y-40009D01*
X53841Y-39889D01*
X53725Y-39841D01*
X53725Y-29015D01*
X53660Y-28859D01*
X53541Y-28739D01*
X53384Y-28675D01*
X53215Y-28674D01*
X53059Y-28739D01*
X52939Y-28858D01*
X52875Y-29015D01*
X52874Y-29184D01*
X52939Y-29340D01*
X53058Y-29460D01*
X53215Y-29524D01*
X53384Y-29525D01*
X53540Y-29460D01*
X53660Y-29341D01*
X53724Y-29184D01*
X53725Y-29015D01*
X53725Y-39841D01*
X53684Y-39825D01*
X53515Y-39824D01*
X53359Y-39889D01*
X53239Y-40008D01*
X53175Y-40165D01*
X53174Y-40334D01*
X53239Y-40490D01*
X53358Y-40610D01*
X53515Y-40674D01*
X53684Y-40675D01*
X53840Y-40610D01*
X53960Y-40491D01*
X54024Y-40334D01*
X54025Y-40165D01*
X54025Y-49741D01*
X53909Y-49789D01*
X53789Y-49908D01*
X53725Y-50065D01*
X53724Y-50234D01*
X53789Y-50390D01*
X53908Y-50510D01*
X54065Y-50574D01*
X54234Y-50575D01*
X54390Y-50510D01*
X54510Y-50391D01*
X54574Y-50234D01*
X54575Y-50065D01*
X54575Y-59025D01*
X54075Y-59025D01*
X54075Y-51165D01*
X54010Y-51009D01*
X53891Y-50889D01*
X53734Y-50825D01*
X53565Y-50824D01*
X53425Y-50883D01*
X53425Y-50265D01*
X53360Y-50109D01*
X53241Y-49989D01*
X53175Y-49962D01*
X53175Y-41465D01*
X53110Y-41309D01*
X52991Y-41189D01*
X52834Y-41125D01*
X52665Y-41124D01*
X52509Y-41189D01*
X52389Y-41308D01*
X52325Y-41465D01*
X52324Y-41634D01*
X52389Y-41790D01*
X52508Y-41910D01*
X52665Y-41974D01*
X52834Y-41975D01*
X52990Y-41910D01*
X53110Y-41791D01*
X53174Y-41634D01*
X53175Y-41465D01*
X53175Y-49962D01*
X53084Y-49925D01*
X52915Y-49924D01*
X52759Y-49989D01*
X52639Y-50108D01*
X52575Y-50265D01*
X52574Y-50434D01*
X52639Y-50590D01*
X52758Y-50710D01*
X52915Y-50774D01*
X53084Y-50775D01*
X53240Y-50710D01*
X53360Y-50591D01*
X53424Y-50434D01*
X53425Y-50265D01*
X53425Y-50883D01*
X53409Y-50889D01*
X53289Y-51008D01*
X53225Y-51165D01*
X53224Y-51334D01*
X53289Y-51490D01*
X53408Y-51610D01*
X53565Y-51674D01*
X53734Y-51675D01*
X53890Y-51610D01*
X54010Y-51491D01*
X54074Y-51334D01*
X54075Y-51165D01*
X54075Y-59025D01*
X52557Y-59025D01*
X52557Y-46519D01*
X52495Y-46369D01*
X52381Y-46254D01*
X52231Y-46192D01*
X52069Y-46192D01*
X51919Y-46254D01*
X51855Y-46318D01*
X51850Y-46305D01*
X51850Y-33450D01*
X51850Y-32850D01*
X51812Y-32758D01*
X51741Y-32688D01*
X51649Y-32650D01*
X51550Y-32649D01*
X50950Y-32649D01*
X50858Y-32687D01*
X50788Y-32758D01*
X50750Y-32850D01*
X50750Y-32872D01*
X50611Y-32734D01*
X50409Y-32650D01*
X50191Y-32649D01*
X49988Y-32733D01*
X49834Y-32888D01*
X49800Y-32969D01*
X49766Y-32888D01*
X49611Y-32734D01*
X49409Y-32650D01*
X49191Y-32649D01*
X48988Y-32733D01*
X48834Y-32888D01*
X48800Y-32969D01*
X48766Y-32888D01*
X48611Y-32734D01*
X48409Y-32650D01*
X48191Y-32649D01*
X47988Y-32733D01*
X47834Y-32888D01*
X47800Y-32969D01*
X47766Y-32888D01*
X47611Y-32734D01*
X47409Y-32650D01*
X47191Y-32649D01*
X46988Y-32733D01*
X46834Y-32888D01*
X46800Y-32969D01*
X46766Y-32888D01*
X46611Y-32734D01*
X46409Y-32650D01*
X46191Y-32649D01*
X45988Y-32733D01*
X45834Y-32888D01*
X45802Y-32963D01*
X45781Y-32912D01*
X45685Y-32884D01*
X45615Y-32955D01*
X45615Y-32814D01*
X45587Y-32718D01*
X45381Y-32645D01*
X45163Y-32656D01*
X45133Y-32668D01*
X45133Y-21264D01*
X45029Y-21013D01*
X44837Y-20821D01*
X44586Y-20717D01*
X44314Y-20716D01*
X44063Y-20820D01*
X43871Y-21012D01*
X43767Y-21263D01*
X43766Y-21535D01*
X43870Y-21786D01*
X44062Y-21978D01*
X44313Y-22082D01*
X44585Y-22083D01*
X44836Y-21979D01*
X45028Y-21787D01*
X45132Y-21536D01*
X45133Y-21264D01*
X45133Y-32668D01*
X45012Y-32718D01*
X44984Y-32814D01*
X45300Y-33129D01*
X45615Y-32814D01*
X45615Y-32955D01*
X45370Y-33200D01*
X45685Y-33515D01*
X45781Y-33487D01*
X45800Y-33432D01*
X45833Y-33511D01*
X45988Y-33665D01*
X46190Y-33749D01*
X46408Y-33750D01*
X46611Y-33666D01*
X46765Y-33511D01*
X46799Y-33430D01*
X46833Y-33511D01*
X46988Y-33665D01*
X47190Y-33749D01*
X47408Y-33750D01*
X47611Y-33666D01*
X47765Y-33511D01*
X47799Y-33430D01*
X47833Y-33511D01*
X47988Y-33665D01*
X48190Y-33749D01*
X48408Y-33750D01*
X48611Y-33666D01*
X48765Y-33511D01*
X48799Y-33430D01*
X48833Y-33511D01*
X48988Y-33665D01*
X49190Y-33749D01*
X49408Y-33750D01*
X49611Y-33666D01*
X49765Y-33511D01*
X49799Y-33430D01*
X49833Y-33511D01*
X49988Y-33665D01*
X50190Y-33749D01*
X50408Y-33750D01*
X50611Y-33666D01*
X50749Y-33527D01*
X50749Y-33549D01*
X50787Y-33641D01*
X50858Y-33711D01*
X50950Y-33749D01*
X51049Y-33750D01*
X51649Y-33750D01*
X51741Y-33712D01*
X51811Y-33641D01*
X51849Y-33549D01*
X51850Y-33450D01*
X51850Y-46305D01*
X51810Y-46209D01*
X51691Y-46089D01*
X51534Y-46025D01*
X51365Y-46024D01*
X51209Y-46089D01*
X51089Y-46208D01*
X51025Y-46365D01*
X51024Y-46534D01*
X51089Y-46690D01*
X51208Y-46810D01*
X51365Y-46874D01*
X51534Y-46875D01*
X51690Y-46810D01*
X51765Y-46735D01*
X51804Y-46830D01*
X51918Y-46945D01*
X52068Y-47007D01*
X52230Y-47007D01*
X52380Y-46945D01*
X52495Y-46831D01*
X52557Y-46681D01*
X52557Y-46519D01*
X52557Y-59025D01*
X51475Y-59025D01*
X51475Y-47315D01*
X51410Y-47159D01*
X51291Y-47039D01*
X51134Y-46975D01*
X50977Y-46974D01*
X50977Y-44465D01*
X50912Y-44308D01*
X50803Y-44199D01*
X50911Y-44092D01*
X50976Y-43935D01*
X50977Y-43765D01*
X50925Y-43639D01*
X50925Y-41965D01*
X50866Y-41824D01*
X50924Y-41684D01*
X50925Y-41515D01*
X50860Y-41359D01*
X50741Y-41239D01*
X50584Y-41175D01*
X50415Y-41174D01*
X50259Y-41239D01*
X50139Y-41358D01*
X50075Y-41515D01*
X50074Y-41684D01*
X50133Y-41825D01*
X50075Y-41965D01*
X50074Y-42134D01*
X50139Y-42290D01*
X50258Y-42410D01*
X50415Y-42474D01*
X50584Y-42475D01*
X50740Y-42410D01*
X50860Y-42291D01*
X50924Y-42134D01*
X50925Y-41965D01*
X50925Y-43639D01*
X50912Y-43608D01*
X50792Y-43488D01*
X50635Y-43423D01*
X50465Y-43422D01*
X50308Y-43487D01*
X50300Y-43496D01*
X50292Y-43488D01*
X50135Y-43423D01*
X49965Y-43422D01*
X49808Y-43487D01*
X49800Y-43496D01*
X49792Y-43488D01*
X49635Y-43423D01*
X49475Y-43422D01*
X49475Y-41615D01*
X49410Y-41459D01*
X49291Y-41339D01*
X49134Y-41275D01*
X48965Y-41274D01*
X48809Y-41339D01*
X48689Y-41458D01*
X48625Y-41615D01*
X48624Y-41784D01*
X48689Y-41940D01*
X48699Y-41949D01*
X48639Y-42008D01*
X48575Y-42165D01*
X48574Y-42334D01*
X48639Y-42490D01*
X48758Y-42610D01*
X48915Y-42674D01*
X49084Y-42675D01*
X49240Y-42610D01*
X49360Y-42491D01*
X49424Y-42334D01*
X49425Y-42165D01*
X49360Y-42009D01*
X49350Y-42000D01*
X49410Y-41941D01*
X49474Y-41784D01*
X49475Y-41615D01*
X49475Y-43422D01*
X49465Y-43422D01*
X49308Y-43487D01*
X49300Y-43496D01*
X49292Y-43488D01*
X49135Y-43423D01*
X48965Y-43422D01*
X48808Y-43487D01*
X48688Y-43607D01*
X48623Y-43764D01*
X48622Y-43934D01*
X48687Y-44091D01*
X48796Y-44200D01*
X48688Y-44307D01*
X48623Y-44464D01*
X48622Y-44634D01*
X48687Y-44791D01*
X48807Y-44911D01*
X48964Y-44976D01*
X49134Y-44977D01*
X49291Y-44912D01*
X49299Y-44903D01*
X49307Y-44911D01*
X49464Y-44976D01*
X49634Y-44977D01*
X49791Y-44912D01*
X49799Y-44903D01*
X49807Y-44911D01*
X49964Y-44976D01*
X50134Y-44977D01*
X50291Y-44912D01*
X50299Y-44903D01*
X50307Y-44911D01*
X50464Y-44976D01*
X50634Y-44977D01*
X50791Y-44912D01*
X50911Y-44792D01*
X50976Y-44635D01*
X50977Y-44465D01*
X50977Y-46974D01*
X50965Y-46974D01*
X50809Y-47039D01*
X50689Y-47158D01*
X50625Y-47315D01*
X50624Y-47484D01*
X50670Y-47593D01*
X50559Y-47639D01*
X50439Y-47758D01*
X50375Y-47915D01*
X50374Y-48084D01*
X50439Y-48240D01*
X50558Y-48360D01*
X50715Y-48424D01*
X50884Y-48425D01*
X51040Y-48360D01*
X51160Y-48241D01*
X51224Y-48084D01*
X51225Y-47915D01*
X51179Y-47806D01*
X51290Y-47760D01*
X51410Y-47641D01*
X51474Y-47484D01*
X51475Y-47315D01*
X51475Y-59025D01*
X50225Y-59025D01*
X50225Y-47165D01*
X50160Y-47009D01*
X50041Y-46889D01*
X49884Y-46825D01*
X49884Y-46825D01*
X50040Y-46760D01*
X50160Y-46641D01*
X50224Y-46484D01*
X50225Y-46315D01*
X50160Y-46159D01*
X50041Y-46039D01*
X49884Y-45975D01*
X49715Y-45974D01*
X49559Y-46039D01*
X49439Y-46158D01*
X49375Y-46315D01*
X49374Y-46484D01*
X49439Y-46640D01*
X49558Y-46760D01*
X49715Y-46824D01*
X49715Y-46824D01*
X49559Y-46889D01*
X49439Y-47008D01*
X49375Y-47165D01*
X49374Y-47334D01*
X49439Y-47490D01*
X49523Y-47574D01*
X49465Y-47574D01*
X49309Y-47639D01*
X49189Y-47758D01*
X49125Y-47915D01*
X49124Y-48084D01*
X49189Y-48240D01*
X49308Y-48360D01*
X49465Y-48424D01*
X49634Y-48425D01*
X49790Y-48360D01*
X49910Y-48241D01*
X49974Y-48084D01*
X49975Y-47915D01*
X49910Y-47759D01*
X49826Y-47675D01*
X49884Y-47675D01*
X50040Y-47610D01*
X50160Y-47491D01*
X50224Y-47334D01*
X50225Y-47165D01*
X50225Y-59025D01*
X49975Y-59025D01*
X49975Y-49715D01*
X49910Y-49559D01*
X49791Y-49439D01*
X49634Y-49375D01*
X49465Y-49374D01*
X49309Y-49439D01*
X49189Y-49558D01*
X49125Y-49715D01*
X49124Y-49884D01*
X49189Y-50040D01*
X49308Y-50160D01*
X49465Y-50224D01*
X49634Y-50225D01*
X49790Y-50160D01*
X49910Y-50041D01*
X49974Y-49884D01*
X49975Y-49715D01*
X49975Y-59025D01*
X49754Y-59025D01*
X49754Y-56681D01*
X49754Y-52981D01*
X49750Y-52887D01*
X49750Y-52150D01*
X49750Y-51550D01*
X49712Y-51458D01*
X49641Y-51388D01*
X49549Y-51350D01*
X49450Y-51349D01*
X48850Y-51349D01*
X48758Y-51387D01*
X48688Y-51458D01*
X48650Y-51550D01*
X48649Y-51649D01*
X48649Y-52249D01*
X48687Y-52341D01*
X48758Y-52411D01*
X48850Y-52449D01*
X48903Y-52450D01*
X48884Y-52514D01*
X49200Y-52829D01*
X49515Y-52514D01*
X49496Y-52450D01*
X49549Y-52450D01*
X49641Y-52412D01*
X49711Y-52341D01*
X49749Y-52249D01*
X49750Y-52150D01*
X49750Y-52887D01*
X49743Y-52763D01*
X49681Y-52612D01*
X49585Y-52584D01*
X49270Y-52900D01*
X49585Y-53215D01*
X49681Y-53187D01*
X49754Y-52981D01*
X49754Y-56681D01*
X49750Y-56588D01*
X49750Y-54791D01*
X49666Y-54588D01*
X49511Y-54434D01*
X49430Y-54400D01*
X49511Y-54366D01*
X49665Y-54211D01*
X49749Y-54009D01*
X49750Y-53791D01*
X49666Y-53588D01*
X49511Y-53434D01*
X49436Y-53402D01*
X49487Y-53381D01*
X49515Y-53285D01*
X49200Y-52970D01*
X49129Y-53041D01*
X49129Y-52900D01*
X48814Y-52584D01*
X48718Y-52612D01*
X48645Y-52818D01*
X48656Y-53036D01*
X48718Y-53187D01*
X48814Y-53215D01*
X49129Y-52900D01*
X49129Y-53041D01*
X48884Y-53285D01*
X48912Y-53381D01*
X48967Y-53400D01*
X48888Y-53433D01*
X48734Y-53588D01*
X48650Y-53790D01*
X48649Y-54008D01*
X48733Y-54211D01*
X48888Y-54365D01*
X48969Y-54399D01*
X48888Y-54433D01*
X48734Y-54588D01*
X48650Y-54790D01*
X48649Y-55008D01*
X48733Y-55211D01*
X48888Y-55365D01*
X49090Y-55449D01*
X49308Y-55450D01*
X49511Y-55366D01*
X49665Y-55211D01*
X49749Y-55009D01*
X49750Y-54791D01*
X49750Y-56588D01*
X49743Y-56463D01*
X49681Y-56312D01*
X49585Y-56284D01*
X49515Y-56355D01*
X49515Y-56214D01*
X49487Y-56118D01*
X49281Y-56045D01*
X49063Y-56056D01*
X48912Y-56118D01*
X48884Y-56214D01*
X49200Y-56529D01*
X49515Y-56214D01*
X49515Y-56355D01*
X49270Y-56600D01*
X49585Y-56915D01*
X49681Y-56887D01*
X49754Y-56681D01*
X49754Y-59025D01*
X49718Y-59025D01*
X49749Y-58949D01*
X49750Y-58850D01*
X49750Y-58250D01*
X49712Y-58158D01*
X49641Y-58088D01*
X49549Y-58050D01*
X49527Y-58050D01*
X49665Y-57911D01*
X49749Y-57709D01*
X49750Y-57491D01*
X49666Y-57288D01*
X49511Y-57134D01*
X49436Y-57102D01*
X49487Y-57081D01*
X49515Y-56985D01*
X49200Y-56670D01*
X49129Y-56741D01*
X49129Y-56600D01*
X48814Y-56284D01*
X48718Y-56312D01*
X48645Y-56518D01*
X48656Y-56736D01*
X48718Y-56887D01*
X48814Y-56915D01*
X49129Y-56600D01*
X49129Y-56741D01*
X48884Y-56985D01*
X48912Y-57081D01*
X48967Y-57100D01*
X48888Y-57133D01*
X48734Y-57288D01*
X48650Y-57490D01*
X48649Y-57708D01*
X48733Y-57911D01*
X48872Y-58049D01*
X48850Y-58049D01*
X48758Y-58087D01*
X48688Y-58158D01*
X48650Y-58250D01*
X48649Y-58349D01*
X48649Y-58949D01*
X48681Y-59025D01*
X47175Y-59025D01*
X47175Y-41615D01*
X47110Y-41459D01*
X47051Y-41400D01*
X47110Y-41341D01*
X47174Y-41184D01*
X47175Y-41015D01*
X47110Y-40859D01*
X46991Y-40739D01*
X46834Y-40675D01*
X46665Y-40674D01*
X46509Y-40739D01*
X46389Y-40858D01*
X46325Y-41015D01*
X46324Y-41184D01*
X46389Y-41340D01*
X46448Y-41399D01*
X46389Y-41458D01*
X46325Y-41615D01*
X46324Y-41784D01*
X46389Y-41940D01*
X46508Y-42060D01*
X46665Y-42124D01*
X46834Y-42125D01*
X46990Y-42060D01*
X47110Y-41941D01*
X47174Y-41784D01*
X47175Y-41615D01*
X47175Y-59025D01*
X45625Y-59025D01*
X45625Y-45315D01*
X45615Y-45291D01*
X45615Y-33585D01*
X45300Y-33270D01*
X45229Y-33341D01*
X45229Y-33200D01*
X44914Y-32884D01*
X44818Y-32912D01*
X44745Y-33118D01*
X44756Y-33336D01*
X44818Y-33487D01*
X44914Y-33515D01*
X45229Y-33200D01*
X45229Y-33341D01*
X44984Y-33585D01*
X45012Y-33681D01*
X45218Y-33754D01*
X45436Y-33743D01*
X45587Y-33681D01*
X45615Y-33585D01*
X45615Y-45291D01*
X45560Y-45159D01*
X45441Y-45039D01*
X45284Y-44975D01*
X45115Y-44974D01*
X44959Y-45039D01*
X44839Y-45158D01*
X44775Y-45315D01*
X44774Y-45484D01*
X44839Y-45640D01*
X44958Y-45760D01*
X45115Y-45824D01*
X45284Y-45825D01*
X45440Y-45760D01*
X45560Y-45641D01*
X45624Y-45484D01*
X45625Y-45315D01*
X45625Y-59025D01*
X45225Y-59025D01*
X45225Y-48115D01*
X45160Y-47959D01*
X45041Y-47839D01*
X44884Y-47775D01*
X44715Y-47774D01*
X44675Y-47791D01*
X44675Y-45915D01*
X44625Y-45794D01*
X44625Y-28565D01*
X44560Y-28409D01*
X44441Y-28289D01*
X44284Y-28225D01*
X44133Y-28224D01*
X44133Y-23264D01*
X44029Y-23013D01*
X43837Y-22821D01*
X43586Y-22717D01*
X43314Y-22716D01*
X43133Y-22791D01*
X43133Y-21264D01*
X43029Y-21013D01*
X42837Y-20821D01*
X42586Y-20717D01*
X42314Y-20716D01*
X42063Y-20820D01*
X41871Y-21012D01*
X41767Y-21263D01*
X41766Y-21535D01*
X41870Y-21786D01*
X42062Y-21978D01*
X42313Y-22082D01*
X42585Y-22083D01*
X42836Y-21979D01*
X43028Y-21787D01*
X43132Y-21536D01*
X43133Y-21264D01*
X43133Y-22791D01*
X43063Y-22820D01*
X42871Y-23012D01*
X42767Y-23263D01*
X42766Y-23535D01*
X42870Y-23786D01*
X43062Y-23978D01*
X43313Y-24082D01*
X43585Y-24083D01*
X43836Y-23979D01*
X44028Y-23787D01*
X44132Y-23536D01*
X44133Y-23264D01*
X44133Y-28224D01*
X44115Y-28224D01*
X43959Y-28289D01*
X43839Y-28408D01*
X43775Y-28565D01*
X43774Y-28734D01*
X43839Y-28890D01*
X43958Y-29010D01*
X44115Y-29074D01*
X44284Y-29075D01*
X44440Y-29010D01*
X44560Y-28891D01*
X44624Y-28734D01*
X44625Y-28565D01*
X44625Y-45794D01*
X44610Y-45759D01*
X44525Y-45673D01*
X44525Y-35765D01*
X44460Y-35609D01*
X44341Y-35489D01*
X44184Y-35425D01*
X44015Y-35424D01*
X43859Y-35489D01*
X43739Y-35608D01*
X43675Y-35765D01*
X43675Y-26565D01*
X43610Y-26409D01*
X43491Y-26289D01*
X43334Y-26225D01*
X43165Y-26224D01*
X43009Y-26289D01*
X42889Y-26408D01*
X42825Y-26565D01*
X42824Y-26734D01*
X42889Y-26890D01*
X43008Y-27010D01*
X43165Y-27074D01*
X43334Y-27075D01*
X43490Y-27010D01*
X43610Y-26891D01*
X43674Y-26734D01*
X43675Y-26565D01*
X43675Y-35765D01*
X43674Y-35934D01*
X43739Y-36090D01*
X43858Y-36210D01*
X44015Y-36274D01*
X44184Y-36275D01*
X44340Y-36210D01*
X44460Y-36091D01*
X44524Y-35934D01*
X44525Y-35765D01*
X44525Y-45673D01*
X44491Y-45639D01*
X44334Y-45575D01*
X44262Y-45575D01*
X44262Y-36985D01*
X44251Y-36767D01*
X44189Y-36616D01*
X44093Y-36588D01*
X44023Y-36659D01*
X44023Y-36518D01*
X43995Y-36422D01*
X43789Y-36349D01*
X43571Y-36360D01*
X43420Y-36422D01*
X43392Y-36518D01*
X43708Y-36833D01*
X44023Y-36518D01*
X44023Y-36659D01*
X43778Y-36904D01*
X44093Y-37219D01*
X44189Y-37191D01*
X44262Y-36985D01*
X44262Y-45575D01*
X44165Y-45574D01*
X44023Y-45633D01*
X44023Y-37289D01*
X43708Y-36974D01*
X43637Y-37045D01*
X43637Y-36904D01*
X43322Y-36588D01*
X43226Y-36616D01*
X43153Y-36822D01*
X43164Y-37040D01*
X43226Y-37191D01*
X43322Y-37219D01*
X43637Y-36904D01*
X43637Y-37045D01*
X43392Y-37289D01*
X43420Y-37385D01*
X43626Y-37458D01*
X43844Y-37447D01*
X43995Y-37385D01*
X44023Y-37289D01*
X44023Y-45633D01*
X44009Y-45639D01*
X43889Y-45758D01*
X43825Y-45915D01*
X43824Y-46084D01*
X43889Y-46240D01*
X44008Y-46360D01*
X44165Y-46424D01*
X44334Y-46425D01*
X44490Y-46360D01*
X44610Y-46241D01*
X44674Y-46084D01*
X44675Y-45915D01*
X44675Y-47791D01*
X44559Y-47839D01*
X44439Y-47958D01*
X44375Y-48115D01*
X44374Y-48284D01*
X44439Y-48440D01*
X44558Y-48560D01*
X44715Y-48624D01*
X44884Y-48625D01*
X45040Y-48560D01*
X45160Y-48441D01*
X45224Y-48284D01*
X45225Y-48115D01*
X45225Y-59025D01*
X44575Y-59025D01*
X44575Y-50065D01*
X44510Y-49909D01*
X44391Y-49789D01*
X44234Y-49725D01*
X44065Y-49724D01*
X43909Y-49789D01*
X43789Y-49908D01*
X43725Y-50065D01*
X43724Y-50234D01*
X43789Y-50390D01*
X43908Y-50510D01*
X44065Y-50574D01*
X44234Y-50575D01*
X44390Y-50510D01*
X44510Y-50391D01*
X44574Y-50234D01*
X44575Y-50065D01*
X44575Y-59025D01*
X44193Y-59025D01*
X44068Y-59049D01*
X43963Y-59120D01*
X43892Y-59225D01*
X43868Y-59350D01*
X43868Y-59911D01*
X43175Y-59911D01*
X43175Y-40615D01*
X43110Y-40459D01*
X42991Y-40339D01*
X42834Y-40275D01*
X42665Y-40274D01*
X42509Y-40339D01*
X42389Y-40458D01*
X42325Y-40615D01*
X42324Y-40784D01*
X42389Y-40940D01*
X42508Y-41060D01*
X42665Y-41124D01*
X42834Y-41125D01*
X42990Y-41060D01*
X43110Y-40941D01*
X43174Y-40784D01*
X43175Y-40615D01*
X43175Y-59911D01*
X42125Y-59911D01*
X42125Y-30515D01*
X42060Y-30359D01*
X41941Y-30239D01*
X41784Y-30175D01*
X41615Y-30174D01*
X41459Y-30239D01*
X41339Y-30358D01*
X41275Y-30515D01*
X41274Y-30684D01*
X41339Y-30840D01*
X41458Y-30960D01*
X41615Y-31024D01*
X41784Y-31025D01*
X41940Y-30960D01*
X42060Y-30841D01*
X42124Y-30684D01*
X42125Y-30515D01*
X42125Y-59911D01*
X42075Y-59911D01*
X42075Y-39515D01*
X42010Y-39359D01*
X41891Y-39239D01*
X41734Y-39175D01*
X41565Y-39174D01*
X41409Y-39239D01*
X41289Y-39358D01*
X41225Y-39515D01*
X41224Y-39684D01*
X41289Y-39840D01*
X41408Y-39960D01*
X41565Y-40024D01*
X41734Y-40025D01*
X41890Y-39960D01*
X42010Y-39841D01*
X42074Y-39684D01*
X42075Y-39515D01*
X42075Y-59911D01*
X41154Y-59911D01*
X41154Y-49281D01*
X41150Y-49188D01*
X41150Y-48091D01*
X41066Y-47888D01*
X40911Y-47734D01*
X40830Y-47700D01*
X40911Y-47666D01*
X41065Y-47511D01*
X41149Y-47309D01*
X41150Y-47091D01*
X41066Y-46888D01*
X40911Y-46734D01*
X40830Y-46700D01*
X40911Y-46666D01*
X41065Y-46511D01*
X41149Y-46309D01*
X41150Y-46091D01*
X41066Y-45888D01*
X40911Y-45734D01*
X40830Y-45700D01*
X40911Y-45666D01*
X41065Y-45511D01*
X41149Y-45309D01*
X41150Y-45091D01*
X41066Y-44888D01*
X40911Y-44734D01*
X40830Y-44700D01*
X40911Y-44666D01*
X41065Y-44511D01*
X41149Y-44309D01*
X41150Y-44091D01*
X41066Y-43888D01*
X40927Y-43750D01*
X40949Y-43750D01*
X41041Y-43712D01*
X41111Y-43641D01*
X41149Y-43549D01*
X41150Y-43450D01*
X41150Y-42850D01*
X41150Y-33450D01*
X41150Y-32850D01*
X41150Y-22050D01*
X41150Y-21450D01*
X41112Y-21358D01*
X41041Y-21288D01*
X40949Y-21250D01*
X40850Y-21249D01*
X40250Y-21249D01*
X40158Y-21287D01*
X40088Y-21358D01*
X40050Y-21450D01*
X40050Y-21472D01*
X39911Y-21334D01*
X39709Y-21250D01*
X39491Y-21249D01*
X39288Y-21333D01*
X39134Y-21488D01*
X39100Y-21569D01*
X39066Y-21488D01*
X38911Y-21334D01*
X38709Y-21250D01*
X38491Y-21249D01*
X38288Y-21333D01*
X38134Y-21488D01*
X38100Y-21569D01*
X38066Y-21488D01*
X37911Y-21334D01*
X37709Y-21250D01*
X37491Y-21249D01*
X37288Y-21333D01*
X37134Y-21488D01*
X37100Y-21569D01*
X37066Y-21488D01*
X36911Y-21334D01*
X36709Y-21250D01*
X36491Y-21249D01*
X36288Y-21333D01*
X36134Y-21488D01*
X36100Y-21569D01*
X36066Y-21488D01*
X35911Y-21334D01*
X35709Y-21250D01*
X35491Y-21249D01*
X35288Y-21333D01*
X35134Y-21488D01*
X35050Y-21690D01*
X35049Y-21908D01*
X35133Y-22111D01*
X35288Y-22265D01*
X35490Y-22349D01*
X35708Y-22350D01*
X35911Y-22266D01*
X36065Y-22111D01*
X36099Y-22030D01*
X36133Y-22111D01*
X36288Y-22265D01*
X36490Y-22349D01*
X36708Y-22350D01*
X36911Y-22266D01*
X37065Y-22111D01*
X37099Y-22030D01*
X37133Y-22111D01*
X37288Y-22265D01*
X37490Y-22349D01*
X37708Y-22350D01*
X37911Y-22266D01*
X38065Y-22111D01*
X38099Y-22030D01*
X38133Y-22111D01*
X38288Y-22265D01*
X38490Y-22349D01*
X38708Y-22350D01*
X38911Y-22266D01*
X39065Y-22111D01*
X39099Y-22030D01*
X39133Y-22111D01*
X39288Y-22265D01*
X39490Y-22349D01*
X39708Y-22350D01*
X39911Y-22266D01*
X40049Y-22127D01*
X40049Y-22149D01*
X40087Y-22241D01*
X40158Y-22311D01*
X40250Y-22349D01*
X40349Y-22350D01*
X40949Y-22350D01*
X41041Y-22312D01*
X41111Y-22241D01*
X41149Y-22149D01*
X41150Y-22050D01*
X41150Y-32850D01*
X41112Y-32758D01*
X41041Y-32688D01*
X40949Y-32650D01*
X40850Y-32649D01*
X40250Y-32649D01*
X40158Y-32687D01*
X40088Y-32758D01*
X40050Y-32850D01*
X40050Y-32872D01*
X39911Y-32734D01*
X39709Y-32650D01*
X39491Y-32649D01*
X39288Y-32733D01*
X39134Y-32888D01*
X39100Y-32969D01*
X39066Y-32888D01*
X38911Y-32734D01*
X38709Y-32650D01*
X38491Y-32649D01*
X38288Y-32733D01*
X38134Y-32888D01*
X38100Y-32969D01*
X38066Y-32888D01*
X37911Y-32734D01*
X37709Y-32650D01*
X37491Y-32649D01*
X37288Y-32733D01*
X37134Y-32888D01*
X37100Y-32969D01*
X37066Y-32888D01*
X36911Y-32734D01*
X36709Y-32650D01*
X36491Y-32649D01*
X36288Y-32733D01*
X36134Y-32888D01*
X36100Y-32969D01*
X36066Y-32888D01*
X35911Y-32734D01*
X35709Y-32650D01*
X35491Y-32649D01*
X35288Y-32733D01*
X35134Y-32888D01*
X35050Y-33090D01*
X35049Y-33308D01*
X35133Y-33511D01*
X35288Y-33665D01*
X35490Y-33749D01*
X35708Y-33750D01*
X35911Y-33666D01*
X36065Y-33511D01*
X36099Y-33430D01*
X36133Y-33511D01*
X36288Y-33665D01*
X36490Y-33749D01*
X36708Y-33750D01*
X36911Y-33666D01*
X37065Y-33511D01*
X37099Y-33430D01*
X37133Y-33511D01*
X37288Y-33665D01*
X37490Y-33749D01*
X37708Y-33750D01*
X37911Y-33666D01*
X38065Y-33511D01*
X38099Y-33430D01*
X38133Y-33511D01*
X38288Y-33665D01*
X38490Y-33749D01*
X38708Y-33750D01*
X38911Y-33666D01*
X39065Y-33511D01*
X39099Y-33430D01*
X39133Y-33511D01*
X39288Y-33665D01*
X39490Y-33749D01*
X39708Y-33750D01*
X39911Y-33666D01*
X40049Y-33527D01*
X40049Y-33549D01*
X40087Y-33641D01*
X40158Y-33711D01*
X40250Y-33749D01*
X40349Y-33750D01*
X40949Y-33750D01*
X41041Y-33712D01*
X41111Y-33641D01*
X41149Y-33549D01*
X41150Y-33450D01*
X41150Y-42850D01*
X41112Y-42758D01*
X41041Y-42688D01*
X40949Y-42650D01*
X40850Y-42649D01*
X40250Y-42649D01*
X40175Y-42681D01*
X40175Y-41715D01*
X40110Y-41559D01*
X39991Y-41439D01*
X39834Y-41375D01*
X39665Y-41374D01*
X39509Y-41439D01*
X39389Y-41558D01*
X39325Y-41715D01*
X39324Y-41884D01*
X39389Y-42040D01*
X39508Y-42160D01*
X39665Y-42224D01*
X39834Y-42225D01*
X39990Y-42160D01*
X40110Y-42041D01*
X40174Y-41884D01*
X40175Y-41715D01*
X40175Y-42681D01*
X40158Y-42687D01*
X40088Y-42758D01*
X40050Y-42850D01*
X40049Y-42949D01*
X40049Y-43549D01*
X40087Y-43641D01*
X40158Y-43711D01*
X40250Y-43749D01*
X40272Y-43749D01*
X40134Y-43888D01*
X40050Y-44090D01*
X40049Y-44308D01*
X40133Y-44511D01*
X40288Y-44665D01*
X40369Y-44699D01*
X40288Y-44733D01*
X40134Y-44888D01*
X40050Y-45090D01*
X40049Y-45308D01*
X40133Y-45511D01*
X40288Y-45665D01*
X40369Y-45699D01*
X40288Y-45733D01*
X40134Y-45888D01*
X40050Y-46090D01*
X40049Y-46308D01*
X40133Y-46511D01*
X40288Y-46665D01*
X40369Y-46699D01*
X40288Y-46733D01*
X40134Y-46888D01*
X40050Y-47090D01*
X40049Y-47308D01*
X40133Y-47511D01*
X40288Y-47665D01*
X40369Y-47699D01*
X40288Y-47733D01*
X40134Y-47888D01*
X40050Y-48090D01*
X40049Y-48308D01*
X40133Y-48511D01*
X40288Y-48665D01*
X40363Y-48697D01*
X40312Y-48718D01*
X40284Y-48814D01*
X40600Y-49129D01*
X40915Y-48814D01*
X40887Y-48718D01*
X40832Y-48699D01*
X40911Y-48666D01*
X41065Y-48511D01*
X41149Y-48309D01*
X41150Y-48091D01*
X41150Y-49188D01*
X41143Y-49063D01*
X41081Y-48912D01*
X40985Y-48884D01*
X40670Y-49200D01*
X40985Y-49515D01*
X41081Y-49487D01*
X41154Y-49281D01*
X41154Y-59911D01*
X41150Y-59911D01*
X41150Y-59191D01*
X41150Y-56291D01*
X41066Y-56088D01*
X40911Y-55934D01*
X40830Y-55900D01*
X40911Y-55866D01*
X41065Y-55711D01*
X41149Y-55509D01*
X41150Y-55291D01*
X41066Y-55088D01*
X40911Y-54934D01*
X40830Y-54900D01*
X40911Y-54866D01*
X41065Y-54711D01*
X41149Y-54509D01*
X41150Y-54291D01*
X41066Y-54088D01*
X40911Y-53934D01*
X40830Y-53900D01*
X40911Y-53866D01*
X41065Y-53711D01*
X41149Y-53509D01*
X41150Y-53291D01*
X41066Y-53088D01*
X40911Y-52934D01*
X40830Y-52900D01*
X40911Y-52866D01*
X41065Y-52711D01*
X41149Y-52509D01*
X41150Y-52291D01*
X41066Y-52088D01*
X40927Y-51950D01*
X40949Y-51950D01*
X41041Y-51912D01*
X41111Y-51841D01*
X41149Y-51749D01*
X41150Y-51650D01*
X41150Y-51050D01*
X41112Y-50958D01*
X41041Y-50888D01*
X40949Y-50850D01*
X40915Y-50850D01*
X40915Y-49585D01*
X40600Y-49270D01*
X40529Y-49341D01*
X40529Y-49200D01*
X40214Y-48884D01*
X40118Y-48912D01*
X40045Y-49118D01*
X40056Y-49336D01*
X40118Y-49487D01*
X40214Y-49515D01*
X40529Y-49200D01*
X40529Y-49341D01*
X40284Y-49585D01*
X40312Y-49681D01*
X40518Y-49754D01*
X40736Y-49743D01*
X40887Y-49681D01*
X40915Y-49585D01*
X40915Y-50850D01*
X40850Y-50849D01*
X40250Y-50849D01*
X40158Y-50887D01*
X40088Y-50958D01*
X40050Y-51050D01*
X40049Y-51149D01*
X40049Y-51749D01*
X40087Y-51841D01*
X40158Y-51911D01*
X40250Y-51949D01*
X40272Y-51949D01*
X40134Y-52088D01*
X40050Y-52290D01*
X40049Y-52508D01*
X40133Y-52711D01*
X40288Y-52865D01*
X40369Y-52899D01*
X40288Y-52933D01*
X40134Y-53088D01*
X40050Y-53290D01*
X40049Y-53508D01*
X40133Y-53711D01*
X40288Y-53865D01*
X40369Y-53899D01*
X40288Y-53933D01*
X40134Y-54088D01*
X40050Y-54290D01*
X40049Y-54508D01*
X40133Y-54711D01*
X40288Y-54865D01*
X40369Y-54899D01*
X40288Y-54933D01*
X40134Y-55088D01*
X40050Y-55290D01*
X40049Y-55508D01*
X40133Y-55711D01*
X40288Y-55865D01*
X40369Y-55899D01*
X40288Y-55933D01*
X40134Y-56088D01*
X40050Y-56290D01*
X40049Y-56508D01*
X40133Y-56711D01*
X40288Y-56865D01*
X40490Y-56949D01*
X40708Y-56950D01*
X40911Y-56866D01*
X41065Y-56711D01*
X41149Y-56509D01*
X41150Y-56291D01*
X41150Y-59191D01*
X41066Y-58988D01*
X40927Y-58850D01*
X40949Y-58850D01*
X41041Y-58812D01*
X41111Y-58741D01*
X41149Y-58649D01*
X41150Y-58550D01*
X41150Y-57950D01*
X41112Y-57858D01*
X41041Y-57788D01*
X40949Y-57750D01*
X40850Y-57749D01*
X40250Y-57749D01*
X40158Y-57787D01*
X40088Y-57858D01*
X40050Y-57950D01*
X40049Y-58049D01*
X40049Y-58649D01*
X40087Y-58741D01*
X40158Y-58811D01*
X40250Y-58849D01*
X40272Y-58849D01*
X40134Y-58988D01*
X40050Y-59190D01*
X40049Y-59408D01*
X40133Y-59611D01*
X40288Y-59765D01*
X40490Y-59849D01*
X40708Y-59850D01*
X40911Y-59766D01*
X41065Y-59611D01*
X41149Y-59409D01*
X41150Y-59191D01*
X41150Y-59911D01*
X37475Y-59911D01*
X37475Y-38715D01*
X37410Y-38559D01*
X37291Y-38439D01*
X37134Y-38375D01*
X36965Y-38374D01*
X36809Y-38439D01*
X36689Y-38558D01*
X36625Y-38715D01*
X36624Y-38884D01*
X36689Y-39040D01*
X36808Y-39160D01*
X36965Y-39224D01*
X37134Y-39225D01*
X37290Y-39160D01*
X37410Y-39041D01*
X37474Y-38884D01*
X37475Y-38715D01*
X37475Y-59911D01*
X33383Y-59911D01*
X33383Y-49394D01*
X33379Y-49301D01*
X33379Y-48204D01*
X33295Y-48001D01*
X33140Y-47847D01*
X33059Y-47813D01*
X33140Y-47779D01*
X33294Y-47624D01*
X33378Y-47422D01*
X33379Y-47204D01*
X33295Y-47001D01*
X33140Y-46847D01*
X33059Y-46813D01*
X33140Y-46779D01*
X33294Y-46624D01*
X33378Y-46422D01*
X33379Y-46204D01*
X33295Y-46001D01*
X33140Y-45847D01*
X33059Y-45813D01*
X33140Y-45779D01*
X33294Y-45624D01*
X33378Y-45422D01*
X33379Y-45204D01*
X33295Y-45001D01*
X33140Y-44847D01*
X33059Y-44813D01*
X33140Y-44779D01*
X33294Y-44624D01*
X33378Y-44422D01*
X33379Y-44204D01*
X33295Y-44001D01*
X33156Y-43863D01*
X33178Y-43863D01*
X33270Y-43825D01*
X33340Y-43754D01*
X33378Y-43662D01*
X33379Y-43563D01*
X33379Y-42963D01*
X33341Y-42871D01*
X33270Y-42801D01*
X33178Y-42763D01*
X33079Y-42762D01*
X32479Y-42762D01*
X32387Y-42800D01*
X32317Y-42871D01*
X32279Y-42963D01*
X32278Y-43062D01*
X32278Y-43662D01*
X32316Y-43754D01*
X32387Y-43824D01*
X32479Y-43862D01*
X32501Y-43862D01*
X32363Y-44001D01*
X32279Y-44203D01*
X32278Y-44421D01*
X32362Y-44624D01*
X32517Y-44778D01*
X32598Y-44812D01*
X32517Y-44846D01*
X32363Y-45001D01*
X32279Y-45203D01*
X32278Y-45421D01*
X32362Y-45624D01*
X32517Y-45778D01*
X32598Y-45812D01*
X32517Y-45846D01*
X32363Y-46001D01*
X32279Y-46203D01*
X32278Y-46421D01*
X32362Y-46624D01*
X32517Y-46778D01*
X32598Y-46812D01*
X32517Y-46846D01*
X32363Y-47001D01*
X32279Y-47203D01*
X32278Y-47421D01*
X32362Y-47624D01*
X32517Y-47778D01*
X32598Y-47812D01*
X32517Y-47846D01*
X32363Y-48001D01*
X32279Y-48203D01*
X32278Y-48421D01*
X32362Y-48624D01*
X32517Y-48778D01*
X32592Y-48810D01*
X32541Y-48831D01*
X32513Y-48927D01*
X32829Y-49242D01*
X33144Y-48927D01*
X33116Y-48831D01*
X33061Y-48812D01*
X33140Y-48779D01*
X33294Y-48624D01*
X33378Y-48422D01*
X33379Y-48204D01*
X33379Y-49301D01*
X33372Y-49176D01*
X33310Y-49025D01*
X33214Y-48997D01*
X32899Y-49313D01*
X33214Y-49628D01*
X33310Y-49600D01*
X33383Y-49394D01*
X33383Y-59911D01*
X33379Y-59911D01*
X33379Y-59204D01*
X33379Y-55204D01*
X33295Y-55001D01*
X33140Y-54847D01*
X33059Y-54813D01*
X33140Y-54779D01*
X33294Y-54624D01*
X33378Y-54422D01*
X33379Y-54204D01*
X33295Y-54001D01*
X33140Y-53847D01*
X33059Y-53813D01*
X33140Y-53779D01*
X33294Y-53624D01*
X33378Y-53422D01*
X33379Y-53204D01*
X33295Y-53001D01*
X33140Y-52847D01*
X33059Y-52813D01*
X33140Y-52779D01*
X33294Y-52624D01*
X33378Y-52422D01*
X33379Y-52204D01*
X33295Y-52001D01*
X33156Y-51863D01*
X33178Y-51863D01*
X33270Y-51825D01*
X33340Y-51754D01*
X33378Y-51662D01*
X33379Y-51563D01*
X33379Y-50963D01*
X33341Y-50871D01*
X33270Y-50801D01*
X33178Y-50763D01*
X33144Y-50763D01*
X33144Y-49698D01*
X32829Y-49383D01*
X32758Y-49454D01*
X32758Y-49313D01*
X32443Y-48997D01*
X32347Y-49025D01*
X32274Y-49231D01*
X32285Y-49449D01*
X32347Y-49600D01*
X32443Y-49628D01*
X32758Y-49313D01*
X32758Y-49454D01*
X32513Y-49698D01*
X32541Y-49794D01*
X32747Y-49867D01*
X32965Y-49856D01*
X33116Y-49794D01*
X33144Y-49698D01*
X33144Y-50763D01*
X33079Y-50762D01*
X32479Y-50762D01*
X32387Y-50800D01*
X32317Y-50871D01*
X32279Y-50963D01*
X32278Y-51062D01*
X32278Y-51662D01*
X32316Y-51754D01*
X32387Y-51824D01*
X32479Y-51862D01*
X32501Y-51862D01*
X32363Y-52001D01*
X32279Y-52203D01*
X32278Y-52421D01*
X32362Y-52624D01*
X32517Y-52778D01*
X32598Y-52812D01*
X32517Y-52846D01*
X32363Y-53001D01*
X32279Y-53203D01*
X32278Y-53421D01*
X32362Y-53624D01*
X32517Y-53778D01*
X32598Y-53812D01*
X32517Y-53846D01*
X32363Y-54001D01*
X32279Y-54203D01*
X32278Y-54421D01*
X32362Y-54624D01*
X32517Y-54778D01*
X32598Y-54812D01*
X32517Y-54846D01*
X32363Y-55001D01*
X32279Y-55203D01*
X32278Y-55421D01*
X32362Y-55624D01*
X32501Y-55762D01*
X32479Y-55762D01*
X32387Y-55800D01*
X32317Y-55871D01*
X32279Y-55963D01*
X32278Y-56062D01*
X32278Y-56662D01*
X32316Y-56754D01*
X32387Y-56824D01*
X32479Y-56862D01*
X32578Y-56863D01*
X33178Y-56863D01*
X33270Y-56825D01*
X33340Y-56754D01*
X33378Y-56662D01*
X33379Y-56563D01*
X33379Y-55963D01*
X33341Y-55871D01*
X33270Y-55801D01*
X33178Y-55763D01*
X33156Y-55763D01*
X33294Y-55624D01*
X33378Y-55422D01*
X33379Y-55204D01*
X33379Y-59204D01*
X33295Y-59001D01*
X33156Y-58863D01*
X33178Y-58863D01*
X33270Y-58825D01*
X33340Y-58754D01*
X33378Y-58662D01*
X33379Y-58563D01*
X33379Y-57963D01*
X33341Y-57871D01*
X33270Y-57801D01*
X33178Y-57763D01*
X33079Y-57762D01*
X32479Y-57762D01*
X32387Y-57800D01*
X32317Y-57871D01*
X32279Y-57963D01*
X32278Y-58062D01*
X32278Y-58662D01*
X32316Y-58754D01*
X32387Y-58824D01*
X32479Y-58862D01*
X32501Y-58862D01*
X32363Y-59001D01*
X32279Y-59203D01*
X32278Y-59421D01*
X32362Y-59624D01*
X32517Y-59778D01*
X32719Y-59862D01*
X32937Y-59863D01*
X33140Y-59779D01*
X33294Y-59624D01*
X33378Y-59422D01*
X33379Y-59204D01*
X33379Y-59911D01*
X31427Y-59911D01*
X31427Y-42746D01*
X34154Y-42746D01*
X34278Y-42721D01*
X34383Y-42650D01*
X34454Y-42545D01*
X34479Y-42421D01*
X34479Y-20502D01*
X52806Y-20502D01*
X52930Y-20477D01*
X52933Y-20475D01*
X65187Y-20475D01*
X65225Y-20500D01*
X65350Y-20525D01*
X65474Y-20500D01*
X65579Y-20429D01*
X65599Y-20399D01*
X65629Y-20379D01*
X65700Y-20274D01*
X65725Y-20150D01*
X65700Y-20025D01*
X65675Y-19987D01*
X65675Y-18862D01*
X65697Y-18829D01*
X70443Y-18829D01*
X70443Y-50689D01*
X70443Y-53125D01*
M02*
