G04 (created by PCBNEW (2013-05-18 BZR 4017)-stable) date Fri 12 Dec 2014 17:06:20 GMT*
%MOIN*%
G04 Gerber Fmt 3.4, Leading zero omitted, Abs format*
%FSLAX34Y34*%
G01*
G70*
G90*
G04 APERTURE LIST*
%ADD10C,0.00590551*%
%ADD11C,0.2169*%
%ADD12R,0.0987X0.0987*%
%ADD13C,0.1184*%
%ADD14O,0.0594X0.0692*%
%ADD15O,0.0948X0.1027*%
%ADD16C,0.0535*%
%ADD17R,0.08X0.08*%
%ADD18C,0.08*%
%ADD19R,0.0594X0.0594*%
%ADD20C,0.0594*%
%ADD21C,0.1499*%
%ADD22C,0.12*%
%ADD23C,0.0515*%
G04 APERTURE END LIST*
G54D10*
G54D11*
X2754Y1575D03*
G54D12*
X17390Y45236D03*
G54D13*
X19890Y45236D03*
G54D14*
X18905Y1968D03*
X20657Y1968D03*
G54D15*
X21395Y716D03*
X18167Y716D03*
G54D16*
X20716Y716D03*
X18846Y716D03*
G54D17*
X12114Y46430D03*
G54D18*
X13114Y46430D03*
X14114Y46430D03*
G54D17*
X1248Y44019D03*
G54D18*
X1248Y43019D03*
X1248Y42019D03*
X1248Y41019D03*
X1248Y40019D03*
X1248Y39019D03*
X1248Y38019D03*
G54D17*
X1248Y36143D03*
G54D18*
X1248Y35143D03*
X1248Y34143D03*
X1248Y33143D03*
X1248Y32143D03*
X1248Y31143D03*
X1248Y30143D03*
G54D17*
X1248Y28170D03*
G54D18*
X1248Y27170D03*
X1248Y26170D03*
X1248Y25170D03*
X1248Y24170D03*
X1248Y23170D03*
X1248Y22170D03*
G54D17*
X1248Y20199D03*
G54D18*
X1248Y19199D03*
X1248Y18199D03*
X1248Y17199D03*
X1248Y16199D03*
X1248Y15199D03*
X1248Y14199D03*
G54D17*
X35911Y46929D03*
G54D18*
X34911Y46929D03*
G54D19*
X20651Y7329D03*
G54D20*
X20651Y7829D03*
X21151Y7329D03*
X21151Y7829D03*
X21651Y7329D03*
X21651Y7829D03*
X22151Y7329D03*
X22151Y7829D03*
X22651Y7329D03*
X22651Y7829D03*
X24140Y1870D03*
X27282Y1870D03*
G54D17*
X38474Y43299D03*
G54D18*
X39474Y43299D03*
X38474Y38299D03*
X39474Y42299D03*
X38474Y37299D03*
X39474Y41299D03*
X38474Y36299D03*
X39474Y40299D03*
X38474Y35299D03*
X39474Y39299D03*
X38474Y34299D03*
X39474Y38299D03*
X38474Y33299D03*
X39474Y37299D03*
X38474Y32299D03*
X39474Y36299D03*
X38474Y31299D03*
X39474Y35299D03*
X38474Y30299D03*
X39474Y34299D03*
X38474Y29299D03*
X39474Y33299D03*
X38474Y28299D03*
X39474Y32299D03*
X39474Y31299D03*
X38474Y27299D03*
X39474Y30299D03*
X39474Y28299D03*
X39474Y27299D03*
X39474Y26299D03*
X39474Y25299D03*
X38474Y26299D03*
X38474Y25299D03*
X38474Y42299D03*
X38474Y41299D03*
X38474Y40299D03*
X38474Y39299D03*
X38474Y24299D03*
X39474Y24299D03*
X39474Y29299D03*
X38474Y23299D03*
X39474Y23299D03*
X38474Y22299D03*
X39474Y22299D03*
X38474Y21299D03*
X39474Y21299D03*
X38474Y20299D03*
X39474Y20299D03*
X38474Y19299D03*
X39474Y19299D03*
G54D21*
X32098Y4528D03*
X36598Y4528D03*
G54D18*
X36098Y8028D03*
X35600Y7028D03*
X35098Y8028D03*
X34600Y7028D03*
X34098Y8028D03*
X33600Y7028D03*
X33098Y8028D03*
G54D22*
X31298Y5729D03*
X37398Y5728D03*
G54D18*
X35956Y2599D03*
X32740Y2599D03*
X36956Y2599D03*
X31740Y2599D03*
G54D17*
X32600Y7028D03*
G54D23*
X16730Y26181D03*
X16533Y42028D03*
X16730Y34252D03*
X15746Y17618D03*
G54D17*
X32696Y41944D03*
G54D18*
X32696Y40944D03*
G54D17*
X20089Y34050D03*
G54D18*
X20089Y35050D03*
X32638Y13104D03*
X21148Y41630D03*
G54D17*
X22280Y40558D03*
G54D18*
X23280Y40558D03*
G54D12*
X30205Y45236D03*
G54D13*
X32705Y45236D03*
G54D17*
X4888Y1328D03*
G54D18*
X5888Y1328D03*
X6888Y1328D03*
X7888Y1328D03*
G54D17*
X1248Y12617D03*
G54D18*
X1248Y11617D03*
X1256Y10617D03*
X1248Y9617D03*
X1248Y8617D03*
X1248Y7617D03*
X1248Y6617D03*
X1248Y5617D03*
X1248Y4617D03*
X1248Y3617D03*
G54D11*
X38974Y46850D03*
X38974Y1575D03*
X2754Y46850D03*
M02*
