G04 (created by PCBNEW-RS274X (2012-01-19 BZR 3256)-stable) date 19/07/2014 16:24:45*
G01*
G70*
G90*
%MOIN*%
G04 Gerber Fmt 3.4, Leading zero omitted, Abs format*
%FSLAX34Y34*%
G04 APERTURE LIST*
%ADD10C,0.006000*%
%ADD11C,0.003900*%
%ADD12C,0.004100*%
%ADD13C,0.005900*%
%ADD14C,0.015000*%
%ADD15C,0.216900*%
%ADD16R,0.098700X0.098700*%
%ADD17C,0.118400*%
%ADD18O,0.059400X0.069200*%
%ADD19O,0.094800X0.102700*%
%ADD20C,0.053500*%
%ADD21R,0.080000X0.080000*%
%ADD22C,0.080000*%
%ADD23R,0.059400X0.059400*%
%ADD24C,0.059400*%
%ADD25C,0.149900*%
%ADD26C,0.120000*%
%ADD27C,0.051500*%
G04 APERTURE END LIST*
G54D10*
G54D11*
X08611Y02230D02*
X08440Y02230D01*
X08532Y02125D01*
X08492Y02125D01*
X08466Y02112D01*
X08453Y02099D01*
X08440Y02073D01*
X08440Y02007D01*
X08453Y01981D01*
X08466Y01967D01*
X08492Y01954D01*
X08571Y01954D01*
X08597Y01967D01*
X08611Y01981D01*
X08321Y01981D02*
X08308Y01967D01*
X08321Y01954D01*
X08334Y01967D01*
X08321Y01981D01*
X08321Y01954D01*
X08217Y02230D02*
X08046Y02230D01*
X08138Y02125D01*
X08098Y02125D01*
X08072Y02112D01*
X08059Y02099D01*
X08046Y02073D01*
X08046Y02007D01*
X08059Y01981D01*
X08072Y01967D01*
X08098Y01954D01*
X08177Y01954D01*
X08203Y01967D01*
X08217Y01981D01*
X07967Y02230D02*
X07875Y01954D01*
X07783Y02230D01*
X07480Y01954D02*
X07480Y02230D01*
X07375Y02230D01*
X07349Y02217D01*
X07336Y02204D01*
X07323Y02178D01*
X07323Y02138D01*
X07336Y02112D01*
X07349Y02099D01*
X07375Y02086D01*
X07480Y02086D01*
X07047Y01981D02*
X07060Y01967D01*
X07099Y01954D01*
X07125Y01954D01*
X07165Y01967D01*
X07191Y01994D01*
X07204Y02020D01*
X07217Y02073D01*
X07217Y02112D01*
X07204Y02165D01*
X07191Y02191D01*
X07165Y02217D01*
X07125Y02230D01*
X07099Y02230D01*
X07060Y02217D01*
X07047Y02204D01*
X06784Y01954D02*
X06941Y01954D01*
X06863Y01954D02*
X06863Y02230D01*
X06889Y02191D01*
X06915Y02165D01*
X06941Y02151D01*
X06613Y02230D02*
X06586Y02230D01*
X06560Y02217D01*
X06547Y02204D01*
X06534Y02178D01*
X06521Y02125D01*
X06521Y02059D01*
X06534Y02007D01*
X06547Y01981D01*
X06560Y01967D01*
X06586Y01954D01*
X06613Y01954D01*
X06639Y01967D01*
X06652Y01981D01*
X06665Y02007D01*
X06678Y02059D01*
X06678Y02125D01*
X06665Y02178D01*
X06652Y02204D01*
X06639Y02217D01*
X06613Y02230D01*
X06048Y02217D02*
X06074Y02230D01*
X06113Y02230D01*
X06153Y02217D01*
X06179Y02191D01*
X06192Y02165D01*
X06205Y02112D01*
X06205Y02073D01*
X06192Y02020D01*
X06179Y01994D01*
X06153Y01967D01*
X06113Y01954D01*
X06087Y01954D01*
X06048Y01967D01*
X06035Y01981D01*
X06035Y02073D01*
X06087Y02073D01*
X05916Y01954D02*
X05916Y02230D01*
X05759Y01954D01*
X05759Y02230D01*
X05627Y01954D02*
X05627Y02230D01*
X05562Y02230D01*
X05522Y02217D01*
X05496Y02191D01*
X05483Y02165D01*
X05470Y02112D01*
X05470Y02073D01*
X05483Y02020D01*
X05496Y01994D01*
X05522Y01967D01*
X05562Y01954D01*
X05627Y01954D01*
X05154Y02033D02*
X05023Y02033D01*
X05181Y01954D02*
X05089Y02230D01*
X04997Y01954D01*
X04904Y01954D02*
X04904Y02230D01*
X04839Y02230D01*
X04799Y02217D01*
X04773Y02191D01*
X04760Y02165D01*
X04747Y02112D01*
X04747Y02073D01*
X04760Y02020D01*
X04773Y01994D01*
X04799Y01967D01*
X04839Y01954D01*
X04904Y01954D01*
X04484Y01954D02*
X04641Y01954D01*
X04563Y01954D02*
X04563Y02230D01*
X04589Y02191D01*
X04615Y02165D01*
X04641Y02151D01*
X04378Y02204D02*
X04365Y02217D01*
X04339Y02230D01*
X04273Y02230D01*
X04247Y02217D01*
X04234Y02204D01*
X04221Y02178D01*
X04221Y02151D01*
X04234Y02112D01*
X04392Y01954D01*
X04221Y01954D01*
G54D12*
X06078Y00192D02*
X06078Y00586D01*
X05928Y00586D01*
X05891Y00567D01*
X05872Y00548D01*
X05853Y00510D01*
X05853Y00454D01*
X05872Y00417D01*
X05891Y00398D01*
X05928Y00379D01*
X06078Y00379D01*
X05684Y00192D02*
X05684Y00454D01*
X05684Y00379D02*
X05665Y00417D01*
X05647Y00435D01*
X05609Y00454D01*
X05572Y00454D01*
X05384Y00192D02*
X05421Y00210D01*
X05440Y00229D01*
X05459Y00267D01*
X05459Y00379D01*
X05440Y00417D01*
X05421Y00435D01*
X05384Y00454D01*
X05328Y00454D01*
X05290Y00435D01*
X05271Y00417D01*
X05253Y00379D01*
X05253Y00267D01*
X05271Y00229D01*
X05290Y00210D01*
X05328Y00192D01*
X05384Y00192D01*
X05084Y00192D02*
X05084Y00586D01*
X05084Y00435D02*
X05047Y00454D01*
X04972Y00454D01*
X04934Y00435D01*
X04915Y00417D01*
X04897Y00379D01*
X04897Y00267D01*
X04915Y00229D01*
X04934Y00210D01*
X04972Y00192D01*
X05047Y00192D01*
X05084Y00210D01*
X04578Y00210D02*
X04616Y00192D01*
X04691Y00192D01*
X04728Y00210D01*
X04747Y00248D01*
X04747Y00398D01*
X04728Y00435D01*
X04691Y00454D01*
X04616Y00454D01*
X04578Y00435D01*
X04559Y00398D01*
X04559Y00360D01*
X04747Y00323D01*
G54D13*
X03505Y20041D02*
X03685Y20041D01*
X03595Y20041D02*
X03595Y20356D01*
X03625Y20311D01*
X03655Y20281D01*
X03685Y20266D01*
X03265Y20206D02*
X03220Y20191D01*
X03205Y20176D01*
X03190Y20146D01*
X03190Y20101D01*
X03205Y20071D01*
X03220Y20056D01*
X03250Y20041D01*
X03370Y20041D01*
X03370Y20356D01*
X03265Y20356D01*
X03235Y20341D01*
X03220Y20326D01*
X03205Y20296D01*
X03205Y20266D01*
X03220Y20236D01*
X03235Y20221D01*
X03265Y20206D01*
X03370Y20206D01*
X03460Y19041D02*
X03640Y19041D01*
X03550Y19041D02*
X03550Y19356D01*
X03580Y19311D01*
X03610Y19281D01*
X03640Y19266D01*
X03340Y19131D02*
X03190Y19131D01*
X03370Y19041D02*
X03265Y19356D01*
X03160Y19041D01*
X03640Y18326D02*
X03625Y18341D01*
X03595Y18356D01*
X03520Y18356D01*
X03490Y18341D01*
X03475Y18326D01*
X03460Y18296D01*
X03460Y18266D01*
X03475Y18221D01*
X03655Y18041D01*
X03460Y18041D01*
X03340Y18131D02*
X03190Y18131D01*
X03370Y18041D02*
X03265Y18356D01*
X03160Y18041D01*
X03685Y17326D02*
X03670Y17341D01*
X03640Y17356D01*
X03565Y17356D01*
X03535Y17341D01*
X03520Y17326D01*
X03505Y17296D01*
X03505Y17266D01*
X03520Y17221D01*
X03700Y17041D01*
X03505Y17041D01*
X03265Y17206D02*
X03220Y17191D01*
X03205Y17176D01*
X03190Y17146D01*
X03190Y17101D01*
X03205Y17071D01*
X03220Y17056D01*
X03250Y17041D01*
X03370Y17041D01*
X03370Y17356D01*
X03265Y17356D01*
X03235Y17341D01*
X03220Y17326D01*
X03205Y17296D01*
X03205Y17266D01*
X03220Y17236D01*
X03235Y17221D01*
X03265Y17206D01*
X03370Y17206D01*
X03925Y16056D02*
X03880Y16041D01*
X03805Y16041D01*
X03775Y16056D01*
X03760Y16071D01*
X03745Y16101D01*
X03745Y16131D01*
X03760Y16161D01*
X03775Y16176D01*
X03805Y16191D01*
X03865Y16206D01*
X03895Y16221D01*
X03910Y16236D01*
X03925Y16266D01*
X03925Y16296D01*
X03910Y16326D01*
X03895Y16341D01*
X03865Y16356D01*
X03790Y16356D01*
X03745Y16341D01*
X03655Y16356D02*
X03475Y16356D01*
X03565Y16041D02*
X03565Y16356D01*
X03370Y16041D02*
X03370Y16356D01*
X03250Y16356D01*
X03220Y16341D01*
X03205Y16326D01*
X03190Y16296D01*
X03190Y16251D01*
X03205Y16221D01*
X03220Y16206D01*
X03250Y16191D01*
X03370Y16191D01*
X03955Y15356D02*
X03760Y15356D01*
X03865Y15236D01*
X03820Y15236D01*
X03790Y15221D01*
X03775Y15206D01*
X03760Y15176D01*
X03760Y15101D01*
X03775Y15071D01*
X03790Y15056D01*
X03820Y15041D01*
X03910Y15041D01*
X03940Y15056D01*
X03955Y15071D01*
X03670Y15356D02*
X03565Y15041D01*
X03460Y15356D01*
X03385Y15356D02*
X03190Y15356D01*
X03295Y15236D01*
X03250Y15236D01*
X03220Y15221D01*
X03205Y15206D01*
X03190Y15176D01*
X03190Y15101D01*
X03205Y15071D01*
X03220Y15056D01*
X03250Y15041D01*
X03340Y15041D01*
X03370Y15056D01*
X03385Y15071D01*
X03850Y14341D02*
X03880Y14356D01*
X03925Y14356D01*
X03970Y14341D01*
X04000Y14311D01*
X04015Y14281D01*
X04030Y14221D01*
X04030Y14176D01*
X04015Y14116D01*
X04000Y14086D01*
X03970Y14056D01*
X03925Y14041D01*
X03895Y14041D01*
X03850Y14056D01*
X03835Y14071D01*
X03835Y14176D01*
X03895Y14176D01*
X03700Y14041D02*
X03700Y14356D01*
X03520Y14041D01*
X03520Y14356D01*
X03370Y14041D02*
X03370Y14356D01*
X03295Y14356D01*
X03250Y14341D01*
X03220Y14311D01*
X03205Y14281D01*
X03190Y14221D01*
X03190Y14176D01*
X03205Y14116D01*
X03220Y14086D01*
X03250Y14056D01*
X03295Y14041D01*
X03370Y14041D01*
X03349Y28007D02*
X03529Y28007D01*
X03439Y28007D02*
X03439Y28322D01*
X03469Y28277D01*
X03499Y28247D01*
X03529Y28232D01*
X03109Y28172D02*
X03064Y28157D01*
X03049Y28142D01*
X03034Y28112D01*
X03034Y28067D01*
X03049Y28037D01*
X03064Y28022D01*
X03094Y28007D01*
X03214Y28007D01*
X03214Y28322D01*
X03109Y28322D01*
X03079Y28307D01*
X03064Y28292D01*
X03049Y28262D01*
X03049Y28232D01*
X03064Y28202D01*
X03079Y28187D01*
X03109Y28172D01*
X03214Y28172D01*
X03304Y27007D02*
X03484Y27007D01*
X03394Y27007D02*
X03394Y27322D01*
X03424Y27277D01*
X03454Y27247D01*
X03484Y27232D01*
X03184Y27097D02*
X03034Y27097D01*
X03214Y27007D02*
X03109Y27322D01*
X03004Y27007D01*
X03484Y26292D02*
X03469Y26307D01*
X03439Y26322D01*
X03364Y26322D01*
X03334Y26307D01*
X03319Y26292D01*
X03304Y26262D01*
X03304Y26232D01*
X03319Y26187D01*
X03499Y26007D01*
X03304Y26007D01*
X03184Y26097D02*
X03034Y26097D01*
X03214Y26007D02*
X03109Y26322D01*
X03004Y26007D01*
X03529Y25292D02*
X03514Y25307D01*
X03484Y25322D01*
X03409Y25322D01*
X03379Y25307D01*
X03364Y25292D01*
X03349Y25262D01*
X03349Y25232D01*
X03364Y25187D01*
X03544Y25007D01*
X03349Y25007D01*
X03109Y25172D02*
X03064Y25157D01*
X03049Y25142D01*
X03034Y25112D01*
X03034Y25067D01*
X03049Y25037D01*
X03064Y25022D01*
X03094Y25007D01*
X03214Y25007D01*
X03214Y25322D01*
X03109Y25322D01*
X03079Y25307D01*
X03064Y25292D01*
X03049Y25262D01*
X03049Y25232D01*
X03064Y25202D01*
X03079Y25187D01*
X03109Y25172D01*
X03214Y25172D01*
X03769Y24022D02*
X03724Y24007D01*
X03649Y24007D01*
X03619Y24022D01*
X03604Y24037D01*
X03589Y24067D01*
X03589Y24097D01*
X03604Y24127D01*
X03619Y24142D01*
X03649Y24157D01*
X03709Y24172D01*
X03739Y24187D01*
X03754Y24202D01*
X03769Y24232D01*
X03769Y24262D01*
X03754Y24292D01*
X03739Y24307D01*
X03709Y24322D01*
X03634Y24322D01*
X03589Y24307D01*
X03499Y24322D02*
X03319Y24322D01*
X03409Y24007D02*
X03409Y24322D01*
X03214Y24007D02*
X03214Y24322D01*
X03094Y24322D01*
X03064Y24307D01*
X03049Y24292D01*
X03034Y24262D01*
X03034Y24217D01*
X03049Y24187D01*
X03064Y24172D01*
X03094Y24157D01*
X03214Y24157D01*
X03799Y23322D02*
X03604Y23322D01*
X03709Y23202D01*
X03664Y23202D01*
X03634Y23187D01*
X03619Y23172D01*
X03604Y23142D01*
X03604Y23067D01*
X03619Y23037D01*
X03634Y23022D01*
X03664Y23007D01*
X03754Y23007D01*
X03784Y23022D01*
X03799Y23037D01*
X03514Y23322D02*
X03409Y23007D01*
X03304Y23322D01*
X03229Y23322D02*
X03034Y23322D01*
X03139Y23202D01*
X03094Y23202D01*
X03064Y23187D01*
X03049Y23172D01*
X03034Y23142D01*
X03034Y23067D01*
X03049Y23037D01*
X03064Y23022D01*
X03094Y23007D01*
X03184Y23007D01*
X03214Y23022D01*
X03229Y23037D01*
X03694Y22307D02*
X03724Y22322D01*
X03769Y22322D01*
X03814Y22307D01*
X03844Y22277D01*
X03859Y22247D01*
X03874Y22187D01*
X03874Y22142D01*
X03859Y22082D01*
X03844Y22052D01*
X03814Y22022D01*
X03769Y22007D01*
X03739Y22007D01*
X03694Y22022D01*
X03679Y22037D01*
X03679Y22142D01*
X03739Y22142D01*
X03544Y22007D02*
X03544Y22322D01*
X03364Y22007D01*
X03364Y22322D01*
X03214Y22007D02*
X03214Y22322D01*
X03139Y22322D01*
X03094Y22307D01*
X03064Y22277D01*
X03049Y22247D01*
X03034Y22187D01*
X03034Y22142D01*
X03049Y22082D01*
X03064Y22052D01*
X03094Y22022D01*
X03139Y22007D01*
X03214Y22007D01*
X03239Y36037D02*
X03419Y36037D01*
X03329Y36037D02*
X03329Y36352D01*
X03359Y36307D01*
X03389Y36277D01*
X03419Y36262D01*
X02999Y36202D02*
X02954Y36187D01*
X02939Y36172D01*
X02924Y36142D01*
X02924Y36097D01*
X02939Y36067D01*
X02954Y36052D01*
X02984Y36037D01*
X03104Y36037D01*
X03104Y36352D01*
X02999Y36352D01*
X02969Y36337D01*
X02954Y36322D01*
X02939Y36292D01*
X02939Y36262D01*
X02954Y36232D01*
X02969Y36217D01*
X02999Y36202D01*
X03104Y36202D01*
X03194Y35037D02*
X03374Y35037D01*
X03284Y35037D02*
X03284Y35352D01*
X03314Y35307D01*
X03344Y35277D01*
X03374Y35262D01*
X03074Y35127D02*
X02924Y35127D01*
X03104Y35037D02*
X02999Y35352D01*
X02894Y35037D01*
X03374Y34322D02*
X03359Y34337D01*
X03329Y34352D01*
X03254Y34352D01*
X03224Y34337D01*
X03209Y34322D01*
X03194Y34292D01*
X03194Y34262D01*
X03209Y34217D01*
X03389Y34037D01*
X03194Y34037D01*
X03074Y34127D02*
X02924Y34127D01*
X03104Y34037D02*
X02999Y34352D01*
X02894Y34037D01*
X03419Y33322D02*
X03404Y33337D01*
X03374Y33352D01*
X03299Y33352D01*
X03269Y33337D01*
X03254Y33322D01*
X03239Y33292D01*
X03239Y33262D01*
X03254Y33217D01*
X03434Y33037D01*
X03239Y33037D01*
X02999Y33202D02*
X02954Y33187D01*
X02939Y33172D01*
X02924Y33142D01*
X02924Y33097D01*
X02939Y33067D01*
X02954Y33052D01*
X02984Y33037D01*
X03104Y33037D01*
X03104Y33352D01*
X02999Y33352D01*
X02969Y33337D01*
X02954Y33322D01*
X02939Y33292D01*
X02939Y33262D01*
X02954Y33232D01*
X02969Y33217D01*
X02999Y33202D01*
X03104Y33202D01*
X03659Y32052D02*
X03614Y32037D01*
X03539Y32037D01*
X03509Y32052D01*
X03494Y32067D01*
X03479Y32097D01*
X03479Y32127D01*
X03494Y32157D01*
X03509Y32172D01*
X03539Y32187D01*
X03599Y32202D01*
X03629Y32217D01*
X03644Y32232D01*
X03659Y32262D01*
X03659Y32292D01*
X03644Y32322D01*
X03629Y32337D01*
X03599Y32352D01*
X03524Y32352D01*
X03479Y32337D01*
X03389Y32352D02*
X03209Y32352D01*
X03299Y32037D02*
X03299Y32352D01*
X03104Y32037D02*
X03104Y32352D01*
X02984Y32352D01*
X02954Y32337D01*
X02939Y32322D01*
X02924Y32292D01*
X02924Y32247D01*
X02939Y32217D01*
X02954Y32202D01*
X02984Y32187D01*
X03104Y32187D01*
X03689Y31352D02*
X03494Y31352D01*
X03599Y31232D01*
X03554Y31232D01*
X03524Y31217D01*
X03509Y31202D01*
X03494Y31172D01*
X03494Y31097D01*
X03509Y31067D01*
X03524Y31052D01*
X03554Y31037D01*
X03644Y31037D01*
X03674Y31052D01*
X03689Y31067D01*
X03404Y31352D02*
X03299Y31037D01*
X03194Y31352D01*
X03119Y31352D02*
X02924Y31352D01*
X03029Y31232D01*
X02984Y31232D01*
X02954Y31217D01*
X02939Y31202D01*
X02924Y31172D01*
X02924Y31097D01*
X02939Y31067D01*
X02954Y31052D01*
X02984Y31037D01*
X03074Y31037D01*
X03104Y31052D01*
X03119Y31067D01*
X03584Y30337D02*
X03614Y30352D01*
X03659Y30352D01*
X03704Y30337D01*
X03734Y30307D01*
X03749Y30277D01*
X03764Y30217D01*
X03764Y30172D01*
X03749Y30112D01*
X03734Y30082D01*
X03704Y30052D01*
X03659Y30037D01*
X03629Y30037D01*
X03584Y30052D01*
X03569Y30067D01*
X03569Y30172D01*
X03629Y30172D01*
X03434Y30037D02*
X03434Y30352D01*
X03254Y30037D01*
X03254Y30352D01*
X03104Y30037D02*
X03104Y30352D01*
X03029Y30352D01*
X02984Y30337D01*
X02954Y30307D01*
X02939Y30277D01*
X02924Y30217D01*
X02924Y30172D01*
X02939Y30112D01*
X02954Y30082D01*
X02984Y30052D01*
X03029Y30037D01*
X03104Y30037D01*
X03205Y43871D02*
X03385Y43871D01*
X03295Y43871D02*
X03295Y44186D01*
X03325Y44141D01*
X03355Y44111D01*
X03385Y44096D01*
X02965Y44036D02*
X02920Y44021D01*
X02905Y44006D01*
X02890Y43976D01*
X02890Y43931D01*
X02905Y43901D01*
X02920Y43886D01*
X02950Y43871D01*
X03070Y43871D01*
X03070Y44186D01*
X02965Y44186D01*
X02935Y44171D01*
X02920Y44156D01*
X02905Y44126D01*
X02905Y44096D01*
X02920Y44066D01*
X02935Y44051D01*
X02965Y44036D01*
X03070Y44036D01*
X03160Y42871D02*
X03340Y42871D01*
X03250Y42871D02*
X03250Y43186D01*
X03280Y43141D01*
X03310Y43111D01*
X03340Y43096D01*
X03040Y42961D02*
X02890Y42961D01*
X03070Y42871D02*
X02965Y43186D01*
X02860Y42871D01*
X03340Y42156D02*
X03325Y42171D01*
X03295Y42186D01*
X03220Y42186D01*
X03190Y42171D01*
X03175Y42156D01*
X03160Y42126D01*
X03160Y42096D01*
X03175Y42051D01*
X03355Y41871D01*
X03160Y41871D01*
X03040Y41961D02*
X02890Y41961D01*
X03070Y41871D02*
X02965Y42186D01*
X02860Y41871D01*
X03385Y41156D02*
X03370Y41171D01*
X03340Y41186D01*
X03265Y41186D01*
X03235Y41171D01*
X03220Y41156D01*
X03205Y41126D01*
X03205Y41096D01*
X03220Y41051D01*
X03400Y40871D01*
X03205Y40871D01*
X02965Y41036D02*
X02920Y41021D01*
X02905Y41006D01*
X02890Y40976D01*
X02890Y40931D01*
X02905Y40901D01*
X02920Y40886D01*
X02950Y40871D01*
X03070Y40871D01*
X03070Y41186D01*
X02965Y41186D01*
X02935Y41171D01*
X02920Y41156D01*
X02905Y41126D01*
X02905Y41096D01*
X02920Y41066D01*
X02935Y41051D01*
X02965Y41036D01*
X03070Y41036D01*
X03625Y39886D02*
X03580Y39871D01*
X03505Y39871D01*
X03475Y39886D01*
X03460Y39901D01*
X03445Y39931D01*
X03445Y39961D01*
X03460Y39991D01*
X03475Y40006D01*
X03505Y40021D01*
X03565Y40036D01*
X03595Y40051D01*
X03610Y40066D01*
X03625Y40096D01*
X03625Y40126D01*
X03610Y40156D01*
X03595Y40171D01*
X03565Y40186D01*
X03490Y40186D01*
X03445Y40171D01*
X03355Y40186D02*
X03175Y40186D01*
X03265Y39871D02*
X03265Y40186D01*
X03070Y39871D02*
X03070Y40186D01*
X02950Y40186D01*
X02920Y40171D01*
X02905Y40156D01*
X02890Y40126D01*
X02890Y40081D01*
X02905Y40051D01*
X02920Y40036D01*
X02950Y40021D01*
X03070Y40021D01*
X03655Y39186D02*
X03460Y39186D01*
X03565Y39066D01*
X03520Y39066D01*
X03490Y39051D01*
X03475Y39036D01*
X03460Y39006D01*
X03460Y38931D01*
X03475Y38901D01*
X03490Y38886D01*
X03520Y38871D01*
X03610Y38871D01*
X03640Y38886D01*
X03655Y38901D01*
X03370Y39186D02*
X03265Y38871D01*
X03160Y39186D01*
X03085Y39186D02*
X02890Y39186D01*
X02995Y39066D01*
X02950Y39066D01*
X02920Y39051D01*
X02905Y39036D01*
X02890Y39006D01*
X02890Y38931D01*
X02905Y38901D01*
X02920Y38886D01*
X02950Y38871D01*
X03040Y38871D01*
X03070Y38886D01*
X03085Y38901D01*
X03550Y38171D02*
X03580Y38186D01*
X03625Y38186D01*
X03670Y38171D01*
X03700Y38141D01*
X03715Y38111D01*
X03730Y38051D01*
X03730Y38006D01*
X03715Y37946D01*
X03700Y37916D01*
X03670Y37886D01*
X03625Y37871D01*
X03595Y37871D01*
X03550Y37886D01*
X03535Y37901D01*
X03535Y38006D01*
X03595Y38006D01*
X03400Y37871D02*
X03400Y38186D01*
X03220Y37871D01*
X03220Y38186D01*
X03070Y37871D02*
X03070Y38186D01*
X02995Y38186D01*
X02950Y38171D01*
X02920Y38141D01*
X02905Y38111D01*
X02890Y38051D01*
X02890Y38006D01*
X02905Y37946D01*
X02920Y37916D01*
X02950Y37886D01*
X02995Y37871D01*
X03070Y37871D01*
G54D14*
X24179Y13400D02*
X32579Y13400D01*
X32579Y14400D02*
X24179Y14400D01*
X24179Y15400D02*
X32579Y15400D01*
X32579Y16400D02*
X24179Y16400D01*
X24179Y17400D02*
X32579Y17400D01*
X32579Y18400D02*
X24179Y18400D01*
X24179Y19400D02*
X32579Y19400D01*
X32579Y20400D02*
X24179Y20400D01*
X24179Y21400D02*
X32579Y21400D01*
X32579Y22400D02*
X24179Y22400D01*
X24179Y23400D02*
X32579Y23400D01*
X32579Y24400D02*
X24179Y24400D01*
X24179Y25400D02*
X32579Y25400D01*
X32579Y26400D02*
X24179Y26400D01*
X24179Y27400D02*
X32579Y27400D01*
X32579Y28400D02*
X24179Y28400D01*
X24179Y29400D02*
X32579Y29400D01*
X32579Y30400D02*
X24179Y30400D01*
X24179Y31400D02*
X32579Y31400D01*
X32579Y32400D02*
X24179Y32400D01*
X24179Y33400D02*
X32579Y33400D01*
X32579Y34400D02*
X24179Y34400D01*
X24179Y35400D02*
X32579Y35400D01*
X32579Y36400D02*
X24179Y36400D01*
X24179Y37400D02*
X32579Y37400D01*
X32579Y38400D02*
X24179Y38400D01*
X24179Y39400D02*
X32579Y39400D01*
G54D13*
X39939Y44358D02*
X39924Y44373D01*
X39894Y44388D01*
X39819Y44388D01*
X39789Y44373D01*
X39774Y44358D01*
X39759Y44328D01*
X39759Y44298D01*
X39774Y44253D01*
X39954Y44073D01*
X39759Y44073D01*
X38019Y44073D02*
X38199Y44073D01*
X38109Y44073D02*
X38109Y44388D01*
X38139Y44343D01*
X38169Y44313D01*
X38199Y44298D01*
G54D14*
X28379Y39400D02*
X28379Y13400D01*
X31579Y13400D02*
X31579Y39400D01*
X32579Y39400D02*
X32579Y13400D01*
X27379Y13400D02*
X27379Y39400D01*
X24179Y39400D02*
X24179Y13400D01*
G54D13*
X31139Y38073D02*
X31169Y38088D01*
X31214Y38088D01*
X31259Y38073D01*
X31289Y38043D01*
X31304Y38013D01*
X31319Y37953D01*
X31319Y37908D01*
X31304Y37848D01*
X31289Y37818D01*
X31259Y37788D01*
X31214Y37773D01*
X31184Y37773D01*
X31139Y37788D01*
X31124Y37803D01*
X31124Y37908D01*
X31184Y37908D01*
X30989Y37773D02*
X30989Y38088D01*
X30809Y37773D01*
X30809Y38088D01*
X30659Y37773D02*
X30659Y38088D01*
X30584Y38088D01*
X30539Y38073D01*
X30509Y38043D01*
X30494Y38013D01*
X30479Y37953D01*
X30479Y37908D01*
X30494Y37848D01*
X30509Y37818D01*
X30539Y37788D01*
X30584Y37773D01*
X30659Y37773D01*
X31124Y36773D02*
X31229Y36923D01*
X31304Y36773D02*
X31304Y37088D01*
X31184Y37088D01*
X31154Y37073D01*
X31139Y37058D01*
X31124Y37028D01*
X31124Y36983D01*
X31139Y36953D01*
X31154Y36938D01*
X31184Y36923D01*
X31304Y36923D01*
X31004Y36788D02*
X30959Y36773D01*
X30884Y36773D01*
X30854Y36788D01*
X30839Y36803D01*
X30824Y36833D01*
X30824Y36863D01*
X30839Y36893D01*
X30854Y36908D01*
X30884Y36923D01*
X30944Y36938D01*
X30974Y36953D01*
X30989Y36968D01*
X31004Y36998D01*
X31004Y37028D01*
X30989Y37058D01*
X30974Y37073D01*
X30944Y37088D01*
X30869Y37088D01*
X30824Y37073D01*
X30734Y37088D02*
X30554Y37088D01*
X30644Y36773D02*
X30644Y37088D01*
X31349Y36088D02*
X31169Y36088D01*
X31259Y35773D02*
X31259Y36088D01*
X31094Y36088D02*
X31019Y35773D01*
X30959Y35998D01*
X30899Y35773D01*
X30824Y36088D01*
X30524Y35803D02*
X30539Y35788D01*
X30584Y35773D01*
X30614Y35773D01*
X30659Y35788D01*
X30689Y35818D01*
X30704Y35848D01*
X30719Y35908D01*
X30719Y35953D01*
X30704Y36013D01*
X30689Y36043D01*
X30659Y36073D01*
X30614Y36088D01*
X30584Y36088D01*
X30539Y36073D01*
X30524Y36058D01*
X30389Y35773D02*
X30389Y36088D01*
X30209Y35773D02*
X30344Y35953D01*
X30209Y36088D02*
X30389Y35908D01*
X30014Y36088D02*
X29984Y36088D01*
X29954Y36073D01*
X29939Y36058D01*
X29924Y36028D01*
X29909Y35968D01*
X29909Y35893D01*
X29924Y35833D01*
X29939Y35803D01*
X29954Y35788D01*
X29984Y35773D01*
X30014Y35773D01*
X30044Y35788D01*
X30059Y35803D01*
X30074Y35833D01*
X30089Y35893D01*
X30089Y35968D01*
X30074Y36028D01*
X30059Y36058D01*
X30044Y36073D01*
X30014Y36088D01*
X31304Y35088D02*
X31304Y34833D01*
X31289Y34803D01*
X31274Y34788D01*
X31244Y34773D01*
X31184Y34773D01*
X31154Y34788D01*
X31139Y34803D01*
X31124Y34833D01*
X31124Y35088D01*
X31019Y35088D02*
X30839Y35088D01*
X30929Y34773D02*
X30929Y35088D01*
X30764Y35088D02*
X30554Y34773D01*
X30554Y35088D02*
X30764Y34773D01*
X30434Y34773D02*
X30434Y35088D01*
X30359Y35088D01*
X30314Y35073D01*
X30284Y35043D01*
X30269Y35013D01*
X30254Y34953D01*
X30254Y34908D01*
X30269Y34848D01*
X30284Y34818D01*
X30314Y34788D01*
X30359Y34773D01*
X30434Y34773D01*
X31304Y33773D02*
X31304Y34088D01*
X31184Y34088D01*
X31154Y34073D01*
X31139Y34058D01*
X31124Y34028D01*
X31124Y33983D01*
X31139Y33953D01*
X31154Y33938D01*
X31184Y33923D01*
X31304Y33923D01*
X31004Y33863D02*
X30854Y33863D01*
X31034Y33773D02*
X30929Y34088D01*
X30824Y33773D01*
X30554Y33773D02*
X30734Y33773D01*
X30644Y33773D02*
X30644Y34088D01*
X30674Y34043D01*
X30704Y34013D01*
X30734Y33998D01*
X30284Y33983D02*
X30284Y33773D01*
X30359Y34103D02*
X30434Y33878D01*
X30239Y33878D01*
X31124Y32773D02*
X31229Y32923D01*
X31304Y32773D02*
X31304Y33088D01*
X31184Y33088D01*
X31154Y33073D01*
X31139Y33058D01*
X31124Y33028D01*
X31124Y32983D01*
X31139Y32953D01*
X31154Y32938D01*
X31184Y32923D01*
X31304Y32923D01*
X31019Y33088D02*
X30809Y32773D01*
X30809Y33088D02*
X31019Y32773D01*
X30689Y32773D02*
X30689Y33088D01*
X30614Y33088D01*
X30569Y33073D01*
X30539Y33043D01*
X30524Y33013D01*
X30509Y32953D01*
X30509Y32908D01*
X30524Y32848D01*
X30539Y32818D01*
X30569Y32788D01*
X30614Y32773D01*
X30689Y32773D01*
X30209Y32773D02*
X30389Y32773D01*
X30299Y32773D02*
X30299Y33088D01*
X30329Y33043D01*
X30359Y33013D01*
X30389Y32998D01*
X31124Y31773D02*
X31229Y31923D01*
X31304Y31773D02*
X31304Y32088D01*
X31184Y32088D01*
X31154Y32073D01*
X31139Y32058D01*
X31124Y32028D01*
X31124Y31983D01*
X31139Y31953D01*
X31154Y31938D01*
X31184Y31923D01*
X31304Y31923D01*
X31019Y32088D02*
X30809Y31773D01*
X30809Y32088D02*
X31019Y31773D01*
X30689Y31773D02*
X30689Y32088D01*
X30614Y32088D01*
X30569Y32073D01*
X30539Y32043D01*
X30524Y32013D01*
X30509Y31953D01*
X30509Y31908D01*
X30524Y31848D01*
X30539Y31818D01*
X30569Y31788D01*
X30614Y31773D01*
X30689Y31773D01*
X30314Y32088D02*
X30284Y32088D01*
X30254Y32073D01*
X30239Y32058D01*
X30224Y32028D01*
X30209Y31968D01*
X30209Y31893D01*
X30224Y31833D01*
X30239Y31803D01*
X30254Y31788D01*
X30284Y31773D01*
X30314Y31773D01*
X30344Y31788D01*
X30359Y31803D01*
X30374Y31833D01*
X30389Y31893D01*
X30389Y31968D01*
X30374Y32028D01*
X30359Y32058D01*
X30344Y32073D01*
X30314Y32088D01*
X31304Y30773D02*
X31304Y31088D01*
X31184Y31088D01*
X31154Y31073D01*
X31139Y31058D01*
X31124Y31028D01*
X31124Y30983D01*
X31139Y30953D01*
X31154Y30938D01*
X31184Y30923D01*
X31304Y30923D01*
X30809Y30803D02*
X30824Y30788D01*
X30869Y30773D01*
X30899Y30773D01*
X30944Y30788D01*
X30974Y30818D01*
X30989Y30848D01*
X31004Y30908D01*
X31004Y30953D01*
X30989Y31013D01*
X30974Y31043D01*
X30944Y31073D01*
X30899Y31088D01*
X30869Y31088D01*
X30824Y31073D01*
X30809Y31058D01*
X30704Y31088D02*
X30509Y31088D01*
X30614Y30968D01*
X30569Y30968D01*
X30539Y30953D01*
X30524Y30938D01*
X30509Y30908D01*
X30509Y30833D01*
X30524Y30803D01*
X30539Y30788D01*
X30569Y30773D01*
X30659Y30773D01*
X30689Y30788D01*
X30704Y30803D01*
X31304Y29773D02*
X31304Y30088D01*
X31184Y30088D01*
X31154Y30073D01*
X31139Y30058D01*
X31124Y30028D01*
X31124Y29983D01*
X31139Y29953D01*
X31154Y29938D01*
X31184Y29923D01*
X31304Y29923D01*
X30809Y29803D02*
X30824Y29788D01*
X30869Y29773D01*
X30899Y29773D01*
X30944Y29788D01*
X30974Y29818D01*
X30989Y29848D01*
X31004Y29908D01*
X31004Y29953D01*
X30989Y30013D01*
X30974Y30043D01*
X30944Y30073D01*
X30899Y30088D01*
X30869Y30088D01*
X30824Y30073D01*
X30809Y30058D01*
X30539Y30088D02*
X30599Y30088D01*
X30629Y30073D01*
X30644Y30058D01*
X30674Y30013D01*
X30689Y29953D01*
X30689Y29833D01*
X30674Y29803D01*
X30659Y29788D01*
X30629Y29773D01*
X30569Y29773D01*
X30539Y29788D01*
X30524Y29803D01*
X30509Y29833D01*
X30509Y29908D01*
X30524Y29938D01*
X30539Y29953D01*
X30569Y29968D01*
X30629Y29968D01*
X30659Y29953D01*
X30674Y29938D01*
X30689Y29908D01*
X31304Y28773D02*
X31304Y29088D01*
X31184Y29088D01*
X31154Y29073D01*
X31139Y29058D01*
X31124Y29028D01*
X31124Y28983D01*
X31139Y28953D01*
X31154Y28938D01*
X31184Y28923D01*
X31304Y28923D01*
X30809Y28803D02*
X30824Y28788D01*
X30869Y28773D01*
X30899Y28773D01*
X30944Y28788D01*
X30974Y28818D01*
X30989Y28848D01*
X31004Y28908D01*
X31004Y28953D01*
X30989Y29013D01*
X30974Y29043D01*
X30944Y29073D01*
X30899Y29088D01*
X30869Y29088D01*
X30824Y29073D01*
X30809Y29058D01*
X30704Y29088D02*
X30494Y29088D01*
X30629Y28773D01*
X31304Y27773D02*
X31304Y28088D01*
X31184Y28088D01*
X31154Y28073D01*
X31139Y28058D01*
X31124Y28028D01*
X31124Y27983D01*
X31139Y27953D01*
X31154Y27938D01*
X31184Y27923D01*
X31304Y27923D01*
X30809Y27803D02*
X30824Y27788D01*
X30869Y27773D01*
X30899Y27773D01*
X30944Y27788D01*
X30974Y27818D01*
X30989Y27848D01*
X31004Y27908D01*
X31004Y27953D01*
X30989Y28013D01*
X30974Y28043D01*
X30944Y28073D01*
X30899Y28088D01*
X30869Y28088D01*
X30824Y28073D01*
X30809Y28058D01*
X30689Y28058D02*
X30674Y28073D01*
X30644Y28088D01*
X30569Y28088D01*
X30539Y28073D01*
X30524Y28058D01*
X30509Y28028D01*
X30509Y27998D01*
X30524Y27953D01*
X30704Y27773D01*
X30509Y27773D01*
X30389Y28058D02*
X30374Y28073D01*
X30344Y28088D01*
X30269Y28088D01*
X30239Y28073D01*
X30224Y28058D01*
X30209Y28028D01*
X30209Y27998D01*
X30224Y27953D01*
X30404Y27773D01*
X30209Y27773D01*
X31304Y26773D02*
X31304Y27088D01*
X31184Y27088D01*
X31154Y27073D01*
X31139Y27058D01*
X31124Y27028D01*
X31124Y26983D01*
X31139Y26953D01*
X31154Y26938D01*
X31184Y26923D01*
X31304Y26923D01*
X30809Y26803D02*
X30824Y26788D01*
X30869Y26773D01*
X30899Y26773D01*
X30944Y26788D01*
X30974Y26818D01*
X30989Y26848D01*
X31004Y26908D01*
X31004Y26953D01*
X30989Y27013D01*
X30974Y27043D01*
X30944Y27073D01*
X30899Y27088D01*
X30869Y27088D01*
X30824Y27073D01*
X30809Y27058D01*
X30689Y27058D02*
X30674Y27073D01*
X30644Y27088D01*
X30569Y27088D01*
X30539Y27073D01*
X30524Y27058D01*
X30509Y27028D01*
X30509Y26998D01*
X30524Y26953D01*
X30704Y26773D01*
X30509Y26773D01*
X30314Y27088D02*
X30284Y27088D01*
X30254Y27073D01*
X30239Y27058D01*
X30224Y27028D01*
X30209Y26968D01*
X30209Y26893D01*
X30224Y26833D01*
X30239Y26803D01*
X30254Y26788D01*
X30284Y26773D01*
X30314Y26773D01*
X30344Y26788D01*
X30359Y26803D01*
X30374Y26833D01*
X30389Y26893D01*
X30389Y26968D01*
X30374Y27028D01*
X30359Y27058D01*
X30344Y27073D01*
X30314Y27088D01*
X31304Y25773D02*
X31304Y26088D01*
X31124Y25773D01*
X31124Y26088D01*
X30974Y25773D02*
X30974Y26088D01*
X30854Y26088D01*
X30824Y26073D01*
X30809Y26058D01*
X30794Y26028D01*
X30794Y25983D01*
X30809Y25953D01*
X30824Y25938D01*
X30854Y25923D01*
X30974Y25923D01*
X30479Y25803D02*
X30494Y25788D01*
X30539Y25773D01*
X30569Y25773D01*
X30614Y25788D01*
X30644Y25818D01*
X30659Y25848D01*
X30674Y25908D01*
X30674Y25953D01*
X30659Y26013D01*
X30644Y26043D01*
X30614Y26073D01*
X30569Y26088D01*
X30539Y26088D01*
X30494Y26073D01*
X30479Y26058D01*
X30359Y25788D02*
X30314Y25773D01*
X30239Y25773D01*
X30209Y25788D01*
X30194Y25803D01*
X30179Y25833D01*
X30179Y25863D01*
X30194Y25893D01*
X30209Y25908D01*
X30239Y25923D01*
X30299Y25938D01*
X30329Y25953D01*
X30344Y25968D01*
X30359Y25998D01*
X30359Y26028D01*
X30344Y26058D01*
X30329Y26073D01*
X30299Y26088D01*
X30224Y26088D01*
X30179Y26073D01*
X29879Y25773D02*
X30059Y25773D01*
X29969Y25773D02*
X29969Y26088D01*
X29999Y26043D01*
X30029Y26013D01*
X30059Y25998D01*
X31319Y24788D02*
X31274Y24773D01*
X31199Y24773D01*
X31169Y24788D01*
X31154Y24803D01*
X31139Y24833D01*
X31139Y24863D01*
X31154Y24893D01*
X31169Y24908D01*
X31199Y24923D01*
X31259Y24938D01*
X31289Y24953D01*
X31304Y24968D01*
X31319Y24998D01*
X31319Y25028D01*
X31304Y25058D01*
X31289Y25073D01*
X31259Y25088D01*
X31184Y25088D01*
X31139Y25073D01*
X31004Y24773D02*
X31004Y25088D01*
X30884Y25088D01*
X30854Y25073D01*
X30839Y25058D01*
X30824Y25028D01*
X30824Y24983D01*
X30839Y24953D01*
X30854Y24938D01*
X30884Y24923D01*
X31004Y24923D01*
X30509Y24803D02*
X30524Y24788D01*
X30569Y24773D01*
X30599Y24773D01*
X30644Y24788D01*
X30674Y24818D01*
X30689Y24848D01*
X30704Y24908D01*
X30704Y24953D01*
X30689Y25013D01*
X30674Y25043D01*
X30644Y25073D01*
X30599Y25088D01*
X30569Y25088D01*
X30524Y25073D01*
X30509Y25058D01*
X30374Y24773D02*
X30374Y25088D01*
X30194Y24773D02*
X30329Y24953D01*
X30194Y25088D02*
X30374Y24908D01*
X29999Y25088D02*
X29969Y25088D01*
X29939Y25073D01*
X29924Y25058D01*
X29909Y25028D01*
X29894Y24968D01*
X29894Y24893D01*
X29909Y24833D01*
X29924Y24803D01*
X29939Y24788D01*
X29969Y24773D01*
X29999Y24773D01*
X30029Y24788D01*
X30044Y24803D01*
X30059Y24833D01*
X30074Y24893D01*
X30074Y24968D01*
X30059Y25028D01*
X30044Y25058D01*
X30029Y25073D01*
X29999Y25088D01*
X31304Y23773D02*
X31304Y24088D01*
X31199Y23863D01*
X31094Y24088D01*
X31094Y23773D01*
X30944Y23773D02*
X30944Y24088D01*
X30809Y23788D02*
X30764Y23773D01*
X30689Y23773D01*
X30659Y23788D01*
X30644Y23803D01*
X30629Y23833D01*
X30629Y23863D01*
X30644Y23893D01*
X30659Y23908D01*
X30689Y23923D01*
X30749Y23938D01*
X30779Y23953D01*
X30794Y23968D01*
X30809Y23998D01*
X30809Y24028D01*
X30794Y24058D01*
X30779Y24073D01*
X30749Y24088D01*
X30674Y24088D01*
X30629Y24073D01*
X30434Y24088D02*
X30374Y24088D01*
X30344Y24073D01*
X30314Y24043D01*
X30299Y23983D01*
X30299Y23878D01*
X30314Y23818D01*
X30344Y23788D01*
X30374Y23773D01*
X30434Y23773D01*
X30464Y23788D01*
X30494Y23818D01*
X30509Y23878D01*
X30509Y23983D01*
X30494Y24043D01*
X30464Y24073D01*
X30434Y24088D01*
X30104Y24088D02*
X30074Y24088D01*
X30044Y24073D01*
X30029Y24058D01*
X30014Y24028D01*
X29999Y23968D01*
X29999Y23893D01*
X30014Y23833D01*
X30029Y23803D01*
X30044Y23788D01*
X30074Y23773D01*
X30104Y23773D01*
X30134Y23788D01*
X30149Y23803D01*
X30164Y23833D01*
X30179Y23893D01*
X30179Y23968D01*
X30164Y24028D01*
X30149Y24058D01*
X30134Y24073D01*
X30104Y24088D01*
X31304Y22773D02*
X31304Y23088D01*
X31184Y23088D01*
X31154Y23073D01*
X31139Y23058D01*
X31124Y23028D01*
X31124Y22983D01*
X31139Y22953D01*
X31154Y22938D01*
X31184Y22923D01*
X31304Y22923D01*
X30884Y22938D02*
X30839Y22923D01*
X30824Y22908D01*
X30809Y22878D01*
X30809Y22833D01*
X30824Y22803D01*
X30839Y22788D01*
X30869Y22773D01*
X30989Y22773D01*
X30989Y23088D01*
X30884Y23088D01*
X30854Y23073D01*
X30839Y23058D01*
X30824Y23028D01*
X30824Y22998D01*
X30839Y22968D01*
X30854Y22953D01*
X30884Y22938D01*
X30989Y22938D01*
X30509Y22773D02*
X30689Y22773D01*
X30599Y22773D02*
X30599Y23088D01*
X30629Y23043D01*
X30659Y23013D01*
X30689Y22998D01*
X30239Y23088D02*
X30299Y23088D01*
X30329Y23073D01*
X30344Y23058D01*
X30374Y23013D01*
X30389Y22953D01*
X30389Y22833D01*
X30374Y22803D01*
X30359Y22788D01*
X30329Y22773D01*
X30269Y22773D01*
X30239Y22788D01*
X30224Y22803D01*
X30209Y22833D01*
X30209Y22908D01*
X30224Y22938D01*
X30239Y22953D01*
X30269Y22968D01*
X30329Y22968D01*
X30359Y22953D01*
X30374Y22938D01*
X30389Y22908D01*
X31319Y21863D02*
X31169Y21863D01*
X31349Y21773D02*
X31244Y22088D01*
X31139Y21773D01*
X31034Y21773D02*
X31034Y22088D01*
X30959Y22088D01*
X30914Y22073D01*
X30884Y22043D01*
X30869Y22013D01*
X30854Y21953D01*
X30854Y21908D01*
X30869Y21848D01*
X30884Y21818D01*
X30914Y21788D01*
X30959Y21773D01*
X31034Y21773D01*
X30659Y22088D02*
X30629Y22088D01*
X30599Y22073D01*
X30584Y22058D01*
X30569Y22028D01*
X30554Y21968D01*
X30554Y21893D01*
X30569Y21833D01*
X30584Y21803D01*
X30599Y21788D01*
X30629Y21773D01*
X30659Y21773D01*
X30689Y21788D01*
X30704Y21803D01*
X30719Y21833D01*
X30734Y21893D01*
X30734Y21968D01*
X30719Y22028D01*
X30704Y22058D01*
X30689Y22073D01*
X30659Y22088D01*
X31349Y21088D02*
X31169Y21088D01*
X31259Y20773D02*
X31259Y21088D01*
X31094Y21088D02*
X31019Y20773D01*
X30959Y20998D01*
X30899Y20773D01*
X30824Y21088D01*
X30524Y20803D02*
X30539Y20788D01*
X30584Y20773D01*
X30614Y20773D01*
X30659Y20788D01*
X30689Y20818D01*
X30704Y20848D01*
X30719Y20908D01*
X30719Y20953D01*
X30704Y21013D01*
X30689Y21043D01*
X30659Y21073D01*
X30614Y21088D01*
X30584Y21088D01*
X30539Y21073D01*
X30524Y21058D01*
X30389Y20773D02*
X30389Y21088D01*
X30209Y20773D02*
X30344Y20953D01*
X30209Y21088D02*
X30389Y20908D01*
X29909Y20773D02*
X30089Y20773D01*
X29999Y20773D02*
X29999Y21088D01*
X30029Y21043D01*
X30059Y21013D01*
X30089Y20998D01*
X31319Y19863D02*
X31169Y19863D01*
X31349Y19773D02*
X31244Y20088D01*
X31139Y19773D01*
X31034Y19773D02*
X31034Y20088D01*
X30959Y20088D01*
X30914Y20073D01*
X30884Y20043D01*
X30869Y20013D01*
X30854Y19953D01*
X30854Y19908D01*
X30869Y19848D01*
X30884Y19818D01*
X30914Y19788D01*
X30959Y19773D01*
X31034Y19773D01*
X30554Y19773D02*
X30734Y19773D01*
X30644Y19773D02*
X30644Y20088D01*
X30674Y20043D01*
X30704Y20013D01*
X30734Y19998D01*
X30254Y19773D02*
X30434Y19773D01*
X30344Y19773D02*
X30344Y20088D01*
X30374Y20043D01*
X30404Y20013D01*
X30434Y19998D01*
X31319Y18863D02*
X31169Y18863D01*
X31349Y18773D02*
X31244Y19088D01*
X31139Y18773D01*
X31034Y18773D02*
X31034Y19088D01*
X30959Y19088D01*
X30914Y19073D01*
X30884Y19043D01*
X30869Y19013D01*
X30854Y18953D01*
X30854Y18908D01*
X30869Y18848D01*
X30884Y18818D01*
X30914Y18788D01*
X30959Y18773D01*
X31034Y18773D01*
X30554Y18773D02*
X30734Y18773D01*
X30644Y18773D02*
X30644Y19088D01*
X30674Y19043D01*
X30704Y19013D01*
X30734Y18998D01*
X30449Y19088D02*
X30254Y19088D01*
X30359Y18968D01*
X30314Y18968D01*
X30284Y18953D01*
X30269Y18938D01*
X30254Y18908D01*
X30254Y18833D01*
X30269Y18803D01*
X30284Y18788D01*
X30314Y18773D01*
X30404Y18773D01*
X30434Y18788D01*
X30449Y18803D01*
X31304Y17773D02*
X31304Y18088D01*
X31184Y18088D01*
X31154Y18073D01*
X31139Y18058D01*
X31124Y18028D01*
X31124Y17983D01*
X31139Y17953D01*
X31154Y17938D01*
X31184Y17923D01*
X31304Y17923D01*
X30809Y17803D02*
X30824Y17788D01*
X30869Y17773D01*
X30899Y17773D01*
X30944Y17788D01*
X30974Y17818D01*
X30989Y17848D01*
X31004Y17908D01*
X31004Y17953D01*
X30989Y18013D01*
X30974Y18043D01*
X30944Y18073D01*
X30899Y18088D01*
X30869Y18088D01*
X30824Y18073D01*
X30809Y18058D01*
X30509Y17773D02*
X30689Y17773D01*
X30599Y17773D02*
X30599Y18088D01*
X30629Y18043D01*
X30659Y18013D01*
X30689Y17998D01*
X30209Y17773D02*
X30389Y17773D01*
X30299Y17773D02*
X30299Y18088D01*
X30329Y18043D01*
X30359Y18013D01*
X30389Y17998D01*
X31304Y16773D02*
X31304Y17088D01*
X31184Y17088D01*
X31154Y17073D01*
X31139Y17058D01*
X31124Y17028D01*
X31124Y16983D01*
X31139Y16953D01*
X31154Y16938D01*
X31184Y16923D01*
X31304Y16923D01*
X30809Y16803D02*
X30824Y16788D01*
X30869Y16773D01*
X30899Y16773D01*
X30944Y16788D01*
X30974Y16818D01*
X30989Y16848D01*
X31004Y16908D01*
X31004Y16953D01*
X30989Y17013D01*
X30974Y17043D01*
X30944Y17073D01*
X30899Y17088D01*
X30869Y17088D01*
X30824Y17073D01*
X30809Y17058D01*
X30509Y16773D02*
X30689Y16773D01*
X30599Y16773D02*
X30599Y17088D01*
X30629Y17043D01*
X30659Y17013D01*
X30689Y16998D01*
X30404Y17088D02*
X30209Y17088D01*
X30314Y16968D01*
X30269Y16968D01*
X30239Y16953D01*
X30224Y16938D01*
X30209Y16908D01*
X30209Y16833D01*
X30224Y16803D01*
X30239Y16788D01*
X30269Y16773D01*
X30359Y16773D01*
X30389Y16788D01*
X30404Y16803D01*
X31304Y15773D02*
X31304Y16088D01*
X31184Y16088D01*
X31154Y16073D01*
X31139Y16058D01*
X31124Y16028D01*
X31124Y15983D01*
X31139Y15953D01*
X31154Y15938D01*
X31184Y15923D01*
X31304Y15923D01*
X30809Y15803D02*
X30824Y15788D01*
X30869Y15773D01*
X30899Y15773D01*
X30944Y15788D01*
X30974Y15818D01*
X30989Y15848D01*
X31004Y15908D01*
X31004Y15953D01*
X30989Y16013D01*
X30974Y16043D01*
X30944Y16073D01*
X30899Y16088D01*
X30869Y16088D01*
X30824Y16073D01*
X30809Y16058D01*
X30509Y15773D02*
X30689Y15773D01*
X30599Y15773D02*
X30599Y16088D01*
X30629Y16043D01*
X30659Y16013D01*
X30689Y15998D01*
X30224Y16088D02*
X30374Y16088D01*
X30389Y15938D01*
X30374Y15953D01*
X30344Y15968D01*
X30269Y15968D01*
X30239Y15953D01*
X30224Y15938D01*
X30209Y15908D01*
X30209Y15833D01*
X30224Y15803D01*
X30239Y15788D01*
X30269Y15773D01*
X30344Y15773D01*
X30374Y15788D01*
X30389Y15803D01*
X31304Y14773D02*
X31304Y15088D01*
X31184Y15088D01*
X31154Y15073D01*
X31139Y15058D01*
X31124Y15028D01*
X31124Y14983D01*
X31139Y14953D01*
X31154Y14938D01*
X31184Y14923D01*
X31304Y14923D01*
X30809Y14803D02*
X30824Y14788D01*
X30869Y14773D01*
X30899Y14773D01*
X30944Y14788D01*
X30974Y14818D01*
X30989Y14848D01*
X31004Y14908D01*
X31004Y14953D01*
X30989Y15013D01*
X30974Y15043D01*
X30944Y15073D01*
X30899Y15088D01*
X30869Y15088D01*
X30824Y15073D01*
X30809Y15058D01*
X30509Y14773D02*
X30689Y14773D01*
X30599Y14773D02*
X30599Y15088D01*
X30629Y15043D01*
X30659Y15013D01*
X30689Y14998D01*
X30404Y15088D02*
X30194Y15088D01*
X30329Y14773D01*
X31304Y13773D02*
X31304Y14088D01*
X31184Y14088D01*
X31154Y14073D01*
X31139Y14058D01*
X31124Y14028D01*
X31124Y13983D01*
X31139Y13953D01*
X31154Y13938D01*
X31184Y13923D01*
X31304Y13923D01*
X30809Y13803D02*
X30824Y13788D01*
X30869Y13773D01*
X30899Y13773D01*
X30944Y13788D01*
X30974Y13818D01*
X30989Y13848D01*
X31004Y13908D01*
X31004Y13953D01*
X30989Y14013D01*
X30974Y14043D01*
X30944Y14073D01*
X30899Y14088D01*
X30869Y14088D01*
X30824Y14073D01*
X30809Y14058D01*
X30509Y13773D02*
X30689Y13773D01*
X30599Y13773D02*
X30599Y14088D01*
X30629Y14043D01*
X30659Y14013D01*
X30689Y13998D01*
X30359Y13773D02*
X30299Y13773D01*
X30269Y13788D01*
X30254Y13803D01*
X30224Y13848D01*
X30209Y13908D01*
X30209Y14028D01*
X30224Y14058D01*
X30239Y14073D01*
X30269Y14088D01*
X30329Y14088D01*
X30359Y14073D01*
X30374Y14058D01*
X30389Y14028D01*
X30389Y13953D01*
X30374Y13923D01*
X30359Y13908D01*
X30329Y13893D01*
X30269Y13893D01*
X30239Y13908D01*
X30224Y13923D01*
X30209Y13953D01*
X28201Y38773D02*
X28201Y39088D01*
X28081Y39088D01*
X28051Y39073D01*
X28036Y39058D01*
X28021Y39028D01*
X28021Y38983D01*
X28036Y38953D01*
X28051Y38938D01*
X28081Y38923D01*
X28201Y38923D01*
X27886Y38773D02*
X27886Y39088D01*
X27736Y38773D02*
X27736Y39088D01*
X27556Y38773D01*
X27556Y39088D01*
X36270Y46291D02*
X36300Y46306D01*
X36345Y46306D01*
X36390Y46291D01*
X36420Y46261D01*
X36435Y46231D01*
X36450Y46171D01*
X36450Y46126D01*
X36435Y46066D01*
X36420Y46036D01*
X36390Y46006D01*
X36345Y45991D01*
X36315Y45991D01*
X36270Y46006D01*
X36255Y46021D01*
X36255Y46126D01*
X36315Y46126D01*
X36120Y45991D02*
X36120Y46306D01*
X35940Y45991D01*
X35940Y46306D01*
X35790Y45991D02*
X35790Y46306D01*
X35715Y46306D01*
X35670Y46291D01*
X35640Y46261D01*
X35625Y46231D01*
X35610Y46171D01*
X35610Y46126D01*
X35625Y46066D01*
X35640Y46036D01*
X35670Y46006D01*
X35715Y45991D01*
X35790Y45991D01*
X35055Y45991D02*
X35160Y46141D01*
X35235Y45991D02*
X35235Y46306D01*
X35115Y46306D01*
X35085Y46291D01*
X35070Y46276D01*
X35055Y46246D01*
X35055Y46201D01*
X35070Y46171D01*
X35085Y46156D01*
X35115Y46141D01*
X35235Y46141D01*
X34830Y45871D02*
X34845Y45886D01*
X34875Y45931D01*
X34890Y45961D01*
X34905Y46006D01*
X34920Y46081D01*
X34920Y46141D01*
X34905Y46216D01*
X34890Y46261D01*
X34875Y46291D01*
X34845Y46336D01*
X34830Y46351D01*
X34755Y46201D02*
X34635Y46201D01*
X34710Y46306D02*
X34710Y46036D01*
X34695Y46006D01*
X34665Y45991D01*
X34635Y45991D01*
X34530Y45991D02*
X34530Y46306D01*
X34395Y45991D02*
X34395Y46156D01*
X34410Y46186D01*
X34440Y46201D01*
X34485Y46201D01*
X34515Y46186D01*
X34530Y46171D01*
X34275Y45871D02*
X34260Y45886D01*
X34230Y45931D01*
X34215Y45961D01*
X34200Y46006D01*
X34185Y46081D01*
X34185Y46141D01*
X34200Y46216D01*
X34215Y46261D01*
X34230Y46291D01*
X34260Y46336D01*
X34275Y46351D01*
X39834Y18588D02*
X39984Y18588D01*
X39999Y18438D01*
X39984Y18453D01*
X39954Y18468D01*
X39879Y18468D01*
X39849Y18453D01*
X39834Y18438D01*
X39819Y18408D01*
X39819Y18333D01*
X39834Y18303D01*
X39849Y18288D01*
X39879Y18273D01*
X39954Y18273D01*
X39984Y18288D01*
X39999Y18303D01*
X39624Y18588D02*
X39594Y18588D01*
X39564Y18573D01*
X39549Y18558D01*
X39534Y18528D01*
X39519Y18468D01*
X39519Y18393D01*
X39534Y18333D01*
X39549Y18303D01*
X39564Y18288D01*
X39594Y18273D01*
X39624Y18273D01*
X39654Y18288D01*
X39669Y18303D01*
X39684Y18333D01*
X39699Y18393D01*
X39699Y18468D01*
X39684Y18528D01*
X39669Y18558D01*
X39654Y18573D01*
X39624Y18588D01*
X38289Y18483D02*
X38289Y18273D01*
X38364Y18603D02*
X38439Y18378D01*
X38244Y18378D01*
X38109Y18273D02*
X38049Y18273D01*
X38019Y18288D01*
X38004Y18303D01*
X37974Y18348D01*
X37959Y18408D01*
X37959Y18528D01*
X37974Y18558D01*
X37989Y18573D01*
X38019Y18588D01*
X38079Y18588D01*
X38109Y18573D01*
X38124Y18558D01*
X38139Y18528D01*
X38139Y18453D01*
X38124Y18423D01*
X38109Y18408D01*
X38079Y18393D01*
X38019Y18393D01*
X37989Y18408D01*
X37974Y18423D01*
X37959Y18453D01*
G54D14*
X32579Y13400D02*
X37979Y18800D01*
X32579Y38400D02*
X37979Y43800D01*
X37979Y18800D02*
X37979Y43800D01*
X39979Y18800D02*
X37979Y18800D01*
X39979Y43800D02*
X39979Y18800D01*
X37979Y43800D02*
X39979Y43800D01*
G54D10*
X36687Y47955D02*
X36631Y47936D01*
X36612Y47917D01*
X36593Y47880D01*
X36593Y47824D01*
X36612Y47786D01*
X36631Y47767D01*
X36668Y47749D01*
X36818Y47749D01*
X36818Y48143D01*
X36687Y48143D01*
X36649Y48124D01*
X36631Y48105D01*
X36612Y48067D01*
X36612Y48030D01*
X36631Y47992D01*
X36649Y47974D01*
X36687Y47955D01*
X36818Y47955D01*
X36424Y47955D02*
X36293Y47955D01*
X36237Y47749D02*
X36424Y47749D01*
X36424Y48143D01*
X36237Y48143D01*
X36068Y47749D02*
X36068Y48143D01*
X35974Y48143D01*
X35918Y48124D01*
X35881Y48086D01*
X35862Y48049D01*
X35843Y47974D01*
X35843Y47917D01*
X35862Y47842D01*
X35881Y47805D01*
X35918Y47767D01*
X35974Y47749D01*
X36068Y47749D01*
X35430Y48143D02*
X35205Y48143D01*
X35318Y47749D02*
X35318Y48143D01*
X35074Y47955D02*
X34943Y47955D01*
X34887Y47749D02*
X35074Y47749D01*
X35074Y48143D01*
X34887Y48143D01*
X34718Y47749D02*
X34718Y48143D01*
X34587Y47861D01*
X34456Y48143D01*
X34456Y47749D01*
X34268Y47749D02*
X34268Y48143D01*
X34118Y48143D01*
X34081Y48124D01*
X34062Y48105D01*
X34043Y48067D01*
X34043Y48011D01*
X34062Y47974D01*
X34081Y47955D01*
X34118Y47936D01*
X34268Y47936D01*
X32745Y47525D02*
X32689Y47506D01*
X32670Y47487D01*
X32651Y47450D01*
X32651Y47394D01*
X32670Y47356D01*
X32689Y47337D01*
X32726Y47319D01*
X32876Y47319D01*
X32876Y47713D01*
X32745Y47713D01*
X32707Y47694D01*
X32689Y47675D01*
X32670Y47637D01*
X32670Y47600D01*
X32689Y47562D01*
X32707Y47544D01*
X32745Y47525D01*
X32876Y47525D01*
X32482Y47525D02*
X32351Y47525D01*
X32295Y47319D02*
X32482Y47319D01*
X32482Y47713D01*
X32295Y47713D01*
X32126Y47319D02*
X32126Y47713D01*
X32032Y47713D01*
X31976Y47694D01*
X31939Y47656D01*
X31920Y47619D01*
X31901Y47544D01*
X31901Y47487D01*
X31920Y47412D01*
X31939Y47375D01*
X31976Y47337D01*
X32032Y47319D01*
X32126Y47319D01*
X31432Y47319D02*
X31432Y47713D01*
X31432Y47525D02*
X31207Y47525D01*
X31207Y47319D02*
X31207Y47713D01*
X31019Y47525D02*
X30888Y47525D01*
X30832Y47319D02*
X31019Y47319D01*
X31019Y47713D01*
X30832Y47713D01*
X30682Y47431D02*
X30494Y47431D01*
X30719Y47319D02*
X30588Y47713D01*
X30457Y47319D01*
X30381Y47713D02*
X30156Y47713D01*
X30269Y47319D02*
X30269Y47713D01*
X30025Y47525D02*
X29894Y47525D01*
X29838Y47319D02*
X30025Y47319D01*
X30025Y47713D01*
X29838Y47713D01*
X29444Y47319D02*
X29575Y47506D01*
X29669Y47319D02*
X29669Y47713D01*
X29519Y47713D01*
X29482Y47694D01*
X29463Y47675D01*
X29444Y47637D01*
X29444Y47581D01*
X29463Y47544D01*
X29482Y47525D01*
X29519Y47506D01*
X29669Y47506D01*
X32914Y46491D02*
X32783Y46097D01*
X32652Y46491D01*
X32520Y46097D02*
X32520Y46491D01*
X32332Y46097D02*
X32332Y46491D01*
X32107Y46097D01*
X32107Y46491D01*
X30475Y46491D02*
X30344Y46097D01*
X30213Y46491D01*
X30081Y46247D02*
X29781Y46247D01*
X20000Y47579D02*
X20000Y47973D01*
X19850Y47973D01*
X19813Y47954D01*
X19794Y47935D01*
X19775Y47897D01*
X19775Y47841D01*
X19794Y47804D01*
X19813Y47785D01*
X19850Y47766D01*
X20000Y47766D01*
X19531Y47973D02*
X19456Y47973D01*
X19419Y47954D01*
X19381Y47916D01*
X19362Y47841D01*
X19362Y47710D01*
X19381Y47635D01*
X19419Y47597D01*
X19456Y47579D01*
X19531Y47579D01*
X19569Y47597D01*
X19606Y47635D01*
X19625Y47710D01*
X19625Y47841D01*
X19606Y47916D01*
X19569Y47954D01*
X19531Y47973D01*
X19231Y47973D02*
X19137Y47579D01*
X19062Y47860D01*
X18987Y47579D01*
X18893Y47973D01*
X18743Y47785D02*
X18612Y47785D01*
X18556Y47579D02*
X18743Y47579D01*
X18743Y47973D01*
X18556Y47973D01*
X18162Y47579D02*
X18293Y47766D01*
X18387Y47579D02*
X18387Y47973D01*
X18237Y47973D01*
X18200Y47954D01*
X18181Y47935D01*
X18162Y47897D01*
X18162Y47841D01*
X18181Y47804D01*
X18200Y47785D01*
X18237Y47766D01*
X18387Y47766D01*
X17693Y47579D02*
X17693Y47973D01*
X17505Y47579D02*
X17505Y47973D01*
X17280Y47579D01*
X17280Y47973D01*
X20460Y46732D02*
X20497Y46751D01*
X20554Y46751D01*
X20610Y46732D01*
X20647Y46694D01*
X20666Y46657D01*
X20685Y46582D01*
X20685Y46525D01*
X20666Y46450D01*
X20647Y46413D01*
X20610Y46375D01*
X20554Y46357D01*
X20516Y46357D01*
X20460Y46375D01*
X20441Y46394D01*
X20441Y46525D01*
X20516Y46525D01*
X20272Y46357D02*
X20272Y46751D01*
X20047Y46357D01*
X20047Y46751D01*
X19859Y46357D02*
X19859Y46751D01*
X19765Y46751D01*
X19709Y46732D01*
X19672Y46694D01*
X19653Y46657D01*
X19634Y46582D01*
X19634Y46525D01*
X19653Y46450D01*
X19672Y46413D01*
X19709Y46375D01*
X19765Y46357D01*
X19859Y46357D01*
X17421Y46751D02*
X17290Y46357D01*
X17159Y46751D01*
X17027Y46357D02*
X17027Y46751D01*
X16839Y46357D02*
X16839Y46751D01*
X16614Y46357D01*
X16614Y46751D01*
G54D13*
X37417Y38075D02*
X37417Y38180D01*
X37252Y38225D02*
X37252Y38075D01*
X37567Y38075D01*
X37567Y38225D01*
X37567Y38330D02*
X37252Y38540D01*
X37567Y38540D02*
X37252Y38330D01*
X37252Y38660D02*
X37567Y38660D01*
X37567Y38780D01*
X37552Y38810D01*
X37537Y38825D01*
X37507Y38840D01*
X37462Y38840D01*
X37432Y38825D01*
X37417Y38810D01*
X37402Y38780D01*
X37402Y38660D01*
X37342Y38960D02*
X37342Y39110D01*
X37252Y38930D02*
X37567Y39035D01*
X37252Y39140D01*
X37252Y39245D02*
X37567Y39245D01*
X37252Y39425D01*
X37567Y39425D01*
X37267Y39560D02*
X37252Y39605D01*
X37252Y39680D01*
X37267Y39710D01*
X37282Y39725D01*
X37312Y39740D01*
X37342Y39740D01*
X37372Y39725D01*
X37387Y39710D01*
X37402Y39680D01*
X37417Y39620D01*
X37432Y39590D01*
X37447Y39575D01*
X37477Y39560D01*
X37507Y39560D01*
X37537Y39575D01*
X37552Y39590D01*
X37567Y39620D01*
X37567Y39695D01*
X37552Y39740D01*
X37252Y39875D02*
X37567Y39875D01*
X37567Y40085D02*
X37567Y40145D01*
X37552Y40175D01*
X37522Y40205D01*
X37462Y40220D01*
X37357Y40220D01*
X37297Y40205D01*
X37267Y40175D01*
X37252Y40145D01*
X37252Y40085D01*
X37267Y40055D01*
X37297Y40025D01*
X37357Y40010D01*
X37462Y40010D01*
X37522Y40025D01*
X37552Y40055D01*
X37567Y40085D01*
X37252Y40355D02*
X37567Y40355D01*
X37252Y40535D01*
X37567Y40535D01*
X37252Y40925D02*
X37567Y40925D01*
X37417Y40925D02*
X37417Y41105D01*
X37252Y41105D02*
X37567Y41105D01*
X37417Y41255D02*
X37417Y41360D01*
X37252Y41405D02*
X37252Y41255D01*
X37567Y41255D01*
X37567Y41405D01*
X37342Y41525D02*
X37342Y41675D01*
X37252Y41495D02*
X37567Y41600D01*
X37252Y41705D01*
X37252Y41810D02*
X37567Y41810D01*
X37567Y41885D01*
X37552Y41930D01*
X37522Y41960D01*
X37492Y41975D01*
X37432Y41990D01*
X37387Y41990D01*
X37327Y41975D01*
X37297Y41960D01*
X37267Y41930D01*
X37252Y41885D01*
X37252Y41810D01*
X37417Y42125D02*
X37417Y42230D01*
X37252Y42275D02*
X37252Y42125D01*
X37567Y42125D01*
X37567Y42275D01*
X37252Y42590D02*
X37402Y42485D01*
X37252Y42410D02*
X37567Y42410D01*
X37567Y42530D01*
X37552Y42560D01*
X37537Y42575D01*
X37507Y42590D01*
X37462Y42590D01*
X37432Y42575D01*
X37417Y42560D01*
X37402Y42530D01*
X37402Y42410D01*
X26699Y38938D02*
X26804Y38938D01*
X26804Y38773D02*
X26804Y39088D01*
X26654Y39088D01*
X26534Y39088D02*
X26534Y38833D01*
X26519Y38803D01*
X26504Y38788D01*
X26474Y38773D01*
X26414Y38773D01*
X26384Y38788D01*
X26369Y38803D01*
X26354Y38833D01*
X26354Y39088D01*
X26204Y38773D02*
X26204Y39088D01*
X26024Y38773D01*
X26024Y39088D01*
X25694Y38803D02*
X25709Y38788D01*
X25754Y38773D01*
X25784Y38773D01*
X25829Y38788D01*
X25859Y38818D01*
X25874Y38848D01*
X25889Y38908D01*
X25889Y38953D01*
X25874Y39013D01*
X25859Y39043D01*
X25829Y39073D01*
X25784Y39088D01*
X25754Y39088D01*
X25709Y39073D01*
X25694Y39058D01*
X25604Y39088D02*
X25424Y39088D01*
X25514Y38773D02*
X25514Y39088D01*
X25319Y38773D02*
X25319Y39088D01*
X25109Y39088D02*
X25049Y39088D01*
X25019Y39073D01*
X24989Y39043D01*
X24974Y38983D01*
X24974Y38878D01*
X24989Y38818D01*
X25019Y38788D01*
X25049Y38773D01*
X25109Y38773D01*
X25139Y38788D01*
X25169Y38818D01*
X25184Y38878D01*
X25184Y38983D01*
X25169Y39043D01*
X25139Y39073D01*
X25109Y39088D01*
X24839Y38773D02*
X24839Y39088D01*
X24659Y38773D01*
X24659Y39088D01*
X30899Y38938D02*
X31004Y38938D01*
X31004Y38773D02*
X31004Y39088D01*
X30854Y39088D01*
X30734Y39088D02*
X30734Y38833D01*
X30719Y38803D01*
X30704Y38788D01*
X30674Y38773D01*
X30614Y38773D01*
X30584Y38788D01*
X30569Y38803D01*
X30554Y38833D01*
X30554Y39088D01*
X30404Y38773D02*
X30404Y39088D01*
X30224Y38773D01*
X30224Y39088D01*
X29894Y38803D02*
X29909Y38788D01*
X29954Y38773D01*
X29984Y38773D01*
X30029Y38788D01*
X30059Y38818D01*
X30074Y38848D01*
X30089Y38908D01*
X30089Y38953D01*
X30074Y39013D01*
X30059Y39043D01*
X30029Y39073D01*
X29984Y39088D01*
X29954Y39088D01*
X29909Y39073D01*
X29894Y39058D01*
X29804Y39088D02*
X29624Y39088D01*
X29714Y38773D02*
X29714Y39088D01*
X29519Y38773D02*
X29519Y39088D01*
X29309Y39088D02*
X29249Y39088D01*
X29219Y39073D01*
X29189Y39043D01*
X29174Y38983D01*
X29174Y38878D01*
X29189Y38818D01*
X29219Y38788D01*
X29249Y38773D01*
X29309Y38773D01*
X29339Y38788D01*
X29369Y38818D01*
X29384Y38878D01*
X29384Y38983D01*
X29369Y39043D01*
X29339Y39073D01*
X29309Y39088D01*
X29039Y38773D02*
X29039Y39088D01*
X28859Y38773D01*
X28859Y39088D01*
X32401Y38773D02*
X32401Y39088D01*
X32281Y39088D01*
X32251Y39073D01*
X32236Y39058D01*
X32221Y39028D01*
X32221Y38983D01*
X32236Y38953D01*
X32251Y38938D01*
X32281Y38923D01*
X32401Y38923D01*
X32086Y38773D02*
X32086Y39088D01*
X31936Y38773D02*
X31936Y39088D01*
X31756Y38773D01*
X31756Y39088D01*
X27789Y37773D02*
X27969Y37773D01*
X27879Y37773D02*
X27879Y38088D01*
X27909Y38043D01*
X27939Y38013D01*
X27969Y37998D01*
X27984Y37088D02*
X27789Y37088D01*
X27894Y36968D01*
X27849Y36968D01*
X27819Y36953D01*
X27804Y36938D01*
X27789Y36908D01*
X27789Y36833D01*
X27804Y36803D01*
X27819Y36788D01*
X27849Y36773D01*
X27939Y36773D01*
X27969Y36788D01*
X27984Y36803D01*
X27804Y36088D02*
X27954Y36088D01*
X27969Y35938D01*
X27954Y35953D01*
X27924Y35968D01*
X27849Y35968D01*
X27819Y35953D01*
X27804Y35938D01*
X27789Y35908D01*
X27789Y35833D01*
X27804Y35803D01*
X27819Y35788D01*
X27849Y35773D01*
X27924Y35773D01*
X27954Y35788D01*
X27969Y35803D01*
X27984Y35088D02*
X27774Y35088D01*
X27909Y34773D01*
X27939Y33773D02*
X27879Y33773D01*
X27849Y33788D01*
X27834Y33803D01*
X27804Y33848D01*
X27789Y33908D01*
X27789Y34028D01*
X27804Y34058D01*
X27819Y34073D01*
X27849Y34088D01*
X27909Y34088D01*
X27939Y34073D01*
X27954Y34058D01*
X27969Y34028D01*
X27969Y33953D01*
X27954Y33923D01*
X27939Y33908D01*
X27909Y33893D01*
X27849Y33893D01*
X27819Y33908D01*
X27804Y33923D01*
X27789Y33953D01*
X27939Y32773D02*
X28119Y32773D01*
X28029Y32773D02*
X28029Y33088D01*
X28059Y33043D01*
X28089Y33013D01*
X28119Y32998D01*
X27639Y32773D02*
X27819Y32773D01*
X27729Y32773D02*
X27729Y33088D01*
X27759Y33043D01*
X27789Y33013D01*
X27819Y32998D01*
X27939Y31773D02*
X28119Y31773D01*
X28029Y31773D02*
X28029Y32088D01*
X28059Y32043D01*
X28089Y32013D01*
X28119Y31998D01*
X27834Y32088D02*
X27639Y32088D01*
X27744Y31968D01*
X27699Y31968D01*
X27669Y31953D01*
X27654Y31938D01*
X27639Y31908D01*
X27639Y31833D01*
X27654Y31803D01*
X27669Y31788D01*
X27699Y31773D01*
X27789Y31773D01*
X27819Y31788D01*
X27834Y31803D01*
X27939Y30773D02*
X28119Y30773D01*
X28029Y30773D02*
X28029Y31088D01*
X28059Y31043D01*
X28089Y31013D01*
X28119Y30998D01*
X27654Y31088D02*
X27804Y31088D01*
X27819Y30938D01*
X27804Y30953D01*
X27774Y30968D01*
X27699Y30968D01*
X27669Y30953D01*
X27654Y30938D01*
X27639Y30908D01*
X27639Y30833D01*
X27654Y30803D01*
X27669Y30788D01*
X27699Y30773D01*
X27774Y30773D01*
X27804Y30788D01*
X27819Y30803D01*
X27939Y29773D02*
X28119Y29773D01*
X28029Y29773D02*
X28029Y30088D01*
X28059Y30043D01*
X28089Y30013D01*
X28119Y29998D01*
X27834Y30088D02*
X27624Y30088D01*
X27759Y29773D01*
X27939Y28773D02*
X28119Y28773D01*
X28029Y28773D02*
X28029Y29088D01*
X28059Y29043D01*
X28089Y29013D01*
X28119Y28998D01*
X27789Y28773D02*
X27729Y28773D01*
X27699Y28788D01*
X27684Y28803D01*
X27654Y28848D01*
X27639Y28908D01*
X27639Y29028D01*
X27654Y29058D01*
X27669Y29073D01*
X27699Y29088D01*
X27759Y29088D01*
X27789Y29073D01*
X27804Y29058D01*
X27819Y29028D01*
X27819Y28953D01*
X27804Y28923D01*
X27789Y28908D01*
X27759Y28893D01*
X27699Y28893D01*
X27669Y28908D01*
X27654Y28923D01*
X27639Y28953D01*
X28119Y28058D02*
X28104Y28073D01*
X28074Y28088D01*
X27999Y28088D01*
X27969Y28073D01*
X27954Y28058D01*
X27939Y28028D01*
X27939Y27998D01*
X27954Y27953D01*
X28134Y27773D01*
X27939Y27773D01*
X27639Y27773D02*
X27819Y27773D01*
X27729Y27773D02*
X27729Y28088D01*
X27759Y28043D01*
X27789Y28013D01*
X27819Y27998D01*
X28119Y27058D02*
X28104Y27073D01*
X28074Y27088D01*
X27999Y27088D01*
X27969Y27073D01*
X27954Y27058D01*
X27939Y27028D01*
X27939Y26998D01*
X27954Y26953D01*
X28134Y26773D01*
X27939Y26773D01*
X27834Y27088D02*
X27639Y27088D01*
X27744Y26968D01*
X27699Y26968D01*
X27669Y26953D01*
X27654Y26938D01*
X27639Y26908D01*
X27639Y26833D01*
X27654Y26803D01*
X27669Y26788D01*
X27699Y26773D01*
X27789Y26773D01*
X27819Y26788D01*
X27834Y26803D01*
X28119Y26058D02*
X28104Y26073D01*
X28074Y26088D01*
X27999Y26088D01*
X27969Y26073D01*
X27954Y26058D01*
X27939Y26028D01*
X27939Y25998D01*
X27954Y25953D01*
X28134Y25773D01*
X27939Y25773D01*
X27654Y26088D02*
X27804Y26088D01*
X27819Y25938D01*
X27804Y25953D01*
X27774Y25968D01*
X27699Y25968D01*
X27669Y25953D01*
X27654Y25938D01*
X27639Y25908D01*
X27639Y25833D01*
X27654Y25803D01*
X27669Y25788D01*
X27699Y25773D01*
X27774Y25773D01*
X27804Y25788D01*
X27819Y25803D01*
X28119Y25058D02*
X28104Y25073D01*
X28074Y25088D01*
X27999Y25088D01*
X27969Y25073D01*
X27954Y25058D01*
X27939Y25028D01*
X27939Y24998D01*
X27954Y24953D01*
X28134Y24773D01*
X27939Y24773D01*
X27834Y25088D02*
X27624Y25088D01*
X27759Y24773D01*
X28119Y24058D02*
X28104Y24073D01*
X28074Y24088D01*
X27999Y24088D01*
X27969Y24073D01*
X27954Y24058D01*
X27939Y24028D01*
X27939Y23998D01*
X27954Y23953D01*
X28134Y23773D01*
X27939Y23773D01*
X27789Y23773D02*
X27729Y23773D01*
X27699Y23788D01*
X27684Y23803D01*
X27654Y23848D01*
X27639Y23908D01*
X27639Y24028D01*
X27654Y24058D01*
X27669Y24073D01*
X27699Y24088D01*
X27759Y24088D01*
X27789Y24073D01*
X27804Y24058D01*
X27819Y24028D01*
X27819Y23953D01*
X27804Y23923D01*
X27789Y23908D01*
X27759Y23893D01*
X27699Y23893D01*
X27669Y23908D01*
X27654Y23923D01*
X27639Y23953D01*
X28134Y23088D02*
X27939Y23088D01*
X28044Y22968D01*
X27999Y22968D01*
X27969Y22953D01*
X27954Y22938D01*
X27939Y22908D01*
X27939Y22833D01*
X27954Y22803D01*
X27969Y22788D01*
X27999Y22773D01*
X28089Y22773D01*
X28119Y22788D01*
X28134Y22803D01*
X27639Y22773D02*
X27819Y22773D01*
X27729Y22773D02*
X27729Y23088D01*
X27759Y23043D01*
X27789Y23013D01*
X27819Y22998D01*
X28134Y22088D02*
X27939Y22088D01*
X28044Y21968D01*
X27999Y21968D01*
X27969Y21953D01*
X27954Y21938D01*
X27939Y21908D01*
X27939Y21833D01*
X27954Y21803D01*
X27969Y21788D01*
X27999Y21773D01*
X28089Y21773D01*
X28119Y21788D01*
X28134Y21803D01*
X27834Y22088D02*
X27639Y22088D01*
X27744Y21968D01*
X27699Y21968D01*
X27669Y21953D01*
X27654Y21938D01*
X27639Y21908D01*
X27639Y21833D01*
X27654Y21803D01*
X27669Y21788D01*
X27699Y21773D01*
X27789Y21773D01*
X27819Y21788D01*
X27834Y21803D01*
X28134Y21088D02*
X27939Y21088D01*
X28044Y20968D01*
X27999Y20968D01*
X27969Y20953D01*
X27954Y20938D01*
X27939Y20908D01*
X27939Y20833D01*
X27954Y20803D01*
X27969Y20788D01*
X27999Y20773D01*
X28089Y20773D01*
X28119Y20788D01*
X28134Y20803D01*
X27654Y21088D02*
X27804Y21088D01*
X27819Y20938D01*
X27804Y20953D01*
X27774Y20968D01*
X27699Y20968D01*
X27669Y20953D01*
X27654Y20938D01*
X27639Y20908D01*
X27639Y20833D01*
X27654Y20803D01*
X27669Y20788D01*
X27699Y20773D01*
X27774Y20773D01*
X27804Y20788D01*
X27819Y20803D01*
X28134Y20088D02*
X27939Y20088D01*
X28044Y19968D01*
X27999Y19968D01*
X27969Y19953D01*
X27954Y19938D01*
X27939Y19908D01*
X27939Y19833D01*
X27954Y19803D01*
X27969Y19788D01*
X27999Y19773D01*
X28089Y19773D01*
X28119Y19788D01*
X28134Y19803D01*
X27834Y20088D02*
X27624Y20088D01*
X27759Y19773D01*
X28134Y19088D02*
X27939Y19088D01*
X28044Y18968D01*
X27999Y18968D01*
X27969Y18953D01*
X27954Y18938D01*
X27939Y18908D01*
X27939Y18833D01*
X27954Y18803D01*
X27969Y18788D01*
X27999Y18773D01*
X28089Y18773D01*
X28119Y18788D01*
X28134Y18803D01*
X27789Y18773D02*
X27729Y18773D01*
X27699Y18788D01*
X27684Y18803D01*
X27654Y18848D01*
X27639Y18908D01*
X27639Y19028D01*
X27654Y19058D01*
X27669Y19073D01*
X27699Y19088D01*
X27759Y19088D01*
X27789Y19073D01*
X27804Y19058D01*
X27819Y19028D01*
X27819Y18953D01*
X27804Y18923D01*
X27789Y18908D01*
X27759Y18893D01*
X27699Y18893D01*
X27669Y18908D01*
X27654Y18923D01*
X27639Y18953D01*
X27969Y17983D02*
X27969Y17773D01*
X28044Y18103D02*
X28119Y17878D01*
X27924Y17878D01*
X27639Y17773D02*
X27819Y17773D01*
X27729Y17773D02*
X27729Y18088D01*
X27759Y18043D01*
X27789Y18013D01*
X27819Y17998D01*
X27969Y16983D02*
X27969Y16773D01*
X28044Y17103D02*
X28119Y16878D01*
X27924Y16878D01*
X27834Y17088D02*
X27639Y17088D01*
X27744Y16968D01*
X27699Y16968D01*
X27669Y16953D01*
X27654Y16938D01*
X27639Y16908D01*
X27639Y16833D01*
X27654Y16803D01*
X27669Y16788D01*
X27699Y16773D01*
X27789Y16773D01*
X27819Y16788D01*
X27834Y16803D01*
X27969Y15983D02*
X27969Y15773D01*
X28044Y16103D02*
X28119Y15878D01*
X27924Y15878D01*
X27654Y16088D02*
X27804Y16088D01*
X27819Y15938D01*
X27804Y15953D01*
X27774Y15968D01*
X27699Y15968D01*
X27669Y15953D01*
X27654Y15938D01*
X27639Y15908D01*
X27639Y15833D01*
X27654Y15803D01*
X27669Y15788D01*
X27699Y15773D01*
X27774Y15773D01*
X27804Y15788D01*
X27819Y15803D01*
X27969Y14983D02*
X27969Y14773D01*
X28044Y15103D02*
X28119Y14878D01*
X27924Y14878D01*
X27834Y15088D02*
X27624Y15088D01*
X27759Y14773D01*
X27969Y13983D02*
X27969Y13773D01*
X28044Y14103D02*
X28119Y13878D01*
X27924Y13878D01*
X27789Y13773D02*
X27729Y13773D01*
X27699Y13788D01*
X27684Y13803D01*
X27654Y13848D01*
X27639Y13908D01*
X27639Y14028D01*
X27654Y14058D01*
X27669Y14073D01*
X27699Y14088D01*
X27759Y14088D01*
X27789Y14073D01*
X27804Y14058D01*
X27819Y14028D01*
X27819Y13953D01*
X27804Y13923D01*
X27789Y13908D01*
X27759Y13893D01*
X27699Y13893D01*
X27669Y13908D01*
X27654Y13923D01*
X27639Y13953D01*
X27104Y37893D02*
X26864Y37893D01*
X26984Y37773D02*
X26984Y38013D01*
X26564Y38088D02*
X26714Y38088D01*
X26729Y37938D01*
X26714Y37953D01*
X26684Y37968D01*
X26609Y37968D01*
X26579Y37953D01*
X26564Y37938D01*
X26549Y37908D01*
X26549Y37833D01*
X26564Y37803D01*
X26579Y37788D01*
X26609Y37773D01*
X26684Y37773D01*
X26714Y37788D01*
X26729Y37803D01*
X26459Y38088D02*
X26354Y37773D01*
X26249Y38088D01*
X27104Y36893D02*
X26864Y36893D01*
X26984Y36773D02*
X26984Y37013D01*
X26744Y37088D02*
X26549Y37088D01*
X26654Y36968D01*
X26609Y36968D01*
X26579Y36953D01*
X26564Y36938D01*
X26549Y36908D01*
X26549Y36833D01*
X26564Y36803D01*
X26579Y36788D01*
X26609Y36773D01*
X26699Y36773D01*
X26729Y36788D01*
X26744Y36803D01*
X26414Y36803D02*
X26399Y36788D01*
X26414Y36773D01*
X26429Y36788D01*
X26414Y36803D01*
X26414Y36773D01*
X26294Y37088D02*
X26099Y37088D01*
X26204Y36968D01*
X26159Y36968D01*
X26129Y36953D01*
X26114Y36938D01*
X26099Y36908D01*
X26099Y36833D01*
X26114Y36803D01*
X26129Y36788D01*
X26159Y36773D01*
X26249Y36773D01*
X26279Y36788D01*
X26294Y36803D01*
X26009Y37088D02*
X25904Y36773D01*
X25799Y37088D01*
X27149Y36088D02*
X26969Y36088D01*
X27059Y35773D02*
X27059Y36088D01*
X26894Y36088D02*
X26819Y35773D01*
X26759Y35998D01*
X26699Y35773D01*
X26624Y36088D01*
X26504Y35773D02*
X26504Y36088D01*
X26429Y36088D01*
X26384Y36073D01*
X26354Y36043D01*
X26339Y36013D01*
X26324Y35953D01*
X26324Y35908D01*
X26339Y35848D01*
X26354Y35818D01*
X26384Y35788D01*
X26429Y35773D01*
X26504Y35773D01*
X26129Y36088D02*
X26099Y36088D01*
X26069Y36073D01*
X26054Y36058D01*
X26039Y36028D01*
X26024Y35968D01*
X26024Y35893D01*
X26039Y35833D01*
X26054Y35803D01*
X26069Y35788D01*
X26099Y35773D01*
X26129Y35773D01*
X26159Y35788D01*
X26174Y35803D01*
X26189Y35833D01*
X26204Y35893D01*
X26204Y35968D01*
X26189Y36028D01*
X26174Y36058D01*
X26159Y36073D01*
X26129Y36088D01*
X27104Y35088D02*
X27104Y34833D01*
X27089Y34803D01*
X27074Y34788D01*
X27044Y34773D01*
X26984Y34773D01*
X26954Y34788D01*
X26939Y34803D01*
X26924Y34833D01*
X26924Y35088D01*
X26594Y34773D02*
X26699Y34923D01*
X26774Y34773D02*
X26774Y35088D01*
X26654Y35088D01*
X26624Y35073D01*
X26609Y35058D01*
X26594Y35028D01*
X26594Y34983D01*
X26609Y34953D01*
X26624Y34938D01*
X26654Y34923D01*
X26774Y34923D01*
X26489Y35088D02*
X26279Y34773D01*
X26279Y35088D02*
X26489Y34773D01*
X26159Y34773D02*
X26159Y35088D01*
X26084Y35088D01*
X26039Y35073D01*
X26009Y35043D01*
X25994Y35013D01*
X25979Y34953D01*
X25979Y34908D01*
X25994Y34848D01*
X26009Y34818D01*
X26039Y34788D01*
X26084Y34773D01*
X26159Y34773D01*
X27104Y33773D02*
X27104Y34088D01*
X26984Y34088D01*
X26954Y34073D01*
X26939Y34058D01*
X26924Y34028D01*
X26924Y33983D01*
X26939Y33953D01*
X26954Y33938D01*
X26984Y33923D01*
X27104Y33923D01*
X26804Y33863D02*
X26654Y33863D01*
X26834Y33773D02*
X26729Y34088D01*
X26624Y33773D01*
X26354Y33773D02*
X26534Y33773D01*
X26444Y33773D02*
X26444Y34088D01*
X26474Y34043D01*
X26504Y34013D01*
X26534Y33998D01*
X26069Y34088D02*
X26219Y34088D01*
X26234Y33938D01*
X26219Y33953D01*
X26189Y33968D01*
X26114Y33968D01*
X26084Y33953D01*
X26069Y33938D01*
X26054Y33908D01*
X26054Y33833D01*
X26069Y33803D01*
X26084Y33788D01*
X26114Y33773D01*
X26189Y33773D01*
X26219Y33788D01*
X26234Y33803D01*
X27149Y33088D02*
X26969Y33088D01*
X27059Y32773D02*
X27059Y33088D01*
X26894Y33088D02*
X26684Y32773D01*
X26684Y33088D02*
X26894Y32773D01*
X26564Y32773D02*
X26564Y33088D01*
X26489Y33088D01*
X26444Y33073D01*
X26414Y33043D01*
X26399Y33013D01*
X26384Y32953D01*
X26384Y32908D01*
X26399Y32848D01*
X26414Y32818D01*
X26444Y32788D01*
X26489Y32773D01*
X26564Y32773D01*
X26084Y32773D02*
X26264Y32773D01*
X26174Y32773D02*
X26174Y33088D01*
X26204Y33043D01*
X26234Y33013D01*
X26264Y32998D01*
X27149Y32088D02*
X26969Y32088D01*
X27059Y31773D02*
X27059Y32088D01*
X26894Y32088D02*
X26684Y31773D01*
X26684Y32088D02*
X26894Y31773D01*
X26564Y31773D02*
X26564Y32088D01*
X26489Y32088D01*
X26444Y32073D01*
X26414Y32043D01*
X26399Y32013D01*
X26384Y31953D01*
X26384Y31908D01*
X26399Y31848D01*
X26414Y31818D01*
X26444Y31788D01*
X26489Y31773D01*
X26564Y31773D01*
X26189Y32088D02*
X26159Y32088D01*
X26129Y32073D01*
X26114Y32058D01*
X26099Y32028D01*
X26084Y31968D01*
X26084Y31893D01*
X26099Y31833D01*
X26114Y31803D01*
X26129Y31788D01*
X26159Y31773D01*
X26189Y31773D01*
X26219Y31788D01*
X26234Y31803D01*
X26249Y31833D01*
X26264Y31893D01*
X26264Y31968D01*
X26249Y32028D01*
X26234Y32058D01*
X26219Y32073D01*
X26189Y32088D01*
X27104Y30773D02*
X27104Y31088D01*
X26984Y31088D01*
X26954Y31073D01*
X26939Y31058D01*
X26924Y31028D01*
X26924Y30983D01*
X26939Y30953D01*
X26954Y30938D01*
X26984Y30923D01*
X27104Y30923D01*
X26609Y30803D02*
X26624Y30788D01*
X26669Y30773D01*
X26699Y30773D01*
X26744Y30788D01*
X26774Y30818D01*
X26789Y30848D01*
X26804Y30908D01*
X26804Y30953D01*
X26789Y31013D01*
X26774Y31043D01*
X26744Y31073D01*
X26699Y31088D01*
X26669Y31088D01*
X26624Y31073D01*
X26609Y31058D01*
X26459Y30773D02*
X26399Y30773D01*
X26369Y30788D01*
X26354Y30803D01*
X26324Y30848D01*
X26309Y30908D01*
X26309Y31028D01*
X26324Y31058D01*
X26339Y31073D01*
X26369Y31088D01*
X26429Y31088D01*
X26459Y31073D01*
X26474Y31058D01*
X26489Y31028D01*
X26489Y30953D01*
X26474Y30923D01*
X26459Y30908D01*
X26429Y30893D01*
X26369Y30893D01*
X26339Y30908D01*
X26324Y30923D01*
X26309Y30953D01*
X27104Y29773D02*
X27104Y30088D01*
X26984Y30088D01*
X26954Y30073D01*
X26939Y30058D01*
X26924Y30028D01*
X26924Y29983D01*
X26939Y29953D01*
X26954Y29938D01*
X26984Y29923D01*
X27104Y29923D01*
X26609Y29803D02*
X26624Y29788D01*
X26669Y29773D01*
X26699Y29773D01*
X26744Y29788D01*
X26774Y29818D01*
X26789Y29848D01*
X26804Y29908D01*
X26804Y29953D01*
X26789Y30013D01*
X26774Y30043D01*
X26744Y30073D01*
X26699Y30088D01*
X26669Y30088D01*
X26624Y30073D01*
X26609Y30058D01*
X26324Y30088D02*
X26474Y30088D01*
X26489Y29938D01*
X26474Y29953D01*
X26444Y29968D01*
X26369Y29968D01*
X26339Y29953D01*
X26324Y29938D01*
X26309Y29908D01*
X26309Y29833D01*
X26324Y29803D01*
X26339Y29788D01*
X26369Y29773D01*
X26444Y29773D01*
X26474Y29788D01*
X26489Y29803D01*
X27104Y28773D02*
X27104Y29088D01*
X26984Y29088D01*
X26954Y29073D01*
X26939Y29058D01*
X26924Y29028D01*
X26924Y28983D01*
X26939Y28953D01*
X26954Y28938D01*
X26984Y28923D01*
X27104Y28923D01*
X26609Y28803D02*
X26624Y28788D01*
X26669Y28773D01*
X26699Y28773D01*
X26744Y28788D01*
X26774Y28818D01*
X26789Y28848D01*
X26804Y28908D01*
X26804Y28953D01*
X26789Y29013D01*
X26774Y29043D01*
X26744Y29073D01*
X26699Y29088D01*
X26669Y29088D01*
X26624Y29073D01*
X26609Y29058D01*
X26504Y29088D02*
X26294Y29088D01*
X26429Y28773D01*
X27104Y27773D02*
X27104Y28088D01*
X26984Y28088D01*
X26954Y28073D01*
X26939Y28058D01*
X26924Y28028D01*
X26924Y27983D01*
X26939Y27953D01*
X26954Y27938D01*
X26984Y27923D01*
X27104Y27923D01*
X26609Y27803D02*
X26624Y27788D01*
X26669Y27773D01*
X26699Y27773D01*
X26744Y27788D01*
X26774Y27818D01*
X26789Y27848D01*
X26804Y27908D01*
X26804Y27953D01*
X26789Y28013D01*
X26774Y28043D01*
X26744Y28073D01*
X26699Y28088D01*
X26669Y28088D01*
X26624Y28073D01*
X26609Y28058D01*
X26489Y28058D02*
X26474Y28073D01*
X26444Y28088D01*
X26369Y28088D01*
X26339Y28073D01*
X26324Y28058D01*
X26309Y28028D01*
X26309Y27998D01*
X26324Y27953D01*
X26504Y27773D01*
X26309Y27773D01*
X26204Y28088D02*
X26009Y28088D01*
X26114Y27968D01*
X26069Y27968D01*
X26039Y27953D01*
X26024Y27938D01*
X26009Y27908D01*
X26009Y27833D01*
X26024Y27803D01*
X26039Y27788D01*
X26069Y27773D01*
X26159Y27773D01*
X26189Y27788D01*
X26204Y27803D01*
X27104Y26773D02*
X27104Y27088D01*
X26984Y27088D01*
X26954Y27073D01*
X26939Y27058D01*
X26924Y27028D01*
X26924Y26983D01*
X26939Y26953D01*
X26954Y26938D01*
X26984Y26923D01*
X27104Y26923D01*
X26609Y26803D02*
X26624Y26788D01*
X26669Y26773D01*
X26699Y26773D01*
X26744Y26788D01*
X26774Y26818D01*
X26789Y26848D01*
X26804Y26908D01*
X26804Y26953D01*
X26789Y27013D01*
X26774Y27043D01*
X26744Y27073D01*
X26699Y27088D01*
X26669Y27088D01*
X26624Y27073D01*
X26609Y27058D01*
X26489Y27058D02*
X26474Y27073D01*
X26444Y27088D01*
X26369Y27088D01*
X26339Y27073D01*
X26324Y27058D01*
X26309Y27028D01*
X26309Y26998D01*
X26324Y26953D01*
X26504Y26773D01*
X26309Y26773D01*
X26009Y26773D02*
X26189Y26773D01*
X26099Y26773D02*
X26099Y27088D01*
X26129Y27043D01*
X26159Y27013D01*
X26189Y26998D01*
X27104Y25773D02*
X27104Y26088D01*
X26984Y26088D01*
X26954Y26073D01*
X26939Y26058D01*
X26924Y26028D01*
X26924Y25983D01*
X26939Y25953D01*
X26954Y25938D01*
X26984Y25923D01*
X27104Y25923D01*
X26609Y25803D02*
X26624Y25788D01*
X26669Y25773D01*
X26699Y25773D01*
X26744Y25788D01*
X26774Y25818D01*
X26789Y25848D01*
X26804Y25908D01*
X26804Y25953D01*
X26789Y26013D01*
X26774Y26043D01*
X26744Y26073D01*
X26699Y26088D01*
X26669Y26088D01*
X26624Y26073D01*
X26609Y26058D01*
X26339Y25983D02*
X26339Y25773D01*
X26414Y26103D02*
X26489Y25878D01*
X26294Y25878D01*
X27104Y24773D02*
X27104Y25088D01*
X26924Y24773D01*
X26924Y25088D01*
X26774Y24773D02*
X26774Y25088D01*
X26654Y25088D01*
X26624Y25073D01*
X26609Y25058D01*
X26594Y25028D01*
X26594Y24983D01*
X26609Y24953D01*
X26624Y24938D01*
X26654Y24923D01*
X26774Y24923D01*
X26279Y24803D02*
X26294Y24788D01*
X26339Y24773D01*
X26369Y24773D01*
X26414Y24788D01*
X26444Y24818D01*
X26459Y24848D01*
X26474Y24908D01*
X26474Y24953D01*
X26459Y25013D01*
X26444Y25043D01*
X26414Y25073D01*
X26369Y25088D01*
X26339Y25088D01*
X26294Y25073D01*
X26279Y25058D01*
X26159Y24788D02*
X26114Y24773D01*
X26039Y24773D01*
X26009Y24788D01*
X25994Y24803D01*
X25979Y24833D01*
X25979Y24863D01*
X25994Y24893D01*
X26009Y24908D01*
X26039Y24923D01*
X26099Y24938D01*
X26129Y24953D01*
X26144Y24968D01*
X26159Y24998D01*
X26159Y25028D01*
X26144Y25058D01*
X26129Y25073D01*
X26099Y25088D01*
X26024Y25088D01*
X25979Y25073D01*
X25784Y25088D02*
X25754Y25088D01*
X25724Y25073D01*
X25709Y25058D01*
X25694Y25028D01*
X25679Y24968D01*
X25679Y24893D01*
X25694Y24833D01*
X25709Y24803D01*
X25724Y24788D01*
X25754Y24773D01*
X25784Y24773D01*
X25814Y24788D01*
X25829Y24803D01*
X25844Y24833D01*
X25859Y24893D01*
X25859Y24968D01*
X25844Y25028D01*
X25829Y25058D01*
X25814Y25073D01*
X25784Y25088D01*
X27104Y23773D02*
X27104Y24088D01*
X26999Y23863D01*
X26894Y24088D01*
X26894Y23773D01*
X26684Y24088D02*
X26624Y24088D01*
X26594Y24073D01*
X26564Y24043D01*
X26549Y23983D01*
X26549Y23878D01*
X26564Y23818D01*
X26594Y23788D01*
X26624Y23773D01*
X26684Y23773D01*
X26714Y23788D01*
X26744Y23818D01*
X26759Y23878D01*
X26759Y23983D01*
X26744Y24043D01*
X26714Y24073D01*
X26684Y24088D01*
X26429Y23788D02*
X26384Y23773D01*
X26309Y23773D01*
X26279Y23788D01*
X26264Y23803D01*
X26249Y23833D01*
X26249Y23863D01*
X26264Y23893D01*
X26279Y23908D01*
X26309Y23923D01*
X26369Y23938D01*
X26399Y23953D01*
X26414Y23968D01*
X26429Y23998D01*
X26429Y24028D01*
X26414Y24058D01*
X26399Y24073D01*
X26369Y24088D01*
X26294Y24088D01*
X26249Y24073D01*
X26114Y23773D02*
X26114Y24088D01*
X25904Y24088D02*
X25874Y24088D01*
X25844Y24073D01*
X25829Y24058D01*
X25814Y24028D01*
X25799Y23968D01*
X25799Y23893D01*
X25814Y23833D01*
X25829Y23803D01*
X25844Y23788D01*
X25874Y23773D01*
X25904Y23773D01*
X25934Y23788D01*
X25949Y23803D01*
X25964Y23833D01*
X25979Y23893D01*
X25979Y23968D01*
X25964Y24028D01*
X25949Y24058D01*
X25934Y24073D01*
X25904Y24088D01*
X27104Y22773D02*
X27104Y23088D01*
X26984Y23088D01*
X26954Y23073D01*
X26939Y23058D01*
X26924Y23028D01*
X26924Y22983D01*
X26939Y22953D01*
X26954Y22938D01*
X26984Y22923D01*
X27104Y22923D01*
X26684Y22938D02*
X26639Y22923D01*
X26624Y22908D01*
X26609Y22878D01*
X26609Y22833D01*
X26624Y22803D01*
X26639Y22788D01*
X26669Y22773D01*
X26789Y22773D01*
X26789Y23088D01*
X26684Y23088D01*
X26654Y23073D01*
X26639Y23058D01*
X26624Y23028D01*
X26624Y22998D01*
X26639Y22968D01*
X26654Y22953D01*
X26684Y22938D01*
X26789Y22938D01*
X26309Y22773D02*
X26489Y22773D01*
X26399Y22773D02*
X26399Y23088D01*
X26429Y23043D01*
X26459Y23013D01*
X26489Y22998D01*
X26024Y23088D02*
X26174Y23088D01*
X26189Y22938D01*
X26174Y22953D01*
X26144Y22968D01*
X26069Y22968D01*
X26039Y22953D01*
X26024Y22938D01*
X26009Y22908D01*
X26009Y22833D01*
X26024Y22803D01*
X26039Y22788D01*
X26069Y22773D01*
X26144Y22773D01*
X26174Y22788D01*
X26189Y22803D01*
X27119Y21863D02*
X26969Y21863D01*
X27149Y21773D02*
X27044Y22088D01*
X26939Y21773D01*
X26834Y21773D02*
X26834Y22088D01*
X26759Y22088D01*
X26714Y22073D01*
X26684Y22043D01*
X26669Y22013D01*
X26654Y21953D01*
X26654Y21908D01*
X26669Y21848D01*
X26684Y21818D01*
X26714Y21788D01*
X26759Y21773D01*
X26834Y21773D01*
X26549Y22088D02*
X26339Y22088D01*
X26474Y21773D01*
X27149Y21088D02*
X26969Y21088D01*
X27059Y20773D02*
X27059Y21088D01*
X26894Y21088D02*
X26819Y20773D01*
X26759Y20998D01*
X26699Y20773D01*
X26624Y21088D01*
X26504Y20773D02*
X26504Y21088D01*
X26429Y21088D01*
X26384Y21073D01*
X26354Y21043D01*
X26339Y21013D01*
X26324Y20953D01*
X26324Y20908D01*
X26339Y20848D01*
X26354Y20818D01*
X26384Y20788D01*
X26429Y20773D01*
X26504Y20773D01*
X26024Y20773D02*
X26204Y20773D01*
X26114Y20773D02*
X26114Y21088D01*
X26144Y21043D01*
X26174Y21013D01*
X26204Y20998D01*
X27119Y19863D02*
X26969Y19863D01*
X27149Y19773D02*
X27044Y20088D01*
X26939Y19773D01*
X26834Y19773D02*
X26834Y20088D01*
X26759Y20088D01*
X26714Y20073D01*
X26684Y20043D01*
X26669Y20013D01*
X26654Y19953D01*
X26654Y19908D01*
X26669Y19848D01*
X26684Y19818D01*
X26714Y19788D01*
X26759Y19773D01*
X26834Y19773D01*
X26354Y19773D02*
X26534Y19773D01*
X26444Y19773D02*
X26444Y20088D01*
X26474Y20043D01*
X26504Y20013D01*
X26534Y19998D01*
X26159Y20088D02*
X26129Y20088D01*
X26099Y20073D01*
X26084Y20058D01*
X26069Y20028D01*
X26054Y19968D01*
X26054Y19893D01*
X26069Y19833D01*
X26084Y19803D01*
X26099Y19788D01*
X26129Y19773D01*
X26159Y19773D01*
X26189Y19788D01*
X26204Y19803D01*
X26219Y19833D01*
X26234Y19893D01*
X26234Y19968D01*
X26219Y20028D01*
X26204Y20058D01*
X26189Y20073D01*
X26159Y20088D01*
X27119Y18863D02*
X26969Y18863D01*
X27149Y18773D02*
X27044Y19088D01*
X26939Y18773D01*
X26834Y18773D02*
X26834Y19088D01*
X26759Y19088D01*
X26714Y19073D01*
X26684Y19043D01*
X26669Y19013D01*
X26654Y18953D01*
X26654Y18908D01*
X26669Y18848D01*
X26684Y18818D01*
X26714Y18788D01*
X26759Y18773D01*
X26834Y18773D01*
X26354Y18773D02*
X26534Y18773D01*
X26444Y18773D02*
X26444Y19088D01*
X26474Y19043D01*
X26504Y19013D01*
X26534Y18998D01*
X26234Y19058D02*
X26219Y19073D01*
X26189Y19088D01*
X26114Y19088D01*
X26084Y19073D01*
X26069Y19058D01*
X26054Y19028D01*
X26054Y18998D01*
X26069Y18953D01*
X26249Y18773D01*
X26054Y18773D01*
X27119Y17863D02*
X26969Y17863D01*
X27149Y17773D02*
X27044Y18088D01*
X26939Y17773D01*
X26834Y17773D02*
X26834Y18088D01*
X26759Y18088D01*
X26714Y18073D01*
X26684Y18043D01*
X26669Y18013D01*
X26654Y17953D01*
X26654Y17908D01*
X26669Y17848D01*
X26684Y17818D01*
X26714Y17788D01*
X26759Y17773D01*
X26834Y17773D01*
X26354Y17773D02*
X26534Y17773D01*
X26444Y17773D02*
X26444Y18088D01*
X26474Y18043D01*
X26504Y18013D01*
X26534Y17998D01*
X26084Y17983D02*
X26084Y17773D01*
X26159Y18103D02*
X26234Y17878D01*
X26039Y17878D01*
X27104Y16773D02*
X27104Y17088D01*
X26984Y17088D01*
X26954Y17073D01*
X26939Y17058D01*
X26924Y17028D01*
X26924Y16983D01*
X26939Y16953D01*
X26954Y16938D01*
X26984Y16923D01*
X27104Y16923D01*
X26609Y16803D02*
X26624Y16788D01*
X26669Y16773D01*
X26699Y16773D01*
X26744Y16788D01*
X26774Y16818D01*
X26789Y16848D01*
X26804Y16908D01*
X26804Y16953D01*
X26789Y17013D01*
X26774Y17043D01*
X26744Y17073D01*
X26699Y17088D01*
X26669Y17088D01*
X26624Y17073D01*
X26609Y17058D01*
X26309Y16773D02*
X26489Y16773D01*
X26399Y16773D02*
X26399Y17088D01*
X26429Y17043D01*
X26459Y17013D01*
X26489Y16998D01*
X26189Y17058D02*
X26174Y17073D01*
X26144Y17088D01*
X26069Y17088D01*
X26039Y17073D01*
X26024Y17058D01*
X26009Y17028D01*
X26009Y16998D01*
X26024Y16953D01*
X26204Y16773D01*
X26009Y16773D01*
X27104Y15773D02*
X27104Y16088D01*
X26984Y16088D01*
X26954Y16073D01*
X26939Y16058D01*
X26924Y16028D01*
X26924Y15983D01*
X26939Y15953D01*
X26954Y15938D01*
X26984Y15923D01*
X27104Y15923D01*
X26609Y15803D02*
X26624Y15788D01*
X26669Y15773D01*
X26699Y15773D01*
X26744Y15788D01*
X26774Y15818D01*
X26789Y15848D01*
X26804Y15908D01*
X26804Y15953D01*
X26789Y16013D01*
X26774Y16043D01*
X26744Y16073D01*
X26699Y16088D01*
X26669Y16088D01*
X26624Y16073D01*
X26609Y16058D01*
X26309Y15773D02*
X26489Y15773D01*
X26399Y15773D02*
X26399Y16088D01*
X26429Y16043D01*
X26459Y16013D01*
X26489Y15998D01*
X26039Y15983D02*
X26039Y15773D01*
X26114Y16103D02*
X26189Y15878D01*
X25994Y15878D01*
X27104Y14773D02*
X27104Y15088D01*
X26984Y15088D01*
X26954Y15073D01*
X26939Y15058D01*
X26924Y15028D01*
X26924Y14983D01*
X26939Y14953D01*
X26954Y14938D01*
X26984Y14923D01*
X27104Y14923D01*
X26609Y14803D02*
X26624Y14788D01*
X26669Y14773D01*
X26699Y14773D01*
X26744Y14788D01*
X26774Y14818D01*
X26789Y14848D01*
X26804Y14908D01*
X26804Y14953D01*
X26789Y15013D01*
X26774Y15043D01*
X26744Y15073D01*
X26699Y15088D01*
X26669Y15088D01*
X26624Y15073D01*
X26609Y15058D01*
X26309Y14773D02*
X26489Y14773D01*
X26399Y14773D02*
X26399Y15088D01*
X26429Y15043D01*
X26459Y15013D01*
X26489Y14998D01*
X26039Y15088D02*
X26099Y15088D01*
X26129Y15073D01*
X26144Y15058D01*
X26174Y15013D01*
X26189Y14953D01*
X26189Y14833D01*
X26174Y14803D01*
X26159Y14788D01*
X26129Y14773D01*
X26069Y14773D01*
X26039Y14788D01*
X26024Y14803D01*
X26009Y14833D01*
X26009Y14908D01*
X26024Y14938D01*
X26039Y14953D01*
X26069Y14968D01*
X26129Y14968D01*
X26159Y14953D01*
X26174Y14938D01*
X26189Y14908D01*
X27104Y13773D02*
X27104Y14088D01*
X26984Y14088D01*
X26954Y14073D01*
X26939Y14058D01*
X26924Y14028D01*
X26924Y13983D01*
X26939Y13953D01*
X26954Y13938D01*
X26984Y13923D01*
X27104Y13923D01*
X26609Y13803D02*
X26624Y13788D01*
X26669Y13773D01*
X26699Y13773D01*
X26744Y13788D01*
X26774Y13818D01*
X26789Y13848D01*
X26804Y13908D01*
X26804Y13953D01*
X26789Y14013D01*
X26774Y14043D01*
X26744Y14073D01*
X26699Y14088D01*
X26669Y14088D01*
X26624Y14073D01*
X26609Y14058D01*
X26309Y13773D02*
X26489Y13773D01*
X26399Y13773D02*
X26399Y14088D01*
X26429Y14043D01*
X26459Y14013D01*
X26489Y13998D01*
X26129Y13953D02*
X26159Y13968D01*
X26174Y13983D01*
X26189Y14013D01*
X26189Y14028D01*
X26174Y14058D01*
X26159Y14073D01*
X26129Y14088D01*
X26069Y14088D01*
X26039Y14073D01*
X26024Y14058D01*
X26009Y14028D01*
X26009Y14013D01*
X26024Y13983D01*
X26039Y13968D01*
X26069Y13953D01*
X26129Y13953D01*
X26159Y13938D01*
X26174Y13923D01*
X26189Y13893D01*
X26189Y13833D01*
X26174Y13803D01*
X26159Y13788D01*
X26129Y13773D01*
X26069Y13773D01*
X26039Y13788D01*
X26024Y13803D01*
X26009Y13833D01*
X26009Y13893D01*
X26024Y13923D01*
X26039Y13938D01*
X26069Y13953D01*
X32169Y38058D02*
X32154Y38073D01*
X32124Y38088D01*
X32049Y38088D01*
X32019Y38073D01*
X32004Y38058D01*
X31989Y38028D01*
X31989Y37998D01*
X32004Y37953D01*
X32184Y37773D01*
X31989Y37773D01*
X32019Y36983D02*
X32019Y36773D01*
X32094Y37103D02*
X32169Y36878D01*
X31974Y36878D01*
X32019Y36088D02*
X32079Y36088D01*
X32109Y36073D01*
X32124Y36058D01*
X32154Y36013D01*
X32169Y35953D01*
X32169Y35833D01*
X32154Y35803D01*
X32139Y35788D01*
X32109Y35773D01*
X32049Y35773D01*
X32019Y35788D01*
X32004Y35803D01*
X31989Y35833D01*
X31989Y35908D01*
X32004Y35938D01*
X32019Y35953D01*
X32049Y35968D01*
X32109Y35968D01*
X32139Y35953D01*
X32154Y35938D01*
X32169Y35908D01*
X32109Y34953D02*
X32139Y34968D01*
X32154Y34983D01*
X32169Y35013D01*
X32169Y35028D01*
X32154Y35058D01*
X32139Y35073D01*
X32109Y35088D01*
X32049Y35088D01*
X32019Y35073D01*
X32004Y35058D01*
X31989Y35028D01*
X31989Y35013D01*
X32004Y34983D01*
X32019Y34968D01*
X32049Y34953D01*
X32109Y34953D01*
X32139Y34938D01*
X32154Y34923D01*
X32169Y34893D01*
X32169Y34833D01*
X32154Y34803D01*
X32139Y34788D01*
X32109Y34773D01*
X32049Y34773D01*
X32019Y34788D01*
X32004Y34803D01*
X31989Y34833D01*
X31989Y34893D01*
X32004Y34923D01*
X32019Y34938D01*
X32049Y34953D01*
X32139Y33773D02*
X32319Y33773D01*
X32229Y33773D02*
X32229Y34088D01*
X32259Y34043D01*
X32289Y34013D01*
X32319Y33998D01*
X31944Y34088D02*
X31914Y34088D01*
X31884Y34073D01*
X31869Y34058D01*
X31854Y34028D01*
X31839Y33968D01*
X31839Y33893D01*
X31854Y33833D01*
X31869Y33803D01*
X31884Y33788D01*
X31914Y33773D01*
X31944Y33773D01*
X31974Y33788D01*
X31989Y33803D01*
X32004Y33833D01*
X32019Y33893D01*
X32019Y33968D01*
X32004Y34028D01*
X31989Y34058D01*
X31974Y34073D01*
X31944Y34088D01*
X32139Y32773D02*
X32319Y32773D01*
X32229Y32773D02*
X32229Y33088D01*
X32259Y33043D01*
X32289Y33013D01*
X32319Y32998D01*
X32019Y33058D02*
X32004Y33073D01*
X31974Y33088D01*
X31899Y33088D01*
X31869Y33073D01*
X31854Y33058D01*
X31839Y33028D01*
X31839Y32998D01*
X31854Y32953D01*
X32034Y32773D01*
X31839Y32773D01*
X32139Y31773D02*
X32319Y31773D01*
X32229Y31773D02*
X32229Y32088D01*
X32259Y32043D01*
X32289Y32013D01*
X32319Y31998D01*
X31869Y31983D02*
X31869Y31773D01*
X31944Y32103D02*
X32019Y31878D01*
X31824Y31878D01*
X32139Y30773D02*
X32319Y30773D01*
X32229Y30773D02*
X32229Y31088D01*
X32259Y31043D01*
X32289Y31013D01*
X32319Y30998D01*
X31869Y31088D02*
X31929Y31088D01*
X31959Y31073D01*
X31974Y31058D01*
X32004Y31013D01*
X32019Y30953D01*
X32019Y30833D01*
X32004Y30803D01*
X31989Y30788D01*
X31959Y30773D01*
X31899Y30773D01*
X31869Y30788D01*
X31854Y30803D01*
X31839Y30833D01*
X31839Y30908D01*
X31854Y30938D01*
X31869Y30953D01*
X31899Y30968D01*
X31959Y30968D01*
X31989Y30953D01*
X32004Y30938D01*
X32019Y30908D01*
X32139Y29773D02*
X32319Y29773D01*
X32229Y29773D02*
X32229Y30088D01*
X32259Y30043D01*
X32289Y30013D01*
X32319Y29998D01*
X31959Y29953D02*
X31989Y29968D01*
X32004Y29983D01*
X32019Y30013D01*
X32019Y30028D01*
X32004Y30058D01*
X31989Y30073D01*
X31959Y30088D01*
X31899Y30088D01*
X31869Y30073D01*
X31854Y30058D01*
X31839Y30028D01*
X31839Y30013D01*
X31854Y29983D01*
X31869Y29968D01*
X31899Y29953D01*
X31959Y29953D01*
X31989Y29938D01*
X32004Y29923D01*
X32019Y29893D01*
X32019Y29833D01*
X32004Y29803D01*
X31989Y29788D01*
X31959Y29773D01*
X31899Y29773D01*
X31869Y29788D01*
X31854Y29803D01*
X31839Y29833D01*
X31839Y29893D01*
X31854Y29923D01*
X31869Y29938D01*
X31899Y29953D01*
X32319Y29058D02*
X32304Y29073D01*
X32274Y29088D01*
X32199Y29088D01*
X32169Y29073D01*
X32154Y29058D01*
X32139Y29028D01*
X32139Y28998D01*
X32154Y28953D01*
X32334Y28773D01*
X32139Y28773D01*
X31944Y29088D02*
X31914Y29088D01*
X31884Y29073D01*
X31869Y29058D01*
X31854Y29028D01*
X31839Y28968D01*
X31839Y28893D01*
X31854Y28833D01*
X31869Y28803D01*
X31884Y28788D01*
X31914Y28773D01*
X31944Y28773D01*
X31974Y28788D01*
X31989Y28803D01*
X32004Y28833D01*
X32019Y28893D01*
X32019Y28968D01*
X32004Y29028D01*
X31989Y29058D01*
X31974Y29073D01*
X31944Y29088D01*
X32319Y28058D02*
X32304Y28073D01*
X32274Y28088D01*
X32199Y28088D01*
X32169Y28073D01*
X32154Y28058D01*
X32139Y28028D01*
X32139Y27998D01*
X32154Y27953D01*
X32334Y27773D01*
X32139Y27773D01*
X32019Y28058D02*
X32004Y28073D01*
X31974Y28088D01*
X31899Y28088D01*
X31869Y28073D01*
X31854Y28058D01*
X31839Y28028D01*
X31839Y27998D01*
X31854Y27953D01*
X32034Y27773D01*
X31839Y27773D01*
X32319Y27058D02*
X32304Y27073D01*
X32274Y27088D01*
X32199Y27088D01*
X32169Y27073D01*
X32154Y27058D01*
X32139Y27028D01*
X32139Y26998D01*
X32154Y26953D01*
X32334Y26773D01*
X32139Y26773D01*
X31869Y26983D02*
X31869Y26773D01*
X31944Y27103D02*
X32019Y26878D01*
X31824Y26878D01*
X32319Y26058D02*
X32304Y26073D01*
X32274Y26088D01*
X32199Y26088D01*
X32169Y26073D01*
X32154Y26058D01*
X32139Y26028D01*
X32139Y25998D01*
X32154Y25953D01*
X32334Y25773D01*
X32139Y25773D01*
X31869Y26088D02*
X31929Y26088D01*
X31959Y26073D01*
X31974Y26058D01*
X32004Y26013D01*
X32019Y25953D01*
X32019Y25833D01*
X32004Y25803D01*
X31989Y25788D01*
X31959Y25773D01*
X31899Y25773D01*
X31869Y25788D01*
X31854Y25803D01*
X31839Y25833D01*
X31839Y25908D01*
X31854Y25938D01*
X31869Y25953D01*
X31899Y25968D01*
X31959Y25968D01*
X31989Y25953D01*
X32004Y25938D01*
X32019Y25908D01*
X32319Y25058D02*
X32304Y25073D01*
X32274Y25088D01*
X32199Y25088D01*
X32169Y25073D01*
X32154Y25058D01*
X32139Y25028D01*
X32139Y24998D01*
X32154Y24953D01*
X32334Y24773D01*
X32139Y24773D01*
X31959Y24953D02*
X31989Y24968D01*
X32004Y24983D01*
X32019Y25013D01*
X32019Y25028D01*
X32004Y25058D01*
X31989Y25073D01*
X31959Y25088D01*
X31899Y25088D01*
X31869Y25073D01*
X31854Y25058D01*
X31839Y25028D01*
X31839Y25013D01*
X31854Y24983D01*
X31869Y24968D01*
X31899Y24953D01*
X31959Y24953D01*
X31989Y24938D01*
X32004Y24923D01*
X32019Y24893D01*
X32019Y24833D01*
X32004Y24803D01*
X31989Y24788D01*
X31959Y24773D01*
X31899Y24773D01*
X31869Y24788D01*
X31854Y24803D01*
X31839Y24833D01*
X31839Y24893D01*
X31854Y24923D01*
X31869Y24938D01*
X31899Y24953D01*
X32334Y24088D02*
X32139Y24088D01*
X32244Y23968D01*
X32199Y23968D01*
X32169Y23953D01*
X32154Y23938D01*
X32139Y23908D01*
X32139Y23833D01*
X32154Y23803D01*
X32169Y23788D01*
X32199Y23773D01*
X32289Y23773D01*
X32319Y23788D01*
X32334Y23803D01*
X31944Y24088D02*
X31914Y24088D01*
X31884Y24073D01*
X31869Y24058D01*
X31854Y24028D01*
X31839Y23968D01*
X31839Y23893D01*
X31854Y23833D01*
X31869Y23803D01*
X31884Y23788D01*
X31914Y23773D01*
X31944Y23773D01*
X31974Y23788D01*
X31989Y23803D01*
X32004Y23833D01*
X32019Y23893D01*
X32019Y23968D01*
X32004Y24028D01*
X31989Y24058D01*
X31974Y24073D01*
X31944Y24088D01*
X32334Y23088D02*
X32139Y23088D01*
X32244Y22968D01*
X32199Y22968D01*
X32169Y22953D01*
X32154Y22938D01*
X32139Y22908D01*
X32139Y22833D01*
X32154Y22803D01*
X32169Y22788D01*
X32199Y22773D01*
X32289Y22773D01*
X32319Y22788D01*
X32334Y22803D01*
X32019Y23058D02*
X32004Y23073D01*
X31974Y23088D01*
X31899Y23088D01*
X31869Y23073D01*
X31854Y23058D01*
X31839Y23028D01*
X31839Y22998D01*
X31854Y22953D01*
X32034Y22773D01*
X31839Y22773D01*
X32334Y22088D02*
X32139Y22088D01*
X32244Y21968D01*
X32199Y21968D01*
X32169Y21953D01*
X32154Y21938D01*
X32139Y21908D01*
X32139Y21833D01*
X32154Y21803D01*
X32169Y21788D01*
X32199Y21773D01*
X32289Y21773D01*
X32319Y21788D01*
X32334Y21803D01*
X31869Y21983D02*
X31869Y21773D01*
X31944Y22103D02*
X32019Y21878D01*
X31824Y21878D01*
X32334Y21088D02*
X32139Y21088D01*
X32244Y20968D01*
X32199Y20968D01*
X32169Y20953D01*
X32154Y20938D01*
X32139Y20908D01*
X32139Y20833D01*
X32154Y20803D01*
X32169Y20788D01*
X32199Y20773D01*
X32289Y20773D01*
X32319Y20788D01*
X32334Y20803D01*
X31869Y21088D02*
X31929Y21088D01*
X31959Y21073D01*
X31974Y21058D01*
X32004Y21013D01*
X32019Y20953D01*
X32019Y20833D01*
X32004Y20803D01*
X31989Y20788D01*
X31959Y20773D01*
X31899Y20773D01*
X31869Y20788D01*
X31854Y20803D01*
X31839Y20833D01*
X31839Y20908D01*
X31854Y20938D01*
X31869Y20953D01*
X31899Y20968D01*
X31959Y20968D01*
X31989Y20953D01*
X32004Y20938D01*
X32019Y20908D01*
X32334Y20088D02*
X32139Y20088D01*
X32244Y19968D01*
X32199Y19968D01*
X32169Y19953D01*
X32154Y19938D01*
X32139Y19908D01*
X32139Y19833D01*
X32154Y19803D01*
X32169Y19788D01*
X32199Y19773D01*
X32289Y19773D01*
X32319Y19788D01*
X32334Y19803D01*
X31959Y19953D02*
X31989Y19968D01*
X32004Y19983D01*
X32019Y20013D01*
X32019Y20028D01*
X32004Y20058D01*
X31989Y20073D01*
X31959Y20088D01*
X31899Y20088D01*
X31869Y20073D01*
X31854Y20058D01*
X31839Y20028D01*
X31839Y20013D01*
X31854Y19983D01*
X31869Y19968D01*
X31899Y19953D01*
X31959Y19953D01*
X31989Y19938D01*
X32004Y19923D01*
X32019Y19893D01*
X32019Y19833D01*
X32004Y19803D01*
X31989Y19788D01*
X31959Y19773D01*
X31899Y19773D01*
X31869Y19788D01*
X31854Y19803D01*
X31839Y19833D01*
X31839Y19893D01*
X31854Y19923D01*
X31869Y19938D01*
X31899Y19953D01*
X32169Y18983D02*
X32169Y18773D01*
X32244Y19103D02*
X32319Y18878D01*
X32124Y18878D01*
X31944Y19088D02*
X31914Y19088D01*
X31884Y19073D01*
X31869Y19058D01*
X31854Y19028D01*
X31839Y18968D01*
X31839Y18893D01*
X31854Y18833D01*
X31869Y18803D01*
X31884Y18788D01*
X31914Y18773D01*
X31944Y18773D01*
X31974Y18788D01*
X31989Y18803D01*
X32004Y18833D01*
X32019Y18893D01*
X32019Y18968D01*
X32004Y19028D01*
X31989Y19058D01*
X31974Y19073D01*
X31944Y19088D01*
X32169Y17983D02*
X32169Y17773D01*
X32244Y18103D02*
X32319Y17878D01*
X32124Y17878D01*
X32019Y18058D02*
X32004Y18073D01*
X31974Y18088D01*
X31899Y18088D01*
X31869Y18073D01*
X31854Y18058D01*
X31839Y18028D01*
X31839Y17998D01*
X31854Y17953D01*
X32034Y17773D01*
X31839Y17773D01*
X32169Y16983D02*
X32169Y16773D01*
X32244Y17103D02*
X32319Y16878D01*
X32124Y16878D01*
X31869Y16983D02*
X31869Y16773D01*
X31944Y17103D02*
X32019Y16878D01*
X31824Y16878D01*
X32169Y15983D02*
X32169Y15773D01*
X32244Y16103D02*
X32319Y15878D01*
X32124Y15878D01*
X31869Y16088D02*
X31929Y16088D01*
X31959Y16073D01*
X31974Y16058D01*
X32004Y16013D01*
X32019Y15953D01*
X32019Y15833D01*
X32004Y15803D01*
X31989Y15788D01*
X31959Y15773D01*
X31899Y15773D01*
X31869Y15788D01*
X31854Y15803D01*
X31839Y15833D01*
X31839Y15908D01*
X31854Y15938D01*
X31869Y15953D01*
X31899Y15968D01*
X31959Y15968D01*
X31989Y15953D01*
X32004Y15938D01*
X32019Y15908D01*
X32169Y14983D02*
X32169Y14773D01*
X32244Y15103D02*
X32319Y14878D01*
X32124Y14878D01*
X31959Y14953D02*
X31989Y14968D01*
X32004Y14983D01*
X32019Y15013D01*
X32019Y15028D01*
X32004Y15058D01*
X31989Y15073D01*
X31959Y15088D01*
X31899Y15088D01*
X31869Y15073D01*
X31854Y15058D01*
X31839Y15028D01*
X31839Y15013D01*
X31854Y14983D01*
X31869Y14968D01*
X31899Y14953D01*
X31959Y14953D01*
X31989Y14938D01*
X32004Y14923D01*
X32019Y14893D01*
X32019Y14833D01*
X32004Y14803D01*
X31989Y14788D01*
X31959Y14773D01*
X31899Y14773D01*
X31869Y14788D01*
X31854Y14803D01*
X31839Y14833D01*
X31839Y14893D01*
X31854Y14923D01*
X31869Y14938D01*
X31899Y14953D01*
X32154Y14088D02*
X32304Y14088D01*
X32319Y13938D01*
X32304Y13953D01*
X32274Y13968D01*
X32199Y13968D01*
X32169Y13953D01*
X32154Y13938D01*
X32139Y13908D01*
X32139Y13833D01*
X32154Y13803D01*
X32169Y13788D01*
X32199Y13773D01*
X32274Y13773D01*
X32304Y13788D01*
X32319Y13803D01*
X31944Y14088D02*
X31914Y14088D01*
X31884Y14073D01*
X31869Y14058D01*
X31854Y14028D01*
X31839Y13968D01*
X31839Y13893D01*
X31854Y13833D01*
X31869Y13803D01*
X31884Y13788D01*
X31914Y13773D01*
X31944Y13773D01*
X31974Y13788D01*
X31989Y13803D01*
X32004Y13833D01*
X32019Y13893D01*
X32019Y13968D01*
X32004Y14028D01*
X31989Y14058D01*
X31974Y14073D01*
X31944Y14088D01*
X00508Y03548D02*
X00508Y03443D01*
X00343Y03443D02*
X00658Y03443D01*
X00658Y03593D01*
X00433Y03698D02*
X00433Y03848D01*
X00343Y03668D02*
X00658Y03773D01*
X00343Y03878D01*
X00343Y03983D02*
X00658Y03983D01*
X00343Y04163D01*
X00658Y04163D01*
X00508Y06953D02*
X00508Y07058D01*
X00343Y07103D02*
X00343Y06953D01*
X00658Y06953D01*
X00658Y07103D01*
X00658Y07298D02*
X00658Y07328D01*
X00643Y07358D01*
X00628Y07373D01*
X00598Y07388D01*
X00538Y07403D01*
X00463Y07403D01*
X00403Y07388D01*
X00373Y07373D01*
X00358Y07358D01*
X00343Y07328D01*
X00343Y07298D01*
X00358Y07268D01*
X00373Y07253D01*
X00403Y07238D01*
X00463Y07223D01*
X00538Y07223D01*
X00598Y07238D01*
X00628Y07253D01*
X00643Y07268D01*
X00658Y07298D01*
X00658Y07733D02*
X00658Y07913D01*
X00343Y07823D02*
X00658Y07823D01*
X00508Y08018D02*
X00508Y08123D01*
X00343Y08168D02*
X00343Y08018D01*
X00658Y08018D01*
X00658Y08168D01*
X00343Y08303D02*
X00658Y08303D01*
X00433Y08408D01*
X00658Y08513D01*
X00343Y08513D01*
X00343Y08663D02*
X00658Y08663D01*
X00658Y08783D01*
X00643Y08813D01*
X00628Y08828D01*
X00598Y08843D01*
X00553Y08843D01*
X00523Y08828D01*
X00508Y08813D01*
X00493Y08783D01*
X00493Y08663D01*
X00508Y10418D02*
X00508Y10523D01*
X00343Y10568D02*
X00343Y10418D01*
X00658Y10418D01*
X00658Y10568D01*
X00658Y10763D02*
X00658Y10793D01*
X00643Y10823D01*
X00628Y10838D01*
X00598Y10853D01*
X00538Y10868D01*
X00463Y10868D01*
X00403Y10853D01*
X00373Y10838D01*
X00358Y10823D01*
X00343Y10793D01*
X00343Y10763D01*
X00358Y10733D01*
X00373Y10718D01*
X00403Y10703D01*
X00463Y10688D01*
X00538Y10688D01*
X00598Y10703D01*
X00628Y10718D01*
X00643Y10733D01*
X00658Y10763D01*
X00343Y11243D02*
X00658Y11243D01*
X00508Y11243D02*
X00508Y11423D01*
X00343Y11423D02*
X00658Y11423D01*
X00508Y11573D02*
X00508Y11678D01*
X00343Y11723D02*
X00343Y11573D01*
X00658Y11573D01*
X00658Y11723D01*
X00433Y11843D02*
X00433Y11993D01*
X00343Y11813D02*
X00658Y11918D01*
X00343Y12023D01*
X00658Y12083D02*
X00658Y12263D01*
X00343Y12173D02*
X00658Y12173D01*
X00508Y12368D02*
X00508Y12473D01*
X00343Y12518D02*
X00343Y12368D01*
X00658Y12368D01*
X00658Y12518D01*
X00343Y12833D02*
X00493Y12728D01*
X00343Y12653D02*
X00658Y12653D01*
X00658Y12773D01*
X00643Y12803D01*
X00628Y12818D01*
X00598Y12833D01*
X00553Y12833D01*
X00523Y12818D01*
X00508Y12803D01*
X00493Y12773D01*
X00493Y12653D01*
X03676Y12728D02*
X03571Y12728D01*
X03526Y12563D02*
X03676Y12563D01*
X03676Y12878D01*
X03526Y12878D01*
X03331Y12878D02*
X03301Y12878D01*
X03271Y12863D01*
X03256Y12848D01*
X03241Y12818D01*
X03226Y12758D01*
X03226Y12683D01*
X03241Y12623D01*
X03256Y12593D01*
X03271Y12578D01*
X03301Y12563D01*
X03331Y12563D01*
X03361Y12578D01*
X03376Y12593D01*
X03391Y12623D01*
X03406Y12683D01*
X03406Y12758D01*
X03391Y12818D01*
X03376Y12848D01*
X03361Y12863D01*
X03331Y12878D01*
X03091Y12683D02*
X02851Y12683D01*
X03676Y11728D02*
X03571Y11728D01*
X03526Y11563D02*
X03676Y11563D01*
X03676Y11878D01*
X03526Y11878D01*
X03331Y11878D02*
X03301Y11878D01*
X03271Y11863D01*
X03256Y11848D01*
X03241Y11818D01*
X03226Y11758D01*
X03226Y11683D01*
X03241Y11623D01*
X03256Y11593D01*
X03271Y11578D01*
X03301Y11563D01*
X03331Y11563D01*
X03361Y11578D01*
X03376Y11593D01*
X03391Y11623D01*
X03406Y11683D01*
X03406Y11758D01*
X03391Y11818D01*
X03376Y11848D01*
X03361Y11863D01*
X03331Y11878D01*
X03091Y11683D02*
X02851Y11683D01*
X03496Y10878D02*
X03391Y10563D01*
X03286Y10878D01*
X03181Y10563D02*
X03181Y10878D01*
X03031Y10563D02*
X03031Y10878D01*
X02851Y10563D01*
X02851Y10878D01*
X03496Y09878D02*
X03391Y09563D01*
X03286Y09878D01*
X03181Y09563D02*
X03181Y09878D01*
X03031Y09563D02*
X03031Y09878D01*
X02851Y09563D01*
X02851Y09878D01*
X03721Y08563D02*
X03826Y08713D01*
X03901Y08563D02*
X03901Y08878D01*
X03781Y08878D01*
X03751Y08863D01*
X03736Y08848D01*
X03721Y08818D01*
X03721Y08773D01*
X03736Y08743D01*
X03751Y08728D01*
X03781Y08713D01*
X03901Y08713D01*
X03496Y08443D02*
X03511Y08458D01*
X03541Y08503D01*
X03556Y08533D01*
X03571Y08578D01*
X03586Y08653D01*
X03586Y08713D01*
X03571Y08788D01*
X03556Y08833D01*
X03541Y08863D01*
X03511Y08908D01*
X03496Y08923D01*
X03421Y08773D02*
X03301Y08773D01*
X03376Y08878D02*
X03376Y08608D01*
X03361Y08578D01*
X03331Y08563D01*
X03301Y08563D01*
X03196Y08563D02*
X03196Y08878D01*
X03061Y08563D02*
X03061Y08728D01*
X03076Y08758D01*
X03106Y08773D01*
X03151Y08773D01*
X03181Y08758D01*
X03196Y08743D01*
X02941Y08443D02*
X02926Y08458D01*
X02896Y08503D01*
X02881Y08533D01*
X02866Y08578D01*
X02851Y08653D01*
X02851Y08713D01*
X02866Y08788D01*
X02881Y08833D01*
X02896Y08863D01*
X02926Y08908D01*
X02941Y08923D01*
X03886Y07878D02*
X03781Y07563D01*
X03676Y07878D01*
X03586Y07578D02*
X03541Y07563D01*
X03466Y07563D01*
X03436Y07578D01*
X03421Y07593D01*
X03406Y07623D01*
X03406Y07653D01*
X03421Y07683D01*
X03436Y07698D01*
X03466Y07713D01*
X03526Y07728D01*
X03556Y07743D01*
X03571Y07758D01*
X03586Y07788D01*
X03586Y07818D01*
X03571Y07848D01*
X03556Y07863D01*
X03526Y07878D01*
X03451Y07878D01*
X03406Y07863D01*
X03286Y07578D02*
X03241Y07563D01*
X03166Y07563D01*
X03136Y07578D01*
X03121Y07593D01*
X03106Y07623D01*
X03106Y07653D01*
X03121Y07683D01*
X03136Y07698D01*
X03166Y07713D01*
X03226Y07728D01*
X03256Y07743D01*
X03271Y07758D01*
X03286Y07788D01*
X03286Y07818D01*
X03271Y07848D01*
X03256Y07863D01*
X03226Y07878D01*
X03151Y07878D01*
X03106Y07863D01*
X02986Y07653D02*
X02836Y07653D01*
X03016Y07563D02*
X02911Y07878D01*
X02806Y07563D01*
X03736Y06878D02*
X03631Y06563D01*
X03526Y06878D01*
X03496Y06533D02*
X03256Y06533D01*
X03181Y06563D02*
X03181Y06878D01*
X03031Y06563D02*
X03031Y06878D01*
X02851Y06563D01*
X02851Y06878D01*
X03496Y05863D02*
X03526Y05878D01*
X03571Y05878D01*
X03616Y05863D01*
X03646Y05833D01*
X03661Y05803D01*
X03676Y05743D01*
X03676Y05698D01*
X03661Y05638D01*
X03646Y05608D01*
X03616Y05578D01*
X03571Y05563D01*
X03541Y05563D01*
X03496Y05578D01*
X03481Y05593D01*
X03481Y05698D01*
X03541Y05698D01*
X03346Y05563D02*
X03346Y05878D01*
X03166Y05563D01*
X03166Y05878D01*
X03016Y05563D02*
X03016Y05878D01*
X02941Y05878D01*
X02896Y05863D01*
X02866Y05833D01*
X02851Y05803D01*
X02836Y05743D01*
X02836Y05698D01*
X02851Y05638D01*
X02866Y05608D01*
X02896Y05578D01*
X02941Y05563D01*
X03016Y05563D01*
X03856Y04728D02*
X03961Y04728D01*
X03961Y04563D02*
X03961Y04878D01*
X03811Y04878D01*
X03706Y04653D02*
X03556Y04653D01*
X03736Y04563D02*
X03631Y04878D01*
X03526Y04563D01*
X03421Y04563D02*
X03421Y04878D01*
X03241Y04563D01*
X03241Y04878D01*
X03091Y04683D02*
X02851Y04683D01*
X03496Y03878D02*
X03391Y03563D01*
X03286Y03878D01*
X03181Y03563D02*
X03181Y03878D01*
X03031Y03563D02*
X03031Y03878D01*
X02851Y03563D01*
X02851Y03878D01*
X00508Y14083D02*
X00508Y14188D01*
X00343Y14233D02*
X00343Y14083D01*
X00658Y14083D01*
X00658Y14233D01*
X00658Y14338D02*
X00343Y14548D01*
X00658Y14548D02*
X00343Y14338D01*
X00658Y14623D02*
X00658Y14803D01*
X00343Y14713D02*
X00658Y14713D01*
X00343Y15088D02*
X00493Y14983D01*
X00343Y14908D02*
X00658Y14908D01*
X00658Y15028D01*
X00643Y15058D01*
X00628Y15073D01*
X00598Y15088D01*
X00553Y15088D01*
X00523Y15073D01*
X00508Y15058D01*
X00493Y15028D01*
X00493Y14908D01*
X00658Y15223D02*
X00403Y15223D01*
X00373Y15238D01*
X00358Y15253D01*
X00343Y15283D01*
X00343Y15343D01*
X00358Y15373D01*
X00373Y15388D01*
X00403Y15403D01*
X00658Y15403D01*
X00343Y15553D02*
X00658Y15553D01*
X00658Y15628D01*
X00643Y15673D01*
X00613Y15703D01*
X00583Y15718D01*
X00523Y15733D01*
X00478Y15733D01*
X00418Y15718D01*
X00388Y15703D01*
X00358Y15673D01*
X00343Y15628D01*
X00343Y15553D01*
X00508Y15868D02*
X00508Y15973D01*
X00343Y16018D02*
X00343Y15868D01*
X00658Y15868D01*
X00658Y16018D01*
X00343Y16333D02*
X00493Y16228D01*
X00343Y16153D02*
X00658Y16153D01*
X00658Y16273D01*
X00643Y16303D01*
X00628Y16318D01*
X00598Y16333D01*
X00553Y16333D01*
X00523Y16318D01*
X00508Y16303D01*
X00493Y16273D01*
X00493Y16153D01*
X00343Y16708D02*
X00658Y16708D01*
X00433Y16813D01*
X00658Y16918D01*
X00343Y16918D01*
X00658Y17128D02*
X00658Y17188D01*
X00643Y17218D01*
X00613Y17248D01*
X00553Y17263D01*
X00448Y17263D01*
X00388Y17248D01*
X00358Y17218D01*
X00343Y17188D01*
X00343Y17128D01*
X00358Y17098D01*
X00388Y17068D01*
X00448Y17053D01*
X00553Y17053D01*
X00613Y17068D01*
X00643Y17098D01*
X00658Y17128D01*
X00658Y17353D02*
X00658Y17533D01*
X00343Y17443D02*
X00658Y17443D01*
X00658Y17698D02*
X00658Y17758D01*
X00643Y17788D01*
X00613Y17818D01*
X00553Y17833D01*
X00448Y17833D01*
X00388Y17818D01*
X00358Y17788D01*
X00343Y17758D01*
X00343Y17698D01*
X00358Y17668D01*
X00388Y17638D01*
X00448Y17623D01*
X00553Y17623D01*
X00613Y17638D01*
X00643Y17668D01*
X00658Y17698D01*
X00343Y18148D02*
X00493Y18043D01*
X00343Y17968D02*
X00658Y17968D01*
X00658Y18088D01*
X00643Y18118D01*
X00628Y18133D01*
X00598Y18148D01*
X00553Y18148D01*
X00523Y18133D01*
X00508Y18118D01*
X00493Y18088D01*
X00493Y17968D01*
X00673Y18508D02*
X00268Y18238D01*
X00358Y18598D02*
X00343Y18643D01*
X00343Y18718D01*
X00358Y18748D01*
X00373Y18763D01*
X00403Y18778D01*
X00433Y18778D01*
X00463Y18763D01*
X00478Y18748D01*
X00493Y18718D01*
X00508Y18658D01*
X00523Y18628D01*
X00538Y18613D01*
X00568Y18598D01*
X00598Y18598D01*
X00628Y18613D01*
X00643Y18628D01*
X00658Y18658D01*
X00658Y18733D01*
X00643Y18778D01*
X00658Y18868D02*
X00658Y19048D01*
X00343Y18958D02*
X00658Y18958D01*
X00658Y19213D02*
X00658Y19273D01*
X00643Y19303D01*
X00613Y19333D01*
X00553Y19348D01*
X00448Y19348D01*
X00388Y19333D01*
X00358Y19303D01*
X00343Y19273D01*
X00343Y19213D01*
X00358Y19183D01*
X00388Y19153D01*
X00448Y19138D01*
X00553Y19138D01*
X00613Y19153D01*
X00643Y19183D01*
X00658Y19213D01*
X00343Y19483D02*
X00658Y19483D01*
X00658Y19603D01*
X00643Y19633D01*
X00628Y19648D01*
X00598Y19663D01*
X00553Y19663D01*
X00523Y19648D01*
X00508Y19633D01*
X00493Y19603D01*
X00493Y19483D01*
X00763Y22278D02*
X00448Y22488D01*
X00763Y22488D02*
X00448Y22278D01*
X00568Y22608D02*
X00568Y22848D01*
X00538Y22983D02*
X00538Y23133D01*
X00448Y22953D02*
X00763Y23058D01*
X00448Y23163D01*
X00763Y23238D02*
X00448Y23448D01*
X00763Y23448D02*
X00448Y23238D01*
X00448Y23568D02*
X00763Y23568D01*
X00463Y23703D02*
X00448Y23748D01*
X00448Y23823D01*
X00463Y23853D01*
X00478Y23868D01*
X00508Y23883D01*
X00538Y23883D01*
X00568Y23868D01*
X00583Y23853D01*
X00598Y23823D01*
X00613Y23763D01*
X00628Y23733D01*
X00643Y23718D01*
X00673Y23703D01*
X00703Y23703D01*
X00733Y23718D01*
X00748Y23733D01*
X00763Y23763D01*
X00763Y23838D01*
X00748Y23883D01*
X00448Y24258D02*
X00763Y24258D01*
X00538Y24363D01*
X00763Y24468D01*
X00448Y24468D01*
X00763Y24678D02*
X00763Y24738D01*
X00748Y24768D01*
X00718Y24798D01*
X00658Y24813D01*
X00553Y24813D01*
X00493Y24798D01*
X00463Y24768D01*
X00448Y24738D01*
X00448Y24678D01*
X00463Y24648D01*
X00493Y24618D01*
X00553Y24603D01*
X00658Y24603D01*
X00718Y24618D01*
X00748Y24648D01*
X00763Y24678D01*
X00763Y24903D02*
X00763Y25083D01*
X00448Y24993D02*
X00763Y24993D01*
X00763Y25248D02*
X00763Y25308D01*
X00748Y25338D01*
X00718Y25368D01*
X00658Y25383D01*
X00553Y25383D01*
X00493Y25368D01*
X00463Y25338D01*
X00448Y25308D01*
X00448Y25248D01*
X00463Y25218D01*
X00493Y25188D01*
X00553Y25173D01*
X00658Y25173D01*
X00718Y25188D01*
X00748Y25218D01*
X00763Y25248D01*
X00448Y25698D02*
X00598Y25593D01*
X00448Y25518D02*
X00763Y25518D01*
X00763Y25638D01*
X00748Y25668D01*
X00733Y25683D01*
X00703Y25698D01*
X00658Y25698D01*
X00628Y25683D01*
X00613Y25668D01*
X00598Y25638D01*
X00598Y25518D01*
X00778Y26058D02*
X00373Y25788D01*
X00463Y26148D02*
X00448Y26193D01*
X00448Y26268D01*
X00463Y26298D01*
X00478Y26313D01*
X00508Y26328D01*
X00538Y26328D01*
X00568Y26313D01*
X00583Y26298D01*
X00598Y26268D01*
X00613Y26208D01*
X00628Y26178D01*
X00643Y26163D01*
X00673Y26148D01*
X00703Y26148D01*
X00733Y26163D01*
X00748Y26178D01*
X00763Y26208D01*
X00763Y26283D01*
X00748Y26328D01*
X00763Y26418D02*
X00763Y26598D01*
X00448Y26508D02*
X00763Y26508D01*
X00763Y26763D02*
X00763Y26823D01*
X00748Y26853D01*
X00718Y26883D01*
X00658Y26898D01*
X00553Y26898D01*
X00493Y26883D01*
X00463Y26853D01*
X00448Y26823D01*
X00448Y26763D01*
X00463Y26733D01*
X00493Y26703D01*
X00553Y26688D01*
X00658Y26688D01*
X00718Y26703D01*
X00748Y26733D01*
X00763Y26763D01*
X00448Y27033D02*
X00763Y27033D01*
X00763Y27153D01*
X00748Y27183D01*
X00733Y27198D01*
X00703Y27213D01*
X00658Y27213D01*
X00628Y27198D01*
X00613Y27183D01*
X00598Y27153D01*
X00598Y27033D01*
X00533Y30293D02*
X00383Y30293D01*
X00698Y30188D02*
X00533Y30293D01*
X00698Y30398D01*
X00503Y30503D02*
X00503Y30743D01*
X00473Y30878D02*
X00473Y31028D01*
X00383Y30848D02*
X00698Y30953D01*
X00383Y31058D01*
X00698Y31133D02*
X00383Y31343D01*
X00698Y31343D02*
X00383Y31133D01*
X00383Y31463D02*
X00698Y31463D01*
X00398Y31598D02*
X00383Y31643D01*
X00383Y31718D01*
X00398Y31748D01*
X00413Y31763D01*
X00443Y31778D01*
X00473Y31778D01*
X00503Y31763D01*
X00518Y31748D01*
X00533Y31718D01*
X00548Y31658D01*
X00563Y31628D01*
X00578Y31613D01*
X00608Y31598D01*
X00638Y31598D01*
X00668Y31613D01*
X00683Y31628D01*
X00698Y31658D01*
X00698Y31733D01*
X00683Y31778D01*
X00383Y32153D02*
X00698Y32153D01*
X00473Y32258D01*
X00698Y32363D01*
X00383Y32363D01*
X00698Y32573D02*
X00698Y32633D01*
X00683Y32663D01*
X00653Y32693D01*
X00593Y32708D01*
X00488Y32708D01*
X00428Y32693D01*
X00398Y32663D01*
X00383Y32633D01*
X00383Y32573D01*
X00398Y32543D01*
X00428Y32513D01*
X00488Y32498D01*
X00593Y32498D01*
X00653Y32513D01*
X00683Y32543D01*
X00698Y32573D01*
X00698Y32798D02*
X00698Y32978D01*
X00383Y32888D02*
X00698Y32888D01*
X00698Y33143D02*
X00698Y33203D01*
X00683Y33233D01*
X00653Y33263D01*
X00593Y33278D01*
X00488Y33278D01*
X00428Y33263D01*
X00398Y33233D01*
X00383Y33203D01*
X00383Y33143D01*
X00398Y33113D01*
X00428Y33083D01*
X00488Y33068D01*
X00593Y33068D01*
X00653Y33083D01*
X00683Y33113D01*
X00698Y33143D01*
X00383Y33593D02*
X00533Y33488D01*
X00383Y33413D02*
X00698Y33413D01*
X00698Y33533D01*
X00683Y33563D01*
X00668Y33578D01*
X00638Y33593D01*
X00593Y33593D01*
X00563Y33578D01*
X00548Y33563D01*
X00533Y33533D01*
X00533Y33413D01*
X00713Y33953D02*
X00308Y33683D01*
X00398Y34043D02*
X00383Y34088D01*
X00383Y34163D01*
X00398Y34193D01*
X00413Y34208D01*
X00443Y34223D01*
X00473Y34223D01*
X00503Y34208D01*
X00518Y34193D01*
X00533Y34163D01*
X00548Y34103D01*
X00563Y34073D01*
X00578Y34058D01*
X00608Y34043D01*
X00638Y34043D01*
X00668Y34058D01*
X00683Y34073D01*
X00698Y34103D01*
X00698Y34178D01*
X00683Y34223D01*
X00698Y34313D02*
X00698Y34493D01*
X00383Y34403D02*
X00698Y34403D01*
X00698Y34658D02*
X00698Y34718D01*
X00683Y34748D01*
X00653Y34778D01*
X00593Y34793D01*
X00488Y34793D01*
X00428Y34778D01*
X00398Y34748D01*
X00383Y34718D01*
X00383Y34658D01*
X00398Y34628D01*
X00428Y34598D01*
X00488Y34583D01*
X00593Y34583D01*
X00653Y34598D01*
X00683Y34628D01*
X00698Y34658D01*
X00383Y34928D02*
X00698Y34928D01*
X00698Y35048D01*
X00683Y35078D01*
X00668Y35093D01*
X00638Y35108D01*
X00593Y35108D01*
X00563Y35093D01*
X00548Y35078D01*
X00533Y35048D01*
X00533Y34928D01*
X00632Y38079D02*
X00632Y38289D01*
X00317Y38079D01*
X00317Y38289D01*
X00437Y38409D02*
X00437Y38649D01*
X00407Y38784D02*
X00407Y38934D01*
X00317Y38754D02*
X00632Y38859D01*
X00317Y38964D01*
X00632Y39039D02*
X00317Y39249D01*
X00632Y39249D02*
X00317Y39039D01*
X00317Y39369D02*
X00632Y39369D01*
X00332Y39504D02*
X00317Y39549D01*
X00317Y39624D01*
X00332Y39654D01*
X00347Y39669D01*
X00377Y39684D01*
X00407Y39684D01*
X00437Y39669D01*
X00452Y39654D01*
X00467Y39624D01*
X00482Y39564D01*
X00497Y39534D01*
X00512Y39519D01*
X00542Y39504D01*
X00572Y39504D01*
X00602Y39519D01*
X00617Y39534D01*
X00632Y39564D01*
X00632Y39639D01*
X00617Y39684D01*
X00317Y40059D02*
X00632Y40059D01*
X00407Y40164D01*
X00632Y40269D01*
X00317Y40269D01*
X00632Y40479D02*
X00632Y40539D01*
X00617Y40569D01*
X00587Y40599D01*
X00527Y40614D01*
X00422Y40614D01*
X00362Y40599D01*
X00332Y40569D01*
X00317Y40539D01*
X00317Y40479D01*
X00332Y40449D01*
X00362Y40419D01*
X00422Y40404D01*
X00527Y40404D01*
X00587Y40419D01*
X00617Y40449D01*
X00632Y40479D01*
X00632Y40704D02*
X00632Y40884D01*
X00317Y40794D02*
X00632Y40794D01*
X00632Y41049D02*
X00632Y41109D01*
X00617Y41139D01*
X00587Y41169D01*
X00527Y41184D01*
X00422Y41184D01*
X00362Y41169D01*
X00332Y41139D01*
X00317Y41109D01*
X00317Y41049D01*
X00332Y41019D01*
X00362Y40989D01*
X00422Y40974D01*
X00527Y40974D01*
X00587Y40989D01*
X00617Y41019D01*
X00632Y41049D01*
X00317Y41499D02*
X00467Y41394D01*
X00317Y41319D02*
X00632Y41319D01*
X00632Y41439D01*
X00617Y41469D01*
X00602Y41484D01*
X00572Y41499D01*
X00527Y41499D01*
X00497Y41484D01*
X00482Y41469D01*
X00467Y41439D01*
X00467Y41319D01*
X00647Y41859D02*
X00242Y41589D01*
X00332Y41949D02*
X00317Y41994D01*
X00317Y42069D01*
X00332Y42099D01*
X00347Y42114D01*
X00377Y42129D01*
X00407Y42129D01*
X00437Y42114D01*
X00452Y42099D01*
X00467Y42069D01*
X00482Y42009D01*
X00497Y41979D01*
X00512Y41964D01*
X00542Y41949D01*
X00572Y41949D01*
X00602Y41964D01*
X00617Y41979D01*
X00632Y42009D01*
X00632Y42084D01*
X00617Y42129D01*
X00632Y42219D02*
X00632Y42399D01*
X00317Y42309D02*
X00632Y42309D01*
X00632Y42564D02*
X00632Y42624D01*
X00617Y42654D01*
X00587Y42684D01*
X00527Y42699D01*
X00422Y42699D01*
X00362Y42684D01*
X00332Y42654D01*
X00317Y42624D01*
X00317Y42564D01*
X00332Y42534D01*
X00362Y42504D01*
X00422Y42489D01*
X00527Y42489D01*
X00587Y42504D01*
X00617Y42534D01*
X00632Y42564D01*
X00317Y42834D02*
X00632Y42834D01*
X00632Y42954D01*
X00617Y42984D01*
X00602Y42999D01*
X00572Y43014D01*
X00527Y43014D01*
X00497Y42999D01*
X00482Y42984D01*
X00467Y42954D01*
X00467Y42834D01*
%LPC*%
G54D15*
X02754Y01575D03*
G54D16*
X17390Y45236D03*
G54D17*
X19890Y45236D03*
G54D18*
X18905Y01968D03*
X20657Y01968D03*
G54D19*
X21395Y00716D03*
X18167Y00716D03*
G54D20*
X20716Y00716D03*
X18846Y00716D03*
G54D21*
X12114Y46430D03*
G54D22*
X13114Y46430D03*
X14114Y46430D03*
G54D21*
X01248Y44019D03*
G54D22*
X01248Y43019D03*
X01248Y42019D03*
X01248Y41019D03*
X01248Y40019D03*
X01248Y39019D03*
X01248Y38019D03*
G54D21*
X01248Y36143D03*
G54D22*
X01248Y35143D03*
X01248Y34143D03*
X01248Y33143D03*
X01248Y32143D03*
X01248Y31143D03*
X01248Y30143D03*
G54D21*
X01248Y28170D03*
G54D22*
X01248Y27170D03*
X01248Y26170D03*
X01248Y25170D03*
X01248Y24170D03*
X01248Y23170D03*
X01248Y22170D03*
G54D21*
X01248Y20199D03*
G54D22*
X01248Y19199D03*
X01248Y18199D03*
X01248Y17199D03*
X01248Y16199D03*
X01248Y15199D03*
X01248Y14199D03*
G54D21*
X35911Y46929D03*
G54D22*
X34911Y46929D03*
G54D23*
X20651Y07329D03*
G54D24*
X20651Y07829D03*
X21151Y07329D03*
X21151Y07829D03*
X21651Y07329D03*
X21651Y07829D03*
X22151Y07329D03*
X22151Y07829D03*
X22651Y07329D03*
X22651Y07829D03*
X24140Y01870D03*
X27282Y01870D03*
G54D21*
X38474Y43299D03*
G54D22*
X39474Y43299D03*
X38474Y38299D03*
X39474Y42299D03*
X38474Y37299D03*
X39474Y41299D03*
X38474Y36299D03*
X39474Y40299D03*
X38474Y35299D03*
X39474Y39299D03*
X38474Y34299D03*
X39474Y38299D03*
X38474Y33299D03*
X39474Y37299D03*
X38474Y32299D03*
X39474Y36299D03*
X38474Y31299D03*
X39474Y35299D03*
X38474Y30299D03*
X39474Y34299D03*
X38474Y29299D03*
X39474Y33299D03*
X38474Y28299D03*
X39474Y32299D03*
X39474Y31299D03*
X38474Y27299D03*
X39474Y30299D03*
X39474Y28299D03*
X39474Y27299D03*
X39474Y26299D03*
X39474Y25299D03*
X38474Y26299D03*
X38474Y25299D03*
X38474Y42299D03*
X38474Y41299D03*
X38474Y40299D03*
X38474Y39299D03*
X38474Y24299D03*
X39474Y24299D03*
X39474Y29299D03*
X38474Y23299D03*
X39474Y23299D03*
X38474Y22299D03*
X39474Y22299D03*
X38474Y21299D03*
X39474Y21299D03*
X38474Y20299D03*
X39474Y20299D03*
X38474Y19299D03*
X39474Y19299D03*
G54D25*
X32098Y04528D03*
X36598Y04528D03*
G54D22*
X36098Y08028D03*
X35600Y07028D03*
X35098Y08028D03*
X34600Y07028D03*
X34098Y08028D03*
X33600Y07028D03*
X33098Y08028D03*
G54D26*
X31298Y05729D03*
X37398Y05728D03*
G54D22*
X35956Y02599D03*
X32740Y02599D03*
X36956Y02599D03*
X31740Y02599D03*
G54D21*
X32600Y07028D03*
G54D27*
X16730Y26181D03*
X16533Y42028D03*
X16730Y34252D03*
X15746Y17618D03*
G54D21*
X32696Y41944D03*
G54D22*
X32696Y40944D03*
G54D21*
X20089Y34050D03*
G54D22*
X20089Y35050D03*
X32638Y13104D03*
X21148Y41630D03*
G54D21*
X22280Y40558D03*
G54D22*
X23280Y40558D03*
G54D16*
X30205Y45236D03*
G54D17*
X32705Y45236D03*
G54D21*
X04888Y01328D03*
G54D22*
X05888Y01328D03*
X06888Y01328D03*
X07888Y01328D03*
G54D21*
X01248Y12617D03*
G54D22*
X01248Y11617D03*
X01256Y10617D03*
X01248Y09617D03*
X01248Y08617D03*
X01248Y07617D03*
X01248Y06617D03*
X01248Y05617D03*
X01248Y04617D03*
X01248Y03617D03*
G54D15*
X38974Y46850D03*
X38974Y01575D03*
X02754Y46850D03*
M02*
