M48
;DRILL file {Pcbnew (2012-01-19 BZR 3256)-stable} date 19/07/2014 16:24:58
;FORMAT={-:-/ absolute / metric / decimal}
FMAT,2
METRIC,TZ
T1C0.399
T2C0.711
T3C0.851
T4C1.001
T5C1.016
T6C1.199
T7C1.300
T8C1.501
T9C1.750
T10C3.299
T11C4.201
%
G90
G05
M71
T1
X5.309Y114.943
X11.013Y75.870
X11.034Y79.870
X11.044Y56.129
X11.064Y96.289
X11.085Y99.469
X11.105Y59.309
X11.173Y108.161
X11.214Y67.790
X11.260Y87.876
X11.354Y39.921
X11.384Y47.490
X13.995Y31.999
X13.995Y30.000
X13.995Y27.000
X13.995Y25.001
X14.994Y31.001
X14.994Y25.999
X15.994Y31.999
X15.994Y30.000
X15.994Y27.000
X15.994Y23.000
X15.997Y25.001
X16.495Y75.250
X16.535Y116.190
X16.995Y95.499
X16.995Y31.001
X16.995Y25.999
X16.995Y24.000
X17.996Y31.999
X17.996Y30.000
X17.996Y27.000
X17.996Y25.001
X17.996Y23.000
X18.745Y94.249
X18.745Y74.000
X18.745Y56.251
X18.745Y53.749
X18.865Y115.011
X18.994Y31.001
X19.050Y8.606
X19.101Y13.178
X19.101Y11.044
X19.495Y110.749
X19.495Y110.000
X19.495Y105.250
X19.495Y104.501
X19.495Y90.749
X19.495Y90.000
X19.495Y85.250
X19.495Y84.501
X19.495Y71.250
X19.495Y70.500
X19.495Y65.001
X19.495Y64.249
X19.495Y51.001
X19.495Y50.249
X19.495Y45.499
X19.495Y44.750
X19.995Y31.999
X19.995Y30.000
X19.995Y28.001
X19.995Y24.000
X20.523Y12.238
X20.744Y95.499
X20.879Y9.774
X20.996Y75.250
X20.996Y31.001
X20.996Y27.000
X20.996Y25.001
X21.074Y116.299
X21.692Y13.381
X21.745Y56.500
X21.745Y25.999
X21.750Y11.001
X21.946Y8.580
X21.994Y31.999
X21.994Y30.000
X21.994Y28.001
X21.994Y24.000
X22.995Y31.001
X22.995Y27.000
X22.995Y25.001
X23.089Y12.238
X23.343Y9.952
X23.995Y31.999
X23.995Y30.000
X23.995Y28.001
X23.995Y24.000
X24.308Y13.432
X24.384Y11.120
X24.496Y102.499
X24.536Y8.606
X24.745Y60.249
X24.994Y100.500
X24.994Y83.000
X24.994Y39.751
X24.994Y31.001
X25.245Y81.750
X25.245Y80.749
X25.245Y42.751
X25.245Y41.501
X25.494Y102.499
X25.494Y63.749
X25.494Y61.750
X25.994Y98.001
X25.994Y77.749
X25.994Y57.501
X25.994Y31.999
X25.994Y30.000
X26.246Y115.359
X26.246Y109.751
X26.246Y95.499
X26.246Y89.751
X26.246Y86.251
X26.246Y75.250
X26.246Y69.499
X26.246Y65.999
X26.246Y55.001
X26.246Y49.251
X26.246Y45.750
X26.246Y37.000
X26.248Y106.246
X26.871Y84.374
X26.995Y104.249
X27.496Y112.499
X27.496Y92.499
X27.496Y72.250
X27.496Y51.999
X27.869Y63.376
X27.869Y43.124
X27.996Y113.500
X27.996Y93.749
X27.996Y73.500
X27.996Y53.251
X28.745Y102.499
X28.745Y82.499
X28.994Y113.000
X28.994Y93.251
X28.994Y62.250
X28.994Y52.751
X28.994Y41.999
X29.002Y72.992
X29.225Y80.749
X29.284Y60.249
X29.385Y39.751
X29.477Y100.500
X29.995Y113.500
X29.995Y111.501
X29.995Y110.500
X29.995Y108.750
X29.995Y107.000
X29.995Y105.499
X29.995Y104.501
X29.995Y103.500
X29.995Y93.749
X29.995Y91.501
X29.995Y90.500
X29.995Y88.750
X29.995Y87.000
X29.995Y85.499
X29.995Y84.501
X29.995Y83.500
X29.995Y73.500
X29.995Y71.250
X29.995Y70.249
X29.995Y68.501
X29.995Y67.000
X29.995Y65.250
X29.995Y64.249
X29.995Y63.251
X29.995Y53.251
X29.995Y51.001
X29.995Y50.000
X29.995Y48.250
X29.995Y46.751
X29.995Y45.001
X29.995Y44.000
X29.995Y43.000
X30.988Y72.992
X30.988Y70.742
X30.988Y64.750
X30.988Y63.749
X30.988Y62.758
X30.988Y44.501
X30.988Y43.500
X30.988Y42.507
X30.991Y93.246
X30.991Y90.996
X30.991Y85.001
X30.991Y84.000
X30.991Y83.005
X30.993Y112.997
X30.993Y110.998
X30.993Y105.001
X30.993Y104.000
X30.993Y103.002
X30.996Y109.499
X30.996Y108.001
X30.996Y106.251
X30.996Y89.499
X30.996Y87.749
X30.996Y86.251
X30.996Y69.251
X30.996Y67.749
X30.996Y66.251
X30.996Y52.751
X30.996Y50.500
X30.996Y48.999
X30.996Y47.501
X30.996Y45.999
X31.994Y113.500
X31.994Y111.501
X31.994Y110.500
X31.994Y108.750
X31.994Y107.000
X31.994Y105.499
X31.994Y104.501
X31.994Y103.500
X31.994Y93.749
X31.994Y91.501
X31.994Y90.500
X31.994Y88.750
X31.994Y87.000
X31.994Y85.499
X31.994Y84.501
X31.994Y83.500
X31.994Y73.500
X31.994Y71.250
X31.994Y70.249
X31.994Y68.501
X31.994Y67.000
X31.994Y65.250
X31.994Y64.249
X31.994Y63.251
X31.994Y53.251
X31.994Y51.001
X31.994Y50.000
X31.994Y48.250
X31.994Y46.751
X31.994Y45.001
X31.994Y44.000
X31.994Y43.000
X32.995Y113.000
X32.995Y93.251
X32.995Y73.000
X32.995Y52.751
X33.995Y113.500
X33.995Y93.749
X33.995Y73.500
X33.995Y53.251
X34.994Y113.000
X34.994Y93.251
X34.994Y73.000
X34.994Y52.751
X35.494Y107.000
X35.494Y101.249
X35.494Y87.000
X35.494Y81.250
X35.494Y66.751
X35.494Y61.001
X35.494Y46.500
X35.494Y41.001
X35.695Y108.301
X35.695Y88.301
X35.695Y68.049
X35.695Y47.800
X35.994Y113.500
X35.994Y111.999
X35.994Y110.000
X35.994Y93.749
X35.994Y91.999
X35.994Y90.000
X35.994Y73.500
X35.994Y71.750
X35.994Y69.751
X35.994Y53.251
X35.994Y51.501
X35.994Y49.500
X36.495Y107.749
X36.495Y101.249
X36.495Y87.749
X36.495Y81.250
X36.495Y67.501
X36.495Y61.001
X36.495Y47.249
X36.495Y41.001
X36.744Y112.751
X36.744Y93.000
X36.744Y71.001
X36.744Y52.250
X36.995Y111.249
X36.995Y91.501
X36.995Y50.749
X36.995Y30.000
X38.494Y31.501
X38.494Y30.500
X38.494Y18.499
X38.494Y1.999
X38.544Y19.815
X38.745Y15.499
X38.854Y12.070
X38.994Y45.250
X39.246Y105.750
X39.246Y85.999
X39.246Y65.499
X39.246Y32.250
X39.494Y53.000
X39.995Y44.750
X39.995Y26.251
X39.995Y25.250
X40.244Y111.999
X40.244Y71.750
X40.495Y92.250
X41.994Y106.751
X42.220Y15.464
X42.494Y87.000
X42.494Y66.500
X42.494Y11.750
X43.345Y73.500
X43.495Y25.250
X43.698Y15.103
X43.995Y5.999
X44.244Y51.999
X44.745Y54.249
X44.745Y39.751
X44.994Y48.250
X45.245Y18.001
X46.246Y42.250
X46.495Y55.001
X46.495Y48.001
X46.744Y46.251
X46.744Y10.749
X46.975Y102.032
X47.241Y91.973
X47.495Y55.999
X47.744Y100.749
X47.996Y81.501
X47.996Y74.750
X47.996Y73.500
X47.996Y35.999
X47.996Y34.000
X48.245Y7.000
X48.410Y91.935
X48.494Y99.251
X48.494Y61.999
X48.745Y60.500
X48.745Y10.749
X48.994Y100.000
X48.994Y98.501
X48.994Y81.501
X48.994Y65.250
X48.994Y63.749
X48.994Y59.251
X48.994Y57.749
X48.994Y53.500
X48.994Y51.999
X49.246Y15.999
X49.494Y64.501
X49.494Y58.499
X49.494Y52.751
X49.494Y7.000
X49.715Y25.499
X50.244Y1.999
X50.259Y27.465
X50.495Y46.751
X50.495Y41.999
X50.648Y109.967
X50.744Y37.000
X50.744Y31.250
X51.245Y95.750
X51.247Y82.499
X51.448Y26.345
X51.493Y79.751
X51.493Y78.501
X51.493Y75.750
X51.745Y77.500
X51.745Y50.500
X51.745Y31.250
X51.745Y24.750
X51.750Y92.159
X51.750Y54.140
X52.245Y37.501
X52.746Y72.250
X52.746Y15.999
X52.746Y8.999
X52.995Y10.500
X53.243Y37.501
X53.495Y73.000
X53.744Y48.250
X54.244Y44.000
X54.244Y13.000
X54.496Y76.500
X54.498Y79.499
X54.498Y78.250
X54.795Y40.500
X55.202Y15.222
X55.245Y35.250
X55.245Y31.001
X55.245Y24.750
X55.245Y21.750
X55.372Y27.092
X55.745Y40.500
X55.783Y15.964
X55.994Y35.001
X55.994Y31.750
X56.233Y85.014
X56.246Y84.000
X56.246Y24.750
X56.406Y106.510
X56.495Y40.749
X56.744Y15.499
X56.975Y109.530
X57.244Y40.500
X57.244Y33.749
X57.244Y10.500
X57.739Y25.410
X57.996Y58.999
X57.996Y40.749
X57.996Y37.501
X57.996Y32.250
X58.024Y81.991
X58.494Y55.301
X58.494Y30.749
X58.494Y15.999
X58.694Y12.649
X58.745Y40.500
X58.748Y78.250
X58.994Y31.999
X59.195Y35.999
X59.235Y25.926
X59.246Y60.000
X59.246Y27.501
X59.246Y13.500
X59.373Y24.702
X59.494Y20.749
X59.794Y55.100
X59.896Y111.951
X59.995Y35.250
X59.995Y30.749
X60.495Y58.999
X60.495Y50.000
X60.495Y21.501
X61.244Y19.751
X61.295Y51.001
X61.305Y106.459
X61.336Y90.119
X61.364Y91.049
X61.394Y35.199
X62.194Y35.199
X62.746Y51.999
X62.845Y117.201
X62.946Y16.500
X62.995Y35.199
X63.495Y62.301
X63.495Y51.750
X63.645Y81.821
X63.744Y31.750
X63.795Y35.199
X63.995Y19.251
X63.995Y16.251
X64.186Y78.440
X64.234Y80.340
X64.244Y51.501
X64.244Y23.749
X64.694Y33.096
X64.745Y82.949
X64.765Y79.329
X64.826Y77.671
X64.849Y33.950
X64.994Y51.750
X65.146Y16.500
X65.176Y105.100
X65.385Y78.461
X65.395Y80.330
X65.456Y108.859
X65.494Y55.001
X65.494Y53.749
X65.494Y22.250
X65.695Y81.869
X65.745Y26.749
X65.745Y23.749
X65.761Y94.026
X65.811Y99.461
X65.964Y88.158
X66.246Y40.249
X66.642Y43.470
X66.825Y83.020
X66.886Y80.561
X66.954Y78.369
X66.995Y41.999
X67.031Y103.665
X67.145Y75.761
X67.244Y23.749
X67.305Y118.450
X67.335Y107.259
X67.351Y113.662
X67.488Y115.148
X67.602Y116.863
X67.744Y44.501
X67.775Y81.859
X67.945Y111.247
X68.003Y79.339
X68.245Y19.251
X68.334Y76.959
X68.369Y114.290
X68.402Y117.650
X68.415Y116.086
X68.428Y96.820
X68.494Y27.501
X68.529Y91.232
X68.745Y23.749
X68.895Y118.417
X68.984Y82.959
X69.075Y80.541
X69.075Y78.389
X69.101Y115.204
X69.164Y104.999
X69.192Y116.863
X69.238Y113.617
X69.245Y22.250
X69.245Y20.500
X69.746Y56.251
X69.896Y116.101
X69.926Y109.190
X69.957Y117.673
X69.995Y51.001
X70.002Y114.325
X70.084Y74.300
X70.244Y23.749
X70.244Y16.251
X70.495Y48.999
X70.495Y41.750
X70.607Y43.937
X70.665Y118.463
X70.744Y48.250
X70.747Y116.873
X70.825Y115.181
X70.825Y113.571
X70.996Y46.751
X70.996Y45.250
X70.996Y15.999
X71.044Y111.501
X71.095Y99.563
X71.222Y93.950
X71.244Y41.999
X71.450Y88.235
X71.478Y116.119
X71.496Y47.501
X71.496Y45.999
X71.557Y117.605
X71.557Y114.303
X71.628Y107.386
X71.994Y41.750
X72.438Y116.886
X72.448Y118.486
X72.454Y58.301
X72.494Y115.250
X72.596Y37.300
X72.598Y113.640
X72.746Y41.750
X72.746Y5.199
X72.944Y77.869
X73.094Y13.449
X73.101Y109.698
X73.195Y37.899
X73.243Y60.000
X73.243Y58.999
X73.355Y89.987
X73.495Y41.999
X73.495Y21.250
X73.609Y104.922
X73.696Y32.200
X73.744Y27.000
X73.795Y38.499
X73.889Y94.864
X73.889Y48.064
X73.914Y92.197
X73.990Y97.226
X74.244Y51.750
X74.244Y41.750
X74.331Y47.399
X74.498Y117.165
X74.745Y38.499
X74.955Y93.264
X74.994Y41.849
X75.082Y95.905
X75.494Y54.750
X75.667Y87.371
X75.745Y41.651
X75.745Y34.750
X75.819Y107.234
X76.048Y97.150
X76.124Y92.172
X76.175Y111.704
X76.175Y94.788
X76.246Y55.250
X76.429Y118.867
X76.500Y61.631
X76.645Y34.849
X76.886Y95.905
X76.995Y55.999
X77.165Y93.213
X77.244Y35.451
X77.244Y11.750
X77.394Y104.948
X77.495Y26.500
X77.894Y31.849
X77.996Y34.501
X78.029Y89.682
X78.044Y33.251
X78.080Y97.175
X78.232Y117.292
X78.283Y94.788
X78.384Y92.172
X78.745Y34.750
X78.765Y109.799
X78.994Y37.749
X79.144Y27.051
X79.494Y34.501
X79.746Y38.499
X79.746Y26.299
X79.756Y119.096
X79.985Y107.793
X80.035Y114.727
X80.244Y34.750
X80.493Y111.831
X80.495Y39.251
X80.518Y96.363
X80.518Y91.613
X80.645Y87.523
X80.950Y117.292
X81.244Y40.000
X81.244Y34.750
X83.109Y93.950
X83.231Y35.514
X83.495Y37.000
X83.594Y26.901
X84.480Y91.333
X84.894Y30.650
X84.993Y34.501
X84.993Y29.500
X85.245Y48.001
X85.245Y45.499
X85.245Y40.249
X85.245Y36.751
X85.725Y96.363
X85.994Y47.501
X85.994Y45.001
X86.246Y39.251
X86.744Y47.000
X86.744Y45.499
X87.551Y99.677
X87.551Y96.850
X87.996Y48.499
X88.745Y47.000
X88.994Y36.500
X89.245Y35.751
X89.995Y30.249
X91.994Y28.750
X92.494Y24.750
X92.746Y45.250
X92.746Y42.250
X92.746Y37.501
X92.746Y32.499
X93.744Y34.000
X93.744Y32.499
X94.244Y45.001
X94.496Y33.500
X94.496Y26.749
X94.993Y44.000
X96.086Y99.499
X96.744Y41.501
X96.744Y37.000
X96.944Y19.850
X97.244Y35.001
X97.244Y25.999
X97.495Y24.000
X100.495Y44.000
X100.744Y39.500
X100.744Y38.001
X100.744Y36.500
X100.744Y35.001
X100.744Y33.500
X100.744Y31.999
X101.745Y30.000
T2
X52.454Y19.886
X52.454Y18.616
X53.724Y19.886
X53.724Y18.616
X54.994Y19.886
X54.994Y18.616
X56.264Y19.886
X56.264Y18.616
X57.534Y19.886
X57.534Y18.616
T3
X47.869Y1.819
X48.019Y4.999
X52.469Y4.999
X52.619Y1.819
T4
X61.316Y4.750
X69.296Y4.750
X82.804Y17.851
X84.069Y20.391
X85.344Y17.851
X86.609Y20.391
X87.884Y17.851
X89.149Y20.391
X90.424Y17.851
X91.689Y20.391
T5
X3.170Y32.047
X3.170Y29.507
X3.170Y24.427
X3.170Y21.887
X3.170Y19.347
X3.170Y16.807
X3.170Y14.267
X3.170Y11.727
X3.170Y9.187
X3.190Y26.967
T6
X3.170Y111.808
X3.170Y109.268
X3.170Y106.728
X3.170Y104.188
X3.170Y101.648
X3.170Y99.108
X3.170Y96.568
X3.170Y91.803
X3.170Y89.263
X3.170Y86.723
X3.170Y84.183
X3.170Y81.643
X3.170Y79.103
X3.170Y76.563
X3.170Y71.552
X3.170Y69.012
X3.170Y66.472
X3.170Y63.932
X3.170Y61.392
X3.170Y58.852
X3.170Y56.312
X3.170Y51.305
X3.170Y48.765
X3.170Y46.225
X3.170Y43.685
X3.170Y41.145
X3.170Y38.605
X3.170Y36.065
X12.416Y3.373
X14.956Y3.373
X17.496Y3.373
X20.036Y3.373
X30.770Y117.932
X33.310Y117.932
X35.850Y117.932
X51.026Y89.027
X51.026Y86.487
X53.716Y105.740
X56.591Y103.017
X59.131Y103.017
X80.620Y6.601
X82.901Y33.284
X83.048Y106.538
X83.048Y103.998
X83.160Y6.601
X88.674Y119.200
X91.214Y119.200
X91.328Y6.601
X93.868Y6.601
X97.724Y109.979
X97.724Y107.439
X97.724Y104.899
X97.724Y102.359
X97.724Y99.819
X97.724Y97.279
X97.724Y94.739
X97.724Y92.199
X97.724Y89.659
X97.724Y87.119
X97.724Y84.579
X97.724Y82.039
X97.724Y79.499
X97.724Y76.959
X97.724Y74.419
X97.724Y71.879
X97.724Y69.339
X97.724Y66.799
X97.724Y64.259
X97.724Y61.719
X97.724Y59.179
X97.724Y56.639
X97.724Y54.099
X97.724Y51.559
X97.724Y49.019
X100.264Y109.979
X100.264Y107.439
X100.264Y104.899
X100.264Y102.359
X100.264Y99.819
X100.264Y97.279
X100.264Y94.739
X100.264Y92.199
X100.264Y89.659
X100.264Y87.119
X100.264Y84.579
X100.264Y82.039
X100.264Y79.499
X100.264Y76.959
X100.264Y74.419
X100.264Y71.879
X100.264Y69.339
X100.264Y66.799
X100.264Y64.259
X100.264Y61.719
X100.264Y59.179
X100.264Y56.639
X100.264Y54.099
X100.264Y51.559
X100.264Y49.019
T7
X44.171Y114.899
X50.521Y114.899
X76.721Y114.899
X83.071Y114.899
T8
X46.144Y1.819
X54.343Y1.819
T9
X79.497Y14.552
X94.991Y14.549
T10
X81.529Y11.501
X92.959Y11.501
T11
X6.995Y118.999
X6.995Y4.001
X98.994Y118.999
X98.994Y4.001
T0
M30
